<?xml version="1.0" encoding="UTF-8"?>
<svg viewBox="0 0 728 505" xmlns="http://www.w3.org/2000/svg" xmlns:xlink="http://www.w3.org/1999/xlink">
<defs>
<g id="x">
<path d="m1.766-3h1.016l1.719 3h1.141l-1.891-3.109c0.9688-0.1562 1.641-0.7812 1.641-1.781 0-1.375-1.094-1.875-2.406-1.875h-2.156v6.766h0.9375zm0-2.953h1.156c0.8281 0 1.516 0.25 1.516 1.062s-0.6875 1.094-1.578 1.094h-1.094z"/>
</g>
<g id="q">
<path d="m3.594-2.812c-1.531 0-3.156 0.1719-3.156 1.531 0 1.047 0.9219 1.391 1.641 1.391 0.6875 0 1.203-0.2656 1.516-0.7656h0.03125c0 0.2188 0.03125 0.4531 0.07812 0.6562h0.8125c-0.04688-0.2188-0.0625-0.5938-0.0625-0.8906v-1.984c0-1-0.5938-1.781-1.891-1.781-0.7344 0-1.422 0.2656-1.859 0.6875l0.4844 0.5625c0.2969-0.2969 0.7812-0.5156 1.281-0.5156 0.6719 0 1.125 0.3281 1.125 0.9844zm0 0.6562v0.2344c0 0.7656-0.4688 1.328-1.312 1.328-0.4531 0-0.9219-0.1719-0.9219-0.7031 0-0.7656 1.125-0.8594 2.016-0.8594z"/>
</g>
<g id="l">
<path d="m0.7344-4.531c0.03125 0.2969 0.03125 0.7344 0.03125 0.9844v3.547h0.9062v-2.406c0-0.8906 0.5-1.484 1.219-1.484 0.8281 0 1.031 0.6406 1.031 1.375v2.516h0.8906v-2.812c0-1-0.5312-1.844-1.688-1.844-0.6562 0-1.25 0.3906-1.469 0.875h-0.03125c0-0.1875-0.01562-0.5156-0.04688-0.75z"/>
</g>
<g id="w">
<path d="m4.375-0.7188h0.03125v0.7188h0.8594v-7.219h-0.8906v3.375h-0.01562c-0.3281-0.4375-0.8906-0.8125-1.625-0.8125-1.344 0-2.266 1.047-2.266 2.391 0 1.328 0.8906 2.391 2.281 2.391 0.6406 0 1.281-0.2969 1.625-0.8438zm-2.969-1.547c0-0.8594 0.5156-1.641 1.5-1.641 0.9062 0 1.531 0.7812 1.531 1.641 0 0.875-0.625 1.641-1.531 1.641-0.9844 0-1.5-0.7969-1.5-1.641z"/>
</g>
<g id="j">
<path d="m5.359-2.266c0-1.406-1.062-2.391-2.453-2.391-1.375 0-2.422 0.9844-2.422 2.391 0 1.391 1.047 2.391 2.422 2.391 1.391 0 2.453-1 2.453-2.391zm-0.9375 0c0 0.8594-0.5312 1.641-1.516 1.641-0.9531 0-1.5-0.7812-1.5-1.641s0.5469-1.641 1.5-1.641c0.9844 0 1.516 0.7812 1.516 1.641z"/>
</g>
<g id="z">
<path d="m1.656-3.781h-0.03125c0-0.1875-0.01562-0.5156-0.04688-0.75h-0.8438c0.03125 0.2969 0.03125 0.7344 0.03125 0.9844v3.547h0.9062v-2.406c0-0.8906 0.5-1.484 1.156-1.484 0.7188 0 0.9531 0.4844 0.9531 1.203v2.688h0.8906v-2.438c0-0.7188 0.3281-1.453 1.156-1.453 0.7812 0 1 0.6406 1 1.375v2.516h0.8906v-2.812c0-1-0.5156-1.844-1.688-1.844-0.6406 0-1.234 0.3281-1.531 0.9062-0.2812-0.625-0.8125-0.9062-1.406-0.9062-0.6875 0-1.219 0.3906-1.438 0.875z"/>
</g>
<g id="v">
<path d="m1.688-7.219h-0.8906v7.219h0.8906z"/>
</g>
<g id="o">
<path d="m4.594-3.906c-0.375-0.4844-1.062-0.75-1.703-0.75-1.375 0-2.406 0.9688-2.406 2.391 0 1.438 1.031 2.391 2.422 2.391 0.7344 0 1.312-0.2656 1.688-0.7031l-0.5938-0.5469c-0.2344 0.2969-0.625 0.5-1.094 0.5-0.9375 0-1.484-0.7812-1.484-1.641s0.5469-1.625 1.484-1.625c0.4219 0 0.8438 0.2188 1.031 0.5156z"/>
</g>
<g id="h">
<path d="m2.984-4.531h-1.203v-1.297h-0.8906v1.297h-0.8594v0.7344h0.8594v2.453c0 0.9375 0.4688 1.422 1.328 1.422 0.2656 0 0.5469-0.04688 0.7656-0.125l-0.03125-0.7344c-0.1562 0.07812-0.3594 0.1094-0.5312 0.1094-0.4531 0-0.6406-0.2188-0.6406-0.7656v-2.359h1.203z"/>
</g>
<g id="u">
<path d="m1.688-4.531h-0.9062v4.531h0.9062zm0.1406-1.625c0-0.3281-0.2656-0.5781-0.5938-0.5781s-0.5938 0.25-0.5938 0.5781c0 0.3125 0.2656 0.5781 0.5938 0.5781s0.5938-0.25 0.5938-0.5781z"/>
</g>
<g id="bc">
<path d="m3.188-5.922h2.172v-0.8438h-5.281v0.8438h2.172v5.922h0.9375z"/>
</g>
<g id="m">
<path d="m0.7656-3.547v3.547h0.9062v-2.375c0-0.75 0.4062-1.453 1.266-1.453 0.1406 0 0.2969 0.01562 0.4062 0.04688l0.04688-0.8281c-0.1094-0.03125-0.2344-0.04688-0.3594-0.04688-0.6094 0-1.125 0.375-1.375 0.8906h-0.03125c0-0.1875-0.01562-0.5312-0.04688-0.7656h-0.8438c0.03125 0.2969 0.03125 0.7344 0.03125 0.9844z"/>
</g>
<g id="d">
<path d="m1.391-2.656c0.0625-0.7188 0.6562-1.281 1.422-1.281 0.8281 0 1.25 0.5625 1.281 1.281zm3.609 0.3594c0-1.453-0.8438-2.359-2.188-2.359-1.328 0-2.328 0.9844-2.328 2.406s1 2.375 2.375 2.375c0.8125 0 1.469-0.2969 1.953-0.9219l-0.625-0.5156c-0.2656 0.3906-0.7188 0.6875-1.328 0.6875-0.7812 0-1.438-0.5938-1.469-1.375h3.594c0.01562-0.09375 0.01562-0.2031 0.01562-0.2969z"/>
</g>
<g id="ak">
<path d="m0.5469 1.469c0.5625 0.5156 1.438 0.8281 2.219 0.8281 1.891 0 2.5-1.203 2.5-2.531v-4.297h-0.8594v0.7344h-0.03125c-0.3438-0.5625-0.9688-0.8594-1.625-0.8594-1.391 0-2.266 1.062-2.266 2.359s0.8906 2.328 2.281 2.328c0.6406 0 1.25-0.2656 1.594-0.7812h0.01562v0.5938c0 0.9219-0.4062 1.672-1.594 1.672-0.625 0-1.266-0.2969-1.656-0.75zm0.8594-3.781c0-0.8594 0.5469-1.594 1.5-1.594 0.9062 0 1.531 0.7344 1.531 1.594 0 0.9062-0.6094 1.594-1.531 1.594-0.9531 0-1.5-0.7656-1.5-1.594z"/>
</g>
<g id="aj">
<path d="m4.812 0c-0.03125-0.2969-0.04688-0.7344-0.04688-0.9688v-3.562h-0.8906v2.406c0 0.9062-0.5 1.5-1.219 1.5-0.8281 0-1.031-0.6562-1.031-1.406v-2.5h-0.8906v2.812c0 1.016 0.5312 1.844 1.688 1.844 0.6562 0 1.25-0.3906 1.484-0.875h0.01562c0 0.2031 0.01562 0.5156 0.04688 0.75z"/>
</g>
<g id="ai">
<path d="m1.672-0.6719h0.03125c0.3281 0.5 0.9531 0.7969 1.594 0.7969 1.391 0 2.281-1.062 2.281-2.391 0-1.344-0.9219-2.391-2.266-2.391-0.75 0-1.344 0.3594-1.625 0.8438h-0.03125v-0.7188h-0.8906v6.828h0.9062zm2.984-1.594c0 0.8438-0.5312 1.641-1.516 1.641-0.9219 0-1.531-0.7656-1.531-1.641 0-0.8594 0.6094-1.641 1.531-1.641 0.9844 0 1.516 0.7812 1.516 1.641z"/>
</g>
<g id="aa">
<path d="m4.719-4.531h-0.9531l-1.344 3.562h-0.01562l-1.328-3.562h-1l1.844 4.531h0.9844z"/>
</g>
<g id="bb">
<path d="m5.859-1.562c-0.4062 0.5781-1.062 0.8906-1.812 0.8906-1.562 0-2.531-1.203-2.531-2.719 0-1.484 1-2.703 2.562-2.703 0.6875 0 1.359 0.3281 1.672 0.7812l0.75-0.5625c-0.5-0.6875-1.5-1.062-2.422-1.062-2.047 0-3.594 1.438-3.594 3.547 0 2.078 1.484 3.562 3.547 3.562 1.188 0 2.062-0.5 2.578-1.219z"/>
</g>
<g id="ac">
<path d="m2.719-10.41h-1.453v10.41h1.453z"/>
</g>
<g id="f">
<path d="m1.125-6.969c0.04688 0.4688 0.0625 1.141 0.0625 1.5v5.469h1.391v-3.703c0-1.375 0.7656-2.297 1.859-2.297 1.281 0 1.578 1 1.578 2.141v3.859h1.391v-4.312c0-1.562-0.8125-2.844-2.609-2.844-1 0-1.922 0.5938-2.25 1.344h-0.04688c0-0.2969-0.03125-0.7969-0.0625-1.156z"/>
</g>
<g id="c">
<path d="m4.594-6.969h-1.844v-1.984h-1.375v1.984h-1.328v1.141h1.328v3.766c0 1.453 0.7188 2.188 2.031 2.188 0.4219 0 0.8594-0.07812 1.172-0.2031l-0.04688-1.125c-0.2344 0.1094-0.5469 0.1719-0.7969 0.1719-0.6875 0-0.9844-0.3281-0.9844-1.172v-3.625h1.844z"/>
</g>
<g id="e">
<path d="m2.141-4.094c0.09375-1.094 1-1.969 2.188-1.969 1.281 0 1.922 0.8594 1.953 1.969zm5.547 0.5469c0-2.203-1.297-3.609-3.359-3.609-2.031 0-3.594 1.516-3.594 3.688 0 2.188 1.562 3.656 3.672 3.656 1.234 0 2.25-0.4531 3-1.422l-0.9688-0.7812c-0.4062 0.5938-1.094 1.062-2.031 1.062-1.219 0-2.219-0.9219-2.266-2.109h5.531c0.01562-0.1719 0.01562-0.3281 0.01562-0.4844z"/>
</g>
<g id="av">
<path d="m2.578-6.969h-1.375v6.969h1.375zm0.2344-2.5c0-0.5156-0.4219-0.9062-0.9219-0.9062s-0.9062 0.4062-0.9062 0.9062c0 0.4844 0.4062 0.875 0.9062 0.875s0.9219-0.375 0.9219-0.875z"/>
</g>
<g id="a">
<path d="m8.234-3.5c0-2.141-1.625-3.656-3.75-3.656-2.141 0-3.75 1.516-3.75 3.656 0 2.156 1.609 3.688 3.75 3.688 2.125 0 3.75-1.531 3.75-3.688zm-1.438 0c0 1.328-0.8125 2.531-2.312 2.531-1.484 0-2.328-1.203-2.328-2.531 0-1.312 0.8438-2.5 2.328-2.5 1.5 0 2.312 1.188 2.312 2.5z"/>
</g>
<g id="y">
<path d="m4.047-4.172h-3.406v1.172h3.406z"/>
</g>
<g id="b">
<path d="m1.188-5.469v5.469h1.391v-3.656c0-1.156 0.625-2.234 1.953-2.234 0.2188 0 0.4531 0.03125 0.625 0.07812l0.0625-1.281c-0.1719-0.04688-0.3594-0.0625-0.5469-0.0625-0.9375 0-1.75 0.5625-2.125 1.375h-0.04688c0-0.2969-0.03125-0.8281-0.0625-1.188h-1.312c0.04688 0.4688 0.0625 1.141 0.0625 1.5z"/>
</g>
<g id="n">
<path d="m5.516-4.312c-2.344 0-4.844 0.25-4.844 2.344 0 1.594 1.422 2.141 2.531 2.141 1.047 0 1.828-0.4219 2.328-1.172h0.04688c0 0.3281 0.04688 0.6875 0.125 1h1.25c-0.07812-0.3438-0.1094-0.9062-0.1094-1.375v-3.047c0-1.547-0.9062-2.734-2.906-2.734-1.125 0-2.172 0.4062-2.844 1.047l0.7344 0.875c0.4688-0.4688 1.203-0.7969 1.969-0.7969 1.031 0 1.719 0.5 1.719 1.516zm0 1v0.3594c0 1.172-0.7188 2.047-2 2.047-0.7031 0-1.438-0.2656-1.438-1.094 0-1.172 1.734-1.312 3.109-1.312z"/>
</g>
<g id="r">
<path d="m4.906-9.125h3.328v-1.281h-8.109v1.281h3.328v9.125h1.453z"/>
</g>
<g id="t">
<path d="m2.547-5.812h-0.04688c0-0.2969-0.03125-0.7969-0.0625-1.156h-1.312c0.04688 0.4688 0.0625 1.141 0.0625 1.5v5.469h1.391v-3.703c0-1.375 0.75-2.297 1.766-2.297 1.109 0 1.469 0.7656 1.469 1.859v4.141h1.391v-3.766c0-1.078 0.5-2.234 1.75-2.234 1.203 0 1.547 1 1.547 2.141v3.859h1.375v-4.312c0-1.562-0.7969-2.844-2.594-2.844-0.9844 0-1.891 0.5-2.359 1.406-0.4375-0.9844-1.234-1.406-2.156-1.406-1.062 0-1.875 0.6094-2.219 1.344z"/>
</g>
<g id="g">
<path d="m0.8594 2.266c0.8594 0.7969 2.203 1.266 3.406 1.266 2.891 0 3.844-1.859 3.844-3.891v-6.609h-1.344v1.125h-0.03125c-0.5156-0.875-1.5-1.312-2.5-1.312-2.141 0-3.5 1.641-3.5 3.625 0 2 1.375 3.594 3.516 3.594 0.9844 0 1.938-0.4375 2.453-1.203h0.03125v0.8906c0 1.438-0.625 2.578-2.453 2.578-0.9688 0-1.953-0.4688-2.547-1.141zm1.297-5.812c0-1.344 0.8594-2.453 2.312-2.453 1.406 0 2.359 1.125 2.359 2.453 0 1.375-0.9375 2.438-2.359 2.438-1.453 0-2.312-1.172-2.312-2.438z"/>
</g>
<g id="k">
<path d="m7.406 0c-0.04688-0.4531-0.0625-1.125-0.0625-1.5v-5.469h-1.375v3.703c0 1.391-0.7656 2.297-1.875 2.297-1.281 0-1.578-1-1.578-2.141v-3.859h-1.391v4.328c0 1.547 0.8125 2.828 2.609 2.828 1.016 0 1.922-0.5938 2.266-1.328h0.03125c0 0.2812 0.03125 0.7812 0.0625 1.141z"/>
</g>
<g id="i">
<path d="m2.578-1.047h0.03125c0.5156 0.7812 1.469 1.234 2.453 1.234 2.156 0 3.516-1.641 3.516-3.688s-1.406-3.656-3.484-3.656c-1.141 0-2.047 0.5469-2.516 1.281h-0.03125v-1.094h-1.359v10.5h1.391zm4.578-2.453c0 1.312-0.8125 2.531-2.328 2.531-1.406 0-2.344-1.172-2.344-2.516 0-1.328 0.9375-2.516 2.344-2.516 1.516 0 2.328 1.203 2.328 2.5z"/>
</g>
<g id="s">
<path d="m9.016-2.406c-0.6094 0.8906-1.625 1.375-2.781 1.375-2.406 0-3.906-1.844-3.906-4.188 0-2.266 1.531-4.172 3.938-4.172 1.078 0 2.094 0.5156 2.594 1.219l1.141-0.875c-0.7656-1.062-2.297-1.609-3.734-1.609-3.156 0-5.531 2.203-5.531 5.438 0 3.203 2.297 5.484 5.484 5.484 1.812 0 3.156-0.7812 3.953-1.875z"/>
</g>
<g id="p">
<path d="m2.594-11.11h-1.375v11.11h1.375z"/>
</g>
<g id="ba">
<path d="m1.266 0h1.453v-4.562h1.641c2.156 0 3.797-0.8594 3.797-2.938 0-2.031-1.469-2.906-3.719-2.906h-3.172zm1.453-9.172h1.562c1.375 0 2.406 0.4219 2.406 1.672 0 1.234-1 1.703-2.422 1.703h-1.547z"/>
</g>
<g id="az">
<path d="m7.062-6c-0.5781-0.75-1.625-1.156-2.609-1.156-2.125 0-3.719 1.484-3.719 3.672 0 2.219 1.594 3.672 3.75 3.672 1.109 0 2-0.4062 2.594-1.078l-0.9219-0.8438c-0.375 0.4688-0.9688 0.7656-1.672 0.7656-1.453 0-2.297-1.188-2.297-2.516s0.8438-2.516 2.281-2.516c0.6562 0 1.297 0.3438 1.594 0.7969z"/>
</g>
<g id="ay">
<path d="m2.734-2.562h4.938l1.047 2.562h1.656l-4.469-10.41h-1.328l-4.5 10.41h1.609zm2.469-6.141 1.938 4.875h-3.891z"/>
</g>
<g id="ax">
<path d="m5.906-6c-0.5-0.75-1.547-1.156-2.531-1.156-1.312 0-2.625 0.6406-2.625 2.141 0 1.297 1.094 1.703 2.031 1.922 1.188 0.2812 1.812 0.5156 1.812 1.156 0 0.7656-0.6875 1.016-1.375 1.016-0.7812 0-1.484-0.4219-1.859-0.9688l-0.9844 0.8281c0.6719 0.8438 1.75 1.25 2.812 1.25 1.406 0 2.781-0.5938 2.781-2.25 0-1.219-1.016-1.75-2.344-2.047-1.047-0.2344-1.578-0.4531-1.578-1.047 0-0.6562 0.6562-0.9062 1.281-0.9062 0.7188 0 1.312 0.3594 1.625 0.8594z"/>
</g>
<g id="aw">
<path d="m6.734-1.109h0.03125v1.109h1.344v-11.11h-1.375v5.188h-0.03125c-0.4844-0.6719-1.359-1.234-2.484-1.234-2.094 0-3.5 1.609-3.5 3.656s1.359 3.688 3.516 3.688c0.9844 0 1.984-0.4531 2.5-1.297zm-4.578-2.391c0-1.297 0.7969-2.5 2.312-2.5 1.406 0 2.344 1.188 2.344 2.516 0 1.344-0.9375 2.516-2.344 2.516-1.516 0-2.312-1.219-2.312-2.531z"/>
</g>
<g id="au">
<path d="m10.31-0.625v-5.516h-4.297v2.031h1.984v1.891c-0.4375 0.1875-0.9844 0.2812-1.562 0.2812-2.047 0-3.172-1.375-3.172-3.281 0-1.859 1.281-3.234 3.047-3.234 1.016 0 1.859 0.4062 2.344 0.9688l1.578-1.812c-0.8594-0.8438-2.375-1.375-4-1.375-3.172 0-5.641 2.125-5.641 5.453 0 3.281 2.391 5.484 5.703 5.484 1.609 0 3-0.375 4.016-0.8906z"/>
</g>
<g id="at">
<path d="m5.781-7.469c-0.1094-0.03125-0.3125-0.04688-0.5156-0.04688-0.8906 0-1.609 0.5312-1.969 1.266h-0.03125v-1.062h-2.328v7.312h2.406v-3.766c0-0.5938 0.4375-1.656 1.719-1.656 0.2031 0 0.4062 0.01562 0.625 0.07812z"/>
</g>
<g id="ao">
<path d="m8.688-3.688c0-2.391-1.844-3.859-4.062-3.859-2.203 0-4.047 1.469-4.047 3.859s1.844 3.922 4.047 3.922c2.219 0 4.062-1.531 4.062-3.922zm-2.312 0c0 0.9375-0.6094 1.891-1.734 1.891s-1.734-0.9531-1.734-1.891 0.5938-1.859 1.719-1.859 1.75 0.9219 1.75 1.859z"/>
</g>
<g id="ae">
<path d="m8.078 0v-7.312h-2.406v3.953c0 0.8281-0.4531 1.562-1.297 1.562-0.875 0-1.078-0.7344-1.078-1.547v-3.969h-2.438v4.516c0 1.469 0.7031 3 2.672 3 1.016 0 1.859-0.5781 2.203-1.219h0.01562v1.016z"/>
</g>
<g id="an">
<path d="m9.078-3.688c0-2.047-1.344-3.828-3.469-3.828-1.078 0-1.891 0.5156-2.328 1.094h-0.04688v-0.8906h-2.297v10.84h2.406v-4.344h0.03125c0.4531 0.6406 1.328 1.016 2.219 1.016 2.203 0 3.484-1.844 3.484-3.891zm-2.344 0c0 0.9531-0.5625 1.891-1.719 1.891-1.078 0-1.75-0.9219-1.75-1.875 0-0.9219 0.6719-1.875 1.75-1.875 1.156 0 1.719 0.9219 1.719 1.859z"/>
</g>
<g id="am">
<path d="m3.594 0v-10.41h-2.516v10.41z"/>
</g>
<g id="ab">
<path d="m8.172 0v-4.531c0-1.469-0.7031-2.984-2.672-2.984-1.016 0-1.859 0.5625-2.188 1.219h-0.03125v-1.016h-2.344v7.312h2.422v-3.969c0-0.8281 0.4375-1.562 1.297-1.562s1.094 0.7344 1.094 1.531v4z"/>
</g>
<g id="al">
<path d="m7.375-6.562c-0.5781-0.5938-1.672-0.9844-2.719-0.9844-2.281 0-4.078 1.516-4.078 3.891 0 2.422 1.781 3.891 4.094 3.891 1.078 0 2.094-0.3594 2.703-0.9375l-1.344-1.625c-0.2812 0.3438-0.8125 0.5312-1.297 0.5312-1.062 0-1.719-0.8438-1.719-1.859s0.6719-1.875 1.688-1.875c0.4844 0 1.016 0.2344 1.281 0.5781z"/>
</g>
<g id="ad">
<path d="m3.406 0v-11.11h-2.438v11.11z"/>
</g>
<g id="ah">
<path d="m8.688 0v-11.11h-2.406v4.578h-0.03125c-0.4062-0.4844-1.156-0.9844-2.219-0.9844-2.141 0-3.453 1.781-3.453 3.828s1.266 3.891 3.469 3.891c0.9688 0 1.938-0.4219 2.406-1.156h0.03125v0.9531zm-2.297-3.672c0 0.9531-0.6719 1.875-1.766 1.875-1.141 0-1.734-0.9375-1.734-1.891 0-0.9375 0.5938-1.859 1.734-1.859 1.094 0 1.766 0.9531 1.766 1.875z"/>
</g>
<g id="as">
<path d="m2.875-4.5c0.0625-0.75 0.7344-1.391 1.656-1.391 0.9688 0 1.453 0.625 1.453 1.391zm5.328 0.9375c0-2.5-1.516-3.984-3.672-3.984-2.219 0-3.953 1.531-3.953 3.922 0 2.469 1.812 3.859 4.016 3.859 1.484 0 2.625-0.5625 3.328-1.562l-1.672-1.047c-0.3281 0.4375-0.8594 0.7656-1.625 0.7656-0.8594 0-1.672-0.5781-1.75-1.391h5.312c0.01562-0.1719 0.01562-0.375 0.01562-0.5625z"/>
</g>
<g id="ag">
<path d="m3.547-9.656c0-0.7344-0.6094-1.312-1.375-1.312-0.7812 0-1.375 0.6094-1.375 1.312 0 0.7188 0.5938 1.328 1.375 1.328 0.7656 0 1.375-0.5781 1.375-1.328zm-0.1719 9.656v-7.312h-2.406v7.312z"/>
</g>
<g id="ar">
<path d="m10.91 0-4.312-10.41h-2.438l-4.359 10.41h2.734l0.7656-2.047h4.016l0.8125 2.047zm-4.281-4.047h-2.609l1.312-3.578z"/>
</g>
<g id="aq">
<path d="m5.266-2.938c0 0.9062-0.5469 1.5-1.516 1.5-0.4844 0-1.047-0.1875-1.047-0.75 0-0.875 1.188-1 2.25-1h0.3125zm-3.203-2.078c0.4375-0.4062 1.109-0.7344 1.797-0.7344 0.75 0 1.328 0.3281 1.328 1.047v0.125c-2.125 0-4.703 0.3438-4.703 2.469 0 1.719 1.5 2.281 2.656 2.281 0.875 0 1.703-0.3438 2.078-0.9531h0.04688v0.7812h2.203v-3.688c0-2.656-0.9219-3.859-3.375-3.859-1.188 0-2.406 0.4219-3.25 1.234z"/>
</g>
<g id="ap">
<path d="m8.344-7.312h-2.562l-1.453 4.703h-0.04688l-1.625-4.703h-2.672l3.062 7.188-0.2344 0.6094c-0.2344 0.625-0.4844 0.9844-1.234 0.9844-0.2344 0-0.5469-0.0625-0.7812-0.125l-0.2656 2.016c0.3438 0.09375 0.8594 0.1719 1.312 0.1719 1.844 0 2.641-0.9062 3.219-2.422z"/>
</g>
<g id="af">
<path d="m6.562-6.516c-0.7188-0.6875-1.844-1.031-2.938-1.031-1.391 0-3.031 0.7031-3.031 2.453 0 1.375 1.109 1.891 2.125 2.125 1 0.2344 1.453 0.3906 1.453 0.8438 0 0.4688-0.4688 0.625-0.8594 0.625-0.7188 0-1.375-0.3438-1.797-0.8281l-1.359 1.438c0.7656 0.7344 2 1.125 3.188 1.125 1.5 0 3.141-0.6406 3.141-2.5 0-1.422-1.219-1.984-2.344-2.234-0.9375-0.2031-1.328-0.3125-1.328-0.7344s0.4531-0.5781 0.9062-0.5781c0.5781 0 1.141 0.2969 1.531 0.6562z"/>
</g>
<clipPath id="bd">
<path d="m0 0h728v505h-728z"/>
</clipPath>
</defs>
<g clip-path="url(#bd)">
<path d="m728 505h-728v-505h728v505" fill="#fff"/>
</g>
<path d="m330.6 158.4h-80.12v-51.09h80.12v51.09" fill="#fdf2cb"/>
<path transform="matrix(.1 0 0 -.1 0 505)" d="m3306 3466h-801.2v510.9h801.2z" fill="none" stroke="#201c1c" stroke-width="5"/>
<path d="m463.2 68.71h-80.12v-51.1h80.12v51.1" fill="#fdf2cb"/>
<path transform="matrix(.1 0 0 -.1 0 505)" d="m4632 4363h-801.2v511h801.2z" fill="none" stroke="#201c1c" stroke-width="5"/>
<path d="m585.7 158.4h-80.12v-51.1h80.12v51.1" fill="#fdf2cb"/>
<path transform="matrix(.1 0 0 -.1 0 505)" d="m5857 3466h-801.2v511h801.2z" fill="none" stroke="#201c1c" stroke-width="5"/>
<path d="m514.6 252.5h-80.12v-51.1h80.12v51.1" fill="#fdf2cb"/>
<path transform="matrix(.1 0 0 -.1 0 505)" d="m5146 2525h-801.2v511h801.2z" fill="none" stroke="#201c1c" stroke-width="5"/>
<path d="m658.9 252.5h-80.12v-52.23h80.12v52.23" fill="#fdf2cb"/>
<path transform="matrix(.1 0 0 -.1 0 505)" d="m6589 2525h-801.2v522.3h801.2z" fill="none" stroke="#201c1c" stroke-width="5"/>
<g fill="#231f1f">
<use x="404.723" y="39.37" xlink:href="#x"/>
<use x="410.451017" y="39.37" xlink:href="#q"/>
<use x="415.605814" y="39.37" xlink:href="#l"/>
<use x="421.142413" y="39.37" xlink:href="#w"/>
<use x="427.184916" y="39.37" xlink:href="#j"/>
<use x="432.989104" y="39.37" xlink:href="#z"/>
<use x="401.80191" y="50.8259" xlink:href="#q"/>
<use x="406.956707" y="50.8259" xlink:href="#v"/>
<use x="409.419599" y="50.8259" xlink:href="#v"/>
<use x="411.882491" y="50.8259" xlink:href="#j"/>
<use x="417.686679" y="50.8259" xlink:href="#o"/>
<use x="422.383448" y="50.8259" xlink:href="#q"/>
<use x="427.442542" y="50.8259" xlink:href="#h"/>
<use x="430.564127" y="50.8259" xlink:href="#u"/>
<use x="433.017717" y="50.8259" xlink:href="#j"/>
<use x="438.821417" y="50.8259" xlink:href="#l"/>
<use x="267.09391" y="129.756" xlink:href="#bc"/>
<use x="271.647618" y="129.756" xlink:href="#m"/>
<use x="274.912258" y="129.756" xlink:href="#d"/>
<use x="280.305812" y="129.756" xlink:href="#q"/>
<use x="285.365393" y="129.756" xlink:href="#h"/>
<use x="288.486979" y="129.756" xlink:href="#z"/>
<use x="296.935218" y="129.756" xlink:href="#d"/>
<use x="302.386388" y="129.756" xlink:href="#l"/>
<use x="307.923012" y="129.756" xlink:href="#h"/>
<use x="275.74274" y="141.2111" xlink:href="#ak"/>
<use x="281.756896" y="141.2111" xlink:href="#m"/>
<use x="285.021536" y="141.2111" xlink:href="#j"/>
<use x="290.825724" y="141.2111" xlink:href="#aj"/>
<use x="296.362347" y="141.2111" xlink:href="#ai"/>
<use x="25.98374" y="327.1651" xlink:href="#ac"/>
<use x="29.932958" y="327.1651" xlink:href="#f"/>
<use x="38.448099" y="327.1651" xlink:href="#c"/>
<use x="43.249368" y="327.1651" xlink:href="#e"/>
<use x="51.632181" y="327.1651" xlink:href="#f"/>
<use x="60.147813" y="327.1651" xlink:href="#c"/>
<use x="64.948597" y="327.1651" xlink:href="#av"/>
<use x="68.721544" y="327.1651" xlink:href="#a"/>
<use x="77.647816" y="327.1651" xlink:href="#f"/>
<use x="86.162954" y="327.1651" xlink:href="#y"/>
<use x="90.831907" y="327.1651" xlink:href="#c"/>
<use x="95.63269" y="327.1651" xlink:href="#a"/>
<use x="104.558962" y="327.1651" xlink:href="#y"/>
<use x="109.227414" y="327.1651" xlink:href="#c"/>
<use x="114.028197" y="327.1651" xlink:href="#b"/>
<use x="119.049685" y="327.1651" xlink:href="#e"/>
<use x="127.345096" y="327.1651" xlink:href="#n"/>
<use x="135.12635" y="327.1651" xlink:href="#c"/>
<use x="179.73874" y="316.9612" xlink:href="#r"/>
<use x="186.741671" y="316.9612" xlink:href="#b"/>
<use x="191.763159" y="316.9612" xlink:href="#e"/>
<use x="200.058081" y="316.9612" xlink:href="#n"/>
<use x="207.839811" y="316.9612" xlink:href="#c"/>
<use x="212.640583" y="316.9612" xlink:href="#t"/>
<use x="225.633774" y="316.9612" xlink:href="#e"/>
<use x="234.017082" y="316.9612" xlink:href="#f"/>
<use x="242.532226" y="316.9612" xlink:href="#c"/>
<use x="193.04104" y="334.5792" xlink:href="#g"/>
<use x="202.290555" y="334.5792" xlink:href="#b"/>
<use x="207.311543" y="334.5792" xlink:href="#a"/>
<use x="216.237802" y="334.5792" xlink:href="#k"/>
<use x="224.752947" y="334.5792" xlink:href="#i"/>
<use x="324.32504" y="317.1522" xlink:href="#r"/>
<use x="331.327959" y="317.1522" xlink:href="#b"/>
<use x="336.349436" y="317.1522" xlink:href="#e"/>
<use x="344.644358" y="317.1522" xlink:href="#n"/>
<use x="352.426088" y="317.1522" xlink:href="#c"/>
<use x="357.226859" y="317.1522" xlink:href="#t"/>
<use x="370.22005" y="317.1522" xlink:href="#e"/>
<use x="378.603358" y="317.1522" xlink:href="#f"/>
<use x="387.118503" y="317.1522" xlink:href="#c"/>
<use x="337.62584" y="334.7713" xlink:href="#g"/>
<use x="346.875343" y="334.7713" xlink:href="#b"/>
<use x="351.896331" y="334.7713" xlink:href="#a"/>
<use x="360.82259" y="334.7713" xlink:href="#k"/>
<use x="369.337734" y="334.7713" xlink:href="#i"/>
<use x="440.80484" y="453.0823" xlink:href="#r"/>
<use x="447.807759" y="453.0823" xlink:href="#b"/>
<use x="452.829261" y="453.0823" xlink:href="#e"/>
<use x="461.124207" y="453.0823" xlink:href="#n"/>
<use x="468.905473" y="453.0823" xlink:href="#c"/>
<use x="473.706245" y="453.0823" xlink:href="#t"/>
<use x="486.69946" y="453.0823" xlink:href="#e"/>
<use x="495.083274" y="453.0823" xlink:href="#f"/>
<use x="503.598883" y="453.0823" xlink:href="#c"/>
<use x="454.10604" y="470.7003" xlink:href="#g"/>
<use x="463.355055" y="470.7003" xlink:href="#b"/>
<use x="468.376556" y="470.7003" xlink:href="#a"/>
<use x="477.303304" y="470.7003" xlink:href="#k"/>
<use x="485.817936" y="470.7003" xlink:href="#i"/>
<use x="336.10104" y="392.3933" xlink:href="#ac"/>
<use x="340.050267" y="392.3933" xlink:href="#g"/>
<use x="349.29977" y="392.3933" xlink:href="#f"/>
<use x="357.814914" y="392.3933" xlink:href="#a"/>
<use x="366.741174" y="392.3933" xlink:href="#b"/>
<use x="371.76265" y="392.3933" xlink:href="#e"/>
<use x="449.90904" y="395.91518" xlink:href="#ac"/>
<use x="453.858267" y="395.91518" xlink:href="#g"/>
<use x="463.107282" y="395.91518" xlink:href="#f"/>
<use x="471.62289" y="395.91518" xlink:href="#a"/>
<use x="480.549638" y="395.91518" xlink:href="#b"/>
<use x="485.570163" y="395.91518" xlink:href="#e"/>
<use x="333.03904" y="452.81828" xlink:href="#s"/>
<use x="343.228042" y="452.81828" xlink:href="#a"/>
<use x="352.154301" y="452.81828" xlink:href="#f"/>
<use x="360.669958" y="452.81828" xlink:href="#c"/>
<use x="365.47073" y="452.81828" xlink:href="#b"/>
<use x="370.491717" y="452.81828" xlink:href="#a"/>
<use x="379.417976" y="452.81828" xlink:href="#p"/>
<use x="337.62615" y="470.43738" xlink:href="#g"/>
<use x="346.875653" y="470.43738" xlink:href="#b"/>
<use x="351.896641" y="470.43738" xlink:href="#a"/>
<use x="360.8229" y="470.43738" xlink:href="#k"/>
<use x="369.338044" y="470.43738" xlink:href="#i"/>
<use x="446.84915" y="316.77138" xlink:href="#s"/>
<use x="457.038639" y="316.77138" xlink:href="#a"/>
<use x="465.96441" y="316.77138" xlink:href="#f"/>
<use x="474.480019" y="316.77138" xlink:href="#c"/>
<use x="479.28079" y="316.77138" xlink:href="#b"/>
<use x="484.302292" y="316.77138" xlink:href="#a"/>
<use x="493.228063" y="316.77138" xlink:href="#p"/>
<use x="451.43704" y="334.38938" xlink:href="#g"/>
<use x="460.686055" y="334.38938" xlink:href="#b"/>
<use x="465.707556" y="334.38938" xlink:href="#a"/>
<use x="474.634304" y="334.38938" xlink:href="#k"/>
<use x="483.148936" y="334.38938" xlink:href="#i"/>
<use x="595.20604" y="317.34328" xlink:href="#s"/>
<use x="605.395529" y="317.34328" xlink:href="#a"/>
<use x="614.3213" y="317.34328" xlink:href="#f"/>
<use x="622.836909" y="317.34328" xlink:href="#c"/>
<use x="627.63768" y="317.34328" xlink:href="#b"/>
<use x="632.659182" y="317.34328" xlink:href="#a"/>
<use x="641.584953" y="317.34328" xlink:href="#p"/>
<use x="599.79393" y="334.96128" xlink:href="#g"/>
<use x="609.042945" y="334.96128" xlink:href="#b"/>
<use x="614.064446" y="334.96128" xlink:href="#a"/>
<use x="622.991194" y="334.96128" xlink:href="#k"/>
<use x="631.505826" y="334.96128" xlink:href="#i"/>
<use x="595.20721" y="387.05428" xlink:href="#s"/>
<use x="605.396699" y="387.05428" xlink:href="#a"/>
<use x="614.32247" y="387.05428" xlink:href="#f"/>
<use x="622.838079" y="387.05428" xlink:href="#c"/>
<use x="627.63885" y="387.05428" xlink:href="#b"/>
<use x="632.660352" y="387.05428" xlink:href="#a"/>
<use x="641.586123" y="387.05428" xlink:href="#p"/>
<use x="599.7951" y="404.67228" xlink:href="#g"/>
<use x="609.044115" y="404.67228" xlink:href="#b"/>
<use x="614.065616" y="404.67228" xlink:href="#a"/>
<use x="622.992364" y="404.67228" xlink:href="#k"/>
<use x="631.506996" y="404.67228" xlink:href="#i"/>
<use x="595.20604" y="449.95818" xlink:href="#s"/>
<use x="605.395529" y="449.95818" xlink:href="#a"/>
<use x="614.3213" y="449.95818" xlink:href="#f"/>
<use x="622.836909" y="449.95818" xlink:href="#c"/>
<use x="627.63768" y="449.95818" xlink:href="#b"/>
<use x="632.659182" y="449.95818" xlink:href="#a"/>
<use x="641.584953" y="449.95818" xlink:href="#p"/>
<use x="599.79393" y="467.57658" xlink:href="#g"/>
<use x="609.042945" y="467.57658" xlink:href="#b"/>
<use x="614.064446" y="467.57658" xlink:href="#a"/>
<use x="622.991194" y="467.57658" xlink:href="#k"/>
<use x="631.505826" y="467.57658" xlink:href="#i"/>
<use x="179.18593" y="386.86248" xlink:href="#r"/>
<use x="186.188861" y="386.86248" xlink:href="#b"/>
<use x="191.210349" y="386.86248" xlink:href="#e"/>
<use x="199.505271" y="386.86248" xlink:href="#n"/>
<use x="207.287001" y="386.86248" xlink:href="#c"/>
<use x="212.087773" y="386.86248" xlink:href="#t"/>
<use x="225.080964" y="386.86248" xlink:href="#e"/>
<use x="233.464272" y="386.86248" xlink:href="#f"/>
<use x="241.979416" y="386.86248" xlink:href="#c"/>
<use x="192.48793" y="404.48048" xlink:href="#g"/>
<use x="201.737445" y="404.48048" xlink:href="#b"/>
<use x="206.758433" y="404.48048" xlink:href="#a"/>
<use x="215.684692" y="404.48048" xlink:href="#k"/>
<use x="224.199837" y="404.48048" xlink:href="#i"/>
<use x="179.18593" y="452.62738" xlink:href="#r"/>
<use x="186.188861" y="452.62738" xlink:href="#b"/>
<use x="191.210349" y="452.62738" xlink:href="#e"/>
<use x="199.505271" y="452.62738" xlink:href="#n"/>
<use x="207.287001" y="452.62738" xlink:href="#c"/>
<use x="212.087773" y="452.62738" xlink:href="#t"/>
<use x="225.080964" y="452.62738" xlink:href="#e"/>
<use x="233.464272" y="452.62738" xlink:href="#f"/>
<use x="241.979416" y="452.62738" xlink:href="#c"/>
<use x="192.48793" y="470.24538" xlink:href="#g"/>
<use x="201.737445" y="470.24538" xlink:href="#b"/>
<use x="206.758433" y="470.24538" xlink:href="#a"/>
<use x="215.684692" y="470.24538" xlink:href="#k"/>
<use x="224.199837" y="470.24538" xlink:href="#i"/>
<use x="25.91493" y="397.96258" xlink:href="#ba"/>
<use x="33.666882" y="397.96258" xlink:href="#e"/>
<use x="42.05019" y="397.96258" xlink:href="#b"/>
<use x="47.04189" y="397.96258" xlink:href="#y"/>
<use x="51.710837" y="397.96258" xlink:href="#i"/>
<use x="60.989648" y="397.96258" xlink:href="#b"/>
<use x="66.010649" y="397.96258" xlink:href="#a"/>
<use x="74.936921" y="397.96258" xlink:href="#c"/>
<use x="79.738193" y="397.96258" xlink:href="#a"/>
<use x="88.664464" y="397.96258" xlink:href="#az"/>
<use x="95.887604" y="397.96258" xlink:href="#a"/>
<use x="104.813876" y="397.96258" xlink:href="#p"/>
<use x="27.1161" y="266.32758" xlink:href="#au"/>
<use x="38.376799" y="266.32758" xlink:href="#at"/>
<use x="43.89731" y="266.32758" xlink:href="#ao"/>
<use x="53.146819" y="266.32758" xlink:href="#ae"/>
<use x="62.132172" y="266.32758" xlink:href="#an"/>
<use x="71.748384" y="266.32758" xlink:href="#glyph-2-5"/>
<use x="75.389495" y="266.32758" xlink:href="#am"/>
<use x="80.028656" y="266.32758" xlink:href="#ab"/>
<use x="89.043305" y="266.32758" xlink:href="#al"/>
<use x="96.398783" y="266.32758" xlink:href="#ad"/>
<use x="100.744479" y="266.32758" xlink:href="#ae"/>
<use x="109.729832" y="266.32758" xlink:href="#ah"/>
<use x="119.360696" y="266.32758" xlink:href="#as"/>
<use x="128.081886" y="266.32758" xlink:href="#ah"/>
</g>
<path transform="matrix(.1 0 0 -.1 0 505)" d="m271.2 2372h1106z" fill="none" stroke="#231f1f" stroke-width="7.339"/>
<g fill="#231f1f">
<use x="44.698" y="283.945" xlink:href="#ag"/>
<use x="49.014409" y="283.945" xlink:href="#ab"/>
<use x="58.029058" y="283.945" xlink:href="#glyph-2-5"/>
<use x="61.406009" y="283.945" xlink:href="#ar"/>
<use x="72.079311" y="283.945" xlink:href="#ab"/>
<use x="81.09396" y="283.945" xlink:href="#aq"/>
<use x="89.374232" y="283.945" xlink:href="#ad"/>
<use x="93.719929" y="283.945" xlink:href="#ap"/>
<use x="102.014852" y="283.945" xlink:href="#af"/>
<use x="108.915243" y="283.945" xlink:href="#ag"/>
<use x="113.231161" y="283.945" xlink:href="#af"/>
</g>
<path transform="matrix(.1 0 0 -.1 0 505)" d="m447 2196h754.3z" fill="none" stroke="#231f1f" stroke-width="7.339"/>
<g fill="#231f1f">
<use x="27.5098" y="461.0582" xlink:href="#ay"/>
<use x="37.919" y="461.0582" xlink:href="#ax"/>
<use x="44.408258" y="461.0582" xlink:href="#y"/>
<use x="49.07721" y="461.0582" xlink:href="#c"/>
<use x="53.877988" y="461.0582" xlink:href="#b"/>
<use x="58.898988" y="461.0582" xlink:href="#e"/>
<use x="67.194399" y="461.0582" xlink:href="#n"/>
<use x="74.975647" y="461.0582" xlink:href="#c"/>
<use x="79.776431" y="461.0582" xlink:href="#e"/>
<use x="88.159739" y="461.0582" xlink:href="#aw"/>
<use x="453.4638" y="224.3862" xlink:href="#x"/>
<use x="459.191329" y="224.3862" xlink:href="#d"/>
<use x="464.6425" y="224.3862" xlink:href="#o"/>
<use x="469.338782" y="224.3862" xlink:href="#d"/>
<use x="474.789953" y="224.3862" xlink:href="#u"/>
<use x="477.243055" y="224.3862" xlink:href="#aa"/>
<use x="482.035044" y="224.3862" xlink:href="#d"/>
<use x="487.486215" y="224.3862" xlink:href="#w"/>
<use x="452.23685" y="235.8425" xlink:href="#h"/>
<use x="455.357947" y="235.8425" xlink:href="#m"/>
<use x="458.623564" y="235.8425" xlink:href="#d"/>
<use x="464.017117" y="235.8425" xlink:href="#q"/>
<use x="469.076699" y="235.8425" xlink:href="#h"/>
<use x="472.197796" y="235.8425" xlink:href="#z"/>
<use x="480.646059" y="235.8425" xlink:href="#d"/>
<use x="486.09723" y="235.8425" xlink:href="#l"/>
<use x="491.634317" y="235.8425" xlink:href="#h"/>
<use x="598.74485" y="224.3862" xlink:href="#x"/>
<use x="604.472379" y="224.3862" xlink:href="#d"/>
<use x="609.92355" y="224.3862" xlink:href="#o"/>
<use x="614.619832" y="224.3862" xlink:href="#d"/>
<use x="620.071003" y="224.3862" xlink:href="#u"/>
<use x="622.524105" y="224.3862" xlink:href="#aa"/>
<use x="627.316094" y="224.3862" xlink:href="#d"/>
<use x="632.767265" y="224.3862" xlink:href="#w"/>
<use x="603.43313" y="235.8425" xlink:href="#o"/>
<use x="608.129412" y="235.8425" xlink:href="#j"/>
<use x="613.934088" y="235.8425" xlink:href="#l"/>
<use x="619.470199" y="235.8425" xlink:href="#h"/>
<use x="622.592273" y="235.8425" xlink:href="#m"/>
<use x="625.856913" y="235.8425" xlink:href="#j"/>
<use x="631.660612" y="235.8425" xlink:href="#v"/>
</g>
<path d="m256.7 253.1h-80.12v-51.1h80.12v51.1" fill="#fdf2cb"/>
<path transform="matrix(.1 0 0 -.1 0 505)" d="m2567 2519h-801.2v511h801.2z" fill="none" stroke="#201c1c" stroke-width="5"/>
<path d="m400.3 253.1h-80.12v-52.23h80.12v52.23" fill="#fdf2cb"/>
<path transform="matrix(.1 0 0 -.1 0 505)" d="m4003 2519h-801.2v522.3h801.2z" fill="none" stroke="#201c1c" stroke-width="5"/>
<g fill="#231f1f">
<use x="195.563" y="225.519" xlink:href="#x"/>
<use x="201.290542" y="225.519" xlink:href="#d"/>
<use x="206.741712" y="225.519" xlink:href="#o"/>
<use x="211.437995" y="225.519" xlink:href="#d"/>
<use x="216.889165" y="225.519" xlink:href="#u"/>
<use x="219.342292" y="225.519" xlink:href="#aa"/>
<use x="224.134281" y="225.519" xlink:href="#d"/>
<use x="229.585452" y="225.519" xlink:href="#w"/>
<use x="194.33605" y="236.9737" xlink:href="#h"/>
<use x="197.457147" y="236.9737" xlink:href="#m"/>
<use x="200.722776" y="236.9737" xlink:href="#d"/>
<use x="206.11633" y="236.9737" xlink:href="#q"/>
<use x="211.175911" y="236.9737" xlink:href="#h"/>
<use x="214.297009" y="236.9737" xlink:href="#z"/>
<use x="222.745247" y="236.9737" xlink:href="#d"/>
<use x="228.196418" y="236.9737" xlink:href="#l"/>
<use x="233.73353" y="236.9737" xlink:href="#h"/>
<use x="340.16405" y="224.9518" xlink:href="#x"/>
<use x="345.891579" y="224.9518" xlink:href="#d"/>
<use x="351.34275" y="224.9518" xlink:href="#o"/>
<use x="356.039032" y="224.9518" xlink:href="#d"/>
<use x="361.490203" y="224.9518" xlink:href="#u"/>
<use x="363.943329" y="224.9518" xlink:href="#aa"/>
<use x="368.735318" y="224.9518" xlink:href="#d"/>
<use x="374.186489" y="224.9518" xlink:href="#w"/>
<use x="344.85194" y="236.4081" xlink:href="#o"/>
<use x="349.548222" y="236.4081" xlink:href="#j"/>
<use x="355.352898" y="236.4081" xlink:href="#l"/>
<use x="360.889033" y="236.4081" xlink:href="#h"/>
<use x="364.011107" y="236.4081" xlink:href="#m"/>
<use x="367.275747" y="236.4081" xlink:href="#j"/>
<use x="373.079446" y="236.4081" xlink:href="#v"/>
<use x="530.34094" y="129.0521" xlink:href="#bb"/>
<use x="536.965917" y="129.0521" xlink:href="#j"/>
<use x="542.769617" y="129.0521" xlink:href="#l"/>
<use x="548.306704" y="129.0521" xlink:href="#h"/>
<use x="551.427801" y="129.0521" xlink:href="#m"/>
<use x="554.693417" y="129.0521" xlink:href="#j"/>
<use x="560.497117" y="129.0521" xlink:href="#v"/>
<use x="533.32375" y="140.5072" xlink:href="#ak"/>
<use x="539.337419" y="140.5072" xlink:href="#m"/>
<use x="542.603035" y="140.5072" xlink:href="#j"/>
<use x="548.406735" y="140.5072" xlink:href="#aj"/>
<use x="553.943822" y="140.5072" xlink:href="#ai"/>
</g>
<path d="m216.6 198.9c0.6719-1.809 1.816-4.051 3.027-5.438l-3.027 1.094-3.027-1.094c1.211 1.387 2.355 3.629 3.027 5.438" fill="#231f1f"/>
<path d="m361 198.9c0.6719-1.809 1.816-4.051 3.027-5.438l-3.027 1.094-3.027-1.094c1.211 1.387 2.359 3.629 3.027 5.438" fill="#231f1f"/>
<path d="m290.5 105.6c0.7617-1.809 2.059-4.051 3.434-5.441l-3.434 1.094-3.438-1.094c1.375 1.391 2.676 3.633 3.438 5.441" fill="#231f1f"/>
<path d="m545.6 105.7c0.7188-1.809 1.941-4.051 3.238-5.438l-3.238 1.094-3.242-1.094c1.297 1.387 2.523 3.629 3.242 5.438" fill="#231f1f"/>
<path transform="matrix(.1 0 0 -.1 0 505)" d="m4231 4363v-172.9h-1326v-179.3" fill="none" stroke="#231f1f" stroke-width="5"/>
<path transform="matrix(.1 0 0 -.1 0 505)" d="m4231 4190h1226v-175.8" fill="none" stroke="#231f1f" stroke-width="5"/>
<path transform="matrix(.1 0 0 -.1 0 505)" d="m2889 3459v-210.9h-722.5v-151" fill="none" stroke="#201c1c" stroke-width="5"/>
<path transform="matrix(.1 0 0 -.1 0 505)" d="m2889 3464v-216h721.2v-151" fill="none" stroke="#201c1c" stroke-width="5"/>
<path d="m474.5 198.6c0.6719-1.805 1.816-4.047 3.027-5.438l-3.027 1.094-3.023-1.094c1.211 1.391 2.355 3.633 3.023 5.438" fill="#231f1f"/>
<path d="m618.8 198.6c0.6719-1.805 1.812-4.047 3.023-5.438l-3.023 1.094-3.027-1.094c1.211 1.391 2.355 3.633 3.027 5.438" fill="#231f1f"/>
<path transform="matrix(.1 0 0 -.1 0 505)" d="m5467 3444v-207.3h-721.3v-128.9" fill="none" stroke="#201c1c" stroke-width="5"/>
<path transform="matrix(.1 0 0 -.1 0 505)" d="m5467 3468v-231.4h721.3v-128.9" fill="none" stroke="#201c1c" stroke-width="5"/>
<path transform="matrix(.1 0 0 -.1 0 505)" d="m277.9 1483h6608" fill="none" stroke="#201c1c" stroke-width="10"/>
<path transform="matrix(.1 0 0 -.1 0 505)" d="m277.9 816.1h6608" fill="none" stroke="#201c1c" stroke-width="10"/>
<path transform="matrix(.1 0 0 -.1 0 505)" d="m277.9 162.1h6608" fill="none" stroke="#201c1c" stroke-width="10"/>
</svg>
