<?xml version="1.0" encoding="UTF-8"?>
<svg viewBox="0 0 769.3 760" xmlns="http://www.w3.org/2000/svg">
<defs>
<clipPath id="a">
<path d="m0 0h769.3v760h-769.3z"/>
</clipPath>
</defs>
<g clip-path="url(#a)">
<path d="m769.3 760h-769.3v-760h769.3v760" fill="#fff"/>
</g>
<path d="m676.3 481.5-20-10v7.5h-520.5v-391.5h7.5l-10-20-10 20h7.5v585h-7.5l10 20 10-20h-7.5v-188.5h520.5v7.5l20-10" fill="#0f0e0c"/>
<path transform="matrix(.1 0 0 -.1 0 760)" d="m1397 2408c-77.62 321.4-38.52 646.7-49.18 972.3-6.523 199.9-61.68 523.8 128 668.6 167.2 127.7 413.2 128 616.7 132.7 243.9 5.703 487.1 23.83 731.2 28.09 247.5 4.375 497.3 0 742.7-33.63 162.4-22.23 334-46.95 476.4-129.8 169.1-98.32 254.7-276.8 384.6-413.3 87.27-91.64 190.5-169.9 277-263.9 223.3-242.6 452.9-601.1 336.2-935.1-107.5-307.7-453.2-481.1-767.6-536.5-700.1-65.27-1431-113-2131-32.93-312.6 35.82-598.8 98.91-709.3 418.7-13.59 39.34-25.62 81.25-36.09 124.6z" fill="none" stroke="#4795d7" stroke-miterlimit="10" stroke-width="60"/>
</svg>
