<?xml version="1.0" encoding="UTF-8"?>
<svg viewBox="0 0 227 383" xmlns="http://www.w3.org/2000/svg">
<path d="m227 383h-227v-383h227v383" fill="#fff"/>
<path transform="matrix(.1 0 0 -.1 0 383)" d="m1093 3216v-239.7" fill="none" stroke="#231f1f" stroke-width="5"/>
<path d="m109.3 90.34c-0.8672-2.332-2.344-5.227-3.91-7.023l3.91 1.414 3.906-1.414c-1.566 1.797-3.043 4.691-3.906 7.023" fill="#231f1f"/>
<path transform="matrix(.1 0 0 -.1 0 383)" d="m1093 2349v-239.6" fill="none" stroke="#231f1f" stroke-width="5"/>
<path d="m109.3 177c-0.8672-2.336-2.344-5.23-3.91-7.023l3.91 1.41 3.906-1.41c-1.566 1.793-3.043 4.688-3.906 7.023" fill="#231f1f"/>
<path d="m188.1 329.2h-157.5v-70.23h157.5v70.23" fill="#fef0ca"/>
<path transform="matrix(.1 0 0 -.1 0 383)" d="m1881 538h-1575v702.3h1575z" fill="none" stroke="#231f1f" stroke-width="5"/>
<path d="m43.69 286.1c0.9414 0 1.699 0.7539 1.699 1.695s-0.7578 1.699-1.699 1.699c-0.9375 0-1.695-0.7578-1.695-1.699s0.7578-1.695 1.695-1.695" fill="#231f1f"/>
<path d="m50.26 287.4h1.094c0.8906 0 1.59-0.2773 1.59-1.094 0-0.8164-0.6992-1.074-1.523-1.074h-1.16zm0 3.816h-0.9531v-6.789h2.18c1.312 0 2.418 0.5 2.418 1.879 0 1-0.6836 1.633-1.652 1.793l1.902 3.117h-1.152l-1.727-3.02h-1.016v3.02" fill="#231f1f"/>
<path d="m58.36 288.5c-0.01953-0.7188-0.4414-1.285-1.277-1.285-0.7773 0-1.371 0.5781-1.43 1.285zm0.9023 0.6719h-3.609c0.03125 0.7773 0.6836 1.383 1.48 1.383 0.6133 0 1.062-0.3086 1.324-0.6914l0.6328 0.5078c-0.4922 0.6328-1.152 0.9297-1.957 0.9297-1.383 0-2.398-0.957-2.398-2.387 0-1.418 1.016-2.406 2.348-2.406 1.344 0 2.188 0.9102 2.188 2.359 0 0.09375 0 0.1992-0.007813 0.3047" fill="#231f1f"/>
<path d="m62.98 287.8c-0.2031-0.3242-0.5938-0.5664-1.055-0.5664-0.4141 0-0.8438 0.1641-0.8438 0.5977 0 0.3828 0.3438 0.5273 1.035 0.6797 0.8633 0.1914 1.523 0.5469 1.523 1.344 0 1.074-0.8906 1.465-1.812 1.465-0.6914 0-1.402-0.2656-1.832-0.8125l0.6445-0.5469c0.2383 0.3555 0.6992 0.6328 1.207 0.6328 0.4492 0 0.9023-0.1641 0.9023-0.6641 0-0.4219-0.4141-0.5742-1.191-0.7578-0.6016-0.1406-1.324-0.4023-1.324-1.254 0-0.9805 0.8555-1.391 1.719-1.391 0.6445 0 1.324 0.2578 1.648 0.7461l-0.6211 0.5273" fill="#231f1f"/>
<path d="m67.16 287.3c-0.9219 0-1.535 0.7773-1.535 1.652 0 0.8711 0.6133 1.637 1.535 1.637 0.9883 0 1.516-0.793 1.516-1.648 0-0.8516-0.5273-1.641-1.516-1.641zm-1.477 6.227h-0.9023v-6.852h0.8828v0.7109h0.02734c0.2969-0.4766 0.8945-0.832 1.641-0.832 1.352 0 2.273 1.043 2.273 2.387 0 1.332-0.8906 2.406-2.293 2.406-0.6445 0-1.266-0.2969-1.602-0.8047h-0.02734v2.984" fill="#231f1f"/>
<path d="m71.77 291.2h-0.9023v-4.547h0.9023zm-0.4492-5.609c-0.3281 0-0.5938-0.2578-0.5938-0.5742 0-0.3281 0.2656-0.5859 0.5938-0.5859 0.3242 0 0.6016 0.25 0.6016 0.5859 0 0.3242-0.2773 0.5742-0.6016 0.5742" fill="#231f1f"/>
<path d="m73.31 286.7h0.8516c0.01953 0.2344 0.03906 0.5781 0.03906 0.7695h0.02734c0.25-0.5273 0.7773-0.8906 1.395-0.8906 0.1211 0 0.2461 0.007812 0.3516 0.03516l-0.03516 0.8359c-0.1172-0.02734-0.2695-0.04687-0.4141-0.04687-0.8633 0-1.277 0.6992-1.277 1.457v2.387h-0.9023v-3.566c0-0.2383-0.007812-0.6797-0.03516-0.9805" fill="#231f1f"/>
<path d="m79.3 289c-0.8906 0-2.023 0.09375-2.023 0.8594 0 0.5391 0.4805 0.7109 0.9297 0.7109 0.8438 0 1.316-0.5625 1.316-1.332v-0.2383zm0.2227-0.7773c0-0.6719-0.4531-1-1.125-1-0.5078 0-0.9883 0.2227-1.293 0.5273l-0.4805-0.5742c0.4414-0.4219 1.121-0.6797 1.859-0.6797 1.305 0 1.902 0.7773 1.902 1.781v1.988c0 0.3047 0.01953 0.6797 0.06641 0.8984h-0.8164c-0.04688-0.1992-0.07812-0.4375-0.07812-0.6484h-0.02734c-0.3242 0.4883-0.8438 0.7656-1.523 0.7656-0.7227 0-1.652-0.3555-1.652-1.398 0-1.375 1.633-1.535 3.168-1.535v-0.125" fill="#231f1f"/>
<path d="m84.02 287.4h-1.211v2.367c0 0.5469 0.1914 0.7695 0.6445 0.7695 0.1602 0 0.375-0.03906 0.5273-0.1172l0.02734 0.7383c-0.2109 0.07813-0.4883 0.125-0.7656 0.125-0.8555 0-1.324-0.4766-1.324-1.418v-2.465h-0.875v-0.7422h0.875v-1.301h0.8906v1.301h1.211v0.7422" fill="#231f1f"/>
<path d="m87.09 287.3c-0.9688 0-1.512 0.7773-1.512 1.641 0 0.8633 0.543 1.648 1.512 1.648 0.9805 0 1.516-0.7852 1.516-1.648 0-0.8633-0.5352-1.641-1.516-1.641zm0 4.047c-1.391 0-2.445-1.004-2.445-2.406 0-1.398 1.055-2.387 2.445-2.387 1.395 0 2.457 0.9883 2.457 2.387 0 1.402-1.062 2.406-2.457 2.406" fill="#231f1f"/>
<path d="m90.76 286.7h0.8516c0.01953 0.2344 0.03906 0.5781 0.03906 0.7695h0.02734c0.25-0.5273 0.7773-0.8906 1.395-0.8906 0.125 0 0.2461 0.007812 0.3516 0.03516l-0.03516 0.8359c-0.1172-0.02734-0.2695-0.04687-0.4141-0.04687-0.8633 0-1.277 0.6992-1.277 1.457v2.387h-0.8984v-3.566c0-0.2383-0.01172-0.6797-0.03906-0.9805" fill="#231f1f"/>
<path d="m95.99 290.2h0.01953l1.258-3.57h0.957l-2.207 5.625c-0.2969 0.7578-0.6797 1.227-1.57 1.227-0.1914 0-0.3945-0.01953-0.5977-0.06641l0.08984-0.7969c0.1406 0.04688 0.3047 0.07812 0.4492 0.07812 0.4688 0 0.6523-0.2695 0.8438-0.7578l0.2891-0.7617-1.949-4.547h1.008l1.41 3.57" fill="#231f1f"/>
<path d="m103.6 290.6c0.9219 0 1.535-0.7656 1.535-1.637 0-0.875-0.6133-1.652-1.535-1.652-0.9883 0-1.504 0.7891-1.504 1.641 0 0.8555 0.5156 1.648 1.504 1.648zm-0.1523 0.7578c-1.402 0-2.293-1.074-2.293-2.406 0-1.344 0.9219-2.387 2.285-2.387 0.7383 0 1.301 0.3633 1.621 0.8047h0.01562v-3.387h0.9023v7.25h-0.8711v-0.7188h-0.01953c-0.3477 0.5469-1 0.8438-1.641 0.8438" fill="#231f1f"/>
<path d="m107.5 286.7h0.8516c0.01953 0.2344 0.03906 0.5781 0.03906 0.7695h0.02734c0.25-0.5273 0.7773-0.8906 1.391-0.8906 0.125 0 0.25 0.007812 0.3555 0.03516l-0.03906 0.8359c-0.1133-0.02734-0.2695-0.04687-0.4102-0.04687-0.8633 0-1.277 0.6992-1.277 1.457v2.387h-0.9023v-3.566c0-0.2383-0.007812-0.6797-0.03516-0.9805" fill="#231f1f"/>
<path d="m112 291.2h-0.9023v-4.547h0.9023zm-0.4492-5.609c-0.3281 0-0.5977-0.2578-0.5977-0.5742 0-0.3281 0.2695-0.5859 0.5977-0.5859 0.3242 0 0.6016 0.25 0.6016 0.5859 0 0.3242-0.2773 0.5742-0.6016 0.5742" fill="#231f1f"/>
<path d="m115.7 291.2h-0.9805l-1.848-4.547h0.9961l1.332 3.578h0.01953l1.344-3.578h0.957l-1.82 4.547" fill="#231f1f"/>
<path d="m121.7 288.5c-0.01562-0.7188-0.4375-1.285-1.273-1.285-0.7773 0-1.371 0.5781-1.43 1.285zm0.9023 0.6719h-3.605c0.02734 0.7773 0.6836 1.383 1.477 1.383 0.6172 0 1.066-0.3086 1.324-0.6914l0.6328 0.5078c-0.4883 0.6328-1.152 0.9297-1.957 0.9297-1.379 0-2.398-0.957-2.398-2.387 0-1.418 1.02-2.406 2.352-2.406 1.344 0 2.188 0.9102 2.188 2.359 0 0.09375 0 0.1992-0.01172 0.3047" fill="#231f1f"/>
<path d="m128.9 289c-0.8906 0-2.023 0.09375-2.023 0.8594 0 0.5391 0.4805 0.7109 0.9297 0.7109 0.8438 0 1.316-0.5625 1.316-1.332v-0.2383zm0.2227-0.7773c0-0.6719-0.4531-1-1.121-1-0.5117 0-0.9883 0.2227-1.297 0.5273l-0.4805-0.5742c0.4414-0.4219 1.121-0.6797 1.863-0.6797 1.305 0 1.898 0.7773 1.898 1.781v1.988c0 0.3047 0.01953 0.6797 0.06641 0.8984h-0.8164c-0.04688-0.1992-0.07422-0.4375-0.07422-0.6484h-0.03125c-0.3242 0.4883-0.8438 0.7656-1.523 0.7656-0.7188 0-1.652-0.3555-1.652-1.398 0-1.375 1.633-1.535 3.168-1.535v-0.125" fill="#231f1f"/>
<path d="m133.6 290.6c0.9219 0 1.535-0.7656 1.535-1.637 0-0.875-0.6133-1.652-1.535-1.652-0.9883 0-1.504 0.7891-1.504 1.641 0 0.8555 0.5156 1.648 1.504 1.648zm-0.1523 0.7578c-1.402 0-2.293-1.074-2.293-2.406 0-1.344 0.9219-2.387 2.285-2.387 0.7383 0 1.305 0.3633 1.621 0.8047h0.01562v-3.387h0.9023v7.25h-0.8711v-0.7188h-0.01953c-0.3438 0.5469-0.9961 0.8438-1.641 0.8438" fill="#231f1f"/>
<path d="m140.9 288.5c-0.01953-0.7188-0.4414-1.285-1.273-1.285-0.7773 0-1.371 0.5781-1.43 1.285zm0.9023 0.6719h-3.605c0.02734 0.7773 0.6797 1.383 1.477 1.383 0.6133 0 1.066-0.3086 1.324-0.6914l0.6328 0.5078c-0.4883 0.6328-1.152 0.9297-1.957 0.9297-1.383 0-2.398-0.957-2.398-2.387 0-1.418 1.016-2.406 2.352-2.406 1.34 0 2.184 0.9102 2.184 2.359 0 0.09375 0 0.1992-0.007812 0.3047" fill="#231f1f"/>
<path d="m145.2 290.6c0.9219 0 1.535-0.7656 1.535-1.637 0-0.875-0.6133-1.652-1.535-1.652-0.9883 0-1.504 0.7891-1.504 1.641 0 0.8555 0.5156 1.648 1.504 1.648zm1.461-0.04688c-0.3359 0.5078-0.9727 0.8047-1.613 0.8047-1.402 0-2.293-1.074-2.293-2.406 0-1.344 0.9219-2.387 2.285-2.387 0.7383 0 1.332 0.3555 1.637 0.832h0.03125v-0.7109h0.8711v6.852h-0.9023v-2.984h-0.01562" fill="#231f1f"/>
<path d="m152.3 291.2c-0.01953-0.2266-0.03516-0.5547-0.03516-0.7461h-0.01953c-0.2305 0.4805-0.8242 0.8711-1.488 0.8711-1.172 0-1.699-0.832-1.699-1.852v-2.82h0.9023v2.516c0 0.75 0.2031 1.398 1.039 1.398 0.7188 0 1.215-0.5938 1.215-1.496v-2.418h0.9023v3.57c0 0.2422 0.01172 0.6797 0.03906 0.9766h-0.8555" fill="#231f1f"/>
<path d="m157.3 289c-0.8945 0-2.027 0.09375-2.027 0.8594 0 0.5391 0.4805 0.7109 0.9336 0.7109 0.8438 0 1.312-0.5625 1.312-1.332v-0.2383zm0.2188-0.7773c0-0.6719-0.4492-1-1.121-1-0.5078 0-0.9883 0.2227-1.297 0.5273l-0.4805-0.5742c0.4414-0.4219 1.125-0.6797 1.863-0.6797 1.305 0 1.898 0.7773 1.898 1.781v1.988c0 0.3047 0.01953 0.6797 0.06641 0.8984h-0.8125c-0.05078-0.1992-0.07812-0.4375-0.07812-0.6484h-0.02734c-0.3281 0.4883-0.8477 0.7656-1.527 0.7656-0.7188 0-1.648-0.3555-1.648-1.398 0-1.375 1.629-1.535 3.164-1.535v-0.125" fill="#231f1f"/>
<path d="m162 287.4h-1.207v2.367c0 0.5469 0.1914 0.7695 0.6406 0.7695 0.1641 0 0.375-0.03906 0.5273-0.1172l0.03125 0.7383c-0.2109 0.07813-0.4883 0.125-0.7695 0.125-0.8516 0-1.324-0.4766-1.324-1.418v-2.465h-0.8711v-0.7422h0.8711v-1.301h0.8945v1.301h1.207v0.7422" fill="#231f1f"/>
<path d="m166.3 288.5c-0.01953-0.7188-0.4414-1.285-1.277-1.285-0.7734 0-1.371 0.5781-1.426 1.285zm0.9023 0.6719h-3.605c0.02734 0.7773 0.6797 1.383 1.473 1.383 0.6172 0 1.066-0.3086 1.328-0.6914l0.6328 0.5078c-0.4922 0.6328-1.152 0.9297-1.961 0.9297-1.379 0-2.395-0.957-2.395-2.387 0-1.418 1.016-2.406 2.348-2.406 1.344 0 2.188 0.9102 2.188 2.359 0 0.09375 0 0.1992-0.007813 0.3047" fill="#231f1f"/>
<path d="m170.1 291.3c-0.3555 0-0.6406-0.2852-0.6406-0.6211 0-0.3477 0.2773-0.6328 0.6406-0.6328 0.3672 0 0.6445 0.2773 0.6445 0.6211 0 0.3359-0.2773 0.6328-0.6445 0.6328zm0.4062-1.984h-0.9023v-0.4609c0-0.6719 0.2578-1.027 0.6992-1.43l0.3555-0.3359c0.2773-0.2383 0.4883-0.5078 0.4883-0.9492 0-0.6133-0.4297-1.008-1.047-1.008-0.6328 0-1.043 0.4727-1.102 1.055l-0.9219-0.1055c0.1641-1.102 1-1.773 2.082-1.773 1.066 0 1.949 0.625 1.949 1.773 0 0.8164-0.375 1.184-0.9219 1.641-0.5195 0.4414-0.6797 0.625-0.6797 1.258v0.3359" fill="#231f1f"/>
<path d="m43.69 297.6c0.9414 0 1.699 0.7578 1.699 1.699 0 0.9375-0.7578 1.695-1.699 1.695-0.9375 0-1.695-0.7578-1.695-1.695 0-0.9414 0.7578-1.699 1.695-1.699" fill="#231f1f"/>
<path d="m52.82 301.1h0.01953l2.004-5.219h1.48v6.793h-0.9531v-5.68h-0.01953l-2.254 5.68h-0.6016l-2.246-5.68h-0.01953v5.68h-0.9219v-6.793h1.477l2.035 5.219" fill="#231f1f"/>
<path d="m58.83 302.7h-0.9023v-4.547h0.9023zm-0.4531-5.613c-0.3242 0-0.5938-0.2578-0.5938-0.5742 0-0.3281 0.2695-0.5859 0.5938-0.5859 0.3281 0 0.6055 0.25 0.6055 0.5859 0 0.3242-0.2773 0.5742-0.6055 0.5742" fill="#231f1f"/>
<path d="m61.22 298.2c0.01953 0.2305 0.03906 0.5547 0.03906 0.7461h0.02734c0.2227-0.4883 0.8242-0.8711 1.477-0.8711 1.172 0 1.699 0.8359 1.699 1.852v2.82h-0.9023v-2.523c0-0.7383-0.2031-1.391-1.035-1.391-0.7109 0-1.219 0.5938-1.219 1.496v2.418h-0.9023v-3.57c0-0.2383-0.007813-0.6797-0.03906-0.9766h0.8555" fill="#231f1f"/>
<path d="m69.19 302.7c-0.01953-0.2305-0.03906-0.5586-0.03906-0.75h-0.01953c-0.2305 0.4805-0.8242 0.875-1.484 0.875-1.172 0-1.699-0.8359-1.699-1.852v-2.82h0.9023v2.512c0 0.75 0.1992 1.402 1.035 1.402 0.7188 0 1.219-0.5977 1.219-1.496v-2.418h0.9023v3.566c0 0.2422 0.007813 0.6836 0.03516 0.9805h-0.8516" fill="#231f1f"/>
<path d="m73.79 298.9h-1.211v2.371c0 0.543 0.1953 0.7656 0.6445 0.7656 0.1641 0 0.375-0.03906 0.5273-0.1133l0.02734 0.7383c-0.2109 0.07422-0.4883 0.1211-0.7656 0.1211-0.8555 0-1.324-0.4766-1.324-1.418v-2.465h-0.8711v-0.7383h0.8711v-1.305h0.8906v1.305h1.211v0.7383" fill="#231f1f"/>
<path d="m78.05 300c-0.01953-0.7188-0.4414-1.285-1.277-1.285-0.7773 0-1.371 0.5742-1.43 1.285zm0.9023 0.6719h-3.609c0.03125 0.7734 0.6836 1.379 1.477 1.379 0.6172 0 1.066-0.3047 1.324-0.6914l0.6328 0.5117c-0.4883 0.6289-1.152 0.9297-1.957 0.9297-1.379 0-2.398-0.9609-2.398-2.391 0-1.418 1.02-2.406 2.352-2.406 1.344 0 2.188 0.9102 2.188 2.359 0 0.09375 0 0.2031-0.007812 0.3086" fill="#231f1f"/>
<path d="m84.75 302.7h-0.9766l-1.852-4.547h0.9961l1.332 3.578h0.01953l1.344-3.578h0.9609l-1.824 4.547" fill="#231f1f"/>
<path d="m90.77 300c-0.01953-0.7188-0.4414-1.285-1.277-1.285-0.7773 0-1.371 0.5742-1.43 1.285zm0.8984 0.6719h-3.605c0.02734 0.7734 0.6797 1.379 1.477 1.379 0.6133 0 1.066-0.3047 1.324-0.6914l0.6328 0.5117c-0.4883 0.6289-1.148 0.9297-1.957 0.9297-1.379 0-2.398-0.9609-2.398-2.391 0-1.418 1.02-2.406 2.352-2.406 1.344 0 2.188 0.9102 2.188 2.359 0 0.09375 0 0.2031-0.01172 0.3086" fill="#231f1f"/>
<path d="m93.75 298.2c0.01953 0.2305 0.03516 0.5547 0.03516 0.7461h0.03125c0.2188-0.4883 0.8242-0.8711 1.477-0.8711 1.172 0 1.699 0.8359 1.699 1.852v2.82h-0.9023v-2.523c0-0.7383-0.2031-1.391-1.035-1.391-0.7109 0-1.219 0.5938-1.219 1.496v2.418h-0.9023v-3.57c0-0.2383-0.01172-0.6797-0.03906-0.9766h0.8555" fill="#231f1f"/>
<path d="m100.7 298.9h-1.207v2.371c0 0.543 0.1914 0.7656 0.6406 0.7656 0.1641 0 0.375-0.03906 0.5273-0.1133l0.03125 0.7383c-0.2109 0.07422-0.4922 0.1211-0.7695 0.1211-0.8555 0-1.324-0.4766-1.324-1.418v-2.465h-0.8711v-0.7383h0.8711v-1.305h0.8945v1.305h1.207v0.7383" fill="#231f1f"/>
<path d="m102.6 302.7h-0.9023v-4.547h0.9023zm-0.4492-5.613c-0.3281 0-0.5977-0.2578-0.5977-0.5742 0-0.3281 0.2695-0.5859 0.5977-0.5859 0.3242 0 0.6016 0.25 0.6016 0.5859 0 0.3242-0.2773 0.5742-0.6016 0.5742" fill="#231f1f"/>
<path d="m105.1 302.7h-0.8984v-7.25h0.8984v7.25" fill="#231f1f"/>
<path d="m109.3 300.6c-0.8945 0-2.027 0.09375-2.027 0.8633 0 0.5352 0.4805 0.7109 0.9336 0.7109 0.8438 0 1.312-0.5664 1.312-1.336v-0.2383zm0.2188-0.7773c0-0.6719-0.4492-0.9961-1.121-0.9961-0.5078 0-0.9883 0.2188-1.297 0.5273l-0.4805-0.5781c0.4414-0.4219 1.125-0.6797 1.863-0.6797 1.305 0 1.898 0.7773 1.898 1.785v1.984c0 0.3086 0.01953 0.6797 0.06641 0.9023h-0.8125c-0.05078-0.2031-0.07812-0.4414-0.07812-0.6523h-0.03125c-0.3242 0.4883-0.8438 0.7656-1.523 0.7656-0.7188 0-1.648-0.3516-1.648-1.398 0-1.371 1.629-1.535 3.164-1.535v-0.125" fill="#231f1f"/>
<path d="m114 298.9h-1.207v2.371c0 0.543 0.1914 0.7656 0.6406 0.7656 0.1641 0 0.375-0.03906 0.5273-0.1133l0.03125 0.7383c-0.2148 0.07422-0.4922 0.1211-0.7695 0.1211-0.8516 0-1.324-0.4766-1.324-1.418v-2.465h-0.8711v-0.7383h0.8711v-1.305h0.8945v1.305h1.207v0.7383" fill="#231f1f"/>
<path d="m115.8 302.7h-0.9023v-4.547h0.9023zm-0.4492-5.613c-0.3281 0-0.5938-0.2578-0.5938-0.5742 0-0.3281 0.2656-0.5859 0.5938-0.5859 0.3242 0 0.6055 0.25 0.6055 0.5859 0 0.3242-0.2812 0.5742-0.6055 0.5742" fill="#231f1f"/>
<path d="m119.5 298.8c-0.9688 0-1.516 0.7773-1.516 1.645 0 0.8633 0.5469 1.648 1.516 1.648 0.9766 0 1.516-0.7852 1.516-1.648 0-0.8672-0.5391-1.645-1.516-1.645zm0 4.051c-1.391 0-2.445-1.008-2.445-2.406 0-1.402 1.055-2.391 2.445-2.391s2.453 0.9883 2.453 2.391c0 1.398-1.062 2.406-2.453 2.406" fill="#231f1f"/>
<path d="m124 298.2c0.01562 0.2305 0.03516 0.5547 0.03516 0.7461h0.03125c0.2188-0.4883 0.8242-0.8711 1.477-0.8711 1.168 0 1.695 0.8359 1.695 1.852v2.82h-0.8984v-2.523c0-0.7383-0.2031-1.391-1.039-1.391-0.707 0-1.215 0.5938-1.215 1.496v2.418h-0.9023v-3.57c0-0.2383-0.01172-0.6797-0.03906-0.9766h0.8555" fill="#231f1f"/>
<path d="m133.8 300.6c-0.8945 0-2.027 0.09375-2.027 0.8633 0 0.5352 0.4805 0.7109 0.9336 0.7109 0.8438 0 1.312-0.5664 1.312-1.336v-0.2383zm0.2188-0.7773c0-0.6719-0.4492-0.9961-1.121-0.9961-0.5078 0-0.9883 0.2188-1.297 0.5273l-0.4766-0.5781c0.4375-0.4219 1.121-0.6797 1.859-0.6797 1.305 0 1.898 0.7773 1.898 1.785v1.984c0 0.3086 0.01953 0.6797 0.06641 0.9023h-0.8125c-0.05078-0.2031-0.07812-0.4414-0.07812-0.6523h-0.02734c-0.3281 0.4883-0.8477 0.7656-1.527 0.7656-0.7188 0-1.648-0.3516-1.648-1.398 0-1.371 1.629-1.535 3.164-1.535v-0.125" fill="#231f1f"/>
<path d="m138.5 302.1c0.9219 0 1.535-0.7695 1.535-1.641 0-0.875-0.6133-1.652-1.535-1.652-0.9844 0-1.504 0.7891-1.504 1.645 0 0.8516 0.5195 1.648 1.504 1.648zm-0.1523 0.7578c-1.398 0-2.293-1.074-2.293-2.406 0-1.344 0.9219-2.391 2.285-2.391 0.7383 0 1.305 0.3633 1.621 0.8047h0.01953v-3.383h0.9023v7.25h-0.875v-0.7188h-0.01953c-0.3438 0.543-0.9961 0.8438-1.641 0.8438" fill="#231f1f"/>
<path d="m145.8 300c-0.01953-0.7188-0.4414-1.285-1.277-1.285-0.7773 0-1.371 0.5742-1.43 1.285zm0.8984 0.6719h-3.605c0.02734 0.7734 0.6836 1.379 1.477 1.379 0.6133 0 1.066-0.3047 1.324-0.6914l0.6328 0.5117c-0.4883 0.6289-1.148 0.9297-1.957 0.9297-1.379 0-2.398-0.9609-2.398-2.391 0-1.418 1.02-2.406 2.352-2.406 1.344 0 2.188 0.9102 2.188 2.359 0 0.09375 0 0.2031-0.01172 0.3086" fill="#231f1f"/>
<path d="m150.1 302.1c0.9219 0 1.535-0.7695 1.535-1.641 0-0.875-0.6133-1.652-1.535-1.652-0.9844 0-1.504 0.7891-1.504 1.645 0 0.8516 0.5195 1.648 1.504 1.648zm1.461-0.05078c-0.3359 0.5078-0.9688 0.8086-1.613 0.8086-1.398 0-2.293-1.074-2.293-2.406 0-1.344 0.9219-2.391 2.285-2.391 0.7383 0 1.332 0.3555 1.641 0.8359h0.02734v-0.7109h0.875v6.848h-0.9023v-2.984h-0.01953" fill="#231f1f"/>
<path d="m157.3 302.7c-0.01953-0.2305-0.03906-0.5586-0.03906-0.75h-0.01953c-0.2305 0.4805-0.8242 0.875-1.484 0.875-1.172 0-1.699-0.8359-1.699-1.852v-2.82h0.8984v2.512c0 0.75 0.2031 1.402 1.039 1.402 0.7188 0 1.219-0.5977 1.219-1.496v-2.418h0.8984v3.566c0 0.2422 0.01172 0.6836 0.03906 0.9805h-0.8516" fill="#231f1f"/>
<path d="m162.2 300.6c-0.8906 0-2.023 0.09375-2.023 0.8633 0 0.5352 0.4805 0.7109 0.9297 0.7109 0.8438 0 1.316-0.5664 1.316-1.336v-0.2383zm0.2227-0.7773c0-0.6719-0.4531-0.9961-1.125-0.9961-0.5078 0-0.9883 0.2188-1.293 0.5273l-0.4805-0.5781c0.4414-0.4219 1.121-0.6797 1.859-0.6797 1.305 0 1.898 0.7773 1.898 1.785v1.984c0 0.3086 0.01953 0.6797 0.07031 0.9023h-0.8164c-0.05078-0.2031-0.07812-0.4414-0.07812-0.6523h-0.02734c-0.3281 0.4883-0.8438 0.7656-1.527 0.7656-0.7188 0-1.648-0.3516-1.648-1.398 0-1.371 1.633-1.535 3.168-1.535v-0.125" fill="#231f1f"/>
<path d="m167 298.9h-1.211v2.371c0 0.543 0.1914 0.7656 0.6445 0.7656 0.1602 0 0.3711-0.03906 0.5273-0.1133l0.02734 0.7383c-0.2109 0.07422-0.4883 0.1211-0.7656 0.1211-0.8555 0-1.324-0.4766-1.324-1.418v-2.465h-0.875v-0.7383h0.875v-1.305h0.8906v1.305h1.211v0.7383" fill="#231f1f"/>
<path d="m171.2 300c-0.01953-0.7188-0.4414-1.285-1.273-1.285-0.7773 0-1.375 0.5742-1.43 1.285zm0.9023 0.6719h-3.605c0.02734 0.7734 0.6797 1.379 1.477 1.379 0.6133 0 1.066-0.3047 1.324-0.6914l0.6328 0.5117c-0.4883 0.6289-1.152 0.9297-1.957 0.9297-1.383 0-2.398-0.9609-2.398-2.391 0-1.418 1.016-2.406 2.352-2.406 1.34 0 2.188 0.9102 2.188 2.359 0 0.09375 0 0.2031-0.01172 0.3086" fill="#231f1f"/>
<path d="m175.1 302.8c-0.3555 0-0.6445-0.2891-0.6445-0.625 0-0.3438 0.2773-0.6328 0.6445-0.6328 0.3633 0 0.6406 0.2773 0.6406 0.625 0 0.3359-0.2773 0.6328-0.6406 0.6328zm0.4023-1.988h-0.9023v-0.4609c0-0.6719 0.2578-1.023 0.6992-1.426l0.3555-0.3359c0.2773-0.2422 0.4883-0.5117 0.4883-0.9531 0-0.6133-0.4297-1.008-1.043-1.008-0.6328 0-1.047 0.4727-1.105 1.059l-0.918-0.1055c0.1602-1.105 0.9961-1.777 2.078-1.777 1.066 0 1.949 0.625 1.949 1.777 0 0.8125-0.375 1.18-0.9219 1.641-0.5156 0.4414-0.6797 0.6211-0.6797 1.254v0.3359" fill="#231f1f"/>
<path d="m43.69 309.1c0.9414 0 1.699 0.7578 1.699 1.699s-0.7578 1.699-1.699 1.699c-0.9375 0-1.695-0.7578-1.695-1.699s0.7578-1.699 1.695-1.699" fill="#231f1f"/>
<path d="m50.43 311.7h2.543l-1.266-3.184zm-1.016 2.504h-1.059l2.945-6.789h0.8633l2.918 6.789h-1.074l-0.6914-1.668h-3.223l-0.6797 1.668" fill="#231f1f"/>
<path d="m56.91 313.4h1.188c0.8047 0 1.688-0.25 1.688-1.172 0-0.7969-0.5664-1.141-1.602-1.141h-1.273zm0-3.117h1.234c0.7305 0 1.336-0.3164 1.336-1.055 0-0.7305-0.5859-1.02-1.488-1.02h-1.082zm-0.9492-2.867h2.336c1.027 0 2.133 0.4219 2.133 1.715 0 0.75-0.4805 1.285-1.191 1.477v0.01953c0.875 0.1055 1.508 0.6992 1.508 1.652 0 1.305-1.133 1.926-2.551 1.926h-2.234v-6.789" fill="#231f1f"/>
<path d="m67.23 308.8c-0.4023-0.4414-1.062-0.7383-1.84-0.7383-1.594 0-2.59 1.238-2.59 2.723 0 1.516 0.9961 2.727 2.617 2.727 0.6328 0 1.191-0.125 1.586-0.3359v-1.891h-1.508v-0.8047h2.445v3.289c-0.7109 0.3828-1.551 0.5938-2.551 0.5938-2.121 0-3.625-1.484-3.625-3.578 0-2.117 1.555-3.559 3.613-3.559 1.078 0 1.961 0.3477 2.516 0.8828l-0.6641 0.6914" fill="#231f1f"/>
<path d="m74.38 310.8c-0.2031-0.3281-0.5938-0.5664-1.055-0.5664-0.4141 0-0.8477 0.1641-0.8477 0.5938 0 0.3828 0.3477 0.5273 1.039 0.6797 0.8633 0.1953 1.523 0.5469 1.523 1.344 0 1.074-0.8906 1.469-1.812 1.469-0.6914 0-1.402-0.2695-1.832-0.8164l0.6406-0.5469c0.2422 0.3555 0.7031 0.6328 1.211 0.6328 0.4492 0 0.9023-0.1602 0.9023-0.6602 0-0.4219-0.4141-0.5742-1.191-0.7578-0.6055-0.1445-1.324-0.4023-1.324-1.258 0-0.9766 0.8555-1.391 1.719-1.391 0.6406 0 1.324 0.2578 1.648 0.75l-0.6211 0.5273" fill="#231f1f"/>
<path d="m77.11 310.4c0.2109-0.4531 0.7891-0.8164 1.441-0.8164 1.168 0 1.695 0.8359 1.695 1.852v2.82h-0.8984v-2.512c0-0.7383-0.1953-1.391-1.027-1.391-0.7109 0-1.23 0.5938-1.23 1.496v2.406h-0.8984v-7.25h0.8984v3.395h0.01953" fill="#231f1f"/>
<path d="m83.92 310.3c-0.9688 0-1.516 0.7773-1.516 1.641 0 0.8633 0.5469 1.648 1.516 1.648 0.9805 0 1.516-0.7852 1.516-1.648 0-0.8633-0.5352-1.641-1.516-1.641zm0 4.047c-1.391 0-2.445-1.008-2.445-2.406 0-1.402 1.055-2.391 2.445-2.391s2.457 0.9883 2.457 2.391c0 1.398-1.066 2.406-2.457 2.406" fill="#231f1f"/>
<path d="m87.96 309.7 1.027 3.473h0.01953l1.082-3.473h0.9492l1.105 3.473h0.01953l1.023-3.473h0.9531l-1.508 4.547h-0.9375l-1.125-3.414h-0.01953l-1.113 3.414h-0.9375l-1.516-4.547h0.9766" fill="#231f1f"/>
<path d="m97.49 310.8c-0.2031-0.3281-0.5938-0.5664-1.055-0.5664-0.4141 0-0.8438 0.1641-0.8438 0.5938 0 0.3828 0.3438 0.5273 1.035 0.6797 0.8633 0.1953 1.527 0.5469 1.527 1.344 0 1.074-0.8945 1.469-1.816 1.469-0.6875 0-1.398-0.2695-1.828-0.8164l0.6406-0.5469c0.2383 0.3555 0.6992 0.6328 1.207 0.6328 0.4531 0 0.9023-0.1602 0.9023-0.6602 0-0.4219-0.4141-0.5742-1.188-0.7578-0.6055-0.1445-1.324-0.4023-1.324-1.258 0-0.9766 0.8516-1.391 1.715-1.391 0.6445 0 1.324 0.2578 1.652 0.75l-0.625 0.5273" fill="#231f1f"/>
<path d="m102.6 310.4c0.2109-0.4531 0.7852-0.8164 1.438-0.8164 1.168 0 1.699 0.8359 1.699 1.852v2.82h-0.9023v-2.512c0-0.7383-0.1914-1.391-1.027-1.391-0.7109 0-1.23 0.5938-1.23 1.496v2.406h-0.8984v-7.25h0.8984v3.395h0.02344" fill="#231f1f"/>
<path d="m109 313.2h0.01953l1.258-3.57h0.957l-2.203 5.621c-0.3008 0.7578-0.6836 1.23-1.574 1.23-0.1914 0-0.3945-0.01953-0.5977-0.07031l0.08984-0.7969c0.1406 0.05078 0.3047 0.07812 0.4492 0.07812 0.4727 0 0.6523-0.2695 0.8438-0.7578l0.2891-0.7578-1.949-4.547h1.008l1.41 3.57" fill="#231f1f"/>
<path d="m114.5 310.3c-0.9219 0-1.535 0.7773-1.535 1.648 0 0.875 0.6133 1.641 1.535 1.641 0.9883 0 1.516-0.7969 1.516-1.648 0-0.8555-0.5273-1.641-1.516-1.641zm-1.477 6.227h-0.9023v-6.852h0.8828v0.7109h0.02734c0.2969-0.4805 0.8945-0.8359 1.641-0.8359 1.355 0 2.273 1.047 2.273 2.391 0 1.332-0.8906 2.406-2.289 2.406-0.6445 0-1.27-0.2969-1.605-0.8047h-0.02734v2.984" fill="#231f1f"/>
<path d="m121.5 311.5c-0.01563-0.7188-0.4375-1.285-1.273-1.285-0.7773 0-1.371 0.5742-1.43 1.285zm0.9023 0.6719h-3.605c0.02734 0.7773 0.6797 1.383 1.477 1.383 0.6133 0 1.066-0.3086 1.324-0.6914l0.6328 0.5078c-0.4883 0.6328-1.152 0.9297-1.957 0.9297-1.383 0-2.398-0.957-2.398-2.391 0-1.418 1.016-2.406 2.352-2.406 1.344 0 2.188 0.9102 2.188 2.359 0 0.09766 0 0.2031-0.01172 0.3086" fill="#231f1f"/>
<path d="m123.7 309.7h0.8555c0.01563 0.2305 0.03516 0.5742 0.03516 0.7695h0.03125c0.2461-0.5312 0.7773-0.8945 1.391-0.8945 0.125 0 0.25 0.01172 0.3555 0.03906l-0.03906 0.8359c-0.1172-0.03125-0.2695-0.05078-0.4141-0.05078-0.8633 0-1.273 0.7031-1.273 1.461v2.387h-0.9023v-3.566c0-0.2422-0.01172-0.6836-0.03906-0.9805" fill="#231f1f"/>
<path d="m130.2 310.8c-0.1914-0.2969-0.6133-0.5195-1.043-0.5195-0.9414 0-1.488 0.7695-1.488 1.641 0 0.8633 0.5469 1.641 1.496 1.641 0.4609 0 0.8555-0.1914 1.094-0.5l0.6055 0.5469c-0.3867 0.4414-0.9688 0.7109-1.699 0.7109-1.402 0-2.445-0.9492-2.445-2.398 0-1.43 1.035-2.398 2.426-2.398 0.6445 0 1.332 0.2578 1.707 0.75l-0.6523 0.5273" fill="#231f1f"/>
<path d="m134.3 312.1c-0.8906 0-2.023 0.09766-2.023 0.8633 0 0.5391 0.4805 0.7109 0.9297 0.7109 0.8477 0 1.316-0.5664 1.316-1.332v-0.2422zm0.2227-0.7773c0-0.6719-0.4531-0.9961-1.121-0.9961-0.5117 0-0.9883 0.2188-1.297 0.5273l-0.4805-0.5742c0.4414-0.4258 1.125-0.6836 1.863-0.6836 1.305 0 1.898 0.7773 1.898 1.785v1.984c0 0.3086 0.01953 0.6836 0.06641 0.9023h-0.8164c-0.04688-0.1992-0.07422-0.4414-0.07422-0.6523h-0.03125c-0.3242 0.4883-0.8438 0.7695-1.523 0.7695-0.7188 0-1.648-0.3555-1.648-1.402 0-1.371 1.629-1.535 3.164-1.535v-0.125" fill="#231f1f"/>
<path d="m139.3 310.3c-0.9219 0-1.535 0.7773-1.535 1.648 0 0.875 0.6133 1.641 1.535 1.641 0.9883 0 1.516-0.7969 1.516-1.648 0-0.8555-0.5273-1.641-1.516-1.641zm-1.48 6.227h-0.8984v-6.852h0.8828v0.7109h0.02734c0.2969-0.4805 0.8906-0.8359 1.641-0.8359 1.352 0 2.273 1.047 2.273 2.391 0 1.332-0.8906 2.406-2.293 2.406-0.6406 0-1.266-0.2969-1.602-0.8047h-0.03125v2.984" fill="#231f1f"/>
<path d="m143.8 309.7c0.02344 0.2305 0.03906 0.5586 0.03906 0.75h0.03125c0.2188-0.4922 0.8242-0.875 1.477-0.875 1.168 0 1.699 0.8359 1.699 1.852v2.82h-0.9023v-2.523c0-0.7383-0.2031-1.391-1.039-1.391-0.707 0-1.215 0.5977-1.215 1.496v2.418h-0.9023v-3.566c0-0.2422-0.01172-0.6836-0.03906-0.9805h0.8516" fill="#231f1f"/>
<path d="m149.5 314.2h-0.8984v-4.547h0.8984zm-0.4492-5.609c-0.3242 0-0.5938-0.2617-0.5938-0.5781 0-0.3242 0.2695-0.5859 0.5938-0.5859 0.3242 0 0.6055 0.25 0.6055 0.5859 0 0.3281-0.2812 0.5781-0.6055 0.5781" fill="#231f1f"/>
<path d="m153.7 312.1c-0.8945 0-2.023 0.09766-2.023 0.8633 0 0.5391 0.4805 0.7109 0.9297 0.7109 0.8438 0 1.312-0.5664 1.312-1.332v-0.2422zm0.2188-0.7773c0-0.6719-0.4492-0.9961-1.121-0.9961-0.5078 0-0.9883 0.2188-1.293 0.5273l-0.4805-0.5742c0.4414-0.4258 1.121-0.6836 1.859-0.6836 1.305 0 1.898 0.7773 1.898 1.785v1.984c0 0.3086 0.01953 0.6836 0.06641 0.9023h-0.8125c-0.04687-0.1992-0.07812-0.4414-0.07812-0.6523h-0.02734c-0.3281 0.4883-0.8438 0.7695-1.527 0.7695-0.7188 0-1.648-0.3555-1.648-1.402 0-1.371 1.629-1.535 3.164-1.535v-0.125" fill="#231f1f"/>
<path d="m158 314.3c-0.3555 0-0.6406-0.2891-0.6406-0.625 0-0.3438 0.2773-0.6328 0.6406-0.6328 0.3633 0 0.6445 0.2812 0.6445 0.625 0 0.3359-0.2812 0.6328-0.6445 0.6328zm0.4023-1.984h-0.8984v-0.4609c0-0.6719 0.2578-1.027 0.6992-1.43l0.3555-0.3359c0.2773-0.2422 0.4883-0.5078 0.4883-0.9492 0-0.6133-0.4336-1.008-1.047-1.008-0.6328 0-1.043 0.4688-1.102 1.055l-0.9219-0.1055c0.1641-1.105 0.9961-1.773 2.082-1.773 1.066 0 1.949 0.6211 1.949 1.773 0 0.8164-0.375 1.18-0.9219 1.641-0.5195 0.4414-0.6836 0.625-0.6836 1.254v0.3398" fill="#231f1f"/>
<path transform="matrix(.1 0 0 -.1 0 383)" d="m1093 1530v-239.7" fill="none" stroke="#231f1f" stroke-width="5"/>
<path d="m109.3 259c-0.8672-2.336-2.344-5.23-3.91-7.023l3.91 1.414 3.906-1.414c-1.566 1.793-3.043 4.688-3.906 7.023" fill="#231f1f"/>
<path d="m188 231.5h-157.5v-54.48h157.5v54.48" fill="#fef0ca"/>
<path transform="matrix(.1 0 0 -.1 0 383)" d="m1880 1515h-1575v544.8h1575z" fill="none" stroke="#231f1f" stroke-width="5"/>
<path d="m44.55 202c0.9414 0 1.699 0.7578 1.699 1.699 0 0.9375-0.7578 1.695-1.699 1.695-0.9414 0-1.695-0.7578-1.695-1.695 0-0.9414 0.7539-1.699 1.695-1.699" fill="#231f1f"/>
<path d="m51.12 206.3h1.191c1.641 0 2.84-0.9375 2.84-2.559 0-1.68-1.199-2.57-2.84-2.57h-1.191zm-0.9492-5.953h2.332c1.734 0 3.664 0.9844 3.664 3.395 0 2.32-1.93 3.395-3.664 3.395h-2.332v-6.789" fill="#231f1f"/>
<path d="m60.75 204.4c-0.01953-0.7188-0.4414-1.285-1.277-1.285-0.7773 0-1.371 0.5742-1.43 1.285zm0.9023 0.6719h-3.609c0.03125 0.7773 0.6836 1.383 1.48 1.383 0.6133 0 1.062-0.3086 1.32-0.6914l0.6367 0.5078c-0.4922 0.6328-1.152 0.9297-1.957 0.9297-1.383 0-2.398-0.9609-2.398-2.387 0-1.422 1.016-2.41 2.348-2.41 1.344 0 2.188 0.9141 2.188 2.359 0 0.09766 0 0.2031-0.007812 0.3086" fill="#231f1f"/>
<path d="m66.1 203.7c-0.1914-0.2969-0.6133-0.5195-1.043-0.5195-0.9414 0-1.488 0.7695-1.488 1.641 0 0.8633 0.5469 1.641 1.496 1.641 0.4609 0 0.8555-0.1914 1.094-0.4961l0.6055 0.543c-0.3828 0.4414-0.9688 0.7109-1.699 0.7109-1.398 0-2.445-0.9492-2.445-2.398 0-1.43 1.035-2.398 2.426-2.398 0.6445 0 1.336 0.2617 1.707 0.75l-0.6523 0.5273" fill="#231f1f"/>
<path d="m67.61 202.6h0.8516c0.01953 0.2305 0.03906 0.5781 0.03906 0.7695h0.02734c0.25-0.5273 0.7773-0.8945 1.395-0.8945 0.125 0 0.2461 0.01172 0.3555 0.03906l-0.03906 0.8359c-0.1172-0.03125-0.2695-0.05078-0.4141-0.05078-0.8633 0-1.277 0.7031-1.277 1.461v2.387h-0.8984v-3.566c0-0.2422-0.01172-0.6836-0.03906-0.9805" fill="#231f1f"/>
<path d="m74.28 204.4c-0.01953-0.7188-0.4414-1.285-1.273-1.285-0.7773 0-1.375 0.5742-1.43 1.285zm0.9023 0.6719h-3.605c0.02734 0.7773 0.6797 1.383 1.477 1.383 0.6133 0 1.062-0.3086 1.324-0.6914l0.6328 0.5078c-0.4883 0.6328-1.152 0.9297-1.957 0.9297-1.383 0-2.398-0.9609-2.398-2.387 0-1.422 1.016-2.41 2.352-2.41 1.34 0 2.184 0.9141 2.184 2.359 0 0.09766 0 0.2031-0.007812 0.3086" fill="#231f1f"/>
<path d="m78.99 204.9c-0.8906 0-2.023 0.09766-2.023 0.8633 0 0.5391 0.4805 0.7109 0.9336 0.7109 0.8438 0 1.312-0.5664 1.312-1.332v-0.2422zm0.2227-0.7773c0-0.6719-0.4492-0.9961-1.121-0.9961-0.5078 0-0.9883 0.2188-1.297 0.5273l-0.4766-0.5742c0.4375-0.4219 1.121-0.6836 1.859-0.6836 1.305 0 1.898 0.7773 1.898 1.785v1.988c0 0.3047 0.01953 0.6797 0.06641 0.8984h-0.8125c-0.05078-0.1992-0.07812-0.4414-0.07812-0.6523h-0.02734c-0.3281 0.4883-0.8477 0.7695-1.527 0.7695-0.7188 0-1.648-0.3555-1.648-1.402 0-1.371 1.629-1.535 3.164-1.535v-0.125" fill="#231f1f"/>
<path d="m84.04 203.7c-0.2031-0.3281-0.5977-0.5664-1.059-0.5664-0.4102 0-0.8438 0.1641-0.8438 0.5938 0 0.3867 0.3477 0.5273 1.035 0.6836 0.8672 0.1914 1.527 0.5469 1.527 1.34 0 1.078-0.8906 1.469-1.812 1.469-0.6914 0-1.402-0.2695-1.832-0.8164l0.6406-0.5469c0.2422 0.3555 0.7031 0.6367 1.211 0.6367 0.4492 0 0.9023-0.1641 0.9023-0.6641 0-0.4219-0.4141-0.5742-1.191-0.7578-0.6055-0.1445-1.324-0.4023-1.324-1.258 0-0.9766 0.8555-1.391 1.719-1.391 0.6406 0 1.324 0.2617 1.648 0.75l-0.6211 0.5273" fill="#231f1f"/>
<path d="m89.17 204.4c-0.01953-0.7188-0.4414-1.285-1.277-1.285-0.7773 0-1.371 0.5742-1.43 1.285zm0.9023 0.6719h-3.609c0.03125 0.7773 0.6836 1.383 1.477 1.383 0.6172 0 1.066-0.3086 1.324-0.6914l0.6328 0.5078c-0.4883 0.6328-1.148 0.9297-1.957 0.9297-1.379 0-2.398-0.9609-2.398-2.387 0-1.422 1.02-2.41 2.352-2.41 1.344 0 2.188 0.9141 2.188 2.359 0 0.09766 0 0.2031-0.007813 0.3086" fill="#231f1f"/>
<path d="m93.47 206.5c0.918 0 1.535-0.7656 1.535-1.641 0-0.8711-0.6172-1.648-1.535-1.648-0.9883 0-1.508 0.7852-1.508 1.641 0 0.8516 0.5195 1.648 1.508 1.648zm-0.1562 0.7578c-1.398 0-2.293-1.074-2.293-2.406 0-1.344 0.9219-2.391 2.285-2.391 0.7383 0 1.305 0.3672 1.621 0.8086h0.01953v-3.387h0.9023v7.25h-0.875v-0.7188h-0.01953c-0.3438 0.5469-0.9961 0.8438-1.641 0.8438" fill="#231f1f"/>
<path d="m102 203.2c-0.9688 0-1.516 0.7773-1.516 1.641s0.5469 1.648 1.516 1.648c0.9805 0 1.516-0.7852 1.516-1.648s-0.5352-1.641-1.516-1.641zm0 4.047c-1.391 0-2.445-1.008-2.445-2.406 0-1.402 1.055-2.391 2.445-2.391s2.457 0.9883 2.457 2.391c0 1.398-1.066 2.406-2.457 2.406" fill="#231f1f"/>
<path d="m106.7 204.7-1.66-2.16h1.113l1.109 1.566 1.125-1.566h1.055l-1.641 2.148 1.832 2.398h-1.121l-1.266-1.773-1.285 1.773h-1.086l1.824-2.387" fill="#231f1f"/>
<path d="m112.2 206.1h0.01953l1.258-3.57h0.957l-2.207 5.621c-0.2969 0.7578-0.6797 1.23-1.57 1.23-0.1914 0-0.3945-0.01953-0.5977-0.07031l0.08594-0.793c0.1445 0.04688 0.3086 0.07422 0.4531 0.07422 0.4688 0 0.6523-0.2695 0.8438-0.7578l0.2891-0.7578-1.949-4.547h1.008l1.41 3.57" fill="#231f1f"/>
<path d="m117.4 206.4c0.9297 0 1.543-0.6992 1.543-1.602 0-0.8633-0.625-1.602-1.543-1.602-0.9531 0-1.508 0.7266-1.508 1.602 0 0.832 0.5547 1.602 1.508 1.602zm-1.785 1.496c0.3945 0.4414 1.035 0.7383 1.66 0.7383 1.199 0 1.602-0.7383 1.602-1.68v-0.582h-0.01953c-0.3359 0.5078-0.9609 0.7852-1.602 0.7852-1.391 0-2.293-1.035-2.293-2.34 0-1.305 0.8906-2.371 2.281-2.371 0.6523 0 1.297 0.2891 1.641 0.8555h0.01953v-0.7305h0.875v4.316c0 1.324-0.625 2.535-2.516 2.535-0.7852 0-1.66-0.3086-2.227-0.8281l0.5781-0.6992" fill="#231f1f"/>
<path d="m124.7 204.4c-0.01953-0.7188-0.4414-1.285-1.273-1.285-0.7773 0-1.375 0.5742-1.43 1.285zm0.9023 0.6719h-3.605c0.02734 0.7773 0.6797 1.383 1.477 1.383 0.6133 0 1.066-0.3086 1.324-0.6914l0.6328 0.5078c-0.4883 0.6328-1.152 0.9297-1.957 0.9297-1.383 0-2.398-0.9609-2.398-2.387 0-1.422 1.016-2.41 2.352-2.41 1.344 0 2.188 0.9141 2.188 2.359 0 0.09766 0 0.2031-0.01172 0.3086" fill="#231f1f"/>
<path d="m127.7 202.6c0.01953 0.2305 0.03906 0.5586 0.03906 0.75h0.02734c0.2227-0.4883 0.8281-0.875 1.48-0.875 1.168 0 1.695 0.8359 1.695 1.852v2.82h-0.8984v-2.523c0-0.7383-0.2031-1.391-1.039-1.391-0.7109 0-1.219 0.5938-1.219 1.496v2.418h-0.8984v-3.566c0-0.2422-0.01172-0.6836-0.03906-0.9805h0.8516" fill="#231f1f"/>
<path d="m137.3 203.7c-0.1992-0.3281-0.5938-0.5664-1.055-0.5664-0.4141 0-0.8438 0.1641-0.8438 0.5938 0 0.3867 0.3438 0.5273 1.035 0.6836 0.8633 0.1914 1.527 0.5469 1.527 1.34 0 1.078-0.8945 1.469-1.812 1.469-0.6914 0-1.402-0.2695-1.836-0.8164l0.6445-0.5469c0.2383 0.3555 0.6992 0.6367 1.207 0.6367 0.4531 0 0.9023-0.1641 0.9023-0.6641 0-0.4219-0.4102-0.5742-1.188-0.7578-0.6055-0.1445-1.324-0.4023-1.324-1.258 0-0.9766 0.8516-1.391 1.715-1.391 0.6445 0 1.324 0.2617 1.652 0.75l-0.625 0.5273" fill="#231f1f"/>
<path d="m141.7 204.9c-0.8906 0-2.023 0.09766-2.023 0.8633 0 0.5391 0.4805 0.7109 0.9297 0.7109 0.8438 0 1.312-0.5664 1.312-1.332v-0.2422zm0.2188-0.7773c0-0.6719-0.4492-0.9961-1.121-0.9961-0.5078 0-0.9844 0.2188-1.293 0.5273l-0.4805-0.5742c0.4414-0.4219 1.121-0.6836 1.863-0.6836 1.301 0 1.898 0.7773 1.898 1.785v1.988c0 0.3047 0.01953 0.6797 0.06641 0.8984h-0.8164c-0.04688-0.1992-0.07812-0.4414-0.07812-0.6523h-0.02734c-0.3242 0.4883-0.8438 0.7695-1.523 0.7695-0.7227 0-1.652-0.3555-1.652-1.402 0-1.371 1.633-1.535 3.164-1.535v-0.125" fill="#231f1f"/>
<path d="m146.4 203.3h-1.211v2.371c0 0.5469 0.1914 0.7656 0.6445 0.7656 0.1641 0 0.375-0.03516 0.5273-0.1133l0.02734 0.7383c-0.2109 0.07812-0.4883 0.125-0.7656 0.125-0.8555 0-1.324-0.4805-1.324-1.422v-2.465h-0.875v-0.7383h0.875v-1.305h0.8906v1.305h1.211v0.7383" fill="#231f1f"/>
<path d="m150.5 207.1c-0.01953-0.2305-0.03906-0.5547-0.03906-0.7461h-0.01953c-0.2305 0.4805-0.8242 0.8711-1.488 0.8711-1.168 0-1.695-0.832-1.695-1.852v-2.82h0.8984v2.512c0 0.75 0.2031 1.402 1.039 1.402 0.7188 0 1.219-0.5938 1.219-1.496v-2.418h0.8984v3.57c0 0.2383 0.01172 0.6797 0.03906 0.9766h-0.8516" fill="#231f1f"/>
<path d="m152.9 202.6h0.8555c0.01953 0.2305 0.03516 0.5781 0.03516 0.7695h0.03125c0.25-0.5273 0.7773-0.8945 1.391-0.8945 0.125 0 0.25 0.01172 0.3555 0.03906l-0.03906 0.8359c-0.1172-0.03125-0.2695-0.05078-0.4141-0.05078-0.8633 0-1.273 0.7031-1.273 1.461v2.387h-0.9023v-3.566c0-0.2422-0.01172-0.6836-0.03906-0.9805" fill="#231f1f"/>
<path d="m158.9 204.9c-0.8945 0-2.027 0.09766-2.027 0.8633 0 0.5391 0.4805 0.7109 0.9297 0.7109 0.8477 0 1.316-0.5664 1.316-1.332v-0.2422zm0.2188-0.7773c0-0.6719-0.4492-0.9961-1.121-0.9961-0.5078 0-0.9883 0.2188-1.297 0.5273l-0.4805-0.5742c0.4414-0.4219 1.125-0.6836 1.863-0.6836 1.305 0 1.898 0.7773 1.898 1.785v1.988c0 0.3047 0.01953 0.6797 0.06641 0.8984h-0.8164c-0.04688-0.1992-0.07422-0.4414-0.07422-0.6523h-0.03125c-0.3242 0.4883-0.8438 0.7695-1.523 0.7695-0.7188 0-1.648-0.3555-1.648-1.402 0-1.371 1.629-1.535 3.164-1.535v-0.125" fill="#231f1f"/>
<path d="m163.6 203.3h-1.207v2.371c0 0.5469 0.1914 0.7656 0.6406 0.7656 0.1641 0 0.375-0.03516 0.5273-0.1133l0.03125 0.7383c-0.2148 0.07812-0.4922 0.125-0.7695 0.125-0.8516 0-1.324-0.4805-1.324-1.422v-2.465h-0.8711v-0.7383h0.8711v-1.305h0.8945v1.305h1.207v0.7383" fill="#231f1f"/>
<path d="m165.4 207.1h-0.9023v-4.547h0.9023zm-0.4492-5.613c-0.3281 0-0.5977-0.2578-0.5977-0.5742 0-0.3242 0.2695-0.582 0.5977-0.582 0.3242 0 0.6016 0.2461 0.6016 0.582 0 0.3281-0.2773 0.5742-0.6016 0.5742" fill="#231f1f"/>
<path d="m169.2 203.2c-0.9688 0-1.512 0.7773-1.512 1.641s0.543 1.648 1.512 1.648c0.9805 0 1.52-0.7852 1.52-1.648s-0.5391-1.641-1.52-1.641zm0 4.047c-1.391 0-2.445-1.008-2.445-2.406 0-1.402 1.055-2.391 2.445-2.391 1.395 0 2.457 0.9883 2.457 2.391 0 1.398-1.062 2.406-2.457 2.406" fill="#231f1f"/>
<path d="m173.7 202.6c0.01953 0.2305 0.03906 0.5586 0.03906 0.75h0.02734c0.2227-0.4883 0.8281-0.875 1.48-0.875 1.168 0 1.695 0.8359 1.695 1.852v2.82h-0.8984v-2.523c0-0.7383-0.2031-1.391-1.039-1.391-0.707 0-1.219 0.5938-1.219 1.496v2.418h-0.8984v-3.566c0-0.2422-0.01172-0.6836-0.03906-0.9805h0.8516" fill="#231f1f"/>
<path d="m180.1 207.2c-0.3555 0-0.6445-0.2891-0.6445-0.625 0-0.3438 0.2812-0.6328 0.6445-0.6328s0.6445 0.2773 0.6445 0.625c0 0.3359-0.2812 0.6328-0.6445 0.6328zm0.4023-1.984h-0.9023v-0.4609c0-0.6719 0.2617-1.027 0.7031-1.43l0.3516-0.3359c0.2812-0.2383 0.4922-0.5078 0.4922-0.9492 0-0.6133-0.4336-1.008-1.047-1.008-0.6328 0-1.043 0.4688-1.102 1.055l-0.9219-0.1055c0.1641-1.102 0.9961-1.773 2.082-1.773 1.062 0 1.945 0.6211 1.945 1.773 0 0.8164-0.3711 1.18-0.918 1.641-0.5195 0.4414-0.6836 0.625-0.6836 1.258v0.3359" fill="#231f1f"/>
<path d="m44.55 213.5c0.9414 0 1.699 0.7539 1.699 1.695s-0.7578 1.699-1.699 1.699c-0.9414 0-1.695-0.7578-1.695-1.699s0.7539-1.695 1.695-1.695" fill="#231f1f"/>
<path d="m51.85 217.2h0.01953l1.594-5.41h1.043l1.586 5.41h0.01562l1.496-5.41h1.008l-1.992 6.789h-0.9883l-1.652-5.457h-0.01953l-1.648 5.457h-0.9883l-1.996-6.789h1.027l1.496 5.41" fill="#231f1f"/>
<path d="m60.39 218.6h-0.9023v-4.547h0.9023zm-0.4531-5.609c-0.3242 0-0.5938-0.2578-0.5938-0.5742 0-0.3281 0.2695-0.5859 0.5938-0.5859 0.3281 0 0.6055 0.25 0.6055 0.5859 0 0.3242-0.2773 0.5742-0.6055 0.5742" fill="#231f1f"/>
<path d="m64.11 218c0.9219 0 1.535-0.7656 1.535-1.637 0-0.875-0.6133-1.652-1.535-1.652-0.9883 0-1.508 0.7852-1.508 1.641s0.5195 1.648 1.508 1.648zm-0.1523 0.7578c-1.402 0-2.293-1.074-2.293-2.406 0-1.344 0.918-2.387 2.281-2.387 0.7383 0 1.305 0.3633 1.621 0.8047h0.01953v-3.387h0.9023v7.25h-0.875v-0.7188h-0.01562c-0.3477 0.5469-1 0.8438-1.641 0.8438" fill="#231f1f"/>
<path d="m71.38 215.9c-0.01953-0.7188-0.4414-1.285-1.277-1.285-0.7773 0-1.371 0.5781-1.43 1.285zm0.9023 0.6719h-3.609c0.03125 0.7773 0.6836 1.383 1.48 1.383 0.6133 0 1.062-0.3086 1.32-0.6914l0.6328 0.5078c-0.4883 0.6328-1.148 0.9297-1.953 0.9297-1.383 0-2.398-0.957-2.398-2.387 0-1.422 1.016-2.406 2.348-2.406 1.344 0 2.188 0.9102 2.188 2.359 0 0.09375 0 0.1992-0.007813 0.3047" fill="#231f1f"/>
<path d="m74.36 214.1c0.01953 0.2344 0.03906 0.5586 0.03906 0.75h0.02734c0.2227-0.4883 0.8242-0.8711 1.477-0.8711 1.172 0 1.699 0.832 1.699 1.852v2.816h-0.9023v-2.52c0-0.7383-0.2031-1.395-1.035-1.395-0.7109 0-1.219 0.5977-1.219 1.5v2.414h-0.9023v-3.566c0-0.2383-0.007813-0.6797-0.03906-0.9805h0.8555" fill="#231f1f"/>
<path d="m82.46 215.9c-0.01953-0.7188-0.4414-1.285-1.277-1.285-0.7773 0-1.371 0.5781-1.43 1.285zm0.8984 0.6719h-3.605c0.03125 0.7773 0.6797 1.383 1.477 1.383 0.6172 0 1.066-0.3086 1.324-0.6914l0.6328 0.5078c-0.4883 0.6328-1.148 0.9297-1.957 0.9297-1.379 0-2.398-0.957-2.398-2.387 0-1.422 1.02-2.406 2.352-2.406 1.344 0 2.188 0.9102 2.188 2.359 0 0.09375 0 0.1992-0.01172 0.3047" fill="#231f1f"/>
<path d="m86.76 218c0.918 0 1.531-0.7656 1.531-1.637 0-0.875-0.6133-1.652-1.531-1.652-0.9883 0-1.508 0.7852-1.508 1.641s0.5195 1.648 1.508 1.648zm-0.1562 0.7578c-1.398 0-2.293-1.074-2.293-2.406 0-1.344 0.9219-2.387 2.285-2.387 0.7383 0 1.305 0.3633 1.621 0.8047h0.01953v-3.387h0.9023v7.25h-0.875v-0.7188h-0.01953c-0.3438 0.5469-0.9961 0.8438-1.641 0.8438" fill="#231f1f"/>
<path d="m94.28 216.1h2.543l-1.27-3.188zm-1.02 2.5h-1.055l2.945-6.789h0.8633l2.918 6.789h-1.074l-0.6914-1.668h-3.223l-0.6836 1.668" fill="#231f1f"/>
<path d="m101.6 216.7h-2.227v-0.7656h2.227v0.7656" fill="#231f1f"/>
<path d="m105.4 216.4c-0.8906 0-2.023 0.09375-2.023 0.8633 0 0.5352 0.4805 0.707 0.9297 0.707 0.8438 0 1.316-0.5664 1.316-1.332v-0.2383zm0.2227-0.7773c0-0.6719-0.4531-1-1.125-1-0.5078 0-0.9844 0.2227-1.293 0.5273l-0.4805-0.5742c0.4414-0.4219 1.121-0.6797 1.863-0.6797 1.301 0 1.898 0.7773 1.898 1.781v1.988c0 0.3047 0.01953 0.6797 0.06641 0.8984h-0.8164c-0.04688-0.1992-0.07422-0.4375-0.07422-0.6484h-0.03125c-0.3242 0.4883-0.8438 0.7656-1.523 0.7656-0.7227 0-1.652-0.3555-1.652-1.402 0-1.371 1.633-1.531 3.168-1.531v-0.125" fill="#231f1f"/>
<path d="m112.6 217.9c0.9297 0 1.543-0.6992 1.543-1.602 0-0.8633-0.6211-1.602-1.543-1.602-0.9492 0-1.504 0.7305-1.504 1.602 0 0.8359 0.5547 1.602 1.504 1.602zm-1.785 1.496c0.3945 0.4453 1.035 0.7422 1.66 0.7422 1.199 0 1.602-0.7422 1.602-1.68v-0.5859h-0.01953c-0.3359 0.5078-0.957 0.7852-1.602 0.7852-1.391 0-2.293-1.035-2.293-2.34s0.8945-2.367 2.285-2.367c0.6523 0 1.293 0.2852 1.637 0.8516h0.01953v-0.7305h0.875v4.32c0 1.324-0.625 2.531-2.516 2.531-0.7852 0-1.656-0.3086-2.223-0.8242l0.5742-0.7031" fill="#231f1f"/>
<path d="m116.4 214.1h0.8516c0.01953 0.2344 0.03906 0.5781 0.03906 0.7695h0.02734c0.25-0.5273 0.7773-0.8906 1.391-0.8906 0.125 0 0.25 0.007813 0.3555 0.03516l-0.03906 0.8359c-0.1133-0.02734-0.2656-0.04688-0.4102-0.04688-0.8633 0-1.277 0.6992-1.277 1.457v2.387h-0.9023v-3.566c0-0.2383-0.007812-0.6797-0.03516-0.9805" fill="#231f1f"/>
<path d="m122.4 216.4c-0.8906 0-2.023 0.09375-2.023 0.8633 0 0.5352 0.4805 0.707 0.9297 0.707 0.8438 0 1.312-0.5664 1.312-1.332v-0.2383zm0.2188-0.7773c0-0.6719-0.4492-1-1.121-1-0.5078 0-0.9883 0.2227-1.293 0.5273l-0.4805-0.5742c0.4414-0.4219 1.121-0.6797 1.859-0.6797 1.305 0 1.902 0.7773 1.902 1.781v1.988c0 0.3047 0.01562 0.6797 0.06641 0.8984h-0.8164c-0.04688-0.1992-0.07812-0.4375-0.07812-0.6484h-0.02734c-0.3281 0.4883-0.8438 0.7656-1.523 0.7656-0.7227 0-1.652-0.3555-1.652-1.402 0-1.371 1.633-1.531 3.164-1.531v-0.125" fill="#231f1f"/>
<path d="m127.2 218c0.9219 0 1.535-0.7656 1.535-1.637 0-0.875-0.6133-1.652-1.535-1.652-0.9883 0-1.508 0.7852-1.508 1.641s0.5195 1.648 1.508 1.648zm-0.1523 0.7578c-1.402 0-2.293-1.074-2.293-2.406 0-1.344 0.9219-2.387 2.281-2.387 0.7383 0 1.305 0.3633 1.621 0.8047h0.01953v-3.387h0.9023v7.25h-0.875v-0.7188h-0.01562c-0.3477 0.5469-1 0.8438-1.641 0.8438" fill="#231f1f"/>
<path d="m132 218.6h-0.9023v-4.547h0.9023zm-0.4492-5.609c-0.3281 0-0.5938-0.2578-0.5938-0.5742 0-0.3281 0.2656-0.5859 0.5938-0.5859 0.3242 0 0.6016 0.25 0.6016 0.5859 0 0.3242-0.2773 0.5742-0.6016 0.5742" fill="#231f1f"/>
<path d="m136.9 215.9c-0.01953-0.7188-0.4414-1.285-1.277-1.285-0.7773 0-1.371 0.5781-1.43 1.285zm0.8984 0.6719h-3.605c0.02734 0.7773 0.6797 1.383 1.477 1.383 0.6172 0 1.066-0.3086 1.324-0.6914l0.6328 0.5078c-0.4883 0.6328-1.148 0.9297-1.957 0.9297-1.379 0-2.398-0.957-2.398-2.387 0-1.422 1.02-2.406 2.352-2.406 1.344 0 2.188 0.9102 2.188 2.359 0 0.09375 0 0.1992-0.01172 0.3047" fill="#231f1f"/>
<path d="m139.9 214.1c0.01562 0.2344 0.03906 0.5586 0.03906 0.75h0.02734c0.2188-0.4883 0.8242-0.8711 1.477-0.8711 1.172 0 1.699 0.832 1.699 1.852v2.816h-0.9023v-2.52c0-0.7383-0.2031-1.395-1.035-1.395-0.7109 0-1.219 0.5977-1.219 1.5v2.414h-0.9023v-3.566c0-0.2383-0.01172-0.6797-0.03906-0.9805h0.8555" fill="#231f1f"/>
<path d="m146.9 214.8h-1.207v2.367c0 0.5469 0.1914 0.7695 0.6406 0.7695 0.1641 0 0.375-0.03906 0.5273-0.1172l0.02734 0.7383c-0.2109 0.07812-0.4883 0.125-0.7656 0.125-0.8516 0-1.324-0.4805-1.324-1.418v-2.465h-0.8711v-0.7422h0.8711v-1.301h0.8945v1.301h1.207v0.7422" fill="#231f1f"/>
<path d="m149.5 218.7c-0.3555 0-0.6445-0.2852-0.6445-0.6211 0-0.3477 0.2812-0.6367 0.6445-0.6367s0.6406 0.2812 0.6406 0.625c0 0.3359-0.2773 0.6328-0.6406 0.6328zm0.4023-1.984h-0.9023v-0.4609c0-0.6719 0.2617-1.027 0.6992-1.43l0.3555-0.3359c0.2812-0.2383 0.4922-0.5078 0.4922-0.9492 0-0.6133-0.4336-1.008-1.047-1.008-0.6328 0-1.047 0.4727-1.105 1.055l-0.918-0.1055c0.1602-1.102 0.9961-1.773 2.082-1.773 1.062 0 1.945 0.625 1.945 1.773 0 0.8164-0.375 1.18-0.9219 1.641-0.5156 0.4414-0.6797 0.625-0.6797 1.258v0.3359" fill="#231f1f"/>
<path d="m188 147.4h-157.5v-54.48h157.5v54.48" fill="#fef0ca"/>
<path transform="matrix(.1 0 0 -.1 0 383)" d="m1880 2356h-1575v544.8h1575z" fill="none" stroke="#231f1f" stroke-width="5"/>
<path d="m47.68 118c0.9414 0 1.699 0.7578 1.699 1.699 0 0.9375-0.7578 1.695-1.699 1.695-0.9414 0-1.695-0.7578-1.695-1.695 0-0.9414 0.7539-1.699 1.695-1.699" fill="#231f1f"/>
<path d="m54.42 120.6h2.543l-1.27-3.184zm-1.016 2.504h-1.059l2.945-6.793h0.8633l2.918 6.793h-1.074l-0.6914-1.668h-3.223l-0.6797 1.668" fill="#231f1f"/>
<path d="m60.8 123.1h-0.9023v-4.547h0.9023zm-0.4492-5.613c-0.3281 0-0.5938-0.2578-0.5938-0.5742 0-0.3281 0.2656-0.5859 0.5938-0.5859 0.3242 0 0.6055 0.25 0.6055 0.5859 0 0.3242-0.2812 0.5742-0.6055 0.5742" fill="#231f1f"/>
<path d="m62.34 118.5h0.8516c0.01953 0.2305 0.03906 0.5742 0.03906 0.7656h0.03125c0.2461-0.5273 0.7734-0.8906 1.391-0.8906 0.125 0 0.25 0.007813 0.3555 0.03906l-0.03906 0.8359c-0.1172-0.03125-0.2695-0.05078-0.4141-0.05078-0.8633 0-1.273 0.6992-1.273 1.457v2.391h-0.9023v-3.57c0-0.2383-0.01172-0.6797-0.03906-0.9766" fill="#231f1f"/>
<path d="m66.18 118.5 1.027 3.473h0.01953l1.082-3.473h0.9492l1.105 3.473h0.01953l1.023-3.473h0.9531l-1.508 4.547h-0.9414l-1.121-3.414h-0.01953l-1.113 3.414h-0.9375l-1.516-4.547h0.9766" fill="#231f1f"/>
<path d="m75.86 120.9c-0.8906 0-2.023 0.09766-2.023 0.8633 0 0.5352 0.4805 0.7109 0.9297 0.7109 0.8438 0 1.316-0.5664 1.316-1.336v-0.2383zm0.2227-0.7773c0-0.6719-0.4531-0.9961-1.121-0.9961-0.5117 0-0.9883 0.2188-1.297 0.5273l-0.4805-0.5781c0.4414-0.4219 1.125-0.6797 1.863-0.6797 1.305 0 1.898 0.7773 1.898 1.785v1.984c0 0.3086 0.01953 0.6836 0.06641 0.9023h-0.8164c-0.04688-0.2031-0.07422-0.4414-0.07422-0.6523h-0.03125c-0.3242 0.4883-0.8438 0.7695-1.523 0.7695-0.7188 0-1.652-0.3555-1.652-1.402 0-1.371 1.633-1.535 3.168-1.535v-0.125" fill="#231f1f"/>
<path d="m80.18 122.1h0.01953l1.254-3.566h0.9609l-2.207 5.621c-0.2969 0.7578-0.6797 1.227-1.574 1.227-0.1914 0-0.3906-0.01562-0.5938-0.06641l0.08594-0.7969c0.1445 0.04687 0.3086 0.07812 0.4531 0.07812 0.4688 0 0.6523-0.2695 0.8438-0.7578l0.2852-0.7578-1.945-4.547h1.008l1.41 3.566" fill="#231f1f"/>
<path d="m88.06 119.1c-0.918 0-1.531 0.7734-1.531 1.648 0 0.8711 0.6133 1.641 1.531 1.641 0.9883 0 1.516-0.7969 1.516-1.652 0-0.8516-0.5273-1.637-1.516-1.637zm-1.477 6.223h-0.9023v-6.848h0.8828v0.7109h0.03125c0.2969-0.4805 0.8906-0.8359 1.637-0.8359 1.355 0 2.277 1.047 2.277 2.387 0 1.336-0.8945 2.41-2.293 2.41-0.6445 0-1.266-0.2969-1.605-0.8047h-0.02734v2.98" fill="#231f1f"/>
<path d="m94.37 120.9c-0.8906 0-2.023 0.09766-2.023 0.8633 0 0.5352 0.4805 0.7109 0.9297 0.7109 0.8438 0 1.316-0.5664 1.316-1.336v-0.2383zm0.2227-0.7773c0-0.6719-0.4531-0.9961-1.125-0.9961-0.5078 0-0.9883 0.2188-1.293 0.5273l-0.4805-0.5781c0.4414-0.4219 1.125-0.6797 1.859-0.6797 1.305 0 1.902 0.7773 1.902 1.785v1.984c0 0.3086 0.01953 0.6836 0.06641 0.9023h-0.8164c-0.04688-0.2031-0.07422-0.4414-0.07422-0.6523h-0.03125c-0.3242 0.4883-0.8438 0.7695-1.523 0.7695-0.7227 0-1.652-0.3555-1.652-1.402 0-1.371 1.633-1.535 3.168-1.535v-0.125" fill="#231f1f"/>
<path d="m99.09 119.2h-1.211v2.371c0 0.543 0.1953 0.7656 0.6445 0.7656 0.1641 0 0.375-0.03906 0.5273-0.1133l0.02734 0.7383c-0.2109 0.07422-0.4883 0.125-0.7656 0.125-0.8555 0-1.324-0.4805-1.324-1.422v-2.465h-0.875v-0.7383h0.875v-1.305h0.8906v1.305h1.211v0.7383" fill="#231f1f"/>
<path d="m103.3 120.4c-0.01953-0.7188-0.4414-1.285-1.277-1.285-0.7773 0-1.371 0.5742-1.43 1.285zm0.8984 0.6719h-3.605c0.02734 0.7773 0.6836 1.379 1.477 1.379 0.6172 0 1.066-0.3047 1.324-0.6914l0.6328 0.5117c-0.4883 0.6328-1.148 0.9297-1.957 0.9297-1.379 0-2.395-0.9609-2.395-2.391 0-1.418 1.016-2.406 2.348-2.406 1.344 0 2.188 0.9102 2.188 2.359 0 0.09766 0 0.2031-0.01172 0.3086" fill="#231f1f"/>
<path d="m106.3 118.5c0.01953 0.2305 0.03516 0.5547 0.03516 0.75h0.03125c0.2188-0.4922 0.8242-0.875 1.477-0.875 1.172 0 1.699 0.8359 1.699 1.852v2.82h-0.9023v-2.523c0-0.7383-0.2031-1.391-1.035-1.391-0.7109 0-1.219 0.5938-1.219 1.496v2.418h-0.9023v-3.57c0-0.2383-0.01172-0.6797-0.03906-0.9766h0.8555" fill="#231f1f"/>
<path d="m113.3 119.2h-1.207v2.371c0 0.543 0.1914 0.7656 0.6406 0.7656 0.1641 0 0.375-0.03906 0.5273-0.1133l0.03125 0.7383c-0.2109 0.07422-0.4922 0.125-0.7695 0.125-0.8516 0-1.324-0.4805-1.324-1.422v-2.465h-0.8711v-0.7383h0.8711v-1.305h0.8945v1.305h1.207v0.7383" fill="#231f1f"/>
<path d="m115.9 123.1c-0.3555 0-0.6406-0.2891-0.6406-0.625 0-0.3438 0.2773-0.6328 0.6406-0.6328s0.6445 0.2773 0.6445 0.625c0 0.3359-0.2812 0.6328-0.6445 0.6328zm0.4023-1.988h-0.9023v-0.4609c0-0.668 0.2617-1.023 0.7031-1.43l0.3555-0.332c0.2773-0.2422 0.4883-0.5117 0.4883-0.9531 0-0.6133-0.4336-1.004-1.047-1.004-0.6328 0-1.047 0.4688-1.102 1.055l-0.9219-0.1055c0.1641-1.105 0.9961-1.777 2.082-1.777 1.062 0 1.945 0.625 1.945 1.777 0 0.8164-0.375 1.18-0.9219 1.641-0.5156 0.4414-0.6797 0.6211-0.6797 1.254v0.3359" fill="#231f1f"/>
<path d="m47.68 129.5c0.9414 0 1.699 0.7578 1.699 1.699 0 0.9414-0.7578 1.699-1.699 1.699-0.9414 0-1.695-0.7578-1.695-1.699 0-0.9414 0.7539-1.699 1.695-1.699" fill="#231f1f"/>
<path d="m59.12 133.5c-0.5273 0.7188-1.402 1.23-2.59 1.23-2.082 0-3.578-1.488-3.578-3.582 0-2.117 1.555-3.555 3.617-3.555 0.9297 0 1.938 0.3633 2.438 1.055l-0.75 0.5742c-0.3281-0.4609-0.9883-0.7969-1.688-0.7969-1.574 0-2.582 1.238-2.582 2.723 0 1.527 0.9883 2.734 2.551 2.734 0.7578 0 1.422-0.3164 1.824-0.9023l0.7578 0.5195" fill="#231f1f"/>
<path d="m62.47 132.4c-0.8906 0-2.02 0.09766-2.02 0.8633 0 0.5391 0.4766 0.7109 0.9297 0.7109 0.8438 0 1.312-0.5664 1.312-1.332v-0.2422zm0.2227-0.7773c0-0.6719-0.4492-0.9961-1.121-0.9961-0.5078 0-0.9883 0.2227-1.297 0.5273l-0.4805-0.5742c0.4414-0.4219 1.125-0.6836 1.863-0.6836 1.305 0 1.898 0.7773 1.898 1.785v1.984c0 0.3086 0.01953 0.6836 0.06641 0.9023h-0.8164c-0.04688-0.1992-0.07422-0.4414-0.07422-0.6523h-0.03125c-0.3242 0.4922-0.8438 0.7695-1.523 0.7695-0.7188 0-1.648-0.3555-1.648-1.402 0-1.371 1.629-1.535 3.164-1.535v-0.125" fill="#231f1f"/>
<path d="m65.88 130c0.01953 0.2305 0.03516 0.5586 0.03516 0.75h0.03125c0.2188-0.4883 0.8242-0.875 1.477-0.875 1.172 0 1.699 0.8359 1.699 1.852v2.82h-0.9023v-2.523c0-0.7344-0.2031-1.391-1.035-1.391-0.7109 0-1.219 0.5938-1.219 1.496v2.418h-0.9023v-3.566c0-0.2422-0.01172-0.6836-0.03906-0.9805h0.8555" fill="#231f1f"/>
<path d="m75.41 130.6c-0.9219 0-1.535 0.7773-1.535 1.648 0 0.875 0.6133 1.641 1.535 1.641 0.9883 0 1.516-0.7969 1.516-1.648 0-0.8555-0.5273-1.641-1.516-1.641zm-1.477 6.227h-0.9023v-6.852h0.8828v0.7109h0.02734c0.2969-0.4805 0.8945-0.8359 1.641-0.8359 1.352 0 2.273 1.047 2.273 2.391 0 1.332-0.8906 2.406-2.293 2.406-0.6406 0-1.266-0.2969-1.602-0.8047h-0.02734v2.984" fill="#231f1f"/>
<path d="m81.72 132.4c-0.8906 0-2.023 0.09766-2.023 0.8633 0 0.5391 0.4766 0.7109 0.9297 0.7109 0.8438 0 1.312-0.5664 1.312-1.332v-0.2422zm0.2188-0.7773c0-0.6719-0.4492-0.9961-1.121-0.9961-0.5078 0-0.9883 0.2227-1.293 0.5273l-0.4805-0.5742c0.4414-0.4219 1.121-0.6836 1.859-0.6836 1.305 0 1.898 0.7773 1.898 1.785v1.984c0 0.3086 0.01953 0.6836 0.07031 0.9023h-0.8164c-0.04688-0.1992-0.07812-0.4414-0.07812-0.6523h-0.02734c-0.3281 0.4922-0.8438 0.7695-1.527 0.7695-0.7188 0-1.648-0.3555-1.648-1.402 0-1.371 1.629-1.535 3.164-1.535v-0.125" fill="#231f1f"/>
<path d="m86.44 130.8h-1.207v2.371c0 0.5469 0.1914 0.7656 0.6406 0.7656 0.1641 0 0.375-0.03516 0.5312-0.1133l0.02734 0.7383c-0.2109 0.07812-0.4883 0.125-0.7656 0.125-0.8555 0-1.324-0.4805-1.324-1.418v-2.469h-0.875v-0.7383h0.875v-1.305h0.8906v1.305h1.207v0.7383" fill="#231f1f"/>
<path d="m88.28 134.6h-0.9023v-4.547h0.9023zm-0.4531-5.609c-0.3242 0-0.5938-0.2617-0.5938-0.5781 0-0.3242 0.2695-0.5859 0.5938-0.5859 0.3281 0 0.6055 0.25 0.6055 0.5859 0 0.3281-0.2773 0.5781-0.6055 0.5781" fill="#231f1f"/>
<path d="m93.18 131.9c-0.01953-0.7188-0.4414-1.285-1.277-1.285-0.7734 0-1.371 0.5742-1.43 1.285zm0.9023 0.6719h-3.609c0.03125 0.7773 0.6836 1.383 1.48 1.383 0.6133 0 1.062-0.3086 1.324-0.6914l0.6328 0.5078c-0.4922 0.6328-1.152 0.9297-1.957 0.9297-1.383 0-2.398-0.957-2.398-2.387 0-1.422 1.016-2.41 2.348-2.41 1.344 0 2.188 0.9141 2.188 2.359 0 0.09766 0 0.2031-0.007813 0.3086" fill="#231f1f"/>
<path d="m96.16 130c0.01953 0.2305 0.03906 0.5586 0.03906 0.75h0.02734c0.2227-0.4883 0.8242-0.875 1.477-0.875 1.172 0 1.699 0.8359 1.699 1.852v2.82h-0.9023v-2.523c0-0.7344-0.2031-1.391-1.035-1.391-0.7109 0-1.219 0.5938-1.219 1.496v2.418h-0.9023v-3.566c0-0.2422-0.007812-0.6836-0.03906-0.9805h0.8555" fill="#231f1f"/>
<path d="m103.1 130.8h-1.207v2.371c0 0.5469 0.1914 0.7656 0.6445 0.7656 0.1602 0 0.3711-0.03516 0.5273-0.1133l0.02734 0.7383c-0.2109 0.07812-0.4883 0.125-0.7695 0.125-0.8516 0-1.32-0.4805-1.32-1.418v-2.469h-0.875v-0.7383h0.875v-1.305h0.8906v1.305h1.207v0.7383" fill="#231f1f"/>
<path d="m108.9 130.6c-0.9219 0-1.535 0.7773-1.535 1.648 0 0.875 0.6133 1.641 1.535 1.641 0.9883 0 1.516-0.7969 1.516-1.648 0-0.8555-0.5273-1.641-1.516-1.641zm-1.477 6.227h-0.9023v-6.852h0.8828v0.7109h0.02734c0.2969-0.4805 0.8906-0.8359 1.641-0.8359 1.352 0 2.273 1.047 2.273 2.391 0 1.332-0.8906 2.406-2.293 2.406-0.6445 0-1.266-0.2969-1.602-0.8047h-0.02734v2.984" fill="#231f1f"/>
<path d="m112.5 130h0.8516c0.02344 0.2305 0.03906 0.5781 0.03906 0.7695h0.03125c0.25-0.5273 0.7773-0.8945 1.391-0.8945 0.125 0 0.25 0.01172 0.3555 0.03906l-0.03906 0.8359c-0.1172-0.03125-0.2695-0.04688-0.4141-0.04688-0.8633 0-1.277 0.6992-1.277 1.457v2.387h-0.8984v-3.566c0-0.2422-0.007813-0.6836-0.03906-0.9805" fill="#231f1f"/>
<path d="m118 130.6c-0.9688 0-1.516 0.7773-1.516 1.641 0 0.8633 0.5469 1.648 1.516 1.648 0.9805 0 1.516-0.7852 1.516-1.648 0-0.8633-0.5352-1.641-1.516-1.641zm0 4.047c-1.391 0-2.445-1.008-2.445-2.406 0-1.402 1.055-2.391 2.445-2.391s2.457 0.9883 2.457 2.391c0 1.398-1.066 2.406-2.457 2.406" fill="#231f1f"/>
<path d="m123.9 130.8h-1.207v2.371c0 0.5469 0.1914 0.7656 0.6406 0.7656 0.1641 0 0.375-0.03516 0.5273-0.1133l0.02734 0.7383c-0.2109 0.07812-0.4883 0.125-0.7656 0.125-0.8516 0-1.324-0.4805-1.324-1.418v-2.469h-0.8711v-0.7383h0.8711v-1.305h0.8945v1.305h1.207v0.7383" fill="#231f1f"/>
<path d="m128.2 131.9c-0.01953-0.7188-0.4414-1.285-1.277-1.285-0.7734 0-1.371 0.5742-1.43 1.285zm0.9023 0.6719h-3.609c0.03125 0.7773 0.6836 1.383 1.477 1.383 0.6172 0 1.066-0.3086 1.328-0.6914l0.6289 0.5078c-0.4883 0.6328-1.148 0.9297-1.957 0.9297-1.379 0-2.395-0.957-2.395-2.387 0-1.422 1.016-2.41 2.348-2.41 1.344 0 2.188 0.9141 2.188 2.359 0 0.09766 0 0.2031-0.007812 0.3086" fill="#231f1f"/>
<path d="m133.5 131.2c-0.1914-0.2969-0.6133-0.5195-1.043-0.5195-0.9414 0-1.488 0.7695-1.488 1.641 0 0.8633 0.5469 1.641 1.496 1.641 0.4609 0 0.8555-0.1914 1.094-0.4961l0.6055 0.543c-0.3828 0.4414-0.9688 0.7109-1.699 0.7109-1.398 0-2.445-0.9492-2.445-2.398 0-1.43 1.035-2.398 2.426-2.398 0.6445 0 1.336 0.2617 1.707 0.75l-0.6523 0.5273" fill="#231f1f"/>
<path d="m137.3 130.8h-1.207v2.371c0 0.5469 0.1914 0.7656 0.6406 0.7656 0.1641 0 0.375-0.03516 0.5312-0.1133l0.02734 0.7383c-0.2109 0.07812-0.4883 0.125-0.7695 0.125-0.8516 0-1.32-0.4805-1.32-1.418v-2.469h-0.875v-0.7383h0.875v-1.305h0.8906v1.305h1.207v0.7383" fill="#231f1f"/>
<path d="m143.2 132.4c-0.8945 0-2.023 0.09766-2.023 0.8633 0 0.5391 0.4766 0.7109 0.9297 0.7109 0.8438 0 1.312-0.5664 1.312-1.332v-0.2422zm0.2188-0.7773c0-0.6719-0.4492-0.9961-1.121-0.9961-0.5078 0-0.9883 0.2227-1.297 0.5273l-0.4805-0.5742c0.4453-0.4219 1.125-0.6836 1.863-0.6836 1.305 0 1.898 0.7773 1.898 1.785v1.984c0 0.3086 0.01953 0.6836 0.06641 0.9023h-0.8164c-0.04688-0.1992-0.07422-0.4414-0.07422-0.6523h-0.02734c-0.3281 0.4922-0.8438 0.7695-1.527 0.7695-0.7188 0-1.648-0.3555-1.648-1.402 0-1.371 1.629-1.535 3.164-1.535v-0.125" fill="#231f1f"/>
<path d="m146.7 134.6h-0.8984v-4.547h0.8984zm-0.4492-5.609c-0.3242 0-0.5938-0.2617-0.5938-0.5781 0-0.3242 0.2695-0.5859 0.5938-0.5859s0.6055 0.25 0.6055 0.5859c0 0.3281-0.2812 0.5781-0.6055 0.5781" fill="#231f1f"/>
<path d="m148.3 130h0.8555c0.01563 0.2305 0.03516 0.5781 0.03516 0.7695h0.02734c0.25-0.5273 0.7812-0.8945 1.395-0.8945 0.125 0 0.25 0.01172 0.3555 0.03906l-0.03906 0.8359c-0.1172-0.03125-0.2695-0.04688-0.4141-0.04688-0.8633 0-1.273 0.6992-1.273 1.457v2.387h-0.9023v-3.566c0-0.2422-0.01172-0.6836-0.03906-0.9805" fill="#231f1f"/>
<path d="m152.1 130 1.027 3.473h0.01953l1.082-3.473h0.9492l1.105 3.473h0.01953l1.027-3.473h0.9492l-1.508 4.547h-0.9414l-1.121-3.414h-0.01953l-1.113 3.414h-0.9375l-1.516-4.547h0.9766" fill="#231f1f"/>
<path d="m161.8 132.4c-0.8906 0-2.023 0.09766-2.023 0.8633 0 0.5391 0.4805 0.7109 0.9297 0.7109 0.8438 0 1.316-0.5664 1.316-1.332v-0.2422zm0.2227-0.7773c0-0.6719-0.4531-0.9961-1.125-0.9961-0.5078 0-0.9844 0.2227-1.293 0.5273l-0.4805-0.5742c0.4414-0.4219 1.125-0.6836 1.863-0.6836 1.305 0 1.898 0.7773 1.898 1.785v1.984c0 0.3086 0.01953 0.6836 0.06641 0.9023h-0.8164c-0.04688-0.1992-0.07422-0.4414-0.07422-0.6523h-0.03125c-0.3242 0.4922-0.8438 0.7695-1.523 0.7695-0.7227 0-1.652-0.3555-1.652-1.402 0-1.371 1.633-1.535 3.168-1.535v-0.125" fill="#231f1f"/>
<path d="m166.1 133.6h0.01953l1.254-3.57h0.9609l-2.207 5.621c-0.2969 0.7578-0.6797 1.23-1.574 1.23-0.1914 0-0.3906-0.01953-0.5938-0.07031l0.08594-0.793c0.1445 0.04688 0.3086 0.07422 0.4531 0.07422 0.4688 0 0.6523-0.2656 0.8438-0.7578l0.2852-0.7578-1.945-4.547h1.008l1.41 3.57" fill="#231f1f"/>
<path d="m170.9 134.6c-0.3555 0-0.6445-0.2891-0.6445-0.625 0-0.3438 0.2773-0.6328 0.6445-0.6328 0.3633 0 0.6406 0.2812 0.6406 0.625 0 0.3359-0.2773 0.6328-0.6406 0.6328zm0.4023-1.984h-0.9023v-0.4609c0-0.6719 0.2578-1.027 0.7031-1.43l0.3516-0.3359c0.2773-0.2422 0.4922-0.5078 0.4922-0.9492 0-0.6133-0.4336-1.008-1.047-1.008-0.6328 0-1.047 0.4688-1.105 1.055l-0.918-0.1055c0.1602-1.102 0.9961-1.773 2.078-1.773 1.066 0 1.949 0.6211 1.949 1.773 0 0.8164-0.375 1.18-0.9219 1.641-0.5156 0.4414-0.6797 0.625-0.6797 1.258v0.3359" fill="#231f1f"/>
<path d="m172.3 62.07h-126v-23.63h126v23.63" fill="#fef0ca"/>
<path transform="matrix(.1 0 0 -.1 0 383)" d="m1723 3209h-1260v236.3h1260z" fill="none" stroke="#231f1f" stroke-width="5"/>
<path d="m57.7 48.56-0.8633 2.332h1.707zm1.824 4.98-0.5273-1.332h-2.629l-0.5 1.332h-1.781l2.848-6.793h1.59l2.824 6.793h-1.824" fill="#231f1f"/>
<path d="m65.11 50.31c-0.1719-0.2305-0.5156-0.3828-0.832-0.3828-0.6641 0-1.105 0.5664-1.105 1.227 0 0.6641 0.4336 1.219 1.125 1.219 0.3164 0 0.6602-0.125 0.8516-0.3555l0.875 1.066c-0.3945 0.3828-1.066 0.6133-1.766 0.6133-1.508 0-2.676-0.957-2.676-2.543 0-1.551 1.18-2.539 2.664-2.539 0.6836 0 1.402 0.2578 1.777 0.6406l-0.9141 1.055" fill="#231f1f"/>
<path d="m69.79 53.54v-0.6602h-0.01953c-0.2188 0.4219-0.7656 0.793-1.438 0.793-1.285 0-1.738-0.9961-1.738-1.957v-2.953h1.586v2.59c0 0.5391 0.1328 1.016 0.707 1.016 0.5469 0 0.8438-0.4766 0.8438-1.023v-2.582h1.574v4.777h-1.516" fill="#231f1f"/>
<path d="m74.24 49.95v1.824c0 0.4414 0.1445 0.668 0.5938 0.668 0.1523 0 0.3438-0.02734 0.4609-0.07422l0.01953 1.152c-0.2109 0.07422-0.5742 0.1406-0.9102 0.1406-1.277 0-1.699-0.6797-1.699-1.695v-2.016h-0.7695v-1.18h0.7617v-1.258h1.543v1.258h1.121v1.18h-1.121" fill="#231f1f"/>
<path d="m79.39 50.61c0-0.4961-0.3164-0.9102-0.9414-0.9102-0.6016 0-1.043 0.4219-1.082 0.9102zm1.441 0.9805h-3.465c0.04688 0.5273 0.5742 0.9023 1.141 0.9023 0.5 0 0.8438-0.2109 1.055-0.5l1.094 0.6914c-0.4492 0.6523-1.199 1.016-2.168 1.016-1.438 0-2.629-0.9102-2.629-2.523 0-1.562 1.133-2.559 2.582-2.559 1.41 0 2.398 0.9688 2.398 2.598 0 0.125 0 0.2617-0.007813 0.375" fill="#231f1f"/>
<path d="m87.3 50.05c-0.1445-0.03906-0.2773-0.04688-0.4023-0.04688-0.8438 0-1.121 0.6914-1.121 1.082v2.457h-1.574v-4.777h1.516v0.6914h0.01953c0.2383-0.4805 0.7109-0.8242 1.297-0.8242 0.1211 0 0.2578 0.007813 0.3359 0.03516l-0.07031 1.383" fill="#231f1f"/>
<path d="m91.12 50.61c0-0.4961-0.3164-0.9102-0.9375-0.9102-0.6055 0-1.047 0.4219-1.086 0.9102zm1.441 0.9805h-3.465c0.05078 0.5273 0.5742 0.9023 1.141 0.9023 0.5 0 0.8438-0.2109 1.055-0.5l1.098 0.6914c-0.4531 0.6523-1.199 1.016-2.168 1.016-1.441 0-2.629-0.9102-2.629-2.523 0-1.562 1.129-2.559 2.578-2.559 1.41 0 2.398 0.9688 2.398 2.598 0 0.125 0 0.2617-0.007812 0.375" fill="#231f1f"/>
<path d="m96.36 50.18c-0.25-0.2383-0.6133-0.4336-0.9961-0.4336-0.2969 0-0.5938 0.1094-0.5938 0.3867 0 0.2656 0.2578 0.3438 0.8711 0.4766 0.7305 0.1641 1.527 0.5312 1.527 1.461 0 1.207-1.066 1.629-2.047 1.629-0.7734 0-1.582-0.2578-2.078-0.7383l0.8828-0.9297c0.2773 0.3086 0.707 0.5352 1.168 0.5352 0.2578 0 0.5664-0.1016 0.5664-0.4102 0-0.2969-0.2969-0.3945-0.9492-0.5469-0.6641-0.1562-1.391-0.4883-1.391-1.391 0-1.141 1.074-1.602 1.984-1.602 0.7109 0 1.449 0.2305 1.918 0.6719l-0.8633 0.8906" fill="#231f1f"/>
<path d="m100.7 49.92c-0.7109 0-1.152 0.6211-1.152 1.227 0 0.625 0.4414 1.227 1.152 1.227 0.7461 0 1.121-0.6133 1.121-1.234 0-0.6172-0.375-1.219-1.121-1.219zm0.3711 3.758c-0.582 0-1.148-0.2461-1.445-0.6602h-0.01953v2.828h-1.574v-7.078h1.496v0.5859h0.02734c0.2891-0.3828 0.8281-0.7188 1.527-0.7188 1.391 0 2.266 1.168 2.266 2.504 0 1.332-0.8359 2.539-2.277 2.539" fill="#231f1f"/>
<path d="m104.4 53.54v-4.777h1.574v4.777zm0.7852-5.438c-0.5078 0-0.9023-0.3945-0.9023-0.8672 0-0.457 0.3945-0.8594 0.9023-0.8594 0.5 0 0.9023 0.3828 0.9023 0.8594 0 0.4922-0.4023 0.8672-0.9023 0.8672" fill="#231f1f"/>
<path d="m110.3 50.05c-0.1484-0.03906-0.2812-0.04688-0.4062-0.04688-0.8438 0-1.121 0.6914-1.121 1.082v2.457h-1.574v-4.777h1.516v0.6914h0.01953c0.2422-0.4805 0.7109-0.8242 1.297-0.8242 0.1211 0 0.2578 0.007813 0.3359 0.03516l-0.06641 1.383" fill="#231f1f"/>
<path d="m113.7 51.46h-0.2031c-0.6875 0-1.465 0.08594-1.465 0.6523 0 0.3633 0.3633 0.4883 0.6797 0.4883 0.6328 0 0.9883-0.3828 0.9883-0.9766zm-2.887-2.043c0.5547-0.5273 1.352-0.8047 2.129-0.8047 1.602 0 2.195 0.7852 2.195 2.523v2.406h-1.438v-0.5078h-0.02734c-0.2422 0.3945-0.7891 0.6211-1.355 0.6211-0.7578 0-1.734-0.3711-1.734-1.496 0-1.379 1.68-1.609 3.07-1.609v-0.07812c0-0.4688-0.375-0.6914-0.8633-0.6914-0.4531 0-0.8945 0.2227-1.184 0.4922l-0.793-0.8555" fill="#231f1f"/>
<path d="m117.9 49.95v1.824c0 0.4414 0.1445 0.668 0.5938 0.668 0.1523 0 0.3438-0.02734 0.4609-0.07422l0.01953 1.152c-0.2109 0.07422-0.5742 0.1406-0.9102 0.1406-1.277 0-1.699-0.6797-1.699-1.695v-2.016h-0.7656v-1.18h0.7578v-1.258h1.543v1.258h1.121v1.18h-1.121" fill="#231f1f"/>
<path d="m122.2 49.92c-0.7383 0-1.121 0.6016-1.121 1.219 0 0.6133 0.3906 1.234 1.129 1.234 0.7422 0 1.133-0.6211 1.133-1.234 0-0.6172-0.4023-1.219-1.141-1.219zm0 3.777c-1.438 0-2.648-0.9961-2.648-2.559 0-1.566 1.211-2.523 2.648-2.523 1.449 0 2.656 0.957 2.656 2.523 0 1.562-1.207 2.559-2.656 2.559" fill="#231f1f"/>
<path d="m128.9 50.05c-0.1445-0.03906-0.2773-0.04688-0.4023-0.04688-0.8438 0-1.121 0.6914-1.121 1.082v2.457h-1.574v-4.777h1.516v0.6914h0.01953c0.2383-0.4805 0.707-0.8242 1.293-0.8242 0.125 0 0.2578 0.007813 0.3359 0.03516l-0.06641 1.383" fill="#231f1f"/>
<path d="m132.3 54.26c-0.3867 1-0.9023 1.582-2.102 1.582-0.2969 0-0.6328-0.04688-0.8633-0.1055l0.1719-1.324c0.1562 0.05078 0.3555 0.08984 0.5078 0.08984 0.4922 0 0.6562-0.2305 0.8086-0.6445l0.1523-0.3945-1.996-4.699h1.746l1.066 3.07h0.02734l0.9492-3.07h1.672l-2.141 5.496" fill="#231f1f"/>
<path d="m140.4 47.45c-0.1172-0.03516-0.2773-0.06641-0.4336-0.06641-0.5742 0-0.6992 0.4609-0.6992 0.9023v0.4805h1.066v1.18h-1.066v3.598h-1.574v-3.598h-0.8711v-1.18h0.8711v-0.4609c0-1.168 0.4609-2.195 2.055-2.195 0.2695 0 0.5469 0.02734 0.7578 0.09375l-0.1055 1.246" fill="#231f1f"/>
<path d="m143.7 51.46h-0.1992c-0.6914 0-1.469 0.08594-1.469 0.6523 0 0.3633 0.3633 0.4883 0.6836 0.4883 0.6289 0 0.9844-0.3828 0.9844-0.9766zm-2.887-2.043c0.5586-0.5273 1.355-0.8047 2.129-0.8047 1.605 0 2.199 0.7852 2.199 2.523v2.406h-1.441v-0.5078h-0.02734c-0.2383 0.3945-0.7852 0.6211-1.352 0.6211-0.7578 0-1.738-0.3711-1.738-1.496 0-1.379 1.68-1.609 3.07-1.609v-0.07812c0-0.4688-0.375-0.6914-0.8633-0.6914-0.4492 0-0.8906 0.2227-1.18 0.4922l-0.7969-0.8555" fill="#231f1f"/>
<path d="m146.4 53.54v-4.777h1.574v4.777zm0.7891-5.438c-0.5078 0-0.9023-0.3945-0.9023-0.8672 0-0.457 0.3945-0.8594 0.9023-0.8594 0.4961 0 0.9023 0.3828 0.9023 0.8594 0 0.4922-0.4062 0.8672-0.9023 0.8672" fill="#231f1f"/>
<path d="m149.2 53.54v-7.254h1.594v7.254h-1.594" fill="#231f1f"/>
<path d="m155.2 53.54v-0.6602h-0.01953c-0.2188 0.4219-0.7656 0.793-1.438 0.793-1.285 0-1.738-0.9961-1.738-1.957v-2.953h1.586v2.59c0 0.5391 0.1328 1.016 0.707 1.016 0.5469 0 0.8438-0.4766 0.8438-1.023v-2.582h1.574v4.777h-1.516" fill="#231f1f"/>
<path d="m161 50.05c-0.1445-0.03906-0.2773-0.04688-0.4023-0.04688-0.8477 0-1.125 0.6914-1.125 1.082v2.457h-1.57v-4.777h1.512v0.6914h0.01953c0.2422-0.4805 0.7109-0.8242 1.297-0.8242 0.125 0 0.2578 0.007813 0.3359 0.03516l-0.06641 1.383" fill="#231f1f"/>
<path d="m164.8 50.61c0-0.4961-0.3164-0.9102-0.9375-0.9102-0.6055 0-1.047 0.4219-1.086 0.9102zm1.441 0.9805h-3.465c0.05078 0.5273 0.5781 0.9023 1.145 0.9023 0.4961 0 0.8438-0.2109 1.055-0.5l1.094 0.6914c-0.4531 0.6523-1.203 1.016-2.168 1.016-1.441 0-2.629-0.9102-2.629-2.523 0-1.562 1.129-2.559 2.578-2.559 1.41 0 2.398 0.9688 2.398 2.598 0 0.125 0 0.2617-0.007813 0.375" fill="#231f1f"/>
<path d="m50.54 105.9c-0.2773-0.3555-0.7891-0.5859-1.211-0.5859s-0.9492 0.1445-0.9492 0.6797c0 0.4531 0.4023 0.5977 1.047 0.7969 0.918 0.2969 2.109 0.6914 2.109 2.047 0 1.562-1.258 2.262-2.598 2.262-0.9688 0-1.949-0.3555-2.543-0.9805l1.074-1.094c0.3242 0.4141 0.9297 0.7227 1.469 0.7227 0.4961 0 0.9375-0.1914 0.9375-0.7383 0-0.5195-0.5156-0.6836-1.41-0.9688-0.8633-0.2812-1.734-0.7227-1.734-1.949 0-1.504 1.359-2.129 2.629-2.129 0.7656 0 1.629 0.2891 2.227 0.8359l-1.047 1.102" fill="#231f1f"/>
<path d="m55.82 108c0-0.4961-0.3164-0.9102-0.9414-0.9102-0.6055 0-1.047 0.4219-1.082 0.9102zm1.438 0.9805h-3.461c0.04688 0.5273 0.5742 0.8984 1.141 0.8984 0.5 0 0.8438-0.207 1.055-0.4961l1.094 0.6914c-0.4492 0.6523-1.199 1.016-2.168 1.016-1.438 0-2.629-0.9102-2.629-2.523 0-1.562 1.133-2.562 2.582-2.562 1.41 0 2.398 0.9727 2.398 2.602 0 0.125 0 0.2578-0.01172 0.375" fill="#231f1f"/>
<path d="m61.54 107.7c-0.1758-0.2305-0.5195-0.3828-0.8359-0.3828-0.6641 0-1.105 0.5664-1.105 1.227 0 0.6641 0.4336 1.219 1.125 1.219 0.3164 0 0.6602-0.125 0.8555-0.3555l0.8711 1.066c-0.3945 0.3828-1.066 0.6133-1.766 0.6133-1.504 0-2.676-0.9609-2.676-2.543 0-1.555 1.18-2.543 2.664-2.543 0.6836 0 1.402 0.2617 1.777 0.6445l-0.9102 1.055" fill="#231f1f"/>
<path d="m66.22 111v-0.6641h-0.01953c-0.2227 0.4219-0.7695 0.7969-1.441 0.7969-1.285 0-1.734-0.9961-1.734-1.957v-2.953h1.582v2.59c0 0.5352 0.1328 1.016 0.7109 1.016 0.5469 0 0.8438-0.4805 0.8438-1.027v-2.578h1.574v4.777h-1.516" fill="#231f1f"/>
<path d="m72.05 107.5c-0.1445-0.03906-0.2773-0.04688-0.4023-0.04688-0.8438 0-1.121 0.6875-1.121 1.082v2.457h-1.574v-4.777h1.516v0.6914h0.01953c0.2383-0.4805 0.7109-0.8281 1.297-0.8281 0.1211 0 0.2578 0.01172 0.332 0.03906l-0.06641 1.383" fill="#231f1f"/>
<path d="m75.87 108c0-0.4961-0.3164-0.9102-0.9414-0.9102-0.6016 0-1.043 0.4219-1.082 0.9102zm1.438 0.9805h-3.461c0.04688 0.5273 0.5742 0.8984 1.141 0.8984 0.5 0 0.8438-0.207 1.055-0.4961l1.094 0.6914c-0.4492 0.6523-1.199 1.016-2.168 1.016-1.438 0-2.629-0.9102-2.629-2.523 0-1.562 1.133-2.562 2.582-2.562 1.41 0 2.398 0.9727 2.398 2.602 0 0.125 0 0.2578-0.01172 0.375" fill="#231f1f"/>
<path d="m83.51 108.9h-0.2031c-0.6875 0-1.465 0.08594-1.465 0.6523 0 0.3633 0.3633 0.4883 0.6797 0.4883 0.6328 0 0.9883-0.3828 0.9883-0.9766zm-2.887-2.043c0.5547-0.5273 1.352-0.8086 2.129-0.8086 1.602 0 2.195 0.7891 2.195 2.523v2.41h-1.438v-0.5078h-0.02734c-0.2422 0.3906-0.7891 0.6211-1.352 0.6211-0.7617 0-1.738-0.3711-1.738-1.496 0-1.379 1.68-1.609 3.07-1.609v-0.07812c0-0.4688-0.375-0.6914-0.8633-0.6914-0.4531 0-0.8945 0.2227-1.18 0.4883l-0.7969-0.8516" fill="#231f1f"/>
<path d="m86.14 111v-4.777h1.574v4.777zm0.7891-5.441c-0.5078 0-0.9023-0.3906-0.9023-0.8633 0-0.457 0.3945-0.8633 0.9023-0.8633 0.4961 0 0.9023 0.3867 0.9023 0.8633 0 0.4922-0.4062 0.8633-0.9023 0.8633" fill="#231f1f"/>
<path d="m92.05 107.5c-0.1445-0.03906-0.2773-0.04688-0.4023-0.04688-0.8438 0-1.121 0.6875-1.121 1.082v2.457h-1.574v-4.777h1.516v0.6914h0.01953c0.2383-0.4805 0.707-0.8281 1.293-0.8281 0.125 0 0.2578 0.01172 0.3359 0.03906l-0.06641 1.383" fill="#231f1f"/>
<path d="m98.84 111h-1.582l-0.9414-2.977h-0.01953l-0.9219 2.977h-1.582l-1.648-4.777h1.695l0.8242 3.02h0.03125l0.8516-3.02h1.586l0.8828 3.02h0.01953l0.832-3.02h1.633l-1.66 4.777" fill="#231f1f"/>
<path d="m103.9 108.9h-0.2031c-0.6914 0-1.465 0.08594-1.465 0.6523 0 0.3633 0.3594 0.4883 0.6797 0.4883 0.6328 0 0.9883-0.3828 0.9883-0.9766zm-2.891-2.043c0.5586-0.5273 1.355-0.8086 2.129-0.8086 1.605 0 2.199 0.7891 2.199 2.523v2.41h-1.438v-0.5078h-0.03125c-0.2383 0.3906-0.7852 0.6211-1.352 0.6211-0.7578 0-1.734-0.3711-1.734-1.496 0-1.379 1.676-1.609 3.07-1.609v-0.07812c0-0.4688-0.375-0.6914-0.8672-0.6914-0.4492 0-0.8906 0.2227-1.18 0.4883l-0.7969-0.8516" fill="#231f1f"/>
<path d="m109.2 111.7c-0.3828 0.9961-0.9023 1.582-2.102 1.582-0.2969 0-0.6328-0.04688-0.8633-0.1055l0.1719-1.324c0.1562 0.05078 0.3555 0.08594 0.5078 0.08594 0.4922 0 0.6523-0.2305 0.8086-0.6406l0.1523-0.3945-1.996-4.699h1.746l1.066 3.07h0.02734l0.9492-3.07h1.672l-2.141 5.496" fill="#231f1f"/>
<path d="m47.18 272.7-0.8633 2.332h1.707zm1.82 4.98-0.5273-1.336h-2.629l-0.4961 1.336h-1.785l2.848-6.793h1.594l2.82 6.793h-1.824" fill="#231f1f"/>
<path d="m54.11 274.3c-0.25-0.2383-0.6133-0.4297-0.9961-0.4297-0.2969 0-0.5938 0.1055-0.5938 0.3828 0 0.2695 0.2578 0.3477 0.8711 0.4805 0.7305 0.1641 1.523 0.5273 1.523 1.457 0 1.211-1.062 1.633-2.043 1.633-0.7773 0-1.582-0.2617-2.082-0.7383l0.8828-0.9336c0.2812 0.3086 0.7109 0.5391 1.172 0.5391 0.2578 0 0.5664-0.1055 0.5664-0.4141 0-0.2969-0.2969-0.3906-0.9492-0.5469-0.6641-0.1523-1.391-0.4883-1.391-1.391 0-1.141 1.074-1.602 1.984-1.602 0.7109 0 1.449 0.2305 1.918 0.6719l-0.8633 0.8906" fill="#231f1f"/>
<path d="m58.63 274.3c-0.25-0.2383-0.6133-0.4297-1-0.4297-0.2969 0-0.5938 0.1055-0.5938 0.3828 0 0.2695 0.2578 0.3477 0.875 0.4805 0.7305 0.1641 1.523 0.5273 1.523 1.457 0 1.211-1.062 1.633-2.043 1.633-0.7773 0-1.582-0.2617-2.082-0.7383l0.8828-0.9336c0.2773 0.3086 0.7109 0.5391 1.172 0.5391 0.2578 0 0.5664-0.1055 0.5664-0.4141 0-0.2969-0.3008-0.3906-0.9492-0.5469-0.6641-0.1523-1.391-0.4883-1.391-1.391 0-1.141 1.07-1.602 1.984-1.602 0.707 0 1.449 0.2305 1.918 0.6719l-0.8633 0.8906" fill="#231f1f"/>
<path d="m63.64 274.7c0-0.5-0.3164-0.9102-0.9414-0.9102-0.6016 0-1.043 0.4219-1.082 0.9102zm1.441 0.9805h-3.465c0.04688 0.5273 0.5742 0.8984 1.141 0.8984 0.5 0 0.8438-0.2109 1.055-0.4961l1.094 0.6875c-0.4492 0.6523-1.199 1.02-2.168 1.02-1.438 0-2.629-0.9141-2.629-2.523 0-1.562 1.133-2.562 2.582-2.562 1.41 0 2.398 0.9688 2.398 2.602 0 0.125 0 0.2578-0.007813 0.375" fill="#231f1f"/>
<path d="m68.87 274.3c-0.25-0.2383-0.6133-0.4297-1-0.4297-0.293 0-0.5898 0.1055-0.5898 0.3828 0 0.2695 0.2578 0.3477 0.8711 0.4805 0.7305 0.1641 1.523 0.5273 1.523 1.457 0 1.211-1.062 1.633-2.043 1.633-0.7773 0-1.582-0.2617-2.082-0.7383l0.8828-0.9336c0.2812 0.3086 0.7109 0.5391 1.172 0.5391 0.2578 0 0.5664-0.1055 0.5664-0.4141 0-0.2969-0.3008-0.3906-0.9492-0.5469-0.6641-0.1523-1.391-0.4883-1.391-1.391 0-1.141 1.074-1.602 1.984-1.602 0.7109 0 1.449 0.2305 1.918 0.6719l-0.8633 0.8906" fill="#231f1f"/>
<path d="m73.39 274.3c-0.2461-0.2383-0.6133-0.4297-0.9961-0.4297-0.2969 0-0.5938 0.1055-0.5938 0.3828 0 0.2695 0.2578 0.3477 0.8711 0.4805 0.7305 0.1641 1.527 0.5273 1.527 1.457 0 1.211-1.066 1.633-2.043 1.633-0.7773 0-1.582-0.2617-2.082-0.7383l0.8828-0.9336c0.2773 0.3086 0.707 0.5391 1.168 0.5391 0.2617 0 0.5664-0.1055 0.5664-0.4141 0-0.2969-0.2969-0.3906-0.9492-0.5469-0.6602-0.1523-1.391-0.4883-1.391-1.391 0-1.141 1.074-1.602 1.984-1.602 0.7109 0 1.449 0.2305 1.922 0.6719l-0.8672 0.8906" fill="#231f1f"/>
<path d="m80.46 277.7h-1.695l-1.883-4.777h1.738l1.008 3.098h0.02734l1.008-3.098h1.68l-1.883 4.777" fill="#231f1f"/>
<path d="m86.23 274.7c0-0.5-0.3164-0.9102-0.9414-0.9102-0.6055 0-1.047 0.4219-1.082 0.9102zm1.438 0.9805h-3.461c0.04687 0.5273 0.5742 0.8984 1.141 0.8984 0.4961 0 0.8438-0.2109 1.055-0.4961l1.094 0.6875c-0.4492 0.6523-1.199 1.02-2.168 1.02-1.438 0-2.629-0.9141-2.629-2.523 0-1.562 1.133-2.562 2.582-2.562 1.41 0 2.398 0.9688 2.398 2.602 0 0.125 0 0.2578-0.01172 0.375" fill="#231f1f"/>
<path d="m91.79 277.7v-2.613c0-0.5273-0.1406-1.004-0.7109-1.004-0.5547 0-0.8438 0.4766-0.8438 1.023v2.594h-1.582v-4.777h1.527v0.6602h0.01953c0.2188-0.4219 0.7656-0.7969 1.43-0.7969 1.281 0 1.746 1 1.746 1.957v2.957h-1.586" fill="#231f1f"/>
<path d="m96.27 274.1v1.824c0 0.4414 0.1406 0.6719 0.5938 0.6719 0.1523 0 0.3438-0.02734 0.4609-0.07812l0.01953 1.152c-0.2109 0.07812-0.5781 0.1445-0.9141 0.1445-1.273 0-1.699-0.6797-1.699-1.699v-2.016h-0.7656v-1.176h0.7578v-1.258h1.547v1.258h1.121v1.176h-1.121" fill="#231f1f"/>
<path d="m98.15 277.7v-4.777h1.574v4.777zm0.7852-5.441c-0.5078 0-0.8984-0.3945-0.8984-0.8633 0-0.4609 0.3906-0.8633 0.8984-0.8633 0.5 0 0.9062 0.3828 0.9062 0.8633 0 0.4883-0.4062 0.8633-0.9062 0.8633" fill="#231f1f"/>
<path d="m101 277.7v-7.254h1.59v7.254h-1.59" fill="#231f1f"/>
<path d="m106.6 275.6h-0.1992c-0.6914 0-1.469 0.08594-1.469 0.6523 0 0.3633 0.3633 0.4883 0.6797 0.4883 0.6328 0 0.9883-0.3828 0.9883-0.9805zm-2.887-2.043c0.5586-0.5312 1.352-0.8086 2.129-0.8086 1.602 0 2.199 0.7891 2.199 2.523v2.41h-1.441v-0.5117h-0.02734c-0.2383 0.3945-0.7891 0.625-1.352 0.625-0.7578 0-1.738-0.375-1.738-1.496 0-1.383 1.68-1.613 3.07-1.613v-0.07422c0-0.4727-0.375-0.6914-0.8633-0.6914-0.4531 0-0.8906 0.2188-1.18 0.4883l-0.7969-0.8516" fill="#231f1f"/>
<path d="m110.9 274.1v1.824c0 0.4414 0.1445 0.6719 0.5938 0.6719 0.1523 0 0.3438-0.02734 0.4609-0.07812l0.01953 1.152c-0.2109 0.07812-0.5742 0.1445-0.9102 0.1445-1.277 0-1.699-0.6797-1.699-1.699v-2.016h-0.7695v-1.176h0.7578v-1.258h1.547v1.258h1.121v1.176h-1.121" fill="#231f1f"/>
<path d="m112.7 277.7v-4.777h1.574v4.777zm0.7852-5.441c-0.5078 0-0.9023-0.3945-0.9023-0.8633 0-0.4609 0.3945-0.8633 0.9023-0.8633 0.5 0 0.9023 0.3828 0.9023 0.8633 0 0.4883-0.4023 0.8633-0.9023 0.8633" fill="#231f1f"/>
<path d="m118 274c-0.7383 0-1.121 0.6055-1.121 1.219s0.3906 1.238 1.129 1.238c0.7422 0 1.133-0.625 1.133-1.238s-0.4023-1.219-1.141-1.219zm0 3.781c-1.441 0-2.648-1-2.648-2.562s1.207-2.523 2.648-2.523c1.449 0 2.656 0.9609 2.656 2.523s-1.207 2.562-2.656 2.562" fill="#231f1f"/>
<path d="m124.8 277.7v-2.613c0-0.5273-0.1445-1.004-0.7109-1.004-0.5547 0-0.8438 0.4766-0.8438 1.023v2.594h-1.582v-4.777h1.523v0.6602h0.01953c0.2227-0.4219 0.7656-0.7969 1.43-0.7969 1.285 0 1.746 1 1.746 1.957v2.957h-1.582" fill="#231f1f"/>
<path d="m48.56 189.7-0.8633 2.328h1.707zm1.824 4.977-0.5273-1.332h-2.629l-0.5 1.332h-1.781l2.848-6.793h1.59l2.824 6.793h-1.824" fill="#231f1f"/>
<path d="m55.49 191.3c-0.2461-0.2383-0.6133-0.4297-0.9961-0.4297-0.2969 0-0.5938 0.1055-0.5938 0.3828 0 0.2695 0.2578 0.3438 0.8711 0.4805 0.7305 0.1602 1.527 0.5273 1.527 1.457 0 1.207-1.066 1.629-2.043 1.629-0.7773 0-1.582-0.2578-2.082-0.7383l0.8828-0.9297c0.2773 0.3086 0.7109 0.5391 1.172 0.5391 0.2578 0 0.5625-0.1094 0.5625-0.4141 0-0.2969-0.2969-0.3945-0.9492-0.5469-0.6602-0.1523-1.391-0.4883-1.391-1.391 0-1.141 1.074-1.602 1.984-1.602 0.7109 0 1.449 0.2305 1.922 0.6719l-0.8672 0.8906" fill="#231f1f"/>
<path d="m60.02 191.3c-0.2461-0.2383-0.6133-0.4297-0.9961-0.4297-0.2969 0-0.5938 0.1055-0.5938 0.3828 0 0.2695 0.2578 0.3438 0.8711 0.4805 0.7305 0.1602 1.527 0.5273 1.527 1.457 0 1.207-1.066 1.629-2.047 1.629-0.7734 0-1.582-0.2578-2.078-0.7383l0.8828-0.9297c0.2773 0.3086 0.707 0.5391 1.168 0.5391 0.2578 0 0.5664-0.1094 0.5664-0.4141 0-0.2969-0.2969-0.3945-0.9492-0.5469-0.6602-0.1523-1.391-0.4883-1.391-1.391 0-1.141 1.074-1.602 1.984-1.602 0.7109 0 1.449 0.2305 1.918 0.6719l-0.8633 0.8906" fill="#231f1f"/>
<path d="m65.03 191.7c0-0.5-0.3203-0.9141-0.9414-0.9141-0.6055 0-1.047 0.4219-1.082 0.9141zm1.438 0.9766h-3.461c0.04688 0.5273 0.5742 0.9023 1.141 0.9023 0.4961 0 0.8438-0.2109 1.055-0.5l1.094 0.6914c-0.4531 0.6523-1.199 1.016-2.168 1.016-1.441 0-2.629-0.9102-2.629-2.523 0-1.562 1.133-2.559 2.578-2.559 1.41 0 2.398 0.9688 2.398 2.598 0 0.125 0 0.2578-0.007812 0.375" fill="#231f1f"/>
<path d="m70.26 191.3c-0.2461-0.2383-0.6133-0.4297-0.9961-0.4297-0.2969 0-0.5938 0.1055-0.5938 0.3828 0 0.2695 0.2578 0.3438 0.8711 0.4805 0.7305 0.1602 1.527 0.5273 1.527 1.457 0 1.207-1.066 1.629-2.043 1.629-0.7773 0-1.582-0.2578-2.082-0.7383l0.8828-0.9297c0.2773 0.3086 0.707 0.5391 1.168 0.5391 0.2617 0 0.5664-0.1094 0.5664-0.4141 0-0.2969-0.2969-0.3945-0.9492-0.5469-0.6602-0.1523-1.391-0.4883-1.391-1.391 0-1.141 1.074-1.602 1.984-1.602 0.7109 0 1.449 0.2305 1.922 0.6719l-0.8672 0.8906" fill="#231f1f"/>
<path d="m74.79 191.3c-0.25-0.2383-0.6133-0.4297-1-0.4297-0.2969 0-0.5938 0.1055-0.5938 0.3828 0 0.2695 0.2578 0.3438 0.875 0.4805 0.7266 0.1602 1.523 0.5273 1.523 1.457 0 1.207-1.062 1.629-2.043 1.629-0.7773 0-1.582-0.2578-2.082-0.7383l0.8828-0.9297c0.2812 0.3086 0.7109 0.5391 1.172 0.5391 0.2578 0 0.5664-0.1094 0.5664-0.4141 0-0.2969-0.3008-0.3945-0.9492-0.5469-0.6641-0.1523-1.395-0.4883-1.395-1.391 0-1.141 1.074-1.602 1.988-1.602 0.707 0 1.445 0.2305 1.918 0.6719l-0.8633 0.8906" fill="#231f1f"/>
<path d="m81.3 191c-0.7383 0-1.125 0.6055-1.125 1.219 0 0.6133 0.3945 1.234 1.133 1.234s1.133-0.6211 1.133-1.234c0-0.6133-0.4023-1.219-1.141-1.219zm0 3.777c-1.441 0-2.648-0.9961-2.648-2.559 0-1.566 1.207-2.523 2.648-2.523 1.449 0 2.656 0.957 2.656 2.523 0 1.562-1.207 2.559-2.656 2.559" fill="#231f1f"/>
<path d="m88.01 194.7-1.027-1.469-1.055 1.469h-1.824l1.91-2.504-1.727-2.273h1.832l0.8906 1.277 0.9023-1.277h1.777l-1.719 2.273 1.891 2.504h-1.852" fill="#231f1f"/>
<path d="m93.14 195.4c-0.3867 1-0.9023 1.582-2.102 1.582-0.2969 0-0.6328-0.04688-0.8633-0.1055l0.1719-1.324c0.1523 0.05078 0.3555 0.08594 0.5078 0.08594 0.4922 0 0.6523-0.2266 0.8086-0.6406l0.1523-0.3945-1.996-4.699h1.746l1.066 3.07h0.02734l0.9492-3.07h1.672l-2.141 5.496" fill="#231f1f"/>
<path d="m98.29 191c-0.7109 0-1.125 0.5469-1.125 1.207 0 0.6328 0.4141 1.219 1.125 1.219 0.7188 0 1.16-0.5664 1.16-1.219s-0.4531-1.207-1.16-1.207zm-0.1562 5.926c-0.832 0-1.812-0.2656-2.453-0.7461l0.7852-1.121c0.4609 0.4023 1.047 0.6016 1.582 0.6016 0.9219 0 1.355-0.5352 1.355-1.332v-0.2891h-0.03125c-0.2969 0.3828-0.8164 0.6328-1.449 0.6328-1.445 0-2.281-1.133-2.281-2.453 0-1.324 0.8359-2.504 2.273-2.504 0.5938 0 1.188 0.2383 1.523 0.7461h0.01953v-0.6133h1.488v4.324c0 1.871-1.113 2.754-2.812 2.754" fill="#231f1f"/>
<path d="m105.5 191.7c0-0.5-0.3164-0.9141-0.9375-0.9141-0.6055 0-1.047 0.4219-1.086 0.9141zm1.441 0.9766h-3.465c0.05078 0.5273 0.5781 0.9023 1.145 0.9023 0.4961 0 0.8438-0.2109 1.055-0.5l1.094 0.6914c-0.4531 0.6523-1.203 1.016-2.168 1.016-1.441 0-2.629-0.9102-2.629-2.523 0-1.562 1.129-2.559 2.578-2.559 1.41 0 2.398 0.9688 2.398 2.598 0 0.125 0 0.2578-0.007813 0.375" fill="#231f1f"/>
<path d="m111 194.7v-2.609c0-0.5273-0.1445-1.008-0.7109-1.008-0.5547 0-0.8438 0.4805-0.8438 1.027v2.59h-1.582v-4.777h1.523v0.6602h0.01953c0.2227-0.4219 0.7695-0.793 1.43-0.793 1.285 0 1.746 0.9961 1.746 1.957v2.953h-1.582" fill="#231f1f"/>
<path d="m116.6 192.6h-0.2031c-0.6875 0-1.465 0.08594-1.465 0.6523 0 0.3633 0.3633 0.4883 0.6797 0.4883 0.6328 0 0.9883-0.3828 0.9883-0.9766zm-2.887-2.043c0.5547-0.5273 1.352-0.8047 2.129-0.8047 1.602 0 2.195 0.7852 2.195 2.523v2.406h-1.438v-0.5078h-0.02734c-0.2422 0.3906-0.7891 0.6211-1.355 0.6211-0.7578 0-1.734-0.3711-1.734-1.496 0-1.379 1.68-1.609 3.07-1.609v-0.07812c0-0.4688-0.375-0.6914-0.8633-0.6914-0.4531 0-0.8945 0.2227-1.18 0.4922l-0.7969-0.8555" fill="#231f1f"/>
<path d="m120.8 191.1v1.824c0 0.4414 0.1406 0.6719 0.5938 0.6719 0.1523 0 0.3438-0.03125 0.4609-0.07812l0.01953 1.148c-0.2148 0.07812-0.5742 0.1445-0.9102 0.1445-1.277 0-1.699-0.6797-1.699-1.695v-2.016h-0.7695v-1.18h0.7578v-1.258h1.547v1.258h1.121v1.18h-1.121" fill="#231f1f"/>
<path d="m122.7 194.7v-4.777h1.574v4.777zm0.7852-5.438c-0.5078 0-0.9023-0.3945-0.9023-0.8633 0-0.4609 0.3945-0.8672 0.9023-0.8672 0.5 0 0.9023 0.3867 0.9023 0.8672 0 0.4883-0.4023 0.8633-0.9023 0.8633" fill="#231f1f"/>
<path d="m127.9 191c-0.7383 0-1.121 0.6055-1.121 1.219 0 0.6133 0.3945 1.234 1.133 1.234s1.133-0.6211 1.133-1.234c0-0.6133-0.4062-1.219-1.145-1.219zm0 3.777c-1.438 0-2.645-0.9961-2.645-2.559 0-1.566 1.207-2.523 2.645-2.523 1.449 0 2.66 0.957 2.66 2.523 0 1.562-1.211 2.559-2.66 2.559" fill="#231f1f"/>
<path d="m134.7 194.7v-2.609c0-0.5273-0.1445-1.008-0.7109-1.008-0.5547 0-0.8438 0.4805-0.8438 1.027v2.59h-1.582v-4.777h1.523v0.6602h0.02344c0.2188-0.4219 0.7656-0.793 1.426-0.793 1.285 0 1.746 0.9961 1.746 1.957v2.953h-1.582" fill="#231f1f"/>
</svg>
