<?xml version="1.0" encoding="UTF-8"?>
<svg viewBox="0 0 769.3 760" xmlns="http://www.w3.org/2000/svg" xmlns:xlink="http://www.w3.org/1999/xlink">
<defs>
<g id="n">
<path d="m2.312 0h2.656v-9.281h7.75v-2.188h-7.75v-6.828h8.391v-2.219h-11.05z"/>
</g>
<g id="f">
<path d="m2.219 0h2.688v-21.61h-2.688z"/>
</g>
<g id="d">
<path d="m12.81 0c-0.1875-1-0.2344-2.25-0.2344-3.531v-5.516c0-2.953-1.109-6.016-5.609-6.016-1.859 0-3.625 0.5156-4.844 1.312l0.6094 1.75c1.047-0.6562 2.469-1.094 3.844-1.094 3.016 0 3.344 2.203 3.344 3.422v0.2969c-5.688-0.03125-8.859 1.922-8.859 5.484 0 2.125 1.531 4.219 4.5 4.219 2.109 0 3.688-1.031 4.516-2.188h0.09375l0.2031 1.859zm-2.828-4.969c0 0.2812-0.0625 0.5781-0.1562 0.8594-0.4219 1.25-1.641 2.469-3.562 2.469-1.359 0-2.516-0.8281-2.516-2.562 0-2.859 3.312-3.375 6.234-3.312z"/>
</g>
<g id="a">
<path d="m2.828-18.27v3.531h-2.281v2.047h2.281v8.031c0 1.734 0.2812 3.047 1.031 3.828 0.6406 0.7344 1.656 1.125 2.891 1.125 1.047 0 1.859-0.1406 2.375-0.3594l-0.1094-2c-0.3438 0.07812-0.8594 0.1719-1.562 0.1719-1.484 0-2-1.031-2-2.859v-7.938h3.828v-2.047h-3.828v-4.234z"/>
</g>
<g id="c">
<path d="m14.06-6.875c0.03125-0.2812 0.09375-0.7031 0.09375-1.25 0-2.703-1.281-6.938-6.094-6.938-4.281 0-6.906 3.5-6.906 7.938 0 4.453 2.703 7.422 7.25 7.422 2.344 0 3.953-0.4844 4.891-0.9062l-0.4531-1.922c-1 0.4375-2.156 0.7656-4.078 0.7656-2.672 0-4.984-1.484-5.047-5.109zm-10.31-1.922c0.2031-1.859 1.391-4.359 4.109-4.359 3 0 3.734 2.656 3.703 4.359z"/>
</g>
<g id="g">
<path d="m2.219 0h2.688v-8.859c0-0.4531 0.0625-0.9062 0.1719-1.25 0.4688-1.484 1.828-2.734 3.594-2.734 2.531 0 3.406 1.984 3.406 4.359v8.484h2.688v-8.797c0-5.047-3.172-6.266-5.203-6.266-2.438 0-4.141 1.359-4.875 2.766h-0.0625l-0.1562-2.438h-2.375c0.09375 1.219 0.125 2.469 0.125 3.984z"/>
</g>
<g id="i">
<path d="m12.27-21.61v8.797h-0.0625c-0.6719-1.188-2.188-2.25-4.438-2.25-3.594 0-6.641 3.016-6.609 7.906 0 4.484 2.734 7.484 6.297 7.484 2.406 0 4.203-1.234 5.031-2.891h0.0625l0.1094 2.562h2.406c-0.09375-1-0.125-2.5-0.125-3.797v-17.81zm0 15.44c0 0.4219-0.03125 0.7812-0.125 1.156-0.4844 2-2.125 3.188-3.922 3.188-2.891 0-4.359-2.469-4.359-5.453 0-3.25 1.656-5.688 4.422-5.688 2 0 3.469 1.406 3.859 3.109 0.09375 0.3281 0.125 0.7812 0.125 1.125z"/>
</g>
<g id="o">
<path d="m0.4844-14.73 5 7.219-5.234 7.516h2.953l2.125-3.312c0.5469-0.8906 1.062-1.672 1.547-2.562h0.0625c0.5156 0.8906 1 1.703 1.578 2.562l2.172 3.312h3.047l-5.188-7.609 5.031-7.125h-2.891l-2.078 3.141c-0.4844 0.7812-0.9688 1.547-1.453 2.438h-0.09375c-0.4844-0.8281-0.9375-1.594-1.5-2.406l-2.094-3.172z"/>
</g>
<g id="h">
<path d="m2.219 6.031h2.656v-8.016h0.0625c0.875 1.469 2.578 2.312 4.531 2.312 3.469 0 6.688-2.609 6.688-7.906 0-4.469-2.672-7.484-6.234-7.484-2.406 0-4.141 1.062-5.234 2.859h-0.0625l-0.125-2.531h-2.406c0.0625 1.406 0.125 2.922 0.125 4.812zm2.656-14.55c0-0.375 0.09375-0.7656 0.1719-1.109 0.5156-2 2.234-3.312 4.047-3.312 2.844 0 4.391 2.531 4.391 5.484 0 3.375-1.641 5.688-4.469 5.688-1.922 0-3.531-1.281-4.031-3.141-0.04688-0.3281-0.1094-0.6875-0.1094-1.094z"/>
</g>
<g id="b">
<path d="m4.906 0v-14.73h-2.688v14.73zm-1.344-20.55c-0.9688 0-1.672 0.7344-1.672 1.672 0 0.9219 0.6719 1.641 1.609 1.641 1.062 0 1.734-0.7188 1.703-1.641 0-0.9375-0.6406-1.672-1.641-1.672z"/>
</g>
<g id="e">
<path d="m2.219 0h2.656v-7.859c0-0.4531 0.0625-0.875 0.1094-1.234 0.375-2.016 1.719-3.453 3.594-3.453 0.375 0 0.6406 0.03125 0.9219 0.09375v-2.516c-0.25-0.0625-0.4531-0.09375-0.7656-0.09375-1.797 0-3.406 1.25-4.078 3.219h-0.125l-0.09375-2.891h-2.344c0.09375 1.375 0.125 2.859 0.125 4.594z"/>
</g>
<g id="m">
<path d="m8.469-15.06c-4.078 0-7.312 2.891-7.312 7.812 0 4.656 3.078 7.578 7.062 7.578 3.562 0 7.328-2.375 7.328-7.812 0-4.516-2.859-7.578-7.078-7.578zm-0.0625 2c3.156 0 4.406 3.172 4.406 5.672 0 3.312-1.922 5.719-4.469 5.719-2.625 0-4.484-2.438-4.484-5.656 0-2.812 1.375-5.734 4.547-5.734z"/>
</g>
<g id="l">
<path d="m0.2812-14.73 5.438 13.58c0.125 0.3281 0.1875 0.5469 0.1875 0.7031s-0.09375 0.3594-0.2188 0.6406c-0.6094 1.359-1.516 2.406-2.25 2.984-0.7969 0.6562-1.672 1.094-2.344 1.297l0.6719 2.266c0.6719-0.125 1.984-0.5938 3.281-1.75 1.828-1.578 3.141-4.156 5.062-9.219l4.016-10.5h-2.828l-2.922 8.641c-0.375 1.078-0.6719 2.203-0.9531 3.078h-0.0625c-0.2344-0.875-0.6094-2.031-0.9375-3.016l-3.219-8.703z"/>
</g>
<g id="k">
<path d="m2.219 0h2.625v-8.891c0-0.4531 0.0625-0.9062 0.2031-1.312 0.4375-1.328 1.656-2.672 3.328-2.672 2.031 0 3.062 1.703 3.062 4.047v8.828h2.625v-9.094c0-0.5 0.09375-0.9844 0.2188-1.344 0.4531-1.312 1.641-2.438 3.156-2.438 2.172 0 3.203 1.703 3.203 4.531v8.344h2.609v-8.672c0-5.109-2.891-6.391-4.828-6.391-1.406 0-2.375 0.3594-3.266 1.031-0.6094 0.4531-1.188 1.094-1.641 1.922h-0.0625c-0.6406-1.734-2.156-2.953-4.172-2.953-2.438 0-3.797 1.312-4.625 2.703h-0.09375l-0.125-2.375h-2.344c0.09375 1.219 0.125 2.469 0.125 3.984z"/>
</g>
<g id="j">
<path d="m4.406 0 0.125-2.438h0.09375c1.094 1.953 2.797 2.766 4.938 2.766 3.281 0 6.594-2.609 6.594-7.875 0.03125-4.469-2.547-7.516-6.203-7.516-2.375 0-4.078 1.062-5.016 2.703h-0.0625v-9.25h-2.656v17.81c0 1.297-0.0625 2.797-0.125 3.797zm0.4688-8.547c0-0.4375 0.09375-0.7969 0.1406-1.109 0.5469-2.031 2.266-3.281 4.078-3.281 2.875 0 4.391 2.531 4.391 5.484 0 3.375-1.672 5.656-4.469 5.656-1.953 0-3.5-1.281-4.031-3.141-0.04688-0.2969-0.1094-0.625-0.1094-0.9688z"/>
</g>
<g id="p">
<path d="m1.188-0.7031c1.031 0.6094 2.531 1 4.141 1 3.5 0 5.5-1.812 5.5-4.406 0-2.188-1.297-3.469-3.859-4.438-1.922-0.7344-2.797-1.281-2.797-2.5 0-1.094 0.875-2.016 2.469-2.016 1.359 0 2.438 0.4844 3.016 0.8594l0.6562-1.953c-0.8125-0.4844-2.125-0.9062-3.609-0.9062-3.172 0-5.094 1.938-5.094 4.312 0 1.766 1.25 3.234 3.906 4.172 1.969 0.7344 2.734 1.438 2.734 2.719 0 1.219-0.9219 2.188-2.859 2.188-1.344 0-2.75-0.5469-3.531-1.062z"/>
</g>
<clipPath id="q">
<path d="m0 0h769.3v760h-769.3z"/>
</clipPath>
</defs>
<g clip-path="url(#q)">
<path d="m769.3 760h-769.3v-760h769.3v760" fill="#fff"/>
</g>
<path d="m676.3 481.5-20-10v7.5h-520.5v-391.5h7.5l-10-20-10 20h7.5v585h-7.5l10 20 10-20h-7.5v-188.5h520.5v7.5l20-10" fill="#0f0e0c"/>
<path transform="matrix(.1 0 0 -.1 0 760)" d="m5162 2744c-59.92-748.2-634.3-1114-1119-1450-300.4-208.6-890.6-365.2-1822 125.6-765.5 403.4-840.4 1068-848.6 1226-36.8 710.5-56.33 826.6 108 1718 623.4 3381 1375 1287 2275 155.7 687.3-864 1119-1450 1407-1775z" fill="none" stroke="#459cdc" stroke-dasharray="210 210" stroke-width="40"/>
<path transform="matrix(.1 0 0 -.1 0 760)" d="m1397 2408c-77.62 321.4-38.52 646.7-49.18 972.3-6.523 199.9-61.68 523.8 128 668.6 167.2 127.7 413.2 128 616.7 132.7 243.9 5.703 487.1 23.83 731.2 28.09 247.5 4.375 497.3 0 742.7-33.63 162.4-22.23 334-46.95 476.4-129.8 169.1-98.32 254.7-276.8 384.6-413.3 87.27-91.64 190.5-169.9 277-263.9 223.3-242.6 452.9-601.1 336.2-935.1-107.5-307.7-453.2-481.1-767.6-536.5-700.1-65.27-1431-113-2131-32.93-312.6 35.82-598.8 98.91-709.3 418.7-13.59 39.34-25.62 81.25-36.09 124.6z" fill="none" stroke="#4795d7" stroke-miterlimit="10" stroke-width="60"/>
<g fill="#0f0e0c">
<use x="490.653" y="354.204" xlink:href="#n"/>
<use x="504.960646" y="354.204" xlink:href="#f"/>
<use x="512.144227" y="354.204" xlink:href="#d"/>
<use x="526.695983" y="354.204" xlink:href="#a"/>
<use x="536.772219" y="354.204" xlink:href="#a"/>
<use x="546.665804" y="354.204" xlink:href="#c"/>
<use x="561.917146" y="354.204" xlink:href="#g"/>
<use x="578.811661" y="354.204" xlink:href="#c"/>
<use x="594.063003" y="354.204" xlink:href="#i"/>
<use x="490.653" y="390.7337" xlink:href="#c"/>
<use x="505.813229" y="390.7337" xlink:href="#o"/>
<use x="519.907782" y="390.7337" xlink:href="#h"/>
<use x="537.228092" y="390.7337" xlink:href="#b"/>
<use x="544.351473" y="390.7337" xlink:href="#e"/>
<use x="554.154184" y="390.7337" xlink:href="#d"/>
<use x="568.704964" y="390.7337" xlink:href="#a"/>
<use x="578.598549" y="390.7337" xlink:href="#m"/>
<use x="595.311097" y="390.7337" xlink:href="#e"/>
<use x="606.025868" y="390.7337" xlink:href="#l"/>
<use x="620.363956" y="390.7337" xlink:href="#glyph-0-13"/>
<use x="626.81708" y="390.7337" xlink:href="#f"/>
<use x="634.001345" y="390.7337" xlink:href="#b"/>
<use x="641.124726" y="390.7337" xlink:href="#k"/>
<use x="666.513187" y="390.7337" xlink:href="#j"/>
<use x="491.80886" y="631.1747" xlink:href="#n"/>
<use x="506.116506" y="631.1747" xlink:href="#f"/>
<use x="513.300087" y="631.1747" xlink:href="#d"/>
<use x="527.851843" y="631.1747" xlink:href="#a"/>
<use x="537.928079" y="631.1747" xlink:href="#a"/>
<use x="547.821664" y="631.1747" xlink:href="#c"/>
<use x="563.073006" y="631.1747" xlink:href="#g"/>
<use x="579.967521" y="631.1747" xlink:href="#c"/>
<use x="595.218863" y="631.1747" xlink:href="#i"/>
<use x="491.80886" y="667.7044" xlink:href="#b"/>
<use x="498.932241" y="667.7044" xlink:href="#g"/>
<use x="515.82744" y="667.7044" xlink:href="#p"/>
<use x="527.882393" y="667.7044" xlink:href="#h"/>
<use x="545.202703" y="667.7044" xlink:href="#b"/>
<use x="552.326084" y="667.7044" xlink:href="#e"/>
<use x="562.128795" y="667.7044" xlink:href="#d"/>
<use x="576.679575" y="667.7044" xlink:href="#a"/>
<use x="586.57316" y="667.7044" xlink:href="#m"/>
<use x="603.285708" y="667.7044" xlink:href="#e"/>
<use x="614.000479" y="667.7044" xlink:href="#l"/>
<use x="628.338567" y="667.7044" xlink:href="#glyph-0-13"/>
<use x="634.791691" y="667.7044" xlink:href="#f"/>
<use x="641.975956" y="667.7044" xlink:href="#b"/>
<use x="649.099337" y="667.7044" xlink:href="#k"/>
<use x="674.487798" y="667.7044" xlink:href="#j"/>
</g>
</svg>
