<?xml version="1.0" encoding="UTF-8"?>
<svg viewBox="0 0 1045 491.2" xmlns="http://www.w3.org/2000/svg" xmlns:xlink="http://www.w3.org/1999/xlink">
<defs>
<g id="cr">
<path d="m8.344-9.578c-0.9375-0.8594-2.281-1.312-3.484-1.312-1.984 0-4.109 0.9688-4.109 3.328 0 1.922 1.359 2.609 2.719 3.047 1.391 0.4531 2.203 0.7031 2.203 1.516 0 0.8594-0.6875 1.156-1.469 1.156-0.8438 0-1.781-0.4844-2.297-1.125l-1.688 1.703c0.9375 0.9844 2.469 1.531 3.984 1.531 2.094 0 4.062-1.094 4.062-3.531 0-2.125-1.859-2.734-3.297-3.203-1.016-0.3125-1.641-0.5312-1.641-1.234 0-0.8438 0.8281-1.078 1.484-1.078s1.453 0.3594 1.891 0.9219z"/>
</g>
<g id="cq">
<path d="m8.25 0v-7.469h-2.453v4.031c0 0.8594-0.4688 1.609-1.328 1.609-0.9062 0-1.109-0.75-1.109-1.594v-4.047h-2.469v4.625c0 1.5 0.7031 3.047 2.703 3.047 1.062 0 1.906-0.5781 2.25-1.234h0.03125v1.031z"/>
</g>
<g id="ck">
<path d="m6.703-6.656c-0.7344-0.6875-1.891-1.047-3-1.047-1.422 0-3.109 0.7188-3.109 2.5 0 1.406 1.141 1.938 2.188 2.172 1.016 0.2344 1.484 0.3906 1.484 0.8594 0 0.4844-0.4844 0.6406-0.8906 0.6406-0.7188 0-1.391-0.3594-1.828-0.8438l-1.375 1.453c0.7656 0.75 2.031 1.156 3.25 1.156 1.531 0 3.188-0.6562 3.188-2.547 0-1.453-1.234-2.016-2.375-2.281-0.9688-0.2031-1.375-0.3281-1.375-0.75 0-0.4375 0.4688-0.5938 0.9375-0.5938 0.5938 0 1.172 0.2969 1.562 0.6719z"/>
</g>
<g id="cj">
<path d="m9.266-3.766c0-2.078-1.359-3.922-3.531-3.922-1.094 0-1.938 0.5312-2.391 1.125h-0.04688v-0.9062h-2.344v11.06h2.469v-4.422h0.03125c0.4688 0.6406 1.344 1.031 2.266 1.031 2.25 0 3.547-1.891 3.547-3.969zm-2.375 0c0 0.9688-0.5938 1.938-1.766 1.938-1.109 0-1.797-0.9531-1.797-1.922 0-0.9375 0.6875-1.922 1.797-1.922 1.172 0 1.766 0.9531 1.766 1.906z"/>
</g>
<g id="af">
<path d="m3.625-9.859c0-0.75-0.625-1.344-1.406-1.344-0.7969 0-1.406 0.625-1.406 1.344 0 0.7344 0.6094 1.359 1.406 1.359 0.7812 0 1.406-0.5938 1.406-1.359zm-0.1719 9.859v-7.469h-2.469v7.469z"/>
</g>
<g id="bi">
<path d="m7.531-6.703c-0.5938-0.6094-1.719-1-2.781-1-2.312 0-4.172 1.531-4.172 3.969 0 2.469 1.844 3.969 4.188 3.969 1.094 0 2.156-0.3594 2.766-0.9531l-1.359-1.672c-0.3125 0.3594-0.8438 0.5625-1.344 0.5625-1.078 0-1.75-0.875-1.75-1.906s0.6875-1.922 1.719-1.922c0.5 0 1.031 0.2344 1.312 0.5938z"/>
</g>
<g id="ae">
<path d="m8.875-3.766c0-2.438-1.891-3.938-4.156-3.938-2.25 0-4.141 1.5-4.141 3.938 0 2.453 1.891 4 4.141 4 2.266 0 4.156-1.547 4.156-4zm-2.359 0c0 0.9531-0.625 1.938-1.781 1.938s-1.766-0.9844-1.766-1.938 0.5938-1.906 1.75-1.906 1.797 0.9531 1.797 1.906z"/>
</g>
<g id="ad">
<path d="m8.344 0v-4.625c0-1.5-0.7188-3.062-2.734-3.062-1.031 0-1.891 0.5938-2.234 1.25h-0.03125v-1.031h-2.391v7.469h2.484v-4.047c0-0.8594 0.4531-1.609 1.312-1.609 0.8906 0 1.109 0.75 1.109 1.578v4.078z"/>
</g>
<g id="ci">
<path d="m11.02-5.344c0-4.016-3.062-5.281-6.078-5.281h-3.844v10.62h3.969c2.922 0 5.953-1.609 5.953-5.344zm-2.672 0c0 2.375-1.703 3.125-3.531 3.125h-1.219v-6.219h1.281c1.766 0 3.469 0.7188 3.469 3.094z"/>
</g>
<g id="bh">
<path d="m2.938-4.594c0.0625-0.7656 0.75-1.422 1.703-1.422 0.9688 0 1.469 0.6406 1.469 1.422zm5.438 0.9531c0-2.547-1.547-4.062-3.75-4.062-2.266 0-4.047 1.547-4.047 4 0 2.516 1.859 3.938 4.109 3.938 1.516 0 2.688-0.5625 3.391-1.578l-1.703-1.094c-0.3281 0.4531-0.875 0.7812-1.656 0.7812-0.875 0-1.703-0.5781-1.781-1.406h5.422c0.01562-0.1719 0.01562-0.3906 0.01562-0.5781z"/>
</g>
<g id="aq">
<path d="m5.391-5.625v-1.844h-1.766v-1.969h-2.406v1.969h-1.188v1.844h1.203v3.156c0 1.578 0.6562 2.656 2.656 2.656 0.5156 0 1.094-0.1094 1.422-0.2344l-0.03125-1.797c-0.1875 0.07812-0.4844 0.125-0.7188 0.125-0.7031 0-0.9375-0.3594-0.9375-1.062v-2.844z"/>
</g>
<g id="cp">
<path d="m10.44-1.469-1.781-1.688c-0.4531 0.6406-1.25 1.094-2.25 1.094-1.766 0-3.016-1.328-3.016-3.266 0-1.875 1.281-3.25 3.062-3.25 0.8125 0 1.656 0.3125 2.141 0.9688l1.734-1.734c-0.875-1.016-2.484-1.562-3.969-1.562-3.234 0-5.766 2.172-5.766 5.578 0 3.328 2.453 5.609 5.719 5.609 1.781 0 3.203-0.6719 4.125-1.75z"/>
</g>
<g id="co">
<path d="m9.172-9.859c0-0.75-0.6562-1.344-1.422-1.344-0.7969 0-1.406 0.625-1.406 1.344 0 0.7344 0.6094 1.359 1.406 1.359 0.7656 0 1.422-0.5938 1.422-1.359zm-0.1875 9.859v-7.469h-2.469v7.469zm-3.219-11.47c-0.3281-0.1094-0.7656-0.1562-1.188-0.1562-2.5 0-3.219 1.609-3.219 3.438v0.7188h-1.359v1.844h1.359v5.625h2.469v-5.625h1.656v-1.844h-1.656v-0.75c0-0.6875 0.1875-1.406 1.094-1.406 0.2344 0 0.5 0.04688 0.6719 0.09375z"/>
</g>
<g id="cn">
<path d="m5.906-7.625c-0.1094-0.04688-0.3281-0.0625-0.5156-0.0625-0.9219 0-1.656 0.5469-2.031 1.297h-0.03125v-1.078h-2.375v7.469h2.469v-3.844c0-0.6094 0.4375-1.688 1.75-1.688 0.2031 0 0.4062 0.01562 0.6406 0.07812z"/>
</g>
<g id="cm">
<path d="m12.95 0v-4.625c0-1.406-0.6875-3.062-2.703-3.062-1.109 0-1.891 0.5-2.391 1.281-0.4219-0.8125-1.172-1.281-2.25-1.281-1.125 0-1.891 0.625-2.234 1.25h-0.03125v-1.031h-2.391v7.469h2.484v-4.047c0-0.9062 0.4531-1.609 1.234-1.609 0.7344 0 1.062 0.5469 1.062 1.391v4.266h2.453v-4.031c0-0.8438 0.4062-1.625 1.25-1.625 0.875 0 1.062 0.7188 1.062 1.578v4.078z"/>
</g>
<g id="cl">
<path d="m5.375-3c0 0.9375-0.5625 1.531-1.547 1.531-0.5 0-1.062-0.2031-1.062-0.7656 0-0.8906 1.203-1.016 2.297-1.016h0.3125zm-3.281-2.109c0.4531-0.4219 1.141-0.7656 1.844-0.7656 0.7656 0 1.359 0.3438 1.359 1.078v0.1094c-2.172 0-4.797 0.375-4.797 2.531 0 1.75 1.531 2.344 2.703 2.344 0.8906 0 1.75-0.375 2.125-0.9844h0.04688v0.7969h2.25v-3.766c0-2.719-0.9375-3.938-3.438-3.938-1.219 0-2.469 0.4219-3.328 1.25z"/>
</g>
<g id="bg">
<path d="m1.016 0h5.547v-1.453h-3.906v-7.75h-1.641z"/>
</g>
<g id="bf">
<path d="m6.625-6.234h-1.562v3.422c0 0.8438-0.4531 1.688-1.453 1.688s-1.172-0.9219-1.172-1.656v-3.453h-1.547v3.891c0 1.281 0.6719 2.531 2.297 2.531 0.9219 0 1.656-0.5625 1.938-1.188h0.01562v1h1.484z"/>
</g>
<g id="x">
<path d="m0.9375 0h1.562v-3.438c0-0.8281 0.4688-1.688 1.453-1.688 1 0 1.172 0.9219 1.172 1.672v3.453h1.562v-3.906c0-1.266-0.6875-2.516-2.312-2.516-0.9219 0-1.656 0.5625-1.938 1.188h-0.01562v-1h-1.484z"/>
</g>
<g id="am">
<path d="m5.797-6.234v0.9375h-0.03125c-0.4531-0.7656-1.266-1.125-2.141-1.125-1.891 0-3.047 1.469-3.047 3.281 0 1.766 1.203 3.25 3.078 3.25 0.8594 0 1.578-0.3281 2.031-0.9375h0.03125v0.4531c0 1.234-0.4688 2.141-1.969 2.141-0.7812 0-1.594-0.3125-2.188-0.875l-0.9062 1.203c0.8125 0.6562 2.094 1.031 3.094 1.031 2.438 0 3.531-1.438 3.531-3.688v-5.672zm-1.844 1.094c1.125 0 1.844 0.9062 1.844 1.984 0 1.031-0.7031 1.969-1.859 1.969-1.109 0-1.781-0.9844-1.781-1.969 0-1.109 0.6719-1.984 1.797-1.984z"/>
</g>
<g id="al">
<path d="m1.016 0h1.641v-4.078h4.297v4.078h1.641v-9.203h-1.641v3.719h-4.297v-3.719h-1.641z"/>
</g>
<g id="f">
<path d="m2.125-3.75c0.07812-0.8594 0.8125-1.5 1.734-1.5 1.016 0 1.469 0.7031 1.469 1.5zm4.766 0.7031c0-2.25-1.281-3.375-3.016-3.375-1.891 0-3.297 1.328-3.297 3.344 0 2.031 1.422 3.266 3.344 3.266 1.188 0 2.078-0.4219 2.688-1.25l-1.047-0.8281c-0.3438 0.4844-0.875 0.7969-1.656 0.7969-0.9062 0-1.703-0.6406-1.781-1.531h4.75c0.01562-0.1406 0.01562-0.2812 0.01562-0.4219z"/>
</g>
<g id="n">
<path d="m4.812 0h1.453v-3.797c0-1.25-0.5469-2.625-2.781-2.625-0.9531 0-1.938 0.3438-2.641 0.9844l0.8125 0.9531c0.3906-0.4062 1.031-0.7188 1.703-0.7188 0.7812 0 1.422 0.375 1.422 1.141v0.1562c-1.953 0-4.281 0.2656-4.281 2.125 0 1.453 1.328 1.938 2.328 1.938 0.8906 0 1.625-0.4062 1.938-0.9531h0.04688zm-0.03125-2.625c0 0.9844-0.5625 1.594-1.641 1.594-0.5312 0-1.094-0.1719-1.094-0.7812 0-0.9219 1.391-1.031 2.391-1.031h0.3438z"/>
</g>
<g id="o">
<path d="m0.9375 0h1.562v-3.344c0-0.4531 0.2656-1.672 1.672-1.672 0.1406 0 0.2812 0.01562 0.4844 0.0625v-1.438c-0.1094-0.01562-0.2656-0.03125-0.375-0.03125-0.8281 0-1.484 0.5-1.828 1.219h-0.01562v-1.031h-1.5z"/>
</g>
<g id="l">
<path d="m1.125-4.984v2.906c0 1.188 0.3906 2.203 2.031 2.203 0.3594 0 0.7656-0.0625 1.047-0.1562l-0.0625-1.234c-0.1719 0.09375-0.4531 0.1406-0.6562 0.1406-0.6875 0-0.8125-0.4062-0.8125-0.9688v-2.891h1.547v-1.25h-1.547v-1.812h-1.547v1.812h-1.094v1.25z"/>
</g>
<g id="cb">
<path d="m3.516 0h1.406l3.703-9.203h-1.781l-2.547 7.078h-0.0625l-2.531-7.078h-1.828z"/>
</g>
<g id="ap">
<path d="m5.016-9.438-1.078-0.4219-4.047 10.09 1.078 0.3906z"/>
</g>
<g id="ch">
<path d="m10.94-1.328h-2.281v-0.03125c0.8281-0.5781 1.641-1.703 1.641-3.359 0-2.797-2.062-4.719-4.891-4.719-2.812 0-4.922 1.922-4.922 4.719 0 2.984 1.953 4.719 4.891 4.719h5.562zm-5.531-6.641c1.859 0 3.109 1.375 3.109 3.25 0 1.969-1.312 3.281-3.141 3.281-1.844 0-3.094-1.312-3.094-3.281 0-1.875 1.344-3.25 3.125-3.25z"/>
</g>
<g id="r">
<path d="m5.375-5.469c-0.5156-0.6406-1.453-0.9531-2.344-0.9531-1.234 0-2.484 0.5938-2.484 1.984 0 1.172 0.9219 1.547 1.844 1.766 0.9531 0.2344 1.438 0.3906 1.438 0.9062 0 0.5625-0.5469 0.7344-1 0.7344-0.6875 0-1.266-0.3281-1.609-0.7812l-1.031 0.9688c0.6094 0.6562 1.609 1.031 2.562 1.031 1.375 0 2.609-0.5625 2.609-2.078 0-1.234-1.094-1.641-2.016-1.859-0.875-0.2188-1.359-0.3438-1.359-0.8281s0.5156-0.6719 1-0.6719c0.5781 0 1.094 0.3125 1.375 0.6719z"/>
</g>
<g id="be">
<path d="m6.266-5.453c-0.5-0.6094-1.438-0.9688-2.359-0.9688-1.828 0-3.328 1.281-3.328 3.297 0 2.078 1.531 3.312 3.375 3.312 0.9219 0 1.781-0.3125 2.297-0.875l-0.9688-0.9844c-0.2969 0.3594-0.8281 0.5469-1.312 0.5469-1.188 0-1.766-1.016-1.766-2 0-0.9688 0.5625-2 1.703-2 0.5156 0 1.047 0.2656 1.297 0.6094z"/>
</g>
<g id="cg">
<path d="m0.9062-0.9062c0 0.5625 0.5 0.9844 1.047 0.9844 0.5625 0 1.031-0.4531 1.031-1.016s-0.4688-0.9844-1.031-0.9844c-0.5781 0-1.047 0.4531-1.047 1.016zm0-4.391c0 0.5469 0.5 0.9844 1.047 0.9844 0.5625 0 1.031-0.4531 1.031-1.016s-0.4688-0.9844-1.031-0.9844c-0.5781 0-1.047 0.4531-1.047 1.016z"/>
</g>
<g id="h">
<path d="m0.9688 0h1.547v-6.234h-1.547zm-0.2344-8.359c0 0.5 0.4219 0.9375 1 0.9375 0.5625 0 1.016-0.4062 1.016-0.9375s-0.4531-0.9375-1.016-0.9375c-0.5781 0-1 0.4375-1 0.9375z"/>
</g>
<g id="ac">
<path d="m8.391-6.422c-0.9375 0-1.641 0.4219-2.062 1.188-0.3438-0.7031-0.9844-1.188-1.953-1.188-1 0-1.656 0.5781-1.938 1.188h-0.01562v-1h-1.484v6.234h1.562v-3.438c0-0.8281 0.4219-1.688 1.359-1.688 0.7969 0 1.156 0.5938 1.156 1.359v3.766h1.562v-3.406c0-0.8125 0.4062-1.719 1.375-1.719 1 0 1.172 0.9219 1.172 1.672v3.453h1.562v-3.906c0-1.266-0.6719-2.516-2.297-2.516z"/>
</g>
<g id="ab">
<path d="m7.281-9.828h-1.562v4.375h-0.03125c-0.3281-0.3906-0.9531-0.9688-2.094-0.9688-1.781 0-3.031 1.438-3.031 3.281 0 1.812 1.172 3.328 3.062 3.328 0.875 0 1.719-0.4062 2.141-1.125h0.03125v0.9375h1.484zm-5.141 6.688c0-0.9844 0.5938-2 1.797-2 1.141 0 1.828 1.047 1.828 2.016 0 0.9844-0.6875 2-1.828 2-1.203 0-1.797-1.047-1.797-2.016z"/>
</g>
<g id="q">
<path d="m4.406-6.422c-0.9219 0-1.609 0.5312-1.859 1.047h-0.03125v-4.453h-1.547v9.828h1.547v-3.406c0-0.8281 0.4844-1.672 1.469-1.672 1 0 1.156 0.9062 1.156 1.641v3.438h1.562v-3.906c0-1.266-0.6719-2.516-2.297-2.516z"/>
</g>
<g id="bd">
<path d="m0.9375-6.234v9.359h1.562v-3.953h0.01562c0.4062 0.625 1.203 1.016 2.078 1.016 1.891 0 3.062-1.516 3.062-3.328 0-1.844-1.25-3.281-3.031-3.281-1.141 0-1.844 0.5625-2.156 1.047h-0.03125v-0.8594zm5.141 3.094c0 0.9688-0.5938 2.016-1.797 2.016-1.141 0-1.844-1.016-1.844-2 0-0.9688 0.7031-2.016 1.844-2.016 1.203 0 1.797 1.016 1.797 2z"/>
</g>
<g id="g">
<path d="m0.5781-3.141c0 1.953 1.5 3.328 3.391 3.328 1.875 0 3.391-1.375 3.391-3.328 0-1.969-1.516-3.281-3.391-3.281-1.891 0-3.391 1.312-3.391 3.281zm1.578 0c0-0.9844 0.5781-2 1.812-2s1.797 1.016 1.797 2c0 0.9688-0.5625 2.016-1.797 2.016s-1.812-1.047-1.812-2.016z"/>
</g>
<g id="bc">
<path d="m0.9688-9.828v9.828h1.469v-0.9375h0.03125c0.4375 0.7188 1.281 1.125 2.141 1.125 1.906 0 3.078-1.516 3.078-3.328 0-1.844-1.25-3.281-3.031-3.281-1.141 0-1.766 0.5781-2.094 0.9688h-0.04688v-4.375zm5.125 6.688c0 0.9688-0.5781 2.016-1.797 2.016-1.141 0-1.828-1.016-1.828-2 0-0.9688 0.6875-2.016 1.828-2.016 1.219 0 1.797 1.016 1.797 2z"/>
</g>
<g id="p">
<path d="m0.9688 0h1.547v-9.828h-1.547z"/>
</g>
<g id="bb">
<path d="m2.672 0-0.3125 0.7969c-0.25 0.6406-0.4375 0.9688-1.094 0.9688-0.1719 0-0.375-0.03125-0.5938-0.09375l-0.125 1.359c0.2656 0.0625 0.5469 0.09375 0.8125 0.09375 1.375 0 1.922-0.6562 2.359-1.781l2.953-7.578h-1.625l-1.547 4.531h-0.03125l-1.734-4.531h-1.734z"/>
</g>
<g id="aa">
<path d="m1.188 0h1.562v-4.984h1.438v-1.25h-1.438v-1.016c0-0.625 0.1562-1.406 1.047-1.406 0.2188 0 0.4219 0.03125 0.5938 0.09375l0.1094-1.328c-0.2344-0.0625-0.4531-0.09375-0.7969-0.09375-1.938 0-2.516 1.328-2.516 2.828v0.9219h-1.188v1.25h1.188z"/>
</g>
<g id="ao">
<path d="m1.016 0h1.641v-3.812h1.25c1.953 0 3.578-0.7031 3.578-2.719 0-1.938-1.359-2.672-3.469-2.672h-3zm1.641-5.188v-2.641h1.188c1.016 0 2 0.2031 2 1.297 0 1.078-0.9844 1.344-2.047 1.344z"/>
</g>
<g id="cf">
<path d="m1.016 0h6.328v-1.453h-4.688v-2.609h4.219v-1.375h-4.219v-2.344h4.453v-1.422h-6.094z"/>
</g>
<g id="ba">
<path d="m4.266-2.719v-0.3438c0-0.75 0.1875-0.9688 0.8594-1.562 0.7969-0.7031 1.297-1.203 1.297-2.297 0-1.641-1.281-2.516-2.766-2.516-1.609 0-2.844 0.9688-3.031 2.625l1.594 0.1406c0.03125-0.7031 0.5312-1.344 1.328-1.344 0.7656 0 1.219 0.5156 1.219 1.188 0 0.5156-0.2656 0.8594-0.5938 1.156l-0.5781 0.5625c-0.6562 0.625-0.8594 1.062-0.8594 1.891v0.5zm-1.797 1.812c0 0.5625 0.5 0.9844 1.047 0.9844 0.5625 0 1.031-0.4531 1.031-1.016s-0.4844-0.9844-1.031-0.9844c-0.5781 0-1.047 0.4531-1.047 1.016z"/>
</g>
<g id="an">
<path d="m1.016 0h1.641v-7.109h0.01562l4.375 7.109h2.078v-9.203h-1.641v6.891h-0.01562l-4.281-6.891h-2.172z"/>
</g>
<g id="ce">
<path d="m2.516 0h1.672l2.484-6.234h-1.656l-1.656 4.547h-0.01562l-1.641-4.547h-1.703z"/>
</g>
<g id="cd">
<path d="m2.219 0h1.594l1.406-4.375h0.01562l1.422 4.375h1.578l2.172-6.234h-1.625l-1.328 4.469h-0.03125l-1.344-4.469h-1.672l-1.344 4.469h-0.01562l-1.312-4.469h-1.688z"/>
</g>
<g id="az">
<path d="m0.9688 0h1.547v-3.203h0.04688l2.469 3.203h2.062l-2.875-3.422 2.703-2.812h-2l-2.359 2.625h-0.04688v-6.219h-1.547z"/>
</g>
<g id="ay">
<path d="m3.234 0h1.641v-3.984l3.453-5.219h-1.891l-2.344 3.875-2.312-3.875h-2l3.453 5.219z"/>
</g>
<g id="cc">
<path d="m1.016 0h1.641v-9.203h-1.641z"/>
</g>
<g id="ca">
<path d="m7.812-9.75c-0.8125-0.7656-2.016-1.141-3.094-1.141-1.906 0-3.875 0.9531-3.875 3.125 0 1.969 1.391 2.609 2.688 3.016 1.328 0.4219 2.438 0.7344 2.438 1.844 0 1.141-1.031 1.578-1.922 1.578-0.8438 0-1.797-0.4531-2.328-1.172l-1.344 1.25c0.8438 1 2.266 1.516 3.641 1.516 2.094 0 3.875-1.109 3.875-3.391 0-2.078-1.734-2.688-3.109-3.094-1.203-0.375-2.016-0.6719-2.016-1.641 0-1.031 1-1.453 1.875-1.453 0.75 0 1.547 0.3906 1.938 0.9062z"/>
</g>
<g id="bz">
<path d="m7.656-7.203h-1.812v3.969c0 0.9531-0.5312 1.938-1.672 1.938-1.156 0-1.359-1.062-1.359-1.906v-4h-1.797v4.5c0 1.469 0.7812 2.906 2.656 2.906 1.062 0 1.922-0.6406 2.234-1.359h0.03125v1.156h1.719z"/>
</g>
<g id="by">
<path d="m6.188-6.312c-0.5781-0.7344-1.656-1.094-2.688-1.094-1.438 0-2.875 0.6875-2.875 2.297 0 1.344 1.062 1.781 2.141 2.031 1.094 0.2656 1.641 0.4375 1.641 1.031 0 0.6562-0.625 0.8594-1.156 0.8594-0.7812 0-1.453-0.3906-1.844-0.8906l-1.188 1.109c0.7031 0.7656 1.844 1.172 2.969 1.172 1.562 0 3-0.6406 3-2.391 0-1.406-1.266-1.891-2.328-2.141-1.016-0.25-1.562-0.3906-1.562-0.9531s0.5781-0.7812 1.156-0.7812c0.6562 0 1.25 0.3594 1.578 0.7812z"/>
</g>
<g id="bx">
<path d="m1.078-7.203v10.8h1.797v-4.547h0.03125c0.4688 0.7188 1.391 1.156 2.391 1.156 2.188 0 3.531-1.734 3.531-3.828 0-2.141-1.438-3.781-3.484-3.781-1.328 0-2.141 0.6406-2.5 1.219h-0.03125v-1.016zm5.922 3.578c0 1.125-0.6719 2.328-2.062 2.328-1.328 0-2.125-1.172-2.125-2.297s0.7969-2.344 2.125-2.344c1.391 0 2.062 1.188 2.062 2.312z"/>
</g>
<g id="bw">
<path d="m2.453-4.312c0.07812-1.016 0.9375-1.75 2-1.75 1.172 0 1.703 0.8125 1.703 1.75zm5.5 0.7969c0-2.594-1.469-3.891-3.484-3.891-2.172 0-3.812 1.531-3.812 3.844 0 2.344 1.656 3.766 3.875 3.766 1.359 0 2.391-0.4688 3.094-1.438l-1.203-0.9531c-0.4062 0.5625-1 0.9219-1.906 0.9219-1.047 0-1.984-0.75-2.062-1.766h5.484c0.01562-0.1562 0.01562-0.3125 0.01562-0.4844z"/>
</g>
<g id="bv">
<path d="m7.234-6.281c-0.5781-0.7031-1.672-1.125-2.719-1.125-2.109 0-3.859 1.469-3.859 3.812 0 2.391 1.781 3.797 3.906 3.797 1.062 0 2.047-0.3594 2.656-1l-1.125-1.141c-0.3438 0.4219-0.9688 0.6406-1.516 0.6406-1.375 0-2.047-1.172-2.047-2.297s0.6562-2.312 1.984-2.312c0.5781 0 1.203 0.2969 1.484 0.7031z"/>
</g>
<g id="bu">
<path d="m1.312-5.766v3.359c0 1.391 0.4219 2.562 2.328 2.562 0.4062 0 0.8906-0.07812 1.203-0.2031l-0.0625-1.406c-0.2031 0.1094-0.5156 0.1406-0.7656 0.1406-0.7969 0-0.9375-0.4531-0.9375-1.109v-3.344h1.797v-1.438h-1.797v-2.078h-1.766v2.078h-1.266v1.438z"/>
</g>
<g id="bt">
<path d="m1.172 0h1.891v-4.391h1.453c2.25 0 4.125-0.8125 4.125-3.156 0-2.219-1.578-3.078-4-3.078h-3.469zm1.891-5.984v-3.047h1.375c1.172 0 2.297 0.2188 2.297 1.484s-1.125 1.562-2.359 1.562z"/>
</g>
<g id="bs">
<path d="m1.172 0h1.891v-4.703h4.969v4.703h1.891v-10.62h-1.891v4.297h-4.969v-4.297h-1.891z"/>
</g>
<g id="br">
<path d="m4.922-3.141v-0.3906c0-0.8594 0.2031-1.125 0.9844-1.812 0.9375-0.8125 1.5-1.375 1.5-2.656 0-1.891-1.469-2.891-3.188-2.891-1.844 0-3.281 1.125-3.5 3.031l1.844 0.1719c0.03125-0.8125 0.6094-1.562 1.531-1.562 0.8906 0 1.406 0.5938 1.406 1.375 0 0.5938-0.3125 0.9844-0.6875 1.328l-0.6719 0.6562c-0.75 0.7188-0.9844 1.219-0.9844 2.188v0.5625zm-2.078 2.094c0 0.6406 0.5781 1.141 1.203 1.141 0.6562 0 1.203-0.5312 1.203-1.172s-0.5625-1.141-1.203-1.141c-0.6562 0-1.203 0.5312-1.203 1.172z"/>
</g>
<g id="bq">
<path d="m1.094 0h1.672v-7.969h0.03125l2.969 7.969h1.234l3.016-7.969h0.01562v7.969h1.75v-9.906h-2.766l-2.547 7.031h-0.04688l-2.578-7.031h-2.75z"/>
</g>
<g id="k">
<path d="m0.6094-3.391c0 2.109 1.625 3.594 3.656 3.594s3.656-1.484 3.656-3.594-1.625-3.531-3.656-3.531-3.656 1.422-3.656 3.531zm1.719 0c0-1.047 0.6094-2.156 1.938-2.156s1.953 1.109 1.953 2.156-0.625 2.188-1.953 2.188-1.938-1.141-1.938-2.188z"/>
</g>
<g id="a">
<path d="m5.781-5.891c-0.5469-0.6875-1.547-1.031-2.516-1.031-1.328 0-2.672 0.6562-2.672 2.141 0 1.266 0.9844 1.672 1.984 1.906 1.016 0.25 1.531 0.4062 1.531 0.9688 0 0.6094-0.5781 0.7969-1.078 0.7969-0.7188 0-1.344-0.3594-1.719-0.8438l-1.109 1.047c0.6562 0.7031 1.734 1.109 2.766 1.109 1.469 0 2.797-0.6094 2.797-2.25 0-1.312-1.172-1.766-2.172-2-0.9375-0.2188-1.453-0.3594-1.453-0.875 0-0.5312 0.5469-0.7344 1.078-0.7344 0.625 0 1.172 0.3438 1.469 0.7344z"/>
</g>
<g id="c">
<path d="m1.219-5.375v3.141c0 1.281 0.4062 2.375 2.188 2.375 0.375 0 0.8281-0.07812 1.109-0.1875l-0.04688-1.312c-0.2031 0.09375-0.5 0.1406-0.7188 0.1406-0.7344 0-0.875-0.4375-0.875-1.031v-3.125h1.672v-1.344h-1.672v-1.953h-1.656v1.953h-1.172v1.344z"/>
</g>
<g id="m">
<path d="m1.031 0h1.688v-10.58h-1.688z"/>
</g>
<g id="i">
<path d="m1.031 0h1.688v-6.719h-1.688zm-0.2344-9c0 0.5312 0.4531 1 1.062 1 0.625 0 1.094-0.4219 1.094-1s-0.4688-1.016-1.094-1.016c-0.6094 0-1.062 0.4844-1.062 1.016z"/>
</g>
<g id="ar">
<path d="m1.031 0h1.688v-3.438h0.04688l2.656 3.438h2.219l-3.094-3.688 2.922-3.031h-2.156l-2.547 2.828h-0.04688v-6.688h-1.688z"/>
</g>
<g id="b">
<path d="m2.297-4.031c0.0625-0.9375 0.8594-1.625 1.859-1.625 1.094 0 1.578 0.75 1.578 1.625zm5.125 0.75c0-2.422-1.375-3.641-3.25-3.641-2.031 0-3.562 1.438-3.562 3.609s1.547 3.516 3.625 3.516c1.266 0 2.219-0.4531 2.875-1.344l-1.125-0.9062c-0.375 0.5312-0.9375 0.875-1.766 0.875-0.9844 0-1.859-0.7031-1.922-1.656h5.109c0.01562-0.1562 0.01562-0.2969 0.01562-0.4531z"/>
</g>
<g id="y">
<path d="m2.891 0-0.3438 0.8594c-0.2812 0.6875-0.4688 1.047-1.188 1.047-0.1875 0-0.4062-0.03125-0.625-0.09375l-0.1406 1.453c0.2812 0.0625 0.5781 0.09375 0.8594 0.09375 1.484 0 2.078-0.7031 2.547-1.922l3.188-8.156h-1.75l-1.672 4.891h-0.03125l-1.875-4.891h-1.859z"/>
</g>
<g id="ak">
<path d="m4.75-6.922c-1 0-1.734 0.5781-2 1.141h-0.03125v-4.797h-1.688v10.58h1.688v-3.672c0-0.8906 0.5156-1.797 1.578-1.797 1.078 0 1.25 0.9688 1.25 1.766v3.703h1.672v-4.203c0-1.375-0.7188-2.719-2.469-2.719z"/>
</g>
<g id="e">
<path d="m5.188 0h1.562v-4.094c0-1.344-0.5938-2.828-3-2.828-1.016 0-2.078 0.375-2.844 1.062l0.875 1.031c0.4375-0.4375 1.109-0.7656 1.828-0.7656 0.8438 0 1.547 0.4062 1.547 1.219v0.1719c-2.109 0-4.625 0.2812-4.625 2.281 0 1.578 1.438 2.094 2.516 2.094 0.9531 0 1.75-0.4375 2.094-1.031h0.04688zm-0.03125-2.828c0 1.062-0.625 1.719-1.766 1.719-0.5781 0-1.172-0.1875-1.172-0.8438 0-0.9844 1.484-1.109 2.562-1.109h0.375z"/>
</g>
<g id="d">
<path d="m1.016 0h1.672v-3.594c0-0.5 0.2969-1.812 1.812-1.812 0.1406 0 0.2812 0.01562 0.5156 0.07812v-1.547c-0.1094-0.03125-0.2812-0.04688-0.4062-0.04688-0.8906 0-1.594 0.5469-1.969 1.328h-0.01562v-1.125h-1.609z"/>
</g>
<g id="w">
<path d="m7.141-6.719h-1.688v3.688c0 0.9062-0.5 1.828-1.562 1.828-1.078 0-1.266-1-1.266-1.797v-3.719h-1.672v4.203c0 1.375 0.7344 2.719 2.484 2.719 0.9844 0 1.781-0.6094 2.078-1.281h0.03125v1.078h1.594z"/>
</g>
<g id="j">
<path d="m1.016 0h1.672v-3.703c0-0.8906 0.5-1.812 1.562-1.812 1.078 0 1.266 1 1.266 1.797v3.719h1.688v-4.203c0-1.375-0.7344-2.719-2.484-2.719-1 0-1.797 0.6094-2.094 1.281h-0.01562v-1.078h-1.594z"/>
</g>
<g id="v">
<path d="m6.25-6.719v1h-0.03125c-0.5-0.8125-1.375-1.203-2.312-1.203-2.031 0-3.297 1.594-3.297 3.531 0 1.906 1.312 3.5 3.328 3.5 0.9219 0 1.703-0.3438 2.188-1h0.03125v0.4844c0 1.328-0.5 2.312-2.125 2.312-0.8438 0-1.703-0.3438-2.344-0.9531l-0.9688 1.297c0.8594 0.7188 2.234 1.109 3.328 1.109 2.609 0 3.797-1.547 3.797-3.969v-6.109zm-2 1.172c1.219 0 2 0.9844 2 2.141 0 1.125-0.7656 2.125-2.016 2.125-1.203 0-1.906-1.062-1.906-2.125 0-1.188 0.7031-2.141 1.922-2.141z"/>
</g>
<g id="ax">
<path d="m4.594-2.922v-0.375c0-0.8125 0.1875-1.047 0.9219-1.688 0.875-0.75 1.406-1.281 1.406-2.484 0-1.75-1.375-2.688-2.984-2.688-1.719 0-3.062 1.047-3.266 2.812l1.719 0.1562c0.03125-0.75 0.5625-1.453 1.438-1.453 0.8125 0 1.312 0.5625 1.312 1.297 0 0.5469-0.2969 0.9219-0.6406 1.234l-0.6406 0.6094c-0.7031 0.6719-0.9219 1.141-0.9219 2.047v0.5312zm-1.938 1.938c0 0.6094 0.5312 1.062 1.125 1.062 0.6094 0 1.125-0.4844 1.125-1.094 0-0.5938-0.5312-1.062-1.125-1.062-0.625 0-1.125 0.5-1.125 1.094z"/>
</g>
<g id="bp">
<path d="m1.094 0h5.969v-1.562h-4.203v-8.344h-1.766z"/>
</g>
<g id="aw">
<path d="m9.031-6.922c-1.016 0-1.766 0.4688-2.219 1.281-0.375-0.75-1.062-1.281-2.094-1.281-1.078 0-1.797 0.625-2.094 1.281h-0.01562v-1.078h-1.594v6.719h1.672v-3.703c0-0.8906 0.4688-1.812 1.469-1.812 0.8594 0 1.25 0.625 1.25 1.453v4.062h1.672v-3.672c0-0.8594 0.4375-1.844 1.484-1.844 1.078 0 1.266 1 1.266 1.797v3.719h1.688v-4.203c0-1.375-0.7344-2.719-2.484-2.719z"/>
</g>
<g id="aj">
<path d="m1.094 0h1.766v-4.203h1.281l2.297 4.203h2.125l-2.641-4.391c1.391-0.3125 2.266-1.25 2.266-2.672 0-2.109-1.797-2.844-3.656-2.844h-3.438zm1.766-5.641v-2.781h1.594c0.9062 0 1.969 0.2656 1.969 1.344 0 1.203-1.125 1.438-2.125 1.438z"/>
</g>
<g id="av">
<path d="m1.094 0h6.812v-1.562h-5.047v-2.812h4.547v-1.484h-4.547v-2.516h4.797v-1.531h-6.562z"/>
</g>
<g id="au">
<path d="m2.719 0h1.797l2.672-6.719h-1.781l-1.781 4.906h-0.03125l-1.766-4.906h-1.828z"/>
</g>
<g id="z">
<path d="m1.281 0h1.672v-5.375h1.562v-1.344h-1.562v-1.094c0-0.6719 0.1719-1.516 1.141-1.516 0.2344 0 0.4531 0.04688 0.6406 0.1094l0.1094-1.438c-0.25-0.0625-0.4844-0.09375-0.8594-0.09375-2.078 0-2.703 1.422-2.703 3.031v1h-1.281v1.344h1.281z"/>
</g>
<g id="ai">
<path d="m9.594-8.656c-0.7812-1.031-2.312-1.5-3.609-1.5-3.047 0-5.375 2-5.375 5.172 0 3.094 2.203 5.234 5.297 5.234 1.688 0 2.969-0.6406 3.844-1.734l-1.422-1c-0.5 0.6875-1.344 1.156-2.406 1.156-2.047 0-3.359-1.5-3.359-3.656 0-2.047 1.391-3.625 3.422-3.625 0.8125 0 1.75 0.3125 2.266 1.016z"/>
</g>
<g id="bo">
<path d="m3.094 0h1.766v-8.375h3.031v-1.531h-7.828v1.531h3.031z"/>
</g>
<g id="u">
<path d="m1.094 0h1.766v-4.109h1.359c2.094 0 3.844-0.75 3.844-2.938 0-2.062-1.469-2.859-3.734-2.859h-3.234zm1.766-5.594v-2.828h1.281c1.094 0 2.141 0.2031 2.141 1.375 0 1.188-1.047 1.453-2.188 1.453z"/>
</g>
<g id="t">
<path d="m1.094 0h1.766v-4.391h4.625v4.391h1.766v-9.906h-1.766v4h-4.625v-4h-1.766z"/>
</g>
<g id="ah">
<path d="m7.844-10.58h-1.688v4.719h-0.03125c-0.3594-0.4375-1.031-1.062-2.266-1.062-1.906 0-3.25 1.547-3.25 3.531 0 1.969 1.25 3.594 3.297 3.594 0.9375 0 1.844-0.4375 2.312-1.219h0.03125v1.016h1.594zm-5.531 7.188c0-1.047 0.625-2.156 1.922-2.156 1.234 0 1.984 1.141 1.984 2.188s-0.75 2.156-1.984 2.156c-1.297 0-1.922-1.141-1.922-2.188z"/>
</g>
<g id="ag">
<path d="m-0.1094 0h1.969l0.9062-2.266h4.297l0.9219 2.266h2.016l-4.281-9.906h-1.516zm3.469-3.781 1.547-4.031 1.531 4.031z"/>
</g>
<g id="s">
<path d="m6.75-5.859c-0.5312-0.6719-1.562-1.062-2.531-1.062-1.984 0-3.609 1.375-3.609 3.562 0 2.234 1.656 3.562 3.641 3.562 1 0 1.922-0.3438 2.484-0.9375l-1.047-1.078c-0.3281 0.4062-0.9062 0.6094-1.422 0.6094-1.266 0-1.906-1.109-1.906-2.156s0.625-2.156 1.859-2.156c0.5469 0 1.109 0.2812 1.375 0.6562z"/>
</g>
<g id="bn">
<path d="m2.984 0h1.703l2.328-7.438h0.03125l2.312 7.438h1.719l2.891-9.906h-1.875l-1.953 7.281h-0.03125l-2.141-7.281h-1.828l-2.172 7.281h-0.03125l-1.922-7.281h-1.938z"/>
</g>
<g id="bm">
<path d="m7.297-9.094c-0.7656-0.7188-1.891-1.062-2.891-1.062-1.781 0-3.625 0.8906-3.625 2.906 0 1.844 1.312 2.438 2.516 2.812 1.234 0.3906 2.281 0.6875 2.281 1.719 0 1.062-0.9688 1.469-1.797 1.469-0.7812 0-1.688-0.4219-2.172-1.094l-1.266 1.188c0.7969 0.9219 2.125 1.406 3.406 1.406 1.953 0 3.609-1.031 3.609-3.156 0-1.953-1.625-2.516-2.891-2.906-1.125-0.3438-1.891-0.6094-1.891-1.531 0-0.9531 0.9375-1.344 1.75-1.344 0.7031 0 1.438 0.3594 1.812 0.8438z"/>
</g>
<g id="at">
<path d="m1.016-6.719v10.08h1.672v-4.25h0.03125c0.4375 0.6719 1.281 1.094 2.219 1.094 2.047 0 3.312-1.625 3.312-3.594 0-1.984-1.344-3.531-3.266-3.531-1.234 0-1.984 0.6094-2.328 1.141h-0.03125v-0.9375zm5.516 3.328c0 1.047-0.625 2.188-1.922 2.188-1.234 0-1.984-1.109-1.984-2.156s0.75-2.188 1.984-2.188c1.297 0 1.922 1.109 1.922 2.156z"/>
</g>
<g id="as">
<path d="m0.3438 1.766h1.406l1.188-3.703h-1.625z"/>
</g>
<g id="bl">
<path d="m2.391 0h1.719l1.5-4.703h0.03125l1.531 4.703h1.703l2.328-6.719h-1.75l-1.438 4.812h-0.01562l-1.469-4.812h-1.781l-1.453 4.812h-0.01562l-1.406-4.812h-1.812z"/>
</g>
<g id="bk">
<path d="m0.9844-0.9844c0 0.6094 0.5312 1.062 1.109 1.062 0.625 0 1.125-0.4844 1.125-1.094 0-0.5938-0.5156-1.062-1.125-1.062s-1.109 0.5-1.109 1.094zm0-4.734c0 0.6094 0.5312 1.078 1.109 1.078 0.625 0 1.125-0.5 1.125-1.094 0-0.6094-0.5156-1.062-1.125-1.062s-1.109 0.4844-1.109 1.078z"/>
</g>
<g id="bj">
<path d="m-0.01562 0h1.984l1.766-2.453 1.75 2.453h2.047l-2.75-3.562 2.422-3.156h-1.938l-1.5 2.078-1.453-2.078h-2.016l2.422 3.156z"/>
</g>
</defs>
<path d="m1045 491.2h-1045v-491.2h1045v491.2" fill="#fff"/>
<path d="m205.9 480.5h-191.9v-471.7h191.9v471.7" fill="#fae2d3"/>
<path transform="matrix(.1 0 0 -.1 0 491.2)" d="m2059 106.7h-1919v4717h1919z" fill="none" stroke="#7e81a5" stroke-miterlimit="10" stroke-width="10"/>
<path d="m612.7 480.5h-406.8v-471.6h406.8v471.6" fill="#e2eef9"/>
<path transform="matrix(.1 0 0 -.1 0 491.2)" d="m6127 106.7h-4068v4716h4068z" fill="none" stroke="#7e81a5" stroke-miterlimit="10" stroke-width="10"/>
<path d="m1031 480.5h-418.7v-471.7h418.7v471.7" fill="#e2f3d2"/>
<path transform="matrix(.1 0 0 -.1 0 491.2)" d="m10313 106.7h-4187v4717h4187z" fill="none" stroke="#7e81a5" stroke-miterlimit="10" stroke-width="10"/>
<path d="m44.93 259.4c0 29.62 24.01 53.64 53.63 53.64s53.64-24.02 53.64-53.64-24.02-53.64-53.64-53.64-53.63 24.02-53.63 53.64" fill="#2d64af"/>
<path d="m233 118.1c0 29.62 24.01 53.63 53.63 53.63 29.62 0 53.64-24.01 53.64-53.63 0-29.62-24.01-53.64-53.64-53.64-29.62 0-53.63 24.02-53.63 53.64" fill="#2d64af"/>
<path d="m393.9 116.5c0 29.62 24.01 53.63 53.63 53.63 29.62 0 53.64-24.01 53.64-53.63 0-29.62-24.02-53.64-53.64-53.64-29.62 0-53.63 24.01-53.63 53.64" fill="#2d64af"/>
<path d="m720.1 114.7c0 29.62 24.01 53.64 53.63 53.64 29.62 0 53.64-24.02 53.64-53.64 0-29.62-24.02-53.63-53.64-53.63-29.62 0-53.63 24.01-53.63 53.63" fill="#2d64af"/>
<path d="m721 260.1c0 29.62 24.02 53.64 53.64 53.64 29.62 0 53.63-24.02 53.63-53.64s-24.01-53.64-53.63-53.64c-29.62 0-53.64 24.02-53.64 53.64" fill="#2d64af"/>
<path d="m878 113.6c0 29.62 24.01 53.64 53.64 53.64 29.62 0 53.63-24.02 53.63-53.64s-24.01-53.64-53.63-53.64c-29.62 0-53.64 24.02-53.64 53.64" fill="#2d64af"/>
<path d="m880.4 260.4c0 29.62 24.01 53.63 53.63 53.63s53.64-24.01 53.64-53.63-24.02-53.64-53.64-53.64-53.63 24.02-53.63 53.64" fill="#2d64af"/>
<path d="m756.1 404.4c0 29.62 24.01 53.64 53.63 53.64 29.62 0 53.64-24.02 53.64-53.64s-24.01-53.64-53.64-53.64c-29.62 0-53.63 24.02-53.63 53.64" fill="#2d64af"/>
<path d="m886.5 404.4c0 29.62 24.02 53.64 53.64 53.64s53.63-24.02 53.63-53.64-24.01-53.64-53.63-53.64-53.64 24.02-53.64 53.64" fill="#2d64af"/>
<path d="m393.9 260.8c0 29.62 24.01 53.63 53.63 53.63 29.62 0 53.64-24.01 53.64-53.63s-24.02-53.64-53.64-53.64c-29.62 0-53.63 24.02-53.63 53.64" fill="#2d64af"/>
<path d="m396.7 400.6c0 29.62 24.01 53.63 53.63 53.63s53.64-24.01 53.64-53.63c0-29.62-24.02-53.64-53.64-53.64s-53.63 24.02-53.63 53.64" fill="#2d64af"/>
<path d="m556.5 261.5c0 29.62 24.02 53.64 53.64 53.64s53.63-24.02 53.63-53.64c0-29.62-24.01-53.63-53.63-53.63s-53.64 24.01-53.64 53.63" fill="#2d64af"/>
<path d="m228.5 260.8c0 29.62 24.01 53.63 53.63 53.63 29.62 0 53.64-24.01 53.64-53.63s-24.01-53.64-53.64-53.64c-29.62 0-53.63 24.02-53.63 53.64" fill="#2d64af"/>
<path d="m200.3 261.9c-4.441-1.375-9.953-3.727-13.37-6.215l2.258 5.215h-38.29v2h38.29l-2.258 5.219c3.418-2.488 8.93-4.84 13.37-6.219" fill="#2d64af"/>
<path d="m388.7 116.6c-4.441-1.379-9.953-3.73-13.37-6.219l2.258 5.219h-38.29v2h38.29l-2.258 5.215c3.418-2.488 8.93-4.84 13.37-6.215" fill="#2d64af"/>
<path d="m385.1 260.8c-4.441-1.379-9.953-3.73-13.37-6.219l2.258 5.219h-38.29v2h38.29l-2.258 5.215c3.418-2.488 8.93-4.84 13.37-6.215" fill="#2d64af"/>
<path d="m889.9 222.2c-2.445-3.957-5.059-9.348-6.004-13.47l-1.723 5.418-68.88-64.14-1.312 1.508 68.88 64.14-5.129 2.453c4.211 0.3672 9.914 2.211 14.17 4.09" fill="#2d64af"/>
<path d="m841 356.1c3.918-2.512 9.266-5.211 13.37-6.219l-5.441-1.637 48.67-50.28-1.527-1.289-48.68 50.28-2.535-5.086c-0.2969 4.215-2.051 9.945-3.863 14.23" fill="#2d64af"/>
<path d="m712.3 260.8c-4.441-1.379-9.953-3.73-13.37-6.219l2.254 5.219h-38.29v2h38.29l-2.254 5.215c3.414-2.488 8.926-4.84 13.37-6.215" fill="#2d64af"/>
<path d="m876.8 259.4c-4.445-1.379-9.953-3.73-13.37-6.219l2.254 5.219h-38.29v2h38.29l-2.254 5.219c3.418-2.488 8.926-4.844 13.37-6.219" fill="#2d64af"/>
<path d="m551.1 261.3c-4.441-1.379-9.953-3.73-13.37-6.219l2.258 5.219h-38.29v2h38.29l-2.258 5.215c3.418-2.488 8.93-4.84 13.37-6.215" fill="#2d64af"/>
<path d="m285.3 175.5c-1.375 4.445-3.727 9.953-6.215 13.37l5.215-2.258v21.29h2v-21.29l5.219 2.258c-2.488-3.418-4.84-8.926-6.219-13.37" fill="#2d64af"/>
<path d="m775.7 173.5c-1.375 4.445-3.727 9.953-6.215 13.37l5.215-2.258v21.29h2v-21.29l5.219 2.258c-2.488-3.418-4.84-8.926-6.219-13.37" fill="#2d64af"/>
<path d="m933.9 174.2c-1.375 4.445-3.727 9.953-6.215 13.37l5.215-2.254v21.29h2v-21.29l5.219 2.254c-2.488-3.418-4.84-8.926-6.219-13.37" fill="#2d64af"/>
<path d="m934.1 345.6c1.379-4.445 3.727-9.953 6.215-13.37l-5.215 2.254v-21.29h-2v21.29l-5.215-2.254c2.488 3.418 4.84 8.926 6.215 13.37" fill="#2d64af"/>
<path d="m450.3 201.8c1.379-4.441 3.73-9.953 6.219-13.37l-5.219 2.254v-21.29h-2v21.29l-5.215-2.254c2.488 3.414 4.84 8.926 6.215 13.37" fill="#2d64af"/>
<path d="m450.3 345.6c1.379-4.445 3.73-9.953 6.219-13.37l-5.219 2.254v-21.29h-2v21.29l-5.215-2.254c2.488 3.418 4.84 8.926 6.215 13.37" fill="#2d64af"/>
<g fill="#201c1c">
<use x="69.0023" y="33.813" xlink:href="#cr"/>
<use x="77.8673" y="33.813" xlink:href="#cq"/>
<use x="87.0773" y="33.813" xlink:href="#ck"/>
<use x="94.1573" y="33.813" xlink:href="#cj"/>
<use x="104.0123" y="33.813" xlink:href="#af"/>
<use x="108.4523" y="33.813" xlink:href="#bi"/>
<use x="115.9973" y="33.813" xlink:href="#af"/>
<use x="120.4373" y="33.813" xlink:href="#ae"/>
<use x="129.9173" y="33.813" xlink:href="#ad"/>
<use x="375.6008" y="33.813" xlink:href="#ci"/>
<use x="387.2108" y="33.813" xlink:href="#bh"/>
<use x="396.1508" y="33.813" xlink:href="#aq"/>
<use x="401.7308" y="33.813" xlink:href="#bh"/>
<use x="410.6708" y="33.813" xlink:href="#bi"/>
<use x="418.2158" y="33.813" xlink:href="#aq"/>
<use x="423.7958" y="33.813" xlink:href="#af"/>
<use x="428.2358" y="33.813" xlink:href="#ae"/>
<use x="437.7158" y="33.813" xlink:href="#ad"/>
<use x="297.6253" y="194.473" xlink:href="#bg"/>
<use x="304.086733" y="194.473" xlink:href="#bf"/>
<use x="311.626781" y="194.473" xlink:href="#x"/>
<use x="319.16634" y="194.473" xlink:href="#am"/>
<use x="341.4554" y="286.7519" xlink:href="#al"/>
<use x="351.036448" y="286.7519" xlink:href="#f"/>
<use x="358.394371" y="286.7519" xlink:href="#n"/>
<use x="365.517906" y="286.7519" xlink:href="#o"/>
<use x="370.068192" y="286.7519" xlink:href="#l"/>
</g>
<g fill="#fff">
<use x="71.3918" y="255.019" xlink:href="#ca"/>
<use x="79.971881" y="255.019" xlink:href="#bz"/>
<use x="88.671595" y="255.019" xlink:href="#by"/>
<use x="95.301474" y="255.019" xlink:href="#bx"/>
<use x="104.766323" y="255.019" xlink:href="#bw"/>
<use x="113.346403" y="255.019" xlink:href="#bv"/>
<use x="120.635959" y="255.019" xlink:href="#bu"/>
<use x="84.584" y="273.019" xlink:href="#bt"/>
<use x="93.704117" y="273.019" xlink:href="#bs"/>
<use x="104.758819" y="273.019" xlink:href="#br"/>
<use x="247.443" y="253.6936" xlink:href="#bq"/>
<use x="260.295095" y="253.6936" xlink:href="#k"/>
<use x="268.806823" y="253.6936" xlink:href="#a"/>
<use x="274.994823" y="253.6936" xlink:href="#c"/>
<use x="279.726747" y="253.6936" xlink:href="#glyph-3-4"/>
<use x="283.198427" y="253.6936" xlink:href="#m"/>
<use x="286.922546" y="253.6936" xlink:href="#i"/>
<use x="290.646665" y="253.6936" xlink:href="#ar"/>
<use x="297.968441" y="253.6936" xlink:href="#b"/>
<use x="305.976243" y="253.6936" xlink:href="#m"/>
<use x="309.700362" y="253.6936" xlink:href="#y"/>
<use x="237.1879" y="270.4936" xlink:href="#ak"/>
<use x="245.335848" y="270.4936" xlink:href="#b"/>
<use x="253.259177" y="270.4936" xlink:href="#e"/>
<use x="260.931052" y="270.4936" xlink:href="#d"/>
<use x="265.831447" y="270.4936" xlink:href="#c"/>
<use x="270.562883" y="270.4936" xlink:href="#glyph-3-4"/>
<use x="274.035051" y="270.4936" xlink:href="#k"/>
<use x="282.546804" y="270.4936" xlink:href="#d"/>
<use x="287.614654" y="270.4936" xlink:href="#glyph-3-4"/>
<use x="291.086847" y="270.4936" xlink:href="#m"/>
<use x="294.810966" y="270.4936" xlink:href="#w"/>
<use x="302.930596" y="270.4936" xlink:href="#j"/>
<use x="311.050716" y="270.4936" xlink:href="#v"/>
<use x="319.870542" y="270.4936" xlink:href="#ax"/>
<use x="270.6199" y="110.9796" xlink:href="#bp"/>
<use x="277.5779" y="110.9796" xlink:href="#w"/>
<use x="285.697531" y="110.9796" xlink:href="#j"/>
<use x="293.81765" y="110.9796" xlink:href="#v"/>
<use x="249.7672" y="127.7784" xlink:href="#e"/>
<use x="257.439075" y="127.7784" xlink:href="#a"/>
<use x="263.626584" y="127.7784" xlink:href="#a"/>
<use x="269.814584" y="127.7784" xlink:href="#b"/>
<use x="277.822385" y="127.7784" xlink:href="#a"/>
<use x="284.009894" y="127.7784" xlink:href="#a"/>
<use x="290.197894" y="127.7784" xlink:href="#aw"/>
<use x="302.629989" y="127.7784" xlink:href="#b"/>
<use x="310.637302" y="127.7784" xlink:href="#j"/>
<use x="318.757422" y="127.7784" xlink:href="#c"/>
<use x="422.1312" y="403.8064" xlink:href="#aj"/>
<use x="430.741546" y="403.8064" xlink:href="#b"/>
<use x="438.664899" y="403.8064" xlink:href="#e"/>
<use x="446.336774" y="403.8064" xlink:href="#a"/>
<use x="452.524747" y="403.8064" xlink:href="#a"/>
<use x="458.712231" y="403.8064" xlink:href="#b"/>
<use x="466.720057" y="403.8064" xlink:href="#a"/>
<use x="472.90803" y="403.8064" xlink:href="#a"/>
<use x="745.8622" y="235.7054" xlink:href="#cb"/>
<use x="754.325077" y="235.7054" xlink:href="#ap"/>
<use x="759.356344" y="235.7054" xlink:href="#ch"/>
<use x="770.405684" y="235.7054" xlink:href="#glyph-1-12"/>
<use x="773.629805" y="235.7054" xlink:href="#r"/>
<use x="779.375878" y="235.7054" xlink:href="#be"/>
<use x="785.693754" y="235.7054" xlink:href="#n"/>
<use x="792.81729" y="235.7054" xlink:href="#x"/>
<use x="800.357313" y="235.7054" xlink:href="#cg"/>
<use x="732.413" y="251.3054" xlink:href="#glyph-1-12"/>
<use x="735.637121" y="251.3054" xlink:href="#h"/>
<use x="739.095144" y="251.3054" xlink:href="#x"/>
<use x="746.63468" y="251.3054" xlink:href="#l"/>
<use x="751.028703" y="251.3054" xlink:href="#f"/>
<use x="758.464726" y="251.3054" xlink:href="#o"/>
<use x="763.170799" y="251.3054" xlink:href="#ac"/>
<use x="774.714285" y="251.3054" xlink:href="#f"/>
<use x="782.150308" y="251.3054" xlink:href="#ab"/>
<use x="790.366137" y="251.3054" xlink:href="#h"/>
<use x="793.82416" y="251.3054" xlink:href="#n"/>
<use x="800.817813" y="251.3054" xlink:href="#l"/>
<use x="805.211836" y="251.3054" xlink:href="#f"/>
<use x="812.64786" y="251.3054" xlink:href="#ap"/>
<use x="761.656" y="266.9054" xlink:href="#q"/>
<use x="769.221926" y="266.9054" xlink:href="#h"/>
<use x="772.679949" y="266.9054" xlink:href="#am"/>
<use x="780.869387" y="266.9054" xlink:href="#q"/>
<use x="788.435312" y="266.9054" xlink:href="#glyph-1-12"/>
<use x="742.2611" y="282.5054" xlink:href="#bd"/>
<use x="750.464221" y="282.5054" xlink:href="#o"/>
<use x="754.936407" y="282.5054" xlink:href="#g"/>
<use x="762.839747" y="282.5054" xlink:href="#bc"/>
<use x="771.06877" y="282.5054" xlink:href="#n"/>
<use x="778.192794" y="282.5054" xlink:href="#bc"/>
<use x="786.421817" y="282.5054" xlink:href="#h"/>
<use x="789.879352" y="282.5054" xlink:href="#p"/>
<use x="793.337376" y="282.5054" xlink:href="#h"/>
<use x="796.795399" y="282.5054" xlink:href="#l"/>
<use x="801.189422" y="282.5054" xlink:href="#bb"/>
<use x="807.832006" y="282.5054" xlink:href="#glyph-1-12"/>
<use x="753.772" y="298.1054" xlink:href="#aa"/>
<use x="757.958023" y="298.1054" xlink:href="#g"/>
<use x="765.861852" y="298.1054" xlink:href="#o"/>
<use x="770.567436" y="298.1054" xlink:href="#glyph-1-12"/>
<use x="773.791557" y="298.1054" xlink:href="#ao"/>
<use x="781.695385" y="298.1054" xlink:href="#cf"/>
<use x="789.599213" y="298.1054" xlink:href="#ba"/>
<use x="734.4001" y="110.8784" xlink:href="#av"/>
<use x="742.744348" y="110.8784" xlink:href="#au"/>
<use x="749.897686" y="110.8784" xlink:href="#e"/>
<use x="757.569561" y="110.8784" xlink:href="#m"/>
<use x="761.29368" y="110.8784" xlink:href="#w"/>
<use x="769.413311" y="110.8784" xlink:href="#e"/>
<use x="776.945537" y="110.8784" xlink:href="#c"/>
<use x="781.677461" y="110.8784" xlink:href="#b"/>
<use x="789.684799" y="110.8784" xlink:href="#glyph-3-4"/>
<use x="793.156967" y="110.8784" xlink:href="#z"/>
<use x="797.664793" y="110.8784" xlink:href="#k"/>
<use x="806.176034" y="110.8784" xlink:href="#d"/>
<use x="750.3743" y="127.6776" xlink:href="#ai"/>
<use x="760.00663" y="127.6776" xlink:href="#bo"/>
<use x="767.929968" y="127.6776" xlink:href="#av"/>
<use x="776.442185" y="127.6776" xlink:href="#u"/>
<use x="784.954402" y="127.6776" xlink:href="#t"/>
<use x="903.6253" y="97.8104" xlink:href="#ai"/>
<use x="913.173597" y="97.8104" xlink:href="#k"/>
<use x="921.684788" y="97.8104" xlink:href="#j"/>
<use x="929.804858" y="97.8104" xlink:href="#a"/>
<use x="935.992831" y="97.8104" xlink:href="#i"/>
<use x="939.716511" y="97.8104" xlink:href="#ah"/>
<use x="948.564679" y="97.8104" xlink:href="#b"/>
<use x="956.572456" y="97.8104" xlink:href="#d"/>
<use x="898.39639" y="114.6104" xlink:href="#e"/>
<use x="906.068265" y="114.6104" xlink:href="#m"/>
<use x="909.791945" y="114.6104" xlink:href="#c"/>
<use x="914.523917" y="114.6104" xlink:href="#b"/>
<use x="922.531695" y="114.6104" xlink:href="#d"/>
<use x="927.59957" y="114.6104" xlink:href="#j"/>
<use x="935.71964" y="114.6104" xlink:href="#e"/>
<use x="943.251378" y="114.6104" xlink:href="#c"/>
<use x="947.982863" y="114.6104" xlink:href="#i"/>
<use x="951.707031" y="114.6104" xlink:href="#au"/>
<use x="958.860808" y="114.6104" xlink:href="#b"/>
<use x="901.73623" y="131.4104" xlink:href="#ah"/>
<use x="910.584398" y="131.4104" xlink:href="#i"/>
<use x="914.308078" y="131.4104" xlink:href="#e"/>
<use x="921.979953" y="131.4104" xlink:href="#v"/>
<use x="930.79973" y="131.4104" xlink:href="#j"/>
<use x="938.919312" y="131.4104" xlink:href="#k"/>
<use x="947.430992" y="131.4104" xlink:href="#a"/>
<use x="953.618964" y="131.4104" xlink:href="#i"/>
<use x="957.342644" y="131.4104" xlink:href="#a"/>
<use x="781.81223" y="384.2484" xlink:href="#ag"/>
<use x="791.668203" y="384.2484" xlink:href="#j"/>
<use x="799.787834" y="384.2484" xlink:href="#s"/>
<use x="806.59205" y="384.2484" xlink:href="#i"/>
<use x="810.31617" y="384.2484" xlink:href="#m"/>
<use x="814.0398" y="384.2484" xlink:href="#m"/>
<use x="817.763919" y="384.2484" xlink:href="#e"/>
<use x="825.435794" y="384.2484" xlink:href="#d"/>
<use x="830.503669" y="384.2484" xlink:href="#y"/>
<use x="778.47317" y="401.0484" xlink:href="#a"/>
<use x="784.661143" y="401.0484" xlink:href="#c"/>
<use x="789.392578" y="401.0484" xlink:href="#w"/>
<use x="797.512697" y="401.0484" xlink:href="#ah"/>
<use x="806.360865" y="401.0484" xlink:href="#i"/>
<use x="810.084496" y="401.0484" xlink:href="#b"/>
<use x="818.092322" y="401.0484" xlink:href="#a"/>
<use x="824.280295" y="401.0484" xlink:href="#glyph-3-4"/>
<use x="827.751975" y="401.0484" xlink:href="#c"/>
<use x="832.483947" y="401.0484" xlink:href="#k"/>
<use x="764.66927" y="417.8484" xlink:href="#s"/>
<use x="771.473487" y="417.8484" xlink:href="#m"/>
<use x="775.197118" y="417.8484" xlink:href="#e"/>
<use x="782.868993" y="417.8484" xlink:href="#a"/>
<use x="789.056965" y="417.8484" xlink:href="#a"/>
<use x="795.24445" y="417.8484" xlink:href="#i"/>
<use x="798.968569" y="417.8484" xlink:href="#z"/>
<use x="803.476395" y="417.8484" xlink:href="#y"/>
<use x="810.629733" y="417.8484" xlink:href="#glyph-3-4"/>
<use x="813.933932" y="417.8484" xlink:href="#bn"/>
<use x="827.962295" y="417.8484" xlink:href="#bm"/>
<use x="835.969584" y="417.8484" xlink:href="#u"/>
<use x="844.481264" y="417.8484" xlink:href="#t"/>
<use x="790.18337" y="434.6484" xlink:href="#v"/>
<use x="799.003196" y="434.6484" xlink:href="#d"/>
<use x="803.819118" y="434.6484" xlink:href="#k"/>
<use x="812.330846" y="434.6484" xlink:href="#w"/>
<use x="820.450917" y="434.6484" xlink:href="#at"/>
<use x="902.32637" y="397.4296" xlink:href="#aj"/>
<use x="911.104733" y="397.4296" xlink:href="#i"/>
<use x="914.828413" y="397.4296" xlink:href="#a"/>
<use x="921.016386" y="397.4296" xlink:href="#ar"/>
<use x="928.590651" y="397.4296" xlink:href="#glyph-3-4"/>
<use x="932.062331" y="397.4296" xlink:href="#a"/>
<use x="938.250304" y="397.4296" xlink:href="#c"/>
<use x="942.982276" y="397.4296" xlink:href="#d"/>
<use x="947.86851" y="397.4296" xlink:href="#e"/>
<use x="955.400248" y="397.4296" xlink:href="#c"/>
<use x="960.132221" y="397.4296" xlink:href="#i"/>
<use x="963.855901" y="397.4296" xlink:href="#z"/>
<use x="968.363678" y="397.4296" xlink:href="#y"/>
<use x="975.013549" y="397.4296" xlink:href="#as"/>
<use x="978.205405" y="397.4296" xlink:href="#glyph-3-4"/>
<use x="895.48028" y="414.2296" xlink:href="#c"/>
<use x="900.212253" y="414.2296" xlink:href="#d"/>
<use x="905.028174" y="414.2296" xlink:href="#b"/>
<use x="912.951967" y="414.2296" xlink:href="#e"/>
<use x="920.484194" y="414.2296" xlink:href="#c"/>
<use x="925.215678" y="414.2296" xlink:href="#as"/>
<use x="928.408023" y="414.2296" xlink:href="#glyph-3-4"/>
<use x="931.880191" y="414.2296" xlink:href="#d"/>
<use x="936.696112" y="414.2296" xlink:href="#b"/>
<use x="944.619905" y="414.2296" xlink:href="#e"/>
<use x="952.29178" y="414.2296" xlink:href="#a"/>
<use x="958.479265" y="414.2296" xlink:href="#a"/>
<use x="964.667237" y="414.2296" xlink:href="#b"/>
<use x="972.675015" y="414.2296" xlink:href="#a"/>
<use x="978.862499" y="414.2296" xlink:href="#a"/>
<use x="898.68536" y="259.3796" xlink:href="#u"/>
<use x="906.357685" y="259.3796" xlink:href="#ag"/>
<use x="915.961216" y="259.3796" xlink:href="#ai"/>
<use x="925.677481" y="259.3796" xlink:href="#glyph-3-4"/>
<use x="929.149649" y="259.3796" xlink:href="#a"/>
<use x="935.337134" y="259.3796" xlink:href="#ak"/>
<use x="943.485106" y="259.3796" xlink:href="#k"/>
<use x="951.997274" y="259.3796" xlink:href="#bl"/>
<use x="963.224856" y="259.3796" xlink:href="#a"/>
<use x="916.50726" y="276.1796" xlink:href="#u"/>
<use x="924.179096" y="276.1796" xlink:href="#ag"/>
<use x="934.034581" y="276.1796" xlink:href="#t"/>
<use x="944.352944" y="276.1796" xlink:href="#ax"/>
<use x="406.07726" y="105.7986" xlink:href="#an"/>
<use x="416.191576" y="105.7986" xlink:href="#g"/>
<use x="424.095405" y="105.7986" xlink:href="#glyph-1-12"/>
<use x="427.319037" y="105.7986" xlink:href="#n"/>
<use x="434.443061" y="105.7986" xlink:href="#p"/>
<use x="437.901084" y="105.7986" xlink:href="#l"/>
<use x="442.295108" y="105.7986" xlink:href="#f"/>
<use x="449.730643" y="105.7986" xlink:href="#o"/>
<use x="454.436715" y="105.7986" xlink:href="#x"/>
<use x="461.976738" y="105.7986" xlink:href="#n"/>
<use x="468.970879" y="105.7986" xlink:href="#l"/>
<use x="473.364414" y="105.7986" xlink:href="#h"/>
<use x="476.822437" y="105.7986" xlink:href="#ce"/>
<use x="483.46551" y="105.7986" xlink:href="#f"/>
<use x="423.59526" y="118.7986" xlink:href="#be"/>
<use x="429.913137" y="118.7986" xlink:href="#n"/>
<use x="437.03716" y="118.7986" xlink:href="#bf"/>
<use x="444.576695" y="118.7986" xlink:href="#r"/>
<use x="450.322768" y="118.7986" xlink:href="#f"/>
<use x="457.758791" y="118.7986" xlink:href="#glyph-1-12"/>
<use x="460.982912" y="118.7986" xlink:href="#g"/>
<use x="468.886252" y="118.7986" xlink:href="#aa"/>
<use x="414.26753" y="131.7986" xlink:href="#r"/>
<use x="420.013602" y="131.7986" xlink:href="#bb"/>
<use x="426.656675" y="131.7986" xlink:href="#ac"/>
<use x="438.200161" y="131.7986" xlink:href="#bd"/>
<use x="446.403282" y="131.7986" xlink:href="#l"/>
<use x="450.797305" y="131.7986" xlink:href="#g"/>
<use x="458.701133" y="131.7986" xlink:href="#ac"/>
<use x="470.24462" y="131.7986" xlink:href="#r"/>
<use x="475.990692" y="131.7986" xlink:href="#ba"/>
<use x="428.34333" y="238.5156" xlink:href="#t"/>
<use x="438.661742" y="238.5156" xlink:href="#b"/>
<use x="446.585096" y="238.5156" xlink:href="#e"/>
<use x="454.256971" y="238.5156" xlink:href="#d"/>
<use x="459.157365" y="238.5156" xlink:href="#c"/>
<use x="407.16833" y="255.3156" xlink:href="#e"/>
<use x="414.840205" y="255.3156" xlink:href="#a"/>
<use x="421.027689" y="255.3156" xlink:href="#a"/>
<use x="427.215662" y="255.3156" xlink:href="#b"/>
<use x="435.223488" y="255.3156" xlink:href="#a"/>
<use x="441.410973" y="255.3156" xlink:href="#a"/>
<use x="447.598945" y="255.3156" xlink:href="#aw"/>
<use x="460.031064" y="255.3156" xlink:href="#b"/>
<use x="468.038353" y="255.3156" xlink:href="#j"/>
<use x="476.158521" y="255.3156" xlink:href="#c"/>
<use x="480.890396" y="255.3156" xlink:href="#bk"/>
<use x="414.81247" y="272.1156" xlink:href="#a"/>
<use x="421.000443" y="272.1156" xlink:href="#s"/>
<use x="427.804171" y="272.1156" xlink:href="#d"/>
<use x="432.620581" y="272.1156" xlink:href="#b"/>
<use x="440.628408" y="272.1156" xlink:href="#b"/>
<use x="448.635745" y="272.1156" xlink:href="#j"/>
<use x="456.755865" y="272.1156" xlink:href="#i"/>
<use x="460.479984" y="272.1156" xlink:href="#j"/>
<use x="468.599615" y="272.1156" xlink:href="#v"/>
<use x="430.38047" y="288.9156" xlink:href="#b"/>
<use x="438.388296" y="288.9156" xlink:href="#s"/>
<use x="445.192025" y="288.9156" xlink:href="#ak"/>
<use x="453.339997" y="288.9156" xlink:href="#k"/>
<use x="583.89847" y="246.7965" xlink:href="#aj"/>
<use x="592.508816" y="246.7965" xlink:href="#b"/>
<use x="600.516154" y="246.7965" xlink:href="#z"/>
<use x="605.02398" y="246.7965" xlink:href="#b"/>
<use x="613.031806" y="246.7965" xlink:href="#d"/>
<use x="618.099681" y="246.7965" xlink:href="#glyph-3-4"/>
<use x="621.571849" y="246.7965" xlink:href="#c"/>
<use x="626.303773" y="246.7965" xlink:href="#k"/>
<use x="577.29144" y="262.7965" xlink:href="#u"/>
<use x="585.803169" y="262.7965" xlink:href="#t"/>
<use x="596.121092" y="262.7965" xlink:href="#glyph-3-4"/>
<use x="599.59326" y="262.7965" xlink:href="#b"/>
<use x="607.46095" y="262.7965" xlink:href="#bj"/>
<use x="614.95019" y="262.7965" xlink:href="#at"/>
<use x="623.784163" y="262.7965" xlink:href="#b"/>
<use x="631.791989" y="262.7965" xlink:href="#d"/>
<use x="636.692383" y="262.7965" xlink:href="#c"/>
<use x="588.98754" y="278.7965" xlink:href="#s"/>
<use x="595.791757" y="278.7965" xlink:href="#b"/>
<use x="603.799095" y="278.7965" xlink:href="#j"/>
<use x="611.919214" y="278.7965" xlink:href="#c"/>
<use x="616.651138" y="278.7965" xlink:href="#b"/>
<use x="624.658476" y="278.7965" xlink:href="#d"/>
</g>
<g fill="#201c1c">
<use x="457.871" y="329.59" xlink:href="#bg"/>
<use x="464.253795" y="329.59" xlink:href="#g"/>
<use x="472.157623" y="329.59" xlink:href="#cd"/>
<use x="482.582914" y="329.59" xlink:href="#glyph-1-12"/>
<use x="485.807035" y="329.59" xlink:href="#p"/>
<use x="489.265058" y="329.59" xlink:href="#h"/>
<use x="492.723082" y="329.59" xlink:href="#az"/>
<use x="499.521926" y="329.59" xlink:href="#f"/>
<use x="506.957949" y="329.59" xlink:href="#p"/>
<use x="510.415972" y="329.59" xlink:href="#h"/>
<use x="513.873996" y="329.59" xlink:href="#q"/>
<use x="521.439433" y="329.59" xlink:href="#g"/>
<use x="529.343261" y="329.59" xlink:href="#g"/>
<use x="537.24709" y="329.59" xlink:href="#ab"/>
<use x="545.462918" y="329.59" xlink:href="#glyph-1-12"/>
<use x="485.112" y="342.59" xlink:href="#g"/>
<use x="493.015828" y="342.59" xlink:href="#aa"/>
<use x="497.513863" y="342.59" xlink:href="#glyph-1-12"/>
<use x="500.737496" y="342.59" xlink:href="#ao"/>
<use x="508.641324" y="342.59" xlink:href="#al"/>
<use x="842.461" y="299.142" xlink:href="#an"/>
<use x="852.575219" y="299.142" xlink:href="#g"/>
<use x="961.331" y="190.814" xlink:href="#an"/>
<use x="971.445219" y="190.814" xlink:href="#g"/>
<use x="891.7122" y="334.989" xlink:href="#ay"/>
<use x="898.563239" y="334.989" xlink:href="#f"/>
<use x="905.999262" y="334.989" xlink:href="#r"/>
<use x="487.2632" y="199.745" xlink:href="#cc"/>
<use x="490.903321" y="199.745" xlink:href="#x"/>
<use x="498.443344" y="199.745" xlink:href="#l"/>
<use x="502.83688" y="199.745" xlink:href="#f"/>
<use x="510.272903" y="199.745" xlink:href="#o"/>
<use x="514.978975" y="199.745" xlink:href="#ac"/>
<use x="526.522852" y="199.745" xlink:href="#f"/>
<use x="533.958387" y="199.745" xlink:href="#ab"/>
<use x="542.174215" y="199.745" xlink:href="#h"/>
<use x="545.632239" y="199.745" xlink:href="#n"/>
<use x="552.626379" y="199.745" xlink:href="#l"/>
<use x="557.019914" y="199.745" xlink:href="#f"/>
<use x="564.455938" y="199.745" xlink:href="#ap"/>
<use x="483.54523" y="212.745" xlink:href="#q"/>
<use x="491.111156" y="212.745" xlink:href="#h"/>
<use x="494.569179" y="212.745" xlink:href="#am"/>
<use x="502.758617" y="212.745" xlink:href="#q"/>
<use x="510.324542" y="212.745" xlink:href="#glyph-1-12"/>
<use x="513.548663" y="212.745" xlink:href="#p"/>
<use x="517.006687" y="212.745" xlink:href="#h"/>
<use x="520.464222" y="212.745" xlink:href="#az"/>
<use x="527.263553" y="212.745" xlink:href="#f"/>
<use x="534.699577" y="212.745" xlink:href="#p"/>
<use x="538.1576" y="212.745" xlink:href="#h"/>
<use x="541.615135" y="212.745" xlink:href="#q"/>
<use x="549.181061" y="212.745" xlink:href="#g"/>
<use x="557.084889" y="212.745" xlink:href="#g"/>
<use x="564.988717" y="212.745" xlink:href="#ab"/>
<use x="511.82023" y="225.745" xlink:href="#g"/>
<use x="519.724058" y="225.745" xlink:href="#aa"/>
<use x="524.222093" y="225.745" xlink:href="#glyph-1-12"/>
<use x="527.445726" y="225.745" xlink:href="#ao"/>
<use x="535.349554" y="225.745" xlink:href="#al"/>
<use x="695.11823" y="215.0919" xlink:href="#ay"/>
<use x="701.969317" y="215.0919" xlink:href="#f"/>
<use x="709.40534" y="215.0919" xlink:href="#r"/>
<use x="774.45923" y="32.3139" xlink:href="#cp"/>
<use x="784.719542" y="32.3139" xlink:href="#ae"/>
<use x="794.199542" y="32.3139" xlink:href="#ad"/>
<use x="803.439542" y="32.3139" xlink:href="#co"/>
<use x="813.414542" y="32.3139" xlink:href="#cn"/>
<use x="819.354542" y="32.3139" xlink:href="#cm"/>
<use x="833.214542" y="32.3139" xlink:href="#cl"/>
<use x="841.554347" y="32.3139" xlink:href="#aq"/>
<use x="847.134347" y="32.3139" xlink:href="#af"/>
<use x="851.574347" y="32.3139" xlink:href="#ae"/>
<use x="861.054347" y="32.3139" xlink:href="#ad"/>
</g>
</svg>
