<?xml version="1.0" encoding="UTF-8"?>
<svg viewBox="0 0 233.4 204.1" xmlns="http://www.w3.org/2000/svg">
<defs>
<clipPath id="d">
<path d="m167 149h66.38v22h-66.38z"/>
</clipPath>
<clipPath id="c">
<path d="m167 148h66.38v24h-66.38z"/>
</clipPath>
<clipPath id="b">
<path d="m167 187h66.38v17h-66.38z"/>
</clipPath>
<clipPath id="a">
<path d="m92 187h68v17.08h-68z"/>
</clipPath>
</defs>
<path d="m161.4 22.82h-115v-22.57h115v22.57" fill="#fef0ca"/>
<path transform="matrix(.1 0 0 -.1 0 204.1)" d="m1614 1813h-1150v225.7h1150z" fill="none" stroke="#231f1f" stroke-width="5"/>
<path d="m64.61 7.488h1.855l-0.9258-2.324zm-0.7422 1.828h-0.7695l2.148-4.957h0.6289l2.133 4.957h-0.7852l-0.5039-1.219h-2.355l-0.4961 1.219" fill="#231f1f"/>
<path d="m70.93 6.836c-0.1406-0.2148-0.4492-0.375-0.7617-0.375-0.6875 0-1.086 0.5586-1.086 1.195 0 0.6289 0.3984 1.199 1.094 1.199 0.3359 0 0.6211-0.1406 0.7969-0.3672l0.4414 0.4023c-0.2812 0.3203-0.707 0.5156-1.238 0.5156-1.023 0-1.789-0.6914-1.789-1.75 0-1.043 0.7578-1.75 1.773-1.75 0.4688 0 0.9727 0.1875 1.246 0.5469l-0.4766 0.3828" fill="#231f1f"/>
<path d="m74.4 9.316c-0.01172-0.168-0.02734-0.4062-0.02734-0.5469h-0.01562c-0.168 0.3516-0.6016 0.6367-1.086 0.6367-0.8516 0-1.238-0.6094-1.238-1.352v-2.059h0.6602v1.836c0 0.5469 0.1445 1.023 0.7539 1.023 0.5273 0 0.8906-0.4336 0.8906-1.094v-1.766h0.6562v2.605c0 0.1758 0.007812 0.5 0.03125 0.7148h-0.625" fill="#231f1f"/>
<path d="m77.76 6.535h-0.8828v1.73c0 0.3984 0.1406 0.5586 0.4688 0.5586 0.1211 0 0.2734-0.02734 0.3867-0.08203l0.01953 0.5391c-0.1523 0.05859-0.3555 0.08984-0.5586 0.08984-0.625 0-0.9688-0.3477-0.9688-1.035v-1.801h-0.6367v-0.5391h0.6367v-0.9531h0.6523v0.9531h0.8828v0.5391" fill="#231f1f"/>
<path d="m80.87 7.363c-0.01563-0.5273-0.3242-0.9375-0.9336-0.9375-0.5664 0-1 0.418-1.043 0.9375zm0.6562 0.4883h-2.633c0.02344 0.5703 0.5 1.008 1.078 1.008 0.4492 0 0.7773-0.2227 0.9688-0.5039l0.4609 0.3711c-0.3555 0.4648-0.8398 0.6797-1.43 0.6797-1.008 0-1.75-0.6992-1.75-1.742 0-1.035 0.7422-1.758 1.715-1.758 0.9805 0 1.598 0.6641 1.598 1.723 0 0.07031 0 0.1484-0.007812 0.2227" fill="#231f1f"/>
<path d="m86.52 6.836c-0.1406-0.2148-0.4492-0.375-0.7656-0.375-0.6836 0-1.086 0.5586-1.086 1.195 0 0.6289 0.4023 1.199 1.094 1.199 0.3359 0 0.625-0.1406 0.8008-0.3672l0.4414 0.4023c-0.2812 0.3203-0.7109 0.5156-1.242 0.5156-1.023 0-1.785-0.6914-1.785-1.75 0-1.043 0.7539-1.75 1.773-1.75 0.4688 0 0.9727 0.1875 1.246 0.5469l-0.4766 0.3828" fill="#231f1f"/>
<path d="m89.22 6.453c-0.707 0-1.105 0.5664-1.105 1.195 0 0.6328 0.3984 1.207 1.105 1.207 0.7148 0 1.109-0.5742 1.109-1.207 0-0.6289-0.3945-1.195-1.109-1.195zm0 2.953c-1.016 0-1.785-0.7344-1.785-1.758 0-1.02 0.7695-1.742 1.785-1.742s1.793 0.7227 1.793 1.742c0 1.023-0.7773 1.758-1.793 1.758" fill="#231f1f"/>
<path d="m91.9 5.996h0.6211c0.01562 0.168 0.02734 0.4219 0.02734 0.5625h0.02344c0.1797-0.3867 0.5664-0.6523 1.016-0.6523 0.08984 0 0.1797 0.007812 0.2578 0.02734l-0.02734 0.6094c-0.08594-0.01953-0.1953-0.03516-0.3008-0.03516-0.6328 0-0.9336 0.5117-0.9336 1.066v1.742h-0.6562v-2.605c0-0.1758-0.007812-0.4961-0.02734-0.7148" fill="#231f1f"/>
<path d="m95.9 6.453c-0.707 0-1.105 0.5664-1.105 1.195 0 0.6328 0.3984 1.207 1.105 1.207 0.7148 0 1.105-0.5742 1.105-1.207 0-0.6289-0.3906-1.195-1.105-1.195zm0 2.953c-1.016 0-1.785-0.7344-1.785-1.758 0-1.02 0.7695-1.742 1.785-1.742s1.793 0.7227 1.793 1.742c0 1.023-0.7773 1.758-1.793 1.758" fill="#231f1f"/>
<path d="m99.2 5.996c0.01172 0.168 0.02734 0.4062 0.02734 0.5469h0.01953c0.1641-0.3555 0.6016-0.6367 1.078-0.6367 0.8555 0 1.242 0.6094 1.242 1.352v2.059h-0.6602v-1.84c0-0.543-0.1445-1.016-0.7539-1.016-0.5195 0-0.8906 0.4336-0.8906 1.09v1.766h-0.6602v-2.605c0-0.1758-0.003906-0.4961-0.02734-0.7148h0.625" fill="#231f1f"/>
<path d="m104.6 7.734c-0.6523 0-1.477 0.07031-1.477 0.6289 0 0.3945 0.3477 0.5195 0.6758 0.5195 0.6172 0 0.9609-0.4141 0.9609-0.9727v-0.1758zm0.1602-0.5703c0-0.4883-0.3281-0.7266-0.8164-0.7266-0.375 0-0.7227 0.1602-0.9492 0.3867l-0.3477-0.4219c0.3203-0.3086 0.8164-0.4961 1.355-0.4961 0.9531 0 1.391 0.5664 1.391 1.305v1.445c0 0.2266 0.01172 0.5 0.04688 0.6602h-0.5938c-0.03516-0.1445-0.05859-0.3242-0.05859-0.4766h-0.01953c-0.2383 0.3594-0.6172 0.5625-1.113 0.5625-0.5273 0-1.203-0.2617-1.203-1.023 0-1 1.188-1.121 2.309-1.121v-0.09375" fill="#231f1f"/>
<path d="m106.4 5.996h0.625c0.01172 0.168 0.02734 0.4219 0.02734 0.5625h0.01953c0.1836-0.3867 0.5703-0.6523 1.02-0.6523 0.08984 0 0.1797 0.007812 0.2578 0.02734l-0.02734 0.6094c-0.08594-0.01953-0.1992-0.03516-0.3008-0.03516-0.6328 0-0.9336 0.5117-0.9336 1.066v1.742h-0.6562v-2.605c0-0.1758-0.007812-0.4961-0.03125-0.7148" fill="#231f1f"/>
<path d="m110.3 8.602h0.01172l0.918-2.605h0.7031l-1.613 4.105c-0.2148 0.5508-0.4961 0.8945-1.148 0.8945-0.1406 0-0.2852-0.01172-0.4336-0.04688l0.0625-0.582c0.1055 0.03516 0.2266 0.05469 0.332 0.05469 0.3398 0 0.4727-0.1953 0.6172-0.5508l0.207-0.5547-1.422-3.32h0.7344l1.031 2.605" fill="#231f1f"/>
<path d="m116.1 6.836c-0.1445-0.2383-0.4336-0.4102-0.7695-0.4102-0.3008 0-0.6172 0.1172-0.6172 0.4336 0 0.2812 0.2539 0.3828 0.7578 0.4961 0.6289 0.1406 1.113 0.3984 1.113 0.9805 0 0.7852-0.6523 1.07-1.324 1.07-0.5039 0-1.02-0.1953-1.336-0.5938l0.4688-0.3984c0.1758 0.2578 0.5117 0.4609 0.8828 0.4609 0.3281 0 0.6562-0.1172 0.6562-0.4844 0-0.3047-0.3008-0.418-0.8672-0.5508-0.4414-0.1055-0.9648-0.293-0.9648-0.918 0-0.7148 0.6211-1.016 1.25-1.016 0.4727 0 0.9688 0.1875 1.207 0.5469l-0.457 0.3828" fill="#231f1f"/>
<path d="m118.7 8.602h0.01172l0.918-2.605h0.6992l-1.609 4.105c-0.2188 0.5508-0.4961 0.8945-1.148 0.8945-0.1406 0-0.2852-0.01172-0.4336-0.04688l0.0625-0.582c0.1055 0.03516 0.2266 0.05469 0.3281 0.05469 0.3438 0 0.4766-0.1953 0.6172-0.5508l0.2109-0.5547-1.422-3.32h0.7344l1.031 2.605" fill="#231f1f"/>
<path d="m121.5 5.996c0.01172 0.168 0.02734 0.4062 0.02734 0.5469h0.01953c0.1602-0.3555 0.6016-0.6367 1.078-0.6367 0.8555 0 1.242 0.6094 1.242 1.352v2.059h-0.6602v-1.84c0-0.543-0.1484-1.016-0.7578-1.016-0.5156 0-0.8867 0.4336-0.8867 1.09v1.766h-0.6602v-2.605c0-0.1758-0.007813-0.4961-0.02734-0.7148h0.625" fill="#231f1f"/>
<path d="m126.6 8.855c0.6719 0 1.121-0.5625 1.121-1.199s-0.4492-1.203-1.121-1.203c-0.7227 0-1.102 0.5742-1.102 1.195 0 0.625 0.3789 1.207 1.102 1.207zm-0.1133 0.5508c-1.02 0-1.672-0.7852-1.672-1.758 0-0.9805 0.6719-1.742 1.668-1.742 0.5391 0 0.9492 0.2656 1.18 0.5859h0.01562v-2.469h0.6602v5.293h-0.6406v-0.5273h-0.01172c-0.2539 0.4023-0.7305 0.6172-1.199 0.6172" fill="#231f1f"/>
<path d="m129.4 5.996h0.6211c0.01562 0.168 0.03125 0.4219 0.03125 0.5625h0.01953c0.1836-0.3867 0.5664-0.6523 1.016-0.6523 0.08984 0 0.1797 0.007812 0.2578 0.02734l-0.02734 0.6094c-0.08203-0.01953-0.1953-0.03516-0.3008-0.03516-0.6289 0-0.9297 0.5117-0.9297 1.066v1.742h-0.6602v-2.605c0-0.1758-0.007812-0.4961-0.02734-0.7148" fill="#231f1f"/>
<path d="m133.4 6.453c-0.707 0-1.105 0.5664-1.105 1.195 0 0.6328 0.3984 1.207 1.105 1.207 0.7148 0 1.105-0.5742 1.105-1.207 0-0.6289-0.3906-1.195-1.105-1.195zm0 2.953c-1.016 0-1.785-0.7344-1.785-1.758 0-1.02 0.7695-1.742 1.785-1.742 1.016 0 1.793 0.7227 1.793 1.742 0 1.023-0.7773 1.758-1.793 1.758" fill="#231f1f"/>
<path d="m137.8 5.906c0.4414 0 0.8281 0.1953 1.031 0.6641 0.2227-0.4258 0.6602-0.6641 1.129-0.6641 0.8516 0 1.238 0.6094 1.238 1.352v2.059h-0.6602v-1.84c0-0.543-0.1602-1.016-0.7344-1.016-0.6016 0-0.8398 0.543-0.8398 1.062v1.793h-0.6602v-1.973c0-0.5195-0.1719-0.8828-0.6992-0.8828-0.4844 0-0.8477 0.4336-0.8477 1.09v1.766h-0.6602v-2.605c0-0.1758-0.003906-0.4961-0.02344-0.7148h0.6211c0.01562 0.168 0.02734 0.4062 0.02734 0.5469h0.02344c0.168-0.3516 0.5508-0.6367 1.055-0.6367" fill="#231f1f"/>
<path d="m144.8 7.363c-0.01172-0.5273-0.3203-0.9375-0.9297-0.9375-0.5664 0-1.004 0.418-1.043 0.9375zm0.6602 0.4883h-2.633c0.01953 0.5703 0.4961 1.008 1.078 1.008 0.4492 0 0.7773-0.2227 0.9648-0.5039l0.4609 0.3711c-0.3555 0.4648-0.8398 0.6797-1.426 0.6797-1.008 0-1.75-0.6992-1.75-1.742 0-1.035 0.7422-1.758 1.715-1.758 0.9805 0 1.598 0.6641 1.598 1.723 0 0.07031 0 0.1484-0.007813 0.2227" fill="#231f1f"/>
<path d="m69.15 18.51-0.4766 0.3086c-0.6172-0.8281-1.023-1.949-1.023-3.117s0.4062-2.289 1.023-3.117l0.4766 0.3086c-0.5469 0.7656-0.9062 1.785-0.9062 2.809 0 1.023 0.3594 2.043 0.9062 2.809" fill="#231f1f"/>
<path d="m72.69 13.68c-0.1953-0.2734-0.5547-0.4609-0.9648-0.4609-0.4492 0-0.9688 0.2461-0.9688 0.8047 0 0.5391 0.457 0.6836 1.016 0.8672 0.6641 0.2109 1.457 0.4648 1.457 1.449 0 1.031-0.832 1.508-1.715 1.508-0.625 0-1.254-0.2461-1.633-0.7227l0.5391-0.457c0.2305 0.3438 0.6523 0.582 1.105 0.582 0.4648 0 0.9961-0.2578 0.9961-0.8477 0-0.6016-0.5469-0.7617-1.176-0.957-0.6328-0.1992-1.289-0.4844-1.289-1.395 0-0.9883 0.8828-1.414 1.703-1.414 0.5742 0 1.109 0.2227 1.418 0.5664l-0.4883 0.4766" fill="#231f1f"/>
<path d="m75.83 17.72h-0.6914v-4.352h-1.59v-0.6094h3.871v0.6094h-1.59v4.352" fill="#231f1f"/>
<path d="m78.77 17.1h2.59v0.6172h-3.285v-4.961h3.18v0.6094h-2.484v1.484h2.34v0.5977h-2.34v1.652" fill="#231f1f"/>
<path d="m84.85 16.57h0.01172l1.465-3.809h1.078v4.961h-0.6914v-4.148h-0.01563l-1.645 4.148h-0.4414l-1.641-4.148h-0.01172v4.148h-0.6758v-4.961h1.078l1.488 3.809" fill="#231f1f"/>
<path d="m89.3 17.72h-0.6953v-4.961h0.6953v4.961" fill="#231f1f"/>
<path d="m94.12 16.13c-0.6523 0-1.477 0.07031-1.477 0.6328 0 0.3906 0.3477 0.5156 0.6797 0.5156 0.6133 0 0.957-0.4141 0.957-0.9727v-0.1758zm0.1602-0.5664c0-0.4922-0.3281-0.7266-0.8203-0.7266-0.3711 0-0.7188 0.1602-0.9453 0.3828l-0.3477-0.418c0.3203-0.3086 0.8164-0.5 1.359-0.5 0.9492 0 1.383 0.5664 1.383 1.305v1.449c0 0.2227 0.01562 0.4961 0.05078 0.6602h-0.5938c-0.03516-0.1484-0.05859-0.3242-0.05859-0.4766h-0.01953c-0.2383 0.3555-0.6172 0.5586-1.113 0.5586-0.5273 0-1.203-0.2617-1.203-1.023 0-1 1.188-1.121 2.309-1.121v-0.08984" fill="#231f1f"/>
<path d="m96.61 14.4c0.01172 0.168 0.02734 0.4062 0.02734 0.543h0.01953c0.1641-0.3555 0.6055-0.6367 1.078-0.6367 0.8555 0 1.242 0.6094 1.242 1.352v2.062h-0.6602v-1.844c0-0.5391-0.1445-1.016-0.7539-1.016-0.5195 0-0.8906 0.4336-0.8906 1.09v1.77h-0.6562v-2.609c0-0.1719-0.007813-0.4961-0.03125-0.7109h0.625" fill="#231f1f"/>
<path d="m101.6 17.25c0.6719 0 1.121-0.5586 1.121-1.195 0-0.6406-0.4492-1.207-1.121-1.207-0.7188 0-1.098 0.5742-1.098 1.199 0 0.6211 0.3789 1.203 1.098 1.203zm-0.1133 0.5547c-1.02 0-1.672-0.7852-1.672-1.758 0-0.9805 0.6719-1.746 1.668-1.746 0.5391 0 0.9531 0.2656 1.184 0.5898h0.01172v-2.473h0.6602v5.297h-0.6367v-0.5273h-0.01562c-0.25 0.3984-0.7266 0.6172-1.199 0.6172" fill="#231f1f"/>
<path d="m109.8 16.72h0.01172v-3.965h0.6953v4.961h-0.875l-2.621-4.051h-0.01172v4.051h-0.6953v-4.961h0.9062l2.59 3.965" fill="#231f1f"/>
<path d="m114.2 13.68c-0.1953-0.2734-0.5547-0.4609-0.9688-0.4609-0.4453 0-0.9648 0.2461-0.9648 0.8047 0 0.5391 0.4531 0.6836 1.016 0.8672 0.6641 0.2109 1.457 0.4648 1.457 1.449 0 1.031-0.832 1.508-1.715 1.508-0.625 0-1.254-0.2461-1.633-0.7227l0.5391-0.457c0.2305 0.3438 0.6523 0.582 1.105 0.582 0.4648 0 0.9961-0.2578 0.9961-0.8477 0-0.6016-0.5469-0.7617-1.176-0.957-0.6328-0.1992-1.289-0.4844-1.289-1.395 0-0.9883 0.8828-1.414 1.699-1.414 0.5742 0 1.113 0.2227 1.422 0.5664l-0.4883 0.4766" fill="#231f1f"/>
<path d="m117.3 17.72h-0.6914v-4.352h-1.59v-0.6094h3.871v0.6094h-1.59v4.352" fill="#231f1f"/>
<path d="m120.3 17.1h2.59v0.6172h-3.285v-4.961h3.18v0.6094h-2.484v1.484h2.34v0.5977h-2.34v1.652" fill="#231f1f"/>
<path d="m125.1 16.29h-1.625v-0.5625h1.625v0.5625" fill="#231f1f"/>
<path d="m127 15.89h1.855l-0.9258-2.328zm-0.7422 1.828h-0.7734l2.152-4.961h0.6289l2.129 4.961h-0.7852l-0.5039-1.223h-2.352l-0.4961 1.223" fill="#231f1f"/>
<path d="m135.1 16.95c-0.3867 0.5273-1.023 0.8984-1.891 0.8984-1.52 0-2.613-1.086-2.613-2.613 0-1.547 1.137-2.598 2.641-2.598 0.6797 0 1.414 0.2656 1.777 0.7695l-0.5469 0.4219c-0.2344-0.3398-0.7188-0.582-1.23-0.582-1.148 0-1.883 0.9023-1.883 1.988 0 1.113 0.7188 1.996 1.859 1.996 0.5547 0 1.039-0.2305 1.332-0.6602l0.5547 0.3789" fill="#231f1f"/>
<path d="m138.3 13.68c-0.1953-0.2734-0.5508-0.4609-0.9648-0.4609-0.4492 0-0.9648 0.2461-0.9648 0.8047 0 0.5391 0.4531 0.6836 1.012 0.8672 0.668 0.2109 1.457 0.4648 1.457 1.449 0 1.031-0.832 1.508-1.715 1.508-0.6211 0-1.254-0.2461-1.633-0.7227l0.5391-0.457c0.2344 0.3438 0.6523 0.582 1.109 0.582 0.4609 0 0.9922-0.2578 0.9922-0.8477 0-0.6016-0.5469-0.7617-1.176-0.957-0.6289-0.1992-1.289-0.4844-1.289-1.395 0-0.9883 0.8828-1.414 1.703-1.414 0.5742 0 1.113 0.2227 1.422 0.5664l-0.4922 0.4766" fill="#231f1f"/>
<path d="m139.7 12.89 0.4766-0.3086c0.6172 0.8281 1.023 1.949 1.023 3.117s-0.4062 2.289-1.023 3.117l-0.4766-0.3086c0.5469-0.7656 0.9023-1.785 0.9023-2.809 0-1.023-0.3555-2.043-0.9023-2.809" fill="#231f1f"/>
<path d="m207.6 85.33h-92v-32.02h92v32.02" fill="#fef0ca"/>
<path transform="matrix(.1 0 0 -.1 0 204.1)" d="m2076 1188h-920v320.2h920z" fill="none" stroke="#231f1f" stroke-width="5"/>
<path d="m124.1 62.7h0.01562v-3.965h0.6914v4.961h-0.875l-2.617-4.051h-0.01563v4.051h-0.6914v-4.961h0.9023l2.59 3.965" fill="#231f1f"/>
<path d="m127.6 60.83c-0.707 0-1.109 0.5703-1.109 1.199s0.4023 1.203 1.109 1.203c0.7109 0 1.105-0.5742 1.105-1.203s-0.3945-1.199-1.105-1.199zm0 2.957c-1.016 0-1.789-0.7344-1.789-1.758 0-1.023 0.7734-1.746 1.789-1.746 1.012 0 1.793 0.7227 1.793 1.746 0 1.023-0.7812 1.758-1.793 1.758" fill="#231f1f"/>
<path d="m130.9 60.38c0.01562 0.168 0.03125 0.4062 0.03125 0.5469h0.01953c0.1602-0.3594 0.6016-0.6406 1.078-0.6406 0.8555 0 1.242 0.6094 1.242 1.355v2.059h-0.6602v-1.844c0-0.5391-0.1484-1.016-0.7578-1.016-0.5156 0-0.8867 0.4336-0.8867 1.094v1.766h-0.6602v-2.605c0-0.1758-0.007813-0.5-0.02734-0.7148h0.6211" fill="#231f1f"/>
<path d="m136.1 61.21c-0.1484-0.2383-0.4336-0.4141-0.7695-0.4141-0.3008 0-0.6172 0.1211-0.6172 0.4336 0 0.2812 0.25 0.3867 0.7578 0.5 0.6289 0.1367 1.113 0.3984 1.113 0.9805 0 0.7812-0.6523 1.07-1.324 1.07-0.5039 0-1.023-0.1953-1.34-0.5938l0.4727-0.4023c0.1719 0.2617 0.5078 0.4648 0.8789 0.4648 0.332 0 0.6602-0.1211 0.6602-0.4844 0-0.3086-0.3008-0.418-0.8672-0.5547-0.4414-0.1055-0.9688-0.293-0.9688-0.9141 0-0.7148 0.625-1.02 1.254-1.02 0.4688 0 0.9688 0.1914 1.207 0.5469l-0.457 0.3867" fill="#231f1f"/>
<path d="m139.2 60.83c-0.6719 0-1.121 0.5703-1.121 1.207 0 0.6367 0.4492 1.195 1.121 1.195 0.7227 0 1.105-0.5781 1.105-1.203s-0.3828-1.199-1.105-1.199zm-1.078 4.547h-0.6562v-5h0.6445v0.5156h0.01953c0.2148-0.3477 0.6523-0.6094 1.199-0.6094 0.9883 0 1.66 0.7656 1.66 1.746 0 0.9727-0.6523 1.758-1.676 1.758-0.4688 0-0.9258-0.2188-1.168-0.5898h-0.02344v2.18" fill="#231f1f"/>
<path d="m144.3 61.74c-0.01562-0.5234-0.3242-0.9375-0.9336-0.9375-0.5664 0-1 0.4219-1.043 0.9375zm0.6562 0.4922h-2.633c0.02344 0.5664 0.5 1.008 1.082 1.008 0.4453 0 0.7734-0.2227 0.9648-0.5039l0.4609 0.3711c-0.3555 0.4609-0.8398 0.6797-1.426 0.6797-1.012 0-1.754-0.6992-1.754-1.746 0-1.035 0.7422-1.758 1.715-1.758 0.9805 0 1.598 0.668 1.598 1.727 0 0.06641 0 0.1445-0.007813 0.2227" fill="#231f1f"/>
<path d="m148.2 61.21c-0.1406-0.2188-0.4492-0.3789-0.7617-0.3789-0.6875 0-1.09 0.5625-1.09 1.199 0 0.6289 0.4023 1.195 1.094 1.195 0.3359 0 0.625-0.1367 0.8008-0.3633l0.4375 0.3984c-0.2773 0.3242-0.707 0.5195-1.238 0.5195-1.023 0-1.785-0.6914-1.785-1.75 0-1.043 0.7578-1.754 1.77-1.754 0.4727 0 0.9766 0.1914 1.25 0.5469l-0.4766 0.3867" fill="#231f1f"/>
<path d="m150 63.7h-0.6602v-3.32h0.6602zm-0.3281-4.098c-0.2383 0-0.4336-0.1914-0.4336-0.4219 0-0.2383 0.1953-0.4258 0.4336-0.4258 0.2383 0 0.4414 0.1836 0.4414 0.4258 0 0.2383-0.2031 0.4219-0.4414 0.4219" fill="#231f1f"/>
<path d="m154 63.7h-0.6562v-3.32h0.6562zm-0.3281-4.098c-0.2383 0-0.4336-0.1914-0.4336-0.4219 0-0.2383 0.1953-0.4258 0.4336-0.4258 0.2383 0 0.4414 0.1836 0.4414 0.4258 0 0.2383-0.2031 0.4219-0.4414 0.4219zm-0.9805 1.316h-0.7695v2.781h-0.6602v-2.781h-0.6602v-0.5391h0.6602v-0.6953c0-0.7773 0.3438-1.363 1.238-1.363 0.1562 0 0.2891 0.01172 0.4141 0.04688l-0.07422 0.5703c-0.1016-0.03125-0.2031-0.05078-0.332-0.05078-0.4961 0-0.5859 0.3906-0.5859 0.7969v0.6953h0.7695v0.5391" fill="#231f1f"/>
<path d="m157.5 61.21c-0.1406-0.2188-0.4492-0.3789-0.7656-0.3789-0.6836 0-1.086 0.5625-1.086 1.199 0 0.6289 0.4023 1.195 1.094 1.195 0.3359 0 0.625-0.1367 0.8008-0.3633l0.4375 0.3984c-0.2773 0.3242-0.707 0.5195-1.238 0.5195-1.023 0-1.785-0.6914-1.785-1.75 0-1.043 0.7578-1.754 1.77-1.754 0.4727 0 0.9766 0.1914 1.25 0.5469l-0.4766 0.3867" fill="#231f1f"/>
<path d="m161.1 63.08h2.594v0.6172h-3.285v-4.961h3.18v0.6094h-2.488v1.484h2.34v0.5977h-2.34v1.652" fill="#231f1f"/>
<path d="m168.9 62.93c-0.3828 0.5234-1.023 0.8945-1.891 0.8945-1.52 0-2.613-1.086-2.613-2.613 0-1.547 1.137-2.598 2.641-2.598 0.6797 0 1.414 0.2656 1.777 0.7695l-0.543 0.4219c-0.2383-0.3359-0.7227-0.582-1.234-0.582-1.148 0-1.883 0.9023-1.883 1.988 0 1.113 0.7188 1.996 1.863 1.996 0.5508 0 1.035-0.2305 1.332-0.6562l0.5508 0.3789" fill="#231f1f"/>
<path d="m173.3 59.76c-0.2969-0.3203-0.7773-0.5391-1.344-0.5391-1.164 0-1.895 0.9023-1.895 1.988 0 1.105 0.7305 1.988 1.914 1.988 0.4609 0 0.8672-0.08984 1.156-0.2461v-1.379h-1.102v-0.5859h1.785v2.402c-0.5156 0.2773-1.133 0.4336-1.859 0.4336-1.551 0-2.648-1.086-2.648-2.613 0-1.547 1.133-2.598 2.641-2.598 0.7852 0 1.426 0.2539 1.832 0.6445l-0.4805 0.5039" fill="#231f1f"/>
<path d="m179.1 61.21c-0.1406-0.2188-0.4492-0.3789-0.7656-0.3789-0.6836 0-1.086 0.5625-1.086 1.199 0 0.6289 0.4023 1.195 1.094 1.195 0.3359 0 0.625-0.1367 0.8008-0.3633l0.4414 0.3984c-0.2812 0.3242-0.7109 0.5195-1.242 0.5195-1.02 0-1.785-0.6914-1.785-1.75 0-1.043 0.7578-1.754 1.773-1.754 0.4688 0 0.9727 0.1914 1.246 0.5469l-0.4766 0.3867" fill="#231f1f"/>
<path d="m180.9 60.88c0.1562-0.3281 0.5742-0.5977 1.051-0.5977 0.8555 0 1.242 0.6094 1.242 1.355v2.059h-0.6602v-1.836c0-0.5391-0.1406-1.016-0.75-1.016-0.5156 0-0.8945 0.4336-0.8945 1.094v1.758h-0.6602v-5.297h0.6602v2.48h0.01172" fill="#231f1f"/>
<path d="m186.2 62.11c-0.6523 0-1.477 0.07422-1.477 0.6328 0 0.3906 0.3477 0.5195 0.6797 0.5195 0.6133 0 0.957-0.4141 0.957-0.9766v-0.1758zm0.1602-0.5664c0-0.4883-0.3281-0.7266-0.8164-0.7266-0.3711 0-0.7227 0.1602-0.9492 0.3828l-0.3477-0.418c0.3203-0.3086 0.8203-0.5 1.359-0.5 0.9492 0 1.387 0.5703 1.387 1.305v1.449c0 0.2266 0.01172 0.4961 0.04688 0.6602h-0.5938c-0.03516-0.1484-0.05859-0.3242-0.05859-0.4766h-0.01953c-0.2383 0.3555-0.6172 0.5586-1.113 0.5586-0.5273 0-1.203-0.2578-1.203-1.02 0-1.004 1.188-1.121 2.309-1.121v-0.09375" fill="#231f1f"/>
<path d="m188.7 60.38c0.01562 0.168 0.02734 0.4062 0.02734 0.5469h0.01953c0.1641-0.3594 0.6055-0.6406 1.082-0.6406 0.8555 0 1.238 0.6094 1.238 1.355v2.059h-0.6602v-1.844c0-0.5391-0.1445-1.016-0.7539-1.016-0.5195 0-0.8906 0.4336-0.8906 1.094v1.766h-0.6562v-2.605c0-0.1758-0.007812-0.5-0.03125-0.7148h0.625" fill="#231f1f"/>
<path d="m193.7 63.17c0.6797 0 1.129-0.5117 1.129-1.168 0-0.6328-0.457-1.172-1.129-1.172-0.6914 0-1.098 0.5352-1.098 1.172 0 0.6094 0.4062 1.168 1.098 1.168zm-1.301 1.094c0.2891 0.3242 0.7539 0.5391 1.211 0.5391 0.875 0 1.168-0.5391 1.168-1.227v-0.4258h-0.01172c-0.2461 0.3711-0.6992 0.5742-1.172 0.5742-1.016 0-1.672-0.7578-1.672-1.711 0-0.9492 0.6523-1.73 1.668-1.73 0.4766 0 0.9453 0.2109 1.195 0.625h0.01562v-0.5312h0.6367v3.152c0 0.9648-0.457 1.848-1.836 1.848-0.5742 0-1.211-0.2227-1.625-0.6016l0.4219-0.5117" fill="#231f1f"/>
<path d="m199 61.74c-0.01172-0.5234-0.3203-0.9375-0.9297-0.9375-0.5703 0-1 0.4219-1.043 0.9375zm0.6602 0.4922h-2.633c0.01953 0.5664 0.4961 1.008 1.078 1.008 0.4453 0 0.7773-0.2227 0.9648-0.5039l0.4609 0.3711c-0.3555 0.4609-0.8359 0.6797-1.426 0.6797-1.012 0-1.754-0.6992-1.754-1.746 0-1.035 0.7422-1.758 1.719-1.758 0.9805 0 1.594 0.668 1.594 1.727 0 0.06641 0 0.1445-0.003906 0.2227" fill="#231f1f"/>
<path d="m202.4 61.21c-0.1484-0.2383-0.4336-0.4141-0.7695-0.4141-0.3047 0-0.6172 0.1211-0.6172 0.4336 0 0.2812 0.25 0.3867 0.7539 0.5 0.6328 0.1367 1.117 0.3984 1.117 0.9805 0 0.7812-0.6523 1.07-1.324 1.07-0.5039 0-1.023-0.1953-1.34-0.5938l0.4688-0.4023c0.1758 0.2617 0.5117 0.4648 0.8828 0.4648 0.3281 0 0.6602-0.1211 0.6602-0.4844 0-0.3086-0.3008-0.418-0.8711-0.5547-0.4414-0.1055-0.9648-0.293-0.9648-0.9141 0-0.7148 0.625-1.02 1.254-1.02 0.4688 0 0.9648 0.1914 1.203 0.5469l-0.4531 0.3867" fill="#231f1f"/>
<path d="m127.1 68.05c-0.1992-0.2734-0.5547-0.4648-0.9688-0.4648-0.4492 0-0.9648 0.2461-0.9648 0.8047 0 0.5391 0.4531 0.6875 1.016 0.8711 0.6641 0.2109 1.457 0.4609 1.457 1.449 0 1.027-0.8359 1.504-1.719 1.504-0.6211 0-1.254-0.2422-1.629-0.7188l0.5391-0.457c0.2305 0.3438 0.6484 0.582 1.105 0.582 0.4609 0 0.9961-0.2578 0.9961-0.8477 0-0.6016-0.5469-0.7617-1.18-0.9609-0.6289-0.1953-1.289-0.4805-1.289-1.391 0-0.9883 0.8867-1.418 1.703-1.418 0.5742 0 1.113 0.2266 1.422 0.5664l-0.4883 0.4805" fill="#231f1f"/>
<path d="m130.3 72.09h-0.6914v-4.348h-1.59v-0.6094h3.871v0.6094h-1.59v4.348" fill="#231f1f"/>
<path d="m133.2 70.66h-1.625v-0.5586h1.625v0.5586" fill="#231f1f"/>
<path d="m135.9 69.61c-0.1445-0.2344-0.4336-0.4141-0.7695-0.4141-0.3008 0-0.6172 0.1211-0.6172 0.4375 0 0.2773 0.2539 0.3828 0.7578 0.4961 0.6289 0.1406 1.113 0.3984 1.113 0.9805 0 0.7852-0.6523 1.07-1.324 1.07-0.5039 0-1.023-0.1953-1.336-0.5938l0.4688-0.3984c0.1758 0.2578 0.5117 0.4609 0.8828 0.4609 0.3281 0 0.6562-0.1172 0.6562-0.4805 0-0.3125-0.3008-0.4219-0.8672-0.5547-0.4414-0.1055-0.9648-0.2969-0.9648-0.918 0-0.7148 0.6211-1.016 1.25-1.016 0.4727 0 0.9688 0.1875 1.207 0.5469l-0.457 0.3828" fill="#231f1f"/>
<path d="m139.6 70.14c-0.01562-0.5273-0.3203-0.9414-0.9297-0.9414-0.5703 0-1.004 0.4219-1.047 0.9414zm0.6602 0.4883h-2.637c0.02344 0.5703 0.5 1.012 1.078 1.012 0.4492 0 0.7812-0.2266 0.9688-0.5039l0.4609 0.3711c-0.3555 0.4609-0.8398 0.6758-1.43 0.6758-1.008 0-1.75-0.6992-1.75-1.742 0-1.035 0.7422-1.758 1.719-1.758 0.9805 0 1.598 0.6641 1.598 1.723 0 0.07031 0 0.1484-0.007812 0.2227" fill="#231f1f"/>
<path d="m142.8 71.57c0.6758 0 1.125-0.5117 1.125-1.172 0-0.6289-0.4531-1.168-1.125-1.168-0.6953 0-1.102 0.5312-1.102 1.168 0 0.6094 0.4062 1.172 1.102 1.172zm-1.305 1.09c0.2891 0.3242 0.7578 0.5391 1.211 0.5391 0.875 0 1.172-0.5391 1.172-1.223v-0.4297h-0.01562c-0.2461 0.3711-0.6992 0.5742-1.168 0.5742-1.016 0-1.676-0.7539-1.676-1.707 0-0.9531 0.6523-1.73 1.668-1.73 0.4766 0 0.9453 0.2109 1.195 0.625h0.01562v-0.5352h0.6367v3.152c0 0.9648-0.4531 1.848-1.836 1.848-0.5742 0-1.211-0.2227-1.621-0.6016l0.418-0.5117" fill="#231f1f"/>
<path d="m147.3 68.68c0.4414 0 0.8242 0.1953 1.027 0.6641 0.2266-0.4258 0.6602-0.6641 1.129-0.6641 0.8555 0 1.238 0.6094 1.238 1.352v2.059h-0.6562v-1.84c0-0.5391-0.1602-1.016-0.7344-1.016-0.6055 0-0.8398 0.543-0.8398 1.062v1.793h-0.6602v-1.977c0-0.5156-0.1758-0.8789-0.6992-0.8789-0.4844 0-0.8477 0.4336-0.8477 1.09v1.766h-0.6602v-2.605c0-0.1758-0.003907-0.4961-0.02734-0.7148h0.625c0.01172 0.168 0.02734 0.4062 0.02734 0.5469h0.01953c0.168-0.3477 0.5547-0.6367 1.059-0.6367" fill="#231f1f"/>
<path d="m154.3 70.14c-0.01562-0.5273-0.3242-0.9414-0.9336-0.9414-0.5664 0-1 0.4219-1.043 0.9414zm0.6562 0.4883h-2.633c0.02344 0.5703 0.5 1.012 1.082 1.012 0.4453 0 0.7734-0.2266 0.9648-0.5039l0.4609 0.3711c-0.3555 0.4609-0.8398 0.6758-1.426 0.6758-1.012 0-1.754-0.6992-1.754-1.742 0-1.035 0.7422-1.758 1.715-1.758 0.9805 0 1.598 0.6641 1.598 1.723 0 0.07031 0 0.1484-0.007812 0.2227" fill="#231f1f"/>
<path d="m156.5 68.77c0.01562 0.168 0.02734 0.4062 0.02734 0.5469h0.02344c0.1602-0.3555 0.6016-0.6367 1.078-0.6367 0.8516 0 1.238 0.6094 1.238 1.352v2.059h-0.6602v-1.84c0-0.5391-0.1445-1.016-0.7539-1.016-0.5195 0-0.8906 0.4336-0.8906 1.09v1.766h-0.6562v-2.605c0-0.1758-0.007813-0.4961-0.03125-0.7148h0.625" fill="#231f1f"/>
<path d="m161.6 69.31h-0.8789v1.73c0 0.3984 0.1367 0.5625 0.4688 0.5625 0.1172 0 0.2734-0.03125 0.3828-0.08594l0.02344 0.5391c-0.1562 0.05469-0.3594 0.08984-0.5625 0.08984-0.6211 0-0.9648-0.3477-0.9648-1.035v-1.801h-0.6367v-0.5391h0.6367v-0.9531h0.6523v0.9531h0.8789v0.5391" fill="#231f1f"/>
<path d="m165.5 71.63c0.6719 0 1.121-0.5625 1.121-1.199 0-0.6367-0.4492-1.203-1.121-1.203-0.7227 0-1.102 0.5742-1.102 1.195 0 0.625 0.3789 1.207 1.102 1.207zm-0.1133 0.5508c-1.023 0-1.672-0.7812-1.672-1.758 0-0.9805 0.6719-1.742 1.664-1.742 0.5391 0 0.9531 0.2656 1.184 0.5859h0.01562v-2.469h0.6562v5.293h-0.6367v-0.5234h-0.01172c-0.2539 0.3984-0.7305 0.6133-1.199 0.6133" fill="#231f1f"/>
<path d="m170.9 70.14c-0.01562-0.5273-0.3203-0.9414-0.9297-0.9414-0.5703 0-1.004 0.4219-1.047 0.9414zm0.6602 0.4883h-2.637c0.02344 0.5703 0.5 1.012 1.082 1.012 0.4453 0 0.7773-0.2266 0.9648-0.5039l0.4609 0.3711c-0.3555 0.4609-0.8398 0.6758-1.426 0.6758-1.012 0-1.75-0.6992-1.75-1.742 0-1.035 0.7383-1.758 1.715-1.758 0.9805 0 1.594 0.6641 1.594 1.723 0 0.07031 0 0.1484-0.003907 0.2227" fill="#231f1f"/>
<path d="m174.2 69.23c-0.6719 0-1.121 0.5664-1.121 1.203 0 0.6367 0.4492 1.199 1.121 1.199 0.7227 0 1.109-0.582 1.109-1.207 0-0.6211-0.3867-1.195-1.109-1.195zm-1.078 4.543h-0.6562v-5h0.6445v0.5195h0.01953c0.2188-0.3516 0.6523-0.6094 1.199-0.6094 0.9844 0 1.66 0.7617 1.66 1.742 0 0.9766-0.6523 1.758-1.676 1.758-0.4688 0-0.9258-0.2148-1.168-0.5859h-0.02344v2.176" fill="#231f1f"/>
<path d="m176.9 68.77h0.6211c0.01562 0.168 0.03125 0.4219 0.03125 0.5625h0.01953c0.1797-0.3867 0.5664-0.6523 1.016-0.6523 0.08984 0 0.1797 0.007812 0.2578 0.02734l-0.02734 0.6094c-0.08594-0.01953-0.1953-0.03516-0.3008-0.03516-0.6289 0-0.9336 0.5117-0.9336 1.066v1.742h-0.6562v-2.605c0-0.1758-0.007812-0.4961-0.02734-0.7148" fill="#231f1f"/>
<path d="m181.7 70.14c-0.01172-0.5273-0.3203-0.9414-0.9297-0.9414-0.5664 0-1 0.4219-1.043 0.9414zm0.6602 0.4883h-2.633c0.01953 0.5703 0.4961 1.012 1.078 1.012 0.4492 0 0.7773-0.2266 0.9648-0.5039l0.4648 0.3711c-0.3594 0.4609-0.8398 0.6758-1.43 0.6758-1.008 0-1.75-0.6992-1.75-1.742 0-1.035 0.7422-1.758 1.715-1.758 0.9805 0 1.598 0.6641 1.598 1.723 0 0.07031 0 0.1484-0.007812 0.2227" fill="#231f1f"/>
<path d="m185.1 69.61c-0.1484-0.2344-0.4336-0.4141-0.7695-0.4141-0.3008 0-0.6172 0.1211-0.6172 0.4375 0 0.2773 0.2539 0.3828 0.7578 0.4961 0.6289 0.1406 1.113 0.3984 1.113 0.9805 0 0.7852-0.6523 1.07-1.324 1.07-0.5039 0-1.023-0.1953-1.34-0.5938l0.4727-0.3984c0.1719 0.2578 0.5078 0.4609 0.8828 0.4609 0.3281 0 0.6562-0.1172 0.6562-0.4805 0-0.3125-0.3008-0.4219-0.8672-0.5547-0.4414-0.1055-0.9648-0.2969-0.9648-0.918 0-0.7148 0.6211-1.016 1.25-1.016 0.4688 0 0.9688 0.1875 1.207 0.5469l-0.457 0.3828" fill="#231f1f"/>
<path d="m188.2 69.61c-0.1484-0.2344-0.4336-0.4141-0.7734-0.4141-0.2969 0-0.6133 0.1211-0.6133 0.4375 0 0.2773 0.25 0.3828 0.7539 0.4961 0.6328 0.1406 1.113 0.3984 1.113 0.9805 0 0.7852-0.6484 1.07-1.32 1.07-0.5078 0-1.023-0.1953-1.34-0.5938l0.4688-0.3984c0.1758 0.2578 0.5117 0.4609 0.8828 0.4609 0.3281 0 0.6602-0.1172 0.6602-0.4805 0-0.3125-0.3008-0.4219-0.8711-0.5547-0.4414-0.1055-0.9648-0.2969-0.9648-0.918 0-0.7148 0.6211-1.016 1.254-1.016 0.4688 0 0.9648 0.1875 1.203 0.5469l-0.4531 0.3828" fill="#231f1f"/>
<path d="m190.2 72.09h-0.6602v-3.32h0.6602zm-0.332-4.098c-0.2383 0-0.4336-0.1875-0.4336-0.4219s0.1953-0.4258 0.4336-0.4258c0.2422 0 0.4414 0.1836 0.4414 0.4258 0 0.2422-0.1992 0.4219-0.4414 0.4219" fill="#231f1f"/>
<path d="m192.9 69.23c-0.707 0-1.105 0.5664-1.105 1.195 0 0.6328 0.3984 1.207 1.105 1.207 0.7148 0 1.109-0.5742 1.109-1.207 0-0.6289-0.3945-1.195-1.109-1.195zm0 2.953c-1.016 0-1.785-0.7344-1.785-1.758 0-1.02 0.7695-1.742 1.785-1.742s1.793 0.7227 1.793 1.742c0 1.023-0.7773 1.758-1.793 1.758" fill="#231f1f"/>
<path d="m196.2 68.77c0.01562 0.168 0.02734 0.4062 0.02734 0.5469h0.01953c0.1641-0.3555 0.6055-0.6367 1.082-0.6367 0.8555 0 1.238 0.6094 1.238 1.352v2.059h-0.6602v-1.84c0-0.5391-0.1445-1.016-0.7539-1.016-0.5195 0-0.8906 0.4336-0.8906 1.09v1.766h-0.6562v-2.605c0-0.1758-0.007812-0.4961-0.03125-0.7148h0.625" fill="#231f1f"/>
<path d="m137.3 80.49h-0.6914v-4.348h-1.59v-0.6094h3.871v0.6094h-1.59v4.348" fill="#231f1f"/>
<path d="m140.2 79.07h-1.625v-0.5625h1.625v0.5625" fill="#231f1f"/>
<path d="m141.3 77.18 0.75 2.535h0.01562l0.7891-2.535h0.6953l0.8047 2.535h0.01562l0.7461-2.535h0.6953l-1.102 3.316h-0.6836l-0.8203-2.492h-0.01562l-0.8125 2.492h-0.6836l-1.109-3.316h0.7148" fill="#231f1f"/>
<path d="m148.4 78.91c-0.6484 0-1.477 0.07031-1.477 0.6289 0 0.3945 0.3516 0.5195 0.6797 0.5195 0.6172 0 0.9609-0.4102 0.9609-0.9727v-0.1758zm0.1641-0.5664c0-0.4883-0.332-0.7266-0.8203-0.7266-0.3711 0-0.7227 0.1602-0.9453 0.3828l-0.3516-0.4219c0.3242-0.3047 0.8203-0.4922 1.359-0.4922 0.9531 0 1.387 0.5664 1.387 1.301v1.449c0 0.2227 0.01563 0.4961 0.04688 0.6562h-0.5938c-0.03516-0.1445-0.05469-0.3203-0.05469-0.4727h-0.02344c-0.2344 0.3555-0.6133 0.5586-1.113 0.5586-0.5234 0-1.203-0.2578-1.203-1.023 0-1 1.191-1.121 2.312-1.121v-0.08984" fill="#231f1f"/>
<path d="m151.9 80.49h-0.7148l-1.352-3.316h0.7266l0.9727 2.609h0.01562l0.9805-2.609h0.6992l-1.328 3.316" fill="#231f1f"/>
<path d="m156.2 78.54c-0.01172-0.5234-0.3203-0.9375-0.9297-0.9375-0.5664 0-1.004 0.4219-1.043 0.9375zm0.6602 0.4922h-2.633c0.01953 0.5664 0.4961 1.008 1.078 1.008 0.4492 0 0.7773-0.2227 0.9648-0.5039l0.4609 0.3711c-0.3555 0.4609-0.8398 0.6797-1.426 0.6797-1.008 0-1.75-0.6992-1.75-1.746 0-1.035 0.7422-1.754 1.715-1.754 0.9805 0 1.594 0.6602 1.594 1.719 0 0.07031 0 0.1484-0.003906 0.2266" fill="#231f1f"/>
<path d="m160.2 80.49h-0.6562v-3.316h0.6562zm-0.3281-4.094c-0.2383 0-0.4336-0.1914-0.4336-0.4219 0-0.2383 0.1953-0.4258 0.4336-0.4258s0.4414 0.1797 0.4414 0.4258c0 0.2383-0.2031 0.4219-0.4414 0.4219" fill="#231f1f"/>
<path d="m162 77.18c0.01562 0.168 0.03125 0.4023 0.03125 0.5469h0.01953c0.1602-0.3594 0.6016-0.6367 1.078-0.6367 0.8555 0 1.238 0.6055 1.238 1.348v2.059h-0.6562v-1.84c0-0.5391-0.1484-1.016-0.7578-1.016-0.5156 0-0.8867 0.4336-0.8867 1.094v1.762h-0.6602v-2.602c0-0.1758-0.007812-0.5-0.02734-0.7148h0.6211" fill="#231f1f"/>
<path d="m167 80.49h-0.7148l-1.352-3.316h0.7266l0.9727 2.609h0.01563l0.9805-2.609h0.6992l-1.328 3.316" fill="#231f1f"/>
<path d="m171.4 78.54c-0.01172-0.5234-0.3203-0.9375-0.9297-0.9375-0.5664 0-1.004 0.4219-1.043 0.9375zm0.6602 0.4922h-2.633c0.01953 0.5664 0.4961 1.008 1.078 1.008 0.4453 0 0.7773-0.2227 0.9648-0.5039l0.4648 0.3711c-0.3594 0.4609-0.8438 0.6797-1.43 0.6797-1.008 0-1.754-0.6992-1.754-1.746 0-1.035 0.7461-1.754 1.719-1.754 0.9805 0 1.598 0.6602 1.598 1.719 0 0.07031 0 0.1484-0.007812 0.2266" fill="#231f1f"/>
<path d="m173 77.18h0.6211c0.01563 0.168 0.03125 0.418 0.03125 0.5586h0.01953c0.1836-0.3828 0.5664-0.6484 1.016-0.6484 0.08984 0 0.1797 0.003906 0.2578 0.02344l-0.02734 0.6133c-0.08594-0.02344-0.1953-0.03906-0.3008-0.03906-0.6289 0-0.9336 0.5117-0.9336 1.066v1.742h-0.6562v-2.602c0-0.1758-0.007812-0.5-0.02734-0.7148" fill="#231f1f"/>
<path d="m177.3 78.02c-0.1484-0.2383-0.4375-0.4141-0.7734-0.4141-0.3008 0-0.6133 0.1211-0.6133 0.4336 0 0.2812 0.25 0.3867 0.7539 0.4961 0.6328 0.1406 1.113 0.4023 1.113 0.9844 0 0.7812-0.6484 1.07-1.324 1.07-0.5039 0-1.02-0.1953-1.336-0.5977l0.4688-0.3984c0.1758 0.2617 0.5117 0.4648 0.8828 0.4648 0.332 0 0.6602-0.1211 0.6602-0.4844 0-0.3086-0.3047-0.4219-0.8711-0.5547-0.4414-0.1055-0.9648-0.293-0.9648-0.918 0-0.7109 0.6211-1.012 1.254-1.012 0.4688 0 0.9648 0.1875 1.203 0.543l-0.4531 0.3867" fill="#231f1f"/>
<path d="m179.3 80.49h-0.6602v-3.316h0.6602zm-0.332-4.094c-0.2383 0-0.4336-0.1914-0.4336-0.4219 0-0.2383 0.1953-0.4258 0.4336-0.4258s0.4414 0.1797 0.4414 0.4258c0 0.2383-0.2031 0.4219-0.4414 0.4219" fill="#231f1f"/>
<path d="m182 77.63c-0.707 0-1.105 0.5664-1.105 1.199 0 0.6289 0.3984 1.203 1.105 1.203 0.7148 0 1.105-0.5742 1.105-1.203 0-0.6328-0.3906-1.199-1.105-1.199zm0 2.957c-1.016 0-1.785-0.7344-1.785-1.758s0.7695-1.742 1.785-1.742 1.793 0.7188 1.793 1.742-0.7773 1.758-1.793 1.758" fill="#231f1f"/>
<path d="m185.3 77.18c0.01172 0.168 0.02734 0.4023 0.02734 0.5469h0.02344c0.1602-0.3594 0.6016-0.6367 1.074-0.6367 0.8555 0 1.242 0.6055 1.242 1.348v2.059h-0.6602v-1.84c0-0.5391-0.1445-1.016-0.7539-1.016-0.5195 0-0.8906 0.4336-0.8906 1.094v1.762h-0.6602v-2.602c0-0.1758-0.003907-0.5-0.02734-0.7148h0.625" fill="#231f1f"/>
<path d="m92.25 70.55h-92v-17.25h92v17.25" fill="#fef0ca"/>
<path transform="matrix(.1 0 0 -.1 0 204.1)" d="m922.5 1335h-920v172.5h920z" fill="none" stroke="#231f1f" stroke-width="5"/>
<path d="m14.86 60.28c-0.1953-0.2695-0.5508-0.4609-0.9648-0.4609-0.4492 0-0.9688 0.2461-0.9688 0.8047 0 0.5391 0.457 0.6875 1.016 0.8711 0.668 0.207 1.457 0.4609 1.457 1.449 0 1.031-0.832 1.504-1.715 1.504-0.625 0-1.254-0.2461-1.633-0.7188l0.5391-0.457c0.2344 0.3438 0.6523 0.582 1.109 0.582 0.4609 0 0.9922-0.2578 0.9922-0.8477 0-0.6016-0.5469-0.7656-1.176-0.9609-0.6289-0.1953-1.289-0.4805-1.289-1.391 0-0.9883 0.8828-1.418 1.703-1.418 0.5742 0 1.113 0.2266 1.422 0.5703l-0.4922 0.4727" fill="#231f1f"/>
<path d="m18.01 64.32h-0.6953v-4.348h-1.59v-0.6094h3.875v0.6094h-1.59v4.348" fill="#231f1f"/>
<path d="m20.95 62.89h-1.625v-0.5586h1.625v0.5586" fill="#231f1f"/>
<path d="m23.62 61.84c-0.1484-0.2383-0.4336-0.4102-0.7695-0.4102-0.3047 0-0.6172 0.1172-0.6172 0.4336 0 0.2773 0.25 0.3828 0.7539 0.4961 0.6328 0.1406 1.117 0.3984 1.117 0.9805 0 0.7852-0.6523 1.07-1.324 1.07-0.5039 0-1.023-0.1953-1.34-0.5938l0.4688-0.3984c0.1758 0.2578 0.5117 0.4609 0.8828 0.4609 0.332 0 0.6602-0.1172 0.6602-0.4844 0-0.3047-0.3008-0.418-0.8672-0.5508-0.4414-0.1055-0.9688-0.293-0.9688-0.918 0-0.7148 0.625-1.016 1.254-1.016 0.4688 0 0.9688 0.1875 1.203 0.5469l-0.4531 0.3828" fill="#231f1f"/>
<path d="m27.37 62.37c-0.01563-0.5273-0.3242-0.9375-0.9336-0.9375-0.5664 0-1 0.418-1.043 0.9375zm0.6562 0.4883h-2.633c0.01953 0.5703 0.4961 1.008 1.078 1.008 0.4492 0 0.7773-0.2227 0.9688-0.5039l0.4609 0.3711c-0.3594 0.4648-0.8398 0.6797-1.43 0.6797-1.008 0-1.75-0.6992-1.75-1.742 0-1.035 0.7422-1.758 1.715-1.758 0.9805 0 1.598 0.6641 1.598 1.723 0 0.07031 0 0.1484-0.007812 0.2227" fill="#231f1f"/>
<path d="m30.51 63.8c0.6797 0 1.129-0.5117 1.129-1.172 0-0.6289-0.457-1.168-1.129-1.168-0.6914 0-1.098 0.5312-1.098 1.168 0 0.6094 0.4062 1.172 1.098 1.172zm-1.301 1.09c0.2852 0.3242 0.7539 0.5391 1.211 0.5391 0.875 0 1.168-0.5391 1.168-1.227v-0.4258h-0.01172c-0.2461 0.3711-0.7031 0.5742-1.172 0.5742-1.016 0-1.672-0.7539-1.672-1.707s0.6523-1.73 1.668-1.73c0.4727 0 0.9453 0.2109 1.195 0.6211h0.01562v-0.5312h0.6367v3.152c0 0.9648-0.457 1.848-1.836 1.848-0.5742 0-1.211-0.2227-1.625-0.6016l0.4219-0.5117" fill="#231f1f"/>
<path d="m35.07 60.91c0.4414 0 0.8242 0.1953 1.027 0.6641 0.2266-0.4258 0.6602-0.6641 1.129-0.6641 0.8555 0 1.238 0.6094 1.238 1.352v2.059h-0.6562v-1.844c0-0.5391-0.1641-1.012-0.7383-1.012-0.6016 0-0.8398 0.543-0.8398 1.062v1.793h-0.6562v-1.973c0-0.5195-0.1758-0.8828-0.7031-0.8828-0.4805 0-0.8477 0.4336-0.8477 1.09v1.766h-0.6562v-2.605c0-0.1758-0.007813-0.4961-0.02734-0.7148h0.6211c0.01562 0.168 0.02734 0.4062 0.02734 0.5469h0.02344c0.168-0.3516 0.5508-0.6367 1.059-0.6367" fill="#231f1f"/>
<path d="m42.01 62.37c-0.01562-0.5273-0.3242-0.9375-0.9336-0.9375-0.5664 0-1 0.418-1.043 0.9375zm0.6562 0.4883h-2.633c0.01953 0.5703 0.4961 1.008 1.078 1.008 0.4492 0 0.7773-0.2227 0.9648-0.5039l0.4648 0.3711c-0.3594 0.4648-0.8398 0.6797-1.43 0.6797-1.008 0-1.75-0.6992-1.75-1.742 0-1.035 0.7422-1.758 1.715-1.758 0.9805 0 1.598 0.6641 1.598 1.723 0 0.07031 0 0.1484-0.007812 0.2227" fill="#231f1f"/>
<path d="m44.18 61c0.01562 0.168 0.03125 0.4062 0.03125 0.5469h0.01953c0.1602-0.3555 0.6016-0.6367 1.078-0.6367 0.8555 0 1.238 0.6094 1.238 1.352v2.059h-0.6562v-1.844c0-0.5391-0.1484-1.012-0.7578-1.012-0.5156 0-0.8867 0.4336-0.8867 1.09v1.766h-0.6602v-2.605c0-0.1758-0.007813-0.4961-0.02734-0.7148h0.6211" fill="#231f1f"/>
<path d="m49.29 61.54h-0.8828v1.73c0 0.3984 0.1406 0.5625 0.4688 0.5625 0.1211 0 0.2734-0.03125 0.3867-0.08594l0.01953 0.5391c-0.1523 0.05859-0.3555 0.09375-0.5586 0.09375-0.625 0-0.9688-0.3516-0.9688-1.039v-1.801h-0.6367v-0.5391h0.6367v-0.9531h0.6523v0.9531h0.8828v0.5391" fill="#231f1f"/>
<path d="m54.15 62.37c-0.01563-0.5273-0.3242-0.9375-0.9336-0.9375-0.5664 0-1 0.418-1.043 0.9375zm0.6562 0.4883h-2.633c0.02344 0.5703 0.4961 1.008 1.078 1.008 0.4492 0 0.7773-0.2227 0.9688-0.5039l0.4609 0.3711c-0.3555 0.4648-0.8398 0.6797-1.43 0.6797-1.008 0-1.75-0.6992-1.75-1.742 0-1.035 0.7422-1.758 1.715-1.758 0.9805 0 1.598 0.6641 1.598 1.723 0 0.07031 0 0.1484-0.007812 0.2227" fill="#231f1f"/>
<path d="m56.4 64.32h-0.6602v-5.293h0.6602v5.293" fill="#231f1f"/>
<path d="m59.98 62.37c-0.01172-0.5273-0.3203-0.9375-0.9297-0.9375-0.5664 0-1 0.418-1.043 0.9375zm0.6602 0.4883h-2.633c0.01953 0.5703 0.4961 1.008 1.078 1.008 0.4492 0 0.7773-0.2227 0.9648-0.5039l0.4648 0.3711c-0.3594 0.4648-0.8398 0.6797-1.43 0.6797-1.008 0-1.75-0.6992-1.75-1.742 0-1.035 0.7422-1.758 1.715-1.758 0.9805 0 1.598 0.6641 1.598 1.723 0 0.07031 0 0.1484-0.007812 0.2227" fill="#231f1f"/>
<path d="m63.12 64.32h-0.7148l-1.352-3.32h0.7305l0.9727 2.613h0.01172l0.9805-2.613h0.7031l-1.332 3.32" fill="#231f1f"/>
<path d="m66.99 62.74c-0.6523 0-1.477 0.07031-1.477 0.6289 0 0.3945 0.3477 0.5195 0.6797 0.5195 0.6133 0 0.957-0.4141 0.957-0.9727v-0.1758zm0.1602-0.5664c0-0.4922-0.3281-0.7305-0.8164-0.7305-0.375 0-0.7227 0.1602-0.9492 0.3867l-0.3477-0.4219c0.3203-0.3086 0.8164-0.4961 1.359-0.4961 0.9492 0 1.387 0.5664 1.387 1.301v1.449c0 0.2266 0.01172 0.5 0.04688 0.6602h-0.5938c-0.03516-0.1445-0.05859-0.3203-0.05859-0.4766h-0.01953c-0.2383 0.3555-0.6172 0.5625-1.113 0.5625-0.5234 0-1.203-0.2617-1.203-1.023 0-1 1.188-1.121 2.309-1.121v-0.08984" fill="#231f1f"/>
<path d="m70.44 61.54h-0.8828v1.73c0 0.3984 0.1406 0.5625 0.4688 0.5625 0.1172 0 0.2734-0.03125 0.3867-0.08594l0.01953 0.5391c-0.1562 0.05859-0.3594 0.09375-0.5625 0.09375-0.6211 0-0.9648-0.3516-0.9648-1.039v-1.801h-0.6367v-0.5391h0.6367v-0.9531h0.6523v0.9531h0.8828v0.5391" fill="#231f1f"/>
<path d="m71.78 64.32h-0.6602v-3.32h0.6602zm-0.332-4.098c-0.2383 0-0.4336-0.1875-0.4336-0.418 0-0.2383 0.1953-0.4297 0.4336-0.4297s0.4414 0.1836 0.4414 0.4297c0 0.2383-0.2031 0.418-0.4414 0.418" fill="#231f1f"/>
<path d="m74.5 61.46c-0.707 0-1.105 0.5664-1.105 1.195 0 0.6328 0.3984 1.207 1.105 1.207 0.7148 0 1.105-0.5742 1.105-1.207 0-0.6289-0.3906-1.195-1.105-1.195zm0 2.953c-1.016 0-1.785-0.7344-1.785-1.758 0-1.02 0.7695-1.742 1.785-1.742s1.793 0.7227 1.793 1.742c0 1.023-0.7773 1.758-1.793 1.758" fill="#231f1f"/>
<path d="m77.79 61c0.01172 0.168 0.02734 0.4062 0.02734 0.5469h0.01953c0.1641-0.3555 0.6055-0.6367 1.078-0.6367 0.8555 0 1.242 0.6094 1.242 1.352v2.059h-0.6602v-1.844c0-0.5391-0.1445-1.012-0.7539-1.012-0.5195 0-0.8906 0.4336-0.8906 1.09v1.766h-0.6602v-2.605c0-0.1758-0.003906-0.4961-0.02734-0.7148h0.625" fill="#231f1f"/>
<path d="m92.25 120.7h-92v-17.25h92v17.25" fill="#fef0ca"/>
<path transform="matrix(.1 0 0 -.1 0 204.1)" d="m922.5 833.6h-920v172.5h920z" fill="none" stroke="#231f1f" stroke-width="5"/>
<path d="m39.18 110.4c-0.1992-0.2734-0.5547-0.4609-0.9688-0.4609-0.4453 0-0.9648 0.2422-0.9648 0.8047 0 0.5391 0.4531 0.6836 1.016 0.8672 0.6641 0.2109 1.457 0.4609 1.457 1.449 0 1.031-0.8359 1.508-1.719 1.508-0.6211 0-1.254-0.2461-1.629-0.7227l0.5391-0.457c0.2305 0.3438 0.6484 0.582 1.105 0.582 0.4609 0 0.9961-0.2578 0.9961-0.8477 0-0.6016-0.5469-0.7617-1.18-0.957-0.6289-0.1953-1.289-0.4844-1.289-1.395 0-0.9883 0.8828-1.414 1.703-1.414 0.5742 0 1.113 0.2227 1.422 0.5664l-0.4883 0.4766" fill="#231f1f"/>
<path d="m42.32 114.5h-0.6914v-4.348h-1.59v-0.6094h3.871v0.6094h-1.59v4.348" fill="#231f1f"/>
<path d="m45.26 113.9h2.59v0.6133h-3.285v-4.957h3.18v0.6094h-2.484v1.484h2.336v0.5977h-2.336v1.652" fill="#231f1f"/>
<path d="m51.34 113.3h0.01562l1.465-3.812h1.078v4.957h-0.6953v-4.145h-0.01172l-1.648 4.145h-0.4414l-1.637-4.145h-0.01563v4.145h-0.6719v-4.957h1.078l1.484 3.812" fill="#231f1f"/>
<path d="m55.79 114.5h-0.6953v-4.957h0.6953v4.957" fill="#231f1f"/>
<path d="m207.6 120.9h-92v-17.25h92v17.25" fill="#fef0ca"/>
<path transform="matrix(.1 0 0 -.1 0 204.1)" d="m2076 831.4h-920v172.5h920z" fill="none" stroke="#231f1f" stroke-width="5"/>
<path d="m149 114.3h0.01562v-3.965h0.6914v4.957h-0.875l-2.621-4.047h-0.01172v4.047h-0.6953v-4.957h0.9062l2.59 3.965" fill="#231f1f"/>
<path d="m153.4 111.3c-0.1953-0.2734-0.5547-0.4648-0.9648-0.4648-0.4492 0-0.9688 0.2461-0.9688 0.8047 0 0.543 0.457 0.6875 1.016 0.8711 0.6641 0.2109 1.457 0.4609 1.457 1.449 0 1.031-0.832 1.504-1.715 1.504-0.625 0-1.254-0.2422-1.633-0.7188l0.5391-0.457c0.2305 0.3438 0.6523 0.582 1.105 0.582 0.4648 0 0.9961-0.2578 0.9961-0.8477 0-0.6016-0.5469-0.7617-1.176-0.9609-0.6328-0.1953-1.289-0.4805-1.289-1.391 0-0.9883 0.8828-1.418 1.703-1.418 0.5742 0 1.113 0.2266 1.418 0.5703l-0.4883 0.4766" fill="#231f1f"/>
<path d="m156.5 115.3h-0.6953v-4.348h-1.59v-0.6094h3.871v0.6094h-1.586v4.348" fill="#231f1f"/>
<path d="m159.5 114.7h2.59v0.6172h-3.285v-4.957h3.18v0.6094h-2.484v1.484h2.34v0.5938h-2.34v1.652" fill="#231f1f"/>
<path d="m164.3 113.9h-1.625v-0.5625h1.625v0.5625" fill="#231f1f"/>
<path d="m166.2 113.5h1.855l-0.9258-2.324zm-0.7422 1.828h-0.7695l2.148-4.957h0.6289l2.129 4.957h-0.7812l-0.5039-1.219h-2.355l-0.4961 1.219" fill="#231f1f"/>
<path d="m174.3 114.5c-0.3867 0.5234-1.023 0.8945-1.891 0.8945-1.52 0-2.613-1.082-2.613-2.609 0-1.551 1.137-2.602 2.641-2.602 0.6797 0 1.414 0.2656 1.781 0.7734l-0.5469 0.418c-0.2383-0.3359-0.7227-0.5781-1.234-0.5781-1.148 0-1.883 0.9023-1.883 1.988 0 1.113 0.7188 1.996 1.863 1.996 0.5508 0 1.035-0.2305 1.328-0.6602l0.5547 0.3789" fill="#231f1f"/>
<path d="m177.5 111.3c-0.1992-0.2734-0.5547-0.4648-0.9688-0.4648-0.4492 0-0.9648 0.2461-0.9648 0.8047 0 0.543 0.4531 0.6875 1.016 0.8711 0.6641 0.2109 1.457 0.4609 1.457 1.449 0 1.031-0.8359 1.504-1.715 1.504-0.625 0-1.258-0.2422-1.633-0.7188l0.5391-0.457c0.2305 0.3438 0.6484 0.582 1.105 0.582 0.4609 0 0.9922-0.2578 0.9922-0.8477 0-0.6016-0.543-0.7617-1.176-0.9609-0.6289-0.1953-1.285-0.4805-1.285-1.391 0-0.9883 0.8789-1.418 1.699-1.418 0.5742 0 1.113 0.2266 1.422 0.5703l-0.4883 0.4766" fill="#231f1f"/>
<path transform="matrix(.1 0 0 -.1 0 204.1)" d="m1039 1813v-126.7" fill="none" stroke="#231f1f" stroke-width="5"/>
<path transform="matrix(.1 0 0 -.1 0 204.1)" d="m1615 1183v-136.1" fill="none" stroke="#231f1f" stroke-width="5"/>
<path d="m161.5 103.1c-0.6328-1.703-1.711-3.816-2.855-5.129l2.855 1.035 2.852-1.035c-1.141 1.312-2.219 3.426-2.852 5.129" fill="#231f1f"/>
<path transform="matrix(.1 0 0 -.1 0 204.1)" d="m1272 716.5v-123.6" fill="none" stroke="#231f1f" stroke-width="5"/>
<path d="m127.2 148.3c-0.6289-1.703-1.711-3.82-2.852-5.129l2.852 1.031 2.855-1.031c-1.145 1.309-2.223 3.426-2.855 5.129" fill="#231f1f"/>
<path transform="matrix(.1 0 0 -.1 0 204.1)" d="m2006 716.5v-123.6" fill="none" stroke="#231f1f" stroke-width="5"/>
<path d="m200.6 148.3c-0.6328-1.703-1.711-3.82-2.855-5.129l2.855 1.031 2.852-1.031c-1.141 1.309-2.223 3.426-2.852 5.129" fill="#231f1f"/>
<path transform="matrix(.1 0 0 -.1 0 204.1)" d="m1272 332.4v-129.5" fill="none" stroke="#231f1f" stroke-width="5"/>
<path d="m127.2 187.3c-0.6289-1.703-1.711-3.82-2.852-5.129l2.852 1.031 2.855-1.031c-1.145 1.309-2.223 3.426-2.855 5.129" fill="#231f1f"/>
<path transform="matrix(.1 0 0 -.1 0 204.1)" d="m2006 333.8v-131" fill="none" stroke="#231f1f" stroke-width="5"/>
<path d="m200.6 187.3c-0.6328-1.703-1.711-3.82-2.855-5.129l2.855 1.031 2.852-1.031c-1.141 1.309-2.223 3.426-2.852 5.129" fill="#231f1f"/>
<path transform="matrix(.1 0 0 -.1 0 204.1)" d="m467.7 1685 1.484-137" fill="none" stroke="#231f1f" stroke-width="5"/>
<path d="m46.92 52.93c-0.6328-1.703-1.711-3.82-2.855-5.129l2.855 1.031 2.852-1.031c-1.141 1.309-2.223 3.426-2.852 5.129" fill="#231f1f"/>
<path transform="matrix(.1 0 0 -.1 0 204.1)" d="m1614 1685 1.484-137" fill="none" stroke="#231f1f" stroke-width="5"/>
<path d="m161.6 52.93c-0.6367-1.703-1.715-3.82-2.855-5.129l2.855 1.031 2.852-1.031c-1.141 1.309-2.223 3.426-2.852 5.129" fill="#231f1f"/>
<path transform="matrix(.1 0 0 -.1 0 204.1)" d="m463.8 1335 1.992-289.6" fill="none" stroke="#231f1f" stroke-width="5"/>
<path d="m46.58 103.2c-0.6328-1.703-1.711-3.816-2.852-5.129l2.852 1.031 2.855-1.031c-1.145 1.312-2.223 3.426-2.855 5.129" fill="#231f1f"/>
<g clip-path="url(#d)">
<path d="m233.1 170.8h-65.66v-21.69h65.66v21.69" fill="#fef0ca"/>
</g>
<g clip-path="url(#c)">
<path transform="matrix(.1 0 0 -.1 0 204.1)" d="m2331 332.6h-656.6v216.9h656.6z" fill="none" stroke="#231f1f" stroke-width="5"/>
</g>
<path d="m179.9 156.8h0.01172v-3.965h0.6953v4.961h-0.875l-2.621-4.051h-0.01562v4.051h-0.6914v-4.961h0.9023l2.594 3.965" fill="#231f1f"/>
<path d="m183.4 154.9c-0.707 0-1.105 0.5703-1.105 1.199 0 0.6328 0.3984 1.203 1.105 1.203 0.7148 0 1.105-0.5703 1.105-1.203 0-0.6289-0.3906-1.199-1.105-1.199zm0 2.957c-1.016 0-1.785-0.7344-1.785-1.758 0-1.023 0.7695-1.742 1.785-1.742 1.016 0 1.793 0.7188 1.793 1.742 0 1.023-0.7773 1.758-1.793 1.758" fill="#231f1f"/>
<path d="m186 154.4h0.625c0.01172 0.168 0.02734 0.418 0.02734 0.5586h0.02344c0.1797-0.3828 0.5664-0.6484 1.012-0.6484 0.09375 0 0.1836 0.003906 0.2617 0.02734l-0.02734 0.6094c-0.08594-0.02344-0.1992-0.03516-0.3047-0.03516-0.6289 0-0.9297 0.5117-0.9297 1.062v1.746h-0.6602v-2.605c0-0.1758-0.003906-0.4961-0.02734-0.7148" fill="#231f1f"/>
<path d="m190.3 154.3c0.4414 0 0.8281 0.1953 1.031 0.6641 0.2227-0.4297 0.6562-0.6641 1.125-0.6641 0.8555 0 1.238 0.6055 1.238 1.352v2.059h-0.6562v-1.844c0-0.5391-0.1602-1.016-0.7344-1.016-0.6055 0-0.8438 0.5469-0.8438 1.066v1.793h-0.6562v-1.977c0-0.5156-0.1758-0.8828-0.6992-0.8828-0.4844 0-0.8477 0.4336-0.8477 1.094v1.766h-0.6602v-2.605c0-0.1758-0.007812-0.4961-0.02734-0.7148h0.6211c0.01563 0.168 0.03125 0.4062 0.03125 0.5469h0.01953c0.168-0.3516 0.5547-0.6367 1.059-0.6367" fill="#231f1f"/>
<path d="m196.7 156.2c-0.6523 0-1.477 0.07031-1.477 0.6289 0 0.3906 0.3516 0.5195 0.6797 0.5195 0.6172 0 0.9609-0.4141 0.9609-0.9727v-0.1758zm0.1641-0.5703c0-0.4883-0.332-0.7266-0.8203-0.7266-0.3711 0-0.7227 0.1602-0.9453 0.3867l-0.3516-0.4219c0.3242-0.3086 0.8203-0.4961 1.359-0.4961 0.9531 0 1.387 0.5664 1.387 1.301v1.449c0 0.2266 0.01172 0.5 0.04688 0.6602h-0.5938c-0.03516-0.1484-0.05469-0.3242-0.05469-0.4766h-0.02344c-0.2383 0.3555-0.6172 0.5586-1.113 0.5586-0.5234 0-1.203-0.2578-1.203-1.02 0-1.004 1.191-1.121 2.312-1.121v-0.09375" fill="#231f1f"/>
<path d="m199.3 157.8h-0.6602v-5.297h0.6602v5.297" fill="#231f1f"/>
<path d="m204.5 155.3c-0.1406-0.2188-0.4492-0.3789-0.7617-0.3789-0.6875 0-1.086 0.5625-1.086 1.199 0 0.6289 0.3984 1.195 1.09 1.195 0.3359 0 0.625-0.1367 0.8008-0.3633l0.4414 0.3984c-0.2812 0.3242-0.707 0.5195-1.242 0.5195-1.02 0-1.785-0.6914-1.785-1.75 0-1.043 0.7578-1.75 1.773-1.75 0.4688 0 0.9727 0.1875 1.246 0.543l-0.4766 0.3867" fill="#231f1f"/>
<path d="m207.5 156.2c-0.6523 0-1.48 0.07031-1.48 0.6289 0 0.3906 0.3516 0.5195 0.6797 0.5195 0.6172 0 0.9609-0.4141 0.9609-0.9727v-0.1758zm0.1602-0.5703c0-0.4883-0.3281-0.7266-0.8203-0.7266-0.3711 0-0.7227 0.1602-0.9453 0.3867l-0.3477-0.4219c0.3203-0.3086 0.8164-0.4961 1.355-0.4961 0.9531 0 1.387 0.5664 1.387 1.301v1.449c0 0.2266 0.01562 0.5 0.05078 0.6602h-0.5977c-0.03516-0.1484-0.05469-0.3242-0.05469-0.4766h-0.01953c-0.2383 0.3555-0.6172 0.5586-1.113 0.5586-0.5273 0-1.207-0.2578-1.207-1.02 0-1.004 1.191-1.121 2.312-1.121v-0.09375" fill="#231f1f"/>
<path d="m209.4 154.4h0.625c0.01172 0.168 0.02734 0.418 0.02734 0.5586h0.01953c0.1836-0.3828 0.5664-0.6484 1.016-0.6484 0.08984 0 0.1836 0.003906 0.2578 0.02734l-0.02734 0.6094c-0.08203-0.02344-0.1953-0.03516-0.3008-0.03516-0.6289 0-0.9297 0.5117-0.9297 1.062v1.746h-0.6602v-2.605c0-0.1758-0.003906-0.4961-0.02734-0.7148" fill="#231f1f"/>
<path d="m213.4 157.3c0.6758 0 1.121-0.5586 1.121-1.195 0-0.6367-0.4453-1.207-1.121-1.207-0.7188 0-1.098 0.5781-1.098 1.199 0 0.625 0.3789 1.203 1.098 1.203zm-0.1094 0.5547c-1.023 0-1.676-0.7852-1.676-1.758 0-0.9805 0.6719-1.742 1.668-1.742 0.5391 0 0.9531 0.2656 1.184 0.5859h0.01562v-2.473h0.6562v5.297h-0.6367v-0.5273h-0.01562c-0.25 0.4023-0.7266 0.6172-1.195 0.6172" fill="#231f1f"/>
<path d="m216.9 157.8h-0.6602v-3.32h0.6602zm-0.3281-4.098c-0.2383 0-0.4375-0.1875-0.4375-0.4219 0-0.2383 0.1992-0.4258 0.4375-0.4258 0.2383 0 0.4414 0.1836 0.4414 0.4258 0 0.2383-0.2031 0.4219-0.4414 0.4219" fill="#231f1f"/>
<path d="m220 156.2c-0.6484 0-1.477 0.07031-1.477 0.6289 0 0.3906 0.3516 0.5195 0.6797 0.5195 0.6172 0 0.9609-0.4141 0.9609-0.9727v-0.1758zm0.1641-0.5703c0-0.4883-0.332-0.7266-0.8203-0.7266-0.3711 0-0.7227 0.1602-0.9453 0.3867l-0.3516-0.4219c0.3242-0.3086 0.8203-0.4961 1.359-0.4961 0.9531 0 1.387 0.5664 1.387 1.301v1.449c0 0.2266 0.01563 0.5 0.05078 0.6602h-0.5977c-0.03516-0.1484-0.05469-0.3242-0.05469-0.4766h-0.02344c-0.2383 0.3555-0.6133 0.5586-1.113 0.5586-0.5234 0-1.203-0.2578-1.203-1.02 0-1.004 1.191-1.121 2.312-1.121v-0.09375" fill="#231f1f"/>
<path d="m224.2 155.3c-0.1406-0.2188-0.4492-0.3789-0.7617-0.3789-0.6875 0-1.086 0.5625-1.086 1.199 0 0.6289 0.3984 1.195 1.094 1.195 0.3359 0 0.6211-0.1367 0.7969-0.3633l0.4414 0.3984c-0.2812 0.3242-0.707 0.5195-1.238 0.5195-1.023 0-1.785-0.6914-1.785-1.75 0-1.043 0.7539-1.75 1.77-1.75 0.4688 0 0.9727 0.1875 1.246 0.543l-0.4766 0.3867" fill="#231f1f"/>
<path d="m178.6 163.4h-0.8828v1.73c0 0.4023 0.1406 0.5625 0.4688 0.5625 0.1211 0 0.2773-0.02734 0.3867-0.08594l0.01953 0.5391c-0.1523 0.05859-0.3555 0.08984-0.5586 0.08984-0.625 0-0.9648-0.3477-0.9648-1.035v-1.801h-0.6406v-0.5391h0.6406v-0.9492h0.6484v0.9492h0.8828v0.5391" fill="#231f1f"/>
<path d="m179.3 162.8h0.6211c0.01562 0.168 0.02734 0.4219 0.02734 0.5625h0.02344c0.1797-0.3867 0.5664-0.6523 1.016-0.6523 0.08984 0 0.1797 0.007812 0.2578 0.02734l-0.02734 0.6094c-0.08203-0.01953-0.1953-0.03516-0.3008-0.03516-0.6328 0-0.9336 0.5117-0.9336 1.066v1.742h-0.6562v-2.605c0-0.1758-0.007813-0.4961-0.02734-0.7148" fill="#231f1f"/>
<path d="m183.3 163.3c-0.707 0-1.105 0.5664-1.105 1.195 0 0.6328 0.3984 1.207 1.105 1.207 0.7148 0 1.105-0.5742 1.105-1.207 0-0.6289-0.3906-1.195-1.105-1.195zm0 2.953c-1.016 0-1.785-0.7344-1.785-1.758 0-1.02 0.7695-1.742 1.785-1.742s1.793 0.7227 1.793 1.742c0 1.023-0.7773 1.758-1.793 1.758" fill="#231f1f"/>
<path d="m187.7 163.3c-0.6719 0-1.121 0.5664-1.121 1.203 0 0.6406 0.4492 1.199 1.121 1.199 0.7227 0 1.105-0.582 1.105-1.207 0-0.6211-0.3828-1.195-1.105-1.195zm-1.078 4.543h-0.6562v-5h0.6406v0.5195h0.02344c0.2148-0.3516 0.6484-0.6094 1.195-0.6094 0.9883 0 1.66 0.7656 1.66 1.742 0 0.9766-0.6523 1.758-1.672 1.758-0.4688 0-0.9258-0.2148-1.172-0.5859h-0.01953v2.176" fill="#231f1f"/>
<path d="m192 163.3c-0.707 0-1.105 0.5664-1.105 1.195 0 0.6328 0.3984 1.207 1.105 1.207 0.7148 0 1.105-0.5742 1.105-1.207 0-0.6289-0.3906-1.195-1.105-1.195zm0 2.953c-1.016 0-1.785-0.7344-1.785-1.758 0-1.02 0.7695-1.742 1.785-1.742 1.016 0 1.793 0.7227 1.793 1.742 0 1.023-0.7773 1.758-1.793 1.758" fill="#231f1f"/>
<path d="m195.3 162.8c0.01562 0.168 0.02734 0.4062 0.02734 0.5469h0.02344c0.1602-0.3555 0.6016-0.6367 1.078-0.6367 0.8516 0 1.238 0.6094 1.238 1.352v2.059h-0.6602v-1.84c0-0.5391-0.1445-1.016-0.7539-1.016-0.5195 0-0.8906 0.4336-0.8906 1.09v1.766h-0.6562v-2.605c0-0.1758-0.007813-0.4961-0.03125-0.7148h0.625" fill="#231f1f"/>
<path d="m199.4 166.2h-0.6602v-3.32h0.6602zm-0.3281-4.098c-0.2383 0-0.4375-0.1875-0.4375-0.418 0-0.2383 0.1992-0.4297 0.4375-0.4297 0.2344 0 0.4375 0.1836 0.4375 0.4297 0 0.2383-0.2031 0.418-0.4375 0.418" fill="#231f1f"/>
<path d="m201.2 162.8c0.01562 0.168 0.02734 0.4062 0.02734 0.5469h0.02344c0.1602-0.3555 0.6016-0.6367 1.078-0.6367 0.8555 0 1.238 0.6094 1.238 1.352v2.059h-0.6602v-1.84c0-0.5391-0.1445-1.016-0.7539-1.016-0.5195 0-0.8906 0.4336-0.8906 1.09v1.766h-0.6562v-2.605c0-0.1758-0.007812-0.4961-0.03125-0.7148h0.625" fill="#231f1f"/>
<path d="m207.1 166.2h-0.6602v-5.293h0.6602v5.293" fill="#231f1f"/>
<path d="m210.7 164.2c-0.01562-0.5234-0.3242-0.9375-0.9336-0.9375-0.5664 0-1 0.418-1.043 0.9375zm0.6562 0.4883h-2.633c0.01953 0.5703 0.4961 1.012 1.078 1.012 0.4492 0 0.7773-0.2266 0.9648-0.5039l0.4648 0.3711c-0.3594 0.4609-0.8398 0.6758-1.43 0.6758-1.008 0-1.75-0.6992-1.75-1.742 0-1.035 0.7422-1.758 1.715-1.758 0.9805 0 1.598 0.6641 1.598 1.723 0 0.07031 0 0.1484-0.007813 0.2227" fill="#231f1f"/>
<path d="m213.8 166.2h-0.7148l-1.352-3.32h0.7305l0.9727 2.613h0.01562l0.9766-2.613h0.7031l-1.332 3.32" fill="#231f1f"/>
<path d="m218.2 164.2c-0.01563-0.5234-0.3242-0.9375-0.9336-0.9375-0.5664 0-1 0.418-1.043 0.9375zm0.6562 0.4883h-2.633c0.02344 0.5703 0.4961 1.012 1.078 1.012 0.4492 0 0.7773-0.2266 0.9648-0.5039l0.4648 0.3711c-0.3594 0.4609-0.8398 0.6758-1.43 0.6758-1.008 0-1.75-0.6992-1.75-1.742 0-1.035 0.7422-1.758 1.715-1.758 0.9805 0 1.598 0.6641 1.598 1.723 0 0.07031 0 0.1484-0.007812 0.2227" fill="#231f1f"/>
<path d="m220.5 166.2h-0.6602v-5.293h0.6602v5.293" fill="#231f1f"/>
<path d="m223.4 163.7c-0.1445-0.2383-0.4336-0.4141-0.7695-0.4141-0.3008 0-0.6172 0.1172-0.6172 0.4336 0 0.2812 0.2539 0.3828 0.7578 0.4961 0.6289 0.1406 1.113 0.3984 1.113 0.9805 0 0.7852-0.6523 1.07-1.324 1.07-0.5039 0-1.023-0.1953-1.34-0.5938l0.4727-0.3984c0.1719 0.2578 0.5117 0.4609 0.8828 0.4609 0.3281 0 0.6562-0.1172 0.6562-0.4805 0-0.3086-0.3008-0.4219-0.8672-0.5547-0.4414-0.1055-0.9688-0.293-0.9688-0.918 0-0.7148 0.625-1.016 1.254-1.016 0.4688 0 0.9688 0.1875 1.207 0.5469l-0.457 0.3867" fill="#231f1f"/>
<path d="m158.8 170.8h-65.67v-21.69h65.67v21.69" fill="#fef0ca"/>
<path transform="matrix(.1 0 0 -.1 0 204.1)" d="m1588 332.6h-656.7v216.9h656.7z" fill="none" stroke="#231f1f" stroke-width="5"/>
<path d="m100.8 157.1h2.594v0.6172h-3.285v-4.961h3.18v0.6094h-2.488v1.484h2.34v0.5977h-2.34v1.652" fill="#231f1f"/>
<path d="m104.9 157.8h-0.6602v-5.297h0.6602v5.297" fill="#231f1f"/>
<path d="m108.5 155.8c-0.01562-0.5273-0.3242-0.9414-0.9336-0.9414-0.5664 0-1 0.4219-1.043 0.9414zm0.6562 0.4883h-2.633c0.02344 0.5664 0.4961 1.008 1.078 1.008 0.4492 0 0.7773-0.2227 0.9688-0.5039l0.4609 0.3711c-0.3555 0.4648-0.8398 0.6797-1.43 0.6797-1.008 0-1.75-0.6992-1.75-1.742 0-1.039 0.7422-1.758 1.715-1.758 0.9805 0 1.598 0.6641 1.598 1.723 0 0.07031 0 0.1445-0.007813 0.2227" fill="#231f1f"/>
<path d="m111.6 157.8h-0.7148l-1.348-3.32h0.7266l0.9727 2.613h0.01562l0.9805-2.613h0.6992l-1.332 3.32" fill="#231f1f"/>
<path d="m115.5 156.2c-0.6484 0-1.477 0.07031-1.477 0.6289 0 0.3906 0.3516 0.5195 0.6797 0.5195 0.6172 0 0.9609-0.4141 0.9609-0.9727v-0.1758zm0.1641-0.5703c0-0.4883-0.332-0.7266-0.8203-0.7266-0.3711 0-0.7227 0.1602-0.9453 0.3867l-0.3516-0.4219c0.3242-0.3086 0.8203-0.4961 1.359-0.4961 0.9531 0 1.387 0.5664 1.387 1.301v1.449c0 0.2266 0.01172 0.5 0.04688 0.6602h-0.5938c-0.03516-0.1484-0.05469-0.3242-0.05469-0.4766h-0.02344c-0.2383 0.3555-0.6133 0.5586-1.113 0.5586-0.5234 0-1.203-0.2578-1.203-1.02 0-1.004 1.191-1.121 2.312-1.121v-0.09375" fill="#231f1f"/>
<path d="m119 155h-0.8828v1.73c0 0.3984 0.1406 0.5586 0.4688 0.5586 0.1211 0 0.2734-0.02734 0.3867-0.08203l0.01953 0.5391c-0.1523 0.05469-0.3555 0.08984-0.5586 0.08984-0.625 0-0.9688-0.3516-0.9688-1.035v-1.801h-0.6367v-0.5391h0.6367v-0.9531h0.6523v0.9531h0.8828v0.5391" fill="#231f1f"/>
<path d="m122.1 155.8c-0.01562-0.5273-0.3242-0.9414-0.9336-0.9414-0.5664 0-1 0.4219-1.043 0.9414zm0.6562 0.4883h-2.633c0.01953 0.5664 0.4961 1.008 1.078 1.008 0.4492 0 0.7773-0.2227 0.9688-0.5039l0.4609 0.3711c-0.3594 0.4648-0.8398 0.6797-1.43 0.6797-1.008 0-1.75-0.6992-1.75-1.742 0-1.039 0.7422-1.758 1.715-1.758 0.9805 0 1.598 0.6641 1.598 1.723 0 0.07031 0 0.1445-0.007812 0.2227" fill="#231f1f"/>
<path d="m125.2 157.3c0.6719 0 1.121-0.5586 1.121-1.195 0-0.6367-0.4492-1.207-1.121-1.207-0.7227 0-1.098 0.5781-1.098 1.199 0 0.625 0.375 1.203 1.098 1.203zm-0.1094 0.5547c-1.023 0-1.676-0.7852-1.676-1.758 0-0.9805 0.6719-1.742 1.668-1.742 0.5391 0 0.9531 0.2656 1.184 0.5859h0.01172v-2.473h0.6602v5.297h-0.6367v-0.5273h-0.01562c-0.25 0.4023-0.7266 0.6172-1.195 0.6172" fill="#231f1f"/>
<path d="m132.2 155.3c-0.1406-0.2188-0.4492-0.3789-0.7656-0.3789-0.6875 0-1.086 0.5625-1.086 1.199 0 0.6289 0.3984 1.195 1.094 1.195 0.3359 0 0.6211-0.1367 0.7969-0.3633l0.4414 0.3984c-0.2773 0.3242-0.707 0.5195-1.238 0.5195-1.023 0-1.785-0.6914-1.785-1.75 0-1.043 0.7539-1.75 1.77-1.75 0.4688 0 0.9766 0.1875 1.25 0.543l-0.4766 0.3867" fill="#231f1f"/>
<path d="m135.2 156.2c-0.6523 0-1.477 0.07031-1.477 0.6289 0 0.3906 0.3516 0.5195 0.6797 0.5195 0.6133 0 0.957-0.4141 0.957-0.9727v-0.1758zm0.1602-0.5703c0-0.4883-0.3281-0.7266-0.8164-0.7266-0.3711 0-0.7227 0.1602-0.9453 0.3867l-0.3516-0.4219c0.3203-0.3086 0.8203-0.4961 1.359-0.4961 0.9531 0 1.387 0.5664 1.387 1.301v1.449c0 0.2266 0.01172 0.5 0.04688 0.6602h-0.5938c-0.03516-0.1484-0.05469-0.3242-0.05469-0.4766h-0.02344c-0.2383 0.3555-0.6172 0.5586-1.113 0.5586-0.5234 0-1.203-0.2578-1.203-1.02 0-1.004 1.191-1.121 2.309-1.121v-0.09375" fill="#231f1f"/>
<path d="m137.1 154.4h0.6211c0.01563 0.168 0.02734 0.418 0.02734 0.5586h0.02344c0.1797-0.3828 0.5664-0.6484 1.016-0.6484 0.08984 0 0.1797 0.003906 0.2578 0.02734l-0.02734 0.6094c-0.08594-0.02344-0.1953-0.03516-0.3008-0.03516-0.6328 0-0.9336 0.5117-0.9336 1.062v1.746h-0.6562v-2.605c0-0.1758-0.007812-0.4961-0.02734-0.7148" fill="#231f1f"/>
<path d="m141.1 157.3c0.6719 0 1.121-0.5586 1.121-1.195 0-0.6367-0.4492-1.207-1.121-1.207-0.7227 0-1.098 0.5781-1.098 1.199 0 0.625 0.375 1.203 1.098 1.203zm-0.1094 0.5547c-1.023 0-1.676-0.7852-1.676-1.758 0-0.9805 0.6719-1.742 1.664-1.742 0.543 0 0.9531 0.2656 1.188 0.5859h0.01172v-2.473h0.6602v5.297h-0.6367v-0.5273h-0.01562c-0.2539 0.4023-0.7266 0.6172-1.195 0.6172" fill="#231f1f"/>
<path d="m144.6 157.8h-0.6562v-3.32h0.6562zm-0.3281-4.098c-0.2383 0-0.4336-0.1875-0.4336-0.4219 0-0.2383 0.1953-0.4258 0.4336-0.4258 0.2383 0 0.4414 0.1836 0.4414 0.4258 0 0.2383-0.2031 0.4219-0.4414 0.4219" fill="#231f1f"/>
<path d="m147.7 156.2c-0.6523 0-1.477 0.07031-1.477 0.6289 0 0.3906 0.3477 0.5195 0.6758 0.5195 0.6172 0 0.9609-0.4141 0.9609-0.9727v-0.1758zm0.1602-0.5703c0-0.4883-0.3281-0.7266-0.8203-0.7266-0.3711 0-0.7188 0.1602-0.9453 0.3867l-0.3477-0.4219c0.3203-0.3086 0.8164-0.4961 1.355-0.4961 0.9531 0 1.391 0.5664 1.391 1.301v1.449c0 0.2266 0.01172 0.5 0.04688 0.6602h-0.5938c-0.03516-0.1484-0.05859-0.3242-0.05859-0.4766h-0.01953c-0.2383 0.3555-0.6172 0.5586-1.113 0.5586-0.5273 0-1.203-0.2578-1.203-1.02 0-1.004 1.188-1.121 2.309-1.121v-0.09375" fill="#231f1f"/>
<path d="m151.9 155.3c-0.1406-0.2188-0.4492-0.3789-0.7656-0.3789-0.6836 0-1.086 0.5625-1.086 1.199 0 0.6289 0.4023 1.195 1.094 1.195 0.3359 0 0.625-0.1367 0.8008-0.3633l0.4375 0.3984c-0.2773 0.3242-0.707 0.5195-1.238 0.5195-1.023 0-1.785-0.6914-1.785-1.75 0-1.043 0.7578-1.75 1.77-1.75 0.4727 0 0.9766 0.1875 1.25 0.543l-0.4766 0.3867" fill="#231f1f"/>
<path d="m104.3 163.4h-0.8828v1.73c0 0.4023 0.1367 0.5625 0.4688 0.5625 0.1172 0 0.2734-0.02734 0.3828-0.08594l0.02344 0.5391c-0.1562 0.05859-0.3594 0.08984-0.5625 0.08984-0.6211 0-0.9648-0.3477-0.9648-1.035v-1.801h-0.6367v-0.5391h0.6367v-0.9492h0.6523v0.9492h0.8828v0.5391" fill="#231f1f"/>
<path d="m105 162.8h0.625c0.01172 0.168 0.02734 0.4219 0.02734 0.5625h0.01953c0.1836-0.3867 0.5664-0.6523 1.016-0.6523 0.08984 0 0.1836 0.007812 0.2578 0.02734l-0.02734 0.6094c-0.08203-0.01953-0.1953-0.03516-0.3008-0.03516-0.6289 0-0.9297 0.5117-0.9297 1.066v1.742h-0.6602v-2.605c0-0.1758-0.007812-0.4961-0.02734-0.7148" fill="#231f1f"/>
<path d="m109 163.3c-0.707 0-1.105 0.5664-1.105 1.195 0 0.6328 0.3984 1.207 1.105 1.207 0.7148 0 1.105-0.5742 1.105-1.207 0-0.6289-0.3906-1.195-1.105-1.195zm0 2.953c-1.016 0-1.785-0.7344-1.785-1.758 0-1.02 0.7695-1.742 1.785-1.742s1.793 0.7227 1.793 1.742c0 1.023-0.7773 1.758-1.793 1.758" fill="#231f1f"/>
<path d="m113.4 163.3c-0.6719 0-1.121 0.5664-1.121 1.203 0 0.6406 0.4492 1.199 1.121 1.199 0.7227 0 1.109-0.582 1.109-1.207 0-0.6211-0.3867-1.195-1.109-1.195zm-1.078 4.543h-0.6562v-5h0.6445v0.5195h0.01953c0.2188-0.3516 0.6523-0.6094 1.195-0.6094 0.9883 0 1.664 0.7656 1.664 1.742 0 0.9766-0.6523 1.758-1.676 1.758-0.4688 0-0.9258-0.2148-1.168-0.5859h-0.02344v2.176" fill="#231f1f"/>
<path d="m117.7 163.3c-0.7109 0-1.109 0.5664-1.109 1.195 0 0.6328 0.3984 1.207 1.109 1.207 0.7109 0 1.105-0.5742 1.105-1.207 0-0.6289-0.3945-1.195-1.105-1.195zm0 2.953c-1.02 0-1.789-0.7344-1.789-1.758 0-1.02 0.7695-1.742 1.789-1.742 1.012 0 1.789 0.7227 1.789 1.742 0 1.023-0.7773 1.758-1.789 1.758" fill="#231f1f"/>
<path d="m121 162.8c0.01562 0.168 0.02734 0.4062 0.02734 0.5469h0.02344c0.1602-0.3555 0.6016-0.6367 1.078-0.6367 0.8555 0 1.238 0.6094 1.238 1.352v2.059h-0.6562v-1.84c0-0.5391-0.1484-1.016-0.7578-1.016-0.5195 0-0.8906 0.4336-0.8906 1.09v1.766h-0.6562v-2.605c0-0.1758-0.007812-0.4961-0.02734-0.7148h0.6211" fill="#231f1f"/>
<path d="m125.1 166.2h-0.6602v-3.32h0.6602zm-0.3281-4.098c-0.2383 0-0.4336-0.1875-0.4336-0.418 0-0.2383 0.1953-0.4297 0.4336-0.4297 0.2383 0 0.4414 0.1836 0.4414 0.4297 0 0.2383-0.2031 0.418-0.4414 0.418" fill="#231f1f"/>
<path d="m126.9 162.8c0.01562 0.168 0.02734 0.4062 0.02734 0.5469h0.02344c0.1602-0.3555 0.6016-0.6367 1.078-0.6367 0.8555 0 1.238 0.6094 1.238 1.352v2.059h-0.6562v-1.84c0-0.5391-0.1484-1.016-0.7578-1.016-0.5195 0-0.8867 0.4336-0.8867 1.09v1.766h-0.6602v-2.605c0-0.1758-0.007813-0.4961-0.02734-0.7148h0.6211" fill="#231f1f"/>
<path d="m132.8 166.2h-0.6602v-5.293h0.6602v5.293" fill="#231f1f"/>
<path d="m136.3 164.2c-0.01563-0.5234-0.3242-0.9375-0.9336-0.9375-0.5664 0-1 0.418-1.043 0.9375zm0.6562 0.4883h-2.633c0.02344 0.5703 0.5 1.012 1.078 1.012 0.4492 0 0.7773-0.2266 0.9688-0.5039l0.4609 0.3711c-0.3555 0.4609-0.8398 0.6758-1.43 0.6758-1.008 0-1.75-0.6992-1.75-1.742 0-1.035 0.7422-1.758 1.715-1.758 0.9805 0 1.598 0.6641 1.598 1.723 0 0.07031 0 0.1484-0.007812 0.2227" fill="#231f1f"/>
<path d="m139.5 166.2h-0.7148l-1.352-3.32h0.7305l0.9727 2.613h0.01562l0.9805-2.613h0.6992l-1.332 3.32" fill="#231f1f"/>
<path d="m143.9 164.2c-0.01562-0.5234-0.3242-0.9375-0.9336-0.9375-0.5664 0-1 0.418-1.043 0.9375zm0.6562 0.4883h-2.633c0.02344 0.5703 0.5 1.012 1.078 1.012 0.4492 0 0.7773-0.2266 0.9688-0.5039l0.4609 0.3711c-0.3555 0.4609-0.8398 0.6758-1.43 0.6758-1.008 0-1.75-0.6992-1.75-1.742 0-1.035 0.7422-1.758 1.715-1.758 0.9844 0 1.598 0.6641 1.598 1.723 0 0.07031 0 0.1484-0.007812 0.2227" fill="#231f1f"/>
<path d="m146.1 166.2h-0.6602v-5.293h0.6602v5.293" fill="#231f1f"/>
<path d="m149.1 163.7c-0.1445-0.2383-0.4336-0.4141-0.7695-0.4141-0.3008 0-0.6172 0.1172-0.6172 0.4336 0 0.2812 0.2539 0.3828 0.7578 0.4961 0.6289 0.1406 1.113 0.3984 1.113 0.9805 0 0.7852-0.6523 1.07-1.324 1.07-0.5039 0-1.023-0.1953-1.336-0.5938l0.4688-0.3984c0.1758 0.2578 0.5117 0.4609 0.8828 0.4609 0.3281 0 0.6562-0.1172 0.6562-0.4805 0-0.3086-0.3008-0.4219-0.8672-0.5547-0.4414-0.1055-0.9648-0.293-0.9648-0.918 0-0.7148 0.6211-1.016 1.254-1.016 0.4688 0 0.9648 0.1875 1.203 0.5469l-0.457 0.3867" fill="#231f1f"/>
<g clip-path="url(#b)">
<path d="m233.1 203.3h-65.66v-15.86h65.66v15.86" fill="#fef0ca"/>
<path transform="matrix(.1 0 0 -.1 0 204.1)" d="m2331 7.519h-656.6v158.6h656.6z" fill="none" stroke="#231f1f" stroke-width="5"/>
</g>
<path d="m174.7 196.6v-3.125h0.6953v3.082c0 0.6797 0.3086 1.379 1.23 1.379 0.9258 0 1.234-0.6992 1.234-1.379v-3.082h0.6953v3.125c0 1.016-0.6172 1.961-1.93 1.961-1.309 0-1.926-0.9453-1.926-1.961" fill="#231f1f"/>
<path d="m180.3 195.1c0.01562 0.168 0.03125 0.4062 0.03125 0.543h0.01953c0.1602-0.3555 0.6016-0.6367 1.078-0.6367 0.8555 0 1.238 0.6094 1.238 1.352v2.062h-0.6562v-1.844c0-0.5391-0.1445-1.016-0.7578-1.016-0.5156 0-0.8867 0.4336-0.8867 1.094v1.766h-0.6602v-2.609c0-0.1719-0.003906-0.4961-0.02734-0.7109h0.6211" fill="#231f1f"/>
<path d="m185.6 195.9c-0.1484-0.2383-0.4336-0.4141-0.7695-0.4141-0.3008 0-0.6172 0.1172-0.6172 0.4336 0 0.2812 0.2539 0.3867 0.7578 0.4961 0.6289 0.1406 1.113 0.4023 1.113 0.9805 0 0.7852-0.6523 1.074-1.324 1.074-0.5039 0-1.023-0.1953-1.34-0.5977l0.4727-0.3984c0.1719 0.2578 0.5078 0.4609 0.8789 0.4609 0.332 0 0.6602-0.1172 0.6602-0.4805 0-0.3086-0.3008-0.4219-0.8672-0.5547-0.4414-0.1055-0.9688-0.293-0.9688-0.918 0-0.7148 0.625-1.016 1.254-1.016 0.4688 0 0.9688 0.1914 1.207 0.5469l-0.457 0.3867" fill="#231f1f"/>
<path d="m188.5 195.6h-0.8828v1.727c0 0.4023 0.1406 0.5625 0.4688 0.5625 0.1172 0 0.2734-0.02734 0.3828-0.08203l0.02344 0.5391c-0.1562 0.05469-0.3594 0.08984-0.5586 0.08984-0.625 0-0.9688-0.3516-0.9688-1.039v-1.797h-0.6367v-0.5391h0.6367v-0.9531h0.6523v0.9531h0.8828v0.5391" fill="#231f1f"/>
<path d="m191.1 196.8c-0.6523 0-1.477 0.07031-1.477 0.6328 0 0.3906 0.3477 0.5156 0.6758 0.5156 0.6172 0 0.9609-0.4141 0.9609-0.9727v-0.1758zm0.1602-0.5664c0-0.4922-0.3281-0.7305-0.8203-0.7305-0.3711 0-0.7188 0.1641-0.9414 0.3867l-0.3516-0.418c0.3203-0.3086 0.8164-0.5 1.355-0.5 0.9531 0 1.387 0.5664 1.387 1.305v1.449c0 0.2227 0.01562 0.4961 0.05078 0.6602h-0.5938c-0.03516-0.1484-0.05469-0.3242-0.05469-0.4805h-0.02344c-0.2383 0.3594-0.6172 0.5625-1.113 0.5625-0.5273 0-1.203-0.2617-1.203-1.023 0-1 1.188-1.121 2.309-1.121v-0.08984" fill="#231f1f"/>
<path d="m194.8 195.6c-0.6719 0-1.121 0.5664-1.121 1.207 0 0.6367 0.4492 1.195 1.121 1.195 0.7188 0 1.105-0.582 1.105-1.203 0-0.625-0.3867-1.199-1.105-1.199zm-1.102 2.34v0.5273h-0.6367v-5.297h0.6602v2.473h0.01953c0.2227-0.3242 0.6367-0.5898 1.184-0.5898 0.9883 0 1.66 0.7656 1.66 1.746 0 0.9727-0.6523 1.758-1.676 1.758-0.4688 0-0.9375-0.2188-1.195-0.6172h-0.01562" fill="#231f1f"/>
<path d="m198.1 198.4h-0.6562v-5.297h0.6562v5.297" fill="#231f1f"/>
<path d="m201.7 196.5c-0.01172-0.5234-0.3203-0.9375-0.9297-0.9375-0.5703 0-1.004 0.418-1.043 0.9375zm0.6602 0.4922h-2.633c0.01953 0.5664 0.4961 1.008 1.078 1.008 0.4492 0 0.7773-0.2266 0.9648-0.5039l0.4609 0.3711c-0.3555 0.4609-0.8398 0.6797-1.426 0.6797-1.008 0-1.754-0.7031-1.754-1.746 0-1.035 0.7461-1.758 1.719-1.758 0.9805 0 1.598 0.668 1.598 1.723 0 0.07031 0 0.1484-0.007813 0.2266" fill="#231f1f"/>
<path d="m206.9 196.8c-0.6523 0-1.48 0.07031-1.48 0.6328 0 0.3906 0.3516 0.5156 0.6797 0.5156 0.6172 0 0.9609-0.4141 0.9609-0.9727v-0.1758zm0.1602-0.5664c0-0.4922-0.332-0.7305-0.8203-0.7305-0.3711 0-0.7227 0.1641-0.9453 0.3867l-0.3516-0.418c0.3242-0.3086 0.8203-0.5 1.359-0.5 0.9531 0 1.387 0.5664 1.387 1.305v1.449c0 0.2227 0.01563 0.4961 0.05078 0.6602h-0.5977c-0.03516-0.1484-0.05469-0.3242-0.05469-0.4805h-0.01953c-0.2383 0.3594-0.6172 0.5625-1.117 0.5625-0.5234 0-1.203-0.2617-1.203-1.023 0-1 1.191-1.121 2.312-1.121v-0.08984" fill="#231f1f"/>
<path d="m209.4 195.1c0.01172 0.168 0.02734 0.4062 0.02734 0.543h0.01953c0.1641-0.3555 0.6016-0.6367 1.078-0.6367 0.8555 0 1.238 0.6094 1.238 1.352v2.062h-0.6562v-1.844c0-0.5391-0.1484-1.016-0.7578-1.016-0.5156 0-0.8867 0.4336-0.8867 1.094v1.766h-0.6602v-2.609c0-0.1719-0.007813-0.4961-0.02734-0.7109h0.625" fill="#231f1f"/>
<path d="m214.5 197.9c0.6797 0 1.129-0.5117 1.129-1.168 0-0.6328-0.457-1.172-1.129-1.172-0.6953 0-1.102 0.5312-1.102 1.172 0 0.6055 0.4062 1.168 1.102 1.168zm-1.305 1.094c0.2891 0.3203 0.7578 0.5391 1.215 0.5391 0.875 0 1.168-0.5391 1.168-1.227v-0.4297h-0.01562c-0.2422 0.3711-0.6992 0.5781-1.168 0.5781-1.016 0-1.676-0.7578-1.676-1.711 0-0.9531 0.6523-1.73 1.668-1.73 0.4766 0 0.9453 0.2109 1.199 0.625h0.01172v-0.5312h0.6367v3.152c0 0.9648-0.4531 1.848-1.832 1.848-0.5742 0-1.211-0.2266-1.625-0.6055l0.418-0.5078" fill="#231f1f"/>
<path d="m218 198.4h-0.6602v-3.32h0.6602zm-0.3281-4.098c-0.2383 0-0.4375-0.1914-0.4375-0.4219 0-0.2383 0.1992-0.4258 0.4375-0.4258 0.2383 0 0.4414 0.1797 0.4414 0.4258 0 0.2383-0.2031 0.4219-0.4414 0.4219" fill="#231f1f"/>
<path d="m219.7 195.1c0.01562 0.168 0.02734 0.4062 0.02734 0.543h0.02344c0.1602-0.3555 0.6016-0.6367 1.078-0.6367 0.8555 0 1.238 0.6094 1.238 1.352v2.062h-0.6562v-1.844c0-0.5391-0.1484-1.016-0.7578-1.016-0.5195 0-0.8906 0.4336-0.8906 1.094v1.766h-0.6562v-2.609c0-0.1719-0.007813-0.4961-0.03125-0.7109h0.625" fill="#231f1f"/>
<path d="m225.1 196.8c-0.6484 0-1.477 0.07031-1.477 0.6328 0 0.3906 0.3516 0.5156 0.6797 0.5156 0.6172 0 0.957-0.4141 0.957-0.9727v-0.1758zm0.1602-0.5664c0-0.4922-0.3281-0.7305-0.8164-0.7305-0.3711 0-0.7227 0.1641-0.9453 0.3867l-0.3516-0.418c0.3203-0.3086 0.8203-0.5 1.359-0.5 0.9531 0 1.387 0.5664 1.387 1.305v1.449c0 0.2227 0.01562 0.4961 0.04688 0.6602h-0.5938c-0.03516-0.1484-0.05469-0.3242-0.05469-0.4805h-0.02344c-0.2344 0.3594-0.6172 0.5625-1.113 0.5625-0.5234 0-1.203-0.2617-1.203-1.023 0-1 1.191-1.121 2.309-1.121v-0.08984" fill="#231f1f"/>
<path d="m158.8 203.8h-65.67v-16.36h65.67v16.36" fill="#fef0ca"/>
<g clip-path="url(#a)">
<path transform="matrix(.1 0 0 -.1 0 204.1)" d="m1588 2.519h-656.7v163.6h656.7z" fill="none" stroke="#231f1f" stroke-width="5"/>
</g>
<path d="m117.2 197.1h0.01562v-3.965h0.6914v4.961h-0.875l-2.621-4.051h-0.01172v4.051h-0.6953v-4.961h0.9062l2.59 3.965" fill="#231f1f"/>
<path d="m121.6 194.1c-0.1953-0.2734-0.5547-0.4609-0.9648-0.4609-0.4492 0-0.9688 0.2422-0.9688 0.8047 0 0.5391 0.4531 0.6836 1.016 0.8672 0.6641 0.2109 1.457 0.4648 1.457 1.449 0 1.031-0.832 1.508-1.715 1.508-0.625 0-1.254-0.2461-1.633-0.7227l0.5391-0.457c0.2305 0.3477 0.6523 0.582 1.105 0.582 0.4648 0 0.9961-0.2578 0.9961-0.8477 0-0.6016-0.5469-0.7617-1.176-0.957-0.6328-0.1953-1.289-0.4844-1.289-1.395 0-0.9883 0.8828-1.414 1.699-1.414 0.5742 0 1.113 0.2227 1.426 0.5664l-0.4922 0.4766" fill="#231f1f"/>
<path d="m124.7 198.1h-0.6914v-4.352h-1.59v-0.6094h3.871v0.6094h-1.59v4.352" fill="#231f1f"/>
<path d="m127.7 197.5h2.59v0.6172h-3.285v-4.961h3.18v0.6094h-2.484v1.484h2.34v0.5977h-2.34v1.652" fill="#231f1f"/>
<path d="m133.8 196.9h0.01172l1.465-3.809h1.078v4.961h-0.6953v-4.148h-0.01172l-1.645 4.148h-0.4414l-1.641-4.148h-0.01562v4.148h-0.6719v-4.961h1.078l1.488 3.809" fill="#231f1f"/>
<path d="m138.2 198.1h-0.6914v-4.961h0.6914v4.961" fill="#231f1f"/>
<path transform="matrix(.1 0 0 -.1 0 204.1)" d="m464.4 1683h1151" fill="none" stroke="#231f1f" stroke-width="5"/>
<path transform="matrix(.1 0 0 -.1 0 204.1)" d="m1271 716.4h735.2" fill="none" stroke="#231f1f" stroke-width="5"/>
<path transform="matrix(.1 0 0 -.1 0 204.1)" d="m1620 831.9v-111.9" fill="none" stroke="#231f1f" stroke-width="5"/>
</svg>
