<?xml version="1.0" encoding="UTF-8"?>
<svg viewBox="0 0 225 87.1" xmlns="http://www.w3.org/2000/svg">
<defs>
<clipPath id="ah">
<path d="m0 4h55v83.1h-55z"/>
</clipPath>
<clipPath id="ag">
<path d="m2.719 87.1c-0.2148-3.203 0.5469-11.34 2.293-15.74 1.199-3.027 3.48-5.477 1.773-7.609-1.707-2.137-5.316-8.863-6.203-16.68-0.7227-6.359-0.5742-12.93 3.656-20.68 3.992-7.324 11.91-15.18 24.96-16.64 9.801-1.094 13.38 1.539 16.58 2.605 3.199 1.066 5.766 0.03125 6.359-1.406 0.6328-1.539 0.03906-3.277-1.668-5.84 0.5703-0.2578 1.406-0.8828 1.719-1.094 0.3633 0.8359 2.293 3.391 2.605 5.422 0.3125 2.035-0.5703 3.703-1.926 4.641-1.367 0.9453-2.816 0.832-2.555 1.926 0.2617 1.098 0.2578 2.922 0.1016 4.277-0.08984 0.8008-0.3125 1.668-0.9375 1.719-0.625 0.05078-0.7812-0.418-0.7305-1.406 0.05469-0.9922-0.3633-2.504-0.625-2.867-0.2617-0.3672-0.4688 0.207-0.5195 1.043-0.05469 0.832 0.5742 3.855 0.5195 6.148-0.03906 1.723-0.5195 3.961-1.824 4.172-1.301 0.207-2.344-2.035-2.449-5.941-0.1055-3.91-0.75-7.621-2.527-9.121-2.688-2.27-10.3-2.695-16.71-0.9258-6.41 1.773-10.53 5.051-11.68 6.301-1.145 1.25-1.766 2.492-1.711 4.004 0.05078 1.512-0.05469 3.336-1.043 4.273-0.9922 0.9414-2.605 1.305-3.387 0.8867-0.05469 0.4688-0.7852 1.723-1.41 2.605-0.625 0.8867-0.5195 2.141-1.355 3.129-0.5312 0.6289 0.05469 0.3125-0.1016 2.293-0.1562 1.98-0.1055 4.223-0.5742 5.422s-0.418 2.137-0.2617 2.711c0.1562 0.5742 1.043 3.336 0.9922 4.742-0.02734 0.7383 1.25 2.504 1.094 4.117-0.06641 0.707 0.03516 1.914 0.7305 2.504 1.719 1.461 1.668 2.449 2.188 3.961 0.2891 0.8398 0.5234 2.973 1.355 3.074 0.8359 0.1055 2.867 0.7812 5.016 1.977 4.266 2.371 10.02 7.586 12.55 16.74 0.4141 1.492-0.06641 1.855-0.7305 0.3125-2.812-6.555-7.688-13.87-15.69-16.32 0.9375 0.5234 1.406 1.617 1.301 4.016-0.02734 0.6328-0.832 2.242-1.562 2.398s-0.1562 0.3594-0.1562 0.8828c0 1.512-0.7812 1.617-0.3125 2.086s0.418 3.023 0.1055 3.703c-0.3164 0.6758-0.5742 1.25-0.1562 2.082 0.4141 0.8359 0.3086 3.754-0.003906 6.047"/>
</clipPath>
<clipPath id="v">
<path d="m2.719 87.1c-0.2148-3.203 0.5469-11.34 2.293-15.74 1.199-3.027 3.48-5.477 1.773-7.609-1.707-2.137-5.316-8.863-6.203-16.68-0.7227-6.359-0.5742-12.93 3.656-20.68 3.992-7.324 11.91-15.18 24.96-16.64 9.801-1.094 13.38 1.539 16.58 2.605 3.199 1.066 5.766 0.03125 6.359-1.406 0.6328-1.539 0.03906-3.277-1.668-5.84 0.5703-0.2578 1.406-0.8828 1.719-1.094 0.3633 0.8359 2.293 3.391 2.605 5.422 0.3125 2.035-0.5703 3.703-1.926 4.641-1.367 0.9453-2.816 0.832-2.555 1.926 0.2617 1.098 0.2578 2.922 0.1016 4.277-0.08984 0.8008-0.3125 1.668-0.9375 1.719-0.625 0.05078-0.7812-0.418-0.7305-1.406 0.05469-0.9922-0.3633-2.504-0.625-2.867-0.2617-0.3672-0.4688 0.207-0.5195 1.043-0.05469 0.832 0.5742 3.855 0.5195 6.148-0.03906 1.723-0.5195 3.961-1.824 4.172-1.301 0.207-2.344-2.035-2.449-5.941-0.1055-3.91-0.75-7.621-2.527-9.121-2.688-2.27-10.3-2.695-16.71-0.9258-6.41 1.773-10.53 5.051-11.68 6.301-1.145 1.25-1.766 2.492-1.711 4.004 0.05078 1.512-0.05469 3.336-1.043 4.273-0.9922 0.9414-2.605 1.305-3.387 0.8867-0.05469 0.4688-0.7852 1.723-1.41 2.605-0.625 0.8867-0.5195 2.141-1.355 3.129-0.5312 0.6289 0.05469 0.3125-0.1016 2.293-0.1562 1.98-0.1055 4.223-0.5742 5.422s-0.418 2.137-0.2617 2.711c0.1562 0.5742 1.043 3.336 0.9922 4.742-0.02734 0.7383 1.25 2.504 1.094 4.117-0.06641 0.707 0.03516 1.914 0.7305 2.504 1.719 1.461 1.668 2.449 2.188 3.961 0.2891 0.8398 0.5234 2.973 1.355 3.074 0.8359 0.1055 2.867 0.7812 5.016 1.977 4.266 2.371 10.02 7.586 12.55 16.74 0.4141 1.492-0.06641 1.855-0.7305 0.3125-2.812-6.555-7.688-13.87-15.69-16.32 0.9375 0.5234 1.406 1.617 1.301 4.016-0.02734 0.6328-0.832 2.242-1.562 2.398s-0.1562 0.3594-0.1562 0.8828c0 1.512-0.7812 1.617-0.3125 2.086s0.418 3.023 0.1055 3.703c-0.3164 0.6758-0.5742 1.25-0.1562 2.082 0.4141 0.8359 0.3086 3.754-0.003906 6.047"/>
</clipPath>
<linearGradient id="f" x1="-.3513" x2="7.328" gradientTransform="matrix(7.563 -10.54 10.54 7.563 -2.431 79.75)" gradientUnits="userSpaceOnUse">
<stop stop-color="#fff" offset="0"/>
<stop stop-color="#fff" offset=".03125"/>
<stop stop-color="#fefefe" offset=".04688"/>
<stop stop-color="#fdfbfb" offset=".05078"/>
<stop stop-color="#fcf8f8" offset=".05469"/>
<stop stop-color="#fbf6f6" offset=".05859"/>
<stop stop-color="#f9f3f3" offset=".0625"/>
<stop stop-color="#f8f1f0" offset=".06641"/>
<stop stop-color="#f7eeee" offset=".07031"/>
<stop stop-color="#f6ebeb" offset=".07422"/>
<stop stop-color="#f5e9e9" offset=".07812"/>
<stop stop-color="#f3e6e6" offset=".08203"/>
<stop stop-color="#f2e4e4" offset=".08594"/>
<stop stop-color="#f1e1e1" offset=".08984"/>
<stop stop-color="#f0dfdf" offset=".09375"/>
<stop stop-color="#efdcdc" offset=".09766"/>
<stop stop-color="#eedada" offset=".1016"/>
<stop stop-color="#edd8d7" offset=".1055"/>
<stop stop-color="#ebd5d5" offset=".1094"/>
<stop stop-color="#ead3d3" offset=".1133"/>
<stop stop-color="#e9d0d0" offset=".1172"/>
<stop stop-color="#e8cece" offset=".1211"/>
<stop stop-color="#e7cccc" offset=".125"/>
<stop stop-color="#e6c9c9" offset=".1289"/>
<stop stop-color="#e5c7c7" offset=".1328"/>
<stop stop-color="#e4c5c5" offset=".1367"/>
<stop stop-color="#e3c2c3" offset=".1406"/>
<stop stop-color="#e1c0c0" offset=".1445"/>
<stop stop-color="#e0bebe" offset=".1484"/>
<stop stop-color="#dfbcbc" offset=".1523"/>
<stop stop-color="#deb9ba" offset=".1562"/>
<stop stop-color="#ddb7b8" offset=".1602"/>
<stop stop-color="#dcb5b6" offset=".1641"/>
<stop stop-color="#dbb3b4" offset=".168"/>
<stop stop-color="#dab0b1" offset=".1719"/>
<stop stop-color="#d9afb0" offset=".1758"/>
<stop stop-color="#d9aeaf" offset=".1797"/>
<stop stop-color="#d9aeaf" offset=".1875"/>
<stop stop-color="#d9aeaf" offset=".25"/>
<stop stop-color="#d9aeaf" offset=".5"/>
<stop stop-color="#d9aeaf" offset="1"/>
</linearGradient>
<clipPath id="m">
<path d="m83 16h22v71.1h-22z"/>
</clipPath>
<clipPath id="l">
<path d="m92.39 86.96c-0.1484-1.316-1.465-7.023-0.8789-8.926 0.5859-1.898 1.168-3.145 0.6562-4.02-0.5117-0.8789-1.168-4.242-1.094-5.633 0.07031-1.391 0.5117-3.582 1.461-3.512-0.2188-0.5117-0.5117-2.484-0.1445-2.852-0.5859 0.1484-1.609-1.168-1.758-2.195-0.1445-1.023-2.484-4.605 0.8789-7.605-1.066 0.8047-2.297 2.133-3.324 3.633-3.652 5.352-3.898 9.543-4.355 12.53-0.1875 1.223-0.6094 1.914-0.6719 0.08203-0.1445-4.008 0.3906-9.277 4.164-14.69 2.871-4.113 4.863-4.348 6.527-5.867 1.684-1.539 3.801-4.684 4.828-6.73 1.023-2.047 2.633-6.07 2.484-10.16-0.1445-4.098-0.9805-5.324-1.715-6.859-0.7305-1.535-1.172-3.043 0.1602-4.59 0.6523-0.7539 2.684-1.996 3.805-2.637 0.2812 0.3398 0.7266 1.629 0.8008 1.922-0.8164 0.3242-2.363 1.152-2.727 1.996-0.6953 1.625 0.5547 2.195 1.23 4.355 1.059 3.379 0.7891 7.129 0.5664 8.957-0.2188 1.828-1.098 6.508-3.07 9.578-1.977 3.074-3.293 3.805-3.656 4.465-0.3672 0.6562-0.8789 1.605 0 1.973 0.875 0.3672 3.145 4.023 3.582 5.777 0.4414 1.758 2.559 4.316 2.852 8.852 0.2344 3.578 2.508 10.77 0.9727 22.25"/>
</clipPath>
<clipPath id="k">
<path d="m92.39 86.96c-0.1484-1.316-1.465-7.023-0.8789-8.926 0.5859-1.898 1.168-3.145 0.6562-4.02-0.5117-0.8789-1.168-4.242-1.094-5.633 0.07031-1.391 0.5117-3.582 1.461-3.512-0.2188-0.5117-0.5117-2.484-0.1445-2.852-0.5859 0.1484-1.609-1.168-1.758-2.195-0.1445-1.023-2.484-4.605 0.8789-7.605-1.066 0.8047-2.297 2.133-3.324 3.633-3.652 5.352-3.898 9.543-4.355 12.53-0.1875 1.223-0.6094 1.914-0.6719 0.08203-0.1445-4.008 0.3906-9.277 4.164-14.69 2.871-4.113 4.863-4.348 6.527-5.867 1.684-1.539 3.801-4.684 4.828-6.73 1.023-2.047 2.633-6.07 2.484-10.16-0.1445-4.098-0.9805-5.324-1.715-6.859-0.7305-1.535-1.172-3.043 0.1602-4.59 0.6523-0.7539 2.684-1.996 3.805-2.637 0.2812 0.3398 0.7266 1.629 0.8008 1.922-0.8164 0.3242-2.363 1.152-2.727 1.996-0.6953 1.625 0.5547 2.195 1.23 4.355 1.059 3.379 0.7891 7.129 0.5664 8.957-0.2188 1.828-1.098 6.508-3.07 9.578-1.977 3.074-3.293 3.805-3.656 4.465-0.3672 0.6562-0.8789 1.605 0 1.973 0.875 0.3672 3.145 4.023 3.582 5.777 0.4414 1.758 2.559 4.316 2.852 8.852 0.2344 3.578 2.508 10.77 0.9727 22.25"/>
</clipPath>
<linearGradient id="e" x1="-.05403" x2="4.385" gradientTransform="matrix(-6.9e-7 -15.8 15.8 -6.9e-7 93.82 86.19)" gradientUnits="userSpaceOnUse">
<stop stop-color="#fff" offset="0"/>
<stop stop-color="#fefefe" offset=".01562"/>
<stop stop-color="#fdfcfc" offset=".01953"/>
<stop stop-color="#fcfafa" offset=".02344"/>
<stop stop-color="#fcf9f8" offset=".02734"/>
<stop stop-color="#fbf7f7" offset=".03125"/>
<stop stop-color="#faf6f5" offset=".03516"/>
<stop stop-color="#faf4f4" offset=".03906"/>
<stop stop-color="#f9f3f2" offset=".04297"/>
<stop stop-color="#f8f1f1" offset=".04688"/>
<stop stop-color="#f8f0ef" offset=".05078"/>
<stop stop-color="#f7eeee" offset=".05469"/>
<stop stop-color="#f6edec" offset=".05859"/>
<stop stop-color="#f6ebeb" offset=".0625"/>
<stop stop-color="#f5eae9" offset=".06641"/>
<stop stop-color="#f4e8e8" offset=".07031"/>
<stop stop-color="#f4e7e6" offset=".07422"/>
<stop stop-color="#f3e5e5" offset=".07812"/>
<stop stop-color="#f2e4e3" offset=".08203"/>
<stop stop-color="#f2e2e2" offset=".08594"/>
<stop stop-color="#f1e1e1" offset=".08984"/>
<stop stop-color="#f0dfdf" offset=".09375"/>
<stop stop-color="#f0dede" offset=".09766"/>
<stop stop-color="#efdddc" offset=".1016"/>
<stop stop-color="#eedbdb" offset=".1055"/>
<stop stop-color="#eedad9" offset=".1094"/>
<stop stop-color="#edd8d8" offset=".1133"/>
<stop stop-color="#ecd7d7" offset=".1172"/>
<stop stop-color="#ecd6d5" offset=".1211"/>
<stop stop-color="#ebd4d4" offset=".125"/>
<stop stop-color="#ead3d3" offset=".1289"/>
<stop stop-color="#ead1d1" offset=".1328"/>
<stop stop-color="#e9d0d0" offset=".1367"/>
<stop stop-color="#e8cfce" offset=".1406"/>
<stop stop-color="#e8cdcd" offset=".1445"/>
<stop stop-color="#e7cccc" offset=".1484"/>
<stop stop-color="#e6cbca" offset=".1523"/>
<stop stop-color="#e6c9c9" offset=".1562"/>
<stop stop-color="#e5c8c8" offset=".1602"/>
<stop stop-color="#e5c6c7" offset=".1641"/>
<stop stop-color="#e4c5c5" offset=".168"/>
<stop stop-color="#e3c4c4" offset=".1719"/>
<stop stop-color="#e3c2c3" offset=".1758"/>
<stop stop-color="#e2c1c1" offset=".1797"/>
<stop stop-color="#e1c0c0" offset=".1836"/>
<stop stop-color="#e1bfbf" offset=".1875"/>
<stop stop-color="#e0bdbe" offset=".1914"/>
<stop stop-color="#dfbcbc" offset=".1953"/>
<stop stop-color="#dfbbbb" offset=".1992"/>
<stop stop-color="#deb9ba" offset=".2031"/>
<stop stop-color="#deb8b9" offset=".207"/>
<stop stop-color="#ddb7b7" offset=".2109"/>
<stop stop-color="#dcb5b6" offset=".2148"/>
<stop stop-color="#dcb4b5" offset=".2188"/>
<stop stop-color="#dbb3b4" offset=".2227"/>
<stop stop-color="#dbb2b3" offset=".2266"/>
<stop stop-color="#dab0b1" offset=".2305"/>
<stop stop-color="#d9afb0" offset=".2344"/>
<stop stop-color="#d9afb0" offset=".25"/>
<stop stop-color="#d9aeaf" offset=".5"/>
<stop stop-color="#d9aeaf" offset="1"/>
</linearGradient>
<clipPath id="j">
<path d="m40 23h16v64.1h-16z"/>
</clipPath>
<clipPath id="i">
<path d="m40.93 86.85c-0.6055-4.359-0.4727-13.63-0.06641-15.62 1.004-4.965 2.238-9.77 1.75-12.63-0.6797-3.996-0.2656-10.8 0.9297-13.05 1.199-2.246 3.641-4.227 4.09-2.281 0.4492 1.949 0.7383 4.895 0.6719 7.543 0.2969-2.246-0.1406-13.82 0-16.53 0.2031-3.887-0.207-8.562 0-9.824 0.2031-1.238 1.234-1.469 1.496-0.2969 0.3125 1.406 0.6484 6.637 0.6484 10.19 0 1.805-0.1992 12.88 0.1016 16.16 0.2188 2.387 3.051 8.246 3.32 11.46 0.2109 2.535 1.555 7.871 1.621 11.59 0.03516 2.117 0.6367 9.297 0.168 13.48"/>
</clipPath>
<clipPath id="h">
<path d="m40.93 86.85c-0.6055-4.359-0.4727-13.63-0.06641-15.62 1.004-4.965 2.238-9.77 1.75-12.63-0.6797-3.996-0.2656-10.8 0.9297-13.05 1.199-2.246 3.641-4.227 4.09-2.281 0.4492 1.949 0.7383 4.895 0.6719 7.543 0.2969-2.246-0.1406-13.82 0-16.53 0.2031-3.887-0.207-8.562 0-9.824 0.2031-1.238 1.234-1.469 1.496-0.2969 0.3125 1.406 0.6484 6.637 0.6484 10.19 0 1.805-0.1992 12.88 0.1016 16.16 0.2188 2.387 3.051 8.246 3.32 11.46 0.2109 2.535 1.555 7.871 1.621 11.59 0.03516 2.117 0.6367 9.297 0.168 13.48"/>
</clipPath>
<linearGradient id="d" x1="-.06293" x2="3.801" gradientTransform="matrix(.4385 -16.68 16.68 .4385 48.03 86.2)" gradientUnits="userSpaceOnUse">
<stop stop-color="#fff" offset="0"/>
<stop stop-color="#fff" offset=".01562"/>
<stop stop-color="#fefdfd" offset=".01953"/>
<stop stop-color="#fdfcfc" offset=".02344"/>
<stop stop-color="#fdfbfb" offset=".02734"/>
<stop stop-color="#fcf9f9" offset=".03125"/>
<stop stop-color="#fcf8f8" offset=".03516"/>
<stop stop-color="#fbf7f7" offset=".03906"/>
<stop stop-color="#faf5f5" offset=".04297"/>
<stop stop-color="#faf4f4" offset=".04688"/>
<stop stop-color="#f9f3f3" offset=".05078"/>
<stop stop-color="#f9f1f1" offset=".05469"/>
<stop stop-color="#f8f0f0" offset=".05859"/>
<stop stop-color="#f7efef" offset=".0625"/>
<stop stop-color="#f7eeed" offset=".06641"/>
<stop stop-color="#f6ecec" offset=".07031"/>
<stop stop-color="#f6ebeb" offset=".07422"/>
<stop stop-color="#f5eae9" offset=".07812"/>
<stop stop-color="#f4e8e8" offset=".08203"/>
<stop stop-color="#f4e7e7" offset=".08594"/>
<stop stop-color="#f3e6e6" offset=".08984"/>
<stop stop-color="#f3e5e4" offset=".09375"/>
<stop stop-color="#f2e3e3" offset=".09766"/>
<stop stop-color="#f2e2e2" offset=".1016"/>
<stop stop-color="#f1e1e1" offset=".1055"/>
<stop stop-color="#f0e0df" offset=".1094"/>
<stop stop-color="#f0dede" offset=".1133"/>
<stop stop-color="#efdddd" offset=".1172"/>
<stop stop-color="#efdcdc" offset=".1211"/>
<stop stop-color="#eedbda" offset=".125"/>
<stop stop-color="#edd9d9" offset=".1289"/>
<stop stop-color="#edd8d8" offset=".1328"/>
<stop stop-color="#ecd7d7" offset=".1367"/>
<stop stop-color="#ecd6d6" offset=".1406"/>
<stop stop-color="#ebd5d4" offset=".1445"/>
<stop stop-color="#ebd3d3" offset=".1484"/>
<stop stop-color="#ead2d2" offset=".1523"/>
<stop stop-color="#e9d1d1" offset=".1562"/>
<stop stop-color="#e9d0d0" offset=".1602"/>
<stop stop-color="#e8cfce" offset=".1641"/>
<stop stop-color="#e8cdcd" offset=".168"/>
<stop stop-color="#e7cccc" offset=".1719"/>
<stop stop-color="#e7cbcb" offset=".1758"/>
<stop stop-color="#e6caca" offset=".1797"/>
<stop stop-color="#e6c9c9" offset=".1836"/>
<stop stop-color="#e5c7c8" offset=".1875"/>
<stop stop-color="#e4c6c6" offset=".1914"/>
<stop stop-color="#e4c5c5" offset=".1953"/>
<stop stop-color="#e3c4c4" offset=".1992"/>
<stop stop-color="#e3c3c3" offset=".2031"/>
<stop stop-color="#e2c2c2" offset=".207"/>
<stop stop-color="#e2c1c1" offset=".2109"/>
<stop stop-color="#e1bfc0" offset=".2148"/>
<stop stop-color="#e1bebf" offset=".2188"/>
<stop stop-color="#e0bdbd" offset=".2227"/>
<stop stop-color="#e0bcbc" offset=".2266"/>
<stop stop-color="#dfbbbb" offset=".2305"/>
<stop stop-color="#debaba" offset=".2344"/>
<stop stop-color="#deb9b9" offset=".2383"/>
<stop stop-color="#ddb7b8" offset=".2422"/>
<stop stop-color="#ddb6b7" offset=".2461"/>
<stop stop-color="#dcb5b6" offset=".25"/>
<stop stop-color="#dcb4b5" offset=".2539"/>
<stop stop-color="#dbb3b4" offset=".2578"/>
<stop stop-color="#dbb2b3" offset=".2617"/>
<stop stop-color="#dab1b2" offset=".2656"/>
<stop stop-color="#dab0b1" offset=".2695"/>
<stop stop-color="#d9afb0" offset=".2734"/>
<stop stop-color="#d9aeb0" offset=".2812"/>
<stop stop-color="#d9aeaf" offset=".3125"/>
<stop stop-color="#d9aeaf" offset=".375"/>
<stop stop-color="#d9aeaf" offset=".5"/>
<stop stop-color="#d9aeaf" offset="1"/>
</linearGradient>
<clipPath id="g">
<path d="m120 4h56v83.1h-56z"/>
</clipPath>
<clipPath id="af">
<path d="m123.1 87.1c-0.2109-3.203 0.5469-11.34 2.293-15.74 1.203-3.027 3.48-5.477 1.773-7.609-1.707-2.137-5.316-8.863-6.203-16.68-0.7188-6.359-0.5742-12.93 3.656-20.68 3.996-7.324 11.91-15.18 24.96-16.64 9.805-1.094 13.38 1.539 16.58 2.605 3.203 1.066 5.77 0.03125 6.359-1.406 0.6328-1.539 0.03906-3.277-1.668-5.84 0.5742-0.2578 1.41-0.8828 1.723-1.094 0.3633 0.8359 2.293 3.391 2.605 5.422 0.3125 2.035-0.5742 3.703-1.93 4.641-1.367 0.9453-2.816 0.832-2.555 1.926 0.2617 1.098 0.2656 2.223 0.8164 3.77 0.2734 0.7617 0.6055 2.094-0.2773 2.203-0.6211 0.07812-1.238-0.8203-1.543-1.762-0.4961-1.547-0.7188-2.484-1.184-2.488-0.4492-0.003906-0.4688 0.207-0.5234 1.043-0.05078 0.832 0.5742 3.855 0.5234 6.148-0.03906 1.723-0.5234 3.961-1.824 4.172-1.305 0.207-2.348-2.035-2.449-5.941-0.1055-3.91-0.75-7.621-2.531-9.121-2.688-2.27-10.3-2.695-16.71-0.9258-6.41 1.773-10.52 5.051-11.67 6.301-1.148 1.25-1.766 2.492-1.715 4.004 0.05469 1.512-0.05078 3.336-1.043 4.273-0.9883 0.9414-2.605 1.305-3.387 0.8867-0.05078 0.4688-0.7812 1.723-1.406 2.605-0.625 0.8867-0.5234 2.141-1.355 3.129-0.5312 0.6289 0.05078 0.3125-0.1055 2.293-0.1562 1.98-0.1055 4.223-0.5742 5.422s-0.4141 2.137-0.2578 2.711c0.1562 0.5742 1.043 3.336 0.9883 4.742-0.02734 0.7383 1.25 2.504 1.094 4.117-0.06641 0.707 0.03516 1.914 0.7305 2.504 1.723 1.461 1.668 2.449 2.191 3.961 0.2891 0.8398 0.5195 2.973 1.355 3.074 0.832 0.1055 2.863 0.7812 5.016 1.977 4.266 2.371 10.02 7.586 12.55 16.74 0.4102 1.492-0.07031 1.855-0.7305 0.3125-2.812-6.555-7.691-13.87-15.69-16.32 0.9375 0.5234 1.406 1.617 1.305 4.016-0.02734 0.6328-0.8359 2.242-1.566 2.398-0.7266 0.1562-0.1562 0.3594-0.1562 0.8828 0 1.512-0.7812 1.617-0.3125 2.086s0.418 3.023 0.1055 3.703c-0.3125 0.6758-0.5742 1.25-0.1562 2.082 0.418 0.8359 0.3125 3.754 0 6.047"/>
</clipPath>
<clipPath id="ae">
<path d="m123.1 87.1c-0.2109-3.203 0.5469-11.34 2.293-15.74 1.203-3.027 3.48-5.477 1.773-7.609-1.707-2.137-5.316-8.863-6.203-16.68-0.7188-6.359-0.5742-12.93 3.656-20.68 3.996-7.324 11.91-15.18 24.96-16.64 9.805-1.094 13.38 1.539 16.58 2.605 3.203 1.066 5.77 0.03125 6.359-1.406 0.6328-1.539 0.03906-3.277-1.668-5.84 0.5742-0.2578 1.41-0.8828 1.723-1.094 0.3633 0.8359 2.293 3.391 2.605 5.422 0.3125 2.035-0.5742 3.703-1.93 4.641-1.367 0.9453-2.816 0.832-2.555 1.926 0.2617 1.098 0.2656 2.223 0.8164 3.77 0.2734 0.7617 0.6055 2.094-0.2773 2.203-0.6211 0.07812-1.238-0.8203-1.543-1.762-0.4961-1.547-0.7188-2.484-1.184-2.488-0.4492-0.003906-0.4688 0.207-0.5234 1.043-0.05078 0.832 0.5742 3.855 0.5234 6.148-0.03906 1.723-0.5234 3.961-1.824 4.172-1.305 0.207-2.348-2.035-2.449-5.941-0.1055-3.91-0.75-7.621-2.531-9.121-2.688-2.27-10.3-2.695-16.71-0.9258-6.41 1.773-10.52 5.051-11.67 6.301-1.148 1.25-1.766 2.492-1.715 4.004 0.05469 1.512-0.05078 3.336-1.043 4.273-0.9883 0.9414-2.605 1.305-3.387 0.8867-0.05078 0.4688-0.7812 1.723-1.406 2.605-0.625 0.8867-0.5234 2.141-1.355 3.129-0.5312 0.6289 0.05078 0.3125-0.1055 2.293-0.1562 1.98-0.1055 4.223-0.5742 5.422s-0.4141 2.137-0.2578 2.711c0.1562 0.5742 1.043 3.336 0.9883 4.742-0.02734 0.7383 1.25 2.504 1.094 4.117-0.06641 0.707 0.03516 1.914 0.7305 2.504 1.723 1.461 1.668 2.449 2.191 3.961 0.2891 0.8398 0.5195 2.973 1.355 3.074 0.832 0.1055 2.863 0.7812 5.016 1.977 4.266 2.371 10.02 7.586 12.55 16.74 0.4102 1.492-0.07031 1.855-0.7305 0.3125-2.812-6.555-7.691-13.87-15.69-16.32 0.9375 0.5234 1.406 1.617 1.305 4.016-0.02734 0.6328-0.8359 2.242-1.566 2.398-0.7266 0.1562-0.1562 0.3594-0.1562 0.8828 0 1.512-0.7812 1.617-0.3125 2.086s0.418 3.023 0.1055 3.703c-0.3125 0.6758-0.5742 1.25-0.1562 2.082 0.418 0.8359 0.3125 3.754 0 6.047"/>
</clipPath>
<linearGradient id="c" x1="-.1912" x2="6.882" gradientTransform="matrix(5.042 -12.83 12.83 5.042 123.8 85.66)" gradientUnits="userSpaceOnUse">
<stop stop-color="#fff" offset="0"/>
<stop stop-color="#fff" offset=".01562"/>
<stop stop-color="#fff" offset=".02344"/>
<stop stop-color="#fefdfd" offset=".02734"/>
<stop stop-color="#fdfcfc" offset=".03125"/>
<stop stop-color="#fcf9f9" offset=".03516"/>
<stop stop-color="#fbf7f7" offset=".03906"/>
<stop stop-color="#faf5f4" offset=".04297"/>
<stop stop-color="#f9f2f2" offset=".04688"/>
<stop stop-color="#f8f0f0" offset=".05078"/>
<stop stop-color="#f7eded" offset=".05469"/>
<stop stop-color="#f6ebeb" offset=".05859"/>
<stop stop-color="#f5e9e8" offset=".0625"/>
<stop stop-color="#f3e6e6" offset=".06641"/>
<stop stop-color="#f2e4e4" offset=".07031"/>
<stop stop-color="#f1e2e1" offset=".07422"/>
<stop stop-color="#f0e0df" offset=".07812"/>
<stop stop-color="#efdddd" offset=".08203"/>
<stop stop-color="#eedbdb" offset=".08594"/>
<stop stop-color="#edd9d8" offset=".08984"/>
<stop stop-color="#ecd6d6" offset=".09375"/>
<stop stop-color="#ebd4d4" offset=".09766"/>
<stop stop-color="#ead2d2" offset=".1016"/>
<stop stop-color="#e9d0d0" offset=".1055"/>
<stop stop-color="#e8cece" offset=".1094"/>
<stop stop-color="#e7cbcb" offset=".1133"/>
<stop stop-color="#e6c9c9" offset=".1172"/>
<stop stop-color="#e5c7c7" offset=".1211"/>
<stop stop-color="#e4c5c5" offset=".125"/>
<stop stop-color="#e3c3c3" offset=".1289"/>
<stop stop-color="#e2c1c1" offset=".1328"/>
<stop stop-color="#e1bfbf" offset=".1367"/>
<stop stop-color="#e0bdbd" offset=".1406"/>
<stop stop-color="#dfbbbb" offset=".1445"/>
<stop stop-color="#deb9b9" offset=".1484"/>
<stop stop-color="#ddb6b7" offset=".1523"/>
<stop stop-color="#dcb4b5" offset=".1562"/>
<stop stop-color="#dbb2b3" offset=".1602"/>
<stop stop-color="#dab0b1" offset=".1641"/>
<stop stop-color="#d9afb0" offset=".168"/>
<stop stop-color="#d9aeaf" offset=".1719"/>
<stop stop-color="#d9aeaf" offset=".1875"/>
<stop stop-color="#d9aeaf" offset=".25"/>
<stop stop-color="#d9aeaf" offset=".5"/>
<stop stop-color="#d9aeaf" offset="1"/>
</linearGradient>
<clipPath id="ad">
<path d="m203 16h22v71.1h-22z"/>
</clipPath>
<clipPath id="ac">
<path d="m212.7 86.96c-0.1445-1.316-1.461-7.023-0.8789-8.926 0.5859-1.898 1.172-3.145 0.6602-4.02-0.5117-0.8789-1.172-4.242-1.098-5.633 0.07422-1.391 0.5117-3.582 1.461-3.512-0.2188-0.5117-0.5117-2.484-0.1445-2.852-0.5859 0.1484-1.609-1.168-1.754-2.195-0.1484-1.023-2.488-4.605 0.875-7.605-1.062 0.8047-2.297 2.133-3.32 3.633-3.652 5.352-3.902 9.543-4.359 12.53-0.1875 1.223-0.6094 1.914-0.6719 0.08203-0.1406-4.008 0.3945-9.277 4.168-14.69 2.867-4.113 4.859-4.348 6.523-5.867 1.684-1.539 3.805-4.684 4.828-6.73 1.023-2.047 2.633-6.07 2.488-10.16-0.1484-4.098-0.9844-5.324-1.715-6.859s-1.176-3.043 0.1602-4.59c0.6484-0.7539 2.684-1.996 3.801-2.637 0.2812 0.3398 0.7266 1.629 0.8008 1.922-0.8164 0.3242-2.359 1.152-2.723 1.996-0.6992 1.625 0.5547 2.195 1.23 4.355 1.059 3.379 0.7852 7.129 0.5664 8.957-0.2227 1.828-1.098 6.508-3.074 9.578-1.973 3.074-3.289 3.805-3.656 4.465-0.3633 0.6562-0.875 1.605 0 1.973 0.8789 0.3672 3.145 4.023 3.586 5.777 0.4375 1.758 2.559 4.316 2.852 8.852 0.2305 3.578 2.504 10.77 0.9688 22.25"/>
</clipPath>
<clipPath id="ab">
<path d="m212.7 86.96c-0.1445-1.316-1.461-7.023-0.8789-8.926 0.5859-1.898 1.172-3.145 0.6602-4.02-0.5117-0.8789-1.172-4.242-1.098-5.633 0.07422-1.391 0.5117-3.582 1.461-3.512-0.2188-0.5117-0.5117-2.484-0.1445-2.852-0.5859 0.1484-1.609-1.168-1.754-2.195-0.1484-1.023-2.488-4.605 0.875-7.605-1.062 0.8047-2.297 2.133-3.32 3.633-3.652 5.352-3.902 9.543-4.359 12.53-0.1875 1.223-0.6094 1.914-0.6719 0.08203-0.1406-4.008 0.3945-9.277 4.168-14.69 2.867-4.113 4.859-4.348 6.523-5.867 1.684-1.539 3.805-4.684 4.828-6.73 1.023-2.047 2.633-6.07 2.488-10.16-0.1484-4.098-0.9844-5.324-1.715-6.859s-1.176-3.043 0.1602-4.59c0.6484-0.7539 2.684-1.996 3.801-2.637 0.2812 0.3398 0.7266 1.629 0.8008 1.922-0.8164 0.3242-2.359 1.152-2.723 1.996-0.6992 1.625 0.5547 2.195 1.23 4.355 1.059 3.379 0.7852 7.129 0.5664 8.957-0.2227 1.828-1.098 6.508-3.074 9.578-1.973 3.074-3.289 3.805-3.656 4.465-0.3633 0.6562-0.875 1.605 0 1.973 0.8789 0.3672 3.145 4.023 3.586 5.777 0.4375 1.758 2.559 4.316 2.852 8.852 0.2305 3.578 2.504 10.77 0.9688 22.25"/>
</clipPath>
<linearGradient id="b" x1="-.1027" x2="3.728" gradientTransform="matrix(-.4385 -18.43 18.43 -.4385 215 85.39)" gradientUnits="userSpaceOnUse">
<stop stop-color="#fff" offset="0"/>
<stop stop-color="#fff" offset=".01562"/>
<stop stop-color="#fff" offset=".02344"/>
<stop stop-color="#fefefe" offset=".02734"/>
<stop stop-color="#fefdfd" offset=".03125"/>
<stop stop-color="#fdfcfc" offset=".03516"/>
<stop stop-color="#fdfafa" offset=".03906"/>
<stop stop-color="#fcf9f9" offset=".04297"/>
<stop stop-color="#fbf8f8" offset=".04688"/>
<stop stop-color="#fbf6f6" offset=".05078"/>
<stop stop-color="#faf5f5" offset=".05469"/>
<stop stop-color="#faf4f4" offset=".05859"/>
<stop stop-color="#f9f3f2" offset=".0625"/>
<stop stop-color="#f8f1f1" offset=".06641"/>
<stop stop-color="#f8f0f0" offset=".07031"/>
<stop stop-color="#f7efee" offset=".07422"/>
<stop stop-color="#f7eded" offset=".07812"/>
<stop stop-color="#f6ecec" offset=".08203"/>
<stop stop-color="#f5ebea" offset=".08594"/>
<stop stop-color="#f5eae9" offset=".08984"/>
<stop stop-color="#f4e8e8" offset=".09375"/>
<stop stop-color="#f4e7e7" offset=".09766"/>
<stop stop-color="#f3e6e5" offset=".1016"/>
<stop stop-color="#f3e5e4" offset=".1055"/>
<stop stop-color="#f2e3e3" offset=".1094"/>
<stop stop-color="#f1e2e2" offset=".1133"/>
<stop stop-color="#f1e1e0" offset=".1172"/>
<stop stop-color="#f0e0df" offset=".1211"/>
<stop stop-color="#f0dede" offset=".125"/>
<stop stop-color="#efdddd" offset=".1289"/>
<stop stop-color="#efdcdc" offset=".1328"/>
<stop stop-color="#eedbda" offset=".1367"/>
<stop stop-color="#edd9d9" offset=".1406"/>
<stop stop-color="#edd8d8" offset=".1445"/>
<stop stop-color="#ecd7d7" offset=".1484"/>
<stop stop-color="#ecd6d6" offset=".1523"/>
<stop stop-color="#ebd5d4" offset=".1562"/>
<stop stop-color="#ebd3d3" offset=".1602"/>
<stop stop-color="#ead2d2" offset=".1641"/>
<stop stop-color="#e9d1d1" offset=".168"/>
<stop stop-color="#e9d0d0" offset=".1719"/>
<stop stop-color="#e8cfce" offset=".1758"/>
<stop stop-color="#e8cdcd" offset=".1797"/>
<stop stop-color="#e7cccc" offset=".1836"/>
<stop stop-color="#e7cbcb" offset=".1875"/>
<stop stop-color="#e6caca" offset=".1914"/>
<stop stop-color="#e6c9c9" offset=".1953"/>
<stop stop-color="#e5c8c8" offset=".1992"/>
<stop stop-color="#e4c6c6" offset=".2031"/>
<stop stop-color="#e4c5c5" offset=".207"/>
<stop stop-color="#e3c4c4" offset=".2109"/>
<stop stop-color="#e3c3c3" offset=".2148"/>
<stop stop-color="#e2c2c2" offset=".2188"/>
<stop stop-color="#e2c1c1" offset=".2227"/>
<stop stop-color="#e1c0c0" offset=".2266"/>
<stop stop-color="#e1bebf" offset=".2305"/>
<stop stop-color="#e0bdbe" offset=".2344"/>
<stop stop-color="#e0bcbd" offset=".2383"/>
<stop stop-color="#dfbbbc" offset=".2422"/>
<stop stop-color="#dfbaba" offset=".2461"/>
<stop stop-color="#deb9b9" offset=".25"/>
<stop stop-color="#ddb8b8" offset=".2539"/>
<stop stop-color="#ddb7b7" offset=".2578"/>
<stop stop-color="#dcb5b6" offset=".2617"/>
<stop stop-color="#dcb4b5" offset=".2656"/>
<stop stop-color="#dbb3b4" offset=".2695"/>
<stop stop-color="#dbb2b3" offset=".2734"/>
<stop stop-color="#dab1b2" offset=".2773"/>
<stop stop-color="#dab0b1" offset=".2812"/>
<stop stop-color="#d9afb0" offset=".2852"/>
<stop stop-color="#d9aeaf" offset=".2891"/>
<stop stop-color="#d9aeaf" offset=".2969"/>
<stop stop-color="#d9aeaf" offset=".3125"/>
<stop stop-color="#d9aeaf" offset=".375"/>
<stop stop-color="#d9aeaf" offset=".5"/>
<stop stop-color="#d9aeaf" offset="1"/>
</linearGradient>
<clipPath id="aa">
<path d="m160 25h17v62.1h-17z"/>
</clipPath>
<clipPath id="z">
<path d="m161.3 86.85c-0.6016-4.359-0.4688-13.63-0.06641-15.62 1.008-4.965 2.238-9.77 1.754-12.63-0.6797-3.996-0.2695-10.8 0.9297-13.05 1.195-2.246 3.641-4.227 4.09-2.281 0.4492 1.949 0.793 5.305 0.7266 7.953-0.05469-4.359 0.2773-9.984 1.633-15.43 1.191-4.789 2.23-7.465 3.277-9.062 0.9023-1.379 2.07-1.219 1.543 0-1.047 2.426-2.316 5.957-3.031 9.984-0.3164 1.773-1.352 10.56-1.051 13.85 0.2188 2.383 2.867 8.199 3.137 11.42 0.2109 2.535 1.555 7.871 1.621 11.59 0.03906 2.117 0.6367 9.297 0.168 13.48"/>
</clipPath>
<clipPath id="y">
<path d="m161.3 86.85c-0.6016-4.359-0.4688-13.63-0.06641-15.62 1.008-4.965 2.238-9.77 1.754-12.63-0.6797-3.996-0.2695-10.8 0.9297-13.05 1.195-2.246 3.641-4.227 4.09-2.281 0.4492 1.949 0.793 5.305 0.7266 7.953-0.05469-4.359 0.2773-9.984 1.633-15.43 1.191-4.789 2.23-7.465 3.277-9.062 0.9023-1.379 2.07-1.219 1.543 0-1.047 2.426-2.316 5.957-3.031 9.984-0.3164 1.773-1.352 10.56-1.051 13.85 0.2188 2.383 2.867 8.199 3.137 11.42 0.2109 2.535 1.555 7.871 1.621 11.59 0.03906 2.117 0.6367 9.297 0.168 13.48"/>
</clipPath>
<linearGradient id="a" x1="-.1323" x2="3.709" gradientTransform="matrix(.8779 -16.24 16.24 .8779 168.2 85.3)" gradientUnits="userSpaceOnUse">
<stop stop-color="#fff" offset="0"/>
<stop stop-color="#fff" offset=".03125"/>
<stop stop-color="#fefefe" offset=".03516"/>
<stop stop-color="#fefdfd" offset=".03906"/>
<stop stop-color="#fdfcfc" offset=".04297"/>
<stop stop-color="#fdfafa" offset=".04688"/>
<stop stop-color="#fcf9f9" offset=".05078"/>
<stop stop-color="#fbf8f7" offset=".05469"/>
<stop stop-color="#fbf6f6" offset=".05859"/>
<stop stop-color="#faf5f5" offset=".0625"/>
<stop stop-color="#faf4f3" offset=".06641"/>
<stop stop-color="#f9f2f2" offset=".07031"/>
<stop stop-color="#f8f1f1" offset=".07422"/>
<stop stop-color="#f8f0f0" offset=".07812"/>
<stop stop-color="#f7efee" offset=".08203"/>
<stop stop-color="#f7eded" offset=".08594"/>
<stop stop-color="#f6ecec" offset=".08984"/>
<stop stop-color="#f5ebea" offset=".09375"/>
<stop stop-color="#f5e9e9" offset=".09766"/>
<stop stop-color="#f4e8e8" offset=".1016"/>
<stop stop-color="#f4e7e7" offset=".1055"/>
<stop stop-color="#f3e6e5" offset=".1094"/>
<stop stop-color="#f3e4e4" offset=".1133"/>
<stop stop-color="#f2e3e3" offset=".1172"/>
<stop stop-color="#f1e2e2" offset=".1211"/>
<stop stop-color="#f1e1e0" offset=".125"/>
<stop stop-color="#f0dfdf" offset=".1289"/>
<stop stop-color="#f0dede" offset=".1328"/>
<stop stop-color="#efdddd" offset=".1367"/>
<stop stop-color="#eedcdb" offset=".1406"/>
<stop stop-color="#eedada" offset=".1445"/>
<stop stop-color="#edd9d9" offset=".1484"/>
<stop stop-color="#edd8d8" offset=".1523"/>
<stop stop-color="#ecd7d7" offset=".1562"/>
<stop stop-color="#ecd6d5" offset=".1602"/>
<stop stop-color="#ebd4d4" offset=".1641"/>
<stop stop-color="#ebd3d3" offset=".168"/>
<stop stop-color="#ead2d2" offset=".1719"/>
<stop stop-color="#e9d1d1" offset=".1758"/>
<stop stop-color="#e9d0cf" offset=".1797"/>
<stop stop-color="#e8cece" offset=".1836"/>
<stop stop-color="#e8cdcd" offset=".1875"/>
<stop stop-color="#e7cccc" offset=".1914"/>
<stop stop-color="#e7cbcb" offset=".1953"/>
<stop stop-color="#e6caca" offset=".1992"/>
<stop stop-color="#e5c9c9" offset=".2031"/>
<stop stop-color="#e5c7c7" offset=".207"/>
<stop stop-color="#e4c6c6" offset=".2109"/>
<stop stop-color="#e4c5c5" offset=".2148"/>
<stop stop-color="#e3c4c4" offset=".2188"/>
<stop stop-color="#e3c3c3" offset=".2227"/>
<stop stop-color="#e2c2c2" offset=".2266"/>
<stop stop-color="#e2c0c1" offset=".2305"/>
<stop stop-color="#e1bfc0" offset=".2344"/>
<stop stop-color="#e1bebf" offset=".2383"/>
<stop stop-color="#e0bdbd" offset=".2422"/>
<stop stop-color="#dfbcbc" offset=".2461"/>
<stop stop-color="#dfbbbb" offset=".25"/>
<stop stop-color="#debaba" offset=".2539"/>
<stop stop-color="#deb9b9" offset=".2578"/>
<stop stop-color="#ddb7b8" offset=".2617"/>
<stop stop-color="#ddb6b7" offset=".2656"/>
<stop stop-color="#dcb5b6" offset=".2695"/>
<stop stop-color="#dcb4b5" offset=".2734"/>
<stop stop-color="#dbb3b4" offset=".2773"/>
<stop stop-color="#dbb2b3" offset=".2812"/>
<stop stop-color="#dab1b2" offset=".2852"/>
<stop stop-color="#dab0b1" offset=".2891"/>
<stop stop-color="#d9afb0" offset=".293"/>
<stop stop-color="#d9aeaf" offset=".2969"/>
<stop stop-color="#d9aeaf" offset=".3125"/>
<stop stop-color="#d9aeaf" offset=".375"/>
<stop stop-color="#d9aeaf" offset=".5"/>
<stop stop-color="#d9aeaf" offset="1"/>
</linearGradient>
<clipPath id="x">
<path d="m9 65h4v22.1h-4z"/>
</clipPath>
<clipPath id="w">
<path d="m2 64h6v23.1h-6z"/>
</clipPath>
<clipPath id="u">
<path d="m95 48h10v39.1h-10z"/>
</clipPath>
<clipPath id="t">
<path d="m51 53h5v34.1h-5z"/>
</clipPath>
<clipPath id="s">
<path d="m129 65h4v22.1h-4z"/>
</clipPath>
<clipPath id="r">
<path d="m122 63h6v24.1h-6z"/>
</clipPath>
<clipPath id="q">
<path d="m216 48h9.012v39.1h-9.012z"/>
</clipPath>
<clipPath id="p">
<path d="m200 14h25.01v59h-25.01z"/>
</clipPath>
<clipPath id="o">
<path d="m171 53h6v34.1h-6z"/>
</clipPath>
<clipPath id="n">
<path d="m215 9h10.01v12h-10.01z"/>
</clipPath>
</defs>
<g clip-path="url(#ah)">
<g clip-path="url(#ag)">
<g clip-path="url(#v)">
<path d="m-39.35 58.87 75.73 54.33 58.08-80.96-75.73-54.33z" fill="url(#f)"/>
</g>
</g>
</g>
<g clip-path="url(#m)">
<g clip-path="url(#l)">
<g clip-path="url(#k)">
<path d="m83.02 87.05h22.48v-70.12h-22.48z" fill="url(#e)"/>
</g>
</g>
</g>
<g clip-path="url(#j)">
<g clip-path="url(#i)">
<g clip-path="url(#h)">
<path d="m38.64 87 17.48 0.457 1.695-64.43-17.48-0.4609z" fill="url(#d)"/>
</g>
</g>
</g>
<path d="m69.98 21.53h-9.738l1.008-2.781c-1.965 1.715-5.137 3.332-7.691 4.281 2.555 0.9453 5.727 2.566 7.691 4.277l-1.008-2.777h9.738v-3" fill="#4f808d"/>
<path transform="matrix(.1 0 0 -.1 0 87.1)" d="m699.8 655.7h-97.38l10.08 27.81c-19.65-17.15-51.37-33.32-76.91-42.81 25.55-9.453 57.27-25.66 76.91-42.77l-10.08 27.77h97.38z" fill="none" stroke="#231f1f" stroke-width="5"/>
<path transform="matrix(.1 0 0 -.1 0 87.1)" d="m521 829.5c7.422-14.84 31.8-26.45 47.5-17.81 15.35 8.398 19.3 27.7 11.88 47.5" fill="none" stroke="#231f1f" stroke-width="5"/>
<path transform="matrix(.1 0 0 -.1 0 87.1)" d="m995.1 750.3c-9.883-9.414-16.8-25.23-10.86-38.59s20.27-22.27 46.99-11.88" fill="none" stroke="#231f1f" stroke-width="5"/>
<g clip-path="url(#g)">
<g clip-path="url(#af)">
<g clip-path="url(#ae)">
<path d="m91.93 75.99 76.13 29.91 35.66-90.78-76.13-29.91z" fill="url(#c)"/>
</g>
</g>
</g>
<g clip-path="url(#ad)">
<g clip-path="url(#ac)">
<g clip-path="url(#ab)">
<path d="m203.4 87.56 23.3-0.5547-1.68-70.6-23.3 0.5547z" fill="url(#b)"/>
</g>
</g>
</g>
<g clip-path="url(#aa)">
<g clip-path="url(#z)">
<g clip-path="url(#y)">
<path d="m157.3 86.87 19.09 1.031 3.371-62.38-19.08-1.031z" fill="url(#a)"/>
</g>
</g>
</g>
<g clip-path="url(#x)">
<path d="m10.47 66.05c0.9141 0.5117 1.266 1.641 1.172 3.785-0.02344 0.5938-0.8125 2.047-1.363 2.164-0.2266 0.04688-0.4453 0.1172-0.5352 0.3047-0.08594 0.1797 0 0.3477 0.07031 0.4805l0.1094 0.3438c0 0.7109-0.1797 1.074-0.3125 1.336-0.1328 0.2695-0.2852 0.5703 0.07422 0.9258 0.3633 0.3672 0.3398 2.797 0.05469 3.422-0.3242 0.6953-0.6289 1.355-0.1562 2.301 0.3828 0.7656 0.5352 3.633 0.2227 5.934 0.1484-1.086 0.4766-2.312 0.4766-3.598 0-1.008-0.0625-1.934-0.2812-2.375-0.1367-0.2695-0.1602-0.6914-0.1602-0.9141 0-0.3789 0.1602-0.7227 0.3516-1.141 0.1562-0.3398 0.2656-1.156 0.2656-1.973 0-0.8555-0.1172-1.707-0.4219-2.008-0.04688-0.05078-0.07422-0.07422-0.07422-0.1172s0.03125-0.1016 0.09375-0.2305c0.1484-0.293 0.3672-0.7344 0.3672-1.562l-0.1641-0.5742s-0.01953-0.03906-0.03516-0.07031c0.03516 0.03516 0.1562 0.003906 0.1562 0.003906 0.8789-0.1875 1.73-1.902 1.762-2.633 0.1016-2.359-0.3242-3.625-1.43-4.242l-0.2422 0.4375" fill="#231f1f"/>
</g>
<path transform="matrix(.1 0 0 -.1 0 87.1)" d="m71.52 228c-0.8203 1.602-2.461 4.023-3.672 5.547-17.07 21.37-53.16 88.63-62.03 166.8-7.227 63.59-5.742 129.3 36.56 206.8 39.92 73.24 119.1 151.8 249.6 166.4 98.01 10.94 133.8-15.39 165.8-26.05s57.66-0.3125 63.59 14.06c6.328 15.39 0.3906 32.77-16.68 58.4 5.703 2.578 14.06 8.828 17.19 10.94 3.633-8.359 22.93-33.91 26.05-54.22 3.125-20.35-5.703-37.03-19.26-46.41-13.67-9.453-28.16-8.32-25.55-19.26 2.617-10.98 2.578-29.22 1.016-42.77-0.8984-8.008-3.125-16.68-9.375-17.19-6.25-0.5078-7.812 4.18-7.305 14.06 0.5469 9.922-3.633 25.04-6.25 28.67-2.617 3.672-4.688-2.07-5.195-10.43-0.5469-8.32 5.742-38.55 5.195-61.48-0.3906-17.23-5.195-39.61-18.24-41.72-13.01-2.07-23.44 20.35-24.49 59.41-1.055 39.1-7.5 76.21-25.27 91.21-26.88 22.7-103 26.95-167.1 9.258-64.1-17.73-105.3-50.51-116.8-63.01-11.45-12.5-17.66-24.92-17.11-40.04 0.5078-15.12-0.5469-33.36-10.43-42.73-9.922-9.414-26.05-13.05-33.87-8.867-0.5469-4.688-7.852-17.23-14.1-26.05-6.25-8.867-5.195-21.41-13.55-31.29-5.312-6.289 0.5469-3.125-1.016-22.93-1.562-19.8-1.055-42.23-5.742-54.22-4.688-11.99-4.18-21.37-2.617-27.11 1.562-5.742 10.43-33.36 9.922-47.42-0.2734-7.383 12.5-25.04 10.94-41.17-0.6641-7.07 0.3516-19.14 7.305-25.04 17.19-14.61 16.68-24.49 21.88-39.61 2.891-8.398 5.234-29.73 13.55-30.74 8.359-1.055 28.67-7.812 50.16-19.77 42.66-23.71 100.2-75.86 125.5-167.4 4.141-14.92-0.6641-18.55-7.305-3.125-28.12 65.55-76.88 138.7-156.9 163.2" fill="none" stroke="#231f1f" stroke-width="5"/>
<g clip-path="url(#w)">
<path d="m6.875 64.33c0.7031 1.332-0.08594 2.859-1 4.625l-1.094 2.309c-0.3516 0.8789-0.6641 1.91-0.9375 3.023-1.082 4.406-1.309 10.08-1.125 12.81-0.1641-2.43 0.5273-8.312 1.645-12.81 0.2578-1.039 0.5508-2.004 0.8789-2.84l1.078-2.262c0.9375-1.812 1.824-3.527 0.9922-5.09l-0.4375 0.2344" fill="#231f1f"/>
</g>
<g clip-path="url(#u)">
<path d="m95.89 49.85c0.09375 0.2461 0.2891 0.4336 0.5781 0.5547 0.7422 0.3086 2.992 3.828 3.438 5.609 0.1445 0.582 0.4648 1.238 0.832 1.996 0.7656 1.586 1.816 3.762 2.012 6.809l0.4531 3.289c0.2148 1.328 0.4688 2.871 0.6719 4.652 0.4219 3.699 0.8789 8.445 0.09766 14.29 0.8008-5.984 0.8203-10.76 0.3828-14.52-0.2031-1.715-0.4492-3.215-0.6602-4.504l-0.4453-3.246c-0.2031-3.145-1.277-5.367-2.062-6.988-0.3555-0.7383-0.6641-1.371-0.7969-1.902-0.4336-1.734-2.695-5.52-3.73-5.949-0.1602-0.06641-0.2578-0.1562-0.3008-0.2695-0.07422-0.2031-0.003907-0.5117 0.2109-0.9531l-0.4492-0.2227c-0.1797 0.3672-0.3984 0.9023-0.2305 1.352" fill="#231f1f"/>
</g>
<path transform="matrix(.1 0 0 -.1 0 87.1)" d="m915.2 348.8c-10.66-8.047-22.97-21.33-33.24-36.33-36.52-53.52-38.98-95.43-43.55-125.3-1.875-12.23-6.094-19.14-6.719-0.8203-1.445 40.08 3.906 92.77 41.64 146.9 28.71 41.13 48.63 43.48 65.27 58.67 16.84 15.39 38.01 46.84 48.28 67.3 10.23 20.47 26.33 60.7 24.84 101.6-1.445 40.98-9.805 53.24-17.15 68.59-7.305 15.35-11.72 30.43 1.602 45.9 6.523 7.539 26.84 19.96 38.05 26.37 2.812-3.398 7.266-16.29 8.008-19.22-8.164-3.242-23.63-11.52-27.27-19.96-6.953-16.25 5.547-21.95 12.3-43.55 10.59-33.79 7.891-71.29 5.664-89.57-2.188-18.28-10.98-65.08-30.7-95.78-19.77-30.74-32.93-38.05-36.56-44.65-0.7031-1.25-1.758-3.242-2.5-4.688" fill="none" stroke="#231f1f" stroke-width="5"/>
<path d="m89.45 56c0 1.223 0.4062 2.324 0.6914 3.098l0.2461 0.7617c0.1133 0.8047 0.7188 1.801 1.352 2.223 0 0 0.1641 0.04297 0.3242 0.08203-0.05859 0.1953-0.09375 0.4258-0.09375 0.6992 0 0.6719 0.1406 1.449 0.2656 1.875-0.1758 0.0625-0.3477 0.125-0.3477 0.125-0.8945 0.7891-1.051 3.23-1.062 3.508-0.003906 0.07422-0.007813 0.1562-0.007813 0.2461 0 1.551 0.625 4.645 1.137 5.523 0.1133 0.1914 0.1602 0.418 0.1602 0.6719 0 0.5625-0.2344 1.285-0.5273 2.176l-0.3125 0.9766c-0.1133 0.3672-0.1602 0.8633-0.1602 1.43 0 1.758 1.277 7.566 1.277 7.566s-1.312-7.133-0.6406-8.852l0.3125-0.9688c0.4648-1.414 0.7969-2.438 0.3242-3.254-0.4883-0.832-1.133-4.168-1.066-5.492 0.06641-1.234 0.3945-2.715 0.8984-3.156l0.5391-0.2109 0.007812-0.2539c-0.25-0.582-0.4258-2.352-0.1992-2.578l0.2812-0.2773-0.5195-0.1406-0.3125-0.1094c-0.4531-0.3047-1.031-1.152-1.133-1.879l-0.2734-0.8633c-0.5391-1.465-1.547-4.191 1.066-6.52l-0.332-0.3711c-1.457 1.297-1.895 2.695-1.895 3.965" fill="#231f1f"/>
<g clip-path="url(#t)">
<path d="m51.06 53.46 0.707 2.016c0.8008 2.254 1.711 4.809 1.855 6.52l0.6211 3.996c0.4492 2.496 1.094 5.137 1.133 7.391l0.1055 2.371c0.1641 3.164 0.5312 8.16 0.1797 11.3 0.3555-3.176 0.3516-7.953 0.1875-11.13l-0.1055-2.352c-0.04297-2.293-0.5547-5.148-1.008-7.664l-0.6172-3.949c-0.1445-1.773-1.027-4.25-1.883-6.645l-0.7031-2.004-0.4727 0.1562" fill="#231f1f"/>
</g>
<path transform="matrix(.1 0 0 -.1 0 87.1)" d="m421 218.6c5.039 26.41 8.047 49.73 5.195 66.45-6.797 39.96-2.656 108 9.297 130.5 11.99 22.46 36.41 42.27 40.9 22.81 4.492-19.49 7.383-48.95 6.719-75.43 2.969 22.46-1.406 138.2 0 165.3 2.031 38.87-2.07 85.62 0 98.24 2.031 12.38 12.34 14.69 14.96 2.969 3.125-14.06 6.484-66.37 6.484-101.9 0-18.05-1.992-128.8 1.016-161.6 0.625-7.07 3.555-17.15 7.461-28.71" fill="none" stroke="#231f1f" stroke-width="5"/>
<path d="m41.13 68.72-0.5117 2.457c-0.4141 2.043-0.5195 10.86 0.3125 15.67-0.5898-4.246-0.2305-13.55 0.1758-15.57l0.5117-2.449 0.7227-3.539-0.4883-0.09375-0.7227 3.527" fill="#231f1f"/>
<g clip-path="url(#s)">
<path d="m130.8 66.05c0.918 0.5117 1.27 1.641 1.176 3.785-0.02734 0.5938-0.8164 2.047-1.367 2.164-0.2227 0.04688-0.4453 0.1172-0.5312 0.3047-0.08594 0.1797 0 0.3477 0.06641 0.4805l0.1094 0.3438c0 0.7109-0.1797 1.074-0.3125 1.336-0.1328 0.2695-0.2852 0.5703 0.07422 0.9258 0.3633 0.3672 0.3438 2.797 0.05469 3.422-0.3203 0.6953-0.625 1.355-0.1523 2.301 0.3828 0.7656 0.5352 3.633 0.2227 5.934 0.1445-1.086 0.4844-2.371 0.4844-3.652 0-1.012-0.1211-1.879-0.3398-2.32-0.1367-0.2695-0.1094-0.6914-0.1094-0.9141 0-0.3789 0.1562-0.7227 0.3477-1.141 0.1602-0.3398 0.2656-1.156 0.2656-1.973 0-0.8555-0.1172-1.707-0.418-2.008-0.05078-0.05078-0.07812-0.07422-0.07812-0.1172s0.03125-0.1016 0.09766-0.2305c0.1445-0.293 0.3633-0.7344 0.3633-1.562l-0.1641-0.5742s-0.01953-0.03906-0.03125-0.07031c0.03516 0.03516 0.1562 0.003906 0.1562 0.003906 0.875-0.1875 1.73-1.902 1.762-2.633 0.1016-2.359-0.3281-3.625-1.434-4.242l-0.2422 0.4375" fill="#231f1f"/>
</g>
<path transform="matrix(.1 0 0 -.1 0 87.1)" d="m1274 229.8c-0.5469 0.8203-2.031 2.969-2.656 3.75-17.07 21.37-53.16 88.63-62.03 166.8-7.188 63.59-5.742 129.3 36.56 206.8 39.96 73.24 119.1 151.8 249.6 166.4 98.05 10.94 133.8-15.39 165.8-26.05 32.03-10.66 57.7-0.3125 63.59 14.06 6.328 15.39 0.3906 32.77-16.68 58.4 5.742 2.578 14.1 8.828 17.23 10.94 3.633-8.359 22.93-33.91 26.05-54.22 3.125-20.35-5.742-37.03-19.3-46.41-13.67-9.453-28.16-8.32-25.55-19.26 2.617-10.98 2.656-22.23 8.164-37.7 2.734-7.617 6.055-20.94-2.773-22.03-6.211-0.7812-12.38 8.203-15.43 17.62-4.961 15.47-7.188 24.84-11.84 24.88-4.492 0.03906-4.688-2.07-5.234-10.43-0.5078-8.32 5.742-38.55 5.234-61.48-0.3906-17.23-5.234-39.61-18.24-41.72-13.05-2.07-23.48 20.35-24.49 59.41-1.055 39.1-7.5 76.21-25.31 91.21-26.88 22.7-103 26.95-167.1 9.258-64.1-17.73-105.2-50.51-116.7-63.01s-17.66-24.92-17.15-40.04c0.5469-15.12-0.5078-33.36-10.43-42.73-9.883-9.414-26.05-13.05-33.87-8.867-0.5078-4.688-7.812-17.23-14.06-26.05-6.25-8.867-5.234-21.41-13.55-31.29-5.312-6.289 0.5078-3.125-1.055-22.93-1.562-19.8-1.055-42.23-5.742-54.22-4.688-11.99-4.141-21.37-2.578-27.11 1.562-5.742 10.43-33.36 9.883-47.42-0.2734-7.383 12.5-25.04 10.94-41.17-0.6641-7.07 0.3516-19.14 7.305-25.04 17.23-14.61 16.68-24.49 21.91-39.61 2.891-8.398 5.195-29.73 13.55-30.74 8.32-1.055 28.63-7.812 50.16-19.77 42.66-23.71 100.2-75.86 125.5-167.4 4.102-14.92-0.7031-18.55-7.305-3.125-28.12 65.55-76.91 138.7-156.9 163.2" fill="none" stroke="#231f1f" stroke-width="5"/>
<g clip-path="url(#r)">
<path d="m127.1 64.12c0.9102 1.383 0.08203 2.98-0.8711 4.832l-1.098 2.309c-1.734 4.367-2.41 12.02-2.062 15.84-0.1992-2.988 0.7656-11.21 2.527-15.65l1.074-2.262c0.9883-1.906 1.918-3.711 0.8477-5.336l-0.418 0.2734" fill="#231f1f"/>
</g>
<g clip-path="url(#q)">
<path d="m216.2 49.86c0.09375 0.2422 0.2891 0.4258 0.5742 0.543 0.7422 0.3086 2.988 3.828 3.434 5.609 0.1484 0.582 0.4648 1.238 0.832 1.996 0.7695 1.586 1.82 3.762 2.016 6.809l0.4492 3.289c0.2695 1.637 0.5898 3.609 0.8086 5.941 0.3242 3.488 0.6562 7.816-0.03906 13 0.7031-5.254 0.8633-9.566 0.5312-13.09-0.2148-2.324-0.5391-4.293-0.8047-5.93l-0.4453-3.246c-0.2031-3.145-1.281-5.367-2.066-6.988-0.3555-0.7383-0.6602-1.371-0.793-1.902-0.4336-1.734-2.699-5.52-3.73-5.949-0.1562-0.06641-0.2578-0.1523-0.3008-0.2656-0.07031-0.1797-0.01953-0.4609 0.1523-0.8398l-0.4531-0.207c-0.1484 0.3242-0.3281 0.8086-0.1641 1.23" fill="#231f1f"/>
</g>
<g clip-path="url(#p)">
<path transform="matrix(.1 0 0 -.1 0 87.1)" d="m2119 348.8c-10.62-8.047-22.97-21.33-33.2-36.33-36.52-53.52-39.02-95.43-43.59-125.3-1.875-12.23-6.094-19.14-6.719-0.8203-1.406 40.08 3.945 92.77 41.68 146.9 28.67 41.13 48.59 43.48 65.23 58.67 16.84 15.39 38.05 46.84 48.28 67.3 10.23 20.47 26.33 60.7 24.88 101.6-1.484 40.98-9.844 53.24-17.15 68.59-7.305 15.35-11.76 30.43 1.602 45.9 6.484 7.539 26.84 19.96 38.01 26.37 2.812-3.398 7.266-16.29 8.008-19.22-8.164-3.242-23.59-11.52-27.23-19.96-6.992-16.25 5.547-21.95 12.3-43.55 10.59-33.79 7.852-71.29 5.664-89.57-2.227-18.28-10.98-65.08-30.74-95.78-19.73-30.74-32.89-38.05-36.56-44.65-0.8984-1.641-2.461-4.688-3.32-6.562" fill="none" stroke="#231f1f" stroke-width="5"/>
</g>
<path d="m209.8 56c0 1.223 0.4102 2.324 0.6953 3.098l0.2422 0.7617c0.1172 0.8047 0.7227 1.801 1.352 2.223 0 0 0.1641 0.04297 0.3281 0.08203-0.0625 0.1953-0.09766 0.4258-0.09766 0.6992 0 0.6719 0.1445 1.449 0.2656 1.875-0.1719 0.0625-0.3438 0.125-0.3438 0.125-0.8984 0.7891-1.051 3.23-1.066 3.508-0.003906 0.07422-0.007813 0.1562-0.007813 0.2461 0 1.551 0.625 4.645 1.141 5.523 0.1094 0.1914 0.1602 0.418 0.1602 0.6719 0 0.5625-0.2383 1.285-0.5312 2.176l-0.3125 0.9766c-0.1133 0.3672-0.1602 0.8633-0.1602 1.43 0 1.758 1.277 7.566 1.277 7.566s-1.23-7.043-0.6406-8.852l0.3125-0.9688c0.4648-1.414 0.8008-2.438 0.3242-3.254-0.4883-0.832-1.133-4.168-1.062-5.492 0.06641-1.234 0.3945-2.715 0.8945-3.156l0.5391-0.2109 0.007812-0.2539c-0.2461-0.582-0.4219-2.352-0.1992-2.578l0.2812-0.2773-0.5195-0.1406-0.3086-0.1094c-0.4531-0.3047-1.031-1.152-1.137-1.879l-0.2695-0.8633c-0.543-1.465-1.547-4.191 1.066-6.52l-0.332-0.3711c-1.461 1.297-1.898 2.695-1.898 3.965" fill="#231f1f"/>
<g clip-path="url(#o)">
<path d="m171.5 53.41 0.6875 2.082c0.7578 2.246 1.613 4.789 1.754 6.5l0.625 3.996c0.4492 2.496 1.051 5.086 1.09 7.34l0.1055 2.371c0.168 3.164 0.5703 8.211 0.2188 11.35 0.3555-3.176 0.3555-7.953 0.1875-11.13l-0.1055-2.352c-0.03906-2.293-0.5547-5.148-1.004-7.664l-0.6172-3.949c-0.1484-1.773-0.9766-4.234-1.781-6.613l-0.6836-2.074-0.4766 0.1484" fill="#231f1f"/>
</g>
<path transform="matrix(.1 0 0 -.1 0 87.1)" d="m1623 212.9c5.625 28.71 9.336 54.22 6.289 72.15-6.797 39.96-2.695 108 9.297 130.5 11.95 22.46 36.41 42.27 40.9 22.81 4.492-19.49 7.93-53.05 7.266-79.53-0.5469 43.59 2.773 99.84 16.33 154.3 11.91 47.89 22.3 74.65 32.77 90.62 9.023 13.79 20.7 12.19 15.43 0-10.47-24.26-23.16-59.57-30.31-99.84-3.164-17.73-13.52-105.6-10.51-138.5 0.625-6.875 3.32-16.64 6.836-27.81" fill="none" stroke="#231f1f" stroke-width="5"/>
<path d="m161.5 68.72-0.5117 2.453c-0.4141 2.043-0.5078 11.26 0.3125 15.67-0.5859-4.246-0.2305-13.55 0.1797-15.57l0.5117-2.449 0.6094-2.965-0.4883-0.09766-0.6133 2.961" fill="#231f1f"/>
<path d="m152.8 42.29 8.551-4.656 0.4492 2.922c0.9062-2.445 2.918-5.383 4.707-7.438-2.695 0.3906-6.258 0.4844-8.801-0.07812l2.211 1.961-8.551 4.656 1.434 2.633" fill="#4f808d"/>
<path transform="matrix(.1 0 0 -.1 0 87.1)" d="m1528 448.1 85.51 46.56 4.492-29.22c9.062 24.45 29.18 53.83 47.07 74.38-26.95-3.906-62.58-4.844-88.01 0.7812l22.11-19.61-85.51-46.56z" fill="none" stroke="#231f1f" stroke-width="5"/>
<path transform="matrix(.1 0 0 -.1 0 87.1)" d="m1724 829.5c7.422-14.84 31.8-26.45 47.5-17.81 15.35 8.398 19.3 27.7 11.88 47.5" fill="none" stroke="#231f1f" stroke-width="5"/>
<g clip-path="url(#n)">
<path transform="matrix(.1 0 0 -.1 0 87.1)" d="m2199 750.3c-9.883-9.414-16.84-25.23-10.9-38.59s20.27-22.27 46.99-11.88" fill="none" stroke="#231f1f" stroke-width="5"/>
</g>
<path d="m48.52 60.77c-1.383 2.148-4.609 5.754-6.098 6.023-1.488 0.2734-3.039 2.355-4.062 3.863-2.453 3.547-3.812 7.688-4.785 11.49-0.4141 1.625-0.9453 1.344-0.7695-0.1953 0.8125-7.074 3.551-11.7 6.129-15.13 1.594-2.121 2.934-2.438 3.965-4.152 1.012-1.691 6.094-9.348 6.703-10.29 0.6094-0.9492 2.301-2.91 4.129-3.117 1.828-0.2031 7.395-0.7617 12.19 5.215 4.133 5.148 5.555 10.09 5.895 14.09 0.1523 1.828-0.3477 1.191-0.6797 0-0.8125-2.91-1.555-7.043-5.824-11.92-4.121-4.711-8.324-4.66-10.22-4.129-2.914 0.8125-3.387 3.316-6.57 8.262" fill="#e5c6c6"/>
<path transform="matrix(.1 0 0 -.1 0 87.1)" d="m485.2 263.3c-13.83-21.48-46.09-57.54-60.98-60.23-14.88-2.734-30.39-23.55-40.62-38.63-24.53-35.47-38.12-76.88-47.85-114.9-4.141-16.25-9.453-13.44-7.695 1.953 8.125 70.74 35.51 117 61.29 151.3 15.94 21.21 29.34 24.38 39.65 41.52 10.12 16.91 60.94 93.48 67.03 102.9 6.094 9.492 23.01 29.1 41.29 31.17 18.28 2.031 73.95 7.617 121.9-52.15 41.33-51.48 55.55-100.9 58.95-140.9 1.523-18.28-3.477-11.91-6.797 0-8.125 29.1-15.55 70.43-58.24 119.2-41.21 47.11-83.24 46.6-102.2 41.29-29.14-8.125-33.87-33.16-65.7-82.62z" fill="none" stroke="#231f1f" stroke-width="5"/>
<path d="m168.9 60.77c-1.383 2.148-4.605 5.754-6.094 6.023-1.492 0.2734-3.043 2.355-4.066 3.863-2.453 3.547-3.812 7.688-4.785 11.49-0.4141 1.625-0.9453 1.344-0.7695-0.1953 0.8164-7.074 3.551-11.7 6.129-15.13 1.594-2.121 2.938-2.438 3.965-4.152 1.016-1.691 6.094-9.348 6.703-10.29 0.6094-0.9492 2.305-2.91 4.133-3.117 1.828-0.2031 7.395-0.7617 12.19 5.215 4.129 5.148 5.551 10.09 5.891 14.09 0.1562 1.828-0.3438 1.191-0.6758 0-0.8125-2.91-1.559-7.043-5.824-11.92-4.125-4.711-8.328-4.66-10.23-4.129-2.91 0.8125-3.387 3.316-6.57 8.262" fill="#e5c6c6"/>
<path transform="matrix(.1 0 0 -.1 0 87.1)" d="m1689 263.3c-13.83-21.48-46.05-57.54-60.94-60.23-14.92-2.734-30.43-23.55-40.66-38.63-24.53-35.47-38.12-76.88-47.85-114.9-4.141-16.25-9.453-13.44-7.695 1.953 8.164 70.74 35.51 117 61.29 151.3 15.94 21.21 29.38 24.38 39.65 41.52 10.16 16.91 60.94 93.48 67.03 102.9 6.094 9.492 23.05 29.1 41.33 31.17 18.28 2.031 73.95 7.617 121.9-52.15 41.29-51.48 55.51-100.9 58.91-140.9 1.562-18.28-3.438-11.91-6.758 0-8.125 29.1-15.59 70.43-58.24 119.2-41.25 47.11-83.28 46.6-102.3 41.29-29.1-8.125-33.87-33.16-65.7-82.62z" fill="none" stroke="#231f1f" stroke-width="5"/>
<path d="m98.82 10.48c-4.18 2.387-6.418 0.4453-8.285-0.9688-1.863-1.418-5.52-3.359-10.67-4.48-6.457-1.402-12.24-0.918-15.45-0.7461-2.758 0.1484-4.254-2.609-4.922-3.953-0.4492 0.2227-1.344 0.6719-1.719 0.8203 0.6719 1.344 2.762 5.445 5.973 5.371 3.207-0.07422 9.586-0.7305 16.04 0.6719 5.148 1.121 8.789 3.383 10.67 4.777 2.316 1.715 5.227 2.609 9.402 0.2227-0.2969-0.6719-0.8945-1.344-1.043-1.715" fill="#d9aeaf"/>
<path transform="matrix(.1 0 0 -.1 0 87.1)" d="m988.2 766.2c-41.8-23.87-64.18-4.453-82.85 9.688-18.63 14.18-55.2 33.59-106.7 44.8-64.57 14.02-122.4 9.18-154.5 7.461-27.58-1.484-42.54 26.09-49.22 39.53-4.492-2.227-13.44-6.719-17.19-8.203 6.719-13.44 27.62-54.45 59.73-53.71 32.07 0.7422 95.86 7.305 160.4-6.719 51.48-11.21 87.89-33.83 106.7-47.77 23.16-17.15 52.27-26.09 94.02-2.227-2.969 6.719-8.945 13.44-10.43 17.15z" fill="none" stroke="#231f1f" stroke-width="5"/>
<path d="m219.2 10.48c-4.176 2.387-6.414 0.4453-8.281-0.9688-1.867-1.418-5.523-3.359-10.67-4.48-6.453-1.402-12.24-0.918-15.45-0.7461-2.762 0.1484-4.254-2.609-4.926-3.953-0.4492 0.2227-1.344 0.6719-1.715 0.8203 0.6719 1.344 2.762 5.445 5.969 5.371 3.207-0.07422 9.586-0.7305 16.04 0.6719 5.148 1.121 8.789 3.383 10.67 4.777 2.312 1.715 5.223 2.609 9.402 0.2227-0.3008-0.6719-0.8945-1.344-1.047-1.715" fill="#d9aeaf"/>
<path transform="matrix(.1 0 0 -.1 0 87.1)" d="m2192 766.2c-41.76-23.87-64.14-4.453-82.81 9.688-18.67 14.18-55.23 33.59-106.7 44.8-64.53 14.02-122.4 9.18-154.5 7.461-27.62-1.484-42.54 26.09-49.26 39.53-4.492-2.227-13.44-6.719-17.15-8.203 6.719-13.44 27.62-54.45 59.69-53.71 32.07 0.7422 95.86 7.305 160.4-6.719 51.48-11.21 87.89-33.83 106.7-47.77 23.12-17.15 52.23-26.09 94.02-2.227-3.008 6.719-8.945 13.44-10.47 17.15z" fill="none" stroke="#231f1f" stroke-width="5"/>
<path d="m74.51 30.91h0.7969v4.879h2.336v0.7031h-3.133v-5.582" fill="#231f1f"/>
<path d="m80.68 31.66-1.113 2.77h2.223zm-0.3945-0.75h0.8398l2.359 5.582h-0.8711l-0.5664-1.406h-2.738l-0.5664 1.406h-0.8398l2.383-5.582" fill="#231f1f"/>
<path d="m22.17 38.89h0.6797c0.7578 0 1.207-0.3359 1.207-0.8711 0-0.5039-0.3828-0.8242-1.117-0.8242h-0.7695zm-0.8008-2.398h1.367c1.105 0 2.168 0.1758 2.168 1.512 0 0.6797-0.5039 1.16-1.152 1.273v0.01562c0.25 0.09375 0.3711 0.2148 0.5469 0.5586l1.055 2.223h-0.9102l-0.8594-1.934c-0.2461-0.543-0.5117-0.543-0.9336-0.543h-0.4805v2.477h-0.8008v-5.582" fill="#231f1f"/>
<path d="m28.47 37.24-1.113 2.77h2.223zm-0.3945-0.75h0.8398l2.359 5.582h-0.8711l-0.5664-1.406h-2.738l-0.5664 1.406h-0.8398l2.383-5.582" fill="#231f1f"/>
<path d="m70.48 76.29h0.8008v4.879h2.336v0.707h-3.137v-5.586" fill="#231f1f"/>
<path d="m76.34 81.87h-1l-2.102-5.586h0.8945l1.719 4.879h0.01953l1.766-4.879h0.8398l-2.137 5.586" fill="#231f1f"/>
<path d="m13.71 80.78h0.6797c0.7578 0 1.207-0.3359 1.207-0.875 0-0.5-0.3828-0.8203-1.121-0.8203h-0.7656zm-0.8008-2.402h1.367c1.105 0 2.168 0.1758 2.168 1.516 0 0.6797-0.5039 1.156-1.152 1.27v0.01563c0.25 0.09766 0.3672 0.2148 0.5469 0.5586l1.055 2.227h-0.9141l-0.8555-1.938c-0.2461-0.543-0.5117-0.543-0.9336-0.543h-0.4805v2.48h-0.8008v-5.586" fill="#231f1f"/>
<path d="m20.15 83.96h-1l-2.105-5.586h0.8945l1.723 4.883h0.01562l1.766-4.883h0.8398l-2.133 5.586" fill="#231f1f"/>
<path d="m192.6 27.54h0.7969v4.883h2.336v0.7031h-3.133v-5.586" fill="#231f1f"/>
<path d="m198.8 28.3-1.113 2.77h2.223zm-0.3945-0.7539h0.8398l2.359 5.586h-0.8711l-0.5664-1.41h-2.738l-0.5664 1.41h-0.8398l2.383-5.586" fill="#231f1f"/>
<path d="m138.2 50.19h0.6836c0.7578 0 1.207-0.3359 1.207-0.8711 0-0.5039-0.3828-0.8242-1.121-0.8242h-0.7695zm-0.7969-2.402h1.367c1.105 0 2.168 0.1797 2.168 1.512 0 0.6797-0.5039 1.16-1.152 1.273v0.01562c0.2461 0.09766 0.3672 0.2148 0.543 0.5625l1.059 2.223h-0.9141l-0.8555-1.938c-0.2461-0.543-0.5117-0.543-0.9375-0.543h-0.4805v2.48h-0.7969v-5.586" fill="#231f1f"/>
<path d="m144.5 48.54-1.109 2.766h2.223zm-0.3906-0.7539h0.8398l2.359 5.586h-0.8711l-0.5703-1.41h-2.734l-0.5664 1.41h-0.8398l2.383-5.586" fill="#231f1f"/>
<path d="m190.4 76.29h0.8008v4.879h2.336v0.707h-3.137v-5.586" fill="#231f1f"/>
<path d="m196.3 81.87h-1l-2.105-5.586h0.8945l1.723 4.879h0.01562l1.766-4.879h0.8398l-2.133 5.586" fill="#231f1f"/>
<path d="m133.9 80.78h0.6797c0.7617 0 1.211-0.3359 1.211-0.875 0-0.5-0.3867-0.8203-1.121-0.8203h-0.7695zm-0.8008-2.402h1.371c1.102 0 2.168 0.1758 2.168 1.516 0 0.6797-0.5039 1.156-1.152 1.27v0.01563c0.2461 0.09766 0.3672 0.2148 0.543 0.5586l1.055 2.227h-0.9102l-0.8555-1.938c-0.25-0.543-0.5117-0.543-0.9375-0.543h-0.4805v2.48h-0.8008v-5.586" fill="#231f1f"/>
<path d="m140.3 83.96h-1l-2.105-5.586h0.8984l1.719 4.883h0.01562l1.77-4.883h0.8398l-2.137 5.586" fill="#231f1f"/>
</svg>
