<?xml version="1.0" encoding="UTF-8"?>
<svg viewBox="0 0 535.4 398" xmlns="http://www.w3.org/2000/svg" xmlns:xlink="http://www.w3.org/1999/xlink">
<defs>
<g id="ap">
<path d="m3.891-4.469c-0.4375-0.4062-1.062-0.6094-1.625-0.6094-0.9219 0-1.922 0.4531-1.922 1.547 0 0.9062 0.6406 1.219 1.266 1.422 0.6562 0.2188 1.031 0.3281 1.031 0.7031 0 0.4062-0.3125 0.5469-0.6875 0.5469-0.3906 0-0.8281-0.2188-1.062-0.5312l-0.7812 0.7969c0.4219 0.4531 1.141 0.7188 1.844 0.7188 0.9844 0 1.906-0.5156 1.906-1.656 0-0.9844-0.875-1.266-1.547-1.484-0.4688-0.1406-0.7656-0.25-0.7656-0.5781 0-0.3906 0.3906-0.5 0.7031-0.5s0.6719 0.1719 0.875 0.4219z"/>
</g>
<g id="ao">
<path d="m2.516-2.625v-0.8594h-0.8281v-0.9219h-1.125v0.9219h-0.5469v0.8594h0.5625v1.469c0 0.75 0.2969 1.234 1.234 1.234 0.25 0 0.5156-0.04688 0.6719-0.09375l-0.01562-0.8438c-0.09375 0.03125-0.2344 0.04688-0.3438 0.04688-0.3281 0-0.4375-0.1562-0.4375-0.4844v-1.328z"/>
</g>
<g id="an">
<path d="m1.375-2.141c0.03125-0.3594 0.3438-0.6719 0.7812-0.6719 0.4688 0 0.6875 0.3125 0.6875 0.6719zm2.531 0.4375c0-1.188-0.7188-1.891-1.75-1.891-1.062 0-1.891 0.7188-1.891 1.859 0 1.188 0.875 1.844 1.922 1.844 0.7031 0 1.25-0.2656 1.578-0.7344l-0.7969-0.5156c-0.1406 0.2188-0.4062 0.375-0.7656 0.375-0.4062 0-0.7969-0.2812-0.8281-0.6562h2.531v-0.2812z"/>
</g>
<g id="am">
<path d="m4.328-1.75c0-0.9844-0.6406-1.828-1.656-1.828-0.5156 0-0.9062 0.2344-1.109 0.5156h-0.01562v-0.4219h-1.094v5.172h1.141v-2.078h0.01562c0.2188 0.3125 0.625 0.4844 1.062 0.4844 1.047 0 1.656-0.875 1.656-1.844zm-1.109 0c0 0.4531-0.2812 0.8906-0.8281 0.8906-0.5156 0-0.8438-0.4375-0.8438-0.8906 0-0.4375 0.3281-0.8906 0.8438-0.8906 0.5469 0 0.8281 0.4375 0.8281 0.8906z"/>
</g>
<g id="cg">
<path d="m3.156 0v-4.953h-1.078l-1.625 1.188 0.6094 0.8438 0.9219-0.7188v3.641z"/>
</g>
<g id="cf">
<path d="m4.062 0v-1.016h-2.031l1.156-1.031c0.4531-0.4062 0.8594-0.8125 0.8594-1.516 0-1.047-0.875-1.531-1.781-1.531-0.9688 0-1.781 0.5938-1.891 1.594l1.125 0.1562c0.04688-0.4375 0.3125-0.75 0.7031-0.75 0.3594 0 0.6094 0.25 0.6094 0.5938 0 0.3125-0.1562 0.5312-0.4062 0.7656l-1.938 1.75v0.9844z"/>
</g>
<g id="ce">
<path d="m4.078-1.438c0-0.5625-0.3906-1.016-0.9531-1.156v-0.01562c0.4844-0.125 0.8438-0.5312 0.8438-1.078 0-0.9531-0.875-1.406-1.75-1.406-0.8281 0-1.609 0.4375-1.844 1.266l1.094 0.25c0.07812-0.3281 0.3438-0.5469 0.6719-0.5469s0.625 0.1875 0.625 0.5469c0 0.4688-0.4219 0.5781-0.875 0.5781h-0.3438v0.8594h0.3281c0.4844 0 1 0.1562 1 0.6562 0 0.4688-0.3906 0.625-0.7188 0.625-0.4531 0-0.75-0.2812-0.8438-0.6094l-1.094 0.2812c0.2656 0.9219 1.094 1.328 2 1.328s1.859-0.5 1.859-1.578z"/>
</g>
<g id="cd">
<path d="m4.281-0.9688v-0.9531h-0.6875v-3.031h-1.406l-2.016 3v0.9844h2.328v0.9688h1.109v-0.9688zm-1.766-0.9531h-1.203l1.172-1.828h0.03125z"/>
</g>
<g id="cc">
<path d="m4.078-1.641c0-1.047-0.7969-1.578-1.797-1.578-0.1406 0-0.3438 0.01562-0.5 0.0625l0.04688-0.7969h2v-1h-3.047l-0.1094 2.828c0.3438-0.125 0.8594-0.2188 1.203-0.2188 0.4844 0 1.016 0.1719 1.016 0.7656 0 0.4688-0.3438 0.7188-0.7344 0.7188s-0.7031-0.25-0.8125-0.5938l-1.062 0.3281c0.2344 0.7812 0.9844 1.266 1.875 1.266 0.9844 0 1.922-0.5781 1.922-1.781z"/>
</g>
<g id="ch">
<path d="m4.203-1.672c0-0.9531-0.75-1.609-1.625-1.609-0.1094 0-0.25 0.01562-0.3438 0.04688l0.01562-0.03125 1.219-1.688h-1.422l-1.188 1.781c-0.3281 0.4844-0.5625 0.9531-0.5625 1.531 0 1.094 0.875 1.781 1.953 1.781s1.953-0.6719 1.953-1.812zm-1.172 0.03125c0 0.4688-0.3125 0.7969-0.7812 0.7969s-0.7656-0.3594-0.7656-0.7812c0-0.4688 0.3125-0.7969 0.7812-0.7969 0.4531 0 0.7656 0.3281 0.7656 0.7812z"/>
</g>
<g id="s">
<path d="m1.297-2.266h2.344v-0.5938h-2.344v-1.484h2.484v-0.6094h-3.172v4.953h3.281v-0.6094h-2.594z"/>
</g>
<g id="e">
<path d="m2.812-2.859c-0.2344-0.3594-0.7344-0.5469-1.203-0.5469-0.625 0-1.25 0.2969-1.25 1.016 0 0.625 0.5156 0.8125 0.9688 0.9062 0.5625 0.1406 0.8594 0.25 0.8594 0.5625 0 0.3594-0.3281 0.4844-0.6562 0.4844-0.375 0-0.7031-0.2031-0.875-0.4688l-0.4688 0.4062c0.3125 0.3906 0.8281 0.5938 1.328 0.5938 0.6719 0 1.328-0.2969 1.328-1.078 0-0.5781-0.4844-0.8281-1.109-0.9688-0.5156-0.125-0.7656-0.2188-0.7656-0.5 0-0.3125 0.3125-0.4375 0.625-0.4375 0.3281 0 0.625 0.1719 0.7656 0.4062z"/>
</g>
<g id="c">
<path d="m2.188-3.312h-0.875v-0.9531h-0.6562v0.9531h-0.6406v0.5312h0.6406v1.797c0 0.6875 0.3438 1.047 0.9688 1.047 0.2031 0 0.4062-0.04688 0.5625-0.09375l-0.03125-0.5469c-0.1094 0.0625-0.2656 0.09375-0.375 0.09375-0.3281 0-0.4688-0.1719-0.4688-0.5625v-1.734h0.875z"/>
</g>
<g id="a">
<path d="m2.625-2.062c-1.109 0-2.297 0.125-2.297 1.125 0 0.7656 0.6719 1.016 1.203 1.016 0.4844 0 0.875-0.2031 1.109-0.5469h0.01562c0 0.1406 0.03125 0.3281 0.0625 0.4688h0.5938c-0.03125-0.1562-0.04688-0.4375-0.04688-0.6562v-1.453c0-0.7344-0.4375-1.297-1.391-1.297-0.5312 0-1.031 0.1875-1.359 0.5l0.3594 0.4219c0.2188-0.2344 0.5625-0.3906 0.9375-0.3906 0.4844 0 0.8125 0.2344 0.8125 0.7188zm0 0.4844v0.1719c0 0.5625-0.3438 0.9688-0.9531 0.9688-0.3281 0-0.6719-0.125-0.6719-0.5156 0-0.5625 0.8125-0.625 1.469-0.625z"/>
</g>
<g id="au">
<path d="m1.234-0.5312c0.25 0.4062 0.7188 0.625 1.188 0.625 1.031 0 1.688-0.7812 1.688-1.766 0-0.9688-0.6719-1.734-1.672-1.734-0.5469 0-0.9531 0.2656-1.172 0.5781h-0.03125v-2.469h-0.6562v5.297h0.6406v-0.5312zm2.188-1.141c0 0.625-0.3906 1.203-1.109 1.203-0.6719 0-1.109-0.5469-1.109-1.188s0.4375-1.203 1.109-1.203c0.7188 0 1.109 0.5781 1.109 1.188z"/>
</g>
<g id="k">
<path d="m1.234-5.297h-0.6562v5.297h0.6562z"/>
</g>
<g id="d">
<path d="m1.234-3.312h-0.6562v3.312h0.6562zm0.1094-1.203c0-0.25-0.2031-0.4219-0.4375-0.4219s-0.4375 0.1875-0.4375 0.4219 0.2031 0.4219 0.4375 0.4219 0.4375-0.1875 0.4375-0.4219z"/>
</g>
<g id="t">
<path d="m1.234-2.812v-2.484h-0.6562v5.297h0.6562v-1.75c0-0.6719 0.375-1.094 0.9062-1.094 0.6094 0 0.75 0.4688 0.75 1.016v1.828h0.6562v-2.062c0-0.7344-0.3906-1.344-1.25-1.344-0.4688 0-0.8906 0.2656-1.047 0.5938z"/>
</g>
<g id="h">
<path d="m3.219-0.5312h0.01562v0.5312h0.625v-5.297h-0.6562v2.469h-0.01562c-0.2188-0.3125-0.6406-0.5781-1.172-0.5781-1 0-1.672 0.7656-1.672 1.734 0 0.9844 0.6562 1.766 1.672 1.766 0.4688 0 0.9531-0.2188 1.203-0.625zm-2.188-1.141c0-0.6094 0.375-1.188 1.094-1.188 0.6719 0 1.125 0.5625 1.125 1.203s-0.4531 1.188-1.125 1.188c-0.7188 0-1.094-0.5781-1.094-1.203z"/>
</g>
<g id="y">
<path d="m0.4062 1.078c0.4062 0.375 1.047 0.6094 1.625 0.6094 1.375 0 1.828-0.8906 1.828-1.859v-3.141h-0.625v0.5312h-0.01562c-0.25-0.4219-0.7344-0.625-1.203-0.625-1.016 0-1.672 0.7812-1.672 1.719 0 0.9531 0.6719 1.719 1.672 1.719 0.4688 0 0.9375-0.2031 1.172-0.5781h0.01562v0.4219c0 0.6875-0.2969 1.234-1.172 1.234-0.4531 0-0.9219-0.2188-1.203-0.5469zm0.625-2.766c0-0.6406 0.4062-1.172 1.094-1.172 0.6719 0 1.125 0.5312 1.125 1.172 0 0.6562-0.4375 1.156-1.125 1.156s-1.094-0.5469-1.094-1.156z"/>
</g>
<g id="f">
<path d="m0.5312-3.312c0.03125 0.2188 0.03125 0.5312 0.03125 0.7031v2.609h0.6562v-1.766c0-0.6562 0.375-1.094 0.8906-1.094 0.6094 0 0.7656 0.4844 0.7656 1.016v1.844h0.6562v-2.062c0-0.7344-0.3906-1.344-1.25-1.344-0.4688 0-0.9062 0.2812-1.062 0.6406h-0.03125c0-0.1406-0.01562-0.3906-0.03125-0.5469z"/>
</g>
<g id="i">
<path d="m3.922-1.672c0-1.016-0.7656-1.734-1.781-1.734s-1.797 0.7188-1.797 1.734c0 1.031 0.7812 1.766 1.797 1.766s1.781-0.7344 1.781-1.766zm-0.6875 0c0 0.6406-0.3906 1.203-1.094 1.203-0.7188 0-1.109-0.5625-1.109-1.203 0-0.625 0.3906-1.188 1.109-1.188 0.7031 0 1.094 0.5625 1.094 1.188z"/>
</g>
<g id="ai">
<path d="m2.125-3.312h-0.7656v-0.7031c0-0.4062 0.09375-0.7969 0.5938-0.7969 0.125 0 0.2188 0.03125 0.3281 0.04688l0.07812-0.5625c-0.1406-0.03125-0.2656-0.04688-0.4219-0.04688-0.8906 0-1.234 0.5938-1.234 1.359v0.7031h-0.6562v0.5312h0.6562v2.781h0.6562v-2.781h0.7656z"/>
</g>
<g id="v">
<path d="m0.6094 0h0.6875v-2.266h2.5v2.266h0.7031v-4.953h-0.7031v2.062h-2.5v-2.062h-0.6875z"/>
</g>
<g id="m">
<path d="m1.297-2.219h2.25v-0.5938h-2.25v-1.531h2.406v-0.6094h-3.094v4.953h0.6875z"/>
</g>
<g id="g">
<path d="m0.5625-2.609v2.609h0.6562v-1.75c0-0.5469 0.3125-1.062 0.9375-1.062 0.1094 0 0.2188 0.01562 0.2969 0.04688l0.03125-0.6094c-0.07812-0.03125-0.1719-0.03125-0.2656-0.03125-0.4375 0-0.8281 0.2656-1 0.6406h-0.03125c0-0.125-0.01562-0.3906-0.03125-0.5469h-0.625c0.03125 0.2188 0.03125 0.5312 0.03125 0.7031z"/>
</g>
<g id="u">
<path d="m1.297-1.219h2.359l0.5 1.219h0.7812l-2.125-4.953h-0.625l-2.156 4.953h0.7812zm1.188-2.938 0.9219 2.328h-1.859z"/>
</g>
<g id="b">
<path d="m1.016-1.953c0.04688-0.5156 0.4844-0.9375 1.047-0.9375 0.6094 0 0.9219 0.4062 0.9375 0.9375zm2.641 0.2656c0-1.062-0.6094-1.719-1.594-1.719-0.9688 0-1.719 0.7188-1.719 1.75 0 1.047 0.75 1.75 1.75 1.75 0.5938 0 1.078-0.2188 1.438-0.6875l-0.4688-0.3594c-0.1875 0.2812-0.5156 0.5-0.9688 0.5-0.5781 0-1.047-0.4375-1.078-1.016h2.641v-0.2188z"/>
</g>
<g id="l">
<path d="m3.359-2.859c-0.2656-0.3594-0.7656-0.5469-1.234-0.5469-1.016 0-1.781 0.7031-1.781 1.75s0.7656 1.75 1.797 1.75c0.5312 0 0.9531-0.2031 1.234-0.5156l-0.4375-0.4062c-0.1719 0.2188-0.4688 0.3594-0.7969 0.3594-0.7031 0-1.094-0.5625-1.094-1.188 0-0.6406 0.3906-1.203 1.078-1.203 0.3125 0 0.625 0.1719 0.7656 0.375z"/>
</g>
<g id="j">
<path d="m1.297-4.953h-0.6875v4.953h0.6875z"/>
</g>
<g id="ay">
<path d="m4.828-4.438c-0.4062-0.3906-1.062-0.6406-1.844-0.6406-1.5 0-2.641 1.047-2.641 2.594 0 1.531 1.109 2.609 2.656 2.609 0.7188 0 1.344-0.1562 1.859-0.4375v-2.391h-1.781v0.5781h1.094v1.391c-0.2812 0.1406-0.6875 0.2344-1.156 0.2344-1.188 0-1.906-0.875-1.906-1.984 0-1.078 0.7188-1.984 1.891-1.984 0.5625 0 1.047 0.2188 1.344 0.5312z"/>
</g>
<g id="ah">
<path d="m0.6094 0h1.688c1.266 0 2.688-0.7812 2.688-2.484 0-1.75-1.422-2.469-2.688-2.469h-1.688zm0.6875-4.359h0.8594c1.203 0 2.078 0.6562 2.078 1.875 0 1.188-0.875 1.875-2.078 1.875h-0.8594z"/>
</g>
<g id="av">
<path d="m1.688-4.953h-1.078v4.953h0.6719v-4.141l1.641 4.141h0.4375l1.656-4.141h0.01562v4.141h0.6875v-4.953h-1.078l-1.469 3.812h-0.01562z"/>
</g>
<g id="al">
<path d="m2.344-4.344h1.578v-0.6094h-3.859v0.6094h1.578v4.344h0.7031z"/>
</g>
<g id="x">
<path d="m1.375-0.8125h-0.6562l-0.4844 1.75h0.5625z"/>
</g>
<g id="ae">
<path d="m3.531 0c-0.03125-0.2188-0.03125-0.5312-0.03125-0.7188v-2.594h-0.6562v1.766c0 0.6562-0.3594 1.078-0.8906 1.078-0.6094 0-0.75-0.4688-0.75-1.016v-1.828h-0.6719v2.047c0 0.75 0.3906 1.359 1.25 1.359 0.4844 0 0.9062-0.2969 1.078-0.6406h0.01562c0 0.1406 0.01562 0.375 0.03125 0.5469z"/>
</g>
<g id="ad">
<path d="m1.297-4.953h-0.6875v4.953h2.891v-0.6094h-2.203z"/>
</g>
<g id="z">
<path d="m0.75-4.953h-0.7656l1.938 4.953h0.6406l1.953-4.953h-0.75l-1.5 4.062h-0.01562z"/>
</g>
<g id="w">
<path d="m4.297-1.141c-0.2969 0.4219-0.7812 0.6562-1.328 0.6562-1.141 0-1.859-0.8906-1.859-2 0-1.078 0.7344-1.984 1.875-1.984 0.5156 0 1 0.2344 1.234 0.5781l0.5469-0.4219c-0.3594-0.5-1.094-0.7656-1.781-0.7656-1.5 0-2.641 1.047-2.641 2.594 0 1.531 1.094 2.609 2.625 2.609 0.8594 0 1.5-0.375 1.875-0.8906z"/>
</g>
<g id="p">
<path d="m1.219-0.5h0.03125c0.2344 0.375 0.7031 0.5938 1.172 0.5938 1.016 0 1.672-0.7812 1.672-1.766 0-0.9688-0.6719-1.734-1.672-1.734-0.5312 0-0.9688 0.25-1.188 0.6094h-0.01562v-0.5156h-0.6562v5h0.6562zm2.188-1.172c0 0.625-0.375 1.203-1.109 1.203-0.6719 0-1.109-0.5469-1.109-1.188s0.4375-1.203 1.109-1.203c0.7344 0 1.109 0.5781 1.109 1.188z"/>
</g>
<g id="r">
<path d="m1.219-2.766h-0.03125c0-0.1406-0.01562-0.3906-0.03125-0.5469h-0.625c0.03125 0.2188 0.03125 0.5312 0.03125 0.7031v2.609h0.6562v-1.766c0-0.6562 0.375-1.094 0.8594-1.094 0.5156 0 0.6875 0.375 0.6875 0.8906v1.969h0.6719v-1.797c0-0.5156 0.2344-1.062 0.8281-1.062 0.5781 0 0.7344 0.4844 0.7344 1.016v1.844h0.6562v-2.062c0-0.7344-0.375-1.344-1.234-1.344-0.4688 0-0.9062 0.2344-1.125 0.6562-0.2031-0.4688-0.5938-0.6562-1.031-0.6562-0.5 0-0.8906 0.2812-1.047 0.6406z"/>
</g>
<g id="ak">
<path d="m3.453-3.312h-0.6875l-0.9844 2.609h-0.01562l-0.9688-2.609h-0.7344l1.344 3.312h0.7188z"/>
</g>
<g id="ac">
<path d="m0.7969-3.312h-0.7344l1.422 3.312-0.2031 0.5469c-0.1406 0.3594-0.2812 0.5625-0.625 0.5625-0.1094 0-0.2188-0.03125-0.3281-0.0625l-0.0625 0.5781c0.1406 0.04688 0.2969 0.0625 0.4375 0.0625 0.6406 0 0.9219-0.3438 1.141-0.9062l1.609-4.094h-0.6875l-0.9219 2.594h-0.01562z"/>
</g>
<g id="af">
<path d="m1.938-1.984h-1.625v0.5625h1.625z"/>
</g>
<g id="o">
<path d="m0.8281-2.016c0-1.016 0.3594-2.047 0.9062-2.812l-0.4688-0.2969c-0.625 0.8125-1.031 1.938-1.031 3.109s0.4062 2.281 1.031 3.109l0.4688-0.2969c-0.5469-0.7656-0.9062-1.797-0.9062-2.812z"/>
</g>
<g id="q">
<path d="m2.656-4.953h-0.6094l-1.406 1.141 0.3906 0.4688 0.9375-0.7812v4.125h0.6875z"/>
</g>
<g id="n">
<path d="m1.375-2.016c0 1.016-0.3594 2.047-0.9062 2.812l0.4688 0.2969c0.625-0.8281 1.031-1.938 1.031-3.109s-0.4062-2.297-1.031-3.109l-0.4688 0.2969c0.5469 0.7656 0.9062 1.797 0.9062 2.812z"/>
</g>
<g id="ab">
<path d="m1.297-2.203h0.7344l1.266 2.203h0.8438l-1.391-2.281c0.7031-0.1094 1.203-0.5781 1.203-1.297 0-1.016-0.7969-1.375-1.766-1.375h-1.578v4.953h0.6875zm0-2.172h0.8438c0.6094 0 1.109 0.2031 1.109 0.7969s-0.5 0.7969-1.156 0.7969h-0.7969z"/>
</g>
<g id="ag">
<path d="m1.5-4.953h-0.8906v4.953h0.6875v-4.047h0.01562l2.609 4.047h0.875v-4.953h-0.6875v3.953h-0.01562z"/>
</g>
<g id="at">
<path d="m2.531-2.141 1.859-2.812h-0.8125l-1.375 2.234-1.375-2.234h-0.8438l1.844 2.812v2.141h0.7031z"/>
</g>
<g id="bd">
<path d="m3.156-4.953h-0.8281l-2.109 3.219v0.625h2.281v1.109h0.6562v-1.109h0.7188v-0.5781h-0.7188zm-0.6562 3.266h-1.578l1.562-2.484h0.01562z"/>
</g>
<g id="ax">
<path d="m2.094-5.078c-1.188 0-1.703 1.156-1.703 2.594 0 1.453 0.5156 2.609 1.703 2.609 1.172 0 1.672-1.156 1.672-2.609 0-1.438-0.5-2.594-1.672-2.594zm0 0.5625c0.7969 0 0.9844 1.203 0.9844 2.031 0 0.8438-0.1875 2.031-0.9844 2.031-0.8281 0-1.016-1.188-1.016-2.031 0-0.8281 0.1875-2.031 1.016-2.031z"/>
</g>
<g id="as">
<path d="m3.328-1.156c0 0.6875 0.5469 1.234 1.234 1.234s1.234-0.5469 1.234-1.234-0.5469-1.234-1.234-1.234-1.234 0.5469-1.234 1.234zm1.891 0c0 0.3594-0.2969 0.6562-0.6562 0.6562s-0.6562-0.2969-0.6562-0.6562 0.2969-0.6562 0.6562-0.6562 0.6562 0.2969 0.6562 0.6562zm-4.938-2.641c0 0.6875 0.5625 1.234 1.25 1.234s1.234-0.5469 1.234-1.234-0.5469-1.25-1.234-1.25-1.25 0.5625-1.25 1.25zm1.906 0c0 0.3594-0.2969 0.6562-0.6562 0.6562-0.375 0-0.6562-0.2969-0.6562-0.6562 0-0.375 0.2812-0.6562 0.6562-0.6562 0.3594 0 0.6562 0.2812 0.6562 0.6562zm2.609-1.156-0.4688-0.2344-3.031 5.188 0.4688 0.2188z"/>
</g>
<g id="aa">
<path d="m3.562-4.516c-0.3125-0.3438-0.8594-0.5625-1.422-0.5625-0.8281 0-1.703 0.4219-1.703 1.406 0 0.9062 0.6562 1.203 1.281 1.391 0.6406 0.2031 1.172 0.3594 1.172 0.9688 0 0.5781-0.5312 0.8438-0.9844 0.8438s-0.875-0.2344-1.109-0.5781l-0.5312 0.4531c0.375 0.4688 1 0.7188 1.625 0.7188 0.875 0 1.719-0.4688 1.719-1.5 0-0.9844-0.7969-1.25-1.453-1.453-0.5625-0.1875-1.016-0.3281-1.016-0.875s0.5156-0.7969 0.9531-0.7969c0.4219 0 0.7812 0.1875 0.9688 0.4688z"/>
</g>
<g id="aj">
<path d="m1.516-2.906c0-0.25-0.2031-0.4531-0.4688-0.4531s-0.4688 0.2188-0.4688 0.4688 0.2188 0.4531 0.4688 0.4531c0.2656 0 0.4688-0.2188 0.4688-0.4688zm-0.07812 2.094h-0.6562l-0.4844 1.75h0.5625z"/>
</g>
<g id="bj">
<path d="m1.484-2.312h0.2188c0.5781 0 1.25 0.2188 1.25 0.9219 0 0.625-0.5 0.9375-1 0.9375-0.5156 0-0.8906-0.2969-1.047-0.7188l-0.625 0.2031c0.2656 0.75 0.9062 1.094 1.688 1.094 0.8438 0 1.656-0.5312 1.656-1.516 0-0.625-0.4219-1.094-1-1.203v-0.01562c0.5-0.1406 0.875-0.5781 0.875-1.125 0-0.875-0.7031-1.344-1.531-1.344-0.7031 0-1.266 0.3594-1.516 0.9531l0.625 0.2188c0.1406-0.375 0.4531-0.6094 0.8594-0.6094 0.4688 0 0.875 0.3281 0.875 0.8125 0 0.6406-0.5312 0.8281-1.109 0.8281h-0.2188z"/>
</g>
<g id="bc">
<path d="m3.438-4.953h-2.688l-0.0625 2.625c0.3125-0.1562 0.7188-0.2656 1.094-0.2656 0.625 0 1.172 0.3281 1.172 1.078 0 0.6406-0.4688 1.062-1.047 1.062-0.4375 0-0.8125-0.2656-0.9688-0.6562l-0.6094 0.2344c0.2656 0.6094 0.8125 1 1.578 1 0.9844 0 1.734-0.6719 1.734-1.703 0-0.9688-0.7031-1.562-1.656-1.562-0.2031 0-0.4531 0.03125-0.6406 0.09375l0.04688-1.312h2.047z"/>
</g>
<g id="bi">
<path d="m0.5469-3.359 2.688 1.234-2.688 1.234v0.5938l3.562-1.609v-0.4219l-3.562-1.625z"/>
</g>
<g id="cb">
<path d="m5.844-0.5781h-1.375v-0.01562c0.6094-0.375 1.031-1.062 1.031-1.953 0-1.484-1.094-2.531-2.562-2.531-1.484 0-2.594 1.047-2.594 2.531 0 1.547 1.062 2.547 2.578 2.547h2.922zm-4.75-1.969c0-1.047 0.7188-1.922 1.844-1.922 1.109 0 1.812 0.875 1.812 1.922 0 1.094-0.7344 1.938-1.828 1.938-1.109 0-1.828-0.8438-1.828-1.938z"/>
</g>
<g id="bh">
<path d="m0.09375-3.312 1.109 3.312h0.6875l0.8125-2.484h0.01562l0.8125 2.484h0.6875l1.094-3.312h-0.6875l-0.75 2.531h-0.01562l-0.7969-2.531h-0.7031l-0.7812 2.531h-0.01562l-0.75-2.531z"/>
</g>
<g id="ar">
<path d="m0.6094 0h1.625c1.031 0 1.859-0.4531 1.859-1.406 0-0.6875-0.4531-1.125-1.094-1.203v-0.01562c0.5156-0.1406 0.8594-0.5312 0.8594-1.078 0-0.9375-0.7969-1.25-1.547-1.25h-1.703zm0.6875-4.375h0.7969c0.6562 0 1.078 0.2031 1.078 0.7344 0 0.5469-0.4375 0.7812-0.9688 0.7812h-0.9062zm0 2.094h0.9219c0.7656 0 1.172 0.2656 1.172 0.8438 0 0.6719-0.6406 0.8438-1.234 0.8438h-0.8594z"/>
</g>
<g id="bg">
<path d="m0.6094 0h0.6875v-2.172h0.7812c1.031 0 1.812-0.4062 1.812-1.406 0-0.9688-0.7031-1.375-1.781-1.375h-1.5zm0.6875-4.375h0.75c0.6406 0 1.141 0.2031 1.141 0.7969s-0.4844 0.8125-1.156 0.8125h-0.7344z"/>
</g>
<g id="ca">
<path d="m1.234-5.297h-0.6562v5.297h0.6562v-1.719h0.03125l1.5 1.719h0.9062l-1.688-1.812 1.547-1.5h-0.875l-1.391 1.438h-0.03125z"/>
</g>
<g id="bz">
<path d="m3.656-0.6094h-2.438l1.609-1.562c0.4375-0.4375 0.8125-0.8594 0.8125-1.5 0-0.9219-0.75-1.406-1.578-1.406-0.8438 0-1.484 0.5625-1.594 1.312l0.6562 0.1094c0.09375-0.5 0.4219-0.8594 0.9375-0.8594 0.4844 0 0.875 0.3438 0.875 0.8594 0 0.4219-0.25 0.7344-0.5469 1.047l-1.969 1.953v0.6562h3.234z"/>
</g>
<g id="by">
<path d="m2.938-3.312h-2.609v0.5312h1.781l-1.875 2.25v0.5312h2.781v-0.5469h-1.969l1.891-2.234z"/>
</g>
<g id="aw">
<path d="m3.547-0.5625h-3.25v0.4375h3.25zm0-2.125v-0.4844l-3.234 1.016v0.4531l3.234 1.016v-0.4844l-2.406-0.75z"/>
</g>
<g id="bx">
<path d="m3.547-0.5625h-3.25v0.4375h3.25zm0-1.594-3.25-1.016v0.4844l2.406 0.7656-2.406 0.75v0.4844l3.25-1.016z"/>
</g>
<g id="bw">
<path d="m0.7344-1.203c0-1.25 0.5469-2.609 1.469-3.625l-0.4062-0.2969c-1.031 1.109-1.656 2.5-1.656 3.922 0 0.8594 0.2031 1.688 0.5625 2.297l0.5-0.25c-0.3125-0.5625-0.4688-1.297-0.4688-2.047z"/>
</g>
<g id="bv">
<path d="m3.438-2.844c-0.2188-0.3906-0.7031-0.5625-1.203-0.5625-1.219 0-2 0.9531-2 2.062 0 0.8594 0.6094 1.438 1.562 1.438 0.5625 0 1-0.2344 1.344-0.5781l-0.3906-0.375c-0.2188 0.2344-0.5 0.4062-0.9062 0.4062-0.625 0-0.9531-0.4375-0.9531-0.9688 0-0.7812 0.5469-1.453 1.312-1.453 0.3281 0 0.625 0.1875 0.7344 0.4062z"/>
</g>
<g id="bb">
<path d="m2.594-2.078c-1.156 0-2.469 0.1875-2.469 1.266 0 0.6719 0.5625 0.875 1.016 0.875 0.5156 0 0.875-0.1562 1.188-0.5312h0.01562c-0.03125 0.1562-0.04688 0.3281-0.04688 0.4688h0.5938c0-0.1875 0.03125-0.4844 0.07812-0.75l0.25-1.344c0.01562-0.09375 0.01562-0.25 0.01562-0.3281 0-0.7188-0.5938-0.9844-1.219-0.9844-0.5 0-1 0.1719-1.359 0.4531l0.2656 0.4375c0.2656-0.2031 0.6406-0.375 1-0.375 0.4375 0 0.7031 0.1719 0.7031 0.5625 0 0.0625-0.01562 0.125-0.03125 0.25zm-0.07812 0.4844-0.04688 0.25c-0.09375 0.5-0.5156 0.9219-1.094 0.9219-0.2969 0-0.6094-0.1094-0.6094-0.4688 0-0.6094 0.9219-0.7031 1.656-0.7031z"/>
</g>
<g id="bf">
<path d="m0.75-3.312c-0.01562 0.2188-0.0625 0.5469-0.09375 0.7188l-0.4531 2.594h0.6406l0.3125-1.766c0.125-0.6562 0.5312-1.094 1.062-1.094 0.4688 0 0.6406 0.2812 0.6406 0.6562 0 0.1094-0.01562 0.25-0.04688 0.375l-0.3281 1.828h0.6562l0.3594-2.047c0.03125-0.125 0.03125-0.2344 0.03125-0.3438 0-0.5781-0.375-1.016-1.109-1.016-0.4688 0-0.8594 0.25-1.109 0.625h-0.01562c0.03125-0.1406 0.0625-0.4062 0.07812-0.5312z"/>
</g>
<g id="be">
<path d="m0.9375-0.5625c0.2188 0.4219 0.7031 0.6406 1.188 0.6406 1.094 0 1.875-0.9219 1.875-2.047 0-0.8594-0.5625-1.438-1.438-1.438-0.5156 0-0.9688 0.2656-1.219 0.625l0.4531-2.516h-0.6562l-0.9375 5.297h0.625zm2.406-1.344c0 0.8125-0.5156 1.453-1.297 1.453-0.5781 0-0.9531-0.4062-0.9531-0.9531 0-0.7969 0.5781-1.469 1.328-1.469 0.5938 0 0.9219 0.4219 0.9219 0.9688z"/>
</g>
<g id="aq">
<path d="m3.453-1.469c0.04688-0.2031 0.07812-0.4844 0.07812-0.625 0-0.8281-0.5469-1.312-1.375-1.312-1.109 0-1.953 0.9219-1.953 2.031 0 0.9219 0.6719 1.469 1.547 1.469 0.5781 0 1.094-0.2344 1.484-0.6875l-0.375-0.3594c-0.2344 0.2812-0.5781 0.5-1.047 0.5-0.5469 0-0.9688-0.375-0.9688-0.8906 0-0.04688 0-0.07812 0.01562-0.125zm-2.531-0.4688c0.1094-0.4844 0.5469-0.9531 1.172-0.9531 0.5312 0 0.8281 0.3125 0.8281 0.7344 0 0.0625-0.01562 0.1562-0.01562 0.2188z"/>
</g>
<g id="ba">
<path d="m1.438-3.312h-0.6562l-0.5781 3.312h0.6406zm0.2812-1.219c0-0.25-0.1719-0.4062-0.4062-0.4062-0.2188 0-0.4219 0.1875-0.4219 0.4375s0.1875 0.3906 0.4062 0.3906c0.2344 0 0.4219-0.1875 0.4219-0.4219z"/>
</g>
<g id="az">
<path d="m2.297-3.312h-0.8281l0.1719-0.9531h-0.6406l-0.1719 0.9531h-0.625l-0.09375 0.5312h0.625l-0.3125 1.797c-0.01562 0.1094-0.03125 0.2344-0.03125 0.3281 0 0.4844 0.3281 0.7188 0.8438 0.7188 0.1875 0 0.3906-0.04688 0.5156-0.09375l0.0625-0.5156c-0.09375 0.03125-0.2344 0.07812-0.3594 0.07812-0.2344 0-0.4062-0.07812-0.4062-0.3594 0-0.0625 0.01562-0.1406 0.03125-0.2188l0.3125-1.734h0.8125z"/>
</g>
<g id="bn">
<path d="m0.2031-1.344c0 0.8438 0.5781 1.422 1.453 1.422 0.5156 0 0.9688-0.25 1.219-0.6094h0.01562l-0.09375 0.5312h0.625l0.9375-5.297h-0.6562l-0.4375 2.531h-0.01562c-0.2031-0.4062-0.6094-0.6406-1.156-0.6406-1.078 0-1.891 0.9219-1.891 2.062zm0.6719-0.0625c0-0.8125 0.5156-1.469 1.297-1.469 0.5781 0 0.9531 0.4062 0.9531 0.9688 0 0.7812-0.5781 1.453-1.312 1.453-0.5938 0-0.9375-0.4219-0.9375-0.9531z"/>
</g>
<g id="bu">
<path d="m2.328-3.312h-0.7812l0.125-0.7031c0.0625-0.4062 0.2188-0.7969 0.6875-0.7969 0.1094 0 0.2031 0.01562 0.2969 0.04688l0.1406-0.5625c-0.1094-0.03125-0.25-0.04688-0.3906-0.04688-0.8906 0-1.25 0.6562-1.375 1.359l-0.125 0.7031h-0.6562l-0.09375 0.5156h0.6562l-0.4844 2.797h0.6406l0.4844-2.797h0.7812z"/>
</g>
<g id="bt">
<path d="m1.781 0.09375c1.188 0 1.984-0.9531 1.984-2.062 0-0.8594-0.6406-1.438-1.562-1.438-1.188 0-2 0.9531-2 2.047 0 0.8594 0.6719 1.453 1.578 1.453zm1.328-2c0 0.7812-0.5312 1.453-1.297 1.453-0.5938 0-0.9375-0.4062-0.9375-0.9531 0-0.7812 0.5312-1.469 1.281-1.469 0.5938 0 0.9531 0.4219 0.9531 0.9688z"/>
</g>
<g id="bs">
<path d="m0.6406-2.594-0.4531 2.594h0.6406l0.3125-1.75c0.09375-0.5469 0.4219-1.062 1.062-1.062 0.09375 0 0.2031 0.01562 0.2812 0.04688l0.125-0.6094c-0.07812-0.03125-0.1719-0.03125-0.2656-0.03125-0.4531 0-0.7969 0.2656-1.031 0.6406h-0.01562c0.01562-0.1406 0.04688-0.4219 0.0625-0.5469h-0.6094c-0.01562 0.2188-0.07812 0.5469-0.1094 0.7188z"/>
</g>
<g id="br">
<path d="m3.906-4.469c-0.2656-0.375-0.8125-0.6094-1.391-0.6094-1.047 0-1.828 0.5938-1.828 1.516 0 0.7344 0.5312 1.062 1.109 1.281 0.5156 0.1875 0.9688 0.3906 0.9688 0.9062 0 0.6094-0.5469 0.9219-1.109 0.9219-0.4844 0-0.8906-0.25-1.062-0.5781l-0.5781 0.3906c0.3281 0.5156 0.9844 0.7656 1.609 0.7656 1.141 0 1.859-0.6719 1.859-1.578 0-0.7656-0.5781-1.109-1.297-1.375-0.4688-0.1875-0.7969-0.375-0.7969-0.7969 0-0.625 0.5938-0.8906 1.062-0.8906 0.3906 0 0.7344 0.1875 0.9062 0.4531z"/>
</g>
<g id="bq">
<path d="m-0.07812 1.047c0.3438 0.4062 0.9688 0.6406 1.562 0.6406 1.406 0 1.828-0.8906 2-1.844l0.5469-3.156h-0.625l-0.09375 0.5312h-0.01562c-0.1719-0.3906-0.6094-0.625-1.141-0.625-1.094 0-1.891 0.8906-1.891 2 0 0.8438 0.5625 1.438 1.453 1.438 0.5 0 0.9219-0.2188 1.188-0.5781h0.01562l-0.07812 0.4375c-0.1406 0.6875-0.4688 1.219-1.344 1.219-0.4688 0-0.8906-0.2031-1.141-0.5312zm1.016-2.5c0-0.8281 0.5156-1.422 1.281-1.422 0.5938 0 0.9531 0.4062 0.9531 0.9531 0 0.7656-0.5469 1.422-1.297 1.422-0.5938 0-0.9375-0.4219-0.9375-0.9531z"/>
</g>
<g id="bp">
<path d="m0.2188 0h1.766c1.734 0 3.031-1.141 3.031-2.891 0-1.484-1.203-2.062-2.312-2.062h-1.609zm1.453-4.375h0.8594c1.219 0 1.766 0.7188 1.766 1.578 0 1.109-0.7812 2.188-2.281 2.188h-1z"/>
</g>
<g id="bo">
<path d="m1.469-2.828c0 1.25-0.5625 2.594-1.484 3.625l0.4219 0.2969c1.016-1.109 1.641-2.5 1.641-3.938 0-0.8594-0.2031-1.688-0.5625-2.281l-0.5 0.2344c0.2969 0.5781 0.4844 1.297 0.4844 2.062z"/>
</g>
<g id="bm">
<path d="m1.531-1.203c-0.6562 0-1.344 0.07812-1.344 0.6562 0 0.4375 0.3906 0.5938 0.7031 0.5938 0.2812 0 0.5156-0.1094 0.6406-0.3281h0.01562c0 0.09375 0.01562 0.2031 0.03125 0.2812h0.3438c-0.01562-0.09375-0.01562-0.25-0.01562-0.3906v-0.8438c0-0.4219-0.2656-0.75-0.8125-0.75-0.3125 0-0.6094 0.1094-0.7969 0.2812l0.2031 0.25c0.1406-0.125 0.3438-0.2188 0.5625-0.2188 0.2812 0 0.4688 0.1406 0.4688 0.4219zm0 0.2812v0.1094c0 0.3125-0.2031 0.5625-0.5625 0.5625-0.1875 0-0.3906-0.07812-0.3906-0.2969 0-0.3281 0.4844-0.375 0.8594-0.375z"/>
</g>
<g id="bl">
<path d="m1.109-0.3438c0.2656 0.2656 0.6094 0.4219 1.078 0.4219 0.75 0 1.469-0.5156 1.469-1.453 0-0.7812-0.5-1.219-1.031-1.328v-0.03125c0.3125-0.1562 0.6094-0.5625 0.6094-1.094 0-0.7344-0.5312-1.219-1.219-1.219-0.4531 0-0.75 0.1406-1 0.375-0.2656 0.25-0.5156 0.6719-0.5156 1.641v3.234c0 0.4844 0.01562 0.9531 0.1094 1.188h0.5625c-0.0625-0.2969-0.07812-0.875-0.07812-1.266v-0.4688zm-0.01562-2.75c0-0.9688 0.2969-1.469 0.8594-1.469 0.4219 0 0.7188 0.3281 0.7188 0.8281 0 0.4375-0.2656 0.8594-0.7969 0.8906-0.04688 0.01562-0.07812 0.01562-0.125 0.01562v0.4219c0.0625 0 0.1406-0.01562 0.2031 0 0.6094 0.01562 1.078 0.3594 1.078 1.031 0 0.5625-0.3906 0.9688-0.9531 0.9688-0.4844 0-0.8281-0.2969-0.9844-0.5469z"/>
</g>
<clipPath id="cr">
<path d="m509 393h7v5.051h-7z"/>
</clipPath>
<clipPath id="cq">
<path d="m512 357h23.38v22h-23.38z"/>
</clipPath>
<clipPath id="cp">
<path d="m531 373h4.379v9h-4.379z"/>
</clipPath>
<clipPath id="co">
<path d="m511 377h24v21.05h-24z"/>
</clipPath>
<clipPath id="cn">
<path d="m276 236.8h63.25v40h-63.25z"/>
</clipPath>
<linearGradient id="bk" x2="1" gradientTransform="matrix(63.25 0 0 63.25 276 256.8)" gradientUnits="userSpaceOnUse">
<stop stop-color="#fff100" offset="0"/>
<stop stop-color="#fef100" offset=".003906"/>
<stop stop-color="#fef000" offset=".007812"/>
<stop stop-color="#fef001" offset=".01172"/>
<stop stop-color="#feef01" offset=".01562"/>
<stop stop-color="#feee01" offset=".01953"/>
<stop stop-color="#feee02" offset=".02344"/>
<stop stop-color="#feed02" offset=".02734"/>
<stop stop-color="#feed02" offset=".03125"/>
<stop stop-color="#feec03" offset=".03516"/>
<stop stop-color="#feeb03" offset=".03906"/>
<stop stop-color="#feeb03" offset=".04297"/>
<stop stop-color="#feea04" offset=".04688"/>
<stop stop-color="#feea04" offset=".05078"/>
<stop stop-color="#fee904" offset=".05469"/>
<stop stop-color="#fee805" offset=".05859"/>
<stop stop-color="#fee805" offset=".0625"/>
<stop stop-color="#fee705" offset=".06641"/>
<stop stop-color="#fee706" offset=".07031"/>
<stop stop-color="#fee606" offset=".07422"/>
<stop stop-color="#fde506" offset=".07812"/>
<stop stop-color="#fde507" offset=".08203"/>
<stop stop-color="#fde407" offset=".08594"/>
<stop stop-color="#fde307" offset=".08984"/>
<stop stop-color="#fde308" offset=".09375"/>
<stop stop-color="#fde208" offset=".09766"/>
<stop stop-color="#fde208" offset=".1016"/>
<stop stop-color="#fde109" offset=".1055"/>
<stop stop-color="#fde009" offset=".1094"/>
<stop stop-color="#fde009" offset=".1133"/>
<stop stop-color="#fddf0a" offset=".1172"/>
<stop stop-color="#fddf0a" offset=".1211"/>
<stop stop-color="#fdde0a" offset=".125"/>
<stop stop-color="#fddd0b" offset=".1289"/>
<stop stop-color="#fddd0b" offset=".1328"/>
<stop stop-color="#fddc0b" offset=".1367"/>
<stop stop-color="#fddb0c" offset=".1406"/>
<stop stop-color="#fddb0c" offset=".1445"/>
<stop stop-color="#fdda0c" offset=".1484"/>
<stop stop-color="#fcda0d" offset=".1523"/>
<stop stop-color="#fcd90d" offset=".1562"/>
<stop stop-color="#fcd80d" offset=".1602"/>
<stop stop-color="#fcd80d" offset=".1641"/>
<stop stop-color="#fcd70e" offset=".168"/>
<stop stop-color="#fcd70e" offset=".1719"/>
<stop stop-color="#fcd60e" offset=".1758"/>
<stop stop-color="#fcd50f" offset=".1797"/>
<stop stop-color="#fcd50f" offset=".1836"/>
<stop stop-color="#fcd40f" offset=".1875"/>
<stop stop-color="#fcd310" offset=".1914"/>
<stop stop-color="#fcd310" offset=".1953"/>
<stop stop-color="#fcd210" offset=".1992"/>
<stop stop-color="#fcd211" offset=".2031"/>
<stop stop-color="#fcd111" offset=".207"/>
<stop stop-color="#fcd011" offset=".2109"/>
<stop stop-color="#fccf12" offset=".2148"/>
<stop stop-color="#fcce12" offset=".2188"/>
<stop stop-color="#fbce12" offset=".2227"/>
<stop stop-color="#fbcd13" offset=".2266"/>
<stop stop-color="#fbcc13" offset=".2305"/>
<stop stop-color="#fbcc13" offset=".2344"/>
<stop stop-color="#fbcb13" offset=".2383"/>
<stop stop-color="#fbcb14" offset=".2422"/>
<stop stop-color="#fbca14" offset=".2461"/>
<stop stop-color="#fbc914" offset=".25"/>
<stop stop-color="#fbc915" offset=".2539"/>
<stop stop-color="#fbc815" offset=".2578"/>
<stop stop-color="#fbc715" offset=".2617"/>
<stop stop-color="#fbc715" offset=".2656"/>
<stop stop-color="#fbc616" offset=".2695"/>
<stop stop-color="#fbc616" offset=".2734"/>
<stop stop-color="#fbc516" offset=".2773"/>
<stop stop-color="#fbc417" offset=".2812"/>
<stop stop-color="#fbc417" offset=".2852"/>
<stop stop-color="#fbc317" offset=".2891"/>
<stop stop-color="#fbc217" offset=".293"/>
<stop stop-color="#fac218" offset=".2969"/>
<stop stop-color="#fac118" offset=".3008"/>
<stop stop-color="#fac118" offset=".3047"/>
<stop stop-color="#fac019" offset=".3086"/>
<stop stop-color="#fabf19" offset=".3125"/>
<stop stop-color="#fabf19" offset=".3164"/>
<stop stop-color="#fabe19" offset=".3203"/>
<stop stop-color="#fabd1a" offset=".3242"/>
<stop stop-color="#fabd1a" offset=".3281"/>
<stop stop-color="#fabc1a" offset=".332"/>
<stop stop-color="#fabc1b" offset=".3359"/>
<stop stop-color="#fabb1b" offset=".3398"/>
<stop stop-color="#faba1b" offset=".3438"/>
<stop stop-color="#faba1b" offset=".3477"/>
<stop stop-color="#fab91c" offset=".3516"/>
<stop stop-color="#fab81c" offset=".3555"/>
<stop stop-color="#fab81c" offset=".3594"/>
<stop stop-color="#fab71d" offset=".3633"/>
<stop stop-color="#fab71d" offset=".3672"/>
<stop stop-color="#f9b61d" offset=".3711"/>
<stop stop-color="#f9b51d" offset=".375"/>
<stop stop-color="#f9b51e" offset=".3789"/>
<stop stop-color="#f9b41e" offset=".3828"/>
<stop stop-color="#f9b31e" offset=".3867"/>
<stop stop-color="#f9b31e" offset=".3906"/>
<stop stop-color="#f9b21f" offset=".3945"/>
<stop stop-color="#f9b21f" offset=".3984"/>
<stop stop-color="#f9b11f" offset=".4023"/>
<stop stop-color="#f9b01f" offset=".4062"/>
<stop stop-color="#f9b020" offset=".4102"/>
<stop stop-color="#f9af20" offset=".4141"/>
<stop stop-color="#f9ae20" offset=".418"/>
<stop stop-color="#f9ae20" offset=".4219"/>
<stop stop-color="#f9ad21" offset=".4258"/>
<stop stop-color="#f9ac21" offset=".4297"/>
<stop stop-color="#f9ac21" offset=".4336"/>
<stop stop-color="#f9ab22" offset=".4375"/>
<stop stop-color="#f9ab22" offset=".4414"/>
<stop stop-color="#f8aa22" offset=".4453"/>
<stop stop-color="#f8a922" offset=".4492"/>
<stop stop-color="#f8a923" offset=".4531"/>
<stop stop-color="#f8a823" offset=".457"/>
<stop stop-color="#f8a723" offset=".4609"/>
<stop stop-color="#f8a723" offset=".4648"/>
<stop stop-color="#f8a624" offset=".4688"/>
<stop stop-color="#f8a624" offset=".4727"/>
<stop stop-color="#f8a524" offset=".4766"/>
<stop stop-color="#f8a424" offset=".4805"/>
<stop stop-color="#f8a425" offset=".4844"/>
<stop stop-color="#f8a325" offset=".4883"/>
<stop stop-color="#f8a225" offset=".4922"/>
<stop stop-color="#f8a225" offset=".4961"/>
<stop stop-color="#f8a125" offset=".5"/>
<stop stop-color="#f8a026" offset=".5039"/>
<stop stop-color="#f8a026" offset=".5078"/>
<stop stop-color="#f89f26" offset=".5117"/>
<stop stop-color="#f89f26" offset=".5156"/>
<stop stop-color="#f79e27" offset=".5195"/>
<stop stop-color="#f79d27" offset=".5234"/>
<stop stop-color="#f79d27" offset=".5273"/>
<stop stop-color="#f79c27" offset=".5312"/>
<stop stop-color="#f79b28" offset=".5352"/>
<stop stop-color="#f79b28" offset=".5391"/>
<stop stop-color="#f79a28" offset=".543"/>
<stop stop-color="#f79928" offset=".5469"/>
<stop stop-color="#f79929" offset=".5508"/>
<stop stop-color="#f79829" offset=".5547"/>
<stop stop-color="#f79729" offset=".5586"/>
<stop stop-color="#f79729" offset=".5625"/>
<stop stop-color="#f79629" offset=".5664"/>
<stop stop-color="#f7962a" offset=".5703"/>
<stop stop-color="#f7952a" offset=".5742"/>
<stop stop-color="#f7942a" offset=".5781"/>
<stop stop-color="#f7942a" offset=".582"/>
<stop stop-color="#f7932b" offset=".5859"/>
<stop stop-color="#f6922b" offset=".5898"/>
<stop stop-color="#f6922b" offset=".5938"/>
<stop stop-color="#f6912b" offset=".5977"/>
<stop stop-color="#f6902b" offset=".6016"/>
<stop stop-color="#f6902c" offset=".6055"/>
<stop stop-color="#f68f2c" offset=".6094"/>
<stop stop-color="#f68f2c" offset=".6133"/>
<stop stop-color="#f68e2c" offset=".6172"/>
<stop stop-color="#f68d2d" offset=".6211"/>
<stop stop-color="#f68d2d" offset=".625"/>
<stop stop-color="#f68c2d" offset=".6289"/>
<stop stop-color="#f68b2d" offset=".6328"/>
<stop stop-color="#f68b2d" offset=".6367"/>
<stop stop-color="#f68a2e" offset=".6406"/>
<stop stop-color="#f6892e" offset=".6445"/>
<stop stop-color="#f6892e" offset=".6484"/>
<stop stop-color="#f6882e" offset=".6523"/>
<stop stop-color="#f6872f" offset=".6562"/>
<stop stop-color="#f5862f" offset=".6602"/>
<stop stop-color="#f5852f" offset=".6641"/>
<stop stop-color="#f5852f" offset=".668"/>
<stop stop-color="#f58430" offset=".6719"/>
<stop stop-color="#f58330" offset=".6758"/>
<stop stop-color="#f58330" offset=".6797"/>
<stop stop-color="#f58231" offset=".6836"/>
<stop stop-color="#f58131" offset=".6875"/>
<stop stop-color="#f58131" offset=".6914"/>
<stop stop-color="#f58031" offset=".6953"/>
<stop stop-color="#f57f31" offset=".6992"/>
<stop stop-color="#f57f32" offset=".7031"/>
<stop stop-color="#f57e32" offset=".707"/>
<stop stop-color="#f57d32" offset=".7109"/>
<stop stop-color="#f57d32" offset=".7148"/>
<stop stop-color="#f57c32" offset=".7188"/>
<stop stop-color="#f57c33" offset=".7227"/>
<stop stop-color="#f57b33" offset=".7266"/>
<stop stop-color="#f57a33" offset=".7305"/>
<stop stop-color="#f47a33" offset=".7344"/>
<stop stop-color="#f47933" offset=".7383"/>
<stop stop-color="#f47834" offset=".7422"/>
<stop stop-color="#f47834" offset=".7461"/>
<stop stop-color="#f47734" offset=".75"/>
<stop stop-color="#f47634" offset=".7539"/>
<stop stop-color="#f47634" offset=".7578"/>
<stop stop-color="#f47534" offset=".7617"/>
<stop stop-color="#f47435" offset=".7656"/>
<stop stop-color="#f47435" offset=".7695"/>
<stop stop-color="#f47335" offset=".7734"/>
<stop stop-color="#f47235" offset=".7773"/>
<stop stop-color="#f47235" offset=".7812"/>
<stop stop-color="#f47136" offset=".7852"/>
<stop stop-color="#f47036" offset=".7891"/>
<stop stop-color="#f47036" offset=".793"/>
<stop stop-color="#f46f36" offset=".7969"/>
<stop stop-color="#f46e36" offset=".8008"/>
<stop stop-color="#f36e36" offset=".8047"/>
<stop stop-color="#f36d37" offset=".8086"/>
<stop stop-color="#f36c37" offset=".8125"/>
<stop stop-color="#f36c37" offset=".8164"/>
<stop stop-color="#f36b37" offset=".8203"/>
<stop stop-color="#f36b37" offset=".8242"/>
<stop stop-color="#f36a37" offset=".8281"/>
<stop stop-color="#f36938" offset=".832"/>
<stop stop-color="#f36938" offset=".8359"/>
<stop stop-color="#f36838" offset=".8398"/>
<stop stop-color="#f36738" offset=".8438"/>
<stop stop-color="#f36738" offset=".8477"/>
<stop stop-color="#f36638" offset=".8516"/>
<stop stop-color="#f36539" offset=".8555"/>
<stop stop-color="#f36539" offset=".8594"/>
<stop stop-color="#f36439" offset=".8633"/>
<stop stop-color="#f36339" offset=".8672"/>
<stop stop-color="#f36339" offset=".8711"/>
<stop stop-color="#f36239" offset=".875"/>
<stop stop-color="#f2613a" offset=".8789"/>
<stop stop-color="#f2613a" offset=".8828"/>
<stop stop-color="#f2603a" offset=".8867"/>
<stop stop-color="#f25f3a" offset=".8906"/>
<stop stop-color="#f25f3a" offset=".8945"/>
<stop stop-color="#f25e3a" offset=".8984"/>
<stop stop-color="#f25d3b" offset=".9023"/>
<stop stop-color="#f25d3b" offset=".9062"/>
<stop stop-color="#f25c3b" offset=".9102"/>
<stop stop-color="#f25b3b" offset=".9141"/>
<stop stop-color="#f25b3b" offset=".918"/>
<stop stop-color="#f25a3b" offset=".9219"/>
<stop stop-color="#f2593b" offset=".9258"/>
<stop stop-color="#f2593c" offset=".9297"/>
<stop stop-color="#f2583c" offset=".9336"/>
<stop stop-color="#f2573c" offset=".9375"/>
<stop stop-color="#f2573c" offset=".9414"/>
<stop stop-color="#f2563c" offset=".9453"/>
<stop stop-color="#f2553c" offset=".9492"/>
<stop stop-color="#f1553c" offset=".9531"/>
<stop stop-color="#f1543d" offset=".957"/>
<stop stop-color="#f1533d" offset=".9609"/>
<stop stop-color="#f1533d" offset=".9648"/>
<stop stop-color="#f1523d" offset=".9688"/>
<stop stop-color="#f1513d" offset=".9727"/>
<stop stop-color="#f1513d" offset=".9766"/>
<stop stop-color="#f1503d" offset=".9805"/>
<stop stop-color="#f14f3e" offset=".9844"/>
<stop stop-color="#f14f3e" offset=".9883"/>
<stop stop-color="#f14e3e" offset=".9922"/>
<stop stop-color="#f14d3e" offset=".9961"/>
<stop stop-color="#f14d3e" offset="1"/>
</linearGradient>
<clipPath id="cm">
<path d="m471 81h64.38v41h-64.38z"/>
</clipPath>
<clipPath id="cl">
<path d="m471 133h64.38v41h-64.38z"/>
</clipPath>
<clipPath id="ck">
<path d="m471 184h64.38v42h-64.38z"/>
</clipPath>
<clipPath id="cj">
<path d="m471 236h64.38v42h-64.38z"/>
</clipPath>
<clipPath id="ci">
<path d="m460 0h75.38v64h-75.38z"/>
</clipPath>
</defs>
<path transform="matrix(.1 0 0 -.1 0 398)" d="m3079 2765v-7.5" fill="none" stroke="#231f1f" stroke-width="5"/>
<path transform="matrix(.1 0 0 -.1 0 398)" d="m3079 2743v-1070" fill="none" stroke="#231f1f" stroke-dasharray="14.9623 14.9623" stroke-width="5"/>
<path transform="matrix(.1 0 0 -.1 0 398)" d="m3079 1666v-7.5" fill="none" stroke="#231f1f" stroke-width="5"/>
<path d="m307.9 235.8c-0.6289-1.703-1.711-3.816-2.852-5.129l2.852 1.035 2.855-1.035c-1.145 1.312-2.223 3.426-2.855 5.129" fill="#231f1f"/>
<path d="m512 397.5v-11.5h-511.8v-17.25h511.8v-11.5l23 20.25-23 20" fill="#96d550"/>
<g clip-path="url(#cr)">
<path transform="matrix(.1 0 0 -.1 0 398)" d="m5131 15.34-11.33-9.844v15" fill="none" stroke="#231f1f" stroke-width="5"/>
</g>
<path transform="matrix(.1 0 0 -.1 0 398)" d="m5120 48.82v42.5" fill="none" stroke="#231f1f" stroke-dasharray="28.3333 28.3333" stroke-width="5"/>
<path transform="matrix(.1 0 0 -.1 0 398)" d="m5120 105.5v15h-15" fill="none" stroke="#231f1f" stroke-width="5"/>
<path transform="matrix(.1 0 0 -.1 0 398)" d="m5075 120.5h-5042" fill="none" stroke="#231f1f" stroke-dasharray="30.1036 30.1036" stroke-width="5"/>
<path transform="matrix(.1 0 0 -.1 0 398)" d="m17.5 120.5h-15v15" fill="none" stroke="#231f1f" stroke-width="5"/>
<path transform="matrix(.1 0 0 -.1 0 398)" d="m2.5 164v99.77" fill="none" stroke="#231f1f" stroke-dasharray="28.5 28.5" stroke-width="5"/>
<path transform="matrix(.1 0 0 -.1 0 398)" d="m2.5 278v15h15" fill="none" stroke="#231f1f" stroke-width="5"/>
<path transform="matrix(.1 0 0 -.1 0 398)" d="m47.62 293h5042" fill="none" stroke="#231f1f" stroke-dasharray="30.1036 30.1036" stroke-width="5"/>
<path transform="matrix(.1 0 0 -.1 0 398)" d="m5105 293h15v15" fill="none" stroke="#231f1f" stroke-width="5"/>
<path transform="matrix(.1 0 0 -.1 0 398)" d="m5120 336.3v42.5" fill="none" stroke="#231f1f" stroke-dasharray="28.3333 28.3333" stroke-width="5"/>
<path transform="matrix(.1 0 0 -.1 0 398)" d="m5120 393v15l11.25-9.883" fill="none" stroke="#231f1f" stroke-width="5"/>
<g clip-path="url(#cq)">
<path transform="matrix(.1 0 0 -.1 0 398)" d="m5154 377.8 172.9-152.2" fill="none" stroke="#231f1f" stroke-dasharray="30.7157 30.7157" stroke-width="5"/>
</g>
<g clip-path="url(#cp)">
<path transform="matrix(.1 0 0 -.1 0 398)" d="m5339 215.4 11.25-9.922-11.33-9.805" fill="none" stroke="#231f1f" stroke-width="5"/>
</g>
<g clip-path="url(#co)">
<path transform="matrix(.1 0 0 -.1 0 398)" d="m5316 175.6-172.8-150.3" fill="none" stroke="#231f1f" stroke-dasharray="30.5328 30.5328" stroke-width="5"/>
</g>
<path d="m75 63.25h-74.75v-63h74.75v63" fill="#fef0ca"/>
<path transform="matrix(.1 0 0 -.1 0 398)" d="m750 3348h-747.5v630h747.5z" fill="none" stroke="#231f1f" stroke-width="5"/>
<g fill="#231f1f">
<use x="26.7828" y="12.65" xlink:href="#ap"/>
<use x="30.877741" y="12.65" xlink:href="#ao"/>
<use x="33.481741" y="12.65" xlink:href="#an"/>
<use x="37.653741" y="12.65" xlink:href="#am"/>
<use x="42.252741" y="12.65" xlink:href="#glyph-0-4"/>
<use x="44.002741" y="12.65" xlink:href="#cg"/>
<use x="7.0086" y="24.05" xlink:href="#s"/>
<use x="11.2156" y="24.05" xlink:href="#e"/>
<use x="14.3236" y="24.05" xlink:href="#c"/>
<use x="16.6266" y="24.05" xlink:href="#a"/>
<use x="20.4206" y="24.05" xlink:href="#au"/>
<use x="24.8726" y="24.05" xlink:href="#k"/>
<use x="26.6926" y="24.05" xlink:href="#d"/>
<use x="28.5056" y="24.05" xlink:href="#e"/>
<use x="31.6136" y="24.05" xlink:href="#t"/>
<use x="35.7016" y="24.05" xlink:href="#glyph-1-8"/>
<use x="37.4516" y="24.05" xlink:href="#h"/>
<use x="41.8966" y="24.05" xlink:href="#d"/>
<use x="43.7096" y="24.05" xlink:href="#a"/>
<use x="47.5036" y="24.05" xlink:href="#y"/>
<use x="51.9276" y="24.05" xlink:href="#f"/>
<use x="56.0016" y="24.05" xlink:href="#i"/>
<use x="60.2716" y="24.05" xlink:href="#e"/>
<use x="63.3796" y="24.05" xlink:href="#d"/>
<use x="65.1926" y="24.05" xlink:href="#e"/>
<use x="23.7238" y="32.45" xlink:href="#i"/>
<use x="27.9938" y="32.45" xlink:href="#ai"/>
<use x="30.331689" y="32.45" xlink:href="#glyph-1-8"/>
<use x="32.081689" y="32.45" xlink:href="#v"/>
<use x="37.184689" y="32.45" xlink:href="#m"/>
<use x="40.866698" y="32.45" xlink:href="#g"/>
<use x="43.400698" y="32.45" xlink:href="#s"/>
<use x="47.607698" y="32.45" xlink:href="#m"/>
<use x="5.6258" y="43.85" xlink:href="#u"/>
<use x="10.6028" y="43.85" xlink:href="#h"/>
<use x="15.0478" y="43.85" xlink:href="#h"/>
<use x="19.4928" y="43.85" xlink:href="#g"/>
<use x="21.9008" y="43.85" xlink:href="#b"/>
<use x="25.9118" y="43.85" xlink:href="#e"/>
<use x="29.0198" y="43.85" xlink:href="#e"/>
<use x="32.1278" y="43.85" xlink:href="#glyph-1-8"/>
<use x="33.8778" y="43.85" xlink:href="#l"/>
<use x="37.3358" y="43.85" xlink:href="#i"/>
<use x="41.6058" y="43.85" xlink:href="#f"/>
<use x="45.6798" y="43.85" xlink:href="#y"/>
<use x="50.1038" y="43.85" xlink:href="#b"/>
<use x="54.1148" y="43.85" xlink:href="#e"/>
<use x="57.2228" y="43.85" xlink:href="#c"/>
<use x="59.5258" y="43.85" xlink:href="#d"/>
<use x="61.3388" y="43.85" xlink:href="#i"/>
<use x="65.6088" y="43.85" xlink:href="#f"/>
<use x="15.35549" y="55.25" xlink:href="#j"/>
<use x="17.25249" y="55.25" xlink:href="#f"/>
<use x="21.32649" y="55.25" xlink:href="#d"/>
<use x="23.13949" y="55.25" xlink:href="#c"/>
<use x="25.44249" y="55.25" xlink:href="#d"/>
<use x="27.25549" y="55.25" xlink:href="#a"/>
<use x="30.979318" y="55.25" xlink:href="#c"/>
<use x="33.282318" y="55.25" xlink:href="#b"/>
<use x="37.293318" y="55.25" xlink:href="#glyph-1-8"/>
<use x="39.043318" y="55.25" xlink:href="#ay"/>
<use x="44.489318" y="55.25" xlink:href="#ah"/>
<use x="49.816318" y="55.25" xlink:href="#av"/>
<use x="56.137318" y="55.25" xlink:href="#al"/>
</g>
<path d="m167 63.25h-74.75v-63h74.75v63" fill="#fef0ca"/>
<path transform="matrix(.1 0 0 -.1 0 398)" d="m1670 3348h-747.5v630h747.5z" fill="none" stroke="#231f1f" stroke-width="5"/>
<g fill="#231f1f">
<use x="118.783" y="12.65" xlink:href="#ap"/>
<use x="122.877947" y="12.65" xlink:href="#ao"/>
<use x="125.481947" y="12.65" xlink:href="#an"/>
<use x="129.653947" y="12.65" xlink:href="#am"/>
<use x="134.252947" y="12.65" xlink:href="#glyph-0-4"/>
<use x="136.002947" y="12.65" xlink:href="#cf"/>
<use x="104.7482" y="24.05" xlink:href="#al"/>
<use x="108.647143" y="24.05" xlink:href="#d"/>
<use x="110.460143" y="24.05" xlink:href="#c"/>
<use x="112.763143" y="24.05" xlink:href="#g"/>
<use x="115.206249" y="24.05" xlink:href="#a"/>
<use x="118.930229" y="24.05" xlink:href="#c"/>
<use x="121.233229" y="24.05" xlink:href="#b"/>
<use x="125.244229" y="24.05" xlink:href="#glyph-1-8"/>
<use x="126.994229" y="24.05" xlink:href="#c"/>
<use x="129.297229" y="24.05" xlink:href="#i"/>
<use x="133.567229" y="24.05" xlink:href="#glyph-1-8"/>
<use x="135.317229" y="24.05" xlink:href="#c"/>
<use x="137.620229" y="24.05" xlink:href="#a"/>
<use x="141.414229" y="24.05" xlink:href="#g"/>
<use x="143.822302" y="24.05" xlink:href="#y"/>
<use x="148.246302" y="24.05" xlink:href="#b"/>
<use x="152.257302" y="24.05" xlink:href="#c"/>
<use x="97.91656" y="32.45" xlink:href="#h"/>
<use x="102.36156" y="32.45" xlink:href="#i"/>
<use x="106.63156" y="32.45" xlink:href="#e"/>
<use x="109.73956" y="32.45" xlink:href="#d"/>
<use x="111.55256" y="32.45" xlink:href="#f"/>
<use x="115.62656" y="32.45" xlink:href="#y"/>
<use x="120.05056" y="32.45" xlink:href="#glyph-1-8"/>
<use x="121.80056" y="32.45" xlink:href="#a"/>
<use x="125.59456" y="32.45" xlink:href="#e"/>
<use x="128.70256" y="32.45" xlink:href="#glyph-1-8"/>
<use x="130.45256" y="32.45" xlink:href="#c"/>
<use x="132.75556" y="32.45" xlink:href="#i"/>
<use x="137.02556" y="32.45" xlink:href="#k"/>
<use x="138.84556" y="32.45" xlink:href="#b"/>
<use x="142.85656" y="32.45" xlink:href="#g"/>
<use x="145.298983" y="32.45" xlink:href="#a"/>
<use x="149.022964" y="32.45" xlink:href="#c"/>
<use x="151.325964" y="32.45" xlink:href="#b"/>
<use x="155.336964" y="32.45" xlink:href="#h"/>
<use x="159.781964" y="32.45" xlink:href="#x"/>
<use x="100.36617" y="40.85" xlink:href="#k"/>
<use x="102.18617" y="40.85" xlink:href="#a"/>
<use x="105.98017" y="40.85" xlink:href="#au"/>
<use x="110.43217" y="40.85" xlink:href="#e"/>
<use x="113.54017" y="40.85" xlink:href="#x"/>
<use x="115.15016" y="40.85" xlink:href="#glyph-1-8"/>
<use x="116.90016" y="40.85" xlink:href="#t"/>
<use x="120.98816" y="40.85" xlink:href="#b"/>
<use x="124.957192" y="40.85" xlink:href="#a"/>
<use x="128.751192" y="40.85" xlink:href="#k"/>
<use x="130.571192" y="40.85" xlink:href="#c"/>
<use x="132.874192" y="40.85" xlink:href="#t"/>
<use x="136.962192" y="40.85" xlink:href="#glyph-1-8"/>
<use x="138.712192" y="40.85" xlink:href="#e"/>
<use x="141.820192" y="40.85" xlink:href="#c"/>
<use x="144.123192" y="40.85" xlink:href="#a"/>
<use x="147.847038" y="40.85" xlink:href="#c"/>
<use x="150.150038" y="40.85" xlink:href="#ae"/>
<use x="154.224038" y="40.85" xlink:href="#e"/>
<use x="157.332038" y="40.85" xlink:href="#x"/>
<use x="114.68417" y="49.25" xlink:href="#a"/>
<use x="118.47817" y="49.25" xlink:href="#f"/>
<use x="122.55217" y="49.25" xlink:href="#h"/>
<use x="126.99717" y="49.25" xlink:href="#glyph-1-8"/>
<use x="128.74717" y="49.25" xlink:href="#ad"/>
<use x="131.946277" y="49.25" xlink:href="#z"/>
<use x="136.440277" y="49.25" xlink:href="#s"/>
<use x="140.647277" y="49.25" xlink:href="#m"/>
</g>
<path d="m259 63.25h-74.75v-63h74.75v63" fill="#fef0ca"/>
<path transform="matrix(.1 0 0 -.1 0 398)" d="m2590 3348h-747.5v630h747.5z" fill="none" stroke="#231f1f" stroke-width="5"/>
<g fill="#231f1f">
<use x="210.783" y="12.65" xlink:href="#ap"/>
<use x="214.877935" y="12.65" xlink:href="#ao"/>
<use x="217.481935" y="12.65" xlink:href="#an"/>
<use x="221.653935" y="12.65" xlink:href="#am"/>
<use x="226.252935" y="12.65" xlink:href="#glyph-0-4"/>
<use x="228.002935" y="12.65" xlink:href="#ce"/>
<use x="197.4549" y="24.05" xlink:href="#w"/>
<use x="202.326879" y="24.05" xlink:href="#i"/>
<use x="206.596879" y="24.05" xlink:href="#f"/>
<use x="210.670879" y="24.05" xlink:href="#e"/>
<use x="213.778879" y="24.05" xlink:href="#d"/>
<use x="215.591879" y="24.05" xlink:href="#h"/>
<use x="220.036879" y="24.05" xlink:href="#b"/>
<use x="224.047879" y="24.05" xlink:href="#g"/>
<use x="226.581879" y="24.05" xlink:href="#glyph-1-8"/>
<use x="228.331879" y="24.05" xlink:href="#c"/>
<use x="230.634879" y="24.05" xlink:href="#t"/>
<use x="234.722879" y="24.05" xlink:href="#b"/>
<use x="238.733879" y="24.05" xlink:href="#e"/>
<use x="241.841879" y="24.05" xlink:href="#b"/>
<use x="194.36076" y="32.45" xlink:href="#p"/>
<use x="198.79876" y="32.45" xlink:href="#a"/>
<use x="202.52274" y="32.45" xlink:href="#c"/>
<use x="204.82574" y="32.45" xlink:href="#d"/>
<use x="206.63874" y="32.45" xlink:href="#b"/>
<use x="210.64974" y="32.45" xlink:href="#f"/>
<use x="214.72374" y="32.45" xlink:href="#c"/>
<use x="217.02674" y="32.45" xlink:href="#glyph-1-8"/>
<use x="218.77674" y="32.45" xlink:href="#e"/>
<use x="221.88474" y="32.45" xlink:href="#l"/>
<use x="225.34274" y="32.45" xlink:href="#b"/>
<use x="229.35374" y="32.45" xlink:href="#f"/>
<use x="233.42774" y="32.45" xlink:href="#a"/>
<use x="237.22174" y="32.45" xlink:href="#g"/>
<use x="239.75574" y="32.45" xlink:href="#d"/>
<use x="241.56874" y="32.45" xlink:href="#i"/>
<use x="245.83874" y="32.45" xlink:href="#e"/>
</g>
<path d="m351 63.25h-74.75v-63h74.75v63" fill="#fef0ca"/>
<path transform="matrix(.1 0 0 -.1 0 398)" d="m3510 3348h-747.5v630h747.5z" fill="none" stroke="#231f1f" stroke-width="5"/>
<g fill="#231f1f">
<use x="302.783" y="12.65" xlink:href="#ap"/>
<use x="306.877935" y="12.65" xlink:href="#ao"/>
<use x="309.481935" y="12.65" xlink:href="#an"/>
<use x="313.653935" y="12.65" xlink:href="#am"/>
<use x="318.252935" y="12.65" xlink:href="#glyph-0-4"/>
<use x="320.002935" y="12.65" xlink:href="#cd"/>
<use x="296.16816" y="24.05" xlink:href="#j"/>
<use x="298.06516" y="24.05" xlink:href="#r"/>
<use x="304.27416" y="24.05" xlink:href="#p"/>
<use x="308.71216" y="24.05" xlink:href="#k"/>
<use x="310.53216" y="24.05" xlink:href="#b"/>
<use x="314.54316" y="24.05" xlink:href="#r"/>
<use x="320.75216" y="24.05" xlink:href="#b"/>
<use x="324.76316" y="24.05" xlink:href="#f"/>
<use x="328.83716" y="24.05" xlink:href="#c"/>
<use x="285.16426" y="32.45" xlink:href="#a"/>
<use x="288.95826" y="32.45" xlink:href="#h"/>
<use x="293.40326" y="32.45" xlink:href="#h"/>
<use x="297.84826" y="32.45" xlink:href="#d"/>
<use x="299.66126" y="32.45" xlink:href="#c"/>
<use x="301.96426" y="32.45" xlink:href="#d"/>
<use x="303.77726" y="32.45" xlink:href="#i"/>
<use x="308.04726" y="32.45" xlink:href="#f"/>
<use x="312.12126" y="32.45" xlink:href="#a"/>
<use x="315.91526" y="32.45" xlink:href="#k"/>
<use x="317.73526" y="32.45" xlink:href="#glyph-1-8"/>
<use x="319.48526" y="32.45" xlink:href="#ay"/>
<use x="324.93126" y="32.45" xlink:href="#ah"/>
<use x="330.25826" y="32.45" xlink:href="#av"/>
<use x="336.57926" y="32.45" xlink:href="#al"/>
<use x="340.393168" y="32.45" xlink:href="#glyph-1-8"/>
<use x="282.1334" y="40.85" xlink:href="#a"/>
<use x="285.9274" y="40.85" xlink:href="#f"/>
<use x="290.0014" y="40.85" xlink:href="#h"/>
<use x="294.4464" y="40.85" xlink:href="#glyph-1-8"/>
<use x="296.1964" y="40.85" xlink:href="#h"/>
<use x="300.6414" y="40.85" xlink:href="#b"/>
<use x="304.6524" y="40.85" xlink:href="#ak"/>
<use x="308.1804" y="40.85" xlink:href="#d"/>
<use x="309.9934" y="40.85" xlink:href="#l"/>
<use x="313.4514" y="40.85" xlink:href="#b"/>
<use x="317.4624" y="40.85" xlink:href="#glyph-1-8"/>
<use x="319.2124" y="40.85" xlink:href="#c"/>
<use x="321.5154" y="40.85" xlink:href="#t"/>
<use x="325.6034" y="40.85" xlink:href="#b"/>
<use x="329.6144" y="40.85" xlink:href="#g"/>
<use x="332.057238" y="40.85" xlink:href="#a"/>
<use x="335.851238" y="40.85" xlink:href="#p"/>
<use x="340.289238" y="40.85" xlink:href="#ac"/>
<use x="343.56504" y="40.85" xlink:href="#x"/>
<use x="294.2854" y="49.25" xlink:href="#a"/>
<use x="298.0794" y="49.25" xlink:href="#e"/>
<use x="301.1874" y="49.25" xlink:href="#glyph-1-8"/>
<use x="302.9374" y="49.25" xlink:href="#d"/>
<use x="304.7504" y="49.25" xlink:href="#f"/>
<use x="308.8244" y="49.25" xlink:href="#h"/>
<use x="313.2694" y="49.25" xlink:href="#d"/>
<use x="315.0824" y="49.25" xlink:href="#l"/>
<use x="318.5404" y="49.25" xlink:href="#a"/>
<use x="322.264307" y="49.25" xlink:href="#c"/>
<use x="324.567307" y="49.25" xlink:href="#b"/>
<use x="328.578307" y="49.25" xlink:href="#h"/>
</g>
<path d="m339.3 121.5h-63.25v-40h63.25v40" fill="#96d550"/>
<path transform="matrix(.1 0 0 -.1 0 398)" d="m3393 2765h-632.5v400h632.5z" fill="none" stroke="#231f1f" stroke-width="5"/>
<g fill="#231f1f">
<use x="284.089" y="99.502" xlink:href="#v"/>
<use x="289.192" y="99.502" xlink:href="#ac"/>
<use x="292.72" y="99.502" xlink:href="#h"/>
<use x="297.165" y="99.502" xlink:href="#g"/>
<use x="299.608131" y="99.502" xlink:href="#a"/>
<use x="303.402131" y="99.502" xlink:href="#k"/>
<use x="305.222131" y="99.502" xlink:href="#af"/>
<use x="307.462131" y="99.502" xlink:href="#f"/>
<use x="311.536131" y="99.502" xlink:href="#d"/>
<use x="313.349131" y="99.502" xlink:href="#c"/>
<use x="315.652131" y="99.502" xlink:href="#g"/>
<use x="318.094065" y="99.502" xlink:href="#a"/>
<use x="321.818065" y="99.502" xlink:href="#c"/>
<use x="324.121065" y="99.502" xlink:href="#b"/>
<use x="328.132065" y="99.502" xlink:href="#e"/>
<use x="303.3769" y="107.90161" xlink:href="#o"/>
<use x="305.5819" y="107.90161" xlink:href="#q"/>
<use x="309.7469" y="107.90161" xlink:href="#n"/>
</g>
<path d="m339.3 173.3h-63.25v-40h63.25v40" fill="#96d550"/>
<path transform="matrix(.1 0 0 -.1 0 398)" d="m3393 2248h-632.5v400h632.5z" fill="none" stroke="#231f1f" stroke-width="5"/>
<g fill="#231f1f">
<use x="301.575" y="151.251" xlink:href="#j"/>
<use x="303.472" y="151.251" xlink:href="#w"/>
<use x="308.428" y="151.251" xlink:href="#ah"/>
<use x="303.37695" y="159.65061" xlink:href="#o"/>
<use x="305.58195" y="159.65061" xlink:href="#q"/>
<use x="309.74695" y="159.65061" xlink:href="#n"/>
</g>
<path d="m339.3 224.8h-63.25v-40h63.25v40" fill="#96d550"/>
<path transform="matrix(.1 0 0 -.1 0 398)" d="m3393 1733h-632.5v400h632.5z" fill="none" stroke="#231f1f" stroke-width="5"/>
<g fill="#231f1f">
<use x="297.62" y="202.754" xlink:href="#w"/>
<use x="302.576" y="202.754" xlink:href="#ab"/>
<use x="306.790015" y="202.754" xlink:href="#al"/>
<use x="310.142962" y="202.754" xlink:href="#af"/>
<use x="312.382962" y="202.754" xlink:href="#ah"/>
<use x="303.37703" y="211.154" xlink:href="#o"/>
<use x="305.58203" y="211.154" xlink:href="#q"/>
<use x="309.74703" y="211.154" xlink:href="#n"/>
</g>
<path d="m259 121.5h-63.25v-40h63.25v40" fill="#fef0ca"/>
<path transform="matrix(.1 0 0 -.1 0 398)" d="m2590 2765h-632.5v400h632.5z" fill="none" stroke="#231f1f" stroke-width="5"/>
<g fill="#231f1f">
<use x="205.176" y="95.752" xlink:href="#ag"/>
<use x="210.58" y="95.752" xlink:href="#at"/>
<use x="214.948" y="95.752" xlink:href="#v"/>
<use x="220.051" y="95.752" xlink:href="#u"/>
<use x="224.900998" y="95.752" xlink:href="#glyph-1-8"/>
<use x="226.650998" y="95.752" xlink:href="#j"/>
<use x="228.547998" y="95.752" xlink:href="#j"/>
<use x="230.444998" y="95.752" xlink:href="#j"/>
<use x="232.341998" y="95.752" xlink:href="#af"/>
<use x="234.581998" y="95.752" xlink:href="#j"/>
<use x="236.478998" y="95.752" xlink:href="#z"/>
<use x="240.384986" y="95.752" xlink:href="#x"/>
<use x="241.994951" y="95.752" xlink:href="#glyph-1-8"/>
<use x="243.744951" y="95.752" xlink:href="#d"/>
<use x="245.557951" y="95.752" xlink:href="#f"/>
<use x="199.7467" y="104.15161" xlink:href="#u"/>
<use x="204.7237" y="104.15161" xlink:href="#ai"/>
<use x="206.8937" y="104.15161" xlink:href="#g"/>
<use x="209.4277" y="104.15161" xlink:href="#d"/>
<use x="211.2407" y="104.15161" xlink:href="#l"/>
<use x="214.6987" y="104.15161" xlink:href="#a"/>
<use x="218.4927" y="104.15161" xlink:href="#f"/>
<use x="222.5667" y="104.15161" xlink:href="#glyph-1-8"/>
<use x="224.190846" y="104.15161" xlink:href="#u"/>
<use x="229.167846" y="104.15161" xlink:href="#r"/>
<use x="235.376846" y="104.15161" xlink:href="#b"/>
<use x="239.387846" y="104.15161" xlink:href="#g"/>
<use x="241.921846" y="104.15161" xlink:href="#d"/>
<use x="243.734846" y="104.15161" xlink:href="#l"/>
<use x="247.192846" y="104.15161" xlink:href="#a"/>
<use x="250.986846" y="104.15161" xlink:href="#f"/>
<use x="214.517" y="112.55161" xlink:href="#p"/>
<use x="218.955" y="112.55161" xlink:href="#a"/>
<use x="222.67898" y="112.55161" xlink:href="#c"/>
<use x="224.98198" y="112.55161" xlink:href="#d"/>
<use x="226.79498" y="112.55161" xlink:href="#b"/>
<use x="230.80598" y="112.55161" xlink:href="#f"/>
<use x="234.87998" y="112.55161" xlink:href="#c"/>
<use x="237.18298" y="112.55161" xlink:href="#e"/>
</g>
<path d="m63.5 121.5h-63.25v-40h63.25v40" fill="#fef0ca"/>
<path transform="matrix(.1 0 0 -.1 0 398)" d="m635 2765h-632.5v400h632.5z" fill="none" stroke="#231f1f" stroke-width="5"/>
<g fill="#231f1f">
<use x="22.1527" y="95.752" xlink:href="#v"/>
<use x="27.2557" y="95.752" xlink:href="#m"/>
<use x="30.937709" y="95.752" xlink:href="#g"/>
<use x="33.471709" y="95.752" xlink:href="#s"/>
<use x="37.678709" y="95.752" xlink:href="#m"/>
<use x="13.96012" y="104.15161" xlink:href="#ad"/>
<use x="17.159129" y="104.15161" xlink:href="#z"/>
<use x="21.653129" y="104.15161" xlink:href="#s"/>
<use x="25.860129" y="104.15161" xlink:href="#m"/>
<use x="29.836129" y="104.15161" xlink:href="#glyph-1-8"/>
<use x="31.58592" y="104.15161" xlink:href="#aw"/>
<use x="35.42772" y="104.15161" xlink:href="#bd"/>
<use x="39.59272" y="104.15161" xlink:href="#ax"/>
<use x="43.75772" y="104.15161" xlink:href="#as"/>
<use x="17.10972" y="112.55161" xlink:href="#o"/>
<use x="19.31472" y="112.55161" xlink:href="#aa"/>
<use x="23.255639" y="112.55161" xlink:href="#c"/>
<use x="25.558639" y="112.55161" xlink:href="#a"/>
<use x="29.352639" y="112.55161" xlink:href="#y"/>
<use x="33.776639" y="112.55161" xlink:href="#b"/>
<use x="37.787639" y="112.55161" xlink:href="#glyph-1-8"/>
<use x="39.537639" y="112.55161" xlink:href="#w"/>
<use x="44.493639" y="112.55161" xlink:href="#n"/>
</g>
<path d="m259 173.3h-63.25v-40h63.25v40" fill="#fef0ca"/>
<path transform="matrix(.1 0 0 -.1 0 398)" d="m2590 2248h-632.5v400h632.5z" fill="none" stroke="#231f1f" stroke-width="5"/>
<g fill="#231f1f">
<use x="210.702" y="147.501" xlink:href="#ag"/>
<use x="216.106" y="147.501" xlink:href="#at"/>
<use x="220.474" y="147.501" xlink:href="#v"/>
<use x="225.577" y="147.501" xlink:href="#u"/>
<use x="230.42817" y="147.501" xlink:href="#glyph-1-8"/>
<use x="232.17817" y="147.501" xlink:href="#j"/>
<use x="234.07517" y="147.501" xlink:href="#af"/>
<use x="236.31517" y="147.501" xlink:href="#j"/>
<use x="238.21217" y="147.501" xlink:href="#j"/>
<use x="240.10917" y="147.501" xlink:href="#j"/>
<use x="242.00617" y="147.501" xlink:href="#aj"/>
<use x="208.4102" y="155.90061" xlink:href="#ad"/>
<use x="211.6092" y="155.90061" xlink:href="#z"/>
<use x="216.1032" y="155.90061" xlink:href="#s"/>
<use x="220.3102" y="155.90061" xlink:href="#m"/>
<use x="224.2862" y="155.90061" xlink:href="#glyph-1-8"/>
<use x="226.036" y="155.90061" xlink:href="#aw"/>
<use x="229.87819" y="155.90061" xlink:href="#bj"/>
<use x="234.04319" y="155.90061" xlink:href="#bc"/>
<use x="238.20819" y="155.90061" xlink:href="#as"/>
<use x="244.29819" y="155.90061" xlink:href="#aj"/>
<use x="207.37699" y="164.301" xlink:href="#bi"/>
<use x="212.03899" y="164.301" xlink:href="#q"/>
<use x="216.20399" y="164.301" xlink:href="#glyph-1-8"/>
<use x="217.95399" y="164.301" xlink:href="#ac"/>
<use x="221.48199" y="164.301" xlink:href="#glyph-1-8"/>
<use x="223.23199" y="164.301" xlink:href="#e"/>
<use x="226.33999" y="164.301" xlink:href="#ae"/>
<use x="230.41399" y="164.301" xlink:href="#g"/>
<use x="232.94799" y="164.301" xlink:href="#ak"/>
<use x="236.47599" y="164.301" xlink:href="#d"/>
<use x="238.28899" y="164.301" xlink:href="#ak"/>
<use x="241.81699" y="164.301" xlink:href="#a"/>
<use x="245.61099" y="164.301" xlink:href="#k"/>
</g>
<path d="m259 230.8h-63.25v-46h63.25v46" fill="#fef0ca"/>
<path transform="matrix(.1 0 0 -.1 0 398)" d="m2590 1673h-632.5v460h632.5z" fill="none" stroke="#231f1f" stroke-width="5"/>
<g fill="#231f1f">
<use x="209.754" y="193.066" xlink:href="#ag"/>
<use x="215.158" y="193.066" xlink:href="#at"/>
<use x="219.526" y="193.066" xlink:href="#v"/>
<use x="224.629" y="193.066" xlink:href="#u"/>
<use x="229.478998" y="193.066" xlink:href="#glyph-1-8"/>
<use x="231.228998" y="193.066" xlink:href="#j"/>
<use x="233.125998" y="193.066" xlink:href="#j"/>
<use x="235.022998" y="193.066" xlink:href="#af"/>
<use x="237.262998" y="193.066" xlink:href="#j"/>
<use x="239.159998" y="193.066" xlink:href="#j"/>
<use x="241.056998" y="193.066" xlink:href="#j"/>
<use x="242.953998" y="193.066" xlink:href="#aj"/>
<use x="204.09814" y="201.466" xlink:href="#a"/>
<use x="207.89214" y="201.466" xlink:href="#r"/>
<use x="214.10114" y="201.466" xlink:href="#au"/>
<use x="218.55314" y="201.466" xlink:href="#ae"/>
<use x="222.62714" y="201.466" xlink:href="#k"/>
<use x="224.44714" y="201.466" xlink:href="#a"/>
<use x="228.170022" y="201.466" xlink:href="#c"/>
<use x="230.473022" y="201.466" xlink:href="#i"/>
<use x="234.743022" y="201.466" xlink:href="#g"/>
<use x="237.277022" y="201.466" xlink:href="#ac"/>
<use x="240.805022" y="201.466" xlink:href="#glyph-1-8"/>
<use x="242.555022" y="201.466" xlink:href="#j"/>
<use x="244.452022" y="201.466" xlink:href="#z"/>
<use x="248.610255" y="201.466" xlink:href="#aj"/>
<use x="208.41025" y="209.866" xlink:href="#ad"/>
<use x="211.60925" y="209.866" xlink:href="#z"/>
<use x="216.10325" y="209.866" xlink:href="#s"/>
<use x="220.31025" y="209.866" xlink:href="#m"/>
<use x="224.28625" y="209.866" xlink:href="#glyph-1-8"/>
<use x="226.03605" y="209.866" xlink:href="#aw"/>
<use x="229.87824" y="209.866" xlink:href="#bj"/>
<use x="234.04324" y="209.866" xlink:href="#bc"/>
<use x="238.20824" y="209.866" xlink:href="#as"/>
<use x="244.29824" y="209.866" xlink:href="#aj"/>
<use x="205.55404" y="218.266" xlink:href="#ag"/>
<use x="210.95804" y="218.266" xlink:href="#aa"/>
<use x="214.94104" y="218.266" xlink:href="#ab"/>
<use x="219.23904" y="218.266" xlink:href="#glyph-1-8"/>
<use x="220.98904" y="218.266" xlink:href="#a"/>
<use x="224.78304" y="218.266" xlink:href="#f"/>
<use x="228.85704" y="218.266" xlink:href="#h"/>
<use x="233.30204" y="218.266" xlink:href="#glyph-1-8"/>
<use x="235.05204" y="218.266" xlink:href="#cb"/>
<use x="240.97404" y="218.266" xlink:href="#ab"/>
<use x="245.27204" y="218.266" xlink:href="#aa"/>
<use x="197.92826" y="226.666" xlink:href="#bx"/>
<use x="201.77006" y="226.666" xlink:href="#q"/>
<use x="205.759962" y="226.666" xlink:href="#bc"/>
<use x="209.749888" y="226.666" xlink:href="#ax"/>
<use x="213.73979" y="226.666" xlink:href="#glyph-1-8"/>
<use x="215.31479" y="226.666" xlink:href="#r"/>
<use x="221.348741" y="226.666" xlink:href="#e"/>
<use x="224.28162" y="226.666" xlink:href="#glyph-1-8"/>
<use x="225.85662" y="226.666" xlink:href="#bh"/>
<use x="231.092571" y="226.666" xlink:href="#d"/>
<use x="232.730497" y="226.666" xlink:href="#c"/>
<use x="234.858448" y="226.666" xlink:href="#t"/>
<use x="238.771473" y="226.666" xlink:href="#glyph-1-8"/>
<use x="240.346473" y="226.666" xlink:href="#ad"/>
<use x="243.748375" y="226.666" xlink:href="#ar"/>
<use x="248.067375" y="226.666" xlink:href="#ar"/>
<use x="252.38635" y="226.666" xlink:href="#ar"/>
</g>
<g clip-path="url(#cn)">
<path d="m276 236.8v40h63.25v-40z" fill="url(#bk)"/>
</g>
<path transform="matrix(.1 0 0 -.1 0 398)" d="m3393 1213h-632.5v400h632.5z" fill="none" stroke="#231f1f" stroke-width="5"/>
<g fill="#231f1f">
<use x="293.101" y="250.464" xlink:href="#w"/>
<use x="297.972967" y="250.464" xlink:href="#i"/>
<use x="302.242967" y="250.464" xlink:href="#f"/>
<use x="306.316967" y="250.464" xlink:href="#e"/>
<use x="309.424967" y="250.464" xlink:href="#d"/>
<use x="311.237967" y="250.464" xlink:href="#h"/>
<use x="315.682967" y="250.464" xlink:href="#b"/>
<use x="319.693967" y="250.464" xlink:href="#g"/>
<use x="291.37873" y="258.864" xlink:href="#a"/>
<use x="295.17273" y="258.864" xlink:href="#h"/>
<use x="299.61773" y="258.864" xlink:href="#h"/>
<use x="304.06273" y="258.864" xlink:href="#d"/>
<use x="305.87573" y="258.864" xlink:href="#c"/>
<use x="308.17873" y="258.864" xlink:href="#d"/>
<use x="309.99173" y="258.864" xlink:href="#i"/>
<use x="314.26173" y="258.864" xlink:href="#f"/>
<use x="318.33573" y="258.864" xlink:href="#a"/>
<use x="322.12973" y="258.864" xlink:href="#k"/>
<use x="292.65998" y="267.264" xlink:href="#c"/>
<use x="294.96298" y="267.264" xlink:href="#t"/>
<use x="299.05098" y="267.264" xlink:href="#b"/>
<use x="303.06198" y="267.264" xlink:href="#g"/>
<use x="305.504891" y="267.264" xlink:href="#a"/>
<use x="309.298891" y="267.264" xlink:href="#p"/>
<use x="313.736891" y="267.264" xlink:href="#d"/>
<use x="315.549891" y="267.264" xlink:href="#b"/>
<use x="319.560891" y="267.264" xlink:href="#e"/>
</g>
<path d="m535 121.5h-63.25v-40h63.25v40" fill="#96d550"/>
<g clip-path="url(#cm)">
<path transform="matrix(.1 0 0 -.1 0 398)" d="m5350 2765h-632.5v400h632.5z" fill="none" stroke="#231f1f" stroke-width="5"/>
</g>
<g fill="#231f1f">
<use x="490.189" y="90.752" xlink:href="#j"/>
<use x="492.086" y="90.752" xlink:href="#f"/>
<use x="496.16" y="90.752" xlink:href="#glyph-1-8"/>
<use x="497.91" y="90.752" xlink:href="#e"/>
<use x="501.018" y="90.752" xlink:href="#b"/>
<use x="505.029" y="90.752" xlink:href="#k"/>
<use x="506.849" y="90.752" xlink:href="#b"/>
<use x="510.86" y="90.752" xlink:href="#l"/>
<use x="514.318" y="90.752" xlink:href="#c"/>
<use x="489.712828" y="99.152" xlink:href="#p"/>
<use x="494.150828" y="99.152" xlink:href="#a"/>
<use x="497.874808" y="99.152" xlink:href="#c"/>
<use x="500.177808" y="99.152" xlink:href="#d"/>
<use x="501.990808" y="99.152" xlink:href="#b"/>
<use x="506.001808" y="99.152" xlink:href="#f"/>
<use x="510.075808" y="99.152" xlink:href="#c"/>
<use x="512.378808" y="99.152" xlink:href="#e"/>
<use x="515.486808" y="99.152" xlink:href="#x"/>
<use x="482.380018" y="107.55161" xlink:href="#h"/>
<use x="486.825018" y="107.55161" xlink:href="#ae"/>
<use x="490.899018" y="107.55161" xlink:href="#g"/>
<use x="493.342149" y="107.55161" xlink:href="#a"/>
<use x="497.136149" y="107.55161" xlink:href="#au"/>
<use x="501.588149" y="107.55161" xlink:href="#k"/>
<use x="503.408149" y="107.55161" xlink:href="#b"/>
<use x="507.419149" y="107.55161" xlink:href="#glyph-1-8"/>
<use x="509.169149" y="107.55161" xlink:href="#av"/>
<use x="515.490149" y="107.55161" xlink:href="#w"/>
<use x="520.446149" y="107.55161" xlink:href="#aa"/>
<use x="499.117118" y="115.95161" xlink:href="#o"/>
<use x="501.322118" y="115.95161" xlink:href="#q"/>
<use x="505.487118" y="115.95161" xlink:href="#n"/>
</g>
<path d="m535 173.3h-63.25v-40h63.25v40" fill="#96d550"/>
<g clip-path="url(#cl)">
<path transform="matrix(.1 0 0 -.1 0 398)" d="m5350 2248h-632.5v400h632.5z" fill="none" stroke="#231f1f" stroke-width="5"/>
</g>
<g fill="#231f1f">
<use x="490.258" y="147.251" xlink:href="#w"/>
<use x="495.088023" y="147.251" xlink:href="#a"/>
<use x="498.882023" y="147.251" xlink:href="#g"/>
<use x="501.290095" y="147.251" xlink:href="#h"/>
<use x="505.735095" y="147.251" xlink:href="#d"/>
<use x="507.548095" y="147.251" xlink:href="#a"/>
<use x="511.342095" y="147.251" xlink:href="#l"/>
<use x="514.800095" y="147.251" xlink:href="#glyph-1-8"/>
<use x="487.3287" y="155.65061" xlink:href="#c"/>
<use x="489.6317" y="155.65061" xlink:href="#g"/>
<use x="492.07488" y="155.65061" xlink:href="#a"/>
<use x="495.86888" y="155.65061" xlink:href="#f"/>
<use x="499.94288" y="155.65061" xlink:href="#e"/>
<use x="503.05088" y="155.65061" xlink:href="#p"/>
<use x="507.48888" y="155.65061" xlink:href="#k"/>
<use x="509.30888" y="155.65061" xlink:href="#a"/>
<use x="513.10288" y="155.65061" xlink:href="#f"/>
<use x="517.17688" y="155.65061" xlink:href="#c"/>
<use x="499.117" y="164.051" xlink:href="#o"/>
<use x="501.322" y="164.051" xlink:href="#q"/>
<use x="505.487" y="164.051" xlink:href="#n"/>
</g>
<path d="m535 224.8h-63.25v-40h63.25v40" fill="#96d550"/>
<g clip-path="url(#ck)">
<path transform="matrix(.1 0 0 -.1 0 398)" d="m5350 1733h-632.5v400h632.5z" fill="none" stroke="#231f1f" stroke-width="5"/>
</g>
<g fill="#231f1f">
<use x="481.495" y="194.251" xlink:href="#bg"/>
<use x="485.26791" y="194.251" xlink:href="#a"/>
<use x="489.06191" y="194.251" xlink:href="#k"/>
<use x="490.88191" y="194.251" xlink:href="#k"/>
<use x="492.70191" y="194.251" xlink:href="#d"/>
<use x="494.51491" y="194.251" xlink:href="#a"/>
<use x="498.238891" y="194.251" xlink:href="#c"/>
<use x="500.541891" y="194.251" xlink:href="#d"/>
<use x="502.354891" y="194.251" xlink:href="#ak"/>
<use x="505.882891" y="194.251" xlink:href="#b"/>
<use x="509.893891" y="194.251" xlink:href="#glyph-1-8"/>
<use x="511.643891" y="194.251" xlink:href="#l"/>
<use x="515.101891" y="194.251" xlink:href="#a"/>
<use x="518.895891" y="194.251" xlink:href="#g"/>
<use x="521.303963" y="194.251" xlink:href="#b"/>
<use x="499.1173" y="202.651" xlink:href="#o"/>
<use x="501.3223" y="202.651" xlink:href="#q"/>
<use x="505.4873" y="202.651" xlink:href="#n"/>
<use x="477.6693" y="211.051" xlink:href="#bw"/>
<use x="479.8743" y="211.051" xlink:href="#bv"/>
<use x="483.3463" y="211.051" xlink:href="#bb"/>
<use x="487.1053" y="211.051" xlink:href="#bf"/>
<use x="491.1723" y="211.051" xlink:href="#glyph-3-4"/>
<use x="492.9223" y="211.051" xlink:href="#be"/>
<use x="497.3533" y="211.051" xlink:href="#aq"/>
<use x="501.3083" y="211.051" xlink:href="#glyph-3-4"/>
<use x="503.0583" y="211.051" xlink:href="#ba"/>
<use x="504.8713" y="211.051" xlink:href="#bf"/>
<use x="508.9383" y="211.051" xlink:href="#ba"/>
<use x="510.7513" y="211.051" xlink:href="#az"/>
<use x="513.0193" y="211.051" xlink:href="#ba"/>
<use x="514.8323" y="211.051" xlink:href="#bb"/>
<use x="518.521231" y="211.051" xlink:href="#az"/>
<use x="520.789231" y="211.051" xlink:href="#aq"/>
<use x="524.744231" y="211.051" xlink:href="#bn"/>
<use x="478.226331" y="219.451" xlink:href="#be"/>
<use x="482.657331" y="219.451" xlink:href="#aq"/>
<use x="486.612331" y="219.451" xlink:href="#bu"/>
<use x="488.775331" y="219.451" xlink:href="#bt"/>
<use x="492.975331" y="219.451" xlink:href="#bs"/>
<use x="495.291175" y="219.451" xlink:href="#aq"/>
<use x="499.246175" y="219.451" xlink:href="#glyph-3-4"/>
<use x="500.996175" y="219.451" xlink:href="#br"/>
<use x="504.93728" y="219.451" xlink:href="#az"/>
<use x="507.20528" y="219.451" xlink:href="#bb"/>
<use x="510.96428" y="219.451" xlink:href="#bq"/>
<use x="515.37428" y="219.451" xlink:href="#aq"/>
<use x="519.32928" y="219.451" xlink:href="#glyph-3-4"/>
<use x="521.07928" y="219.451" xlink:href="#bp"/>
<use x="526.37828" y="219.451" xlink:href="#bo"/>
</g>
<path d="m443.3 173.3h-63.25v-40h63.25v40" fill="#fef0ca"/>
<path transform="matrix(.1 0 0 -.1 0 398)" d="m4433 2248h-632.5v400h632.5z" fill="none" stroke="#231f1f" stroke-width="5"/>
<g fill="#231f1f">
<use x="389.894" y="151.251" xlink:href="#ab"/>
<use x="394.10804" y="151.251" xlink:href="#b"/>
<use x="398.11904" y="151.251" xlink:href="#ai"/>
<use x="400.28904" y="151.251" xlink:href="#g"/>
<use x="402.732146" y="151.251" xlink:href="#a"/>
<use x="406.526146" y="151.251" xlink:href="#l"/>
<use x="409.984146" y="151.251" xlink:href="#c"/>
<use x="412.287146" y="151.251" xlink:href="#i"/>
<use x="416.557146" y="151.251" xlink:href="#g"/>
<use x="419.091146" y="151.251" xlink:href="#ac"/>
<use x="422.619146" y="151.251" xlink:href="#glyph-1-8"/>
<use x="424.369146" y="151.251" xlink:href="#v"/>
<use x="429.472146" y="151.251" xlink:href="#m"/>
<use x="396.69088" y="159.65061" xlink:href="#o"/>
<use x="398.89588" y="159.65061" xlink:href="#aa"/>
<use x="402.83679" y="159.65061" xlink:href="#c"/>
<use x="405.13979" y="159.65061" xlink:href="#a"/>
<use x="408.93379" y="159.65061" xlink:href="#y"/>
<use x="413.35779" y="159.65061" xlink:href="#b"/>
<use x="417.36879" y="159.65061" xlink:href="#glyph-1-8"/>
<use x="419.11879" y="159.65061" xlink:href="#ah"/>
<use x="424.44579" y="159.65061" xlink:href="#n"/>
</g>
<path d="m443.3 224.8h-63.25v-40h63.25v40" fill="#fef0ca"/>
<path transform="matrix(.1 0 0 -.1 0 398)" d="m4433 1733h-632.5v400h632.5z" fill="none" stroke="#231f1f" stroke-width="5"/>
<g fill="#231f1f">
<use x="394.689" y="202.001" xlink:href="#aa"/>
<use x="398.587918" y="202.001" xlink:href="#ac"/>
<use x="402.115918" y="202.001" xlink:href="#r"/>
<use x="408.324918" y="202.001" xlink:href="#p"/>
<use x="412.762918" y="202.001" xlink:href="#c"/>
<use x="415.065918" y="202.001" xlink:href="#i"/>
<use x="419.335918" y="202.001" xlink:href="#r"/>
<use x="425.544918" y="202.001" xlink:href="#e"/>
<use x="396.11009" y="210.401" xlink:href="#d"/>
<use x="397.92309" y="210.401" xlink:href="#r"/>
<use x="404.13209" y="210.401" xlink:href="#p"/>
<use x="408.57009" y="210.401" xlink:href="#g"/>
<use x="410.978065" y="210.401" xlink:href="#i"/>
<use x="415.248065" y="210.401" xlink:href="#ak"/>
<use x="418.776065" y="210.401" xlink:href="#b"/>
<use x="422.787065" y="210.401" xlink:href="#h"/>
</g>
<path d="m535 276.8h-63.25v-40h63.25v40" fill="#fef0ca"/>
<g clip-path="url(#cj)">
<path transform="matrix(.1 0 0 -.1 0 398)" d="m5350 1213h-632.5v400h632.5z" fill="none" stroke="#231f1f" stroke-width="5"/>
</g>
<g fill="#231f1f">
<use x="479.927" y="255.464" xlink:href="#j"/>
<use x="481.824" y="255.464" xlink:href="#f"/>
<use x="485.898" y="255.464" xlink:href="#ak"/>
<use x="489.426" y="255.464" xlink:href="#b"/>
<use x="493.437" y="255.464" xlink:href="#e"/>
<use x="496.545" y="255.464" xlink:href="#c"/>
<use x="498.848" y="255.464" xlink:href="#d"/>
<use x="500.661" y="255.464" xlink:href="#y"/>
<use x="505.085" y="255.464" xlink:href="#a"/>
<use x="508.808248" y="255.464" xlink:href="#c"/>
<use x="511.111248" y="255.464" xlink:href="#d"/>
<use x="512.924248" y="255.464" xlink:href="#i"/>
<use x="517.194248" y="255.464" xlink:href="#f"/>
<use x="521.268248" y="255.464" xlink:href="#a"/>
<use x="525.062248" y="255.464" xlink:href="#k"/>
<use x="490.868" y="263.864" xlink:href="#e"/>
<use x="493.976" y="263.864" xlink:href="#c"/>
<use x="496.279" y="263.864" xlink:href="#ae"/>
<use x="500.353" y="263.864" xlink:href="#h"/>
<use x="504.798" y="263.864" xlink:href="#d"/>
<use x="506.611" y="263.864" xlink:href="#b"/>
<use x="510.622" y="263.864" xlink:href="#e"/>
<use x="513.7289" y="261.53275" xlink:href="#bm"/>
</g>
<path d="m63.5 173.3h-63.25v-45.75h63.25v45.75" fill="#96d550"/>
<path transform="matrix(.1 0 0 -.1 0 398)" d="m635 2248h-632.5v457.5h632.5z" fill="none" stroke="#231f1f" stroke-width="5"/>
<g fill="#231f1f">
<use x="9.10195" y="135.689" xlink:href="#u"/>
<use x="14.07895" y="135.689" xlink:href="#ab"/>
<use x="18.37695" y="135.689" xlink:href="#ag"/>
<use x="23.78095" y="135.689" xlink:href="#d"/>
<use x="25.59395" y="135.689" xlink:href="#glyph-1-8"/>
<use x="27.34395" y="135.689" xlink:href="#d"/>
<use x="29.15695" y="135.689" xlink:href="#f"/>
<use x="33.23095" y="135.689" xlink:href="#glyph-1-8"/>
<use x="34.98095" y="135.689" xlink:href="#ag"/>
<use x="40.38495" y="135.689" xlink:href="#at"/>
<use x="44.75295" y="135.689" xlink:href="#v"/>
<use x="49.85595" y="135.689" xlink:href="#u"/>
<use x="24.99175" y="144.089" xlink:href="#j"/>
<use x="26.88875" y="144.089" xlink:href="#j"/>
<use x="28.78575" y="144.089" xlink:href="#af"/>
<use x="31.02575" y="144.089" xlink:href="#j"/>
<use x="32.92275" y="144.089" xlink:href="#j"/>
<use x="34.81975" y="144.089" xlink:href="#j"/>
<use x="36.71675" y="144.089" xlink:href="#aj"/>
<use x="8.19875" y="152.489" xlink:href="#u"/>
<use x="13.04981" y="152.489" xlink:href="#w"/>
<use x="18.00581" y="152.489" xlink:href="#s"/>
<use x="22.21281" y="152.489" xlink:href="#d"/>
<use x="24.02581" y="152.489" xlink:href="#glyph-1-8"/>
<use x="25.77581" y="152.489" xlink:href="#i"/>
<use x="30.04581" y="152.489" xlink:href="#g"/>
<use x="32.57981" y="152.489" xlink:href="#glyph-1-8"/>
<use x="34.203882" y="152.489" xlink:href="#u"/>
<use x="39.180882" y="152.489" xlink:href="#ab"/>
<use x="43.478882" y="152.489" xlink:href="#ar"/>
<use x="47.972882" y="152.489" xlink:href="#glyph-1-8"/>
<use x="49.722882" y="152.489" xlink:href="#d"/>
<use x="51.535882" y="152.489" xlink:href="#f"/>
<use x="15.01672" y="160.889" xlink:href="#ag"/>
<use x="20.42072" y="160.889" xlink:href="#at"/>
<use x="24.78872" y="160.889" xlink:href="#v"/>
<use x="29.89172" y="160.889" xlink:href="#u"/>
<use x="34.742893" y="160.889" xlink:href="#glyph-1-8"/>
<use x="36.492893" y="160.889" xlink:href="#j"/>
<use x="38.389893" y="160.889" xlink:href="#j"/>
<use x="40.286893" y="160.889" xlink:href="#af"/>
<use x="42.526893" y="160.889" xlink:href="#j"/>
<use x="44.423893" y="160.889" xlink:href="#z"/>
<use x="27.61672" y="169.289" xlink:href="#o"/>
<use x="29.82172" y="169.289" xlink:href="#q"/>
<use x="33.98672" y="169.289" xlink:href="#n"/>
</g>
<path d="m63.5 219h-63.25v-40h63.25v40" fill="#96d550"/>
<path transform="matrix(.1 0 0 -.1 0 398)" d="m635 1790h-632.5v400h632.5z" fill="none" stroke="#231f1f" stroke-width="5"/>
<g fill="#231f1f">
<use x="16.7492" y="196.501" xlink:href="#bl"/>
<use x="20.66951" y="196.501" xlink:href="#af"/>
<use x="22.90951" y="196.501" xlink:href="#ar"/>
<use x="27.40351" y="196.501" xlink:href="#k"/>
<use x="29.22351" y="196.501" xlink:href="#i"/>
<use x="33.49351" y="196.501" xlink:href="#l"/>
<use x="36.95151" y="196.501" xlink:href="#ca"/>
<use x="40.514042" y="196.501" xlink:href="#b"/>
<use x="44.525042" y="196.501" xlink:href="#g"/>
<use x="27.61678" y="204.901" xlink:href="#o"/>
<use x="29.82178" y="204.901" xlink:href="#q"/>
<use x="33.98678" y="204.901" xlink:href="#n"/>
</g>
<path d="m63.5 265h-63.25v-40h63.25v40" fill="#96d550"/>
<path transform="matrix(.1 0 0 -.1 0 398)" d="m635 1330h-632.5v400h632.5z" fill="none" stroke="#231f1f" stroke-width="5"/>
<g fill="#231f1f">
<use x="24.1691" y="242.717" xlink:href="#av"/>
<use x="30.4901" y="242.717" xlink:href="#ab"/>
<use x="34.7881" y="242.717" xlink:href="#u"/>
<use x="27.61676" y="251.117" xlink:href="#o"/>
<use x="29.82176" y="251.117" xlink:href="#q"/>
<use x="33.98676" y="251.117" xlink:href="#n"/>
</g>
<path d="m167 216h-63.25v-40h63.25v40" fill="#fef0ca"/>
<path transform="matrix(.1 0 0 -.1 0 398)" d="m1670 1820h-632.5v400h632.5z" fill="none" stroke="#231f1f" stroke-width="5"/>
<g fill="#231f1f">
<use x="117.461" y="189.498" xlink:href="#ad"/>
<use x="120.660009" y="189.498" xlink:href="#z"/>
<use x="125.154009" y="189.498" xlink:href="#s"/>
<use x="129.361009" y="189.498" xlink:href="#m"/>
<use x="133.337009" y="189.498" xlink:href="#glyph-1-8"/>
<use x="135.086" y="189.498" xlink:href="#aw"/>
<use x="138.92819" y="189.498" xlink:href="#bd"/>
<use x="143.09319" y="189.498" xlink:href="#ax"/>
<use x="147.25819" y="189.498" xlink:href="#as"/>
<use x="109.29109" y="197.898" xlink:href="#bg"/>
<use x="113.001073" y="197.898" xlink:href="#b"/>
<use x="117.012073" y="197.898" xlink:href="#g"/>
<use x="119.546073" y="197.898" xlink:href="#e"/>
<use x="122.654073" y="197.898" xlink:href="#d"/>
<use x="124.467073" y="197.898" xlink:href="#e"/>
<use x="127.575073" y="197.898" xlink:href="#c"/>
<use x="129.878073" y="197.898" xlink:href="#b"/>
<use x="133.889073" y="197.898" xlink:href="#f"/>
<use x="137.963073" y="197.898" xlink:href="#c"/>
<use x="140.266073" y="197.898" xlink:href="#glyph-1-8"/>
<use x="142.016073" y="197.898" xlink:href="#v"/>
<use x="147.119073" y="197.898" xlink:href="#m"/>
<use x="150.801091" y="197.898" xlink:href="#g"/>
<use x="153.335091" y="197.898" xlink:href="#s"/>
<use x="157.542091" y="197.898" xlink:href="#m"/>
<use x="120.61019" y="206.298" xlink:href="#o"/>
<use x="122.81519" y="206.298" xlink:href="#aa"/>
<use x="126.756112" y="206.298" xlink:href="#c"/>
<use x="129.059112" y="206.298" xlink:href="#a"/>
<use x="132.853112" y="206.298" xlink:href="#y"/>
<use x="137.277112" y="206.298" xlink:href="#b"/>
<use x="141.288112" y="206.298" xlink:href="#glyph-1-8"/>
<use x="143.038112" y="206.298" xlink:href="#w"/>
<use x="147.994112" y="206.298" xlink:href="#n"/>
</g>
<path d="m167 268.5h-63.25v-40h63.25v40" fill="#fef0ca"/>
<path transform="matrix(.1 0 0 -.1 0 398)" d="m1670 1295h-632.5v400h632.5z" fill="none" stroke="#231f1f" stroke-width="5"/>
<g fill="#231f1f">
<use x="117.051" y="242.214" xlink:href="#ad"/>
<use x="120.250009" y="242.214" xlink:href="#z"/>
<use x="124.744009" y="242.214" xlink:href="#s"/>
<use x="128.951009" y="242.214" xlink:href="#m"/>
<use x="132.927009" y="242.214" xlink:href="#glyph-1-8"/>
<use x="134.677009" y="242.214" xlink:href="#bi"/>
<use x="139.339009" y="242.214" xlink:href="#bd"/>
<use x="143.504009" y="242.214" xlink:href="#ax"/>
<use x="147.669009" y="242.214" xlink:href="#as"/>
<use x="120.60569" y="250.614" xlink:href="#v"/>
<use x="125.70869" y="250.614" xlink:href="#m"/>
<use x="129.558701" y="250.614" xlink:href="#d"/>
<use x="131.371701" y="250.614" xlink:href="#r"/>
<use x="137.580701" y="250.614" xlink:href="#p"/>
<use x="142.018701" y="250.614" xlink:href="#s"/>
<use x="146.225701" y="250.614" xlink:href="#m"/>
<use x="120.609987" y="259.014" xlink:href="#o"/>
<use x="122.814987" y="259.014" xlink:href="#aa"/>
<use x="126.755909" y="259.014" xlink:href="#c"/>
<use x="129.058909" y="259.014" xlink:href="#a"/>
<use x="132.852909" y="259.014" xlink:href="#y"/>
<use x="137.276909" y="259.014" xlink:href="#b"/>
<use x="141.287909" y="259.014" xlink:href="#glyph-1-8"/>
<use x="143.037909" y="259.014" xlink:href="#w"/>
<use x="147.993909" y="259.014" xlink:href="#n"/>
</g>
<path d="m63.5 311h-63.25v-40h63.25v40" fill="#96d550"/>
<path transform="matrix(.1 0 0 -.1 0 398)" d="m635 870.5h-632.5v400h632.5z" fill="none" stroke="#231f1f" stroke-width="5"/>
<g fill="#231f1f">
<use x="20.7395" y="290.002" xlink:href="#aa"/>
<use x="24.7225" y="290.002" xlink:href="#ay"/>
<use x="30.1685" y="290.002" xlink:href="#ad"/>
<use x="33.108641" y="290.002" xlink:href="#al"/>
<use x="37.091641" y="290.002" xlink:href="#bz"/>
<use x="41.256641" y="290.002" xlink:href="#d"/>
<use x="27.61684" y="298.402" xlink:href="#o"/>
<use x="29.82184" y="298.402" xlink:href="#q"/>
<use x="33.98684" y="298.402" xlink:href="#n"/>
</g>
<path d="m63.5 356.8h-63.25v-40h63.25v40" fill="#96d550"/>
<path transform="matrix(.1 0 0 -.1 0 398)" d="m635 412.9h-632.5v400h632.5z" fill="none" stroke="#231f1f" stroke-width="5"/>
<g fill="#231f1f">
<use x="17.7473" y="330.4691" xlink:href="#ah"/>
<use x="23.0743" y="330.4691" xlink:href="#d"/>
<use x="24.8873" y="330.4691" xlink:href="#ae"/>
<use x="28.9613" y="330.4691" xlink:href="#g"/>
<use x="31.368783" y="330.4691" xlink:href="#b"/>
<use x="35.379783" y="330.4691" xlink:href="#c"/>
<use x="37.682783" y="330.4691" xlink:href="#d"/>
<use x="39.495783" y="330.4691" xlink:href="#l"/>
<use x="42.953783" y="330.4691" xlink:href="#e"/>
<use x="15.08011" y="338.8691" xlink:href="#a"/>
<use x="18.87411" y="338.8691" xlink:href="#e"/>
<use x="21.98211" y="338.8691" xlink:href="#glyph-1-8"/>
<use x="23.73211" y="338.8691" xlink:href="#f"/>
<use x="27.80611" y="338.8691" xlink:href="#b"/>
<use x="31.81711" y="338.8691" xlink:href="#b"/>
<use x="35.82811" y="338.8691" xlink:href="#h"/>
<use x="40.27311" y="338.8691" xlink:href="#b"/>
<use x="44.28411" y="338.8691" xlink:href="#h"/>
<use x="27.61681" y="347.2691" xlink:href="#o"/>
<use x="29.82181" y="347.2691" xlink:href="#q"/>
<use x="33.98681" y="347.2691" xlink:href="#n"/>
</g>
<path d="m443 63.25h-74.75v-63h74.75v63" fill="#fef0ca"/>
<path transform="matrix(.1 0 0 -.1 0 398)" d="m4430 3348h-747.5v630h747.5z" fill="none" stroke="#231f1f" stroke-width="5"/>
<g fill="#231f1f">
<use x="394.783" y="12.65" xlink:href="#ap"/>
<use x="398.877935" y="12.65" xlink:href="#ao"/>
<use x="401.481935" y="12.65" xlink:href="#an"/>
<use x="405.653935" y="12.65" xlink:href="#am"/>
<use x="410.252935" y="12.65" xlink:href="#glyph-0-4"/>
<use x="412.002935" y="12.65" xlink:href="#cc"/>
<use x="373.1783" y="24.05" xlink:href="#ab"/>
<use x="377.392315" y="24.05" xlink:href="#b"/>
<use x="381.361323" y="24.05" xlink:href="#a"/>
<use x="385.155323" y="24.05" xlink:href="#e"/>
<use x="388.263323" y="24.05" xlink:href="#e"/>
<use x="391.371323" y="24.05" xlink:href="#b"/>
<use x="395.382323" y="24.05" xlink:href="#e"/>
<use x="398.490323" y="24.05" xlink:href="#e"/>
<use x="401.598323" y="24.05" xlink:href="#glyph-1-8"/>
<use x="403.348323" y="24.05" xlink:href="#e"/>
<use x="406.456323" y="24.05" xlink:href="#ac"/>
<use x="409.984323" y="24.05" xlink:href="#r"/>
<use x="416.193323" y="24.05" xlink:href="#p"/>
<use x="420.631323" y="24.05" xlink:href="#c"/>
<use x="422.934323" y="24.05" xlink:href="#i"/>
<use x="427.204323" y="24.05" xlink:href="#r"/>
<use x="433.413323" y="24.05" xlink:href="#e"/>
<use x="436.521323" y="24.05" xlink:href="#x"/>
<use x="376.36736" y="32.45" xlink:href="#k"/>
<use x="378.18736" y="32.45" xlink:href="#a"/>
<use x="381.98136" y="32.45" xlink:href="#au"/>
<use x="386.43336" y="32.45" xlink:href="#e"/>
<use x="389.54136" y="32.45" xlink:href="#x"/>
<use x="391.150178" y="32.45" xlink:href="#glyph-1-8"/>
<use x="392.900178" y="32.45" xlink:href="#t"/>
<use x="396.988178" y="32.45" xlink:href="#b"/>
<use x="400.957211" y="32.45" xlink:href="#a"/>
<use x="404.751211" y="32.45" xlink:href="#k"/>
<use x="406.571211" y="32.45" xlink:href="#c"/>
<use x="408.874211" y="32.45" xlink:href="#t"/>
<use x="412.962211" y="32.45" xlink:href="#glyph-1-8"/>
<use x="414.712211" y="32.45" xlink:href="#e"/>
<use x="417.820211" y="32.45" xlink:href="#c"/>
<use x="420.123211" y="32.45" xlink:href="#a"/>
<use x="423.847045" y="32.45" xlink:href="#c"/>
<use x="426.150045" y="32.45" xlink:href="#ae"/>
<use x="430.224045" y="32.45" xlink:href="#e"/>
<use x="433.332045" y="32.45" xlink:href="#x"/>
<use x="390.68536" y="40.85" xlink:href="#a"/>
<use x="394.47936" y="40.85" xlink:href="#f"/>
<use x="398.55336" y="40.85" xlink:href="#h"/>
<use x="402.99836" y="40.85" xlink:href="#glyph-1-8"/>
<use x="404.74836" y="40.85" xlink:href="#ad"/>
<use x="407.947088" y="40.85" xlink:href="#z"/>
<use x="412.441088" y="40.85" xlink:href="#s"/>
<use x="416.648088" y="40.85" xlink:href="#m"/>
</g>
<path d="m535 63.25h-74.75v-63h74.75v63" fill="#fef0ca"/>
<g clip-path="url(#ci)">
<path transform="matrix(.1 0 0 -.1 0 398)" d="m5350 3348h-747.5v630h747.5z" fill="none" stroke="#231f1f" stroke-width="5"/>
</g>
<g fill="#231f1f">
<use x="486.783" y="12.65" xlink:href="#ap"/>
<use x="490.87791" y="12.65" xlink:href="#ao"/>
<use x="493.48191" y="12.65" xlink:href="#an"/>
<use x="497.65391" y="12.65" xlink:href="#am"/>
<use x="502.25291" y="12.65" xlink:href="#glyph-0-4"/>
<use x="504.00291" y="12.65" xlink:href="#ch"/>
<use x="474.3787" y="24.05" xlink:href="#ab"/>
<use x="478.592764" y="24.05" xlink:href="#b"/>
<use x="482.603764" y="24.05" xlink:href="#ai"/>
<use x="484.773764" y="24.05" xlink:href="#b"/>
<use x="488.784764" y="24.05" xlink:href="#g"/>
<use x="491.318764" y="24.05" xlink:href="#g"/>
<use x="493.761895" y="24.05" xlink:href="#a"/>
<use x="497.555895" y="24.05" xlink:href="#k"/>
<use x="499.375895" y="24.05" xlink:href="#glyph-1-8"/>
<use x="501.125895" y="24.05" xlink:href="#ai"/>
<use x="503.295895" y="24.05" xlink:href="#i"/>
<use x="507.565895" y="24.05" xlink:href="#g"/>
<use x="510.099895" y="24.05" xlink:href="#glyph-1-8"/>
<use x="511.849895" y="24.05" xlink:href="#v"/>
<use x="516.952895" y="24.05" xlink:href="#m"/>
<use x="470.44589" y="32.45" xlink:href="#e"/>
<use x="473.55389" y="32.45" xlink:href="#p"/>
<use x="477.99189" y="32.45" xlink:href="#b"/>
<use x="482.00289" y="32.45" xlink:href="#l"/>
<use x="485.46089" y="32.45" xlink:href="#d"/>
<use x="487.27389" y="32.45" xlink:href="#a"/>
<use x="491.06789" y="32.45" xlink:href="#k"/>
<use x="492.88789" y="32.45" xlink:href="#c"/>
<use x="495.19089" y="32.45" xlink:href="#ac"/>
<use x="498.71889" y="32.45" xlink:href="#glyph-1-8"/>
<use x="500.46889" y="32.45" xlink:href="#l"/>
<use x="503.92689" y="32.45" xlink:href="#a"/>
<use x="507.72089" y="32.45" xlink:href="#g"/>
<use x="510.127937" y="32.45" xlink:href="#b"/>
<use x="514.138937" y="32.45" xlink:href="#glyph-1-8"/>
<use x="515.888937" y="32.45" xlink:href="#ai"/>
<use x="518.058937" y="32.45" xlink:href="#i"/>
<use x="522.328937" y="32.45" xlink:href="#g"/>
<use x="468.19198" y="40.85" xlink:href="#a"/>
<use x="471.98598" y="40.85" xlink:href="#h"/>
<use x="476.43098" y="40.85" xlink:href="#h"/>
<use x="480.87598" y="40.85" xlink:href="#d"/>
<use x="482.68898" y="40.85" xlink:href="#c"/>
<use x="484.99198" y="40.85" xlink:href="#d"/>
<use x="486.80498" y="40.85" xlink:href="#i"/>
<use x="491.07498" y="40.85" xlink:href="#f"/>
<use x="495.14898" y="40.85" xlink:href="#a"/>
<use x="498.94298" y="40.85" xlink:href="#k"/>
<use x="500.76298" y="40.85" xlink:href="#glyph-1-8"/>
<use x="502.51298" y="40.85" xlink:href="#c"/>
<use x="504.81598" y="40.85" xlink:href="#t"/>
<use x="508.90398" y="40.85" xlink:href="#b"/>
<use x="512.91498" y="40.85" xlink:href="#g"/>
<use x="515.356841" y="40.85" xlink:href="#a"/>
<use x="519.150841" y="40.85" xlink:href="#p"/>
<use x="523.588841" y="40.85" xlink:href="#ac"/>
<use x="74.83798" y="379.671" xlink:href="#w"/>
<use x="79.709971" y="379.671" xlink:href="#i"/>
<use x="83.979971" y="379.671" xlink:href="#f"/>
<use x="88.053971" y="379.671" xlink:href="#c"/>
<use x="90.356971" y="379.671" xlink:href="#d"/>
<use x="92.169971" y="379.671" xlink:href="#f"/>
<use x="96.243971" y="379.671" xlink:href="#ae"/>
<use x="100.317971" y="379.671" xlink:href="#b"/>
<use x="104.328971" y="379.671" xlink:href="#glyph-1-8"/>
<use x="106.078971" y="379.671" xlink:href="#ay"/>
<use x="111.524971" y="379.671" xlink:href="#ah"/>
<use x="116.851971" y="379.671" xlink:href="#av"/>
<use x="123.172971" y="379.671" xlink:href="#al"/>
<use x="126.987971" y="379.671" xlink:href="#glyph-1-8"/>
<use x="128.737971" y="379.671" xlink:href="#bh"/>
<use x="134.148971" y="379.671" xlink:href="#d"/>
<use x="135.961971" y="379.671" xlink:href="#c"/>
<use x="138.264971" y="379.671" xlink:href="#t"/>
<use x="142.352971" y="379.671" xlink:href="#glyph-1-8"/>
<use x="144.102971" y="379.671" xlink:href="#e"/>
<use x="147.210971" y="379.671" xlink:href="#b"/>
<use x="151.221971" y="379.671" xlink:href="#g"/>
<use x="153.755971" y="379.671" xlink:href="#d"/>
<use x="155.568971" y="379.671" xlink:href="#a"/>
<use x="159.362971" y="379.671" xlink:href="#k"/>
<use x="161.182971" y="379.671" xlink:href="#glyph-1-8"/>
<use x="162.932971" y="379.671" xlink:href="#g"/>
<use x="165.341043" y="379.671" xlink:href="#b"/>
<use x="169.310051" y="379.671" xlink:href="#a"/>
<use x="173.104051" y="379.671" xlink:href="#e"/>
<use x="176.212051" y="379.671" xlink:href="#e"/>
<use x="179.320051" y="379.671" xlink:href="#b"/>
<use x="183.331051" y="379.671" xlink:href="#e"/>
<use x="186.439051" y="379.671" xlink:href="#e"/>
<use x="189.547051" y="379.671" xlink:href="#r"/>
<use x="195.756051" y="379.671" xlink:href="#b"/>
<use x="199.767051" y="379.671" xlink:href="#f"/>
<use x="203.841051" y="379.671" xlink:href="#c"/>
<use x="206.144051" y="379.671" xlink:href="#glyph-1-8"/>
<use x="207.894051" y="379.671" xlink:href="#a"/>
<use x="211.688051" y="379.671" xlink:href="#f"/>
<use x="215.762051" y="379.671" xlink:href="#h"/>
<use x="220.207051" y="379.671" xlink:href="#glyph-1-8"/>
<use x="221.957051" y="379.671" xlink:href="#i"/>
<use x="226.227051" y="379.671" xlink:href="#p"/>
<use x="230.665051" y="379.671" xlink:href="#c"/>
<use x="232.968051" y="379.671" xlink:href="#d"/>
<use x="234.781051" y="379.671" xlink:href="#r"/>
<use x="240.990051" y="379.671" xlink:href="#d"/>
<use x="242.803051" y="379.671" xlink:href="#by"/>
<use x="246.037051" y="379.671" xlink:href="#b"/>
<use x="250.048051" y="379.671" xlink:href="#glyph-1-8"/>
<use x="251.798051" y="379.671" xlink:href="#h"/>
<use x="256.243051" y="379.671" xlink:href="#i"/>
<use x="260.513051" y="379.671" xlink:href="#e"/>
<use x="263.621051" y="379.671" xlink:href="#d"/>
<use x="265.434051" y="379.671" xlink:href="#f"/>
<use x="269.508051" y="379.671" xlink:href="#y"/>
<use x="273.932051" y="379.671" xlink:href="#x"/>
<use x="275.542066" y="379.671" xlink:href="#glyph-1-8"/>
<use x="277.292066" y="379.671" xlink:href="#a"/>
<use x="281.086066" y="379.671" xlink:href="#h"/>
<use x="285.531066" y="379.671" xlink:href="#t"/>
<use x="289.619066" y="379.671" xlink:href="#b"/>
<use x="293.630066" y="379.671" xlink:href="#g"/>
<use x="296.038138" y="379.671" xlink:href="#b"/>
<use x="300.049138" y="379.671" xlink:href="#f"/>
<use x="304.123138" y="379.671" xlink:href="#l"/>
<use x="307.581138" y="379.671" xlink:href="#b"/>
<use x="311.592138" y="379.671" xlink:href="#glyph-1-8"/>
<use x="313.342138" y="379.671" xlink:href="#a"/>
<use x="317.136138" y="379.671" xlink:href="#f"/>
<use x="321.210138" y="379.671" xlink:href="#h"/>
<use x="325.655138" y="379.671" xlink:href="#glyph-1-8"/>
<use x="327.405138" y="379.671" xlink:href="#p"/>
<use x="331.843138" y="379.671" xlink:href="#a"/>
<use x="335.567118" y="379.671" xlink:href="#c"/>
<use x="337.870118" y="379.671" xlink:href="#d"/>
<use x="339.683118" y="379.671" xlink:href="#b"/>
<use x="343.694118" y="379.671" xlink:href="#f"/>
<use x="347.768118" y="379.671" xlink:href="#c"/>
<use x="350.071118" y="379.671" xlink:href="#glyph-1-8"/>
<use x="351.821118" y="379.671" xlink:href="#b"/>
<use x="355.832118" y="379.671" xlink:href="#h"/>
<use x="360.277118" y="379.671" xlink:href="#ae"/>
<use x="364.351118" y="379.671" xlink:href="#l"/>
<use x="367.809118" y="379.671" xlink:href="#a"/>
<use x="371.533118" y="379.671" xlink:href="#c"/>
<use x="373.836118" y="379.671" xlink:href="#d"/>
<use x="375.649118" y="379.671" xlink:href="#i"/>
<use x="379.919118" y="379.671" xlink:href="#f"/>
<use x="383.993118" y="379.671" xlink:href="#x"/>
<use x="385.603108" y="379.671" xlink:href="#glyph-1-8"/>
<use x="387.353108" y="379.671" xlink:href="#a"/>
<use x="391.147108" y="379.671" xlink:href="#h"/>
<use x="395.592108" y="379.671" xlink:href="#h"/>
<use x="400.037108" y="379.671" xlink:href="#g"/>
<use x="402.44518" y="379.671" xlink:href="#b"/>
<use x="406.45618" y="379.671" xlink:href="#e"/>
<use x="409.56418" y="379.671" xlink:href="#e"/>
<use x="412.67218" y="379.671" xlink:href="#glyph-1-8"/>
<use x="414.42218" y="379.671" xlink:href="#y"/>
<use x="418.84618" y="379.671" xlink:href="#i"/>
<use x="423.11618" y="379.671" xlink:href="#a"/>
<use x="426.91018" y="379.671" xlink:href="#k"/>
<use x="428.73018" y="379.671" xlink:href="#e"/>
<use x="431.83818" y="379.671" xlink:href="#glyph-1-8"/>
<use x="433.58818" y="379.671" xlink:href="#i"/>
<use x="437.85818" y="379.671" xlink:href="#ai"/>
<use x="440.196052" y="379.671" xlink:href="#glyph-1-8"/>
<use x="441.946052" y="379.671" xlink:href="#l"/>
<use x="445.404052" y="379.671" xlink:href="#a"/>
<use x="449.198052" y="379.671" xlink:href="#g"/>
<use x="451.606075" y="379.671" xlink:href="#b"/>
</g>
<path transform="matrix(.1 0 0 -.1 0 398)" d="m635 2958h115v-2345h-115" fill="none" stroke="#231f1f" stroke-width="5"/>
<path transform="matrix(.1 0 0 -.1 0 398)" d="m4116 1730v-1399" fill="none" stroke="#231f1f" stroke-width="5"/>
<path d="m411.6 368.5c-0.6328-1.703-1.711-3.816-2.855-5.125l2.855 1.031 2.852-1.031c-1.141 1.309-2.219 3.422-2.852 5.125" fill="#231f1f"/>
<path transform="matrix(.1 0 0 -.1 0 398)" d="m1354 1295v-954.4" fill="none" stroke="#231f1f" stroke-width="5"/>
<path d="m135.4 367.6c-0.6328-1.703-1.711-3.816-2.855-5.129l2.855 1.035 2.852-1.035c-1.145 1.312-2.223 3.426-2.852 5.129" fill="#231f1f"/>
<path transform="matrix(.1 0 0 -.1 0 398)" d="m750 1757h110.2" fill="none" stroke="#231f1f" stroke-width="5"/>
<path transform="matrix(.1 0 0 -.1 0 398)" d="m639.8 2478h110.2" fill="none" stroke="#231f1f" stroke-width="5"/>
<path transform="matrix(.1 0 0 -.1 0 398)" d="m639.8 1986h110.2" fill="none" stroke="#231f1f" stroke-width="5"/>
<path transform="matrix(.1 0 0 -.1 0 398)" d="m639.8 1521h110.2" fill="none" stroke="#231f1f" stroke-width="5"/>
<path transform="matrix(.1 0 0 -.1 0 398)" d="m639.8 1070h110.2" fill="none" stroke="#231f1f" stroke-width="5"/>
<path transform="matrix(.1 0 0 -.1 0 398)" d="m978.9 1498h-120v513.4h120" fill="none" stroke="#231f1f" stroke-width="5"/>
<path d="m101.5 196.9c-1.707 0.6328-3.82 1.711-5.129 2.855l1.031-2.855-1.031-2.852c1.309 1.141 3.422 2.219 5.129 2.852" fill="#231f1f"/>
<path d="m101.5 248.3c-1.707 0.6289-3.82 1.707-5.129 2.852l1.031-2.852-1.031-2.855c1.309 1.141 3.422 2.223 5.129 2.855" fill="#231f1f"/>
<path transform="matrix(.1 0 0 -.1 0 398)" d="m3395 2972h110v-1567h-110" fill="none" stroke="#231f1f" stroke-width="5"/>
<path transform="matrix(.1 0 0 -.1 0 398)" d="m3505 2191h110.2" fill="none" stroke="#231f1f" stroke-width="5"/>
<path transform="matrix(.1 0 0 -.1 0 398)" d="m3395 2448h110.2" fill="none" stroke="#231f1f" stroke-width="5"/>
<path transform="matrix(.1 0 0 -.1 0 398)" d="m3395 1934h110.2" fill="none" stroke="#231f1f" stroke-width="5"/>
<path transform="matrix(.1 0 0 -.1 0 398)" d="m3734 1932h-120v517.1h120" fill="none" stroke="#231f1f" stroke-width="5"/>
<path d="m377 153.1c-1.703 0.6328-3.82 1.711-5.129 2.852l1.031-2.852-1.031-2.855c1.309 1.145 3.426 2.223 5.129 2.855" fill="#231f1f"/>
<path d="m377 204.8c-1.703 0.6328-3.82 1.711-5.129 2.852l1.031-2.852-1.031-2.852c1.309 1.141 3.426 2.219 5.129 2.852" fill="#231f1f"/>
<path transform="matrix(.1 0 0 -.1 0 398)" d="m1670 2013h110.2" fill="none" stroke="#231f1f" stroke-width="5"/>
<path transform="matrix(.1 0 0 -.1 0 398)" d="m1899 1903h-120v1060h120" fill="none" stroke="#231f1f" stroke-width="5"/>
<path d="m193.5 101.7c-1.703 0.6328-3.82 1.711-5.129 2.855l1.031-2.855-1.031-2.852c1.309 1.141 3.426 2.219 5.129 2.852" fill="#231f1f"/>
<path d="m193.5 207.8c-1.703 0.6289-3.82 1.711-5.129 2.852l1.031-2.852-1.031-2.855c1.309 1.141 3.426 2.223 5.129 2.855" fill="#231f1f"/>
<path transform="matrix(.1 0 0 -.1 0 398)" d="m1780 2449h115" fill="none" stroke="#231f1f" stroke-width="5"/>
<path d="m193.1 153.1c-1.707 0.6328-3.82 1.711-5.129 2.852l1.031-2.852-1.031-2.852c1.309 1.141 3.422 2.219 5.129 2.852" fill="#231f1f"/>
<path transform="matrix(.1 0 0 -.1 0 398)" d="m4433 2475h110.2" fill="none" stroke="#231f1f" stroke-width="5"/>
<path transform="matrix(.1 0 0 -.1 0 398)" d="m4662 1396h-120v1574h120" fill="none" stroke="#231f1f" stroke-width="5"/>
<path d="m469.8 101.1c-1.707 0.6328-3.82 1.711-5.129 2.852l1.031-2.852-1.031-2.855c1.309 1.145 3.422 2.223 5.129 2.855" fill="#231f1f"/>
<path d="m469.8 258.5c-1.707 0.6328-3.82 1.711-5.129 2.852l1.031-2.852-1.031-2.855c1.309 1.145 3.422 2.223 5.129 2.855" fill="#231f1f"/>
<path transform="matrix(.1 0 0 -.1 0 398)" d="m4542 2440h115" fill="none" stroke="#231f1f" stroke-width="5"/>
<path d="m469.4 154c-1.707 0.6328-3.82 1.711-5.129 2.852l1.031-2.852-1.031-2.852c1.309 1.141 3.422 2.219 5.129 2.852" fill="#231f1f"/>
<path transform="matrix(.1 0 0 -.1 0 398)" d="m4542 1911h115" fill="none" stroke="#231f1f" stroke-width="5"/>
<path d="m469.4 207c-1.707 0.6328-3.82 1.711-5.129 2.855l1.031-2.855-1.031-2.852c1.309 1.141 3.422 2.223 5.129 2.852" fill="#231f1f"/>
<path transform="matrix(.1 0 0 -.1 0 398)" d="m2595 2449h115" fill="none" stroke="#231f1f" stroke-width="5"/>
<path d="m274.6 153.1c-1.707 0.6328-3.82 1.711-5.129 2.852l1.031-2.852-1.031-2.852c1.309 1.141 3.422 2.219 5.129 2.852" fill="#231f1f"/>
<path transform="matrix(.1 0 0 -.1 0 398)" d="m2595 2967h115" fill="none" stroke="#231f1f" stroke-width="5"/>
<path d="m274.6 101.4c-1.707 0.6328-3.82 1.711-5.129 2.855l1.031-2.855-1.031-2.852c1.309 1.141 3.422 2.219 5.129 2.852" fill="#231f1f"/>
<path transform="matrix(.1 0 0 -.1 0 398)" d="m2595 1903h115" fill="none" stroke="#231f1f" stroke-width="5"/>
<path d="m274.6 207.8c-1.707 0.6289-3.82 1.707-5.129 2.852l1.031-2.852-1.031-2.855c1.309 1.141 3.422 2.223 5.129 2.855" fill="#231f1f"/>
</svg>
