<?xml version="1.0" encoding="UTF-8"?>
<svg viewBox="0 0 495 428" xmlns="http://www.w3.org/2000/svg" xmlns:xlink="http://www.w3.org/1999/xlink">
<defs>
<g id="z">
<path d="m7.297-9.094c-0.7656-0.7188-1.891-1.062-2.891-1.062-1.781 0-3.625 0.8906-3.625 2.906 0 1.844 1.312 2.438 2.516 2.812 1.234 0.3906 2.281 0.6875 2.281 1.719 0 1.062-0.9688 1.469-1.797 1.469-0.7812 0-1.688-0.4219-2.172-1.094l-1.266 1.188c0.7969 0.9219 2.125 1.406 3.406 1.406 1.953 0 3.609-1.031 3.609-3.156 0-1.953-1.625-2.516-2.891-2.906-1.125-0.3438-1.891-0.6094-1.891-1.531 0-0.9531 0.9375-1.344 1.75-1.344 0.7031 0 1.438 0.3594 1.812 0.8438z"/>
</g>
<g id="o">
<path d="m1.094 0h1.766v-4.203h1.281l2.297 4.203h2.125l-2.641-4.391c1.391-0.3125 2.266-1.25 2.266-2.672 0-2.109-1.797-2.844-3.656-2.844h-3.438zm1.766-5.641v-2.781h1.594c0.9062 0 1.969 0.2656 1.969 1.344 0 1.203-1.125 1.438-2.125 1.438z"/>
</g>
<g id="a">
<path d="m5.781-5.891c-0.5469-0.6875-1.547-1.031-2.516-1.031-1.328 0-2.672 0.6562-2.672 2.141 0 1.266 0.9844 1.672 1.984 1.906 1.016 0.25 1.531 0.4062 1.531 0.9688 0 0.6094-0.5781 0.7969-1.078 0.7969-0.7188 0-1.344-0.3594-1.719-0.8438l-1.109 1.047c0.6562 0.7031 1.734 1.109 2.766 1.109 1.469 0 2.797-0.6094 2.797-2.25 0-1.312-1.172-1.766-2.172-2-0.9375-0.2188-1.453-0.3594-1.453-0.875 0-0.5312 0.5469-0.7344 1.078-0.7344 0.625 0 1.172 0.3438 1.469 0.7344z"/>
</g>
<g id="c">
<path d="m5.188 0h1.562v-4.094c0-1.344-0.5938-2.828-3-2.828-1.016 0-2.078 0.375-2.844 1.062l0.875 1.031c0.4375-0.4375 1.109-0.7656 1.828-0.7656 0.8438 0 1.547 0.4062 1.547 1.219v0.1719c-2.109 0-4.625 0.2812-4.625 2.281 0 1.578 1.438 2.094 2.516 2.094 0.9531 0 1.75-0.4375 2.094-1.031h0.04688zm-0.03125-2.828c0 1.062-0.625 1.719-1.766 1.719-0.5781 0-1.172-0.1875-1.172-0.8438 0-0.9844 1.484-1.109 2.562-1.109h0.375z"/>
</g>
<g id="h">
<path d="m1.016 0h1.672v-3.703c0-0.8906 0.5-1.812 1.562-1.812 1.078 0 1.266 1 1.266 1.797v3.719h1.688v-4.203c0-1.375-0.7344-2.719-2.484-2.719-1 0-1.797 0.6094-2.094 1.281h-0.01562v-1.078h-1.594z"/>
</g>
<g id="g">
<path d="m7.844-10.58h-1.688v4.719h-0.03125c-0.3594-0.4375-1.031-1.062-2.266-1.062-1.906 0-3.25 1.547-3.25 3.531 0 1.969 1.25 3.594 3.297 3.594 0.9375 0 1.844-0.4375 2.312-1.219h0.03125v1.016h1.594zm-5.531 7.188c0-1.047 0.625-2.156 1.922-2.156 1.234 0 1.984 1.141 1.984 2.188s-0.75 2.156-1.984 2.156c-1.297 0-1.922-1.141-1.922-2.188z"/>
</g>
<g id="r">
<path d="m1.094 0h1.672v-7.969h0.03125l2.969 7.969h1.234l3.016-7.969h0.01562v7.969h1.75v-9.906h-2.766l-2.547 7.031h-0.04688l-2.578-7.031h-2.75z"/>
</g>
<g id="q">
<path d="m-0.1094 0h1.969l0.9062-2.266h4.297l0.9219 2.266h2.016l-4.281-9.906h-1.516zm3.469-3.781 1.547-4.031 1.531 4.031z"/>
</g>
<g id="j">
<path d="m9.594-8.656c-0.7812-1.031-2.312-1.5-3.609-1.5-3.047 0-5.375 2-5.375 5.172 0 3.094 2.203 5.234 5.297 5.234 1.688 0 2.969-0.6406 3.844-1.734l-1.422-1c-0.5 0.6875-1.344 1.156-2.406 1.156-2.047 0-3.359-1.5-3.359-3.656 0-2.047 1.391-3.625 3.422-3.625 0.8125 0 1.75 0.3125 2.266 1.016z"/>
</g>
<g id="p">
<path d="m3.094 0h1.766v-8.375h3.031v-1.531h-7.828v1.531h3.031z"/>
</g>
<g id="y">
<path d="m0.6094-4.984c0 3.094 2.266 5.234 5.312 5.234 3.094 0 5.344-2.141 5.344-5.234 0-3.172-2.25-5.172-5.344-5.172-3.047 0-5.312 2-5.312 5.172zm1.922 0c0-2.047 1.359-3.625 3.406-3.625 2.062 0 3.422 1.578 3.422 3.625 0 2.109-1.391 3.656-3.422 3.656-2.016 0-3.406-1.547-3.406-3.656z"/>
</g>
<g id="x">
<path d="m1.031-10.58v10.58h1.594v-1.016h0.03125c0.4688 0.7812 1.375 1.219 2.312 1.219 2.047 0 3.312-1.625 3.312-3.594 0-1.984-1.344-3.531-3.266-3.531-1.234 0-1.906 0.625-2.25 1.062h-0.04688v-4.719zm5.531 7.188c0 1.047-0.625 2.188-1.922 2.188-1.234 0-1.984-1.109-1.984-2.156s0.75-2.188 1.984-2.188c1.297 0 1.922 1.109 1.922 2.156z"/>
</g>
<g id="b">
<path d="m2.297-4.031c0.0625-0.9375 0.8594-1.625 1.859-1.625 1.094 0 1.578 0.75 1.578 1.625zm5.125 0.75c0-2.422-1.375-3.641-3.25-3.641-2.031 0-3.562 1.438-3.562 3.609s1.547 3.516 3.625 3.516c1.266 0 2.219-0.4531 2.875-1.344l-1.125-0.9062c-0.375 0.5312-0.9375 0.875-1.766 0.875-0.9844 0-1.859-0.7031-1.922-1.656h5.109c0.01562-0.1562 0.01562-0.2969 0.01562-0.4531z"/>
</g>
<g id="i">
<path d="m1.016 0h1.672v-3.594c0-0.5 0.2969-1.812 1.812-1.812 0.1406 0 0.2812 0.01562 0.5156 0.07812v-1.547c-0.1094-0.03125-0.2812-0.04688-0.4062-0.04688-0.8906 0-1.594 0.5469-1.969 1.328h-0.01562v-1.125h-1.609z"/>
</g>
<g id="w">
<path d="m2.719 0h1.797l2.672-6.719h-1.781l-1.781 4.906h-0.03125l-1.766-4.906h-1.828z"/>
</g>
<g id="e">
<path d="m1.219-5.375v3.141c0 1.281 0.4062 2.375 2.188 2.375 0.375 0 0.8281-0.07812 1.109-0.1875l-0.04688-1.312c-0.2031 0.09375-0.5 0.1406-0.7188 0.1406-0.7344 0-0.875-0.4375-0.875-1.031v-3.125h1.672v-1.344h-1.672v-1.953h-1.656v1.953h-1.172v1.344z"/>
</g>
<g id="f">
<path d="m1.031 0h1.688v-6.719h-1.688zm-0.2344-9c0 0.5312 0.4531 1 1.062 1 0.625 0 1.094-0.4219 1.094-1s-0.4688-1.016-1.094-1.016c-0.6094 0-1.062 0.4844-1.062 1.016z"/>
</g>
<g id="d">
<path d="m0.6094-3.391c0 2.109 1.625 3.594 3.656 3.594s3.656-1.484 3.656-3.594-1.625-3.531-3.656-3.531-3.656 1.422-3.656 3.531zm1.719 0c0-1.047 0.6094-2.156 1.938-2.156s1.953 1.109 1.953 2.156-0.625 2.188-1.953 2.188-1.938-1.141-1.938-2.188z"/>
</g>
<g id="m">
<path d="m1.031 0h1.688v-10.58h-1.688z"/>
</g>
<g id="v">
<path d="m4.75-6.922c-1 0-1.734 0.5781-2 1.141h-0.03125v-4.797h-1.688v10.58h1.688v-3.672c0-0.8906 0.5156-1.797 1.578-1.797 1.078 0 1.25 0.9688 1.25 1.766v3.703h1.672v-4.203c0-1.375-0.7188-2.719-2.469-2.719z"/>
</g>
<g id="l">
<path d="m7.141-6.719h-1.688v3.688c0 0.9062-0.5 1.828-1.562 1.828-1.078 0-1.266-1-1.266-1.797v-3.719h-1.672v4.203c0 1.375 0.7344 2.719 2.484 2.719 0.9844 0 1.781-0.6094 2.078-1.281h0.03125v1.078h1.594z"/>
</g>
<g id="u">
<path d="m3.922-4.156h-3.359v1.422h3.359z"/>
</g>
<g id="n">
<path d="m6.75-5.859c-0.5312-0.6719-1.562-1.062-2.531-1.062-1.984 0-3.609 1.375-3.609 3.562 0 2.234 1.656 3.562 3.641 3.562 1 0 1.922-0.3438 2.484-0.9375l-1.047-1.078c-0.3281 0.4062-0.9062 0.6094-1.422 0.6094-1.266 0-1.906-1.109-1.906-2.156s0.625-2.156 1.859-2.156c0.5469 0 1.109 0.2812 1.375 0.6562z"/>
</g>
<g id="k">
<path d="m1.016-6.719v10.08h1.672v-4.25h0.03125c0.4375 0.6719 1.281 1.094 2.219 1.094 2.047 0 3.312-1.625 3.312-3.594 0-1.984-1.344-3.531-3.266-3.531-1.234 0-1.984 0.6094-2.328 1.141h-0.03125v-0.9375zm5.516 3.328c0 1.047-0.625 2.188-1.922 2.188-1.234 0-1.984-1.109-1.984-2.156s0.75-2.188 1.984-2.188c1.297 0 1.922 1.109 1.922 2.156z"/>
</g>
<g id="t">
<path d="m1.094 0h6.812v-1.562h-5.047v-2.812h4.547v-1.484h-4.547v-2.516h4.797v-1.531h-6.562z"/>
</g>
<g id="s">
<path d="m-0.01562 0h1.984l1.766-2.453 1.75 2.453h2.047l-2.75-3.562 2.422-3.156h-1.938l-1.5 2.078-1.453-2.078h-2.016l2.422 3.156z"/>
</g>
</defs>
<rect x="-49.5" y="-42.8" width="594" height="513.6" fill="#fff"/>
<path d="m298.4 179.2h-157.7l-20.41 34.46h198.1l-20-34.46" fill="#63c9ae"/>
<path d="m279.1 146h-118.8l-17.9 30.22h154.2l-17.54-30.22" fill="#63c2d0"/>
<path d="m259.3 111.8-38.94-67.08-58.21 98.27h115.2l-18.1-31.19" fill="#6497d6"/>
<path d="m320.1 216.7h-201.7l-26.88 45.37h254.9l-26.34-45.37" fill="#59c47d"/>
<path d="m369.7 302h-301.8l-21.12 35.66h343.6l-20.7-35.66" fill="#4bbc3a"/>
<path d="m348.2 265h-258.4l-20.15 34.01h298.3l-19.75-34.01" fill="#4fbf58"/>
<g fill="#231f1f">
<use x="208.454" y="95.568" xlink:href="#z"/>
<use x="216.49" y="95.568" xlink:href="#o"/>
<use x="225.296" y="95.568" xlink:href="#a"/>
<use x="207.621187" y="110.568" xlink:href="#c"/>
<use x="215.321187" y="110.568" xlink:href="#h"/>
<use x="223.46865" y="110.568" xlink:href="#g"/>
<use x="205.493067" y="125.568" xlink:href="#r"/>
<use x="218.373067" y="125.568" xlink:href="#q"/>
<use x="228.257067" y="125.568" xlink:href="#a"/>
<use x="203.544237" y="166.2602" xlink:href="#o"/>
<use x="212.350237" y="166.2602" xlink:href="#j"/>
<use x="222.010399" y="166.2602" xlink:href="#p"/>
<use x="228.618795" y="166.2602" xlink:href="#a"/>
<use x="372.729237" y="227.2442" xlink:href="#y"/>
<use x="384.615237" y="227.2442" xlink:href="#x"/>
<use x="393.505237" y="227.2442" xlink:href="#a"/>
<use x="399.721237" y="227.2442" xlink:href="#b"/>
<use x="407.757237" y="227.2442" xlink:href="#i"/>
<use x="412.853237" y="227.2442" xlink:href="#w"/>
<use x="420.035237" y="227.2442" xlink:href="#c"/>
<use x="427.595784" y="227.2442" xlink:href="#e"/>
<use x="432.355784" y="227.2442" xlink:href="#f"/>
<use x="436.107784" y="227.2442" xlink:href="#d"/>
<use x="444.647784" y="227.2442" xlink:href="#h"/>
<use x="452.795247" y="227.2442" xlink:href="#c"/>
<use x="460.495247" y="227.2442" xlink:href="#m"/>
<use x="172.374237" y="201.5981" xlink:href="#j"/>
<use x="181.950415" y="201.5981" xlink:href="#d"/>
<use x="190.490415" y="201.5981" xlink:href="#v"/>
<use x="198.666415" y="201.5981" xlink:href="#d"/>
<use x="207.206415" y="201.5981" xlink:href="#i"/>
<use x="212.134153" y="201.5981" xlink:href="#e"/>
<use x="216.894153" y="201.5981" xlink:href="#glyph-0-20"/>
<use x="220.394153" y="201.5981" xlink:href="#a"/>
<use x="226.610153" y="201.5981" xlink:href="#e"/>
<use x="231.370153" y="201.5981" xlink:href="#l"/>
<use x="239.517616" y="201.5981" xlink:href="#g"/>
<use x="248.393616" y="201.5981" xlink:href="#f"/>
<use x="252.145616" y="201.5981" xlink:href="#b"/>
<use x="260.181616" y="201.5981" xlink:href="#a"/>
<use x="153.158637" y="242.9829" xlink:href="#j"/>
<use x="162.65083" y="242.9829" xlink:href="#c"/>
<use x="170.35083" y="242.9829" xlink:href="#a"/>
<use x="176.56683" y="242.9829" xlink:href="#b"/>
<use x="184.60283" y="242.9829" xlink:href="#u"/>
<use x="189.082318" y="242.9829" xlink:href="#n"/>
<use x="195.914318" y="242.9829" xlink:href="#d"/>
<use x="204.454318" y="242.9829" xlink:href="#h"/>
<use x="212.60178" y="242.9829" xlink:href="#e"/>
<use x="217.36178" y="242.9829" xlink:href="#i"/>
<use x="222.205534" y="242.9829" xlink:href="#d"/>
<use x="230.745534" y="242.9829" xlink:href="#m"/>
<use x="234.497534" y="242.9829" xlink:href="#glyph-0-20"/>
<use x="237.997534" y="242.9829" xlink:href="#a"/>
<use x="244.213534" y="242.9829" xlink:href="#e"/>
<use x="248.973534" y="242.9829" xlink:href="#l"/>
<use x="257.120997" y="242.9829" xlink:href="#g"/>
<use x="265.996997" y="242.9829" xlink:href="#f"/>
<use x="269.748997" y="242.9829" xlink:href="#b"/>
<use x="277.784997" y="242.9829" xlink:href="#a"/>
<use x="122.289537" y="285.0852" xlink:href="#j"/>
<use x="131.78173" y="285.0852" xlink:href="#c"/>
<use x="139.48173" y="285.0852" xlink:href="#a"/>
<use x="145.69773" y="285.0852" xlink:href="#b"/>
<use x="153.73373" y="285.0852" xlink:href="#glyph-0-20"/>
<use x="157.23373" y="285.0852" xlink:href="#i"/>
<use x="162.077484" y="285.0852" xlink:href="#b"/>
<use x="170.113484" y="285.0852" xlink:href="#k"/>
<use x="178.975484" y="285.0852" xlink:href="#d"/>
<use x="187.515484" y="285.0852" xlink:href="#i"/>
<use x="192.443209" y="285.0852" xlink:href="#e"/>
<use x="197.203209" y="285.0852" xlink:href="#a"/>
<use x="203.419209" y="285.0852" xlink:href="#glyph-0-20"/>
<use x="206.919209" y="285.0852" xlink:href="#c"/>
<use x="214.619209" y="285.0852" xlink:href="#h"/>
<use x="222.766672" y="285.0852" xlink:href="#g"/>
<use x="231.642672" y="285.0852" xlink:href="#glyph-0-20"/>
<use x="235.142672" y="285.0852" xlink:href="#n"/>
<use x="241.974672" y="285.0852" xlink:href="#c"/>
<use x="249.674672" y="285.0852" xlink:href="#a"/>
<use x="255.890672" y="285.0852" xlink:href="#b"/>
<use x="263.926672" y="285.0852" xlink:href="#glyph-0-20"/>
<use x="267.426672" y="285.0852" xlink:href="#a"/>
<use x="273.642672" y="285.0852" xlink:href="#e"/>
<use x="278.402672" y="285.0852" xlink:href="#l"/>
<use x="286.550135" y="285.0852" xlink:href="#g"/>
<use x="295.426135" y="285.0852" xlink:href="#f"/>
<use x="299.178135" y="285.0852" xlink:href="#b"/>
<use x="307.214135" y="285.0852" xlink:href="#a"/>
<use x="124.766487" y="323.9739" xlink:href="#t"/>
<use x="133.306487" y="323.9739" xlink:href="#s"/>
<use x="140.824487" y="323.9739" xlink:href="#k"/>
<use x="149.686487" y="323.9739" xlink:href="#b"/>
<use x="157.722487" y="323.9739" xlink:href="#i"/>
<use x="162.650213" y="323.9739" xlink:href="#e"/>
<use x="167.410213" y="323.9739" xlink:href="#glyph-0-20"/>
<use x="170.910213" y="323.9739" xlink:href="#d"/>
<use x="179.450213" y="323.9739" xlink:href="#k"/>
<use x="188.312213" y="323.9739" xlink:href="#f"/>
<use x="192.064213" y="323.9739" xlink:href="#h"/>
<use x="200.211675" y="323.9739" xlink:href="#f"/>
<use x="203.963675" y="323.9739" xlink:href="#d"/>
<use x="212.503675" y="323.9739" xlink:href="#h"/>
<use x="220.651138" y="323.9739" xlink:href="#glyph-0-20"/>
<use x="224.151138" y="323.9739" xlink:href="#c"/>
<use x="231.851138" y="323.9739" xlink:href="#h"/>
<use x="239.998601" y="323.9739" xlink:href="#g"/>
<use x="248.874601" y="323.9739" xlink:href="#glyph-0-20"/>
<use x="252.374601" y="323.9739" xlink:href="#b"/>
<use x="260.410601" y="323.9739" xlink:href="#g"/>
<use x="269.286601" y="323.9739" xlink:href="#f"/>
<use x="273.038601" y="323.9739" xlink:href="#e"/>
<use x="277.798601" y="323.9739" xlink:href="#d"/>
<use x="286.338601" y="323.9739" xlink:href="#i"/>
<use x="291.434601" y="323.9739" xlink:href="#f"/>
<use x="295.186601" y="323.9739" xlink:href="#c"/>
<use x="302.886601" y="323.9739" xlink:href="#m"/>
<use x="306.638601" y="323.9739" xlink:href="#a"/>
</g>
<path d="m402.4 302h-21.24v-1.551h18.39l-73.74-123.7h-22.32v-1.551h23.26l0.2383 0.3867 75.41 126.5" fill="#166ec0"/>
</svg>
