<?xml version="1.0" encoding="UTF-8"?>
<svg viewBox="0 0 655.5 566" xmlns="http://www.w3.org/2000/svg" xmlns:xlink="http://www.w3.org/1999/xlink">
<defs>
<g id="v">
<path d="m0.6094 0h0.6875v-2.172h0.7812c1.031 0 1.812-0.4062 1.812-1.406 0-0.9688-0.7031-1.375-1.781-1.375h-1.5zm0.6875-4.375h0.75c0.6406 0 1.141 0.2031 1.141 0.7969s-0.4844 0.8125-1.156 0.8125h-0.7344z"/>
</g>
<g id="e">
<path d="m2.625-2.062c-1.109 0-2.297 0.125-2.297 1.125 0 0.7656 0.6719 1.016 1.203 1.016 0.4844 0 0.875-0.2031 1.109-0.5469h0.01562c0 0.1406 0.03125 0.3281 0.0625 0.4688h0.5938c-0.03125-0.1562-0.04688-0.4375-0.04688-0.6562v-1.453c0-0.7344-0.4375-1.297-1.391-1.297-0.5312 0-1.031 0.1875-1.359 0.5l0.3594 0.4219c0.2188-0.2344 0.5625-0.3906 0.9375-0.3906 0.4844 0 0.8125 0.2344 0.8125 0.7188zm0 0.4844v0.1719c0 0.5625-0.3438 0.9688-0.9531 0.9688-0.3281 0-0.6719-0.125-0.6719-0.5156 0-0.5625 0.8125-0.625 1.469-0.625z"/>
</g>
<g id="a">
<path d="m2.188-3.312h-0.875v-0.9531h-0.6562v0.9531h-0.6406v0.5312h0.6406v1.797c0 0.6875 0.3438 1.047 0.9688 1.047 0.2031 0 0.4062-0.04688 0.5625-0.09375l-0.03125-0.5469c-0.1094 0.0625-0.2656 0.09375-0.375 0.09375-0.3281 0-0.4688-0.1719-0.4688-0.5625v-1.734h0.875z"/>
</g>
<g id="b">
<path d="m1.234-3.312h-0.6562v3.312h0.6562zm0.1094-1.203c0-0.25-0.2031-0.4219-0.4375-0.4219s-0.4375 0.1875-0.4375 0.4219 0.2031 0.4219 0.4375 0.4219 0.4375-0.1875 0.4375-0.4219z"/>
</g>
<g id="c">
<path d="m1.016-1.953c0.04688-0.5156 0.4844-0.9375 1.047-0.9375 0.6094 0 0.9219 0.4062 0.9375 0.9375zm2.641 0.2656c0-1.062-0.6094-1.719-1.594-1.719-0.9688 0-1.719 0.7188-1.719 1.75 0 1.047 0.75 1.75 1.75 1.75 0.5938 0 1.078-0.2188 1.438-0.6875l-0.4688-0.3594c-0.1875 0.2812-0.5156 0.5-0.9688 0.5-0.5781 0-1.047-0.4375-1.078-1.016h2.641v-0.2188z"/>
</g>
<g id="i">
<path d="m0.5312-3.312c0.03125 0.2188 0.03125 0.5312 0.03125 0.7031v2.609h0.6562v-1.766c0-0.6562 0.375-1.094 0.8906-1.094 0.6094 0 0.7656 0.4844 0.7656 1.016v1.844h0.6562v-2.062c0-0.7344-0.3906-1.344-1.25-1.344-0.4688 0-0.9062 0.2812-1.062 0.6406h-0.03125c0-0.1406-0.01562-0.3906-0.03125-0.5469z"/>
</g>
<g id="f">
<path d="m2.812-2.859c-0.2344-0.3594-0.7344-0.5469-1.203-0.5469-0.625 0-1.25 0.2969-1.25 1.016 0 0.625 0.5156 0.8125 0.9688 0.9062 0.5625 0.1406 0.8594 0.25 0.8594 0.5625 0 0.3594-0.3281 0.4844-0.6562 0.4844-0.375 0-0.7031-0.2031-0.875-0.4688l-0.4688 0.4062c0.3125 0.3906 0.8281 0.5938 1.328 0.5938 0.6719 0 1.328-0.2969 1.328-1.078 0-0.5781-0.4844-0.8281-1.109-0.9688-0.5156-0.125-0.7656-0.2188-0.7656-0.5 0-0.3125 0.3125-0.4375 0.625-0.4375 0.3281 0 0.625 0.1719 0.7656 0.4062z"/>
</g>
<g id="x">
<path d="m0.09375-3.312 1.109 3.312h0.6875l0.8125-2.484h0.01562l0.8125 2.484h0.6875l1.094-3.312h-0.6875l-0.75 2.531h-0.01562l-0.7969-2.531h-0.7031l-0.7812 2.531h-0.01562l-0.75-2.531z"/>
</g>
<g id="m">
<path d="m1.234-2.812v-2.484h-0.6562v5.297h0.6562v-1.75c0-0.6719 0.375-1.094 0.9062-1.094 0.6094 0 0.75 0.4688 0.75 1.016v1.828h0.6562v-2.062c0-0.7344-0.3906-1.344-1.25-1.344-0.4688 0-0.8906 0.2656-1.047 0.5938z"/>
</g>
<g id="am">
<path d="m0.7969-3.312h-0.7344l1.422 3.312-0.2031 0.5469c-0.1406 0.3594-0.2812 0.5625-0.625 0.5625-0.1094 0-0.2188-0.03125-0.3281-0.0625l-0.0625 0.5781c0.1406 0.04688 0.2969 0.0625 0.4375 0.0625 0.6406 0 0.9219-0.3438 1.141-0.9062l1.609-4.094h-0.6875l-0.9219 2.594h-0.01562z"/>
</g>
<g id="aj">
<path d="m1.219-0.5h0.03125c0.2344 0.375 0.7031 0.5938 1.172 0.5938 1.016 0 1.672-0.7812 1.672-1.766 0-0.9688-0.6719-1.734-1.672-1.734-0.5312 0-0.9688 0.25-1.188 0.6094h-0.01562v-0.5156h-0.6562v5h0.6562zm2.188-1.172c0 0.625-0.375 1.203-1.109 1.203-0.6719 0-1.109-0.5469-1.109-1.188s0.4375-1.203 1.109-1.203c0.7344 0 1.109 0.5781 1.109 1.188z"/>
</g>
<g id="k">
<path d="m0.5625-2.609v2.609h0.6562v-1.75c0-0.5469 0.3125-1.062 0.9375-1.062 0.1094 0 0.2188 0.01562 0.2969 0.04688l0.03125-0.6094c-0.07812-0.03125-0.1719-0.03125-0.2656-0.03125-0.4375 0-0.8281 0.2656-1 0.6406h-0.03125c0-0.125-0.01562-0.3906-0.03125-0.5469h-0.625c0.03125 0.2188 0.03125 0.5312 0.03125 0.7031z"/>
</g>
<g id="n">
<path d="m3.922-1.672c0-1.016-0.7656-1.734-1.781-1.734s-1.797 0.7188-1.797 1.734c0 1.031 0.7812 1.766 1.797 1.766s1.781-0.7344 1.781-1.766zm-0.6875 0c0 0.6406-0.3906 1.203-1.094 1.203-0.7188 0-1.109-0.5625-1.109-1.203 0-0.625 0.3906-1.188 1.109-1.188 0.7031 0 1.094 0.5625 1.094 1.188z"/>
</g>
<g id="bc">
<path d="m1.297-4.953h-0.6875v4.953h2.891v-0.6094h-2.203z"/>
</g>
<g id="ai">
<path d="m0.75-4.953h-0.7656l1.938 4.953h0.6406l1.953-4.953h-0.75l-1.5 4.062h-0.01562z"/>
</g>
<g id="bb">
<path d="m1.297-2.266h2.344v-0.5938h-2.344v-1.484h2.484v-0.6094h-3.172v4.953h3.281v-0.6094h-2.594z"/>
</g>
<g id="ah">
<path d="m1.297-2.219h2.25v-0.5938h-2.25v-1.531h2.406v-0.6094h-3.094v4.953h0.6875z"/>
</g>
<g id="ba">
<path d="m4.125-0.9062v-0.625l-2.781-0.9375 2.781-0.9531v-0.625l-3.594 1.281v0.6094zm0 0.8438v-0.5781h-3.594v0.5781z"/>
</g>
<g id="az">
<path d="m3.156-4.953h-0.8281l-2.109 3.219v0.625h2.281v1.109h0.6562v-1.109h0.7188v-0.5781h-0.7188zm-0.6562 3.266h-1.578l1.562-2.484h0.01562z"/>
</g>
<g id="aq">
<path d="m2.094-5.078c-1.188 0-1.703 1.156-1.703 2.594 0 1.453 0.5156 2.609 1.703 2.609 1.172 0 1.672-1.156 1.672-2.609 0-1.438-0.5-2.594-1.672-2.594zm0 0.5625c0.7969 0 0.9844 1.203 0.9844 2.031 0 0.8438-0.1875 2.031-0.9844 2.031-0.8281 0-1.016-1.188-1.016-2.031 0-0.8281 0.1875-2.031 1.016-2.031z"/>
</g>
<g id="ay">
<path d="m3.328-1.156c0 0.6875 0.5469 1.234 1.234 1.234s1.234-0.5469 1.234-1.234-0.5469-1.234-1.234-1.234-1.234 0.5469-1.234 1.234zm1.891 0c0 0.3594-0.2969 0.6562-0.6562 0.6562s-0.6562-0.2969-0.6562-0.6562 0.2969-0.6562 0.6562-0.6562 0.6562 0.2969 0.6562 0.6562zm-4.938-2.641c0 0.6875 0.5625 1.234 1.25 1.234s1.234-0.5469 1.234-1.234-0.5469-1.25-1.234-1.25-1.25 0.5625-1.25 1.25zm1.906 0c0 0.3594-0.2969 0.6562-0.6562 0.6562-0.375 0-0.6562-0.2969-0.6562-0.6562 0-0.375 0.2812-0.6562 0.6562-0.6562 0.3594 0 0.6562 0.2812 0.6562 0.6562zm2.609-1.156-0.4688-0.2344-3.031 5.188 0.4688 0.2188z"/>
</g>
<g id="ad">
<path d="m3.359-2.859c-0.2656-0.3594-0.7656-0.5469-1.234-0.5469-1.016 0-1.781 0.7031-1.781 1.75s0.7656 1.75 1.797 1.75c0.5312 0 0.9531-0.2031 1.234-0.5156l-0.4375-0.4062c-0.1719 0.2188-0.4688 0.3594-0.7969 0.3594-0.7031 0-1.094-0.5625-1.094-1.188 0-0.6406 0.3906-1.203 1.078-1.203 0.3125 0 0.625 0.1719 0.7656 0.375z"/>
</g>
<g id="cp">
<path d="m1.688-4.953h-1.078v4.953h0.6719v-4.141l1.641 4.141h0.4375l1.656-4.141h0.01562v4.141h0.6875v-4.953h-1.078l-1.469 3.812h-0.01562z"/>
</g>
<g id="dy">
<path d="m1.297-4.953h-0.6875v4.953h0.6875z"/>
</g>
<g id="aa">
<path d="m3.219-0.5312h0.01562v0.5312h0.625v-5.297h-0.6562v2.469h-0.01562c-0.2188-0.3125-0.6406-0.5781-1.172-0.5781-1 0-1.672 0.7656-1.672 1.734 0 0.9844 0.6562 1.766 1.672 1.766 0.4688 0 0.9531-0.2188 1.203-0.625zm-2.188-1.141c0-0.6094 0.375-1.188 1.094-1.188 0.6719 0 1.125 0.5625 1.125 1.203s-0.4531 1.188-1.125 1.188c-0.7188 0-1.094-0.5781-1.094-1.203z"/>
</g>
<g id="dx">
<path d="m1.484-2.312h0.2188c0.5781 0 1.25 0.2188 1.25 0.9219 0 0.625-0.5 0.9375-1 0.9375-0.5156 0-0.8906-0.2969-1.047-0.7188l-0.625 0.2031c0.2656 0.75 0.9062 1.094 1.688 1.094 0.8438 0 1.656-0.5312 1.656-1.516 0-0.625-0.4219-1.094-1-1.203v-0.01562c0.5-0.1406 0.875-0.5781 0.875-1.125 0-0.875-0.7031-1.344-1.531-1.344-0.7031 0-1.266 0.3594-1.516 0.9531l0.625 0.2188c0.1406-0.375 0.4531-0.6094 0.8594-0.6094 0.4688 0 0.875 0.3281 0.875 0.8125 0 0.6406-0.5312 0.8281-1.109 0.8281h-0.2188z"/>
</g>
<g id="co">
<path d="m1.516-2.906c0-0.25-0.2031-0.4531-0.4688-0.4531s-0.4688 0.2188-0.4688 0.4688 0.2188 0.4531 0.4688 0.4531c0.2656 0 0.4688-0.2188 0.4688-0.4688zm-0.07812 2.094h-0.6562l-0.4844 1.75h0.5625z"/>
</g>
<g id="cn">
<path d="m0.5469-3.359 2.688 1.234-2.688 1.234v0.5938l3.562-1.609v-0.4219l-3.562-1.625z"/>
</g>
<g id="dw">
<path d="m2.656-4.953h-0.6094l-1.406 1.141 0.3906 0.4688 0.9375-0.7812v4.125h0.6875z"/>
</g>
<g id="cm">
<path d="m3.531 0c-0.03125-0.2188-0.03125-0.5312-0.03125-0.7188v-2.594h-0.6562v1.766c0 0.6562-0.3594 1.078-0.8906 1.078-0.6094 0-0.75-0.4688-0.75-1.016v-1.828h-0.6719v2.047c0 0.75 0.3906 1.359 1.25 1.359 0.4844 0 0.9062-0.2969 1.078-0.6406h0.01562c0 0.1406 0.01562 0.375 0.03125 0.5469z"/>
</g>
<g id="bq">
<path d="m3.453-3.312h-0.6875l-0.9844 2.609h-0.01562l-0.9688-2.609h-0.7344l1.344 3.312h0.7188z"/>
</g>
<g id="bp">
<path d="m1.234-5.297h-0.6562v5.297h0.6562z"/>
</g>
<g id="bo">
<path d="m1.219-2.766h-0.03125c0-0.1406-0.01562-0.3906-0.03125-0.5469h-0.625c0.03125 0.2188 0.03125 0.5312 0.03125 0.7031v2.609h0.6562v-1.766c0-0.6562 0.375-1.094 0.8594-1.094 0.5156 0 0.6875 0.375 0.6875 0.8906v1.969h0.6719v-1.797c0-0.5156 0.2344-1.062 0.8281-1.062 0.5781 0 0.7344 0.4844 0.7344 1.016v1.844h0.6562v-2.062c0-0.7344-0.375-1.344-1.234-1.344-0.4688 0-0.9062 0.2344-1.125 0.6562-0.2031-0.4688-0.5938-0.6562-1.031-0.6562-0.5 0-0.8906 0.2812-1.047 0.6406z"/>
</g>
<g id="dv">
<path d="m3.656-0.6094h-2.438l1.609-1.562c0.4375-0.4375 0.8125-0.8594 0.8125-1.5 0-0.9219-0.75-1.406-1.578-1.406-0.8438 0-1.484 0.5625-1.594 1.312l0.6562 0.1094c0.09375-0.5 0.4219-0.8594 0.9375-0.8594 0.4844 0 0.875 0.3438 0.875 0.8594 0 0.4219-0.25 0.7344-0.5469 1.047l-1.969 1.953v0.6562h3.234z"/>
</g>
<g id="du">
<path d="m1.234-0.5312c0.25 0.4062 0.7188 0.625 1.188 0.625 1.031 0 1.688-0.7812 1.688-1.766 0-0.9688-0.6719-1.734-1.672-1.734-0.5469 0-0.9531 0.2656-1.172 0.5781h-0.03125v-2.469h-0.6562v5.297h0.6406v-0.5312zm2.188-1.141c0 0.625-0.3906 1.203-1.109 1.203-0.6719 0-1.109-0.5469-1.109-1.188s0.4375-1.203 1.109-1.203c0.7188 0 1.109 0.5781 1.109 1.188z"/>
</g>
<g id="bn">
<path d="m4.297-1.141c-0.2969 0.4219-0.7812 0.6562-1.328 0.6562-1.141 0-1.859-0.8906-1.859-2 0-1.078 0.7344-1.984 1.875-1.984 0.5156 0 1 0.2344 1.234 0.5781l0.5469-0.4219c-0.3594-0.5-1.094-0.7656-1.781-0.7656-1.5 0-2.641 1.047-2.641 2.594 0 1.531 1.094 2.609 2.625 2.609 0.8594 0 1.5-0.375 1.875-0.8906z"/>
</g>
<g id="bm">
<path d="m0.6094 0h1.688c1.266 0 2.688-0.7812 2.688-2.484 0-1.75-1.422-2.469-2.688-2.469h-1.688zm0.6875-4.359h0.8594c1.203 0 2.078 0.6562 2.078 1.875 0 1.188-0.875 1.875-2.078 1.875h-0.8594z"/>
</g>
<g id="ax">
<path d="m0.4062 1.078c0.4062 0.375 1.047 0.6094 1.625 0.6094 1.375 0 1.828-0.8906 1.828-1.859v-3.141h-0.625v0.5312h-0.01562c-0.25-0.4219-0.7344-0.625-1.203-0.625-1.016 0-1.672 0.7812-1.672 1.719 0 0.9531 0.6719 1.719 1.672 1.719 0.4688 0 0.9375-0.2031 1.172-0.5781h0.01562v0.4219c0 0.6875-0.2969 1.234-1.172 1.234-0.4531 0-0.9219-0.2188-1.203-0.5469zm0.625-2.766c0-0.6406 0.4062-1.172 1.094-1.172 0.6719 0 1.125 0.5312 1.125 1.172 0 0.6562-0.4375 1.156-1.125 1.156s-1.094-0.5469-1.094-1.156z"/>
</g>
<g id="bl">
<path d="m1.234-5.297h-0.6562v5.297h0.6562v-1.719h0.03125l1.5 1.719h0.9062l-1.688-1.812 1.547-1.5h-0.875l-1.391 1.438h-0.03125z"/>
</g>
<g id="aw">
<path d="m2.125-3.312h-0.7656v-0.7031c0-0.4062 0.09375-0.7969 0.5938-0.7969 0.125 0 0.2188 0.03125 0.3281 0.04688l0.07812-0.5625c-0.1406-0.03125-0.2656-0.04688-0.4219-0.04688-0.8906 0-1.234 0.5938-1.234 1.359v0.7031h-0.6562v0.5312h0.6562v2.781h0.6562v-2.781h0.7656z"/>
</g>
<g id="cl">
<path d="m0.04688 0h0.7969l0.9375-1.297 0.9219 1.297h0.8125l-1.328-1.75 1.188-1.562h-0.7656l-0.8125 1.141-0.8125-1.141h-0.8125l1.203 1.562z"/>
</g>
<g id="dt">
<path d="m1.938-1.984h-1.625v0.5625h1.625z"/>
</g>
<g id="ck">
<path d="m0.6094 0h0.6875v-2.266h2.5v2.266h0.7031v-4.953h-0.7031v2.062h-2.5v-2.062h-0.6875z"/>
</g>
<g id="bk">
<path d="m-0.0625 0h1l0.4375-1.141h2.156l0.4531 1.141h1.016l-2.141-4.953h-0.7656zm1.75-1.891 0.7656-2.016 0.7656 2.016z"/>
</g>
<g id="av">
<path d="m4.797-4.328c-0.3906-0.5156-1.156-0.75-1.797-0.75-1.531 0-2.688 1-2.688 2.594 0 1.547 1.094 2.609 2.641 2.609 0.8438 0 1.484-0.3281 1.922-0.8594l-0.7031-0.5c-0.2656 0.3438-0.6719 0.5625-1.203 0.5625-1.031 0-1.688-0.7344-1.688-1.812 0-1.031 0.6875-1.828 1.719-1.828 0.3906 0 0.8594 0.1562 1.125 0.5156z"/>
</g>
<g id="cj">
<path d="m0.5469 0h3.406v-0.7812h-2.531v-1.406h2.281v-0.7344h-2.281v-1.266h2.406v-0.7656h-3.281z"/>
</g>
<g id="d">
<path d="m0.5156 0h0.8438v-3.359h-0.8438zm-0.1094-4.5c0 0.2656 0.2188 0.5 0.5312 0.5 0.2969 0 0.5469-0.2188 0.5469-0.5s-0.25-0.5-0.5469-0.5c-0.3125 0-0.5312 0.2344-0.5312 0.5z"/>
</g>
<g id="s">
<path d="m0.25-2.016c0-1.141 0.3906-2.219 1.031-3.109l0.5781 0.3906c-0.5625 0.7656-0.8906 1.75-0.8906 2.719s0.3281 1.953 0.8906 2.719l-0.5781 0.3906c-0.6406-0.8906-1.031-1.969-1.031-3.109z"/>
</g>
<g id="y">
<path d="m1.953 0h0.8438v-4.953h-0.7656l-1.547 1.25 0.4844 0.5781 0.9844-0.8125z"/>
</g>
<g id="r">
<path d="m2.062-2.016c0-1.141-0.3906-2.219-1.031-3.109l-0.5781 0.3906c0.5625 0.7656 0.8906 1.75 0.8906 2.719s-0.3281 1.953-0.8906 2.719l0.5781 0.3906c0.6406-0.8906 1.031-1.969 1.031-3.109z"/>
</g>
<g id="dj">
<path d="m0.5469 0h0.875v-2.094h0.6562l1.141 2.094h1.062l-1.312-2.203c0.6875-0.1562 1.125-0.625 1.125-1.328 0-1.047-0.8906-1.422-1.828-1.422h-1.719zm0.875-2.828v-1.391h0.7969c0.4688 0 1 0.1406 1 0.6719 0 0.6094-0.5781 0.7188-1.062 0.7188z"/>
</g>
<g id="bh">
<path d="m0.5469 0h1.781c0.9375 0 1.875-0.3594 1.875-1.438 0-0.6719-0.4375-1.094-1.062-1.172v-0.01562c0.5-0.1562 0.8594-0.5312 0.8594-1.078 0-0.9062-0.7656-1.25-1.516-1.25h-1.938zm0.875-4.234h0.7188c0.6562 0 0.9688 0.1875 0.9688 0.625 0 0.4219-0.3125 0.6719-0.8906 0.6719h-0.7969zm0 2.047h0.8281c0.7188 0 1.078 0.1875 1.078 0.7031 0 0.6562-0.6562 0.75-1.109 0.75h-0.7969z"/>
</g>
<g id="au">
<path d="m0.6406 0h0.8438v-2.688h0.7656v-0.6719h-0.7656v-0.5469c0-0.3281 0.07812-0.75 0.5625-0.75 0.1094 0 0.2344 0.01562 0.3125 0.04688l0.0625-0.7188c-0.125-0.03125-0.25-0.04688-0.4219-0.04688-1.047 0-1.359 0.7188-1.359 1.516v0.5h-0.6406v0.6719h0.6406z"/>
</g>
<g id="h">
<path d="m0.5 0h0.8438v-1.844c0-0.4531 0.25-0.9219 0.7812-0.9219 0.5469 0 0.6406 0.5 0.6406 0.9062v1.859h0.8281v-2.094c0-0.6875-0.3594-1.359-1.234-1.359-0.5 0-0.8906 0.2969-1.047 0.625h-0.01562v-0.5312h-0.7969z"/>
</g>
<g id="l">
<path d="m0.6094-2.688v1.562c0 0.6562 0.2031 1.188 1.094 1.188 0.1875 0 0.4062-0.03125 0.5625-0.07812l-0.03125-0.6562c-0.09375 0.04688-0.25 0.0625-0.3594 0.0625-0.375 0-0.4375-0.2188-0.4375-0.5156v-1.562h0.8438v-0.6719h-0.8438v-0.9688h-0.8281v0.9688h-0.5938v0.6719z"/>
</g>
<g id="t">
<path d="m0.3125-1.688c0 1.047 0.8125 1.781 1.828 1.781s1.828-0.7344 1.828-1.781c0-1.062-0.8125-1.766-1.828-1.766s-1.828 0.7031-1.828 1.766zm0.8438 0c0-0.5312 0.3125-1.078 0.9844-1.078 0.6562 0 0.9688 0.5469 0.9688 1.078 0 0.5156-0.3125 1.078-0.9688 1.078-0.6719 0-0.9844-0.5625-0.9844-1.078z"/>
</g>
<g id="p">
<path d="m0.5156 0h0.8438v-5.297h-0.8438z"/>
</g>
<g id="g">
<path d="m1.141-2.016c0.04688-0.4688 0.4375-0.8125 0.9375-0.8125 0.5469 0 0.7969 0.375 0.7969 0.8125zm2.562 0.375c0-1.203-0.6719-1.812-1.609-1.812-1.016 0-1.781 0.7031-1.781 1.797s0.7656 1.75 1.797 1.75c0.6406 0 1.125-0.2188 1.453-0.6719l-0.5625-0.4375c-0.1875 0.2656-0.4688 0.4219-0.8906 0.4219-0.5 0-0.9219-0.3438-0.9688-0.8125h2.562v-0.2344z"/>
</g>
<g id="o">
<path d="m0.5 0h0.8438v-1.797c0-0.25 0.1406-0.9062 0.9062-0.9062 0.07812 0 0.1406 0.01562 0.25 0.03125v-0.7656c-0.04688-0.01562-0.1406-0.01562-0.2031-0.01562-0.4375 0-0.7969 0.2656-0.9688 0.6562h-0.01562v-0.5625h-0.8125z"/>
</g>
<g id="j">
<path d="m2.594 0h0.7812v-2.047c0-0.6719-0.2969-1.406-1.5-1.406-0.5156 0-1.047 0.1719-1.422 0.5312l0.4375 0.5c0.2188-0.2031 0.5625-0.375 0.9219-0.375 0.4062 0 0.7656 0.2031 0.7656 0.6094v0.09375c-1.047 0-2.312 0.1406-2.312 1.141 0 0.7812 0.7188 1.031 1.266 1.031 0.4688 0 0.875-0.2188 1.031-0.5h0.03125zm-0.01562-1.406c0 0.5312-0.3125 0.8594-0.8906 0.8594-0.2812 0-0.5781-0.1094-0.5781-0.4219 0-0.5 0.75-0.5625 1.281-0.5625h0.1875z"/>
</g>
<g id="ds">
<path d="m1.953-2.078h-1.672v0.7188h1.672z"/>
</g>
<g id="u">
<path d="m3.375-2.938c-0.2656-0.3281-0.7812-0.5156-1.266-0.5156-0.9844 0-1.797 0.6875-1.797 1.766 0 1.125 0.8281 1.781 1.812 1.781 0.5 0 0.9688-0.1562 1.234-0.4688l-0.5156-0.5312c-0.1562 0.2031-0.4531 0.2969-0.7031 0.2969-0.6406 0-0.9531-0.5469-0.9531-1.078 0-0.5156 0.2969-1.078 0.9219-1.078 0.2656 0 0.5625 0.1406 0.6875 0.3438z"/>
</g>
<g id="bj">
<path d="m0.5156 0h0.8438v-1.719h0.01562l1.328 1.719h1.125l-1.547-1.844 1.453-1.516h-1.078l-1.281 1.406h-0.01562v-3.344h-0.8438z"/>
</g>
<g id="dr">
<path d="m0.5469 0h0.875v-4.953h-0.875z"/>
</g>
<g id="ci">
<path d="m0.5469 0h1.75c1.297 0 2.75-0.7344 2.75-2.484 0-1.859-1.453-2.469-2.75-2.469h-1.75zm0.875-0.7656v-3.438h0.7344c0.9219 0 1.938 0.2969 1.938 1.719 0 1.344-1.016 1.719-1.938 1.719z"/>
</g>
<g id="dq">
<path d="m0.5469 0h0.875v-3.828h0.01562l2.359 3.828h1.109v-4.953h-0.875v3.703h-0.01562l-2.297-3.703h-1.172z"/>
</g>
<g id="al">
<path d="m3.562-3.359h-0.8281v1.844c0 0.4531-0.25 0.9062-0.7812 0.9062-0.5469 0-0.6406-0.4844-0.6406-0.8906v-1.859h-0.8438v2.094c0 0.6875 0.375 1.359 1.25 1.359 0.5 0 0.8906-0.2969 1.047-0.625v0.5312h0.7969z"/>
</g>
<g id="ap">
<path d="m0.5-3.359v5.047h0.8438v-2.141h0.01562c0.2188 0.3438 0.6406 0.5469 1.109 0.5469 1.031 0 1.656-0.8125 1.656-1.781 0-1-0.6719-1.766-1.641-1.766-0.6094 0-0.9844 0.2969-1.156 0.5625h-0.01562v-0.4688zm2.766 1.672c0 0.5156-0.3125 1.078-0.9688 1.078-0.6094 0-0.9844-0.5469-0.9844-1.078 0-0.5156 0.375-1.078 0.9844-1.078 0.6562 0 0.9688 0.5469 0.9688 1.078z"/>
</g>
<g id="ak">
<path d="m3.922-5.297h-0.8438v2.359h-0.01562c-0.1719-0.2188-0.5156-0.5156-1.125-0.5156-0.9688 0-1.641 0.7656-1.641 1.766 0 0.9688 0.6406 1.781 1.656 1.781 0.4688 0 0.9219-0.2188 1.156-0.5938h0.01562v0.5h0.7969zm-2.766 3.609c0-0.5312 0.3125-1.078 0.9688-1.078 0.6094 0 0.9844 0.5625 0.9844 1.078 0 0.5312-0.375 1.078-0.9844 1.078-0.6562 0-0.9688-0.5625-0.9688-1.078z"/>
</g>
<g id="ch">
<path d="m0.5156-5.297v5.297h0.7969v-0.5h0.01562c0.2344 0.375 0.6875 0.5938 1.156 0.5938 1.016 0 1.656-0.8125 1.656-1.781 0-1-0.6719-1.766-1.641-1.766-0.6094 0-0.9531 0.2969-1.125 0.5156h-0.01562v-2.359zm2.766 3.609c0 0.5156-0.3125 1.078-0.9688 1.078-0.6094 0-0.9844-0.5469-0.9844-1.078 0-0.5156 0.375-1.078 0.9844-1.078 0.6562 0 0.9688 0.5469 0.9688 1.078z"/>
</g>
<g id="ac">
<path d="m4.516-3.453c-0.5 0-0.875 0.2188-1.109 0.625-0.1875-0.375-0.5312-0.625-1.047-0.625-0.5469 0-0.8906 0.2969-1.047 0.625h-0.01562v-0.5312h-0.7969v3.359h0.8438v-1.844c0-0.4531 0.2344-0.9219 0.7344-0.9219 0.4219 0 0.625 0.3281 0.625 0.7344v2.031h0.8438v-1.828c0-0.4375 0.2188-0.9375 0.7344-0.9375 0.5469 0 0.625 0.5 0.625 0.9062v1.859h0.8438v-2.094c0-0.6875-0.3594-1.359-1.234-1.359z"/>
</g>
<g id="z">
<path d="m2.891-2.953c-0.2656-0.3438-0.7812-0.5-1.266-0.5-0.6562 0-1.328 0.3125-1.328 1.062 0 0.6406 0.5 0.8438 0.9844 0.9531 0.5156 0.125 0.7812 0.2031 0.7812 0.4844 0 0.2969-0.2969 0.4062-0.5469 0.4062-0.3594 0-0.6719-0.1875-0.8594-0.4219l-0.5469 0.5156c0.3125 0.3594 0.8594 0.5469 1.375 0.5469 0.7344 0 1.406-0.2969 1.406-1.109 0-0.6719-0.5938-0.8906-1.094-1-0.4688-0.125-0.7188-0.1875-0.7188-0.4531s0.2656-0.3594 0.5312-0.3594c0.3125 0 0.5938 0.1719 0.7344 0.3594z"/>
</g>
<g id="ag">
<path d="m3.125-3.359v0.5h-0.01562c-0.25-0.4062-0.6875-0.5938-1.156-0.5938-1.016 0-1.641 0.7812-1.641 1.766 0 0.9531 0.6406 1.75 1.656 1.75 0.4531 0 0.8594-0.1875 1.094-0.5156h0.01562v0.25c0 0.6719-0.25 1.156-1.062 1.156-0.4219 0-0.8594-0.1719-1.172-0.4844l-0.4844 0.6562c0.4375 0.3594 1.125 0.5625 1.656 0.5625 1.312 0 1.906-0.7812 1.906-1.984v-3.062zm-1 0.5938c0.6094 0 1 0.4844 1 1.062 0 0.5625-0.375 1.062-1 1.062-0.6094 0-0.9688-0.5312-0.9688-1.062 0-0.5938 0.3594-1.062 0.9688-1.062z"/>
</g>
<g id="at">
<path d="m0.4844 0h3.297v-0.7656h-2.234l1.422-1.375c0.4531-0.4219 0.7969-0.8594 0.7969-1.5 0-0.9375-0.7812-1.438-1.641-1.438-0.9062 0-1.578 0.5938-1.672 1.422l0.8125 0.125c0.0625-0.4844 0.3594-0.8438 0.8438-0.8438 0.4531 0 0.7812 0.2969 0.7812 0.75 0 0.3906-0.1875 0.6719-0.5 0.9844l-1.906 1.875z"/>
</g>
<g id="cg">
<path d="m1.891 0h0.7656l1.984-4.953h-0.9531l-1.375 3.812h-0.03125l-1.359-3.812h-0.9844z"/>
</g>
<g id="cf">
<path d="m1.359 0h0.8906l1.344-3.359h-0.8906l-0.8906 2.453h-0.01562l-0.875-2.453h-0.9219z"/>
</g>
<g id="ce">
<path d="m0.3125-2.484c0 1.547 1.125 2.609 2.656 2.609 1.547 0 2.672-1.062 2.672-2.609 0-1.594-1.125-2.594-2.672-2.594-1.531 0-2.656 1-2.656 2.594zm0.9531 0c0-1.031 0.6875-1.828 1.703-1.828 1.031 0 1.703 0.7969 1.703 1.828 0 1.047-0.6875 1.812-1.703 1.812s-1.703-0.7656-1.703-1.812z"/>
</g>
<g id="dp">
<path d="m0.5469 0h0.875v-2.047h0.6875c1.047 0 1.922-0.375 1.922-1.469 0-1.047-0.7344-1.438-1.875-1.438h-1.609zm0.875-2.797v-1.422h0.6562c0.5469 0 1.062 0.1094 1.062 0.7031 0 0.5781-0.5156 0.7188-1.094 0.7188z"/>
</g>
<g id="do">
<path d="m3.641-4.547c-0.375-0.3594-0.9375-0.5312-1.438-0.5312-0.8906 0-1.812 0.4375-1.812 1.453 0 0.9219 0.6562 1.219 1.25 1.406 0.625 0.2031 1.141 0.3438 1.141 0.8594 0 0.5312-0.4844 0.7344-0.8906 0.7344-0.3906 0-0.8438-0.2031-1.078-0.5469l-0.6406 0.5938c0.3906 0.4531 1.062 0.7031 1.703 0.7031 0.9688 0 1.812-0.5156 1.812-1.578 0-0.9688-0.8125-1.25-1.453-1.453-0.5625-0.1719-0.9531-0.3125-0.9531-0.7656 0-0.4844 0.4688-0.6719 0.875-0.6719 0.3594 0 0.7344 0.1719 0.9219 0.4219z"/>
</g>
<g id="bi">
<path d="m4.891-2.828h-1.906v0.7344h1.047v1.25c-0.2812 0.125-0.6094 0.1719-0.9844 0.1719-1.094 0-1.766-0.7656-1.766-1.812 0-1.031 0.6719-1.828 1.719-1.828 0.5312 0 1.016 0.2344 1.266 0.5156l0.6094-0.6562c-0.3906-0.375-1.094-0.625-1.875-0.625-1.531 0-2.688 1-2.688 2.594 0 1.547 1.109 2.609 2.703 2.609 0.7812 0 1.375-0.1406 1.875-0.3906z"/>
</g>
<g id="dn">
<path d="m0.5469 0h2.984v-0.7812h-2.109v-4.172h-0.875z"/>
</g>
<g id="dm">
<path d="m1.547 0h0.875v-4.188h1.531v-0.7656h-3.922v0.7656h1.516z"/>
</g>
<g id="dl">
<path d="m0.5469 0h0.8438v-3.984h0.01562l1.484 3.984h0.6094l1.5-3.984h0.01562v3.984h0.875v-4.953h-1.375l-1.281 3.516h-0.01562l-1.297-3.516h-1.375z"/>
</g>
<g id="dk">
<path d="m1.438 0-0.1562 0.4219c-0.1406 0.3594-0.25 0.5312-0.6094 0.5312-0.07812 0-0.2031-0.01562-0.3125-0.04688l-0.0625 0.7188c0.1406 0.04688 0.2969 0.0625 0.4375 0.0625 0.7344 0 1.031-0.3594 1.266-0.9688l1.594-4.078h-0.875l-0.8281 2.438h-0.01562l-0.9375-2.438h-0.9375z"/>
</g>
<g id="di">
<path d="m1.297-0.2812c0.25 0.2344 0.5938 0.3594 1 0.3594 0.7969 0 1.469-0.5469 1.469-1.469 0-0.7188-0.4688-1.188-0.9688-1.297v-0.04688c0.3438-0.1719 0.5781-0.6094 0.5781-1.062 0-0.7188-0.5-1.25-1.312-1.25-0.4844 0-0.8281 0.1562-1.078 0.4062-0.2812 0.2656-0.5312 0.6875-0.5312 1.688v3.141c0 0.4844 0.01562 0.9844 0.1094 1.203h0.8125c-0.07812-0.2969-0.09375-0.8281-0.09375-1.25v-0.4219zm-0.01562-2.812c0-0.8906 0.2656-1.281 0.7188-1.281 0.3594 0 0.6094 0.2812 0.6094 0.7188 0 0.3906-0.2344 0.7344-0.6562 0.7812-0.04688 0.01562-0.07812 0.01562-0.125 0.01562v0.5625c0.0625 0 0.1094-0.01562 0.1719 0 0.5 0.01562 0.9062 0.3125 0.9062 0.8906 0 0.4531-0.2969 0.8281-0.8125 0.8281-0.3594 0-0.6562-0.2188-0.8125-0.4375z"/>
</g>
<g id="dh">
<path d="m6.172-5.562c-0.5156-0.6719-1.484-0.9688-2.312-0.9688-1.969 0-3.469 1.281-3.469 3.328 0 1.984 1.422 3.359 3.406 3.359 1.078 0 1.906-0.4062 2.469-1.109l-0.9062-0.6406c-0.3281 0.4375-0.875 0.7344-1.547 0.7344-1.312 0-2.172-0.9531-2.172-2.344 0-1.312 0.8906-2.328 2.219-2.328 0.5 0 1.109 0.1875 1.438 0.6562z"/>
</g>
<g id="as">
<path d="m0.3906-2.172c0 1.359 1.047 2.297 2.359 2.297 1.297 0 2.344-0.9375 2.344-2.297s-1.047-2.281-2.344-2.281c-1.312 0-2.359 0.9219-2.359 2.281zm1.109 0c0-0.6875 0.3906-1.391 1.25-1.391 0.8438 0 1.25 0.7031 1.25 1.391 0 0.6719-0.4062 1.391-1.25 1.391-0.8594 0-1.25-0.7188-1.25-1.391z"/>
</g>
<g id="ab">
<path d="m0.6406 0h1.094v-2.375c0-0.5781 0.3125-1.172 1-1.172s0.8125 0.6406 0.8125 1.156v2.391h1.078v-2.703c0-0.875-0.4688-1.75-1.594-1.75-0.6406 0-1.156 0.3906-1.344 0.8281h-0.01562v-0.6875h-1.031z"/>
</g>
<g id="w">
<path d="m0.7812-3.453v2.016c0 0.8281 0.2656 1.531 1.406 1.531 0.25 0 0.5312-0.04688 0.7188-0.125l-0.03125-0.8438c-0.125 0.0625-0.3125 0.09375-0.4688 0.09375-0.4688 0-0.5625-0.2812-0.5625-0.6719v-2h1.078v-0.8594h-1.078v-1.266h-1.062v1.266h-0.75v0.8594z"/>
</g>
<g id="ae">
<path d="m0.6719 0h1.078v-4.312h-1.078zm-0.1562-5.781c0 0.3438 0.2812 0.6406 0.6875 0.6406 0.3906 0 0.7031-0.2812 0.7031-0.6406 0-0.375-0.3125-0.6562-0.7031-0.6562-0.4062 0-0.6875 0.3125-0.6875 0.6562z"/>
</g>
<g id="ca">
<path d="m4.594-4.312h-1.078v2.375c0 0.5625-0.3281 1.156-1.016 1.156s-0.8125-0.625-0.8125-1.141v-2.391h-1.078v2.688c0 0.8906 0.4688 1.75 1.594 1.75 0.6406 0 1.156-0.3906 1.344-0.8125h0.01562v0.6875h1.031z"/>
</g>
<g id="q">
<path d="m1.469-2.594c0.04688-0.5938 0.5625-1.047 1.203-1.047 0.7031 0 1.016 0.4844 1.016 1.047zm3.297 0.4844c0-1.547-0.875-2.344-2.078-2.344-1.312 0-2.297 0.9219-2.297 2.312 0 1.406 1 2.266 2.328 2.266 0.8125 0 1.438-0.2812 1.859-0.8594l-0.7188-0.5781c-0.25 0.3438-0.6094 0.5625-1.156 0.5625-0.625 0-1.188-0.4531-1.234-1.062h3.297v-0.2969z"/>
</g>
<g id="bf">
<path d="m0.6719 0h1.078v-6.797h-1.078z"/>
</g>
<g id="cz">
<path d="m0.8125 0h1.094v-3.453h0.9844v-0.8594h-0.9844v-0.7031c0-0.4375 0.09375-0.9844 0.7188-0.9844 0.1562 0 0.2969 0.03125 0.4219 0.0625l0.0625-0.9062c-0.1562-0.04688-0.3125-0.0625-0.5469-0.0625-1.344 0-1.75 0.9062-1.75 1.953v0.6406h-0.8125v0.8594h0.8125z"/>
</g>
<g id="ar">
<path d="m3.719-3.781c-0.3594-0.4531-1-0.6719-1.625-0.6719-0.8594 0-1.719 0.4219-1.719 1.391 0 0.7969 0.6406 1.062 1.281 1.219 0.6562 0.1562 0.9844 0.2656 0.9844 0.625 0 0.375-0.375 0.5-0.6875 0.5-0.4688 0-0.875-0.2188-1.109-0.5312l-0.7031 0.6719c0.4062 0.4531 1.094 0.7031 1.766 0.7031 0.9531 0 1.797-0.3906 1.797-1.438 0-0.8438-0.75-1.141-1.391-1.281-0.6094-0.1562-0.9375-0.2344-0.9375-0.5781s0.3594-0.4688 0.6875-0.4688c0.4062 0 0.7656 0.2188 0.9531 0.4688z"/>
</g>
<g id="dg">
<path d="m1.859 0-0.2188 0.5469c-0.1875 0.4531-0.3125 0.6719-0.7656 0.6719-0.125 0-0.2656-0.01562-0.4062-0.0625l-0.09375 0.9375c0.1875 0.04688 0.375 0.0625 0.5625 0.0625 0.9531 0 1.328-0.4531 1.641-1.234l2.031-5.234h-1.125l-1.062 3.141h-0.01562l-1.203-3.141h-1.203z"/>
</g>
<g id="ao">
<path d="m5.812-4.453c-0.6562 0-1.141 0.2969-1.422 0.8281-0.25-0.4844-0.6875-0.8281-1.359-0.8281-0.6875 0-1.156 0.4062-1.344 0.8281h-0.01562v-0.6875h-1.031v4.312h1.094v-2.375c0-0.5781 0.2969-1.172 0.9375-1.172 0.5469 0 0.7969 0.4062 0.7969 0.9375v2.609h1.078v-2.359c0-0.5625 0.2812-1.188 0.9688-1.188s0.7969 0.6406 0.7969 1.156v2.391h1.078v-2.703c0-0.875-0.4531-1.75-1.578-1.75z"/>
</g>
<g id="bg">
<path d="m5.047-6.797h-1.094v3.031h-0.01562c-0.2344-0.2812-0.6562-0.6875-1.453-0.6875-1.234 0-2.094 1-2.094 2.281 0 1.25 0.8125 2.297 2.125 2.297 0.5938 0 1.188-0.2812 1.484-0.7656h0.01562v0.6406h1.031zm-3.562 4.625c0-0.6875 0.4062-1.391 1.25-1.391 0.7812 0 1.266 0.7344 1.266 1.406s-0.4844 1.375-1.266 1.375c-0.8438 0-1.25-0.7188-1.25-1.391z"/>
</g>
<g id="df">
<path d="m3.688 0h1.078v-4.312h-1.078zm-0.1562-5.781c0 0.3438 0.2969 0.6406 0.6875 0.6406s0.7031-0.2812 0.7031-0.6406c0-0.375-0.3125-0.6562-0.7031-0.6562s-0.6875 0.3125-0.6875 0.6562zm-2.719 5.781h1.094v-3.453h0.9844v-0.8594h-0.9844v-0.7031c0-0.4375 0.09375-0.9844 0.7188-0.9844 0.1562 0 0.2969 0.03125 0.4219 0.0625l0.0625-0.9062c-0.1562-0.04688-0.3125-0.0625-0.5469-0.0625-1.344 0-1.75 0.9062-1.75 1.953v0.6406h-0.8125v0.8594h0.8125z"/>
</g>
<g id="de">
<path d="m4.344-3.766c-0.3438-0.4219-1-0.6875-1.641-0.6875-1.266 0-2.312 0.8906-2.312 2.297 0 1.438 1.062 2.281 2.344 2.281 0.6406 0 1.234-0.2188 1.594-0.6094l-0.6719-0.6719c-0.2031 0.25-0.5781 0.375-0.9062 0.375-0.8281 0-1.234-0.7031-1.234-1.375s0.4062-1.391 1.188-1.391c0.3594 0 0.7188 0.1875 0.8906 0.4219z"/>
</g>
<g id="af">
<path d="m3.328 0h1.016v-2.625c0-0.8594-0.3906-1.828-1.938-1.828-0.6562 0-1.328 0.2344-1.828 0.6875l0.5625 0.6562c0.2812-0.2812 0.7188-0.4844 1.188-0.4844 0.5312 0 0.9844 0.25 0.9844 0.7812v0.1094c-1.344 0-2.969 0.1875-2.969 1.469 0 1.016 0.9219 1.344 1.625 1.344 0.6094 0 1.125-0.2812 1.328-0.6562h0.03125zm-0.01562-1.812c0 0.6719-0.3906 1.094-1.141 1.094-0.3594 0-0.75-0.125-0.75-0.5312 0-0.6406 0.9688-0.7188 1.641-0.7188h0.25z"/>
</g>
<g id="an">
<path d="m4.016-4.312v0.6406h-0.01562c-0.3125-0.5156-0.8906-0.7812-1.484-0.7812-1.312 0-2.125 1.031-2.125 2.281 0 1.219 0.8438 2.25 2.141 2.25 0.5938 0 1.094-0.2344 1.406-0.6562h0.01562v0.3125c0 0.8594-0.3125 1.484-1.359 1.484-0.5469 0-1.094-0.2031-1.516-0.6094l-0.625 0.8438c0.5625 0.4531 1.453 0.7031 2.141 0.7031 1.688 0 2.453-0.9844 2.453-2.547v-3.922zm-1.281 0.75c0.7812 0 1.281 0.625 1.281 1.375 0 0.7188-0.4844 1.375-1.281 1.375-0.7812 0-1.234-0.6875-1.234-1.375 0-0.7656 0.4531-1.375 1.234-1.375z"/>
</g>
<g id="cd">
<path d="m0.6406 0h1.094v-2.312c0-0.3125 0.1875-1.156 1.156-1.156 0.09375 0 0.1875 0 0.3281 0.04688v-1c-0.0625-0.01562-0.1719-0.03125-0.25-0.03125-0.5781 0-1.031 0.3594-1.266 0.8594h-0.01562v-0.7188h-1.047z"/>
</g>
<g id="dd">
<path d="m0.6406-4.312v6.469h1.094v-2.734h0.01562c0.2812 0.4375 0.8281 0.7031 1.422 0.7031 1.312 0 2.125-1.047 2.125-2.297 0-1.281-0.8594-2.281-2.094-2.281-0.7969 0-1.281 0.3906-1.5 0.7344h-0.01562v-0.5938zm3.562 2.141c0 0.6719-0.4062 1.391-1.234 1.391-0.7969 0-1.281-0.7031-1.281-1.375s0.4844-1.406 1.281-1.406c0.8281 0 1.234 0.7031 1.234 1.391z"/>
</g>
<g id="cc">
<path d="m4.688-5.844c-0.4844-0.4688-1.219-0.6875-1.859-0.6875-1.141 0-2.328 0.5781-2.328 1.875 0 1.188 0.8438 1.562 1.609 1.797 0.8125 0.2656 1.469 0.4531 1.469 1.109 0 0.6875-0.6094 0.9531-1.141 0.9531-0.5156 0-1.094-0.2812-1.406-0.7031l-0.8125 0.75c0.5156 0.5938 1.359 0.9062 2.188 0.9062 1.25 0 2.328-0.6562 2.328-2.031 0-1.25-1.047-1.609-1.859-1.859-0.7188-0.2188-1.219-0.3906-1.219-0.9844 0-0.625 0.6094-0.875 1.125-0.875 0.4531 0 0.9219 0.2344 1.172 0.5469z"/>
</g>
<g id="dc">
<path d="m-0.07812 0h1.281l0.5625-1.453h2.766l0.5938 1.453h1.297l-2.734-6.375h-0.9844zm2.234-2.438 1-2.578 0.9844 2.578z"/>
</g>
<g id="db">
<path d="m0.2188 1.141h0.9062l0.7656-2.375h-1.047z"/>
</g>
<g id="cb">
<path d="m3.047-4.453c-0.6406 0-1.109 0.375-1.281 0.7344h-0.01562v-3.078h-1.078v6.797h1.078v-2.359c0-0.5781 0.3281-1.156 1.016-1.156s0.7969 0.625 0.7969 1.141v2.375h1.078v-2.703c0-0.875-0.4688-1.75-1.594-1.75z"/>
</g>
<g id="da">
<path d="m0.7031 0h2.297c1.203 0 2.406-0.4688 2.406-1.859 0-0.8438-0.5781-1.391-1.375-1.5v-0.01562c0.6562-0.2031 1.109-0.6719 1.109-1.391 0-1.172-0.9844-1.609-1.953-1.609h-2.484zm1.141-5.438h0.9062c0.8438 0 1.25 0.2188 1.25 0.7969 0 0.5469-0.4062 0.8594-1.156 0.8594h-1zm0 2.625h1.047c0.9219 0 1.391 0.2344 1.391 0.9062 0 0.8281-0.8438 0.9531-1.422 0.9531h-1.016z"/>
</g>
<g id="bz">
<path d="m5.203 0-2.062-4.953h-1.156l-2.078 4.953h1.297l0.3594-0.9688h1.922l0.3906 0.9688zm-2.047-1.938h-1.25l0.6406-1.703z"/>
</g>
<g id="be">
<path d="m2.516-2.625v-0.8594h-0.8281v-0.9219h-1.125v0.9219h-0.5469v0.8594h0.5625v1.469c0 0.75 0.2969 1.234 1.234 1.234 0.25 0 0.5156-0.04688 0.6719-0.09375l-0.01562-0.8438c-0.09375 0.03125-0.2344 0.04688-0.3438 0.04688-0.3281 0-0.4375-0.1562-0.4375-0.4844v-1.328z"/>
</g>
<g id="cv">
<path d="m4.562 0-1.297-2.125c0.6406-0.1875 1.031-0.6719 1.031-1.328 0-1.141-0.9375-1.5-1.891-1.5h-1.891v4.953h1.172v-1.969h0.4062l1.062 1.969zm-1.453-3.438c0 0.5-0.4844 0.6094-0.8594 0.6094h-0.5625v-1.156h0.625c0.3594 0 0.7969 0.07812 0.7969 0.5469z"/>
</g>
<g id="cu">
<path d="m1.688-4.594c0-0.3594-0.2812-0.6406-0.6562-0.6406-0.3594 0-0.6562 0.2969-0.6562 0.6406s0.2969 0.625 0.6562 0.625c0.375 0 0.6562-0.2656 0.6562-0.625zm-0.07812 4.594v-3.484h-1.141v3.484z"/>
</g>
<g id="ct">
<path d="m3.125-3.109c-0.3438-0.3281-0.875-0.4844-1.391-0.4844-0.6719 0-1.453 0.3281-1.453 1.172 0 0.6562 0.5312 0.8906 1.016 1.016 0.4688 0.1094 0.6875 0.1719 0.6875 0.3906s-0.2188 0.2969-0.4062 0.2969c-0.3438 0-0.6562-0.1562-0.8594-0.3906l-0.6406 0.6875c0.3594 0.3438 0.9531 0.5312 1.516 0.5312 0.7188 0 1.5-0.3125 1.5-1.188 0-0.6719-0.5938-0.9375-1.125-1.062-0.4375-0.09375-0.625-0.1562-0.625-0.3438 0-0.2031 0.2031-0.2812 0.4219-0.2812 0.2812 0 0.5469 0.1406 0.7344 0.3125z"/>
</g>
<g id="cs">
<path d="m2.797-1.906 1.344-1.578h-1.391l-1.125 1.406h-0.01562v-3.219h-1.156v5.297h1.156v-1.672h0.01562l1.141 1.672h1.422z"/>
</g>
<g id="cr">
<path d="m2.688-5.359c-0.1562-0.04688-0.3594-0.0625-0.5469-0.0625-1.172 0-1.5 0.75-1.5 1.594v0.3438h-0.6406v0.8594h0.6406v2.625h1.141v-2.625h0.7812v-0.8594h-0.7812v-0.3594c0-0.3125 0.09375-0.6562 0.5156-0.6562 0.1094 0 0.2344 0.03125 0.3125 0.0625z"/>
</g>
<g id="cq">
<path d="m4.141-1.75c0-1.141-0.875-1.844-1.938-1.844-1.047 0-1.938 0.7031-1.938 1.844s0.8906 1.859 1.938 1.859c1.062 0 1.938-0.7188 1.938-1.859zm-1.109 0c0 0.4375-0.2812 0.8906-0.8125 0.8906-0.5469 0-0.8281-0.4531-0.8281-0.8906 0-0.4531 0.2812-0.8906 0.8125-0.8906 0.5469 0 0.8281 0.4375 0.8281 0.8906z"/>
</g>
<g id="br">
<path d="m2.766-3.562c-0.0625-0.01562-0.1562-0.01562-0.25-0.01562-0.4219 0-0.7656 0.25-0.9531 0.5938h-0.01562v-0.5h-1.094v3.484h1.141v-1.797c0-0.2812 0.2031-0.7812 0.8281-0.7812 0.07812 0 0.1875 0 0.2812 0.03125z"/>
</g>
<g id="by">
<path d="m4.844 0v-4.953h-1.203v1.875h-1.938v-1.875h-1.188v4.953h1.188v-2.078h1.938v2.078z"/>
</g>
<g id="bx">
<path d="m3.766-3.938v-1.016h-3.25v4.953h1.172v-1.922h1.922v-0.9844h-1.922v-1.031z"/>
</g>
<g id="bw">
<path d="m2.016 0.7812c-0.5938-0.8125-0.9062-1.781-0.9062-2.797s0.3125-1.984 0.9062-2.797l-0.7812-0.375c-0.6562 0.9062-1.031 2.031-1.031 3.172s0.375 2.266 1.031 3.172z"/>
</g>
<g id="bv">
<path d="m3.891-4.469c-0.4375-0.4062-1.062-0.6094-1.625-0.6094-0.9219 0-1.922 0.4531-1.922 1.547 0 0.9062 0.6406 1.219 1.266 1.422 0.6562 0.2188 1.031 0.3281 1.031 0.7031 0 0.4062-0.3125 0.5469-0.6875 0.5469-0.3906 0-0.8281-0.2188-1.062-0.5312l-0.7812 0.7969c0.4219 0.4531 1.141 0.7188 1.844 0.7188 0.9844 0 1.906-0.5156 1.906-1.656 0-0.9844-0.875-1.266-1.547-1.484-0.4688-0.1406-0.7656-0.25-0.7656-0.5781 0-0.3906 0.3906-0.5 0.7031-0.5s0.6719 0.1719 0.875 0.4219z"/>
</g>
<g id="bu">
<path d="m2.5-1.406c0 0.4375-0.25 0.7188-0.7188 0.7188-0.2344 0-0.5-0.09375-0.5-0.3594 0-0.4062 0.5781-0.4688 1.078-0.4688h0.1406zm-1.516-0.9844c0.2031-0.1875 0.5312-0.3594 0.8594-0.3594 0.3594 0 0.625 0.1719 0.625 0.5156v0.04688c-1.016 0-2.234 0.1719-2.234 1.172 0 0.8281 0.7031 1.094 1.266 1.094 0.4062 0 0.8125-0.1562 0.9844-0.4531h0.01562v0.375h1.062v-1.75c0-1.281-0.4375-1.844-1.609-1.844-0.5625 0-1.141 0.2031-1.547 0.5781z"/>
</g>
<g id="bt">
<path d="m4.141-0.3281v-3.156h-1.078v0.4531h-0.01562c-0.25-0.375-0.6875-0.5469-1.109-0.5469-1.062 0-1.672 0.8594-1.672 1.828 0 0.9531 0.6094 1.781 1.672 1.781 0.4688 0 0.8438-0.1719 1.062-0.4531h0.01562v0.2031c0 0.5781-0.3125 0.9688-0.9844 0.9688-0.3906 0-0.8125-0.1406-1.156-0.4375l-0.5781 0.8281c0.4688 0.3438 1.188 0.5469 1.797 0.5469 1.234 0 2.047-0.6562 2.047-2.016zm-1.094-1.438c0 0.4844-0.3125 0.8906-0.8438 0.8906-0.5156 0-0.8125-0.4219-0.8125-0.8906 0-0.4844 0.2969-0.875 0.8125-0.875s0.8438 0.4062 0.8438 0.875z"/>
</g>
<g id="bd">
<path d="m1.375-2.141c0.03125-0.3594 0.3438-0.6719 0.7812-0.6719 0.4688 0 0.6875 0.3125 0.6875 0.6719zm2.531 0.4375c0-1.188-0.7188-1.891-1.75-1.891-1.062 0-1.891 0.7188-1.891 1.859 0 1.188 0.875 1.844 1.922 1.844 0.7031 0 1.25-0.2656 1.578-0.7344l-0.7969-0.5156c-0.1406 0.2188-0.4062 0.375-0.7656 0.375-0.4062 0-0.7969-0.2812-0.8281-0.6562h2.531v-0.2812z"/>
</g>
<g id="bs">
<path d="m2.188-2.016c0-1.141-0.375-2.266-1.031-3.172l-0.7812 0.375c0.5938 0.8125 0.9062 1.781 0.9062 2.797s-0.3125 1.984-0.9062 2.797l0.7812 0.375c0.6562-0.9062 1.031-2.031 1.031-3.172z"/>
</g>
<g id="cy">
<path d="m4.266-3.438c0-1.125-0.8438-1.516-1.938-1.516h-1.812v4.953h1.188v-1.875h0.5938c1.047 0 1.969-0.4062 1.969-1.562zm-1.188 0.01562c0 0.4688-0.4219 0.5938-0.8594 0.5938h-0.5156v-1.156h0.5312c0.4219 0 0.8438 0.07812 0.8438 0.5625z"/>
</g>
<g id="cx">
<path d="m2.031-1.375v-0.9062h-1.781v0.9062z"/>
</g>
<g id="cw">
<path d="m4.375-1.438c0-0.6562-0.4531-1.062-1.016-1.156v-0.01562c0.4844-0.1562 0.8125-0.5312 0.8125-1.078 0-1-0.9219-1.266-1.688-1.266h-1.969v4.953h1.969c0.9531 0 1.891-0.3594 1.891-1.438zm-1.359-2.078c0 0.3438-0.25 0.5312-0.7031 0.5312h-0.6406v-1.016h0.5781c0.5156 0 0.7656 0.1406 0.7656 0.4844zm0.1562 1.969c0 0.4688-0.4531 0.5781-0.8281 0.5781h-0.6719v-1.125h0.6562c0.5156 0 0.8438 0.125 0.8438 0.5469z"/>
</g>
</defs>
<path d="m655.5 566h-655.5v-566h655.5v566" fill="#fff"/>
<path d="m273.4 129h-99.44v-51.67h99.44v51.67" fill="#96d550"/>
<path transform="matrix(.1 0 0 -.1 0 566)" d="m2734 4370h-994.4v516.7h994.4z" fill="none" stroke="#231f1f" stroke-width="5"/>
<path d="m593.9 183.4h-99.45v-51.67h99.45v51.67" fill="#96d550"/>
<path transform="matrix(.1 0 0 -.1 0 566)" d="m5939 3826h-994.5v516.7h994.5z" fill="none" stroke="#231f1f" stroke-width="5"/>
<path d="m593.9 242.2h-99.45v-51.67h99.45v51.67" fill="#96d550"/>
<path transform="matrix(.1 0 0 -.1 0 566)" d="m5939 3238h-994.5v516.7h994.5z" fill="none" stroke="#231f1f" stroke-width="5"/>
<path d="m593.9 301.1h-99.45v-51.67h99.45v51.67" fill="#96d550"/>
<path transform="matrix(.1 0 0 -.1 0 566)" d="m5939 2649h-994.5v516.7h994.5z" fill="none" stroke="#231f1f" stroke-width="5"/>
<path d="m593.9 359.9h-99.45v-51.67h99.45v51.67" fill="#96d550"/>
<path transform="matrix(.1 0 0 -.1 0 566)" d="m5939 2061h-994.5v516.7h994.5z" fill="none" stroke="#231f1f" stroke-width="5"/>
<path d="m273.4 187.2h-99.44v-51.67h99.44v51.67" fill="#96d550"/>
<path transform="matrix(.1 0 0 -.1 0 566)" d="m2734 3788h-994.4v516.7h994.4z" fill="none" stroke="#231f1f" stroke-width="5"/>
<path d="m273.4 244.5h-99.44v-51.67h99.44v51.67" fill="#96d550"/>
<path transform="matrix(.1 0 0 -.1 0 566)" d="m2734 3215h-994.4v516.7h994.4z" fill="none" stroke="#231f1f" stroke-width="5"/>
<path d="m273.4 304h-99.44v-51.67h99.44v51.67" fill="#96d550"/>
<path transform="matrix(.1 0 0 -.1 0 566)" d="m2734 2620h-994.4v516.7h994.4z" fill="none" stroke="#231f1f" stroke-width="5"/>
<path d="m273.4 363.9h-99.44v-51.67h99.44v51.67" fill="#96d550"/>
<path transform="matrix(.1 0 0 -.1 0 566)" d="m2734 2021h-994.4v516.7h994.4z" fill="none" stroke="#231f1f" stroke-width="5"/>
<path d="m273.4 423.6h-99.44v-51.67h99.44v51.67" fill="#ebdc09"/>
<path transform="matrix(.1 0 0 -.1 0 566)" d="m2734 1424h-994.4v516.7h994.4z" fill="none" stroke="#231f1f" stroke-miterlimit="10" stroke-width="5"/>
<path d="m593.9 418.7h-99.45v-51.67h99.45v51.67" fill="#ebdc09"/>
<path transform="matrix(.1 0 0 -.1 0 566)" d="m5939 1473h-994.5v516.7h994.5z" fill="none" stroke="#231f1f" stroke-miterlimit="10" stroke-width="5"/>
<path d="m273.4 486.4h-99.44v-51.67h99.44v51.67" fill="#ebdc09"/>
<path transform="matrix(.1 0 0 -.1 0 566)" d="m2734 796.1h-994.4v516.7h994.4z" fill="none" stroke="#231f1f" stroke-miterlimit="10" stroke-width="5"/>
<path d="m154 129h-85.07v-51.67h85.07v51.67" fill="#fef0ca"/>
<path transform="matrix(.1 0 0 -.1 0 566)" d="m1540 4370h-850.7v516.7h850.7z" fill="none" stroke="#231f1f" stroke-width="5"/>
<path d="m473.5 182.9h-85.08v-51.67h85.08v51.67" fill="#fef0ca"/>
<path transform="matrix(.1 0 0 -.1 0 566)" d="m4735 3831h-850.8v516.7h850.8z" fill="none" stroke="#231f1f" stroke-width="5"/>
<path d="m473.5 242.2h-85.08v-51.67h85.08v51.67" fill="#fef0ca"/>
<path transform="matrix(.1 0 0 -.1 0 566)" d="m4735 3238h-850.8v516.7h850.8z" fill="none" stroke="#231f1f" stroke-width="5"/>
<path d="m473.5 301.1h-85.08v-51.67h85.08v51.67" fill="#fef0ca"/>
<path transform="matrix(.1 0 0 -.1 0 566)" d="m4735 2649h-850.8v516.7h850.8z" fill="none" stroke="#231f1f" stroke-width="5"/>
<path d="m473.5 359.9h-85.08v-51.67h85.08v51.67" fill="#fef0ca"/>
<path transform="matrix(.1 0 0 -.1 0 566)" d="m4735 2061h-850.8v516.7h850.8z" fill="none" stroke="#231f1f" stroke-width="5"/>
<path d="m473.5 418.7h-85.08v-51.67h85.08v51.67" fill="#fef0ca"/>
<path transform="matrix(.1 0 0 -.1 0 566)" d="m4735 1473h-850.8v516.7h850.8z" fill="none" stroke="#231f1f" stroke-width="5"/>
<path d="m154 186.8h-85.07v-51.67h85.07v51.67" fill="#fef0ca"/>
<path transform="matrix(.1 0 0 -.1 0 566)" d="m1540 3792h-850.7v516.7h850.7z" fill="none" stroke="#231f1f" stroke-width="5"/>
<path d="m154 244.5h-85.07v-51.67h85.07v51.67" fill="#fef0ca"/>
<path transform="matrix(.1 0 0 -.1 0 566)" d="m1540 3215h-850.7v516.7h850.7z" fill="none" stroke="#231f1f" stroke-width="5"/>
<path d="m154 304.2h-85.07v-51.67h85.07v51.67" fill="#fef0ca"/>
<path transform="matrix(.1 0 0 -.1 0 566)" d="m1540 2618h-850.7v516.7h850.7z" fill="none" stroke="#231f1f" stroke-width="5"/>
<path d="m154 362.9h-85.07v-51.67h85.07v51.67" fill="#fef0ca"/>
<path transform="matrix(.1 0 0 -.1 0 566)" d="m1540 2031h-850.7v516.7h850.7z" fill="none" stroke="#231f1f" stroke-width="5"/>
<path d="m154 423.6h-85.07v-51.67h85.07v51.67" fill="#fef0ca"/>
<path transform="matrix(.1 0 0 -.1 0 566)" d="m1540 1424h-850.7v516.7h850.7z" fill="none" stroke="#231f1f" stroke-width="5"/>
<path d="m154 486.4h-85.07v-51.67h85.07v51.67" fill="#fef0ca"/>
<path transform="matrix(.1 0 0 -.1 0 566)" d="m1540 796.1h-850.7v516.7h850.7z" fill="none" stroke="#231f1f" stroke-width="5"/>
<path d="m298.7 256h28v-32.66l53 53.14-52.34 53.62v-34.28h-28.66v-39.82" fill="#d4d5d4"/>
<path d="m273.4 67.7h-205.5v-32.3h205.5v32.3" fill="#d4d5d4"/>
<path d="m593.9 67.76h-205.5v-32.29h205.5v32.29" fill="#d4d5d4"/>
<path d="m173.5 159.9c-1.703-0.6328-3.816-1.711-5.125-2.855l0.9414 2.605h-14.94v0.5h14.94l-0.9414 2.602c1.309-1.141 3.422-2.219 5.125-2.852" fill="#231f1f"/>
<path d="m173.5 217.7c-1.703-0.6289-3.816-1.711-5.125-2.852l0.9414 2.602h-14.94v0.5h14.94l-0.9414 2.605c1.309-1.145 3.422-2.223 5.125-2.855" fill="#231f1f"/>
<path d="m172.5 276.7c-1.703-0.6328-3.816-1.711-5.125-2.852l0.9414 2.602h-14.94v0.5h14.94l-0.9414 2.602c1.309-1.141 3.422-2.219 5.125-2.852" fill="#231f1f"/>
<path d="m172.5 336.1c-1.703-0.6328-3.816-1.711-5.125-2.855l0.9414 2.605h-14.94v0.5h14.94l-0.9414 2.602c1.309-1.141 3.422-2.219 5.125-2.852" fill="#231f1f"/>
<path d="m173.5 398.9c-1.703-0.6328-3.816-1.711-5.125-2.855l0.9414 2.605h-14.94v0.5h14.94l-0.9414 2.602c1.309-1.141 3.422-2.219 5.125-2.852" fill="#231f1f"/>
<path d="m173.5 458.7c-1.703-0.6328-3.816-1.711-5.125-2.855l0.9414 2.605h-14.94v0.5h14.94l-0.9414 2.602c1.309-1.141 3.422-2.219 5.125-2.852" fill="#231f1f"/>
<path d="m173.5 103.2c-1.703-0.6328-3.816-1.711-5.125-2.852l0.9414 2.602h-14.94v0.5h14.94l-0.9414 2.605c1.309-1.145 3.422-2.223 5.125-2.855" fill="#231f1f"/>
<path d="m492.6 157.6c-1.707-0.6289-3.82-1.711-5.129-2.852l0.9414 2.602h-14.93v0.5h14.93l-0.9414 2.605c1.309-1.145 3.422-2.223 5.129-2.855" fill="#231f1f"/>
<path d="m492.6 216.4c-1.707-0.6328-3.82-1.711-5.129-2.855l0.9414 2.605h-14.93v0.5h14.93l-0.9414 2.602c1.309-1.141 3.422-2.219 5.129-2.852" fill="#231f1f"/>
<path d="m492.6 274.5c-1.707-0.6289-3.82-1.711-5.129-2.852l0.9414 2.602h-14.93v0.5h14.93l-0.9414 2.605c1.309-1.145 3.422-2.223 5.129-2.855" fill="#231f1f"/>
<path d="m492.6 333.1c-1.707-0.6328-3.82-1.711-5.129-2.855l0.9414 2.605h-14.93v0.5h14.93l-0.9414 2.602c1.309-1.141 3.422-2.223 5.129-2.852" fill="#231f1f"/>
<path d="m492.6 392.9c-1.707-0.6328-3.82-1.711-5.129-2.852l0.9414 2.602h-14.93v0.5h14.93l-0.9414 2.602c1.309-1.141 3.422-2.219 5.129-2.852" fill="#231f1f"/>
<path transform="matrix(.1 0 0 -.1 0 566)" d="m2810 4870h93.32v-4064h-83.32" fill="none" stroke="#231f1f" stroke-miterlimit="10" stroke-width="10"/>
<path d="m568.2 535v-12.76h-500.3v-19.13h500.3v-12.76l22.49 22.46-22.49 22.19" fill="#96d550"/>
<path transform="matrix(.1 0 0 -.1 0 566)" d="m5693 320.5-10.7-10.55v15" fill="none" stroke="#231f1f" stroke-width="5"/>
<path transform="matrix(.1 0 0 -.1 0 566)" d="m5682 357.5v48.79" fill="none" stroke="#231f1f" stroke-dasharray="32.5231 32.5231" stroke-width="5"/>
<path transform="matrix(.1 0 0 -.1 0 566)" d="m5682 422.6v15h-15" fill="none" stroke="#231f1f" stroke-width="5"/>
<path transform="matrix(.1 0 0 -.1 0 566)" d="m5637 437.6h-4928" fill="none" stroke="#231f1f" stroke-dasharray="30.1398 30.1398" stroke-width="5"/>
<path transform="matrix(.1 0 0 -.1 0 566)" d="m694.1 437.6h-15v15" fill="none" stroke="#231f1f" stroke-width="5"/>
<path transform="matrix(.1 0 0 -.1 0 566)" d="m679.1 484.8v112.9" fill="none" stroke="#231f1f" stroke-dasharray="32.2708 32.2708" stroke-width="5"/>
<path transform="matrix(.1 0 0 -.1 0 566)" d="m679.1 613.9v15h15" fill="none" stroke="#231f1f" stroke-width="5"/>
<path transform="matrix(.1 0 0 -.1 0 566)" d="m724.2 628.9h4928" fill="none" stroke="#231f1f" stroke-dasharray="30.1398 30.1398" stroke-width="5"/>
<path transform="matrix(.1 0 0 -.1 0 566)" d="m5667 628.9h15v15" fill="none" stroke="#231f1f" stroke-width="5"/>
<path transform="matrix(.1 0 0 -.1 0 566)" d="m5682 676.4v48.79" fill="none" stroke="#231f1f" stroke-dasharray="32.5231 32.5231" stroke-width="5"/>
<path transform="matrix(.1 0 0 -.1 0 566)" d="m5682 741.5v15l10.62-10.59" fill="none" stroke="#231f1f" stroke-width="5"/>
<path transform="matrix(.1 0 0 -.1 0 566)" d="m5715 723.3 169.7-169.5" fill="none" stroke="#231f1f" stroke-dasharray="31.9819 31.9819" stroke-width="5"/>
<path transform="matrix(.1 0 0 -.1 0 566)" d="m5896 542.5 10.62-10.59-10.7-10.55" fill="none" stroke="#231f1f" stroke-width="5"/>
<path transform="matrix(.1 0 0 -.1 0 566)" d="m5874 499-169.6-167.3" fill="none" stroke="#231f1f" stroke-dasharray="31.7648 31.7648" stroke-width="5"/>
<g fill="#231f1f">
<use x="91.2578" y="102.157" xlink:href="#v"/>
<use x="95.030698" y="102.157" xlink:href="#e"/>
<use x="98.754685" y="102.157" xlink:href="#a"/>
<use x="101.057685" y="102.157" xlink:href="#b"/>
<use x="102.870685" y="102.157" xlink:href="#c"/>
<use x="106.881685" y="102.157" xlink:href="#i"/>
<use x="110.955685" y="102.157" xlink:href="#a"/>
<use x="113.258685" y="102.157" xlink:href="#f"/>
<use x="116.366685" y="102.157" xlink:href="#glyph-0-7"/>
<use x="118.116685" y="102.157" xlink:href="#x"/>
<use x="123.527685" y="102.157" xlink:href="#b"/>
<use x="125.340685" y="102.157" xlink:href="#a"/>
<use x="127.643685" y="102.157" xlink:href="#m"/>
<use x="90.410925" y="110.557" xlink:href="#m"/>
<use x="94.498925" y="110.557" xlink:href="#am"/>
<use x="98.026925" y="110.557" xlink:href="#aj"/>
<use x="102.464925" y="110.557" xlink:href="#c"/>
<use x="106.475925" y="110.557" xlink:href="#k"/>
<use x="108.92616" y="110.557" xlink:href="#a"/>
<use x="111.22916" y="110.557" xlink:href="#c"/>
<use x="115.24016" y="110.557" xlink:href="#i"/>
<use x="119.31416" y="110.557" xlink:href="#f"/>
<use x="122.42216" y="110.557" xlink:href="#b"/>
<use x="124.23516" y="110.557" xlink:href="#n"/>
<use x="128.50516" y="110.557" xlink:href="#i"/>
<use x="410.692925" y="154.7461" xlink:href="#v"/>
<use x="414.465835" y="154.7461" xlink:href="#e"/>
<use x="418.189816" y="154.7461" xlink:href="#a"/>
<use x="420.492816" y="154.7461" xlink:href="#b"/>
<use x="422.305816" y="154.7461" xlink:href="#c"/>
<use x="426.316816" y="154.7461" xlink:href="#i"/>
<use x="430.390816" y="154.7461" xlink:href="#a"/>
<use x="432.693816" y="154.7461" xlink:href="#f"/>
<use x="435.801816" y="154.7461" xlink:href="#glyph-0-7"/>
<use x="437.551816" y="154.7461" xlink:href="#x"/>
<use x="442.962816" y="154.7461" xlink:href="#b"/>
<use x="444.775816" y="154.7461" xlink:href="#a"/>
<use x="447.078816" y="154.7461" xlink:href="#m"/>
<use x="412.576125" y="163.1461" xlink:href="#bc"/>
<use x="415.775147" y="163.1461" xlink:href="#ai"/>
<use x="420.269147" y="163.1461" xlink:href="#bb"/>
<use x="424.476147" y="163.1461" xlink:href="#ah"/>
<use x="428.452147" y="163.1461" xlink:href="#glyph-0-7"/>
<use x="430.202147" y="163.1461" xlink:href="#ba"/>
<use x="434.864147" y="163.1461" xlink:href="#az"/>
<use x="439.029147" y="163.1461" xlink:href="#aq"/>
<use x="443.194147" y="163.1461" xlink:href="#ay"/>
<use x="536.213125" y="156.28087" xlink:href="#bk"/>
<use x="541.0291" y="156.28087" xlink:href="#av"/>
<use x="545.9011" y="156.28087" xlink:href="#cj"/>
<use x="550.1711" y="156.28087" xlink:href="#d"/>
<use x="539.685395" y="164.68087" xlink:href="#s"/>
<use x="541.995395" y="164.68087" xlink:href="#y"/>
<use x="546.265395" y="164.68087" xlink:href="#r"/>
<use x="509.931095" y="214.36287" xlink:href="#bk"/>
<use x="514.873095" y="214.36287" xlink:href="#dj"/>
<use x="519.276095" y="214.36287" xlink:href="#bh"/>
<use x="523.805095" y="214.36287" xlink:href="#glyph-1-9"/>
<use x="525.555095" y="214.36287" xlink:href="#d"/>
<use x="527.431095" y="214.36287" xlink:href="#au"/>
<use x="529.866234" y="214.36287" xlink:href="#glyph-1-9"/>
<use x="531.490306" y="214.36287" xlink:href="#bk"/>
<use x="536.306378" y="214.36287" xlink:href="#av"/>
<use x="541.178378" y="214.36287" xlink:href="#cj"/>
<use x="545.448378" y="214.36287" xlink:href="#d"/>
<use x="547.324378" y="214.36287" xlink:href="#glyph-1-9"/>
<use x="549.074378" y="214.36287" xlink:href="#d"/>
<use x="550.950378" y="214.36287" xlink:href="#h"/>
<use x="555.024378" y="214.36287" xlink:href="#l"/>
<use x="557.404378" y="214.36287" xlink:href="#t"/>
<use x="561.674378" y="214.36287" xlink:href="#p"/>
<use x="563.550378" y="214.36287" xlink:href="#g"/>
<use x="567.568378" y="214.36287" xlink:href="#o"/>
<use x="570.02546" y="214.36287" xlink:href="#j"/>
<use x="573.87546" y="214.36287" xlink:href="#h"/>
<use x="577.94946" y="214.36287" xlink:href="#l"/>
<use x="540.685395" y="222.76287" xlink:href="#s"/>
<use x="542.995395" y="222.76287" xlink:href="#y"/>
<use x="547.265395" y="222.76287" xlink:href="#r"/>
<use x="527.832295" y="272.88087" xlink:href="#di"/>
<use x="531.857295" y="272.88087" xlink:href="#ds"/>
<use x="534.097295" y="272.88087" xlink:href="#bh"/>
<use x="538.626295" y="272.88087" xlink:href="#p"/>
<use x="540.502295" y="272.88087" xlink:href="#t"/>
<use x="544.772295" y="272.88087" xlink:href="#u"/>
<use x="548.188295" y="272.88087" xlink:href="#bj"/>
<use x="551.862391" y="272.88087" xlink:href="#g"/>
<use x="555.880391" y="272.88087" xlink:href="#o"/>
<use x="538.685425" y="281.28087" xlink:href="#s"/>
<use x="540.995425" y="281.28087" xlink:href="#y"/>
<use x="545.265425" y="281.28087" xlink:href="#r"/>
<use x="537.033475" y="331.69887" xlink:href="#dr"/>
<use x="539.007475" y="331.69887" xlink:href="#av"/>
<use x="543.879475" y="331.69887" xlink:href="#ci"/>
<use x="538.685425" y="340.09887" xlink:href="#s"/>
<use x="540.995425" y="340.09887" xlink:href="#y"/>
<use x="545.265425" y="340.09887" xlink:href="#r"/>
<use x="410.693425" y="273.88087" xlink:href="#v"/>
<use x="414.466335" y="273.88087" xlink:href="#e"/>
<use x="418.190316" y="273.88087" xlink:href="#a"/>
<use x="420.493316" y="273.88087" xlink:href="#b"/>
<use x="422.306316" y="273.88087" xlink:href="#c"/>
<use x="426.317316" y="273.88087" xlink:href="#i"/>
<use x="430.391316" y="273.88087" xlink:href="#a"/>
<use x="432.694316" y="273.88087" xlink:href="#f"/>
<use x="435.802316" y="273.88087" xlink:href="#glyph-0-7"/>
<use x="437.552316" y="273.88087" xlink:href="#x"/>
<use x="442.963316" y="273.88087" xlink:href="#b"/>
<use x="444.776316" y="273.88087" xlink:href="#a"/>
<use x="447.079316" y="273.88087" xlink:href="#m"/>
<use x="412.576625" y="282.28087" xlink:href="#bc"/>
<use x="415.775647" y="282.28087" xlink:href="#ai"/>
<use x="420.269647" y="282.28087" xlink:href="#bb"/>
<use x="424.476647" y="282.28087" xlink:href="#ah"/>
<use x="428.452647" y="282.28087" xlink:href="#glyph-0-7"/>
<use x="430.202647" y="282.28087" xlink:href="#ba"/>
<use x="434.864647" y="282.28087" xlink:href="#az"/>
<use x="439.029647" y="282.28087" xlink:href="#aq"/>
<use x="443.194647" y="282.28087" xlink:href="#ay"/>
<use x="406.921545" y="210.27187" xlink:href="#v"/>
<use x="410.694455" y="210.27187" xlink:href="#e"/>
<use x="414.418436" y="210.27187" xlink:href="#a"/>
<use x="416.721436" y="210.27187" xlink:href="#b"/>
<use x="418.534436" y="210.27187" xlink:href="#c"/>
<use x="422.545436" y="210.27187" xlink:href="#i"/>
<use x="426.619436" y="210.27187" xlink:href="#a"/>
<use x="428.922436" y="210.27187" xlink:href="#f"/>
<use x="432.030436" y="210.27187" xlink:href="#glyph-0-7"/>
<use x="433.780436" y="210.27187" xlink:href="#x"/>
<use x="439.191436" y="210.27187" xlink:href="#b"/>
<use x="441.004436" y="210.27187" xlink:href="#a"/>
<use x="443.307436" y="210.27187" xlink:href="#m"/>
<use x="447.395436" y="210.27187" xlink:href="#glyph-0-7"/>
<use x="449.145436" y="210.27187" xlink:href="#e"/>
<use x="407.782483" y="218.67187" xlink:href="#k"/>
<use x="410.190555" y="218.67187" xlink:href="#c"/>
<use x="414.201555" y="218.67187" xlink:href="#ad"/>
<use x="417.659555" y="218.67187" xlink:href="#c"/>
<use x="421.670555" y="218.67187" xlink:href="#i"/>
<use x="425.744555" y="218.67187" xlink:href="#a"/>
<use x="428.047555" y="218.67187" xlink:href="#glyph-0-7"/>
<use x="429.797555" y="218.67187" xlink:href="#cp"/>
<use x="436.118555" y="218.67187" xlink:href="#dy"/>
<use x="438.015555" y="218.67187" xlink:href="#glyph-0-7"/>
<use x="439.765555" y="218.67187" xlink:href="#e"/>
<use x="443.559555" y="218.67187" xlink:href="#i"/>
<use x="447.633555" y="218.67187" xlink:href="#aa"/>
<use x="411.576623" y="227.07187" xlink:href="#bc"/>
<use x="414.775645" y="227.07187" xlink:href="#ai"/>
<use x="419.269645" y="227.07187" xlink:href="#bb"/>
<use x="423.476645" y="227.07187" xlink:href="#ah"/>
<use x="427.452645" y="227.07187" xlink:href="#glyph-0-7"/>
<use x="429.202645" y="227.07187" xlink:href="#ba"/>
<use x="433.864645" y="227.07187" xlink:href="#az"/>
<use x="438.029645" y="227.07187" xlink:href="#aq"/>
<use x="442.194645" y="227.07187" xlink:href="#ay"/>
<use x="409.840293" y="323.19997" xlink:href="#v"/>
<use x="413.613203" y="323.19997" xlink:href="#e"/>
<use x="417.337184" y="323.19997" xlink:href="#a"/>
<use x="419.640184" y="323.19997" xlink:href="#b"/>
<use x="421.453184" y="323.19997" xlink:href="#c"/>
<use x="425.464184" y="323.19997" xlink:href="#i"/>
<use x="429.538184" y="323.19997" xlink:href="#a"/>
<use x="431.841184" y="323.19997" xlink:href="#f"/>
<use x="434.949184" y="323.19997" xlink:href="#glyph-0-7"/>
<use x="436.699184" y="323.19997" xlink:href="#x"/>
<use x="442.110184" y="323.19997" xlink:href="#b"/>
<use x="443.923184" y="323.19997" xlink:href="#a"/>
<use x="446.226184" y="323.19997" xlink:href="#m"/>
<use x="410.673496" y="331.59997" xlink:href="#bc"/>
<use x="413.872518" y="331.59997" xlink:href="#ai"/>
<use x="418.366518" y="331.59997" xlink:href="#bb"/>
<use x="422.573518" y="331.59997" xlink:href="#ah"/>
<use x="426.549518" y="331.59997" xlink:href="#glyph-0-7"/>
<use x="428.299518" y="331.59997" xlink:href="#ba"/>
<use x="432.961518" y="331.59997" xlink:href="#dx"/>
<use x="437.126518" y="331.59997" xlink:href="#aq"/>
<use x="441.291518" y="331.59997" xlink:href="#ay"/>
<use x="447.381518" y="331.59997" xlink:href="#co"/>
<use x="409.000446" y="339.99997" xlink:href="#cn"/>
<use x="413.662446" y="339.99997" xlink:href="#dw"/>
<use x="417.827446" y="339.99997" xlink:href="#glyph-0-7"/>
<use x="419.577446" y="339.99997" xlink:href="#am"/>
<use x="423.105446" y="339.99997" xlink:href="#glyph-0-7"/>
<use x="424.855446" y="339.99997" xlink:href="#f"/>
<use x="427.963446" y="339.99997" xlink:href="#cm"/>
<use x="432.037446" y="339.99997" xlink:href="#k"/>
<use x="434.571446" y="339.99997" xlink:href="#bq"/>
<use x="438.099446" y="339.99997" xlink:href="#b"/>
<use x="439.912446" y="339.99997" xlink:href="#bq"/>
<use x="443.440446" y="339.99997" xlink:href="#e"/>
<use x="447.234446" y="339.99997" xlink:href="#bp"/>
<use x="449.054446" y="339.99997" xlink:href="#co"/>
<use x="407.604356" y="348.39997" xlink:href="#cn"/>
<use x="412.266356" y="348.39997" xlink:href="#az"/>
<use x="416.431356" y="348.39997" xlink:href="#aq"/>
<use x="420.596356" y="348.39997" xlink:href="#glyph-0-7"/>
<use x="422.346356" y="348.39997" xlink:href="#aa"/>
<use x="426.791356" y="348.39997" xlink:href="#glyph-0-7"/>
<use x="428.541356" y="348.39997" xlink:href="#aj"/>
<use x="432.979356" y="348.39997" xlink:href="#n"/>
<use x="437.249356" y="348.39997" xlink:href="#f"/>
<use x="440.357356" y="348.39997" xlink:href="#a"/>
<use x="442.660356" y="348.39997" xlink:href="#glyph-0-7"/>
<use x="444.410356" y="348.39997" xlink:href="#cp"/>
<use x="450.731356" y="348.39997" xlink:href="#bp"/>
<use x="409.693416" y="385.85387" xlink:href="#v"/>
<use x="413.466326" y="385.85387" xlink:href="#e"/>
<use x="417.190307" y="385.85387" xlink:href="#a"/>
<use x="419.493307" y="385.85387" xlink:href="#b"/>
<use x="421.306307" y="385.85387" xlink:href="#c"/>
<use x="425.317307" y="385.85387" xlink:href="#i"/>
<use x="429.391307" y="385.85387" xlink:href="#a"/>
<use x="431.694307" y="385.85387" xlink:href="#f"/>
<use x="434.802307" y="385.85387" xlink:href="#glyph-0-7"/>
<use x="436.552307" y="385.85387" xlink:href="#x"/>
<use x="441.963307" y="385.85387" xlink:href="#b"/>
<use x="443.776307" y="385.85387" xlink:href="#a"/>
<use x="446.079307" y="385.85387" xlink:href="#m"/>
<use x="409.742635" y="394.25387" xlink:href="#i"/>
<use x="413.816635" y="394.25387" xlink:href="#n"/>
<use x="418.086635" y="394.25387" xlink:href="#i"/>
<use x="422.160635" y="394.25387" xlink:href="#b"/>
<use x="423.973635" y="394.25387" xlink:href="#f"/>
<use x="427.081635" y="394.25387" xlink:href="#ad"/>
<use x="430.539635" y="394.25387" xlink:href="#m"/>
<use x="434.627635" y="394.25387" xlink:href="#c"/>
<use x="438.638635" y="394.25387" xlink:href="#bo"/>
<use x="444.847635" y="394.25387" xlink:href="#b"/>
<use x="446.660635" y="394.25387" xlink:href="#ad"/>
<use x="403.792635" y="402.65387" xlink:href="#ad"/>
<use x="407.250635" y="402.65387" xlink:href="#e"/>
<use x="411.044635" y="402.65387" xlink:href="#k"/>
<use x="413.452414" y="402.65387" xlink:href="#aa"/>
<use x="417.897414" y="402.65387" xlink:href="#b"/>
<use x="419.710414" y="402.65387" xlink:href="#n"/>
<use x="423.980414" y="402.65387" xlink:href="#bo"/>
<use x="430.189414" y="402.65387" xlink:href="#am"/>
<use x="433.717414" y="402.65387" xlink:href="#n"/>
<use x="437.987414" y="402.65387" xlink:href="#aj"/>
<use x="442.425414" y="402.65387" xlink:href="#e"/>
<use x="446.148516" y="402.65387" xlink:href="#a"/>
<use x="448.451516" y="402.65387" xlink:href="#m"/>
<use x="452.539516" y="402.65387" xlink:href="#am"/>
<use x="80.285635" y="155.91787" xlink:href="#v"/>
<use x="84.058533" y="155.91787" xlink:href="#e"/>
<use x="87.782519" y="155.91787" xlink:href="#a"/>
<use x="90.085519" y="155.91787" xlink:href="#b"/>
<use x="91.898519" y="155.91787" xlink:href="#c"/>
<use x="95.909519" y="155.91787" xlink:href="#i"/>
<use x="99.983519" y="155.91787" xlink:href="#a"/>
<use x="102.286519" y="155.91787" xlink:href="#f"/>
<use x="105.394519" y="155.91787" xlink:href="#glyph-0-7"/>
<use x="107.144519" y="155.91787" xlink:href="#x"/>
<use x="112.555519" y="155.91787" xlink:href="#b"/>
<use x="114.368519" y="155.91787" xlink:href="#a"/>
<use x="116.671519" y="155.91787" xlink:href="#m"/>
<use x="120.759519" y="155.91787" xlink:href="#glyph-0-7"/>
<use x="122.509519" y="155.91787" xlink:href="#a"/>
<use x="124.812519" y="155.91787" xlink:href="#am"/>
<use x="128.340519" y="155.91787" xlink:href="#aj"/>
<use x="132.778519" y="155.91787" xlink:href="#c"/>
<use x="136.789519" y="155.91787" xlink:href="#glyph-0-7"/>
<use x="138.539519" y="155.91787" xlink:href="#dv"/>
<use x="77.954775" y="164.3167" xlink:href="#aa"/>
<use x="82.399775" y="164.3167" xlink:href="#b"/>
<use x="84.212775" y="164.3167" xlink:href="#e"/>
<use x="88.006775" y="164.3167" xlink:href="#du"/>
<use x="92.458775" y="164.3167" xlink:href="#c"/>
<use x="96.469775" y="164.3167" xlink:href="#a"/>
<use x="98.772775" y="164.3167" xlink:href="#c"/>
<use x="102.783775" y="164.3167" xlink:href="#f"/>
<use x="105.891775" y="164.3167" xlink:href="#glyph-0-7"/>
<use x="107.641775" y="164.3167" xlink:href="#e"/>
<use x="111.435775" y="164.3167" xlink:href="#i"/>
<use x="115.509775" y="164.3167" xlink:href="#aa"/>
<use x="119.954775" y="164.3167" xlink:href="#glyph-0-7"/>
<use x="121.704775" y="164.3167" xlink:href="#bn"/>
<use x="126.660775" y="164.3167" xlink:href="#ai"/>
<use x="131.154775" y="164.3167" xlink:href="#bm"/>
<use x="136.481775" y="164.3167" xlink:href="#glyph-0-7"/>
<use x="138.231775" y="164.3167" xlink:href="#n"/>
<use x="142.501775" y="164.3167" xlink:href="#k"/>
<use x="84.216105" y="172.7167" xlink:href="#m"/>
<use x="88.304105" y="172.7167" xlink:href="#b"/>
<use x="90.117105" y="172.7167" xlink:href="#ax"/>
<use x="94.541105" y="172.7167" xlink:href="#m"/>
<use x="98.629105" y="172.7167" xlink:href="#glyph-0-7"/>
<use x="100.379105" y="172.7167" xlink:href="#k"/>
<use x="102.913105" y="172.7167" xlink:href="#b"/>
<use x="104.726105" y="172.7167" xlink:href="#f"/>
<use x="107.834105" y="172.7167" xlink:href="#bl"/>
<use x="111.523105" y="172.7167" xlink:href="#glyph-0-7"/>
<use x="113.273105" y="172.7167" xlink:href="#aw"/>
<use x="115.443105" y="172.7167" xlink:href="#n"/>
<use x="119.713105" y="172.7167" xlink:href="#k"/>
<use x="122.247105" y="172.7167" xlink:href="#glyph-0-7"/>
<use x="123.997105" y="172.7167" xlink:href="#bn"/>
<use x="128.953105" y="172.7167" xlink:href="#ai"/>
<use x="133.447105" y="172.7167" xlink:href="#bm"/>
<use x="81.994625" y="221.564" xlink:href="#v"/>
<use x="85.767523" y="221.564" xlink:href="#e"/>
<use x="89.491509" y="221.564" xlink:href="#a"/>
<use x="91.794509" y="221.564" xlink:href="#b"/>
<use x="93.607509" y="221.564" xlink:href="#c"/>
<use x="97.618509" y="221.564" xlink:href="#i"/>
<use x="101.692509" y="221.564" xlink:href="#a"/>
<use x="103.995509" y="221.564" xlink:href="#f"/>
<use x="107.103509" y="221.564" xlink:href="#glyph-0-7"/>
<use x="108.853509" y="221.564" xlink:href="#x"/>
<use x="114.264509" y="221.564" xlink:href="#b"/>
<use x="116.077509" y="221.564" xlink:href="#a"/>
<use x="118.380509" y="221.564" xlink:href="#m"/>
<use x="122.468509" y="221.564" xlink:href="#glyph-0-7"/>
<use x="124.218509" y="221.564" xlink:href="#bn"/>
<use x="129.174509" y="221.564" xlink:href="#ai"/>
<use x="133.668509" y="221.564" xlink:href="#bm"/>
<use x="91.257905" y="272.7249" xlink:href="#v"/>
<use x="95.030803" y="272.7249" xlink:href="#e"/>
<use x="98.754789" y="272.7249" xlink:href="#a"/>
<use x="101.057789" y="272.7249" xlink:href="#b"/>
<use x="102.870789" y="272.7249" xlink:href="#c"/>
<use x="106.881789" y="272.7249" xlink:href="#i"/>
<use x="110.955789" y="272.7249" xlink:href="#a"/>
<use x="113.258789" y="272.7249" xlink:href="#f"/>
<use x="116.366789" y="272.7249" xlink:href="#glyph-0-7"/>
<use x="118.116789" y="272.7249" xlink:href="#x"/>
<use x="123.527789" y="272.7249" xlink:href="#b"/>
<use x="125.340789" y="272.7249" xlink:href="#a"/>
<use x="127.643789" y="272.7249" xlink:href="#m"/>
<use x="92.420015" y="281.1249" xlink:href="#c"/>
<use x="96.361038" y="281.1249" xlink:href="#cl"/>
<use x="99.938038" y="281.1249" xlink:href="#aj"/>
<use x="104.376038" y="281.1249" xlink:href="#n"/>
<use x="108.646038" y="281.1249" xlink:href="#f"/>
<use x="111.754038" y="281.1249" xlink:href="#cm"/>
<use x="115.828038" y="281.1249" xlink:href="#k"/>
<use x="118.23611" y="281.1249" xlink:href="#c"/>
<use x="122.24711" y="281.1249" xlink:href="#glyph-0-7"/>
<use x="123.99711" y="281.1249" xlink:href="#a"/>
<use x="126.30011" y="281.1249" xlink:href="#n"/>
<use x="81.993815" y="289.5249" xlink:href="#ad"/>
<use x="85.451815" y="289.5249" xlink:href="#e"/>
<use x="89.245815" y="289.5249" xlink:href="#k"/>
<use x="91.653582" y="289.5249" xlink:href="#aa"/>
<use x="96.098582" y="289.5249" xlink:href="#b"/>
<use x="97.911582" y="289.5249" xlink:href="#n"/>
<use x="102.181582" y="289.5249" xlink:href="#a"/>
<use x="104.484582" y="289.5249" xlink:href="#n"/>
<use x="108.68405" y="289.5249" xlink:href="#cl"/>
<use x="112.26105" y="289.5249" xlink:href="#b"/>
<use x="114.07405" y="289.5249" xlink:href="#ad"/>
<use x="117.53205" y="289.5249" xlink:href="#glyph-0-7"/>
<use x="119.28205" y="289.5249" xlink:href="#e"/>
<use x="123.07605" y="289.5249" xlink:href="#ax"/>
<use x="127.50005" y="289.5249" xlink:href="#c"/>
<use x="131.51105" y="289.5249" xlink:href="#i"/>
<use x="135.58505" y="289.5249" xlink:href="#a"/>
<use x="137.88805" y="289.5249" xlink:href="#f"/>
<use x="77.677795" y="327.1999" xlink:href="#ah"/>
<use x="81.527806" y="327.1999" xlink:href="#b"/>
<use x="83.340806" y="327.1999" xlink:href="#k"/>
<use x="85.874806" y="327.1999" xlink:href="#f"/>
<use x="88.982806" y="327.1999" xlink:href="#a"/>
<use x="91.285806" y="327.1999" xlink:href="#dt"/>
<use x="93.525806" y="327.1999" xlink:href="#aa"/>
<use x="97.970806" y="327.1999" xlink:href="#c"/>
<use x="101.981806" y="327.1999" xlink:href="#ax"/>
<use x="106.405806" y="327.1999" xlink:href="#k"/>
<use x="108.813878" y="327.1999" xlink:href="#c"/>
<use x="112.824878" y="327.1999" xlink:href="#c"/>
<use x="116.835878" y="327.1999" xlink:href="#glyph-0-7"/>
<use x="118.585878" y="327.1999" xlink:href="#k"/>
<use x="120.993938" y="327.1999" xlink:href="#c"/>
<use x="125.004938" y="327.1999" xlink:href="#bp"/>
<use x="126.824938" y="327.1999" xlink:href="#e"/>
<use x="130.548919" y="327.1999" xlink:href="#a"/>
<use x="132.851919" y="327.1999" xlink:href="#b"/>
<use x="134.664919" y="327.1999" xlink:href="#bq"/>
<use x="138.192919" y="327.1999" xlink:href="#c"/>
<use x="142.203919" y="327.1999" xlink:href="#f"/>
<use x="86.746545" y="335.5999" xlink:href="#n"/>
<use x="91.016545" y="335.5999" xlink:href="#aw"/>
<use x="93.354434" y="335.5999" xlink:href="#glyph-0-7"/>
<use x="95.104434" y="335.5999" xlink:href="#aj"/>
<use x="99.542434" y="335.5999" xlink:href="#e"/>
<use x="103.266415" y="335.5999" xlink:href="#a"/>
<use x="105.569415" y="335.5999" xlink:href="#b"/>
<use x="107.382415" y="335.5999" xlink:href="#c"/>
<use x="111.393415" y="335.5999" xlink:href="#i"/>
<use x="115.467415" y="335.5999" xlink:href="#a"/>
<use x="117.770415" y="335.5999" xlink:href="#f"/>
<use x="120.878415" y="335.5999" xlink:href="#glyph-0-7"/>
<use x="122.628415" y="335.5999" xlink:href="#x"/>
<use x="128.039415" y="335.5999" xlink:href="#b"/>
<use x="129.852415" y="335.5999" xlink:href="#a"/>
<use x="132.155415" y="335.5999" xlink:href="#m"/>
<use x="79.750065" y="343.9999" xlink:href="#ax"/>
<use x="84.174065" y="343.9999" xlink:href="#c"/>
<use x="88.185065" y="343.9999" xlink:href="#i"/>
<use x="92.259065" y="343.9999" xlink:href="#c"/>
<use x="96.270065" y="343.9999" xlink:href="#a"/>
<use x="98.573065" y="343.9999" xlink:href="#b"/>
<use x="100.386065" y="343.9999" xlink:href="#ad"/>
<use x="103.844065" y="343.9999" xlink:href="#glyph-0-7"/>
<use x="105.594065" y="343.9999" xlink:href="#n"/>
<use x="109.864065" y="343.9999" xlink:href="#k"/>
<use x="112.398065" y="343.9999" xlink:href="#glyph-0-7"/>
<use x="114.148065" y="343.9999" xlink:href="#b"/>
<use x="115.961065" y="343.9999" xlink:href="#i"/>
<use x="120.035065" y="343.9999" xlink:href="#m"/>
<use x="124.123065" y="343.9999" xlink:href="#c"/>
<use x="128.134065" y="343.9999" xlink:href="#k"/>
<use x="130.668065" y="343.9999" xlink:href="#b"/>
<use x="132.481065" y="343.9999" xlink:href="#a"/>
<use x="134.784065" y="343.9999" xlink:href="#c"/>
<use x="138.795065" y="343.9999" xlink:href="#aa"/>
<use x="82.655145" y="352.3999" xlink:href="#ad"/>
<use x="86.113145" y="352.3999" xlink:href="#e"/>
<use x="89.907145" y="352.3999" xlink:href="#k"/>
<use x="92.314912" y="352.3999" xlink:href="#aa"/>
<use x="96.759912" y="352.3999" xlink:href="#b"/>
<use x="98.572912" y="352.3999" xlink:href="#n"/>
<use x="102.842912" y="352.3999" xlink:href="#bo"/>
<use x="109.051912" y="352.3999" xlink:href="#am"/>
<use x="112.579912" y="352.3999" xlink:href="#n"/>
<use x="116.849912" y="352.3999" xlink:href="#aj"/>
<use x="121.287912" y="352.3999" xlink:href="#e"/>
<use x="125.011001" y="352.3999" xlink:href="#a"/>
<use x="127.314001" y="352.3999" xlink:href="#m"/>
<use x="131.402001" y="352.3999" xlink:href="#b"/>
<use x="133.215001" y="352.3999" xlink:href="#c"/>
<use x="137.226001" y="352.3999" xlink:href="#f"/>
<use x="88.605145" y="394.9589" xlink:href="#v"/>
<use x="92.378043" y="394.9589" xlink:href="#e"/>
<use x="96.102029" y="394.9589" xlink:href="#a"/>
<use x="98.405029" y="394.9589" xlink:href="#b"/>
<use x="100.218029" y="394.9589" xlink:href="#c"/>
<use x="104.229029" y="394.9589" xlink:href="#i"/>
<use x="108.303029" y="394.9589" xlink:href="#a"/>
<use x="110.606029" y="394.9589" xlink:href="#f"/>
<use x="113.714029" y="394.9589" xlink:href="#glyph-0-7"/>
<use x="115.464029" y="394.9589" xlink:href="#e"/>
<use x="119.188022" y="394.9589" xlink:href="#a"/>
<use x="121.491022" y="394.9589" xlink:href="#glyph-0-7"/>
<use x="123.241022" y="394.9589" xlink:href="#k"/>
<use x="125.775022" y="394.9589" xlink:href="#b"/>
<use x="127.588022" y="394.9589" xlink:href="#f"/>
<use x="130.696022" y="394.9589" xlink:href="#bl"/>
<use x="101.593045" y="403.3589" xlink:href="#aw"/>
<use x="103.763045" y="403.3589" xlink:href="#n"/>
<use x="108.033045" y="403.3589" xlink:href="#k"/>
<use x="110.567045" y="403.3589" xlink:href="#glyph-0-7"/>
<use x="112.317045" y="403.3589" xlink:href="#ck"/>
<use x="117.420045" y="403.3589" xlink:href="#ah"/>
<use x="192.857145" y="390.9589" xlink:href="#dq"/>
<use x="198.317145" y="390.9589" xlink:href="#j"/>
<use x="202.097101" y="390.9589" xlink:href="#l"/>
<use x="204.477101" y="390.9589" xlink:href="#o"/>
<use x="207.025101" y="390.9589" xlink:href="#d"/>
<use x="208.901101" y="390.9589" xlink:href="#al"/>
<use x="212.975101" y="390.9589" xlink:href="#o"/>
<use x="215.397173" y="390.9589" xlink:href="#g"/>
<use x="219.415173" y="390.9589" xlink:href="#l"/>
<use x="221.795173" y="390.9589" xlink:href="#d"/>
<use x="223.671173" y="390.9589" xlink:href="#u"/>
<use x="227.087173" y="390.9589" xlink:href="#glyph-1-9"/>
<use x="228.837173" y="390.9589" xlink:href="#ap"/>
<use x="233.268173" y="390.9589" xlink:href="#g"/>
<use x="237.286173" y="390.9589" xlink:href="#ap"/>
<use x="241.717173" y="390.9589" xlink:href="#l"/>
<use x="244.097173" y="390.9589" xlink:href="#d"/>
<use x="245.973173" y="390.9589" xlink:href="#ak"/>
<use x="250.411173" y="390.9589" xlink:href="#g"/>
<use x="190.323945" y="399.3589" xlink:href="#ch"/>
<use x="194.768945" y="399.3589" xlink:href="#d"/>
<use x="196.644945" y="399.3589" xlink:href="#t"/>
<use x="200.914945" y="399.3589" xlink:href="#ac"/>
<use x="207.144945" y="399.3589" xlink:href="#j"/>
<use x="210.994945" y="399.3589" xlink:href="#o"/>
<use x="213.542945" y="399.3589" xlink:href="#bj"/>
<use x="217.217309" y="399.3589" xlink:href="#g"/>
<use x="221.235309" y="399.3589" xlink:href="#o"/>
<use x="223.783309" y="399.3589" xlink:href="#glyph-1-9"/>
<use x="225.533309" y="399.3589" xlink:href="#z"/>
<use x="228.641309" y="399.3589" xlink:href="#u"/>
<use x="232.057309" y="399.3589" xlink:href="#o"/>
<use x="234.47904" y="399.3589" xlink:href="#g"/>
<use x="238.49704" y="399.3589" xlink:href="#g"/>
<use x="242.51504" y="399.3589" xlink:href="#h"/>
<use x="246.58904" y="399.3589" xlink:href="#d"/>
<use x="248.46504" y="399.3589" xlink:href="#h"/>
<use x="252.53904" y="399.3589" xlink:href="#ag"/>
<use x="217.273145" y="407.7589" xlink:href="#s"/>
<use x="219.583145" y="407.7589" xlink:href="#at"/>
<use x="223.853145" y="407.7589" xlink:href="#j"/>
<use x="227.703145" y="407.7589" xlink:href="#r"/>
<use x="88.605145" y="457.7628" xlink:href="#v"/>
<use x="92.378043" y="457.7628" xlink:href="#e"/>
<use x="96.102029" y="457.7628" xlink:href="#a"/>
<use x="98.405029" y="457.7628" xlink:href="#b"/>
<use x="100.218029" y="457.7628" xlink:href="#c"/>
<use x="104.229029" y="457.7628" xlink:href="#i"/>
<use x="108.303029" y="457.7628" xlink:href="#a"/>
<use x="110.606029" y="457.7628" xlink:href="#f"/>
<use x="113.714029" y="457.7628" xlink:href="#glyph-0-7"/>
<use x="115.464029" y="457.7628" xlink:href="#e"/>
<use x="119.188022" y="457.7628" xlink:href="#a"/>
<use x="121.491022" y="457.7628" xlink:href="#glyph-0-7"/>
<use x="123.241022" y="457.7628" xlink:href="#k"/>
<use x="125.775022" y="457.7628" xlink:href="#b"/>
<use x="127.588022" y="457.7628" xlink:href="#f"/>
<use x="130.696022" y="457.7628" xlink:href="#bl"/>
<use x="101.593045" y="466.1628" xlink:href="#aw"/>
<use x="103.763045" y="466.1628" xlink:href="#n"/>
<use x="108.033045" y="466.1628" xlink:href="#k"/>
<use x="110.567045" y="466.1628" xlink:href="#glyph-0-7"/>
<use x="112.317045" y="466.1628" xlink:href="#ck"/>
<use x="117.420045" y="466.1628" xlink:href="#ah"/>
<use x="186.057145" y="453.7628" xlink:href="#cg"/>
<use x="190.334199" y="453.7628" xlink:href="#j"/>
<use x="194.184199" y="453.7628" xlink:href="#p"/>
<use x="196.060199" y="453.7628" xlink:href="#d"/>
<use x="197.936199" y="453.7628" xlink:href="#ak"/>
<use x="202.374199" y="453.7628" xlink:href="#j"/>
<use x="206.154131" y="453.7628" xlink:href="#l"/>
<use x="208.534131" y="453.7628" xlink:href="#g"/>
<use x="212.552131" y="453.7628" xlink:href="#ak"/>
<use x="216.990131" y="453.7628" xlink:href="#glyph-1-9"/>
<use x="218.740131" y="453.7628" xlink:href="#ac"/>
<use x="224.970131" y="453.7628" xlink:href="#al"/>
<use x="229.044131" y="453.7628" xlink:href="#p"/>
<use x="230.920131" y="453.7628" xlink:href="#l"/>
<use x="233.300131" y="453.7628" xlink:href="#d"/>
<use x="235.176131" y="453.7628" xlink:href="#cf"/>
<use x="238.767131" y="453.7628" xlink:href="#j"/>
<use x="242.617131" y="453.7628" xlink:href="#o"/>
<use x="245.165131" y="453.7628" xlink:href="#d"/>
<use x="247.041131" y="453.7628" xlink:href="#j"/>
<use x="250.891131" y="453.7628" xlink:href="#ch"/>
<use x="255.336131" y="453.7628" xlink:href="#p"/>
<use x="257.212131" y="453.7628" xlink:href="#g"/>
<use x="206.930945" y="462.1628" xlink:href="#o"/>
<use x="209.478945" y="462.1628" xlink:href="#d"/>
<use x="211.354945" y="462.1628" xlink:href="#z"/>
<use x="214.462945" y="462.1628" xlink:href="#bj"/>
<use x="218.263945" y="462.1628" xlink:href="#glyph-1-9"/>
<use x="220.013945" y="462.1628" xlink:href="#z"/>
<use x="223.121945" y="462.1628" xlink:href="#u"/>
<use x="226.537945" y="462.1628" xlink:href="#t"/>
<use x="230.807945" y="462.1628" xlink:href="#o"/>
<use x="233.228991" y="462.1628" xlink:href="#g"/>
<use x="237.246991" y="462.1628" xlink:href="#z"/>
<use x="217.273145" y="470.5628" xlink:href="#s"/>
<use x="219.583145" y="470.5628" xlink:href="#at"/>
<use x="223.853145" y="470.5628" xlink:href="#j"/>
<use x="227.703145" y="470.5628" xlink:href="#r"/>
<use x="188.619245" y="103.1568" xlink:href="#ce"/>
<use x="194.562245" y="103.1568" xlink:href="#ap"/>
<use x="198.993245" y="103.1568" xlink:href="#l"/>
<use x="201.373245" y="103.1568" xlink:href="#d"/>
<use x="203.249245" y="103.1568" xlink:href="#ac"/>
<use x="209.479245" y="103.1568" xlink:href="#j"/>
<use x="213.329245" y="103.1568" xlink:href="#p"/>
<use x="215.205245" y="103.1568" xlink:href="#glyph-1-9"/>
<use x="216.955245" y="103.1568" xlink:href="#u"/>
<use x="220.371245" y="103.1568" xlink:href="#t"/>
<use x="224.641245" y="103.1568" xlink:href="#h"/>
<use x="228.715245" y="103.1568" xlink:href="#l"/>
<use x="231.095245" y="103.1568" xlink:href="#o"/>
<use x="233.517292" y="103.1568" xlink:href="#t"/>
<use x="237.787292" y="103.1568" xlink:href="#p"/>
<use x="239.663292" y="103.1568" xlink:href="#glyph-1-9"/>
<use x="241.413292" y="103.1568" xlink:href="#t"/>
<use x="245.683292" y="103.1568" xlink:href="#au"/>
<use x="248.118065" y="103.1568" xlink:href="#glyph-1-9"/>
<use x="249.868065" y="103.1568" xlink:href="#bh"/>
<use x="254.397065" y="103.1568" xlink:href="#dp"/>
<use x="219.198145" y="111.5568" xlink:href="#s"/>
<use x="221.508145" y="111.5568" xlink:href="#y"/>
<use x="225.778145" y="111.5568" xlink:href="#r"/>
<use x="212.380175" y="159.9166" xlink:href="#do"/>
<use x="216.398175" y="159.9166" xlink:href="#bi"/>
<use x="221.809175" y="159.9166" xlink:href="#dn"/>
<use x="224.784075" y="159.9166" xlink:href="#dm"/>
<use x="228.760075" y="159.9166" xlink:href="#at"/>
<use x="233.030075" y="159.9166" xlink:href="#d"/>
<use x="219.198145" y="168.3166" xlink:href="#s"/>
<use x="221.508145" y="168.3166" xlink:href="#y"/>
<use x="225.778145" y="168.3166" xlink:href="#r"/>
<use x="189.910245" y="212.6768" xlink:href="#ce"/>
<use x="195.853245" y="212.6768" xlink:href="#ap"/>
<use x="200.284245" y="212.6768" xlink:href="#l"/>
<use x="202.664245" y="212.6768" xlink:href="#d"/>
<use x="204.540245" y="212.6768" xlink:href="#ac"/>
<use x="210.770245" y="212.6768" xlink:href="#j"/>
<use x="214.620245" y="212.6768" xlink:href="#p"/>
<use x="216.496245" y="212.6768" xlink:href="#glyph-1-9"/>
<use x="218.246245" y="212.6768" xlink:href="#ac"/>
<use x="224.476245" y="212.6768" xlink:href="#j"/>
<use x="228.326245" y="212.6768" xlink:href="#h"/>
<use x="232.400245" y="212.6768" xlink:href="#j"/>
<use x="236.250245" y="212.6768" xlink:href="#ag"/>
<use x="240.674245" y="212.6768" xlink:href="#ac"/>
<use x="246.904245" y="212.6768" xlink:href="#g"/>
<use x="250.922245" y="212.6768" xlink:href="#h"/>
<use x="254.996245" y="212.6768" xlink:href="#l"/>
<use x="212.020045" y="221.0768" xlink:href="#t"/>
<use x="216.290045" y="221.0768" xlink:href="#au"/>
<use x="218.725891" y="221.0768" xlink:href="#glyph-1-9"/>
<use x="220.475891" y="221.0768" xlink:href="#av"/>
<use x="225.347892" y="221.0768" xlink:href="#cg"/>
<use x="229.918892" y="221.0768" xlink:href="#ci"/>
<use x="219.198165" y="229.4768" xlink:href="#s"/>
<use x="221.508165" y="229.4768" xlink:href="#y"/>
<use x="225.778165" y="229.4768" xlink:href="#r"/>
<use x="196.841165" y="267.7248" xlink:href="#dl"/>
<use x="203.281165" y="267.7248" xlink:href="#al"/>
<use x="207.355165" y="267.7248" xlink:href="#p"/>
<use x="209.231165" y="267.7248" xlink:href="#l"/>
<use x="211.611165" y="267.7248" xlink:href="#d"/>
<use x="213.487165" y="267.7248" xlink:href="#ak"/>
<use x="217.925165" y="267.7248" xlink:href="#d"/>
<use x="219.801165" y="267.7248" xlink:href="#z"/>
<use x="222.909165" y="267.7248" xlink:href="#u"/>
<use x="226.325165" y="267.7248" xlink:href="#d"/>
<use x="228.201165" y="267.7248" xlink:href="#ap"/>
<use x="232.632165" y="267.7248" xlink:href="#p"/>
<use x="234.508165" y="267.7248" xlink:href="#d"/>
<use x="236.384165" y="267.7248" xlink:href="#h"/>
<use x="240.458165" y="267.7248" xlink:href="#j"/>
<use x="244.308165" y="267.7248" xlink:href="#o"/>
<use x="246.856165" y="267.7248" xlink:href="#dk"/>
<use x="201.331005" y="276.1248" xlink:href="#g"/>
<use x="205.349005" y="276.1248" xlink:href="#cf"/>
<use x="208.940005" y="276.1248" xlink:href="#j"/>
<use x="212.790005" y="276.1248" xlink:href="#p"/>
<use x="214.666005" y="276.1248" xlink:href="#al"/>
<use x="218.740005" y="276.1248" xlink:href="#j"/>
<use x="222.520058" y="276.1248" xlink:href="#l"/>
<use x="224.900058" y="276.1248" xlink:href="#d"/>
<use x="226.776058" y="276.1248" xlink:href="#t"/>
<use x="231.046058" y="276.1248" xlink:href="#h"/>
<use x="235.120058" y="276.1248" xlink:href="#glyph-1-9"/>
<use x="236.870058" y="276.1248" xlink:href="#au"/>
<use x="239.138058" y="276.1248" xlink:href="#t"/>
<use x="243.408058" y="276.1248" xlink:href="#o"/>
<use x="202.069286" y="284.5248" xlink:href="#ac"/>
<use x="208.299286" y="284.5248" xlink:href="#j"/>
<use x="212.149286" y="284.5248" xlink:href="#h"/>
<use x="216.223286" y="284.5248" xlink:href="#j"/>
<use x="220.073286" y="284.5248" xlink:href="#ag"/>
<use x="224.497286" y="284.5248" xlink:href="#g"/>
<use x="228.515286" y="284.5248" xlink:href="#ac"/>
<use x="234.745286" y="284.5248" xlink:href="#g"/>
<use x="238.763286" y="284.5248" xlink:href="#h"/>
<use x="242.837286" y="284.5248" xlink:href="#l"/>
<use x="219.198186" y="292.9248" xlink:href="#s"/>
<use x="221.508186" y="292.9248" xlink:href="#y"/>
<use x="225.778186" y="292.9248" xlink:href="#r"/>
<use x="187.401286" y="332.2236" xlink:href="#bi"/>
<use x="192.812286" y="332.2236" xlink:href="#g"/>
<use x="196.830286" y="332.2236" xlink:href="#h"/>
<use x="200.904286" y="332.2236" xlink:href="#g"/>
<use x="204.922286" y="332.2236" xlink:href="#l"/>
<use x="207.302286" y="332.2236" xlink:href="#d"/>
<use x="209.178286" y="332.2236" xlink:href="#u"/>
<use x="212.594286" y="332.2236" xlink:href="#glyph-1-9"/>
<use x="214.344286" y="332.2236" xlink:href="#z"/>
<use x="217.452286" y="332.2236" xlink:href="#u"/>
<use x="220.868286" y="332.2236" xlink:href="#o"/>
<use x="223.289967" y="332.2236" xlink:href="#g"/>
<use x="227.307967" y="332.2236" xlink:href="#g"/>
<use x="231.325967" y="332.2236" xlink:href="#h"/>
<use x="235.399967" y="332.2236" xlink:href="#d"/>
<use x="237.275967" y="332.2236" xlink:href="#h"/>
<use x="241.349967" y="332.2236" xlink:href="#ag"/>
<use x="245.773967" y="332.2236" xlink:href="#glyph-1-9"/>
<use x="247.523967" y="332.2236" xlink:href="#j"/>
<use x="251.373967" y="332.2236" xlink:href="#h"/>
<use x="255.447967" y="332.2236" xlink:href="#ak"/>
<use x="206.037986" y="340.6236" xlink:href="#u"/>
<use x="209.453986" y="340.6236" xlink:href="#t"/>
<use x="213.723986" y="340.6236" xlink:href="#al"/>
<use x="217.797986" y="340.6236" xlink:href="#h"/>
<use x="221.871986" y="340.6236" xlink:href="#z"/>
<use x="224.979986" y="340.6236" xlink:href="#g"/>
<use x="228.997986" y="340.6236" xlink:href="#p"/>
<use x="230.873986" y="340.6236" xlink:href="#d"/>
<use x="232.749986" y="340.6236" xlink:href="#h"/>
<use x="236.823986" y="340.6236" xlink:href="#ag"/>
<use x="219.198186" y="349.0236" xlink:href="#s"/>
<use x="221.508186" y="349.0236" xlink:href="#y"/>
<use x="225.778186" y="349.0236" xlink:href="#r"/>
<use x="505.998186" y="388.8709" xlink:href="#bi"/>
<use x="511.409186" y="388.8709" xlink:href="#g"/>
<use x="515.427186" y="388.8709" xlink:href="#h"/>
<use x="519.501186" y="388.8709" xlink:href="#g"/>
<use x="523.519186" y="388.8709" xlink:href="#l"/>
<use x="525.899186" y="388.8709" xlink:href="#d"/>
<use x="527.775186" y="388.8709" xlink:href="#u"/>
<use x="531.191186" y="388.8709" xlink:href="#glyph-1-9"/>
<use x="532.941186" y="388.8709" xlink:href="#u"/>
<use x="536.357186" y="388.8709" xlink:href="#t"/>
<use x="540.627186" y="388.8709" xlink:href="#al"/>
<use x="544.701186" y="388.8709" xlink:href="#h"/>
<use x="548.775186" y="388.8709" xlink:href="#z"/>
<use x="551.883186" y="388.8709" xlink:href="#g"/>
<use x="555.901186" y="388.8709" xlink:href="#p"/>
<use x="557.777186" y="388.8709" xlink:href="#d"/>
<use x="559.653186" y="388.8709" xlink:href="#h"/>
<use x="563.727186" y="388.8709" xlink:href="#ag"/>
<use x="568.151186" y="388.8709" xlink:href="#glyph-1-9"/>
<use x="569.901186" y="388.8709" xlink:href="#j"/>
<use x="573.751186" y="388.8709" xlink:href="#h"/>
<use x="577.825186" y="388.8709" xlink:href="#ak"/>
<use x="533.000186" y="397.2709" xlink:href="#l"/>
<use x="535.380186" y="397.2709" xlink:href="#g"/>
<use x="539.398186" y="397.2709" xlink:href="#z"/>
<use x="542.506186" y="397.2709" xlink:href="#l"/>
<use x="544.886186" y="397.2709" xlink:href="#d"/>
<use x="546.762186" y="397.2709" xlink:href="#h"/>
<use x="550.836186" y="397.2709" xlink:href="#ag"/>
<use x="537.760346" y="405.6709" xlink:href="#s"/>
<use x="540.070346" y="405.6709" xlink:href="#at"/>
<use x="544.340346" y="405.6709" xlink:href="#j"/>
<use x="548.190346" y="405.6709" xlink:href="#r"/>
<use x="96.430346" y="514.8539" xlink:href="#dh"/>
<use x="102.586399" y="514.8539" xlink:href="#as"/>
<use x="108.076399" y="514.8539" xlink:href="#ab"/>
<use x="113.314399" y="514.8539" xlink:href="#w"/>
<use x="116.374399" y="514.8539" xlink:href="#ae"/>
<use x="118.786399" y="514.8539" xlink:href="#ab"/>
<use x="124.024399" y="514.8539" xlink:href="#ca"/>
<use x="129.262399" y="514.8539" xlink:href="#q"/>
<use x="134.428399" y="514.8539" xlink:href="#glyph-3-7"/>
<use x="136.678399" y="514.8539" xlink:href="#bf"/>
<use x="139.090399" y="514.8539" xlink:href="#ae"/>
<use x="141.502399" y="514.8539" xlink:href="#cz"/>
<use x="144.418399" y="514.8539" xlink:href="#q"/>
<use x="149.584399" y="514.8539" xlink:href="#ar"/>
<use x="153.580399" y="514.8539" xlink:href="#w"/>
<use x="156.640399" y="514.8539" xlink:href="#dg"/>
<use x="161.257399" y="514.8539" xlink:href="#bf"/>
<use x="163.669399" y="514.8539" xlink:href="#q"/>
<use x="168.835399" y="514.8539" xlink:href="#glyph-3-7"/>
<use x="171.085399" y="514.8539" xlink:href="#ao"/>
<use x="179.095399" y="514.8539" xlink:href="#as"/>
<use x="184.585399" y="514.8539" xlink:href="#bg"/>
<use x="190.291399" y="514.8539" xlink:href="#ae"/>
<use x="192.703399" y="514.8539" xlink:href="#df"/>
<use x="198.040399" y="514.8539" xlink:href="#de"/>
<use x="202.432399" y="514.8539" xlink:href="#af"/>
<use x="207.292335" y="514.8539" xlink:href="#w"/>
<use x="210.352335" y="514.8539" xlink:href="#ae"/>
<use x="212.764335" y="514.8539" xlink:href="#as"/>
<use x="218.254335" y="514.8539" xlink:href="#ab"/>
<use x="223.492335" y="514.8539" xlink:href="#ar"/>
<use x="227.488335" y="514.8539" xlink:href="#glyph-3-7"/>
<use x="229.738335" y="514.8539" xlink:href="#af"/>
<use x="234.688335" y="514.8539" xlink:href="#ab"/>
<use x="239.926335" y="514.8539" xlink:href="#bg"/>
<use x="245.632335" y="514.8539" xlink:href="#glyph-3-7"/>
<use x="247.882335" y="514.8539" xlink:href="#ao"/>
<use x="255.892335" y="514.8539" xlink:href="#af"/>
<use x="260.842335" y="514.8539" xlink:href="#ab"/>
<use x="266.080335" y="514.8539" xlink:href="#af"/>
<use x="271.030335" y="514.8539" xlink:href="#an"/>
<use x="276.718335" y="514.8539" xlink:href="#q"/>
<use x="281.884335" y="514.8539" xlink:href="#ao"/>
<use x="289.894335" y="514.8539" xlink:href="#q"/>
<use x="295.060335" y="514.8539" xlink:href="#ab"/>
<use x="300.298335" y="514.8539" xlink:href="#w"/>
<use x="303.358335" y="514.8539" xlink:href="#glyph-3-7"/>
<use x="305.608335" y="514.8539" xlink:href="#ar"/>
<use x="309.604335" y="514.8539" xlink:href="#w"/>
<use x="312.664335" y="514.8539" xlink:href="#cd"/>
<use x="315.82344" y="514.8539" xlink:href="#af"/>
<use x="320.683402" y="514.8539" xlink:href="#w"/>
<use x="323.743402" y="514.8539" xlink:href="#q"/>
<use x="328.909402" y="514.8539" xlink:href="#an"/>
<use x="334.597402" y="514.8539" xlink:href="#ae"/>
<use x="337.009402" y="514.8539" xlink:href="#q"/>
<use x="342.175402" y="514.8539" xlink:href="#ar"/>
<use x="346.171402" y="514.8539" xlink:href="#glyph-3-7"/>
<use x="348.421402" y="514.8539" xlink:href="#ae"/>
<use x="350.833402" y="514.8539" xlink:href="#ao"/>
<use x="358.843402" y="514.8539" xlink:href="#dd"/>
<use x="364.540402" y="514.8539" xlink:href="#bf"/>
<use x="366.952402" y="514.8539" xlink:href="#q"/>
<use x="372.118402" y="514.8539" xlink:href="#ao"/>
<use x="380.128402" y="514.8539" xlink:href="#q"/>
<use x="385.294402" y="514.8539" xlink:href="#ab"/>
<use x="390.532402" y="514.8539" xlink:href="#w"/>
<use x="393.592402" y="514.8539" xlink:href="#q"/>
<use x="398.758402" y="514.8539" xlink:href="#bg"/>
<use x="404.464402" y="514.8539" xlink:href="#glyph-3-7"/>
<use x="406.714402" y="514.8539" xlink:href="#ae"/>
<use x="409.126402" y="514.8539" xlink:href="#ab"/>
<use x="414.364402" y="514.8539" xlink:href="#glyph-3-7"/>
<use x="416.614402" y="514.8539" xlink:href="#cc"/>
<use x="421.7263" y="514.8539" xlink:href="#w"/>
<use x="424.7863" y="514.8539" xlink:href="#af"/>
<use x="429.7363" y="514.8539" xlink:href="#an"/>
<use x="435.4243" y="514.8539" xlink:href="#q"/>
<use x="440.5903" y="514.8539" xlink:href="#glyph-3-7"/>
<use x="442.678386" y="514.8539" xlink:href="#dc"/>
<use x="449.032386" y="514.8539" xlink:href="#db"/>
<use x="451.102415" y="514.8539" xlink:href="#glyph-3-7"/>
<use x="453.352415" y="514.8539" xlink:href="#w"/>
<use x="456.412415" y="514.8539" xlink:href="#cb"/>
<use x="461.668415" y="514.8539" xlink:href="#cd"/>
<use x="464.78255" y="514.8539" xlink:href="#as"/>
<use x="470.27255" y="514.8539" xlink:href="#ca"/>
<use x="475.51055" y="514.8539" xlink:href="#an"/>
<use x="481.19855" y="514.8539" xlink:href="#cb"/>
<use x="486.45455" y="514.8539" xlink:href="#glyph-3-7"/>
<use x="488.70455" y="514.8539" xlink:href="#cc"/>
<use x="493.816449" y="514.8539" xlink:href="#w"/>
<use x="496.876449" y="514.8539" xlink:href="#af"/>
<use x="501.826449" y="514.8539" xlink:href="#an"/>
<use x="507.514449" y="514.8539" xlink:href="#q"/>
<use x="512.680449" y="514.8539" xlink:href="#glyph-3-7"/>
<use x="514.930449" y="514.8539" xlink:href="#da"/>
<use x="130.152246" y="54.5489" xlink:href="#bz"/>
<use x="135.255246" y="54.5489" xlink:href="#be"/>
<use x="137.859246" y="54.5489" xlink:href="#glyph-4-2"/>
<use x="139.609246" y="54.5489" xlink:href="#cv"/>
<use x="144.250246" y="54.5489" xlink:href="#cu"/>
<use x="146.322246" y="54.5489" xlink:href="#ct"/>
<use x="149.626246" y="54.5489" xlink:href="#cs"/>
<use x="153.791246" y="54.5489" xlink:href="#glyph-4-2"/>
<use x="155.541246" y="54.5489" xlink:href="#cr"/>
<use x="158.089246" y="54.5489" xlink:href="#cq"/>
<use x="162.513246" y="54.5489" xlink:href="#br"/>
<use x="165.285246" y="54.5489" xlink:href="#glyph-4-2"/>
<use x="167.035246" y="54.5489" xlink:href="#by"/>
<use x="172.383246" y="54.5489" xlink:href="#bx"/>
<use x="176.415246" y="54.5489" xlink:href="#glyph-4-2"/>
<use x="178.165246" y="54.5489" xlink:href="#bw"/>
<use x="180.559246" y="54.5489" xlink:href="#bv"/>
<use x="184.653424" y="54.5489" xlink:href="#be"/>
<use x="187.257424" y="54.5489" xlink:href="#bu"/>
<use x="191.219424" y="54.5489" xlink:href="#bt"/>
<use x="195.825424" y="54.5489" xlink:href="#bd"/>
<use x="199.997424" y="54.5489" xlink:href="#glyph-4-2"/>
<use x="201.621398" y="54.5489" xlink:href="#bz"/>
<use x="206.724398" y="54.5489" xlink:href="#bs"/>
<use x="460.507246" y="54.228978" xlink:href="#cy"/>
<use x="464.686269" y="54.228978" xlink:href="#br"/>
<use x="467.332292" y="54.228978" xlink:href="#bd"/>
<use x="471.504292" y="54.228978" xlink:href="#cx"/>
<use x="473.786292" y="54.228978" xlink:href="#by"/>
<use x="479.134292" y="54.228978" xlink:href="#bx"/>
<use x="483.166292" y="54.228978" xlink:href="#glyph-4-2"/>
<use x="484.916292" y="54.228978" xlink:href="#bw"/>
<use x="487.310292" y="54.228978" xlink:href="#bv"/>
<use x="491.405202" y="54.228978" xlink:href="#be"/>
<use x="494.009202" y="54.228978" xlink:href="#bu"/>
<use x="497.971202" y="54.228978" xlink:href="#bt"/>
<use x="502.577202" y="54.228978" xlink:href="#bd"/>
<use x="506.749202" y="54.228978" xlink:href="#glyph-4-2"/>
<use x="508.499202" y="54.228978" xlink:href="#cw"/>
<use x="513.154202" y="54.228978" xlink:href="#bs"/>
</g>
</svg>
