<svg xmlns="http://www.w3.org/2000/svg" viewBox="0 0 278.35 63.53"><path d="M272.26 3.61c.2.11.5.21.81.21.39 0 .61-.18.61-.46 0-.25-.17-.4-.6-.56-.55-.2-.91-.49-.91-.98 0-.55.46-.97 1.18-.97.36 0 .63.08.81.17l-.15.49c-.12-.06-.35-.16-.67-.16-.39 0-.56.21-.56.4 0 .26.19.38.64.55.58.22.87.51.87 1 0 .54-.41 1.01-1.27 1.01-.35 0-.72-.1-.91-.21l.13-.51ZM277.69 2.91c-.02-.43-.04-.96-.04-1.41h-.02c-.11.41-.25.86-.4 1.28l-.49 1.45h-.47l-.45-1.43c-.13-.43-.25-.89-.34-1.3-.02.44-.03.97-.06 1.43l-.08 1.35h-.57l.22-3.35h.81l.44 1.35c.12.39.22.79.31 1.16h.02c.09-.36.2-.78.33-1.17l.46-1.34h.8l.19 3.35h-.6l-.06-1.37ZM113 29.17 102.02 1h-9.57v39.7h6.68V11.67L110.6 40.7h4.42l11.53-29.04V40.7h6.84V1h-9.57L113 29.17zM173.7 1h-9.59l-16.1 15.9V1h-6.84v39.7h6.84V22.03l16.94 18.67h9.74l-20.38-21.44L173.7 1z" style="fill:#d31245"/><path d="M189.61 17.43c-4.65-1.51-7.28-2.53-7.28-5.97 0-3.75 3.47-5.46 6.7-5.46 2.78 0 5.4 1.25 6.84 3.25l.51.71 4.92-4.78-.48-.54C198.24 1.8 193.83.03 189.29.03c-6.68 0-13.86 3.65-13.86 11.65 0 7.21 5.03 9.76 10.46 11.46l.21.06c5.16 1.61 8.33 2.78 8.33 6.61s-3.58 5.78-6.91 5.78c-3.15 0-6.18-1.59-7.9-4.15l-.47-.69-5.35 4.52.45.57c2.9 3.66 7.82 5.84 13.16 5.84 6.95 0 13.97-3.82 13.97-12.35s-6.51-10.23-11.77-11.89ZM219.87 1l-17.22 39.7h7.58l3.83-9.39h17.12l3.89 9.39h7.68L225.72 1h-5.84Zm8.78 24.12h-12.09l6.07-15.14 6.02 15.14ZM258.18 1h-12.4v39.7h6.84V23.92h5.29c9.32 0 14.67-4.21 14.67-11.54S267.46 1 258.18 1Zm-5.56 6.03h5.02c8.05 0 8.05 4.03 8.05 5.35 0 3.66-2.74 5.51-8.15 5.51h-4.92V7.03Z" style="fill:#d31245"/><path d="M78.18.94h1.5v40.02h-1.5z" style="fill:#ffc425"/><path d="M10.58 15.66h3.74L24.8 39.98h-4.95l-2.27-5.56H7.04l-2.2 5.56H0l10.58-24.32Zm5.5 15.05-3.74-9.89-3.81 9.89h7.56ZM43.27 21.36c-1.27-1.75-3.57-2.51-5.53-2.51-5.01 0-8.42 3.88-8.42 8.9 0 5.29 3.23 8.97 8.24 8.97 2.61 0 4.67-1.13 5.91-2.82l3.47 2.44c-2.13 2.68-5.29 4.26-9.41 4.26-7.59 0-12.99-5.26-12.99-12.85s5.7-12.71 13.19-12.71c3.16 0 6.9 1.17 8.83 3.71l-3.3 2.61ZM49.44 15.66h7.93c5.57 0 9.17 1.96 9.17 7.04 0 5.36-4.29 7.21-9.45 7.21h-3.33v10.06h-4.33V15.66Zm7.35 10.62c2.82 0 5.39-.69 5.39-3.57s-2.57-3.4-5.25-3.4h-3.16v6.97h3.02Z" style="fill:#008066"/><path d="M273.14 57.72c.08.05.21.09.34.09.17 0 .26-.08.26-.19s-.07-.17-.25-.23c-.23-.08-.38-.21-.38-.41 0-.23.19-.41.5-.41.15 0 .27.03.34.07l-.06.21a.563.563 0 0 0-.28-.07c-.16 0-.23.09-.23.17 0 .11.08.16.27.23.24.09.36.22.36.42 0 .23-.17.42-.54.42-.15 0-.3-.04-.38-.09l.06-.21ZM275.42 57.42c0-.18-.02-.4-.02-.59-.05.17-.1.36-.17.54l-.21.61h-.2l-.19-.6c-.05-.18-.1-.37-.14-.55 0 .18-.01.41-.03.6l-.03.57h-.24l.09-1.41h.34l.18.57c.05.17.09.33.13.49.04-.15.09-.33.14-.49l.19-.56h.33l.08 1.41h-.25l-.03-.57ZM95.93 60.16h.02l1.75-4.54h1.29v5.91h-.83v-4.95h-.02l-1.96 4.95h-.53l-1.95-4.95h-.02v4.95h-.8v-5.91h1.29l1.77 4.54ZM104.19 59.52v.26h-3.15c0 .17.04.32.11.47a1.222 1.222 0 0 0 .69.63c.15.06.32.09.49.09.27 0 .5-.06.69-.18.19-.12.35-.26.46-.43l.55.44c-.21.28-.46.49-.75.62s-.61.2-.96.2c-.3 0-.58-.05-.84-.15s-.48-.24-.66-.42-.33-.4-.43-.66c-.11-.26-.16-.54-.16-.85s.05-.59.15-.85a1.941 1.941 0 0 1 1.08-1.09c.25-.1.52-.15.81-.15s.55.05.79.14c.24.1.44.23.6.41s.29.39.38.65c.09.25.13.54.13.86Zm-.8-.32c0-.16-.03-.3-.08-.44s-.12-.25-.21-.36c-.09-.1-.21-.18-.34-.24-.14-.06-.3-.09-.48-.09-.17 0-.32.03-.47.09s-.28.14-.38.24a1.216 1.216 0 0 0-.39.8h2.36ZM108.55 60.9c-.15.24-.35.42-.61.55s-.53.19-.81.19c-.31 0-.58-.05-.83-.16s-.45-.26-.63-.45-.31-.41-.4-.67c-.09-.26-.14-.53-.14-.82s.05-.56.14-.81c.1-.25.23-.48.41-.66s.39-.34.63-.44c.24-.11.51-.16.81-.16.32 0 .6.07.84.2.24.14.43.3.57.5h.02v-2.95h.79v6.32h-.76v-.63h-.02Zm-2.61-1.36c0 .18.03.36.08.53.06.17.14.33.25.46s.25.24.41.32.35.12.57.12c.2 0 .38-.04.55-.12.16-.08.3-.18.42-.31s.21-.28.27-.45.1-.35.1-.54-.03-.37-.1-.54-.15-.33-.27-.46-.26-.24-.42-.32-.35-.12-.55-.12c-.22 0-.41.04-.57.12s-.3.18-.41.32-.19.29-.25.46c-.06.17-.08.35-.08.53ZM111.73 56.14c0 .14-.05.26-.15.36-.1.09-.22.14-.37.14s-.27-.05-.36-.15-.15-.22-.15-.36.05-.27.15-.36.22-.15.36-.15a.514.514 0 0 1 .52.51Zm-.12 5.39h-.79v-3.96h.79v3.96ZM115.87 58.57c-.08-.13-.21-.23-.38-.32s-.35-.13-.53-.13a1.204 1.204 0 0 0-.95.43c-.11.13-.2.28-.25.46-.06.17-.09.35-.09.54s.03.37.09.54c.06.17.14.32.25.45.11.13.25.24.41.31.16.08.35.12.55.12s.38-.04.55-.12.3-.18.41-.32l.53.48c-.17.19-.38.35-.63.45s-.53.16-.85.16-.59-.05-.85-.15a1.933 1.933 0 0 1-1.12-1.08c-.11-.26-.16-.54-.16-.86s.05-.6.16-.85c.11-.26.25-.48.44-.66.19-.18.41-.33.67-.43.26-.1.54-.15.84-.15.28 0 .56.06.83.17.28.11.49.27.66.48l-.57.46ZM119.8 58.96c0-.3-.09-.51-.27-.66s-.41-.21-.71-.21c-.22 0-.43.04-.63.13s-.36.2-.5.33l-.42-.5c.19-.18.43-.33.71-.43.28-.11.58-.16.91-.16.28 0 .53.04.74.12a1.326 1.326 0 0 1 .81.82c.07.19.1.39.1.61v1.73c0 .13 0 .27.01.42 0 .15.02.27.05.36h-.71c-.04-.19-.07-.38-.07-.57h-.03c-.14.21-.33.38-.55.49-.22.12-.48.18-.78.18-.16 0-.32-.02-.49-.06-.17-.04-.32-.11-.46-.2-.14-.09-.26-.22-.35-.38-.09-.16-.14-.35-.14-.58 0-.3.08-.54.24-.71.16-.18.37-.31.63-.4.26-.09.56-.15.89-.18.33-.03.66-.04.99-.04v-.11Zm-.19.68c-.19 0-.4 0-.61.02-.21.02-.4.05-.57.1-.17.05-.31.13-.42.23-.11.1-.17.23-.17.4a.52.52 0 0 0 .26.48c.08.05.16.08.26.1.09.02.19.03.29.03.37 0 .65-.11.85-.33.2-.22.3-.5.3-.83v-.21h-.19ZM122.78 61.53H122v-6.32h.78v6.32ZM127.34 58.22h.02l2.64-2.61h1.14l-2.87 2.71 3.05 3.21h-1.19l-2.77-3.06h-.02v3.06h-.83v-5.91h.83v2.61ZM132.81 57.57c.01.1.02.21.02.34v.31h.02c.05-.11.12-.2.2-.3.09-.09.19-.17.3-.24s.23-.12.37-.16c.13-.04.27-.06.42-.06.26 0 .48.04.66.13a1.34 1.34 0 0 1 .73.86c.06.19.09.4.09.63v2.46h-.79v-2.2c0-.16-.01-.31-.04-.46-.03-.15-.07-.27-.14-.38a.806.806 0 0 0-.28-.27.882.882 0 0 0-.45-.1c-.31 0-.57.12-.76.36-.2.24-.3.55-.3.95v2.11h-.79v-3.52c0-.17-.01-.31-.02-.44h.74ZM141.08 59.54c0 .31-.05.59-.16.84-.11.26-.26.48-.45.66s-.42.33-.68.43c-.26.1-.54.15-.84.15s-.58-.05-.84-.15c-.26-.1-.49-.25-.68-.43-.19-.19-.34-.41-.45-.66-.11-.26-.16-.54-.16-.84s.05-.59.16-.84.26-.47.45-.66c.19-.18.41-.33.68-.43.26-.1.54-.15.84-.15s.58.05.84.15c.26.1.49.25.68.43.19.18.34.4.45.66.11.25.16.53.16.84Zm-.82 0c0-.19-.03-.37-.09-.54-.06-.17-.14-.32-.26-.45a1.27 1.27 0 0 0-.41-.31c-.17-.08-.35-.12-.57-.12s-.4.04-.57.12c-.16.08-.3.18-.41.31-.11.13-.2.28-.26.45s-.09.35-.09.54.03.37.09.54c.06.17.14.32.26.46.11.13.25.24.41.32.17.08.35.12.57.12s.4-.04.57-.12c.16-.08.3-.18.41-.32.11-.13.2-.29.26-.46.06-.17.09-.35.09-.54ZM142.58 57.57l.89 3.02h.02l.94-3.02h.83l.96 3.02h.02l.89-3.02h.83l-1.31 3.96h-.82l-.98-2.97h-.02l-.97 2.97h-.82l-1.32-3.96h.85ZM149.66 61.53h-.78v-6.32h.78v6.32ZM154.85 59.52v.26h-3.15c0 .17.04.32.11.47a1.222 1.222 0 0 0 .69.63c.15.06.32.09.49.09.27 0 .5-.06.69-.18.19-.12.35-.26.46-.43l.55.44c-.21.28-.46.49-.75.62s-.61.2-.96.2c-.3 0-.58-.05-.84-.15s-.48-.24-.66-.42-.33-.4-.43-.66c-.11-.26-.16-.54-.16-.85s.05-.59.15-.85a1.941 1.941 0 0 1 1.08-1.09c.25-.1.52-.15.81-.15s.55.05.79.14c.24.1.44.23.6.41s.29.39.38.65c.09.25.13.54.13.86Zm-.8-.32c0-.16-.03-.3-.08-.44s-.12-.25-.21-.36c-.09-.1-.21-.18-.34-.24-.14-.06-.3-.09-.48-.09-.17 0-.32.03-.47.09s-.28.14-.38.24a1.216 1.216 0 0 0-.39.8h2.36ZM159.21 60.9c-.15.24-.35.42-.61.55s-.53.19-.81.19c-.31 0-.58-.05-.83-.16s-.45-.26-.63-.45-.31-.41-.4-.67c-.09-.26-.14-.53-.14-.82s.05-.56.14-.81c.1-.25.23-.48.41-.66s.39-.34.63-.44c.24-.11.51-.16.81-.16.32 0 .6.07.84.2.24.14.43.3.57.5h.02v-2.95h.79v6.32h-.76v-.63h-.02Zm-2.61-1.36c0 .18.03.36.08.53.06.17.14.33.25.46s.25.24.41.32.35.12.57.12c.2 0 .38-.04.55-.12.16-.08.3-.18.42-.31s.21-.28.27-.45.1-.35.1-.54-.03-.37-.1-.54-.15-.33-.27-.46-.26-.24-.42-.32-.35-.12-.55-.12c-.22 0-.41.04-.57.12s-.3.18-.41.32-.19.29-.25.46c-.06.17-.08.35-.08.53ZM161.78 62.2c.17.19.39.35.65.47s.52.18.8.18.48-.04.66-.11c.18-.07.32-.18.43-.31.11-.13.19-.29.23-.46.05-.18.07-.37.07-.58v-.51h-.02a1.4 1.4 0 0 1-.59.51c-.25.12-.52.18-.8.18-.3 0-.58-.05-.82-.16s-.46-.25-.63-.43-.31-.4-.4-.65c-.09-.25-.14-.51-.14-.8s.05-.55.14-.8c.09-.25.23-.47.4-.66.17-.19.38-.33.63-.44.24-.11.52-.16.82-.16.28 0 .56.06.81.18s.46.31.61.56h.02v-.63h.76v3.76c0 .29-.04.57-.11.83s-.19.5-.37.7-.4.37-.68.49-.62.18-1.04.18c-.35 0-.69-.06-1.04-.19-.35-.13-.65-.3-.9-.53l.5-.61Zm.24-2.69c0 .18.03.36.09.53s.15.31.26.44.25.23.41.31c.16.08.35.12.55.12s.39-.04.55-.11a1.285 1.285 0 0 0 .7-.74c.06-.17.1-.35.1-.55s-.03-.37-.1-.54-.16-.31-.28-.44c-.12-.13-.26-.23-.43-.3-.16-.08-.35-.11-.55-.11s-.39.04-.55.11c-.16.07-.3.18-.41.3s-.2.27-.26.44-.09.35-.09.54ZM170.57 59.52v.26h-3.15c0 .17.04.32.11.47a1.222 1.222 0 0 0 .69.63c.15.06.32.09.49.09.27 0 .5-.06.69-.18.19-.12.35-.26.46-.43l.55.44c-.21.28-.46.49-.75.62s-.61.2-.96.2c-.3 0-.58-.05-.84-.15s-.48-.24-.66-.42-.33-.4-.43-.66c-.11-.26-.16-.54-.16-.85s.05-.59.15-.85a1.941 1.941 0 0 1 1.08-1.09c.25-.1.52-.15.81-.15s.55.05.79.14c.24.1.44.23.6.41s.29.39.38.65c.09.25.13.54.13.86Zm-.8-.32c0-.16-.03-.3-.08-.44s-.12-.25-.21-.36c-.09-.1-.21-.18-.34-.24-.14-.06-.3-.09-.48-.09-.17 0-.32.03-.47.09s-.28.14-.38.24a1.216 1.216 0 0 0-.39.8h2.36ZM176.96 56.71a1.389 1.389 0 0 0-1.16-.55c-.13 0-.27.02-.4.05-.14.04-.26.09-.37.18-.11.08-.2.18-.27.3s-.1.26-.1.43.03.3.1.4c.06.11.15.2.26.28.11.07.24.14.38.19.15.05.3.11.47.16.2.06.4.13.61.21.21.08.39.18.56.31s.3.29.41.48c.11.19.16.44.16.73s-.06.57-.17.8c-.11.23-.27.41-.46.56s-.41.26-.66.33a2.71 2.71 0 0 1-1.84-.11 2.14 2.14 0 0 1-.86-.64l.64-.54c.14.21.33.37.56.5.23.13.49.19.76.19.14 0 .28-.02.42-.06.14-.04.27-.1.38-.18.11-.08.21-.19.28-.31.07-.13.11-.28.11-.46s-.04-.33-.11-.45-.18-.22-.3-.31c-.13-.08-.28-.15-.45-.21-.17-.06-.35-.12-.54-.18-.19-.06-.38-.12-.56-.2-.18-.08-.35-.18-.49-.31s-.26-.28-.35-.46c-.09-.18-.13-.41-.13-.68 0-.3.06-.55.18-.76s.28-.39.47-.53c.19-.14.41-.24.65-.31.24-.06.49-.1.73-.1.35 0 .67.06.97.18.3.12.54.29.73.49l-.58.57ZM182.55 59.52v.26h-3.15c0 .17.04.32.11.47a1.222 1.222 0 0 0 .69.63c.15.06.32.09.49.09.27 0 .5-.06.69-.18.19-.12.35-.26.46-.43l.55.44c-.21.28-.46.49-.75.62s-.61.2-.96.2c-.3 0-.58-.05-.84-.15s-.48-.24-.66-.42-.33-.4-.43-.66c-.11-.26-.16-.54-.16-.85s.05-.59.15-.85a1.941 1.941 0 0 1 1.08-1.09c.25-.1.52-.15.81-.15s.55.05.79.14c.24.1.44.23.6.41s.29.39.38.65c.09.25.13.54.13.86Zm-.8-.32c0-.16-.03-.3-.08-.44s-.12-.25-.21-.36c-.09-.1-.21-.18-.34-.24-.14-.06-.3-.09-.48-.09-.17 0-.32.03-.47.09s-.28.14-.38.24a1.216 1.216 0 0 0-.39.8h2.36ZM184.55 61.53h-.78v-6.32h.78v6.32ZM187.9 58.21h-.92v3.32h-.79v-3.32h-.78v-.64h.78v-.83c0-.23.03-.45.08-.65s.14-.37.26-.51.27-.26.46-.34.41-.13.68-.13c.19 0 .35.02.49.06l-.09.68c-.06-.02-.12-.03-.18-.04-.06-.01-.13-.02-.21-.02-.15 0-.27.03-.36.08a.53.53 0 0 0-.21.21c-.05.09-.08.19-.1.31-.02.11-.02.23-.02.35v.83h.92v.64ZM190.37 59.82h-1.94v-.66h1.94v.66ZM191.82 61.53h-.92l2.56-5.91h.75l2.54 5.91h-.94l-.6-1.45h-2.81l-.59 1.45Zm.89-2.18h2.21l-1.1-2.77-1.11 2.77ZM199.73 58.57a1.085 1.085 0 0 0-.92-.5c-.09 0-.18 0-.27.03-.09.02-.17.05-.24.09s-.13.09-.17.16c-.04.06-.06.14-.06.24 0 .17.08.29.23.37.15.08.38.15.68.22.19.04.36.1.53.16.16.06.3.14.42.23s.21.2.28.33c.07.13.1.28.1.45 0 .23-.04.43-.13.59-.09.16-.21.29-.36.4-.15.1-.32.18-.51.22-.19.04-.38.07-.58.07-.3 0-.59-.06-.88-.18-.29-.12-.52-.3-.71-.54l.56-.48c.11.16.25.29.44.39.19.11.39.16.61.16.1 0 .2 0 .29-.03.09-.02.18-.05.25-.1s.13-.1.18-.18a.55.55 0 0 0 .07-.28c0-.18-.09-.32-.26-.41-.18-.09-.43-.17-.77-.25-.13-.03-.27-.07-.4-.12-.14-.05-.26-.11-.37-.2s-.2-.19-.27-.31-.1-.28-.1-.46c0-.21.04-.39.13-.55.09-.15.2-.28.34-.38s.3-.17.48-.22.36-.07.55-.07c.28 0 .56.06.82.17.26.11.47.27.61.48l-.54.46ZM203.56 58.57a1.085 1.085 0 0 0-.92-.5c-.09 0-.18 0-.27.03-.09.02-.17.05-.24.09s-.13.09-.17.16c-.04.06-.06.14-.06.24 0 .17.08.29.23.37.15.08.38.15.68.22.19.04.36.1.53.16.16.06.3.14.42.23s.21.2.28.33c.07.13.1.28.1.45 0 .23-.04.43-.13.59-.09.16-.21.29-.36.4-.15.1-.32.18-.51.22-.19.04-.38.07-.58.07-.3 0-.59-.06-.88-.18-.29-.12-.52-.3-.71-.54l.56-.48c.11.16.25.29.44.39.19.11.39.16.61.16.1 0 .2 0 .29-.03.09-.02.18-.05.25-.1s.13-.1.18-.18a.55.55 0 0 0 .07-.28c0-.18-.09-.32-.26-.41-.18-.09-.43-.17-.77-.25-.13-.03-.27-.07-.4-.12-.14-.05-.26-.11-.37-.2s-.2-.19-.27-.31-.1-.28-.1-.46c0-.21.04-.39.13-.55.09-.15.2-.28.34-.38s.3-.17.48-.22.36-.07.55-.07c.28 0 .56.06.82.17.26.11.47.27.61.48l-.54.46ZM208.94 59.52v.26h-3.15c0 .17.04.32.11.47s.16.27.28.38c.12.11.25.19.4.25s.32.09.49.09c.27 0 .5-.06.69-.18.19-.12.35-.26.46-.43l.55.44c-.21.28-.46.49-.75.62s-.6.2-.96.2c-.3 0-.58-.05-.84-.15a1.867 1.867 0 0 1-1.09-1.08c-.11-.26-.16-.54-.16-.85s.05-.59.15-.85a1.941 1.941 0 0 1 1.08-1.09c.25-.1.52-.15.81-.15s.55.05.79.14c.24.1.44.23.6.41.17.18.29.39.38.65.09.25.13.54.13.86Zm-.8-.32c0-.16-.03-.3-.08-.44s-.12-.25-.21-.36c-.09-.1-.21-.18-.34-.24s-.3-.09-.48-.09c-.17 0-.32.03-.47.09-.15.06-.28.14-.38.24a1.216 1.216 0 0 0-.39.8h2.36ZM212.28 58.57a1.085 1.085 0 0 0-.92-.5c-.09 0-.18 0-.27.03-.09.02-.17.05-.24.09s-.13.09-.17.16c-.04.06-.06.14-.06.24 0 .17.08.29.23.37s.38.15.68.22c.19.04.37.1.53.16.16.06.3.14.42.23s.21.2.28.33c.07.13.1.28.1.45 0 .23-.04.43-.13.59-.09.16-.21.29-.36.4-.15.1-.32.18-.51.22-.19.04-.38.07-.58.07-.3 0-.59-.06-.88-.18-.29-.12-.52-.3-.71-.54l.56-.48c.11.16.25.29.44.39.19.11.39.16.61.16.1 0 .2 0 .29-.03.09-.02.18-.05.25-.1.08-.04.14-.1.18-.18a.55.55 0 0 0 .07-.28c0-.18-.09-.32-.26-.41-.18-.09-.43-.17-.77-.25-.13-.03-.27-.07-.4-.12-.14-.05-.26-.11-.37-.2s-.2-.19-.27-.31-.1-.28-.1-.46c0-.21.04-.39.13-.55.09-.15.2-.28.34-.38s.3-.17.48-.22.36-.07.55-.07c.28 0 .56.06.82.17.26.11.47.27.61.48l-.54.46ZM216.11 58.57a1.085 1.085 0 0 0-.92-.5c-.09 0-.18 0-.27.03-.09.02-.17.05-.24.09s-.13.09-.17.16c-.04.06-.06.14-.06.24 0 .17.08.29.23.37s.38.15.68.22c.19.04.37.1.53.16.16.06.3.14.42.23s.21.2.28.33c.07.13.1.28.1.45 0 .23-.04.43-.13.59-.09.16-.21.29-.36.4-.15.1-.32.18-.51.22-.19.04-.38.07-.58.07-.3 0-.59-.06-.88-.18-.29-.12-.52-.3-.71-.54l.56-.48c.11.16.25.29.44.39.19.11.39.16.61.16.1 0 .2 0 .29-.03.09-.02.18-.05.25-.1.08-.04.14-.1.18-.18a.55.55 0 0 0 .07-.28c0-.18-.09-.32-.26-.41-.18-.09-.43-.17-.77-.25-.13-.03-.27-.07-.4-.12-.14-.05-.26-.11-.37-.2-.11-.08-.2-.19-.27-.31s-.1-.28-.1-.46c0-.21.04-.39.13-.55.09-.15.2-.28.34-.38s.3-.17.48-.22.36-.07.55-.07c.28 0 .56.06.82.17.26.11.47.27.61.48l-.54.46ZM219.05 57.68c.22-.15.48-.22.78-.22.27 0 .51.06.72.18.21.12.38.33.51.61.13-.26.32-.45.56-.59.24-.14.5-.2.79-.2.26 0 .48.04.66.13a1.34 1.34 0 0 1 .73.86c.06.2.09.4.09.63v2.46h-.78v-2.2c0-.16-.01-.31-.04-.46-.03-.15-.08-.27-.14-.38s-.16-.2-.27-.27c-.11-.07-.25-.1-.43-.1s-.33.04-.46.11a.96.96 0 0 0-.31.29c-.08.12-.14.25-.18.4s-.05.3-.05.46v2.14h-.78v-2.36c0-.16-.01-.3-.04-.43a.825.825 0 0 0-.14-.33.802.802 0 0 0-.26-.22.935.935 0 0 0-.39-.08c-.29 0-.53.12-.72.36-.19.24-.29.55-.29.95v2.11h-.78v-3.52c0-.17-.01-.31-.02-.44h.74c.01.1.02.21.02.34v.31h.03c.1-.21.26-.39.48-.54ZM229.02 59.52v.26h-3.15c0 .17.04.32.11.47s.16.27.28.38c.12.11.25.19.4.25s.32.09.49.09c.27 0 .5-.06.69-.18.19-.12.35-.26.46-.43l.55.44c-.21.28-.46.49-.75.62s-.6.2-.96.2c-.3 0-.58-.05-.84-.15a1.867 1.867 0 0 1-1.09-1.08c-.11-.26-.16-.54-.16-.85s.05-.59.15-.85a1.941 1.941 0 0 1 1.08-1.09c.25-.1.52-.15.81-.15s.55.05.79.14c.24.1.44.23.6.41.17.18.29.39.38.65.09.25.13.54.13.86Zm-.8-.32c0-.16-.03-.3-.08-.44s-.12-.25-.21-.36c-.09-.1-.21-.18-.34-.24s-.3-.09-.48-.09c-.17 0-.32.03-.47.09-.15.06-.28.14-.38.24a1.216 1.216 0 0 0-.39.8h2.36ZM230.94 57.57c.01.1.02.21.02.34v.31h.03c.05-.11.12-.2.2-.3.09-.09.19-.17.3-.24s.23-.12.37-.16c.13-.04.27-.06.42-.06.26 0 .48.04.66.13a1.34 1.34 0 0 1 .73.86c.06.2.09.4.09.63v2.46h-.78v-2.2c0-.16-.01-.31-.04-.46a.91.91 0 0 0-.14-.38.806.806 0 0 0-.28-.27.882.882 0 0 0-.45-.1c-.31 0-.57.12-.76.36-.2.24-.3.55-.3.95v2.11h-.78v-3.52c0-.17-.01-.31-.02-.44h.74ZM237.14 58.21h-1.05v2.06c0 .24.04.41.13.51.09.1.23.15.43.15.07 0 .15 0 .23-.02.08-.01.16-.04.23-.07l.02.64a2.016 2.016 0 0 1-.67.11c-.37 0-.66-.1-.86-.31-.2-.21-.3-.51-.3-.93V58.2h-.76v-.64h.76v-1.14h.78v1.14h1.05v.64ZM240.32 55.61h1.8c.32 0 .61.03.87.1.26.06.48.16.67.3.18.13.33.3.43.51.1.21.15.45.15.74s-.05.55-.16.76c-.11.21-.26.38-.45.52-.19.13-.42.23-.68.3-.26.06-.55.1-.86.1h-.94v2.6h-.83v-5.91Zm.82 2.62h.88c.2 0 .39-.02.56-.05.17-.04.32-.09.44-.17.12-.07.22-.17.28-.3.07-.12.1-.27.1-.45s-.03-.33-.1-.45a.865.865 0 0 0-.28-.29 1.1 1.1 0 0 0-.43-.16c-.17-.03-.35-.05-.54-.05h-.89v1.91ZM244.97 58.01c0-.17-.01-.31-.02-.44h.74c.01.1.02.22.02.35v.32h.03c.11-.23.27-.42.49-.56.21-.14.45-.21.72-.21.12 0 .23.01.31.03l-.03.73a1.37 1.37 0 0 0-.36-.04c-.19 0-.35.03-.49.1s-.25.16-.35.28c-.09.12-.16.25-.2.4-.04.15-.07.31-.07.48v2.08h-.78v-3.52ZM251.98 59.54c0 .31-.05.59-.16.84-.11.26-.26.48-.45.66-.19.19-.42.33-.68.43-.26.1-.54.15-.84.15s-.58-.05-.84-.15c-.26-.1-.49-.25-.68-.43-.19-.19-.34-.41-.45-.66-.11-.26-.16-.54-.16-.84s.05-.59.16-.84.26-.47.45-.66c.19-.18.41-.33.68-.43.26-.1.54-.15.84-.15s.58.05.84.15c.26.1.49.25.68.43.19.18.34.4.45.66.11.25.16.53.16.84Zm-.82 0c0-.19-.03-.37-.09-.54s-.14-.32-.26-.45a1.261 1.261 0 0 0-.98-.43c-.22 0-.4.04-.57.12s-.3.18-.41.31c-.11.13-.2.28-.26.45s-.09.35-.09.54.03.37.09.54c.06.17.14.32.26.46.11.13.25.24.41.32.17.08.35.12.57.12s.4-.04.57-.12c.17-.08.3-.18.41-.32.11-.13.2-.29.26-.46.06-.17.09-.35.09-.54ZM253.49 62.2c.17.19.39.35.65.47s.52.18.8.18.48-.04.66-.11c.18-.07.32-.18.43-.31.11-.13.19-.29.23-.46.05-.18.07-.37.07-.58v-.51h-.02c-.15.22-.34.39-.59.51s-.52.18-.8.18c-.3 0-.58-.05-.82-.16-.25-.11-.46-.25-.63-.43-.17-.18-.31-.4-.4-.65-.1-.25-.14-.51-.14-.8s.05-.55.14-.8c.09-.25.23-.47.4-.66.17-.19.38-.33.63-.44a2 2 0 0 1 .82-.16c.28 0 .56.06.81.18s.46.31.61.56h.02v-.63h.76v3.76c0 .29-.04.57-.11.83s-.19.5-.37.7c-.17.2-.4.37-.68.49s-.62.18-1.04.18c-.35 0-.69-.06-1.04-.19-.35-.13-.65-.3-.9-.53l.5-.61Zm.24-2.69c0 .18.03.36.09.53s.15.31.26.44c.12.13.25.23.41.31.16.08.35.12.55.12s.39-.04.55-.11c.17-.07.31-.17.43-.3s.21-.27.27-.44c.06-.17.1-.35.1-.55s-.03-.37-.1-.54c-.06-.17-.16-.31-.28-.44-.12-.13-.26-.23-.43-.3-.17-.08-.35-.11-.55-.11s-.39.04-.55.11c-.16.07-.3.18-.41.3-.11.13-.2.27-.26.44s-.09.35-.09.54ZM258.57 58.01c0-.17-.01-.31-.02-.44h.74c.01.1.02.22.02.35v.32h.03c.11-.23.27-.42.49-.56.21-.14.45-.21.72-.21.12 0 .23.01.31.03l-.03.73a1.37 1.37 0 0 0-.36-.04c-.19 0-.35.03-.49.1s-.25.16-.35.28c-.09.12-.16.25-.2.4-.04.15-.07.31-.07.48v2.08h-.78v-3.52ZM264.08 58.96c0-.3-.09-.51-.27-.66-.18-.14-.41-.21-.71-.21-.22 0-.43.04-.63.13s-.36.2-.5.33l-.42-.5c.19-.18.43-.33.71-.43.28-.11.58-.16.91-.16.28 0 .53.04.74.12.21.08.38.19.51.33s.23.3.3.49c.07.19.1.39.1.61v1.73c0 .13 0 .27.01.42 0 .15.02.27.05.36h-.71c-.04-.19-.07-.38-.07-.57h-.02c-.15.21-.33.38-.55.49-.22.12-.48.18-.78.18-.16 0-.32-.02-.49-.06s-.32-.11-.46-.2-.25-.22-.35-.38c-.09-.16-.14-.35-.14-.58 0-.3.08-.54.24-.71.16-.18.37-.31.63-.4.26-.09.56-.15.89-.18s.66-.04.99-.04v-.11Zm-.2.68c-.19 0-.4 0-.61.02s-.4.05-.57.1-.31.13-.42.23-.17.23-.17.4a.52.52 0 0 0 .26.48c.08.05.16.08.26.1.09.02.19.03.29.03.37 0 .65-.11.85-.33.2-.22.3-.5.3-.83v-.21h-.19ZM267.5 57.68c.22-.15.48-.22.78-.22.27 0 .51.06.72.18.21.12.38.33.51.61.13-.26.32-.45.56-.59.24-.14.5-.2.79-.2.26 0 .48.04.66.13a1.34 1.34 0 0 1 .73.86c.06.2.09.4.09.63v2.46h-.78v-2.2c0-.16-.01-.31-.04-.46-.03-.15-.08-.27-.14-.38s-.16-.2-.27-.27c-.11-.07-.25-.1-.43-.1s-.33.04-.46.11a.96.96 0 0 0-.31.29c-.08.12-.14.25-.18.4s-.05.3-.05.46v2.14h-.78v-2.36c0-.16-.01-.3-.04-.43a.825.825 0 0 0-.14-.33.802.802 0 0 0-.26-.22.935.935 0 0 0-.39-.08c-.29 0-.53.12-.72.36-.19.24-.29.55-.29.95v2.11h-.78v-3.52c0-.17-.01-.31-.02-.44h.74c.01.1.02.21.02.34v.31h.03c.1-.21.26-.39.48-.54Z" style="fill:#231f20"/></svg>