<?xml version="1.0" encoding="UTF-8"?>
<svg viewBox="0 0 513 632.6" xmlns="http://www.w3.org/2000/svg">
<defs>
<clipPath id="a">
<path d="m0 0h513v632.6h-513z"/>
</clipPath>
</defs>
<g clip-path="url(#a)">
<path d="m513 632.6h-513v-632.6h513v632.6" fill="#fff"/>
</g>
<path d="m75 378.1h-0.5v-118.6h0.5v118.6" fill="#231f1f"/>
<path d="m221.3 334.9h-175.6v-0.5h175.6v0.5" fill="#231f1f"/>
<path d="m77.19 197h-0.5v-136.3h0.5v136.3" fill="#231f1f"/>
<path transform="matrix(.1 0 0 -.1 0 632.6)" d="m457.7 4851h1756" fill="none" stroke="#231f1f" stroke-width="5"/>
<path transform="matrix(.1 0 0 -.1 0 632.6)" d="m3093 3731v-1186" fill="none" stroke="#231f1f" stroke-width="5"/>
<path d="m454.4 334.5h-179.9v-0.5h179.9v0.5" fill="#231f1f"/>
<path d="m75 577h-0.5v-121.1h0.5v121.1" fill="#231f1f"/>
<path d="m221.3 531.3h-175.6v-0.5h175.6v0.5" fill="#231f1f"/>
<path d="m304.6 577h-0.5v-121.1h0.5v121.1" fill="#231f1f"/>
<path d="m454.4 531.3h-179.1v-0.5h179.1v0.5" fill="#231f1f"/>
<path d="m49.14 243.1c-1.777 0-2.91 1.367-2.91 3.012 0 1.672 1.145 3.012 2.91 3.012 1.789 0 2.934-1.34 2.934-3.012 0-1.645-1.133-3.012-2.934-3.012zm0 6.965c-2.344 0-4.078-1.645-4.078-3.953 0-2.344 1.734-3.934 4.078-3.934 2.355 0 4.102 1.59 4.102 3.934 0 2.309-1.746 3.953-4.102 3.953" fill="#231f1f"/>
<path d="m57.39 245.5c-1.051 0-1.746 0.8594-1.746 1.824 0 0.9648 0.6953 1.812 1.746 1.812 1.121 0 1.723-0.8789 1.723-1.824 0-0.9414-0.6016-1.812-1.723-1.812zm-1.715 3.539v0.7969h-0.9922v-8.012h1.023v3.742h0.03516c0.3477-0.4883 0.9922-0.8906 1.844-0.8906 1.535 0 2.582 1.152 2.582 2.637 0 1.473-1.012 2.66-2.605 2.66-0.7305 0-1.461-0.3281-1.863-0.9336h-0.02344" fill="#231f1f"/>
<path d="m64.39 246.1c-0.2305-0.3633-0.6758-0.625-1.199-0.625-0.4688 0-0.9609 0.1797-0.9609 0.6562 0 0.4219 0.3945 0.582 1.18 0.75 0.9805 0.2109 1.734 0.6055 1.734 1.484 0 1.188-1.016 1.621-2.062 1.621-0.7852 0-1.594-0.2969-2.082-0.8984l0.7305-0.6055c0.2734 0.3906 0.7969 0.6992 1.375 0.6992 0.5117 0 1.023-0.1797 1.023-0.7305 0-0.4648-0.4688-0.6367-1.352-0.8359-0.6875-0.1602-1.504-0.4453-1.504-1.391 0-1.082 0.9688-1.535 1.949-1.535 0.7344 0 1.508 0.2852 1.879 0.8242l-0.7109 0.5859" fill="#231f1f"/>
<path d="m68.97 245.6h-1.375v2.617c0 0.6055 0.2188 0.8477 0.7305 0.8477 0.1875 0 0.4258-0.04297 0.6016-0.125l0.03125 0.8164c-0.2383 0.08203-0.5547 0.1367-0.8711 0.1367-0.9727 0-1.504-0.5312-1.504-1.57v-2.723h-0.9961v-0.8164h0.9961v-1.441h1.012v1.441h1.375v0.8164" fill="#231f1f"/>
<path d="m69.99 244.8h0.9688c0.02344 0.2539 0.04297 0.6367 0.04297 0.8477h0.03516c0.2812-0.582 0.8828-0.9844 1.582-0.9844 0.1406 0 0.2812 0.007813 0.4023 0.04297l-0.04297 0.9219c-0.1328-0.03516-0.3086-0.05469-0.4688-0.05469-0.9844 0-1.453 0.7734-1.453 1.609v2.641h-1.023v-3.941c0-0.2656-0.01172-0.7539-0.04297-1.082" fill="#231f1f"/>
<path d="m77.62 249.8c-0.01953-0.2539-0.04297-0.6133-0.04297-0.8281h-0.01953c-0.2656 0.5312-0.9414 0.9648-1.691 0.9648-1.332 0-1.93-0.9219-1.93-2.043v-3.117h1.023v2.777c0 0.8242 0.2305 1.547 1.18 1.547 0.8164 0 1.383-0.6562 1.383-1.652v-2.672h1.027v3.941c0 0.2656 0.007813 0.7539 0.04297 1.082h-0.9727" fill="#231f1f"/>
<path d="m83.95 246.1c-0.2188-0.3281-0.6992-0.5742-1.188-0.5742-1.07 0-1.691 0.8477-1.691 1.812 0 0.9531 0.6211 1.812 1.699 1.812 0.5234 0 0.9727-0.2109 1.246-0.5508l0.6875 0.6055c-0.4375 0.4844-1.102 0.7812-1.934 0.7812-1.59 0-2.781-1.047-2.781-2.648 0-1.578 1.18-2.648 2.762-2.648 0.7305 0 1.516 0.2852 1.941 0.8242l-0.7422 0.5859" fill="#231f1f"/>
<path d="m88.25 245.6h-1.375v2.617c0 0.6055 0.2188 0.8477 0.7305 0.8477 0.1875 0 0.4258-0.04297 0.6016-0.125l0.03125 0.8164c-0.2383 0.08203-0.5547 0.1367-0.8711 0.1367-0.9688 0-1.504-0.5312-1.504-1.57v-2.723h-0.9922v-0.8164h0.9922v-1.441h1.012v1.441h1.375v0.8164" fill="#231f1f"/>
<path d="m90.34 249.8h-1.023v-5.023h1.023zm-0.5117-6.199c-0.3711 0-0.6758-0.2852-0.6758-0.6367 0-0.3594 0.3047-0.6484 0.6758-0.6484s0.6875 0.2773 0.6875 0.6484c0 0.3594-0.3164 0.6367-0.6875 0.6367" fill="#231f1f"/>
<path d="m94.56 249.8h-1.113l-2.105-5.023h1.137l1.516 3.953h0.01953l1.527-3.953h1.094l-2.074 5.023" fill="#231f1f"/>
<path d="m101.4 246.9c-0.02344-0.793-0.5039-1.418-1.453-1.418-0.8828 0-1.559 0.6328-1.625 1.418zm1.023 0.7422h-4.102c0.03516 0.8594 0.7734 1.527 1.68 1.527 0.6992 0 1.211-0.3398 1.504-0.7656l0.7227 0.5625c-0.5586 0.6992-1.309 1.027-2.227 1.027-1.57 0-2.727-1.059-2.727-2.637 0-1.57 1.156-2.66 2.672-2.66 1.527 0 2.488 1.004 2.488 2.605 0 0.1055 0 0.2227-0.01172 0.3398" fill="#231f1f"/>
<path d="m50.5 47.82h0.02344v-5.996h1.078v7.504h-1.363l-4.078-6.129h-0.02344v6.129h-1.078v-7.504h1.406l4.035 5.996" fill="#231f1f"/>
<path d="m55.87 45c-1.102 0-1.723 0.8594-1.723 1.812s0.6211 1.824 1.723 1.824c1.113 0 1.723-0.8711 1.723-1.824s-0.6094-1.812-1.723-1.812zm0 4.473c-1.582 0-2.781-1.113-2.781-2.66s1.199-2.637 2.781-2.637c1.582 0 2.793 1.09 2.793 2.637s-1.211 2.66-2.793 2.66" fill="#231f1f"/>
<path d="m60.04 44.31h0.9688c0.02344 0.2539 0.04297 0.6328 0.04297 0.8477h0.03516c0.2812-0.582 0.8828-0.9844 1.582-0.9844 0.1406 0 0.2812 0.007813 0.4023 0.03906l-0.04297 0.9219c-0.1328-0.03125-0.3047-0.05078-0.4688-0.05078-0.9805 0-1.453 0.7734-1.453 1.609v2.641h-1.023v-3.941c0-0.2695-0.01172-0.7539-0.04297-1.082" fill="#231f1f"/>
<path d="m66.68 44.17c0.6875 0 1.289 0.293 1.605 1.004 0.3477-0.6445 1.023-1.004 1.754-1.004 1.332 0 1.934 0.918 1.934 2.043v3.117h-1.027v-2.789c0-0.8164-0.25-1.535-1.145-1.535-0.9375 0-1.309 0.8242-1.309 1.609v2.715h-1.027v-2.988c0-0.7852-0.2695-1.336-1.09-1.336-0.7539 0-1.32 0.6562-1.32 1.652v2.672h-1.023v-3.941c0-0.2695-0.01172-0.7539-0.04297-1.082h0.9688c0.02344 0.2539 0.04297 0.6133 0.04297 0.8242h0.03516c0.2617-0.5273 0.8594-0.9609 1.645-0.9609" fill="#231f1f"/>
<path d="m76.67 46.94c-1.012 0-2.301 0.1055-2.301 0.9531 0 0.5938 0.5469 0.7852 1.059 0.7852 0.9609 0 1.492-0.6289 1.492-1.477v-0.2617zm0.25-0.8594c0-0.7422-0.5117-1.102-1.273-1.102-0.5781 0-1.125 0.2422-1.473 0.582l-0.5469-0.6367c0.5039-0.4688 1.277-0.75 2.117-0.75 1.484 0 2.16 0.8555 2.16 1.969v2.195c0 0.3398 0.01953 0.75 0.07422 0.9961h-0.9258c-0.05469-0.2227-0.08594-0.4883-0.08594-0.7227h-0.03516c-0.3711 0.543-0.9609 0.8516-1.734 0.8516-0.8164 0-1.875-0.3945-1.875-1.551 0-1.516 1.855-1.695 3.598-1.695v-0.1367" fill="#231f1f"/>
<path d="m80.66 49.33h-1.023v-8.016h1.023v8.016" fill="#231f1f"/>
<path d="m67.42 116v0.8945h-6.219v-3.992h0.7617v3.098h1.934v-2.898h0.7461v2.898h2.777" fill="#231f1f"/>
<path d="m67.42 110.9v0.8516h-6.641v-0.8516h6.641" fill="#231f1f"/>
<path d="m63.82 107.4c0 0.9141 0.7109 1.43 1.504 1.43 0.7891 0 1.508-0.5156 1.508-1.43 0-0.9219-0.7188-1.426-1.508-1.426-0.793 0-1.504 0.5039-1.504 1.426zm3.707 0c0 1.309-0.9219 2.305-2.203 2.305-1.285 0-2.188-0.9961-2.188-2.305s0.9023-2.312 2.188-2.312c1.281 0 2.203 1.004 2.203 2.312" fill="#231f1f"/>
<path d="m63.25 103.6 3.18-0.9688v-0.01562l-3.18-1.023v-0.8945l3.18-1.039v-0.01562l-3.18-0.9648v-0.8984l4.164 1.422v0.8828l-3.129 1.059v0.01562l3.129 1.051v0.8828l-4.164 1.43v-0.9219" fill="#231f1f"/>
<path d="m179.1 139.8h0.02734l1.922-5.098h0.9688l-2.512 6.219h-0.832l-2.492-6.219h0.9922l1.926 5.098" fill="#231f1f"/>
<path d="m184.8 137.3c-0.9141 0-1.426 0.7148-1.426 1.504 0 0.793 0.5117 1.512 1.426 1.512 0.9219 0 1.43-0.7188 1.43-1.512 0-0.7891-0.5078-1.504-1.43-1.504zm0 3.707c-1.309 0-2.301-0.9219-2.301-2.203s0.9922-2.188 2.301-2.188c1.312 0 2.312 0.9062 2.312 2.188s-1 2.203-2.312 2.203" fill="#231f1f"/>
<path d="m189.1 140.9h-0.8516v-6.641h0.8516v6.641" fill="#231f1f"/>
<path d="m193.6 140.9c-0.01953-0.207-0.03516-0.5078-0.03516-0.6836h-0.01953c-0.2148 0.4375-0.7773 0.7969-1.398 0.7969-1.102 0-1.602-0.7617-1.602-1.691v-2.586h0.8516v2.305c0 0.6836 0.1875 1.281 0.9727 1.281 0.6797 0 1.148-0.543 1.148-1.371v-2.215h0.8516v3.27c0 0.2188 0.007812 0.625 0.03516 0.8945h-0.8047" fill="#231f1f"/>
<path d="m198.1 136.6c0.5703 0 1.066 0.2461 1.328 0.8359 0.2891-0.5391 0.8516-0.8359 1.457-0.8359 1.102 0 1.598 0.7656 1.598 1.695v2.582h-0.8516v-2.309c0-0.6758-0.207-1.273-0.9453-1.273-0.7773 0-1.086 0.6836-1.086 1.336v2.246h-0.8477v-2.477c0-0.6484-0.2266-1.105-0.9062-1.105-0.6211 0-1.09 0.543-1.09 1.371v2.211h-0.8516v-3.266c0-0.2188-0.007813-0.625-0.03516-0.8984h0.8047c0.01562 0.2109 0.03516 0.5117 0.03516 0.6875h0.02734c0.2188-0.4414 0.7148-0.8008 1.363-0.8008" fill="#231f1f"/>
<path d="m207 138.4c-0.01562-0.6602-0.4141-1.176-1.199-1.176-0.7305 0-1.293 0.5234-1.348 1.176zm0.8516 0.6133h-3.398c0.02734 0.7148 0.6406 1.266 1.391 1.266 0.5781 0 1.004-0.2812 1.246-0.6328l0.5977 0.4648c-0.4609 0.582-1.082 0.8516-1.844 0.8516-1.301 0-2.258-0.875-2.258-2.184 0-1.301 0.957-2.207 2.215-2.207 1.266 0 2.059 0.8359 2.059 2.16 0 0.08984 0 0.1836-0.007812 0.2812" fill="#231f1f"/>
<path transform="matrix(.1 0 0 -.1 0 632.6)" d="m1701 4851c-14.26-156.4-150.8-232.9-266.1-303.2-71.45-43.59-239.5-114.4-433.3 26.25-135.5 98.32-239.9 244.6-231.9 277 38.79 157.1 63.55 141 102.6 327.4 148.2 707 280 280.5 494.1 43.83 163.5-180.7 266.1-303.1 334.5-371.2z" fill="none" stroke="#2d9edf" stroke-width="10"/>
<path transform="matrix(.1 0 0 -.1 0 632.6)" d="m4076 4846c-48.59-135.7-152-250.7-268.1-323.6-71.95-45.08-241.3-118.2-436.6 27.15-136.5 101.7-241.7 252.9-233.6 286.4 39.1 162.4 64.02 145.8 103.4 338.5 149.4 731.1 282.2 290 497.9 45.31 164.7-186.8 268.1-303.4 337-373.8z" fill="none" stroke="#2d9edf" stroke-width="10"/>
<path transform="matrix(.1 0 0 -.1 0 632.6)" d="m3929 2984c-13.05-161.6-137.7-240.5-242.9-313.1-65.2-45.04-193.3-78.87-395.5 27.11-166.2 87.07-182.4 230.5-184.2 264.8-8.008 153.4-12.23 178.5 23.44 370.9 135.3 730.1 298.4 278 493.9 33.63 149.2-186.6 242.9-313 305.4-383.3z" fill="none" stroke="#2d9edf" stroke-width="10"/>
<path transform="matrix(.1 0 0 -.1 0 632.6)" d="m1614 2978c-13.28-145.5-140.3-216.6-247.5-282-66.41-40.55-222.7-106.4-403 24.41-126.1 91.45-223.1 227.5-215.7 257.6 36.09 146.1 59.1 131.1 95.47 304.5 137.9 657.5 260.4 260.8 459.5 40.74 152-168 247.5-281.8 311.1-345.2z" fill="none" stroke="#2d9edf" stroke-width="10"/>
<path d="m275.6 45.46h1.242c1.016 0 1.812-0.3086 1.812-1.211 0-0.8984-0.7969-1.184-1.734-1.184h-1.32zm0 4.219h-1.078v-7.504h2.473c1.496 0 2.75 0.5508 2.75 2.074 0 1.105-0.7734 1.805-1.875 1.984l2.16 3.445h-1.309l-1.965-3.34h-1.156v3.34" fill="#231f1f"/>
<path d="m284.9 46.73c-0.02344-0.7969-0.5-1.422-1.449-1.422-0.8867 0-1.562 0.6367-1.625 1.422zm1.027 0.7422h-4.102c0.03125 0.8555 0.7734 1.523 1.68 1.523 0.6953 0 1.211-0.3398 1.504-0.7617l0.7188 0.5625c-0.5547 0.6992-1.309 1.027-2.223 1.027-1.57 0-2.727-1.059-2.727-2.641 0-1.566 1.156-2.66 2.672-2.66 1.527 0 2.484 1.008 2.484 2.609 0 0.1055 0 0.2227-0.007812 0.3398" fill="#231f1f"/>
<path d="m290.2 45.93c-0.2266-0.3594-0.6758-0.625-1.199-0.625-0.4688 0-0.9609 0.1797-0.9609 0.6562 0 0.4258 0.3945 0.5859 1.18 0.7539 0.9805 0.2109 1.734 0.6016 1.734 1.484 0 1.188-1.016 1.621-2.062 1.621-0.7852 0-1.594-0.2969-2.082-0.9023l0.7305-0.6016c0.2734 0.3906 0.7969 0.6992 1.375 0.6992 0.5117 0 1.023-0.1797 1.023-0.7344 0-0.4648-0.4688-0.6328-1.352-0.8359-0.6875-0.1602-1.508-0.4453-1.508-1.387 0-1.082 0.9727-1.539 1.953-1.539 0.7344 0 1.508 0.2891 1.879 0.8281l-0.7109 0.582" fill="#231f1f"/>
<path d="m294.8 45.48h-1.375v2.617c0 0.6016 0.2188 0.8477 0.7305 0.8477 0.1875 0 0.4258-0.04297 0.6016-0.1289l0.03125 0.8164c-0.2383 0.08594-0.5547 0.1367-0.8711 0.1367-0.9727 0-1.504-0.5273-1.504-1.566v-2.723h-0.9961v-0.8164h0.9961v-1.441h1.012v1.441h1.375v0.8164" fill="#231f1f"/>
<path d="m295.8 44.66h0.9688c0.02344 0.25 0.04297 0.6328 0.04297 0.8477h0.03516c0.2812-0.5859 0.8828-0.9883 1.582-0.9883 0.1406 0 0.2812 0.01172 0.4023 0.04297l-0.04297 0.9219c-0.1328-0.03125-0.3047-0.05078-0.4688-0.05078-0.9844 0-1.453 0.7734-1.453 1.609v2.641h-1.023v-3.945c0-0.2617-0.01172-0.75-0.04297-1.078" fill="#231f1f"/>
<path d="m300.8 49.68h-1.023v-5.023h1.023zm-0.5117-6.203c-0.3711 0-0.6758-0.2852-0.6758-0.6328 0-0.3633 0.3047-0.6484 0.6758-0.6484s0.6875 0.2773 0.6875 0.6484c0 0.3594-0.3164 0.6328-0.6875 0.6328" fill="#231f1f"/>
<path d="m306.2 45.93c-0.2188-0.3281-0.6992-0.5703-1.188-0.5703-1.07 0-1.691 0.8477-1.691 1.812 0 0.9531 0.6211 1.812 1.703 1.812 0.5195 0 0.9688-0.2148 1.242-0.5508l0.6875 0.6016c-0.4375 0.4883-1.102 0.7852-1.93 0.7852-1.594 0-2.785-1.051-2.785-2.648 0-1.582 1.18-2.652 2.762-2.652 0.7305 0 1.516 0.2891 1.941 0.8281l-0.7422 0.582" fill="#231f1f"/>
<path d="m310.5 45.48h-1.375v2.617c0 0.6016 0.2188 0.8477 0.7344 0.8477 0.1836 0 0.4219-0.04297 0.5977-0.1289l0.03125 0.8164c-0.2383 0.08594-0.5547 0.1367-0.8711 0.1367-0.9688 0-1.504-0.5273-1.504-1.566v-2.723h-0.9922v-0.8164h0.9922v-1.441h1.012v1.441h1.375v0.8164" fill="#231f1f"/>
<path d="m312.6 49.68h-1.023v-5.023h1.023zm-0.5117-6.203c-0.3711 0-0.6758-0.2852-0.6758-0.6328 0-0.3633 0.3047-0.6484 0.6758-0.6484s0.6875 0.2773 0.6875 0.6484c0 0.3594-0.3164 0.6328-0.6875 0.6328" fill="#231f1f"/>
<path d="m316.8 49.68h-1.113l-2.102-5.023h1.133l1.516 3.953h0.02344l1.523-3.953h1.09l-2.07 5.023" fill="#231f1f"/>
<path d="m323.7 46.73c-0.02344-0.7969-0.5039-1.422-1.453-1.422-0.8828 0-1.559 0.6367-1.625 1.422zm1.023 0.7422h-4.102c0.03516 0.8555 0.7773 1.523 1.68 1.523 0.6992 0 1.211-0.3398 1.508-0.7617l0.7188 0.5625c-0.5586 0.6992-1.309 1.027-2.227 1.027-1.57 0-2.727-1.059-2.727-2.641 0-1.566 1.156-2.66 2.672-2.66 1.527 0 2.488 1.008 2.488 2.609 0 0.1055 0 0.2227-0.01172 0.3398" fill="#231f1f"/>
<path transform="matrix(.1 0 0 -.1 0 632.6)" d="m1614 1015c-13.28-145.5-140.3-216.6-247.5-282-66.41-40.55-222.7-106.4-403 24.45-126.1 91.41-223.1 227.5-215.7 257.6 36.09 146.1 59.1 131.1 95.47 304.5 137.9 657.5 260.4 260.8 459.5 40.78 152-168 247.5-281.9 311.1-345.2z" fill="none" stroke="#2d9edf" stroke-width="10"/>
<path transform="matrix(.1 0 0 -.1 0 632.6)" d="m3911 1015c-13.28-145.5-140.3-216.6-247.5-282-66.41-40.55-222.7-106.4-403 24.45-126.1 91.41-223.1 227.5-215.6 257.6 36.05 146.1 59.06 131.1 95.43 304.5 137.9 657.5 260.4 260.8 459.5 40.78 152-168 247.5-281.9 311.1-345.2z" fill="none" stroke="#2d9edf" stroke-width="10"/>
<path transform="matrix(.1 0 0 -.1 0 632.6)" d="m1371 5008h-433.8" fill="none" stroke="#231f1f" stroke-width="10"/>
<path d="m143.2 131.8c-2.84-1.055-6.363-2.852-8.547-4.758l1.719 4.758-1.719 4.754c2.184-1.902 5.707-3.703 8.547-4.754" fill="#231f1f"/>
<path transform="matrix(.1 0 0 -.1 0 632.6)" d="m998 4734h433.8" fill="none" stroke="#2d9edf" stroke-width="10"/>
<path d="m93.76 159.3c2.84 1.051 6.359 2.852 8.547 4.754l-1.723-4.754 1.723-4.758c-2.188 1.906-5.707 3.703-8.547 4.758" fill="#2d9edf"/>
<path transform="matrix(.1 0 0 -.1 0 632.6)" d="m1614 1015c-63.63-106.4-173.2-97.73-281-99.49-77.85-1.289-152.1-15.66-346.4 1.758-137.9 12.38-246.1 67.62-238.6 97.73 36.09 146.1 55.23 132 95.47 304.5 137.9 591.1 199.3 353.7 454.8 52.23 105.1-124 72.89-87.3 315.9-356.7z" fill="none" stroke="#fabe15" stroke-width="10"/>
<path transform="matrix(.1 0 0 -.1 0 632.6)" d="m1614 2978c-13.28-145.5-140.3-216.6-247.5-282-66.41-40.55-222.7-106.4-403 24.41-126.1 91.45-223.1 227.5-215.7 257.6 36.09 146.1 52.62 132.6 95.47 304.5 127.3 510.6 153.8 17.46 279.3-109.8 159.1-161.3 427.7-131.3 491.4-194.7z" fill="none" stroke="#9e9c9c" stroke-width="10"/>
<path transform="matrix(.1 0 0 -.1 0 632.6)" d="m3911 1015c20.04-103-213.3-322.2-391.4-332.6-131-7.617-239 28.09-364.7 167.4-104.3 115.7-113.1 135.1-105.7 165.2 36.09 146.1 56.37 147.3 104.1 165.7 43.32 16.72 120 0 298.7 0 166.1 0 309.3 51.17 458.9-165.7z" fill="none" stroke="#fabe15" stroke-width="10"/>
<path transform="matrix(.1 0 0 -.1 0 632.6)" d="m3112 2911c-16.88 69.41-8.359 139.6-10.7 209.9-1.406 43.16-13.4 113.1 27.81 144.4 36.29 27.58 89.69 27.62 133.9 28.63 52.97 1.25 105.7 5.156 158.7 6.094 53.75 0.9375 108 0 161.2-7.266 35.23-4.805 72.5-10.16 103.4-28.05 36.72-21.21 55.31-59.73 83.52-89.22 18.95-19.77 21.33-36.68 40.12-56.99 48.52-52.34 118.3-129.8 93.01-201.9-23.36-66.45-98.4-103.9-166.6-115.9-152-14.06-310.6-24.38-462.6-7.07-67.85 7.695-130 21.33-153.9 90.39-2.969 8.477-5.586 17.54-7.852 26.91z" fill="none" stroke="#8d188e" stroke-miterlimit="10" stroke-width="15"/>
<path d="m276.2 250.2h-1.07v-7.684h4.797v0.9453h-3.727v2.387h3.484v0.9219h-3.484v3.43" fill="#231f1f"/>
<path d="m282 250.2h-1.02v-5.145h1.02zm-0.5078-6.352c-0.3711 0-0.6758-0.293-0.6758-0.6484 0-0.3711 0.3047-0.6641 0.6758-0.6641 0.3672 0 0.6836 0.2812 0.6836 0.6641 0 0.3672-0.3164 0.6484-0.6836 0.6484" fill="#231f1f"/>
<path d="m285.1 247.5-1.879-2.441h1.258l1.262 1.77 1.27-1.77h1.191l-1.855 2.43 2.074 2.715h-1.27l-1.434-2.008-1.453 2.008h-1.227l2.062-2.703" fill="#231f1f"/>
<path d="m293 247.2c-0.02344-0.8164-0.5-1.457-1.441-1.457-0.8789 0-1.555 0.6523-1.617 1.457zm1.02 0.7578h-4.078c0.03125 0.8789 0.7695 1.562 1.672 1.562 0.6914 0 1.203-0.3477 1.496-0.7812l0.7148 0.5742c-0.5547 0.7188-1.301 1.055-2.211 1.055-1.566 0-2.715-1.086-2.715-2.703 0-1.605 1.148-2.723 2.66-2.723 1.52 0 2.473 1.031 2.473 2.668 0 0.1094 0 0.2305-0.01172 0.3477" fill="#231f1f"/>
<path d="m297.9 249.5c1.043 0 1.734-0.8672 1.734-1.855s-0.6914-1.867-1.734-1.867c-1.117 0-1.703 0.8906-1.703 1.855 0 0.9688 0.5859 1.867 1.703 1.867zm-0.1719 0.8594c-1.586 0-2.598-1.215-2.598-2.727 0-1.516 1.043-2.699 2.586-2.699 0.8359 0 1.477 0.4102 1.832 0.9102h0.02344v-3.832h1.02v8.207h-0.9883v-0.8164h-0.01953c-0.3906 0.6211-1.129 0.957-1.855 0.957" fill="#231f1f"/>
<path d="m308.8 243.3c-1.766 0-2.895 1.402-2.895 3.086 0 1.711 1.137 3.082 2.895 3.082 1.781 0 2.922-1.371 2.922-3.082 0-1.684-1.129-3.086-2.922-3.086zm0 7.133c-2.332 0-4.059-1.684-4.059-4.047 0-2.402 1.727-4.027 4.059-4.027 2.348 0 4.082 1.625 4.082 4.027 0 2.363-1.734 4.047-4.082 4.047" fill="#231f1f"/>
<path d="m317 245.8c-1.043 0-1.734 0.8789-1.734 1.867s0.6914 1.855 1.734 1.855c1.117 0 1.715-0.8984 1.715-1.867 0-0.9648-0.5977-1.855-1.715-1.855zm-1.703 3.625v0.8164h-0.9883v-8.207h1.02v3.832h0.03516c0.3438-0.5 0.9883-0.9102 1.832-0.9102 1.531 0 2.574 1.184 2.574 2.699 0 1.512-1.012 2.727-2.598 2.727-0.7227 0-1.453-0.3359-1.852-0.957h-0.02344" fill="#231f1f"/>
<path d="m324 246.4c-0.2266-0.3672-0.6719-0.6406-1.191-0.6406-0.4688 0-0.957 0.1875-0.957 0.6758 0 0.4336 0.3906 0.5938 1.172 0.7695 0.9766 0.2148 1.727 0.6172 1.727 1.52 0 1.215-1.008 1.66-2.051 1.66-0.7812 0-1.586-0.3047-2.074-0.9219l0.7266-0.6172c0.2734 0.3984 0.793 0.7148 1.371 0.7148 0.5078 0 1.02-0.1836 1.02-0.75 0-0.4766-0.4688-0.6523-1.348-0.8555-0.6836-0.1641-1.496-0.457-1.496-1.426 0-1.105 0.9648-1.57 1.941-1.57 0.7266 0 1.5 0.293 1.867 0.8438l-0.707 0.5977" fill="#231f1f"/>
<path d="m328.5 245.9h-1.367v2.68c0 0.6172 0.2148 0.8672 0.7266 0.8672 0.1836 0 0.4219-0.04297 0.5977-0.1289l0.03125 0.8359c-0.2383 0.08594-0.5547 0.1406-0.8672 0.1406-0.9648 0-1.5-0.543-1.5-1.605v-2.789h-0.9883v-0.8359h0.9883v-1.477h1.012v1.477h1.367v0.8359" fill="#231f1f"/>
<path d="m329.5 245.1h0.9648c0.02344 0.2578 0.04297 0.6523 0.04297 0.8672h0.03516c0.2812-0.5977 0.875-1.008 1.57-1.008 0.1406 0 0.2852 0.01172 0.4023 0.04297l-0.04297 0.9453c-0.1289-0.03516-0.3047-0.05469-0.4648-0.05469-0.9766 0-1.445 0.7891-1.445 1.648v2.703h-1.02v-4.039c0-0.2695-0.01172-0.7695-0.04297-1.105" fill="#231f1f"/>
<path d="m337.1 250.2c-0.01953-0.2617-0.04297-0.6289-0.04297-0.8477h-0.01953c-0.2617 0.543-0.9336 0.9883-1.684 0.9883-1.324 0-1.922-0.9453-1.922-2.094v-3.191h1.023v2.844c0 0.8438 0.2266 1.582 1.172 1.582 0.8125 0 1.375-0.6719 1.375-1.691v-2.734h1.02v4.035c0 0.2734 0.01172 0.7734 0.04688 1.109h-0.9688" fill="#231f1f"/>
<path d="m343.4 246.4c-0.2148-0.3359-0.6914-0.5859-1.184-0.5859-1.062 0-1.68 0.8672-1.68 1.855 0 0.9766 0.6172 1.855 1.691 1.855 0.5234 0 0.9648-0.2148 1.238-0.5625l0.6836 0.6172c-0.4336 0.5-1.098 0.8047-1.922 0.8047-1.582 0-2.766-1.074-2.766-2.715 0-1.617 1.172-2.711 2.746-2.711 0.7266 0 1.508 0.293 1.93 0.8438l-0.7383 0.5977" fill="#231f1f"/>
<path d="m347.7 245.9h-1.367v2.68c0 0.6172 0.2188 0.8672 0.7305 0.8672 0.1836 0 0.4219-0.04297 0.5938-0.1289l0.03516 0.8359c-0.2383 0.08594-0.5547 0.1406-0.8711 0.1406-0.9648 0-1.496-0.543-1.496-1.605v-2.789h-0.9883v-0.8359h0.9883v-1.477h1.008v1.477h1.367v0.8359" fill="#231f1f"/>
<path d="m349.8 250.2h-1.023v-5.145h1.023zm-0.5117-6.352c-0.3672 0-0.6719-0.293-0.6719-0.6484 0-0.3711 0.3047-0.6641 0.6719-0.6641 0.3672 0 0.6836 0.2812 0.6836 0.6641 0 0.3672-0.3164 0.6484-0.6836 0.6484" fill="#231f1f"/>
<path d="m354 245.8c-1.094 0-1.715 0.8789-1.715 1.855 0 0.9805 0.6211 1.867 1.715 1.867 1.109 0 1.715-0.8867 1.715-1.867 0-0.9766-0.6055-1.855-1.715-1.855zm0 4.582c-1.574 0-2.766-1.141-2.766-2.727 0-1.582 1.191-2.699 2.766-2.699 1.574 0 2.781 1.117 2.781 2.699 0 1.586-1.207 2.727-2.781 2.727" fill="#231f1f"/>
<path d="m359.1 245.1c0.02344 0.2578 0.04297 0.6289 0.04297 0.8477h0.03516c0.25-0.5547 0.9336-0.9883 1.672-0.9883 1.32 0 1.918 0.9414 1.918 2.094v3.191h-1.02v-2.855c0-0.8359-0.2266-1.574-1.172-1.574-0.8008 0-1.379 0.6719-1.379 1.695v2.734h-1.02v-4.039c0-0.2695-0.01172-0.7695-0.04297-1.105h0.9648" fill="#231f1f"/>
<path d="m278.3 436.9h0.03125l2.312-6.293h1.164l-3.02 7.684h-0.9961l-2.996-7.684h1.191l2.312 6.293" fill="#231f1f"/>
<path d="m285.1 435.8c-1.008 0-2.289 0.1094-2.289 0.9766 0 0.6094 0.543 0.8047 1.055 0.8047 0.9531 0 1.484-0.6406 1.484-1.512v-0.2695zm0.25-0.8789c0-0.7617-0.5078-1.129-1.27-1.129-0.5742 0-1.117 0.25-1.465 0.5977l-0.543-0.6523c0.5-0.4766 1.273-0.7695 2.105-0.7695 1.477 0 2.148 0.8789 2.148 2.02v2.246c0 0.3477 0.02344 0.7695 0.07812 1.02h-0.9219c-0.05469-0.2266-0.08984-0.5-0.08984-0.7383h-0.03125c-0.3672 0.5547-0.9531 0.8672-1.727 0.8672-0.8125 0-1.863-0.4023-1.863-1.582 0-1.555 1.844-1.738 3.578-1.738v-0.1406" fill="#231f1f"/>
<path d="m288 433.2h0.9648c0.02344 0.2617 0.04297 0.6523 0.04297 0.8672h0.03516c0.2812-0.5938 0.8789-1.008 1.574-1.008 0.1406 0 0.2812 0.01172 0.3984 0.04297l-0.04297 0.9453c-0.1289-0.03516-0.3047-0.05469-0.4648-0.05469-0.9766 0-1.445 0.793-1.445 1.648v2.703h-1.02v-4.039c0-0.2695-0.01172-0.7695-0.04297-1.105" fill="#231f1f"/>
<path d="m293 438.3h-1.02v-5.145h1.02zm-0.5117-6.348c-0.3672 0-0.6719-0.293-0.6719-0.6523 0-0.3672 0.3047-0.6602 0.6719-0.6602 0.3672 0 0.6836 0.2773 0.6836 0.6602 0 0.3672-0.3164 0.6523-0.6836 0.6523" fill="#231f1f"/>
<path d="m297.8 435.8c-1.012 0-2.293 0.1094-2.293 0.9766 0 0.6094 0.543 0.8047 1.055 0.8047 0.9531 0 1.488-0.6406 1.488-1.512v-0.2695zm0.25-0.8789c0-0.7617-0.5117-1.129-1.273-1.129-0.5742 0-1.117 0.25-1.465 0.5977l-0.543-0.6523c0.5-0.4766 1.273-0.7695 2.105-0.7695 1.477 0 2.152 0.8789 2.152 2.02v2.246c0 0.3477 0.01953 0.7695 0.07422 1.02h-0.9219c-0.05469-0.2266-0.08594-0.5-0.08594-0.7383h-0.03516c-0.3672 0.5547-0.9531 0.8672-1.723 0.8672-0.8164 0-1.867-0.4023-1.867-1.582 0-1.555 1.844-1.738 3.582-1.738v-0.1406" fill="#231f1f"/>
<path d="m303.4 433.9c-1.043 0-1.738 0.8789-1.738 1.863 0 0.9883 0.6953 1.855 1.738 1.855 1.117 0 1.715-0.8984 1.715-1.863 0-0.9688-0.5977-1.855-1.715-1.855zm-1.703 3.625v0.8125h-0.9883v-8.203h1.02v3.828h0.03125c0.3477-0.4961 0.9883-0.9102 1.836-0.9102 1.531 0 2.57 1.184 2.57 2.703 0 1.508-1.008 2.723-2.594 2.723-0.7266 0-1.453-0.3359-1.855-0.9531h-0.01953" fill="#231f1f"/>
<path d="m308.6 438.3h-1.02v-8.203h1.02v8.203" fill="#231f1f"/>
<path d="m314.2 435.3c-0.02344-0.8164-0.5-1.457-1.445-1.457-0.8789 0-1.551 0.6523-1.617 1.457zm1.02 0.7578h-4.082c0.03516 0.8789 0.7734 1.562 1.672 1.562 0.6953 0 1.207-0.3477 1.5-0.7812l0.7148 0.5781c-0.5547 0.7148-1.301 1.051-2.215 1.051-1.562 0-2.711-1.086-2.711-2.703 0-1.605 1.148-2.723 2.656-2.723 1.52 0 2.477 1.031 2.477 2.668 0 0.1094 0 0.2305-0.01172 0.3477" fill="#231f1f"/>
<path d="m320.5 438.3h-1.074v-7.684h1.074v7.684" fill="#231f1f"/>
<path d="m323.2 433.2c0.01953 0.2617 0.04297 0.6289 0.04297 0.8477h0.03125c0.25-0.5547 0.9336-0.9883 1.672-0.9883 1.324 0 1.922 0.9453 1.922 2.094v3.191h-1.023v-2.855c0-0.8359-0.2266-1.574-1.172-1.574-0.8008 0-1.375 0.6758-1.375 1.695v2.734h-1.023v-4.039c0-0.2695-0.007812-0.7695-0.04297-1.105h0.9688" fill="#231f1f"/>
<path d="m331.1 434h-1.367v2.68c0 0.6172 0.2188 0.8672 0.7266 0.8672 0.1875 0 0.4258-0.04297 0.5977-0.1289l0.03516 0.8359c-0.2422 0.08594-0.5547 0.1406-0.8711 0.1406-0.9648 0-1.496-0.543-1.496-1.605v-2.789h-0.9883v-0.8359h0.9883v-1.477h1.008v1.477h1.367v0.8359" fill="#231f1f"/>
<path d="m332.1 433.2h0.9688c0.01953 0.2617 0.04297 0.6523 0.04297 0.8672h0.03125c0.2812-0.5938 0.8789-1.008 1.574-1.008 0.1406 0 0.2812 0.01172 0.4023 0.04297l-0.04297 0.9453c-0.1328-0.03516-0.3047-0.05469-0.4688-0.05469-0.9766 0-1.441 0.793-1.441 1.648v2.703h-1.023v-4.039c0-0.2695-0.007812-0.7695-0.04297-1.105" fill="#231f1f"/>
<path d="m338.9 435.8c-1.012 0-2.293 0.1094-2.293 0.9766 0 0.6094 0.543 0.8047 1.055 0.8047 0.9531 0 1.488-0.6406 1.488-1.512v-0.2695zm0.25-0.8789c0-0.7617-0.5117-1.129-1.27-1.129-0.5781 0-1.121 0.25-1.469 0.5977l-0.5391-0.6523c0.5-0.4766 1.27-0.7695 2.102-0.7695 1.48 0 2.152 0.8789 2.152 2.02v2.246c0 0.3477 0.01953 0.7695 0.07422 1.02h-0.9219c-0.05469-0.2266-0.08594-0.5-0.08594-0.7383h-0.03516c-0.3672 0.5547-0.9531 0.8672-1.723 0.8672-0.8164 0-1.867-0.4023-1.867-1.582 0-1.555 1.844-1.738 3.582-1.738v-0.1406" fill="#231f1f"/>
<path d="m344.2 434h-1.367v2.68c0 0.6172 0.2188 0.8672 0.7266 0.8672 0.1836 0 0.4258-0.04297 0.5977-0.1289l0.03125 0.8359c-0.2383 0.08594-0.5508 0.1406-0.8672 0.1406-0.9648 0-1.496-0.543-1.496-1.605v-2.789h-0.9883v-0.8359h0.9883v-1.477h1.008v1.477h1.367v0.8359" fill="#231f1f"/>
<path d="m346.4 433.9c0.2383-0.5078 0.8867-0.9219 1.625-0.9219 1.324 0 1.922 0.9453 1.922 2.094v3.191h-1.02v-2.844c0-0.8359-0.2188-1.574-1.16-1.574-0.8047 0-1.391 0.6719-1.391 1.691v2.727h-1.02v-8.203h1.02v3.84h0.02344" fill="#231f1f"/>
<path d="m354.1 433.9c-1.098 0-1.715 0.8789-1.715 1.855 0 0.9766 0.6172 1.863 1.715 1.863 1.105 0 1.715-0.8867 1.715-1.863 0-0.9766-0.6094-1.855-1.715-1.855zm0 4.578c-1.574 0-2.77-1.141-2.77-2.723 0-1.586 1.195-2.703 2.77-2.703s2.777 1.117 2.777 2.703c0 1.582-1.203 2.723-2.777 2.723" fill="#231f1f"/>
<path d="m358.2 433.2h0.9688c0.01953 0.2617 0.04297 0.6523 0.04297 0.8672h0.03125c0.2812-0.5938 0.8789-1.008 1.574-1.008 0.1406 0 0.2812 0.01172 0.4023 0.04297l-0.04297 0.9453c-0.1328-0.03516-0.3047-0.05469-0.4688-0.05469-0.9766 0-1.441 0.793-1.441 1.648v2.703h-1.023v-4.039c0-0.2695-0.007813-0.7695-0.04297-1.105" fill="#231f1f"/>
<path d="m365 435.8c-1.008 0-2.289 0.1094-2.289 0.9766 0 0.6094 0.543 0.8047 1.055 0.8047 0.9531 0 1.484-0.6406 1.484-1.512v-0.2695zm0.25-0.8789c0-0.7617-0.5078-1.129-1.27-1.129-0.5742 0-1.117 0.25-1.465 0.5977l-0.543-0.6523c0.5-0.4766 1.273-0.7695 2.105-0.7695 1.477 0 2.152 0.8789 2.152 2.02v2.246c0 0.3477 0.01953 0.7695 0.07422 1.02h-0.9219c-0.05469-0.2266-0.08984-0.5-0.08984-0.7383h-0.03125c-0.3672 0.5547-0.9531 0.8672-1.727 0.8672-0.8125 0-1.863-0.4023-1.863-1.582 0-1.555 1.844-1.738 3.578-1.738v-0.1406" fill="#231f1f"/>
<path d="m371.5 434.5c-0.2188-0.3359-0.6953-0.5859-1.184-0.5859-1.066 0-1.684 0.8711-1.684 1.855 0 0.9766 0.6172 1.855 1.695 1.855 0.5195 0 0.9648-0.2148 1.234-0.5625l0.6836 0.6172c-0.4336 0.5-1.094 0.8047-1.918 0.8047-1.586 0-2.77-1.074-2.77-2.715 0-1.617 1.172-2.711 2.746-2.711 0.7266 0 1.508 0.293 1.934 0.8477l-0.7383 0.5938" fill="#231f1f"/>
<path d="m374.3 438.3h-1.02v-5.145h1.02zm-0.5078-6.348c-0.3711 0-0.6758-0.293-0.6758-0.6523 0-0.3672 0.3047-0.6602 0.6758-0.6602 0.3672 0 0.6836 0.2773 0.6836 0.6602 0 0.3672-0.3164 0.6523-0.6836 0.6523" fill="#231f1f"/>
<path d="m379.7 434.5c-0.2188-0.3359-0.6953-0.5859-1.184-0.5859-1.062 0-1.684 0.8711-1.684 1.855 0 0.9766 0.6211 1.855 1.695 1.855 0.5195 0 0.9648-0.2148 1.238-0.5625l0.6836 0.6172c-0.4336 0.5-1.098 0.8047-1.922 0.8047-1.586 0-2.77-1.074-2.77-2.715 0-1.617 1.176-2.711 2.746-2.711 0.7305 0 1.512 0.293 1.934 0.8477l-0.7383 0.5938" fill="#231f1f"/>
<path d="m387.9 431.4c-1.77 0-2.898 1.402-2.898 3.086 0 1.715 1.141 3.082 2.898 3.082 1.777 0 2.918-1.367 2.918-3.082 0-1.684-1.129-3.086-2.918-3.086zm0 7.133c-2.332 0-4.059-1.684-4.059-4.047 0-2.398 1.727-4.027 4.059-4.027 2.344 0 4.082 1.629 4.082 4.027 0 2.363-1.738 4.047-4.082 4.047" fill="#231f1f"/>
<path d="m396.1 433.9c-1.043 0-1.738 0.8789-1.738 1.863 0 0.9883 0.6953 1.855 1.738 1.855 1.117 0 1.715-0.8984 1.715-1.863 0-0.9688-0.5977-1.855-1.715-1.855zm-1.707 3.625v0.8125h-0.9844v-8.203h1.02v3.828h0.03125c0.3477-0.4961 0.9883-0.9102 1.836-0.9102 1.527 0 2.57 1.184 2.57 2.703 0 1.508-1.008 2.723-2.594 2.723-0.7266 0-1.453-0.3359-1.855-0.9531h-0.02344" fill="#231f1f"/>
<path d="m403 434.5c-0.2305-0.3672-0.6758-0.6406-1.195-0.6406-0.4648 0-0.9531 0.1875-0.9531 0.6758 0 0.4336 0.3867 0.5977 1.172 0.7695 0.9766 0.2188 1.723 0.6172 1.723 1.52 0 1.215-1.008 1.66-2.051 1.66-0.7812 0-1.586-0.3047-2.07-0.9219l0.7266-0.6172c0.2695 0.3984 0.793 0.7148 1.367 0.7148 0.5078 0 1.02-0.1836 1.02-0.75 0-0.4766-0.4688-0.6484-1.348-0.8555-0.6836-0.1641-1.496-0.457-1.496-1.422 0-1.109 0.9648-1.574 1.941-1.574 0.7266 0 1.5 0.293 1.867 0.8477l-0.7031 0.5938" fill="#231f1f"/>
<path d="m407.6 434h-1.367v2.68c0 0.6172 0.2188 0.8672 0.7266 0.8672 0.1875 0 0.4258-0.04297 0.5977-0.1289l0.03125 0.8359c-0.2383 0.08594-0.5508 0.1406-0.8672 0.1406-0.9648 0-1.496-0.543-1.496-1.605v-2.789h-0.9883v-0.8359h0.9883v-1.477h1.008v1.477h1.367v0.8359" fill="#231f1f"/>
<path d="m408.6 433.2h0.9648c0.02344 0.2617 0.04297 0.6523 0.04297 0.8672h0.03516c0.2812-0.5938 0.8789-1.008 1.574-1.008 0.1406 0 0.2812 0.01172 0.4023 0.04297l-0.04297 0.9453c-0.1328-0.03516-0.3047-0.05469-0.4688-0.05469-0.9766 0-1.441 0.793-1.441 1.648v2.703h-1.023v-4.039c0-0.2695-0.007813-0.7695-0.04297-1.105" fill="#231f1f"/>
<path d="m416.2 438.3c-0.02344-0.2617-0.04688-0.6289-0.04688-0.8477h-0.01953c-0.2617 0.543-0.9336 0.9883-1.684 0.9883-1.324 0-1.918-0.9453-1.918-2.094v-3.191h1.02v2.844c0 0.8477 0.2266 1.582 1.172 1.582 0.8125 0 1.379-0.6719 1.379-1.691v-2.734h1.02v4.035c0 0.2734 0.01172 0.7734 0.04297 1.109h-0.9648" fill="#231f1f"/>
<path d="m422.5 434.5c-0.2188-0.3359-0.6953-0.5859-1.184-0.5859-1.062 0-1.684 0.8711-1.684 1.855 0 0.9766 0.6211 1.855 1.691 1.855 0.5234 0 0.9688-0.2148 1.238-0.5625l0.6836 0.6172c-0.4336 0.5-1.094 0.8047-1.922 0.8047-1.582 0-2.766-1.074-2.766-2.715 0-1.617 1.172-2.711 2.746-2.711 0.7266 0 1.508 0.293 1.93 0.8477l-0.7344 0.5938" fill="#231f1f"/>
<path d="m426.8 434h-1.367v2.68c0 0.6172 0.2148 0.8672 0.7266 0.8672 0.1836 0 0.4219-0.04297 0.5977-0.1289l0.03125 0.8359c-0.2383 0.08594-0.5547 0.1406-0.8672 0.1406-0.9648 0-1.5-0.543-1.5-1.605v-2.789h-0.9883v-0.8359h0.9883v-1.477h1.012v1.477h1.367v0.8359" fill="#231f1f"/>
<path d="m428.9 438.3h-1.02v-5.145h1.02zm-0.5117-6.348c-0.3672 0-0.6719-0.293-0.6719-0.6523 0-0.3672 0.3047-0.6602 0.6719-0.6602 0.3711 0 0.6836 0.2773 0.6836 0.6602 0 0.3672-0.3125 0.6523-0.6836 0.6523" fill="#231f1f"/>
<path d="m433.1 433.9c-1.094 0-1.711 0.8789-1.711 1.855 0 0.9766 0.6172 1.863 1.711 1.863 1.109 0 1.719-0.8867 1.719-1.863 0-0.9766-0.6094-1.855-1.719-1.855zm0 4.578c-1.57 0-2.766-1.141-2.766-2.723 0-1.586 1.195-2.703 2.766-2.703 1.574 0 2.781 1.117 2.781 2.703 0 1.582-1.207 2.723-2.781 2.723" fill="#231f1f"/>
<path d="m438.2 433.2c0.01953 0.2617 0.04297 0.6289 0.04297 0.8477h0.03125c0.25-0.5547 0.9336-0.9883 1.672-0.9883 1.324 0 1.922 0.9453 1.922 2.094v3.191h-1.023v-2.855c0-0.8359-0.2266-1.574-1.168-1.574-0.8047 0-1.379 0.6758-1.379 1.695v2.734h-1.02v-4.039c0-0.2695-0.01172-0.7695-0.04297-1.105h0.9648" fill="#231f1f"/>
<path d="m49.43 436.5h0.03516l2.387-6.5h1.199l-3.113 7.934h-1.031l-3.094-7.934h1.234l2.383 6.5" fill="#231f1f"/>
<path d="m56.52 435.4c-1.043 0-2.367 0.1094-2.367 1.008 0 0.6289 0.5625 0.8281 1.09 0.8281 0.9844 0 1.535-0.6602 1.535-1.555v-0.2812zm0.2578-0.9062c0-0.7852-0.5273-1.168-1.312-1.168-0.5938 0-1.156 0.2578-1.512 0.6172l-0.5625-0.6719c0.5156-0.4961 1.312-0.7969 2.176-0.7969 1.523 0 2.219 0.9062 2.219 2.086v2.316c0 0.3594 0.02344 0.7969 0.07812 1.055h-0.9531c-0.05469-0.2344-0.08984-0.5156-0.08984-0.7617h-0.03516c-0.3789 0.5703-0.9844 0.8945-1.781 0.8945-0.8398 0-1.926-0.4141-1.926-1.633 0-1.602 1.906-1.793 3.699-1.793v-0.1445" fill="#231f1f"/>
<path d="m59.5 432.6h1c0.02344 0.2695 0.04297 0.6758 0.04297 0.8984h0.03516c0.2891-0.6172 0.9062-1.043 1.625-1.043 0.1445 0 0.2891 0.01172 0.4141 0.04297l-0.04297 0.9766c-0.1367-0.03516-0.3164-0.05469-0.4844-0.05469-1.008 0-1.488 0.8164-1.488 1.703v2.789h-1.055v-4.168c0-0.2812-0.01172-0.7969-0.04688-1.145" fill="#231f1f"/>
<path d="m64.66 437.9h-1.051v-5.312h1.051zm-0.5234-6.555c-0.3828 0-0.6953-0.3047-0.6953-0.6719 0-0.3828 0.3125-0.6836 0.6953-0.6836 0.3789 0 0.7031 0.2891 0.7031 0.6836 0 0.3789-0.3242 0.6719-0.7031 0.6719" fill="#231f1f"/>
<path d="m69.55 435.4c-1.039 0-2.363 0.1094-2.363 1.008 0 0.6289 0.5625 0.8281 1.09 0.8281 0.9844 0 1.535-0.6602 1.535-1.555v-0.2812zm0.2617-0.9062c0-0.7852-0.5273-1.168-1.312-1.168-0.5938 0-1.156 0.2578-1.512 0.6172l-0.5625-0.6719c0.5156-0.4961 1.312-0.7969 2.176-0.7969 1.523 0 2.219 0.9062 2.219 2.086v2.316c0 0.3594 0.02344 0.7969 0.07813 1.055h-0.9531c-0.05469-0.2344-0.08984-0.5156-0.08984-0.7617h-0.03516c-0.3789 0.5703-0.9844 0.8945-1.781 0.8945-0.8398 0-1.926-0.4141-1.926-1.633 0-1.602 1.906-1.793 3.699-1.793v-0.1445" fill="#231f1f"/>
<path d="m75.38 433.3c-1.074 0-1.793 0.9062-1.793 1.926 0 1.02 0.7188 1.918 1.793 1.918 1.156 0 1.77-0.9297 1.77-1.93 0-0.9961-0.6133-1.914-1.77-1.914zm-1.758 3.742v0.8398h-1.02v-8.473h1.051v3.957h0.03516c0.3594-0.5156 1.02-0.9414 1.895-0.9414 1.578 0 2.656 1.223 2.656 2.789 0 1.559-1.043 2.812-2.68 2.812-0.75 0-1.5-0.3477-1.914-0.9844h-0.02344" fill="#231f1f"/>
<path d="m80.79 437.9h-1.055v-8.473h1.055v8.473" fill="#231f1f"/>
<path d="m86.52 434.8c-0.02344-0.8398-0.5156-1.504-1.488-1.504-0.9102 0-1.605 0.6719-1.672 1.504zm1.055 0.7852h-4.215c0.03516 0.9062 0.7969 1.613 1.727 1.613 0.7148 0 1.242-0.3594 1.547-0.8086l0.7383 0.5938c-0.5703 0.7383-1.344 1.086-2.285 1.086-1.613 0-2.801-1.117-2.801-2.789 0-1.656 1.188-2.812 2.746-2.812 1.566 0 2.555 1.066 2.555 2.758 0 0.1094 0 0.2344-0.01172 0.3594" fill="#231f1f"/>
<path d="m93.02 436.9h4.148v0.9844h-5.258v-7.934h5.09v0.9766h-3.98v2.375h3.746v0.9531h-3.746v2.645" fill="#231f1f"/>
<path d="m99.89 435.1-1.941-2.523h1.301l1.301 1.828 1.309-1.828h1.234l-1.914 2.512 2.137 2.801h-1.309l-1.48-2.074-1.5 2.074h-1.266l2.129-2.789" fill="#231f1f"/>
<path d="m106.9 433.4h-1.41v2.77c0 0.6367 0.2227 0.8945 0.75 0.8945 0.1914 0 0.4375-0.04297 0.6172-0.1328l0.03125 0.8633c-0.2461 0.08984-0.5703 0.1445-0.8945 0.1445-1 0-1.547-0.5586-1.547-1.66v-2.879h-1.02v-0.8633h1.02v-1.523h1.043v1.523h1.41v0.8633" fill="#231f1f"/>
<path d="m108 432.6h1c0.01953 0.2695 0.04297 0.6758 0.04297 0.8984h0.03516c0.2891-0.6172 0.9062-1.043 1.621-1.043 0.1484 0 0.293 0.01172 0.418 0.04297l-0.04688 0.9766c-0.1328-0.03516-0.3125-0.05469-0.4805-0.05469-1.008 0-1.492 0.8164-1.492 1.703v2.789h-1.051v-4.168c0-0.2812-0.01172-0.7969-0.04688-1.145" fill="#231f1f"/>
<path d="m115 435.4c-1.043 0-2.363 0.1094-2.363 1.008 0 0.6289 0.5586 0.8281 1.086 0.8281 0.9844 0 1.535-0.6602 1.535-1.555v-0.2812zm0.2578-0.9062c0-0.7852-0.5273-1.168-1.312-1.168-0.5938 0-1.152 0.2578-1.512 0.6172l-0.5586-0.6719c0.5117-0.4961 1.309-0.7969 2.172-0.7969 1.523 0 2.219 0.9062 2.219 2.086v2.316c0 0.3594 0.02344 0.7969 0.07812 1.055h-0.9531c-0.05469-0.2344-0.08984-0.5156-0.08984-0.7617h-0.03125c-0.3828 0.5703-0.9883 0.8945-1.781 0.8945-0.8438 0-1.93-0.4141-1.93-1.633 0-1.602 1.906-1.793 3.699-1.793v-0.1445" fill="#231f1f"/>
<path d="m120.5 433.4h-1.41v2.77c0 0.6367 0.2227 0.8945 0.75 0.8945 0.1914 0 0.4375-0.04297 0.6172-0.1328l0.03125 0.8633c-0.2461 0.08984-0.5703 0.1445-0.8945 0.1445-0.9961 0-1.547-0.5586-1.547-1.66v-2.879h-1.02v-0.8633h1.02v-1.523h1.043v1.523h1.41v0.8633" fill="#231f1f"/>
<path d="m122.7 433.4c0.2461-0.5273 0.918-0.9531 1.68-0.9531 1.367 0 1.984 0.9727 1.984 2.164v3.293h-1.055v-2.934c0-0.8633-0.2227-1.625-1.199-1.625-0.8281 0-1.434 0.6914-1.434 1.746v2.812h-1.051v-8.473h1.051v3.969h0.02344" fill="#231f1f"/>
<path d="m130.6 433.3c-1.133 0-1.773 0.9062-1.773 1.914 0 1.008 0.6406 1.93 1.773 1.93 1.141 0 1.77-0.9219 1.77-1.93 0-1.008-0.6289-1.914-1.77-1.914zm0 4.727c-1.625 0-2.859-1.176-2.859-2.812 0-1.633 1.234-2.789 2.859-2.789s2.867 1.156 2.867 2.789c0 1.637-1.242 2.812-2.867 2.812" fill="#231f1f"/>
<path d="m134.9 432.6h0.9961c0.02344 0.2695 0.04297 0.6758 0.04297 0.8984h0.03516c0.2891-0.6172 0.9062-1.043 1.625-1.043 0.1445 0 0.2891 0.01172 0.4141 0.04297l-0.04297 0.9766c-0.1367-0.03516-0.3164-0.05469-0.4844-0.05469-1.008 0-1.488 0.8164-1.488 1.703v2.789h-1.055v-4.168c0-0.2812-0.01172-0.7969-0.04297-1.145" fill="#231f1f"/>
<path d="m141.9 435.4c-1.043 0-2.363 0.1094-2.363 1.008 0 0.6289 0.5586 0.8281 1.086 0.8281 0.9883 0 1.535-0.6602 1.535-1.555v-0.2812zm0.2578-0.9062c0-0.7852-0.5273-1.168-1.312-1.168-0.5938 0-1.152 0.2578-1.512 0.6172l-0.5586-0.6719c0.5156-0.4961 1.309-0.7969 2.172-0.7969 1.523 0 2.219 0.9062 2.219 2.086v2.316c0 0.3594 0.02344 0.7969 0.07812 1.055h-0.9531c-0.05469-0.2344-0.08984-0.5156-0.08984-0.7617h-0.03125c-0.3828 0.5703-0.9883 0.8945-1.781 0.8945-0.8398 0-1.93-0.4141-1.93-1.633 0-1.602 1.906-1.793 3.699-1.793v-0.1445" fill="#231f1f"/>
<path d="m148.7 433.9c-0.2266-0.3477-0.7188-0.6055-1.223-0.6055-1.098 0-1.734 0.8945-1.734 1.914 0 1.008 0.6367 1.918 1.746 1.918 0.5391 0 0.9961-0.2266 1.277-0.582l0.707 0.6367c-0.4492 0.5156-1.133 0.8281-1.984 0.8281-1.637 0-2.859-1.109-2.859-2.801 0-1.668 1.211-2.801 2.836-2.801 0.75 0 1.559 0.3008 1.996 0.875l-0.7617 0.6172" fill="#231f1f"/>
<path d="m151.6 437.9h-1.055v-5.312h1.055zm-0.5273-6.555c-0.3828 0-0.6953-0.3047-0.6953-0.6719 0-0.3828 0.3125-0.6836 0.6953-0.6836 0.3789 0 0.707 0.2891 0.707 0.6836 0 0.3789-0.3281 0.6719-0.707 0.6719" fill="#231f1f"/>
<path d="m157.1 433.9c-0.2266-0.3477-0.7188-0.6055-1.223-0.6055-1.098 0-1.738 0.8945-1.738 1.914 0 1.008 0.6406 1.918 1.75 1.918 0.5391 0 0.9961-0.2266 1.277-0.582l0.707 0.6367c-0.4492 0.5156-1.133 0.8281-1.984 0.8281-1.637 0-2.855-1.109-2.855-2.801 0-1.668 1.207-2.801 2.832-2.801 0.7539 0 1.559 0.3008 1.996 0.875l-0.7617 0.6172" fill="#231f1f"/>
<path d="m165.6 430.7c-1.828 0-2.992 1.445-2.992 3.184 0 1.77 1.176 3.18 2.992 3.18 1.836 0 3.016-1.41 3.016-3.18 0-1.738-1.168-3.184-3.016-3.184zm0 7.363c-2.41 0-4.191-1.738-4.191-4.18 0-2.477 1.781-4.16 4.191-4.16 2.422 0 4.215 1.684 4.215 4.16 0 2.441-1.793 4.18-4.215 4.18" fill="#231f1f"/>
<path d="m174.1 433.3c-1.074 0-1.793 0.9062-1.793 1.926 0 1.02 0.7188 1.918 1.793 1.918 1.156 0 1.77-0.9297 1.77-1.93 0-0.9961-0.6133-1.914-1.77-1.914zm-1.758 3.742v0.8398h-1.023v-8.473h1.055v3.957h0.03516c0.3594-0.5156 1.02-0.9414 1.895-0.9414 1.578 0 2.652 1.223 2.652 2.789 0 1.559-1.039 2.812-2.676 2.812-0.75 0-1.504-0.3477-1.918-0.9844h-0.01953" fill="#231f1f"/>
<path d="m181.3 433.9c-0.2383-0.3828-0.6953-0.6641-1.234-0.6641-0.4805 0-0.9844 0.1914-0.9844 0.6953 0 0.4492 0.4023 0.6172 1.207 0.7969 1.012 0.2227 1.781 0.6367 1.781 1.566 0 1.258-1.039 1.715-2.117 1.715-0.8047 0-1.633-0.3125-2.137-0.9492l0.75-0.6406c0.2773 0.4141 0.8164 0.7383 1.41 0.7383 0.5273 0 1.055-0.1875 1.055-0.7734 0-0.4922-0.4844-0.6719-1.391-0.8828-0.707-0.168-1.547-0.4727-1.547-1.469 0-1.141 1-1.625 2.008-1.625 0.75 0 1.547 0.3008 1.926 0.875l-0.7266 0.6172" fill="#231f1f"/>
<path d="m186 433.4h-1.41v2.77c0 0.6367 0.2227 0.8945 0.75 0.8945 0.1914 0 0.4375-0.04297 0.6172-0.1328l0.03125 0.8633c-0.2461 0.08984-0.5703 0.1445-0.8945 0.1445-0.9961 0-1.547-0.5586-1.547-1.66v-2.879h-1.02v-0.8633h1.02v-1.523h1.043v1.523h1.41v0.8633" fill="#231f1f"/>
<path d="m187 432.6h1c0.01953 0.2695 0.04297 0.6758 0.04297 0.8984h0.03516c0.293-0.6172 0.9062-1.043 1.625-1.043 0.1445 0 0.2891 0.01172 0.4141 0.04297l-0.04688 0.9766c-0.1328-0.03516-0.3125-0.05469-0.4805-0.05469-1.008 0-1.488 0.8164-1.488 1.703v2.789h-1.055v-4.168c0-0.2812-0.01172-0.7969-0.04688-1.145" fill="#231f1f"/>
<path d="m194.9 437.9c-0.01953-0.2695-0.04297-0.6484-0.04297-0.875h-0.02344c-0.2695 0.5625-0.9648 1.02-1.738 1.02-1.367 0-1.98-0.9727-1.98-2.16v-3.297h1.051v2.938c0 0.875 0.2344 1.637 1.211 1.637 0.8398 0 1.422-0.6953 1.422-1.75v-2.824h1.055v4.172c0 0.2773 0.01172 0.793 0.04297 1.141h-0.9961" fill="#231f1f"/>
<path d="m201.4 433.9c-0.2266-0.3477-0.7188-0.6055-1.223-0.6055-1.098 0-1.734 0.8945-1.734 1.914 0 1.008 0.6367 1.918 1.746 1.918 0.5391 0 0.9961-0.2266 1.277-0.582l0.707 0.6367c-0.4492 0.5156-1.133 0.8281-1.984 0.8281-1.637 0-2.859-1.109-2.859-2.801 0-1.668 1.211-2.801 2.836-2.801 0.7539 0 1.559 0.3008 1.996 0.875l-0.7617 0.6172" fill="#231f1f"/>
<path d="m205.8 433.4h-1.414v2.77c0 0.6367 0.2266 0.8945 0.75 0.8945 0.1914 0 0.4375-0.04297 0.6172-0.1328l0.03516 0.8633c-0.2461 0.08984-0.5703 0.1445-0.8984 0.1445-0.9961 0-1.547-0.5586-1.547-1.66v-2.879h-1.016v-0.8633h1.016v-1.523h1.043v1.523h1.414v0.8633" fill="#231f1f"/>
<path d="m207.9 437.9h-1.051v-5.312h1.051zm-0.5273-6.555c-0.3789 0-0.6953-0.3047-0.6953-0.6719 0-0.3828 0.3164-0.6836 0.6953-0.6836 0.3828 0 0.707 0.2891 0.707 0.6836 0 0.3789-0.3242 0.6719-0.707 0.6719" fill="#231f1f"/>
<path d="m212.3 433.3c-1.129 0-1.77 0.9062-1.77 1.914 0 1.008 0.6406 1.93 1.77 1.93 1.145 0 1.773-0.9219 1.773-1.93 0-1.008-0.6289-1.914-1.773-1.914zm0 4.727c-1.621 0-2.855-1.176-2.855-2.812 0-1.633 1.234-2.789 2.855-2.789 1.629 0 2.871 1.156 2.871 2.789 0 1.637-1.242 2.812-2.871 2.812" fill="#231f1f"/>
<path d="m217.6 432.6c0.01953 0.2695 0.04297 0.6523 0.04297 0.875h0.03516c0.2578-0.5703 0.9609-1.02 1.723-1.02 1.367 0 1.984 0.9727 1.984 2.164v3.293h-1.051v-2.949c0-0.8594-0.2383-1.621-1.211-1.621-0.8281 0-1.426 0.6914-1.426 1.746v2.824h-1.051v-4.168c0-0.2812-0.01172-0.7969-0.04688-1.145h1" fill="#231f1f"/>
<path d="m314.3 197.7h-0.5v-136.9h0.5v136.9" fill="#231f1f"/>
<path d="m454.4 147.8h-179.9v-0.5h179.9v0.5" fill="#231f1f"/>
<path transform="matrix(.1 0 0 -.1 0 632.6)" d="m3416 4575c-28.98-1.094-55.59 1.797-76.33 8.828-85.9 29.18-138.5 111.4-173.2 181.4-53.01 107 57.23 255.3 74.38 364.8 23.75 151.9 28.79 282.6 96.64 370.2 15.47 20.04 37.03 45.55 61.91 56.45 33.05 14.41 50.51-26.02 54.8-48.63 23.91-125.4 31.48-242.1 46.13-363 14.84-122.3 40.04-244.5 72.11-363.9 10.12-37.58 14.69-78.09 0-114.3-23.16-57.23-93.01-89.3-156.4-91.68z" fill="none" stroke="#ed2222" stroke-width="15"/>
</svg>
